<svg width="1072" height="428" viewBox="0 0 1072 428" fill="none" xmlns="http://www.w3.org/2000/svg">
<path d="M572.062 -0.846405L592.482 -0.846405V-4.75793H595.664V6.44623H592.482V2.5347L572.062 2.5347V-0.846405Z" fill="#F7F7F7"/>
<path d="M580.316 12.9547L588.869 11.2973V11.231L580.316 9.57358V12.9547ZM572.062 4.60132L595.664 9.87189V12.6895L572.062 17.9601V14.5789L577.134 13.5845V8.9769L572.062 7.98242V4.60132Z" fill="#F7F7F7"/>
<path d="M572.062 20.0331H592.482V16.1216H595.664V27.3258H592.482V23.4142H572.062V20.0331Z" fill="#F7F7F7"/>
<path d="M572.062 28.8185H595.664V38.8955H592.482V32.1996H585.554V38.0337H582.371V32.1996H575.443V38.8955H572.062V28.8185Z" fill="#F7F7F7"/>
<path d="M572.062 47.2378H595.664V50.6189H585.554V54.7956H595.664V58.1768H572.062V54.7956H582.57V50.6189H572.062V47.2378Z" fill="#F7F7F7"/>
<path d="M595.664 72.2907H577.366C576.593 72.2907 575.874 72.147 575.211 71.8597C574.571 71.5945 573.996 71.2078 573.488 70.6995C572.979 70.1912 572.582 69.6057 572.294 68.9427C572.007 68.2798 571.863 67.5726 571.863 66.8212C571.863 66.0698 572.007 65.3626 572.294 64.6997C572.582 64.0588 572.979 63.4843 573.488 62.976C573.996 62.4677 574.571 62.0699 575.211 61.7826C575.874 61.4953 576.593 61.3517 577.366 61.3517H595.664V64.7329H577.698C576.858 64.7329 576.239 64.9317 575.841 65.3295C575.443 65.7273 575.245 66.2245 575.245 66.8212C575.245 67.4179 575.443 67.9151 575.841 68.3128C576.239 68.7106 576.858 68.9095 577.698 68.9095H595.664V72.2907Z" fill="#F7F7F7"/>
<path d="M572.062 75.4656H595.664V80.4048C595.664 81.4876 595.498 82.4047 595.167 83.156C594.835 83.9295 594.393 84.5593 593.841 85.0455C593.288 85.5317 592.647 85.8742 591.918 86.0731C591.211 86.2941 590.471 86.4046 589.697 86.4046H588.835C588.194 86.4046 587.653 86.3494 587.211 86.2389C586.769 86.1505 586.382 86.0068 586.051 85.8079C585.432 85.4322 584.902 84.8577 584.46 84.0842C584.084 84.8798 583.532 85.4654 582.802 85.841C582.073 86.2167 581.079 86.4046 579.819 86.4046H578.493C576.416 86.4046 574.825 85.8963 573.72 84.8797C572.615 83.8853 572.062 82.2832 572.062 80.0733V75.4656ZM583.001 78.8468H575.443V80.3053C575.443 80.9903 575.543 81.5207 575.742 81.8964C575.941 82.2942 576.217 82.5925 576.57 82.7914C576.924 82.9903 577.344 83.1118 577.83 83.156C578.316 83.2002 578.847 83.2223 579.421 83.2223C580.018 83.2223 580.537 83.1892 580.979 83.1229C581.421 83.0566 581.797 82.924 582.106 82.7251C582.416 82.5041 582.637 82.2058 582.769 81.8301C582.924 81.4544 583.001 80.9572 583.001 80.3384V78.8468ZM592.482 78.8468H585.985V80.3716C585.985 81.4987 586.261 82.25 586.813 82.6256C587.388 83.0234 588.217 83.2223 589.299 83.2223C590.36 83.2223 591.156 83.0013 591.686 82.5594C592.216 82.1395 592.482 81.366 592.482 80.239V78.8468Z" fill="#F7F7F7"/>
<path d="M572.062 95.7301H595.664V105.807H592.482V99.1112H585.554V104.945H582.371V99.1112H575.443V105.807H572.062V95.7301Z" fill="#F7F7F7"/>
<path d="M588.869 118.938V115.557H589.631C590.404 115.557 591.067 115.369 591.62 114.993C592.194 114.64 592.482 114.032 592.482 113.17C592.482 112.706 592.393 112.33 592.216 112.043C592.04 111.756 591.819 111.524 591.554 111.347C591.266 111.17 590.935 111.049 590.559 110.982C590.205 110.916 589.83 110.883 589.432 110.883C588.968 110.883 588.581 110.894 588.272 110.916C587.962 110.96 587.686 111.049 587.443 111.181C587.2 111.314 586.99 111.502 586.813 111.745C586.637 112.01 586.46 112.363 586.283 112.805L585.255 115.391C584.968 116.142 584.626 116.75 584.228 117.214C583.852 117.678 583.41 118.043 582.902 118.308C582.371 118.551 581.764 118.717 581.079 118.805C580.416 118.894 579.653 118.938 578.791 118.938C577.797 118.938 576.869 118.838 576.007 118.639C575.167 118.441 574.449 118.12 573.852 117.678C573.234 117.214 572.747 116.606 572.394 115.855C572.04 115.104 571.863 114.187 571.863 113.104C571.863 112.286 572.007 111.524 572.294 110.816C572.582 110.109 572.979 109.502 573.488 108.993C573.996 108.485 574.582 108.076 575.245 107.767C575.93 107.48 576.67 107.336 577.465 107.336H578.725V110.717H577.664C577.046 110.717 576.482 110.894 575.974 111.247C575.488 111.623 575.245 112.242 575.245 113.104C575.245 113.678 575.322 114.12 575.477 114.43C575.653 114.761 575.896 115.015 576.206 115.192C576.515 115.369 576.88 115.468 577.3 115.49C577.742 115.535 578.228 115.557 578.758 115.557C579.377 115.557 579.885 115.535 580.283 115.49C580.681 115.446 581.001 115.358 581.244 115.225C581.487 115.07 581.686 114.861 581.841 114.595C581.996 114.352 582.161 114.021 582.338 113.601L583.333 111.181C583.929 109.723 584.714 108.739 585.686 108.231C586.681 107.745 587.918 107.502 589.399 107.502C590.283 107.502 591.123 107.623 591.918 107.866C592.714 108.109 593.399 108.474 593.973 108.96C594.548 109.424 595.001 110.01 595.332 110.717C595.686 111.446 595.863 112.308 595.863 113.303C595.863 114.142 595.708 114.905 595.399 115.59C595.089 116.297 594.681 116.905 594.172 117.413C593.111 118.43 591.896 118.938 590.526 118.938H588.869Z" fill="#F7F7F7"/>
<path d="M572.062 123.686H592.482V119.775H595.664V130.979H592.482V127.067H572.062V123.686Z" fill="#F7F7F7"/>
<path d="M580.316 137.487L588.869 135.83V135.764L580.316 134.106V137.487ZM572.062 129.134L595.664 134.405V137.222L572.062 142.493V139.112L577.134 138.117V133.51L572.062 132.515V129.134Z" fill="#F7F7F7"/>
<path d="M572.062 144.566H592.482V140.654H595.664V151.858H592.482V147.947H572.062V144.566Z" fill="#F7F7F7"/>
<path d="M572.062 153.351H595.664V163.428H592.482V156.732H585.554V162.566H582.371V156.732H575.443V163.428H572.062V153.351Z" fill="#F7F7F7"/>
<path d="M572.062 171.77H595.664V175.152H585.554V179.328H595.664V182.709H572.062V179.328H582.57V175.152H572.062V171.77Z" fill="#F7F7F7"/>
<path d="M595.664 196.823H577.366C576.593 196.823 575.874 196.68 575.211 196.392C574.571 196.127 573.996 195.741 573.488 195.232C572.979 194.724 572.582 194.138 572.294 193.475C572.007 192.812 571.863 192.105 571.863 191.354C571.863 190.603 572.007 189.895 572.294 189.232C572.582 188.592 572.979 188.017 573.488 187.509C573.996 187 574.571 186.603 575.211 186.315C575.874 186.028 576.593 185.884 577.366 185.884H595.664V189.266H577.698C576.858 189.266 576.239 189.464 575.841 189.862C575.443 190.26 575.245 190.757 575.245 191.354C575.245 191.951 575.443 192.448 575.841 192.846C576.239 193.243 576.858 193.442 577.698 193.442H595.664V196.823Z" fill="#F7F7F7"/>
<path d="M572.062 199.998H595.664V204.937C595.664 206.02 595.498 206.937 595.167 207.689C594.835 208.462 594.393 209.092 593.841 209.578C593.288 210.064 592.647 210.407 591.918 210.606C591.211 210.827 590.471 210.937 589.697 210.937H588.835C588.194 210.937 587.653 210.882 587.211 210.772C586.769 210.683 586.382 210.54 586.051 210.341C585.432 209.965 584.902 209.39 584.46 208.617C584.084 209.413 583.532 209.998 582.802 210.374C582.073 210.749 581.079 210.937 579.819 210.937H578.493C576.416 210.937 574.825 210.429 573.72 209.413C572.615 208.418 572.062 206.816 572.062 204.606V199.998ZM583.001 203.379H575.443V204.838C575.443 205.523 575.543 206.053 575.742 206.429C575.941 206.827 576.217 207.125 576.57 207.324C576.924 207.523 577.344 207.645 577.83 207.689C578.316 207.733 578.847 207.755 579.421 207.755C580.018 207.755 580.537 207.722 580.979 207.656C581.421 207.589 581.797 207.457 582.106 207.258C582.416 207.037 582.637 206.739 582.769 206.363C582.924 205.987 583.001 205.49 583.001 204.871V203.379ZM592.482 203.379H585.985V204.904C585.985 206.031 586.261 206.783 586.813 207.158C587.388 207.556 588.217 207.755 589.299 207.755C590.36 207.755 591.156 207.534 591.686 207.092C592.216 206.672 592.482 205.899 592.482 204.772V203.379Z" fill="#F7F7F7"/>
<path d="M572.062 220.263H595.664V230.34H592.482V223.644H585.554V229.478H582.371V223.644H575.443V230.34H572.062V220.263Z" fill="#F7F7F7"/>
<path d="M588.869 243.471V240.089H589.631C590.404 240.089 591.067 239.902 591.62 239.526C592.194 239.172 592.482 238.565 592.482 237.703C592.482 237.239 592.393 236.863 592.216 236.576C592.04 236.288 591.819 236.056 591.554 235.88C591.266 235.703 590.935 235.581 590.559 235.515C590.205 235.449 589.83 235.416 589.432 235.416C588.968 235.416 588.581 235.427 588.272 235.449C587.962 235.493 587.686 235.581 587.443 235.714C587.2 235.846 586.99 236.034 586.813 236.277C586.637 236.543 586.46 236.896 586.283 237.338L585.255 239.924C584.968 240.675 584.626 241.283 584.228 241.747C583.852 242.211 583.41 242.576 582.902 242.841C582.371 243.084 581.764 243.25 581.079 243.338C580.416 243.426 579.653 243.471 578.791 243.471C577.797 243.471 576.869 243.371 576.007 243.172C575.167 242.973 574.449 242.653 573.852 242.211C573.234 241.747 572.747 241.139 572.394 240.388C572.04 239.636 571.863 238.719 571.863 237.636C571.863 236.819 572.007 236.056 572.294 235.349C572.582 234.642 572.979 234.034 573.488 233.526C573.996 233.018 574.582 232.609 575.245 232.3C575.93 232.012 576.67 231.869 577.465 231.869H578.725V235.25H577.664C577.046 235.25 576.482 235.427 575.974 235.78C575.488 236.156 575.245 236.775 575.245 237.636C575.245 238.211 575.322 238.653 575.477 238.962C575.653 239.294 575.896 239.548 576.206 239.725C576.515 239.902 576.88 240.001 577.3 240.023C577.742 240.067 578.228 240.089 578.758 240.089C579.377 240.089 579.885 240.067 580.283 240.023C580.681 239.979 581.001 239.891 581.244 239.758C581.487 239.603 581.686 239.393 581.841 239.128C581.996 238.885 582.161 238.554 582.338 238.134L583.333 235.714C583.929 234.255 584.714 233.272 585.686 232.764C586.681 232.277 587.918 232.034 589.399 232.034C590.283 232.034 591.123 232.156 591.918 232.399C592.714 232.642 593.399 233.007 593.973 233.493C594.548 233.957 595.001 234.543 595.332 235.25C595.686 235.979 595.863 236.841 595.863 237.835C595.863 238.675 595.708 239.437 595.399 240.123C595.089 240.83 594.681 241.438 594.172 241.946C593.111 242.962 591.896 243.471 590.526 243.471H588.869Z" fill="#F7F7F7"/>
<path d="M572.062 248.219H592.482V244.308H595.664V255.512H592.482V251.6H572.062V248.219Z" fill="#F7F7F7"/>
<path d="M580.316 262.02L588.869 260.363V260.296L580.316 258.639V262.02ZM572.062 253.667L595.664 258.937V261.755L572.062 267.026V263.644L577.134 262.65V258.042L572.062 257.048V253.667Z" fill="#F7F7F7"/>
<path d="M572.062 269.099H592.482V265.187H595.664V276.391H592.482V272.48H572.062V269.099Z" fill="#F7F7F7"/>
<path d="M572.062 277.884H595.664V287.961H592.482V281.265H585.554V287.099H582.371V281.265H575.443V287.961H572.062V277.884Z" fill="#F7F7F7"/>
<path d="M572.062 296.303H595.664V299.684H585.554V303.861H595.664V307.242H572.062V303.861H582.57V299.684H572.062V296.303Z" fill="#F7F7F7"/>
<path d="M595.664 321.356H577.366C576.593 321.356 575.874 321.212 575.211 320.925C574.571 320.66 573.996 320.273 573.488 319.765C572.979 319.257 572.582 318.671 572.294 318.008C572.007 317.345 571.863 316.638 571.863 315.887C571.863 315.135 572.007 314.428 572.294 313.765C572.582 313.124 572.979 312.55 573.488 312.041C573.996 311.533 574.571 311.135 575.211 310.848C575.874 310.561 576.593 310.417 577.366 310.417H595.664V313.798H577.698C576.858 313.798 576.239 313.997 575.841 314.395C575.443 314.793 575.245 315.29 575.245 315.887C575.245 316.483 575.443 316.98 575.841 317.378C576.239 317.776 576.858 317.975 577.698 317.975H595.664V321.356Z" fill="#F7F7F7"/>
<path d="M572.062 324.531H595.664V329.47C595.664 330.553 595.498 331.47 595.167 332.222C594.835 332.995 594.393 333.625 593.841 334.111C593.288 334.597 592.647 334.94 591.918 335.139C591.211 335.36 590.471 335.47 589.697 335.47H588.835C588.194 335.47 587.653 335.415 587.211 335.304C586.769 335.216 586.382 335.072 586.051 334.873C585.432 334.498 584.902 333.923 584.46 333.15C584.084 333.945 583.532 334.531 582.802 334.906C582.073 335.282 581.079 335.47 579.819 335.47H578.493C576.416 335.47 574.825 334.962 573.72 333.945C572.615 332.951 572.062 331.349 572.062 329.139V324.531ZM583.001 327.912H575.443V329.371C575.443 330.056 575.543 330.586 575.742 330.962C575.941 331.36 576.217 331.658 576.57 331.857C576.924 332.056 577.344 332.177 577.83 332.222C578.316 332.266 578.847 332.288 579.421 332.288C580.018 332.288 580.537 332.255 580.979 332.188C581.421 332.122 581.797 331.989 582.106 331.791C582.416 331.57 582.637 331.271 582.769 330.896C582.924 330.52 583.001 330.023 583.001 329.404V327.912ZM592.482 327.912H585.985V329.437C585.985 330.564 586.261 331.315 586.813 331.691C587.388 332.089 588.217 332.288 589.299 332.288C590.36 332.288 591.156 332.067 591.686 331.625C592.216 331.205 592.482 330.431 592.482 329.304V327.912Z" fill="#F7F7F7"/>
<path d="M572.062 344.796H595.664V354.873H592.482V348.177H585.554V354.011H582.371V348.177H575.443V354.873H572.062V344.796Z" fill="#F7F7F7"/>
<path d="M588.869 368.003V364.622H589.631C590.404 364.622 591.067 364.434 591.62 364.059C592.194 363.705 592.482 363.097 592.482 362.235C592.482 361.771 592.393 361.396 592.216 361.108C592.04 360.821 591.819 360.589 591.554 360.412C591.266 360.236 590.935 360.114 590.559 360.048C590.205 359.981 589.83 359.948 589.432 359.948C588.968 359.948 588.581 359.959 588.272 359.981C587.962 360.026 587.686 360.114 587.443 360.247C587.2 360.379 586.99 360.567 586.813 360.81C586.637 361.075 586.46 361.429 586.283 361.871L585.255 364.456C584.968 365.208 584.626 365.815 584.228 366.28C583.852 366.744 583.41 367.108 582.902 367.373C582.371 367.617 581.764 367.782 581.079 367.871C580.416 367.959 579.653 368.003 578.791 368.003C577.797 368.003 576.869 367.904 576.007 367.705C575.167 367.506 574.449 367.186 573.852 366.744C573.234 366.28 572.747 365.672 572.394 364.92C572.04 364.169 571.863 363.252 571.863 362.169C571.863 361.352 572.007 360.589 572.294 359.882C572.582 359.175 572.979 358.567 573.488 358.059C573.996 357.551 574.582 357.142 575.245 356.832C575.93 356.545 576.67 356.401 577.465 356.401H578.725V359.783H577.664C577.046 359.783 576.482 359.959 575.974 360.313C575.488 360.689 575.245 361.307 575.245 362.169C575.245 362.744 575.322 363.186 575.477 363.495C575.653 363.827 575.896 364.081 576.206 364.257C576.515 364.434 576.88 364.534 577.3 364.556C577.742 364.6 578.228 364.622 578.758 364.622C579.377 364.622 579.885 364.6 580.283 364.556C580.681 364.512 581.001 364.423 581.244 364.291C581.487 364.136 581.686 363.926 581.841 363.661C581.996 363.418 582.161 363.086 582.338 362.666L583.333 360.247C583.929 358.788 584.714 357.805 585.686 357.296C586.681 356.81 587.918 356.567 589.399 356.567C590.283 356.567 591.123 356.689 591.918 356.932C592.714 357.175 593.399 357.539 593.973 358.026C594.548 358.49 595.001 359.075 595.332 359.783C595.686 360.512 595.863 361.374 595.863 362.368C595.863 363.208 595.708 363.97 595.399 364.655C595.089 365.362 594.681 365.97 594.172 366.478C593.111 367.495 591.896 368.003 590.526 368.003H588.869Z" fill="#F7F7F7"/>
<path d="M572.062 372.752H592.482V368.84H595.664V380.044H592.482V376.133H572.062V372.752Z" fill="#F7F7F7"/>
<path d="M580.316 386.553L588.869 384.895V384.829L580.316 383.172V386.553ZM572.062 378.199L595.664 383.47V386.288L572.062 391.558V388.177L577.134 387.183V382.575L572.062 381.581V378.199Z" fill="#F7F7F7"/>
<path d="M572.062 393.631H592.482V389.72H595.664V400.924H592.482V397.012H572.062V393.631Z" fill="#F7F7F7"/>
<path d="M572.062 402.417H595.664V412.494H592.482V405.798H585.554V411.632H582.371V405.798H575.443V412.494H572.062V402.417Z" fill="#F7F7F7"/>
<g opacity="0.03">
<path d="M0 94.5055C0 77.1234 3.02085 61.7624 9.06254 48.4227C15.1042 35.0829 23.1598 23.9664 33.2293 15.0732C42.896 6.58426 53.7711 0.116495 65.8545 -4.33009C78.3407 -8.7767 90.8269 -11 103.313 -11C115.799 -11 128.084 -8.7767 140.167 -4.33009C152.654 0.116495 163.931 6.58426 174.001 15.0732C183.668 23.9664 191.522 35.0829 197.563 48.4227C203.605 61.7624 206.626 77.1234 206.626 94.5055V322.495C206.626 340.685 203.605 356.248 197.563 369.184C191.522 382.119 183.668 392.831 174.001 401.32C163.931 410.214 152.654 416.884 140.167 421.33C128.084 425.777 115.799 428 103.313 428C90.8269 428 78.3407 425.777 65.8545 421.33C53.7711 416.884 42.896 410.214 33.2293 401.32C23.1598 392.831 15.1042 382.119 9.06254 369.184C3.02085 356.248 0 340.685 0 322.495V94.5055ZM61.6253 322.495C61.6253 337.451 65.6531 348.568 73.7087 355.844C82.1671 362.716 92.0352 366.152 103.313 366.152C114.591 366.152 124.258 362.716 132.313 355.844C140.772 348.568 145.001 337.451 145.001 322.495V94.5055C145.001 79.5488 140.772 68.6344 132.313 61.7624C124.258 54.4862 114.591 50.8481 103.313 50.8481C92.0352 50.8481 82.1671 54.4862 73.7087 61.7624C65.6531 68.6344 61.6253 79.5488 61.6253 94.5055V322.495Z" fill="black"/>
<path d="M372.971 424.362V-7.36185H434.596V177.576H510.722V-7.36185H572.347V424.362H510.722V232.148H434.596V424.362H372.971Z" fill="black"/>
<path d="M754.674 273.38L724.466 116.941H723.257L693.049 273.38H754.674ZM602.423 424.362L698.486 -7.36185H749.841L845.904 424.362H784.278L766.153 331.59H682.174L664.049 424.362H602.423Z" fill="black"/>
<path d="M1072 301.272V327.952C1072 341.291 1069.38 354.025 1064.15 366.152C1059.31 377.875 1052.47 388.385 1043.6 397.682C1034.74 406.98 1024.27 414.458 1012.19 420.117C1000.51 425.372 987.819 428 974.124 428C962.444 428 950.562 426.383 938.478 423.149C926.395 419.915 915.52 414.256 905.853 406.171C896.187 398.087 888.131 387.779 881.687 375.247C875.645 362.312 872.624 345.94 872.624 326.133V88.442C872.624 74.2937 875.041 61.1561 879.874 49.029C884.707 36.9019 891.555 26.3918 900.416 17.4986C909.277 8.60546 919.749 1.73344 931.833 -3.1174C944.319 -8.37247 958.013 -11 972.916 -11C1001.92 -11 1025.48 -1.50045 1043.6 17.4986C1052.47 26.7961 1059.31 37.9125 1064.15 50.8481C1069.38 63.3794 1072 77.1234 1072 92.0801V116.334H1010.37V95.7182C1010.37 83.5912 1006.95 73.081 1000.1 64.1879C993.257 55.2947 983.993 50.8481 972.312 50.8481C957.006 50.8481 946.735 55.6989 941.499 65.4006C936.666 74.698 934.249 86.6229 934.249 101.175V321.888C934.249 334.419 936.867 344.93 942.103 353.419C947.742 361.907 957.611 366.152 971.708 366.152C975.736 366.152 979.965 365.546 984.395 364.333C989.229 362.716 993.659 360.291 997.687 357.057C1001.31 353.823 1004.33 349.376 1006.75 343.717C1009.17 338.058 1010.37 330.983 1010.37 322.495V301.272H1072Z" fill="black"/>
</g>
<path d="M760.901 7.68361L760.186 4.3791L760.931 4.21768C761.687 4.05392 762.295 3.73001 762.755 3.24587C763.242 2.77866 763.394 2.12387 763.212 1.28155C763.113 0.827994 762.947 0.479543 762.714 0.236203C762.48 -0.00713787 762.215 -0.187117 761.918 -0.303753C761.6 -0.41571 761.251 -0.464307 760.869 -0.449558C760.51 -0.439489 760.136 -0.392355 759.747 -0.308134C759.293 -0.209876 758.918 -0.117172 758.62 -0.0300692C758.327 0.0786317 758.076 0.223491 757.866 0.404547C757.657 0.585602 757.491 0.81362 757.37 1.08863C757.253 1.38523 757.155 1.76822 757.076 2.2376L756.619 4.98216C756.498 5.77731 756.291 6.44374 756.001 6.98152C755.732 7.51461 755.377 7.96457 754.937 8.33136C754.47 8.68123 753.911 8.97191 753.26 9.20335C752.631 9.43011 751.895 9.63473 751.053 9.81721C750.081 10.0278 749.153 10.1271 748.268 10.1152C747.406 10.0986 746.636 9.93747 745.959 9.63184C745.256 9.3093 744.652 8.81833 744.148 8.15886C743.643 7.4994 743.276 6.64052 743.047 5.58222C742.874 4.7831 742.853 4.00753 742.984 3.25557C743.115 2.50362 743.375 1.82546 743.764 1.22109C744.153 0.616727 744.639 0.0931909 745.221 -0.349547C745.83 -0.775367 746.523 -1.07251 747.301 -1.24095L748.532 -1.50765L749.248 1.79683L748.211 2.02142C747.606 2.15243 747.093 2.44455 746.671 2.89773C746.275 3.36783 746.169 4.02403 746.351 4.86634C746.473 5.42789 746.642 5.84346 746.859 6.11308C747.102 6.39962 747.393 6.59653 747.733 6.70381C748.073 6.81109 748.45 6.83105 748.865 6.76375C749.306 6.71337 749.786 6.63202 750.305 6.51972C750.909 6.38871 751.401 6.25951 751.781 6.13209C752.16 6.00468 752.455 5.85043 752.664 5.66937C752.869 5.46672 753.019 5.21943 753.114 4.9275C753.214 4.65717 753.305 4.29811 753.389 3.85032L753.849 1.27483C754.123 -0.27696 754.682 -1.40416 755.524 -2.10679C756.393 -2.79249 757.551 -3.29208 758.998 -3.60557C759.862 -3.79272 760.709 -3.85177 761.538 -3.78264C762.367 -3.7135 763.114 -3.50218 763.778 -3.14868C764.438 -2.81677 765.005 -2.34034 765.478 -1.7194C765.978 -1.08153 766.334 -0.276641 766.544 0.695263C766.722 1.51598 766.732 2.29386 766.575 3.0289C766.422 3.78553 766.151 4.46603 765.762 5.0704C764.941 6.28849 763.86 7.0426 762.521 7.33269L760.901 7.68361Z" fill="#D37700"/>
<path d="M745.482 15.8828L765.438 11.5594L764.61 7.73658L767.72 7.06281L770.092 18.013L766.982 18.6867L766.154 14.8639L746.198 19.1872L745.482 15.8828Z" fill="#D37700"/>
<path d="M756.471 27.6234L764.478 24.1928L764.464 24.128L755.755 24.3189L756.471 27.6234ZM746.635 21.207L770.818 21.361L771.414 24.1147L749.464 34.2629L748.748 30.9584L753.494 28.9127L752.518 24.4095L747.351 24.5114L746.635 21.207Z" fill="#D37700"/>
<path d="M749.902 36.289L769.859 31.9656L769.031 28.1428L772.141 27.469L774.513 38.4191L771.403 39.0929L770.575 35.2701L750.618 39.5934L749.902 36.289Z" fill="#D37700"/>
<path d="M751.763 44.8751L774.829 39.878L776.963 49.7266L773.853 50.4004L772.435 43.8563L765.664 45.3231L766.899 51.0249L763.789 51.6987L762.554 45.9969L755.783 47.4637L757.201 54.0078L753.896 54.7237L751.763 44.8751Z" fill="#D37700"/>
<path d="M755.662 62.8768L778.729 57.8797L779.445 61.1842L769.564 63.3248L770.448 67.4068L780.329 65.2662L781.045 68.5707L757.979 73.5678L757.263 70.2633L767.532 68.0385L766.648 63.9565L756.378 66.1813L755.662 62.8768Z" fill="#D37700"/>
<path d="M784.033 82.3646L766.15 86.2388C765.394 86.4026 764.662 86.4142 763.953 86.2738C763.271 86.1503 762.627 85.894 762.023 85.5048C761.419 85.1157 760.906 84.6277 760.485 84.0406C760.064 83.4534 759.774 82.7927 759.614 82.0584C759.455 81.324 759.446 80.6025 759.586 79.8937C759.731 79.2065 759.999 78.5608 760.388 77.9564C760.777 77.3521 761.254 76.8416 761.82 76.4252C762.407 76.004 763.078 75.7116 763.834 75.5478L781.717 71.6737L782.433 74.9782L764.874 78.7822C764.053 78.96 763.491 79.2853 763.186 79.7583C762.882 80.2313 762.793 80.7593 762.919 81.3425C763.045 81.9256 763.345 82.3694 763.818 82.674C764.291 82.9785 764.938 83.0419 765.758 82.8641L783.317 79.0601L784.033 82.3646Z" fill="#D37700"/>
<path d="M761.639 90.4647L784.706 85.4676L785.751 90.2948C785.981 91.353 786.013 92.2844 785.848 93.0889C785.688 93.915 785.389 94.6242 784.952 95.2163C784.515 95.8084 783.961 96.2789 783.291 96.6277C782.646 96.9934 781.946 97.2581 781.19 97.4219L780.348 97.6043C779.722 97.74 779.181 97.8007 778.725 97.7863C778.275 97.7935 777.866 97.7349 777.5 97.6107C776.816 97.3746 776.176 96.9253 775.58 96.263C775.382 97.1201 774.966 97.8094 774.332 98.3309C773.699 98.8525 772.767 99.2466 771.536 99.5133L770.24 99.7941C768.21 100.234 766.547 100.074 765.252 99.3145C763.962 98.5765 763.083 97.1277 762.615 94.9679L761.639 90.4647ZM773.046 91.4531L765.659 93.0533L765.968 94.4788C766.113 95.1483 766.323 95.6456 766.597 95.9706C766.875 96.3173 767.208 96.5504 767.596 96.6699C767.984 96.7894 768.42 96.8193 768.904 96.7596C769.389 96.6998 769.912 96.6091 770.473 96.4875C771.057 96.3611 771.557 96.2188 771.975 96.0604C772.393 95.902 772.732 95.6929 772.992 95.4331C773.248 95.1516 773.401 94.8132 773.451 94.418C773.522 94.018 773.493 93.5157 773.362 92.9109L773.046 91.4531ZM782.311 89.4459L775.962 90.8215L776.284 92.3117C776.523 93.4132 776.952 94.089 777.572 94.3392C778.217 94.6063 779.069 94.6252 780.128 94.396C781.164 94.1714 781.895 93.787 782.32 93.2427C782.749 92.7201 782.845 91.908 782.606 90.8065L782.311 89.4459Z" fill="#D37700"/>
<path d="M765.93 110.27L788.996 105.273L791.13 115.121L788.02 115.795L786.602 109.251L779.831 110.718L781.066 116.42L777.956 117.093L776.721 111.392L769.95 112.858L771.368 119.403L768.063 120.118L765.93 110.27Z" fill="#D37700"/>
<path d="M787.269 129.393L786.553 126.089L787.298 125.927C788.054 125.763 788.662 125.439 789.122 124.955C789.609 124.488 789.761 123.833 789.579 122.991C789.48 122.537 789.314 122.189 789.081 121.946C788.847 121.702 788.582 121.522 788.285 121.406C787.967 121.294 787.618 121.245 787.236 121.26C786.877 121.27 786.503 121.317 786.114 121.401C785.66 121.5 785.285 121.592 784.987 121.679C784.694 121.788 784.443 121.933 784.233 122.114C784.024 122.295 783.858 122.523 783.737 122.798C783.62 123.095 783.522 123.478 783.443 123.947L782.986 126.692C782.865 127.487 782.658 128.153 782.368 128.691C782.099 129.224 781.744 129.674 781.304 130.041C780.837 130.391 780.278 130.681 779.627 130.913C778.998 131.14 778.262 131.344 777.42 131.527C776.448 131.737 775.52 131.836 774.635 131.825C773.773 131.808 773.003 131.647 772.326 131.341C771.623 131.019 771.019 130.528 770.515 129.868C770.01 129.209 769.643 128.35 769.414 127.292C769.241 126.492 769.22 125.717 769.351 124.965C769.482 124.213 769.742 123.535 770.131 122.93C770.52 122.326 771.006 121.803 771.588 121.36C772.197 120.934 772.89 120.637 773.668 120.468L774.899 120.202L775.615 123.506L774.578 123.731C773.973 123.862 773.46 124.154 773.038 124.607C772.642 125.077 772.536 125.733 772.718 126.576C772.84 127.137 773.009 127.553 773.226 127.822C773.469 128.109 773.76 128.306 774.1 128.413C774.44 128.52 774.817 128.54 775.232 128.473C775.673 128.423 776.153 128.341 776.672 128.229C777.276 128.098 777.768 127.969 778.148 127.841C778.527 127.714 778.822 127.56 779.031 127.379C779.236 127.176 779.386 126.929 779.481 126.637C779.581 126.367 779.672 126.008 779.756 125.56L780.216 122.984C780.49 121.432 781.049 120.305 781.891 119.603C782.76 118.917 783.918 118.417 785.366 118.104C786.229 117.917 787.076 117.858 787.905 117.927C788.734 117.996 789.481 118.207 790.145 118.561C790.805 118.893 791.372 119.369 791.845 119.99C792.345 120.628 792.701 121.433 792.911 122.405C793.089 123.225 793.099 124.003 792.942 124.738C792.789 125.495 792.518 126.175 792.129 126.78C791.308 127.998 790.227 128.752 788.888 129.042L787.269 129.393Z" fill="#D37700"/>
<path d="M771.849 137.592L791.805 133.269L790.977 129.446L794.087 128.772L796.459 139.722L793.349 140.396L792.521 136.573L772.565 140.897L771.849 137.592Z" fill="#D37700"/>
<path d="M782.838 149.333L790.845 145.902L790.831 145.837L782.122 146.028L782.838 149.333ZM773.002 142.916L797.185 143.07L797.781 145.824L775.831 155.972L775.115 152.668L779.861 150.622L778.885 146.119L773.718 146.221L773.002 142.916Z" fill="#D37700"/>
<path d="M776.27 157.998L796.226 153.675L795.398 149.852L798.508 149.178L800.88 160.129L797.77 160.802L796.942 156.979L776.985 161.303L776.27 157.998Z" fill="#D37700"/>
<path d="M778.13 166.584L801.196 161.587L803.33 171.436L800.22 172.11L798.802 165.566L792.031 167.032L793.266 172.734L790.156 173.408L788.921 167.706L782.15 169.173L783.568 175.717L780.263 176.433L778.13 166.584Z" fill="#D37700"/>
<path d="M782.029 184.586L805.096 179.589L805.812 182.894L795.931 185.034L796.815 189.116L806.696 186.976L807.412 190.28L784.346 195.277L783.63 191.973L793.899 189.748L793.015 185.666L782.745 187.891L782.029 184.586Z" fill="#D37700"/>
<path d="M810.4 204.074L792.517 207.948C791.761 208.112 791.029 208.124 790.32 207.983C789.638 207.86 788.994 207.603 788.39 207.214C787.786 206.825 787.273 206.337 786.852 205.75C786.431 205.163 786.141 204.502 785.981 203.768C785.822 203.033 785.813 202.312 785.953 201.603C786.099 200.916 786.366 200.27 786.755 199.666C787.144 199.061 787.621 198.551 788.187 198.135C788.774 197.713 789.445 197.421 790.201 197.257L808.084 193.383L808.8 196.688L791.241 200.492C790.42 200.669 789.858 200.995 789.553 201.468C789.249 201.941 789.16 202.469 789.286 203.052C789.412 203.635 789.712 204.079 790.185 204.383C790.658 204.688 791.305 204.751 792.125 204.574L809.685 200.77L810.4 204.074Z" fill="#D37700"/>
<path d="M788.006 212.174L811.073 207.177L812.118 212.004C812.348 213.062 812.38 213.994 812.215 214.798C812.055 215.625 811.756 216.334 811.319 216.926C810.882 217.518 810.328 217.988 809.658 218.337C809.013 218.703 808.313 218.967 807.557 219.131L806.715 219.314C806.089 219.449 805.548 219.51 805.092 219.496C804.642 219.503 804.233 219.444 803.867 219.32C803.183 219.084 802.543 218.635 801.947 217.972C801.749 218.83 801.333 219.519 800.699 220.04C800.066 220.562 799.134 220.956 797.903 221.223L796.607 221.503C794.577 221.943 792.914 221.783 791.619 221.024C790.329 220.286 789.45 218.837 788.982 216.677L788.006 212.174ZM799.413 213.163L792.026 214.763L792.335 216.188C792.48 216.858 792.69 217.355 792.964 217.68C793.242 218.027 793.575 218.26 793.963 218.379C794.351 218.499 794.787 218.529 795.271 218.469C795.756 218.409 796.279 218.319 796.84 218.197C797.424 218.071 797.924 217.928 798.342 217.77C798.76 217.611 799.099 217.402 799.359 217.142C799.615 216.861 799.768 216.523 799.818 216.127C799.889 215.727 799.86 215.225 799.729 214.62L799.413 213.163ZM808.678 211.155L802.329 212.531L802.651 214.021C802.89 215.123 803.319 215.798 803.939 216.049C804.584 216.316 805.436 216.335 806.495 216.105C807.531 215.881 808.262 215.496 808.687 214.952C809.116 214.429 809.212 213.617 808.973 212.516L808.678 211.155Z" fill="#D37700"/>
<path d="M792.297 231.979L815.363 226.982L817.497 236.831L814.387 237.504L812.969 230.96L806.198 232.427L807.433 238.129L804.323 238.803L803.088 233.101L796.317 234.568L797.735 241.112L794.43 241.828L792.297 231.979Z" fill="#D37700"/>
<path d="M813.636 251.102L812.92 247.798L813.665 247.637C814.421 247.473 815.029 247.149 815.489 246.665C815.976 246.197 816.128 245.543 815.946 244.7C815.847 244.247 815.681 243.898 815.448 243.655C815.214 243.412 814.949 243.232 814.652 243.115C814.334 243.003 813.985 242.955 813.603 242.969C813.244 242.979 812.87 243.027 812.481 243.111C812.027 243.209 811.652 243.302 811.354 243.389C811.061 243.497 810.81 243.642 810.6 243.823C810.391 244.004 810.225 244.232 810.104 244.507C809.987 244.804 809.889 245.187 809.81 245.656L809.353 248.401C809.232 249.196 809.026 249.863 808.735 250.4C808.466 250.933 808.111 251.383 807.671 251.75C807.204 252.1 806.645 252.391 805.994 252.622C805.365 252.849 804.629 253.054 803.787 253.236C802.815 253.447 801.887 253.546 801.002 253.534C800.14 253.517 799.37 253.356 798.693 253.051C797.99 252.728 797.386 252.237 796.882 251.578C796.377 250.918 796.01 250.059 795.781 249.001C795.608 248.202 795.587 247.426 795.718 246.674C795.849 245.922 796.109 245.244 796.498 244.64C796.887 244.036 797.373 243.512 797.955 243.069C798.564 242.643 799.257 242.346 800.035 242.178L801.266 241.911L801.982 245.216L800.945 245.44C800.34 245.571 799.827 245.863 799.405 246.316C799.009 246.787 798.903 247.443 799.085 248.285C799.207 248.847 799.376 249.262 799.593 249.532C799.836 249.818 800.127 250.015 800.467 250.123C800.807 250.23 801.184 250.25 801.599 250.183C802.04 250.132 802.52 250.051 803.039 249.939C803.643 249.808 804.135 249.678 804.515 249.551C804.894 249.423 805.189 249.269 805.398 249.088C805.603 248.886 805.753 248.638 805.848 248.346C805.948 248.076 806.04 247.717 806.123 247.269L806.583 244.694C806.857 243.142 807.416 242.015 808.258 241.312C809.127 240.626 810.285 240.127 811.733 239.813C812.596 239.626 813.443 239.567 814.272 239.636C815.101 239.705 815.848 239.917 816.512 240.27C817.172 240.602 817.739 241.078 818.212 241.699C818.712 242.337 819.068 243.142 819.278 244.114C819.456 244.935 819.466 245.713 819.309 246.448C819.156 247.204 818.885 247.885 818.496 248.489C817.675 249.707 816.594 250.461 815.255 250.751L813.636 251.102Z" fill="#D37700"/>
<path d="M798.216 259.302L818.172 254.978L817.344 251.155L820.454 250.482L822.826 261.432L819.716 262.106L818.888 258.283L798.932 262.606L798.216 259.302Z" fill="#D37700"/>
<path d="M809.205 271.042L817.212 267.612L817.198 267.547L808.489 267.738L809.205 271.042ZM799.369 264.626L823.552 264.78L824.148 267.533L802.198 277.682L801.482 274.377L806.228 272.331L805.252 267.828L800.085 267.93L799.369 264.626Z" fill="#D37700"/>
<path d="M802.637 279.708L822.593 275.384L821.765 271.562L824.875 270.888L827.247 281.838L824.137 282.512L823.309 278.689L803.352 283.012L802.637 279.708Z" fill="#D37700"/>
<path d="M804.497 288.294L827.563 283.297L829.697 293.145L826.587 293.819L825.169 287.275L818.398 288.742L819.633 294.444L816.523 295.118L815.288 289.416L808.517 290.883L809.935 297.427L806.63 298.143L804.497 288.294Z" fill="#D37700"/>
<path d="M808.397 306.296L831.463 301.299L832.179 304.603L822.298 306.744L823.182 310.826L833.063 308.685L833.779 311.989L810.713 316.987L809.997 313.682L820.266 311.457L819.382 307.375L809.112 309.6L808.397 306.296Z" fill="#D37700"/>
<path d="M836.767 325.783L818.884 329.658C818.128 329.821 817.396 329.833 816.687 329.693C816.005 329.569 815.361 329.313 814.757 328.924C814.153 328.535 813.64 328.046 813.219 327.459C812.798 326.872 812.508 326.212 812.348 325.477C812.189 324.743 812.18 324.021 812.32 323.313C812.466 322.625 812.733 321.98 813.122 321.375C813.511 320.771 813.988 320.26 814.554 319.844C815.141 319.423 815.812 319.13 816.568 318.967L834.451 315.092L835.167 318.397L817.608 322.201C816.787 322.379 816.225 322.704 815.92 323.177C815.616 323.65 815.527 324.178 815.653 324.761C815.779 325.344 816.079 325.788 816.552 326.093C817.025 326.397 817.672 326.461 818.492 326.283L836.052 322.479L836.767 325.783Z" fill="#D37700"/>
<path d="M814.373 333.884L837.44 328.886L838.485 333.714C838.715 334.772 838.747 335.703 838.582 336.508C838.422 337.334 838.123 338.043 837.686 338.635C837.249 339.227 836.695 339.698 836.025 340.047C835.38 340.412 834.68 340.677 833.924 340.841L833.082 341.023C832.456 341.159 831.915 341.22 831.459 341.205C831.009 341.212 830.6 341.154 830.234 341.03C829.55 340.793 828.91 340.344 828.314 339.682C828.116 340.539 827.7 341.228 827.066 341.75C826.433 342.271 825.501 342.665 824.27 342.932L822.974 343.213C820.944 343.653 819.281 343.493 817.986 342.733C816.696 341.995 815.817 340.546 815.349 338.387L814.373 333.884ZM825.78 334.872L818.393 336.472L818.702 337.898C818.847 338.567 819.057 339.064 819.331 339.389C819.609 339.736 819.942 339.969 820.33 340.089C820.718 340.208 821.154 340.238 821.638 340.178C822.123 340.119 822.646 340.028 823.208 339.906C823.791 339.78 824.291 339.638 824.709 339.479C825.127 339.321 825.466 339.112 825.726 338.852C825.982 338.57 826.135 338.232 826.185 337.837C826.256 337.437 826.227 336.935 826.096 336.33L825.78 334.872ZM835.045 332.865L828.696 334.24L829.018 335.73C829.257 336.832 829.686 337.508 830.306 337.758C830.951 338.025 831.803 338.044 832.862 337.815C833.898 337.59 834.629 337.206 835.054 336.662C835.483 336.139 835.579 335.327 835.34 334.225L835.045 332.865Z" fill="#D37700"/>
<path d="M818.664 353.689L841.73 348.691L843.864 358.54L840.754 359.214L839.336 352.67L832.565 354.137L833.8 359.838L830.69 360.512L829.455 354.81L822.684 356.277L824.102 362.821L820.797 363.537L818.664 353.689Z" fill="#D37700"/>
<path d="M840.003 372.812L839.287 369.507L840.032 369.346C840.788 369.182 841.396 368.858 841.856 368.374C842.343 367.907 842.495 367.252 842.313 366.41C842.214 365.956 842.048 365.608 841.815 365.364C841.581 365.121 841.316 364.941 841.019 364.824C840.701 364.713 840.352 364.664 839.97 364.679C839.611 364.689 839.237 364.736 838.848 364.82C838.394 364.918 838.019 365.011 837.721 365.098C837.428 365.207 837.177 365.352 836.967 365.533C836.758 365.714 836.592 365.942 836.471 366.217C836.354 366.513 836.256 366.896 836.177 367.366L835.72 370.11C835.599 370.906 835.393 371.572 835.102 372.11C834.833 372.643 834.478 373.093 834.038 373.46C833.571 373.809 833.012 374.1 832.361 374.332C831.732 374.558 830.996 374.763 830.154 374.945C829.182 375.156 828.254 375.255 827.369 375.243C826.507 375.227 825.737 375.066 825.06 374.76C824.357 374.438 823.753 373.947 823.249 373.287C822.744 372.628 822.377 371.769 822.148 370.71C821.975 369.911 821.954 369.136 822.085 368.384C822.216 367.632 822.476 366.954 822.865 366.349C823.254 365.745 823.74 365.221 824.322 364.779C824.931 364.353 825.624 364.056 826.402 363.887L827.633 363.621L828.349 366.925L827.312 367.15C826.707 367.281 826.194 367.573 825.772 368.026C825.376 368.496 825.27 369.152 825.452 369.995C825.574 370.556 825.743 370.972 825.96 371.241C826.203 371.528 826.494 371.725 826.834 371.832C827.174 371.939 827.551 371.959 827.966 371.892C828.407 371.842 828.887 371.76 829.406 371.648C830.01 371.517 830.502 371.388 830.882 371.26C831.261 371.133 831.556 370.979 831.765 370.798C831.97 370.595 832.12 370.348 832.215 370.056C832.315 369.785 832.407 369.426 832.49 368.979L832.95 366.403C833.224 364.851 833.783 363.724 834.626 363.021C835.494 362.336 836.653 361.836 838.1 361.523C838.963 361.335 839.81 361.276 840.639 361.346C841.468 361.415 842.215 361.626 842.879 361.98C843.539 362.311 844.106 362.788 844.579 363.409C845.079 364.047 845.435 364.852 845.645 365.823C845.823 366.644 845.833 367.422 845.676 368.157C845.523 368.914 845.252 369.594 844.863 370.199C844.042 371.417 842.961 372.171 841.622 372.461L840.003 372.812Z" fill="#D37700"/>
<path d="M824.583 381.011L844.539 376.688L843.711 372.865L846.821 372.191L849.193 383.141L846.083 383.815L845.255 379.992L825.299 384.315L824.583 381.011Z" fill="#D37700"/>
<path d="M835.572 392.752L843.579 389.321L843.565 389.256L834.856 389.447L835.572 392.752ZM825.736 386.335L849.919 386.489L850.515 389.243L828.565 399.391L827.849 396.087L832.595 394.041L831.619 389.538L826.452 389.64L825.736 386.335Z" fill="#D37700"/>
<path d="M829.004 401.417L848.96 397.094L848.132 393.271L851.242 392.597L853.614 403.547L850.504 404.221L849.676 400.398L829.719 404.722L829.004 401.417Z" fill="#D37700"/>
<path d="M830.864 410.003L853.93 405.006L856.064 414.855L852.954 415.529L851.536 408.984L844.765 410.451L846 416.153L842.89 416.827L841.655 411.125L834.884 412.592L836.302 419.136L832.997 419.852L830.864 410.003Z" fill="#D37700"/>
</svg>
