<svg width="1072" height="428" fill="none" xmlns="http://www.w3.org/2000/svg"><path d="M572.062-.846h20.42v-3.912h3.182V6.446h-3.182V2.535h-20.42V-.846zm8.254 13.801l8.553-1.658v-.066l-8.553-1.657v3.38zM572.062 4.6l23.602 5.27v2.819l-23.602 5.27V14.58l5.072-.995V8.977l-5.072-.995v-3.38zm0 15.433h20.42v-3.911h3.182v11.204h-3.182v-3.912h-20.42v-3.38zm0 8.786h23.602v10.076h-3.182V32.2h-6.928v5.834h-3.183V32.2h-6.928v6.695h-3.381V28.819zm0 18.419h23.602v3.38h-10.11v4.178h10.11v3.38h-23.602v-3.38h10.508v-4.177h-10.508v-3.381zm23.602 25.052h-18.298a5.363 5.363 0 01-2.155-.43 5.274 5.274 0 01-1.723-1.16 5.626 5.626 0 01-1.194-1.757 5.282 5.282 0 01-.431-2.122c0-.751.144-1.458.431-2.121a5.747 5.747 0 011.194-1.724 5.75 5.75 0 011.723-1.193 5.363 5.363 0 012.155-.431h18.298v3.38h-17.966c-.84 0-1.459.2-1.857.597-.398.398-.596.896-.596 1.492 0 .597.198 1.094.596 1.492.398.398 1.017.596 1.857.596h17.966v3.382zm-23.602 3.176h23.602v4.939c0 1.083-.166 2-.497 2.751-.332.773-.774 1.403-1.326 1.89a4.774 4.774 0 01-1.923 1.027 7.4 7.4 0 01-2.221.332h-.862c-.641 0-1.182-.056-1.624-.166a3.61 3.61 0 01-1.16-.431c-.619-.376-1.149-.95-1.591-1.724-.376.796-.928 1.381-1.658 1.757-.729.376-1.723.564-2.983.564h-1.326c-2.077 0-3.668-.509-4.773-1.525-1.105-.995-1.658-2.597-1.658-4.807v-4.607zm10.939 3.38h-7.558v1.46c0 .684.1 1.215.299 1.59.199.398.475.697.828.895.354.2.774.32 1.26.365.486.044 1.017.066 1.591.066.597 0 1.116-.033 1.558-.1.442-.065.818-.198 1.127-.397.31-.22.531-.52.663-.895.155-.376.232-.873.232-1.492v-1.491zm9.481 0h-6.497v1.526c0 1.127.276 1.878.828 2.254.575.397 1.404.596 2.486.596 1.061 0 1.857-.22 2.387-.663.53-.42.796-1.193.796-2.32v-1.392zm-20.42 16.884h23.602v10.077h-3.182v-6.696h-6.928v5.834h-3.183v-5.834h-6.928v6.696h-3.381V95.73zm16.807 23.208v-3.381h.762c.773 0 1.436-.188 1.989-.564.574-.353.862-.961.862-1.823 0-.464-.089-.84-.266-1.127a2.218 2.218 0 00-.662-.696 2.825 2.825 0 00-.995-.365 6.14 6.14 0 00-1.127-.099c-.464 0-.851.011-1.16.033a2.44 2.44 0 00-.829.265 1.915 1.915 0 00-.63.564 5.937 5.937 0 00-.53 1.06l-1.028 2.586c-.287.751-.629 1.359-1.027 1.823a4.191 4.191 0 01-1.326 1.094 6.286 6.286 0 01-1.823.497c-.663.089-1.426.133-2.288.133-.994 0-1.922-.1-2.784-.299-.84-.198-1.558-.519-2.155-.961a4.774 4.774 0 01-1.458-1.823c-.354-.751-.531-1.668-.531-2.751 0-.818.144-1.58.431-2.288a5.45 5.45 0 011.194-1.823 6.121 6.121 0 011.757-1.226 5.687 5.687 0 012.22-.431h1.26v3.381h-1.061c-.618 0-1.182.177-1.69.53-.486.376-.729.995-.729 1.857 0 .574.077 1.016.232 1.326.176.331.419.585.729.762.309.177.674.276 1.094.298.442.045.928.067 1.458.067.619 0 1.127-.022 1.525-.067.398-.044.718-.132.961-.265.243-.155.442-.364.597-.63.155-.243.32-.574.497-.994l.995-2.42c.596-1.458 1.381-2.442 2.353-2.95.995-.486 2.232-.729 3.713-.729.884 0 1.724.121 2.519.364.796.243 1.481.608 2.055 1.094a4.877 4.877 0 011.359 1.757c.354.729.531 1.591.531 2.586 0 .839-.155 1.602-.464 2.287a5.877 5.877 0 01-1.227 1.823c-1.061 1.017-2.276 1.525-3.646 1.525h-1.657zm-16.807 4.748h20.42v-3.911h3.182v11.204h-3.182v-3.912h-20.42v-3.381zm8.254 13.801l8.553-1.657v-.066l-8.553-1.658v3.381zm-8.254-8.353l23.602 5.271v2.817l-23.602 5.271v-3.381l5.072-.995v-4.607l-5.072-.995v-3.381zm0 15.432h20.42v-3.912h3.182v11.204h-3.182v-3.911h-20.42v-3.381zm0 8.785h23.602v10.077h-3.182v-6.696h-6.928v5.834h-3.183v-5.834h-6.928v6.696h-3.381v-10.077zm0 18.419h23.602v3.382h-10.11v4.176h10.11v3.381h-23.602v-3.381h10.508v-4.176h-10.508v-3.382zm23.602 25.053h-18.298a5.352 5.352 0 01-2.155-.431 5.26 5.26 0 01-1.723-1.16 5.624 5.624 0 01-1.194-1.757 5.282 5.282 0 01-.431-2.121c0-.751.144-1.459.431-2.122a5.751 5.751 0 011.194-1.723 5.751 5.751 0 011.723-1.194 5.369 5.369 0 012.155-.431h18.298v3.382h-17.966c-.84 0-1.459.198-1.857.596-.398.398-.596.895-.596 1.492s.198 1.094.596 1.492c.398.397 1.017.596 1.857.596h17.966v3.381zm-23.602 3.175h23.602v4.939c0 1.083-.166 2-.497 2.752-.332.773-.774 1.403-1.326 1.889a4.779 4.779 0 01-1.923 1.028 7.399 7.399 0 01-2.221.331h-.862c-.641 0-1.182-.055-1.624-.165a3.621 3.621 0 01-1.16-.431c-.619-.376-1.149-.951-1.591-1.724-.376.796-.928 1.381-1.658 1.757-.729.375-1.723.563-2.983.563h-1.326c-2.077 0-3.668-.508-4.773-1.524-1.105-.995-1.658-2.597-1.658-4.807v-4.608zm10.939 3.381h-7.558v1.459c0 .685.1 1.215.299 1.591.199.398.475.696.828.895.354.199.774.321 1.26.365.486.044 1.017.066 1.591.066.597 0 1.116-.033 1.558-.099.442-.067.818-.199 1.127-.398.31-.221.531-.519.663-.895.155-.376.232-.873.232-1.492v-1.492zm9.481 0h-6.497v1.525c0 1.127.276 1.879.828 2.254.575.398 1.404.597 2.486.597 1.061 0 1.857-.221 2.387-.663.53-.42.796-1.193.796-2.32v-1.393zm-20.42 16.884h23.602v10.077h-3.182v-6.696h-6.928v5.834h-3.183v-5.834h-6.928v6.696h-3.381v-10.077zm16.807 23.208v-3.382h.762c.773 0 1.436-.187 1.989-.563.574-.354.862-.961.862-1.823 0-.464-.089-.84-.266-1.127a2.197 2.197 0 00-.662-.696 2.806 2.806 0 00-.995-.365 6.14 6.14 0 00-1.127-.099c-.464 0-.851.011-1.16.033-.31.044-.586.132-.829.265a1.9 1.9 0 00-.63.563 5.985 5.985 0 00-.53 1.061l-1.028 2.586c-.287.751-.629 1.359-1.027 1.823a4.191 4.191 0 01-1.326 1.094 6.286 6.286 0 01-1.823.497c-.663.088-1.426.133-2.288.133-.994 0-1.922-.1-2.784-.299-.84-.199-1.558-.519-2.155-.961a4.774 4.774 0 01-1.458-1.823c-.354-.752-.531-1.669-.531-2.752 0-.817.144-1.58.431-2.287a5.44 5.44 0 011.194-1.823 6.121 6.121 0 011.757-1.226 5.669 5.669 0 012.22-.431h1.26v3.381h-1.061c-.618 0-1.182.177-1.69.53-.486.376-.729.995-.729 1.856 0 .575.077 1.017.232 1.326.176.332.419.586.729.763.309.177.674.276 1.094.298.442.044.928.066 1.458.066.619 0 1.127-.022 1.525-.066.398-.044.718-.132.961-.265.243-.155.442-.365.597-.63.155-.243.32-.574.497-.994l.995-2.42c.596-1.459 1.381-2.442 2.353-2.95.995-.487 2.232-.73 3.713-.73.884 0 1.724.122 2.519.365.796.243 1.481.608 2.055 1.094a4.877 4.877 0 011.359 1.757c.354.729.531 1.591.531 2.585 0 .84-.155 1.602-.464 2.288a5.877 5.877 0 01-1.227 1.823c-1.061 1.016-2.276 1.525-3.646 1.525h-1.657zm-16.807 4.748h20.42v-3.911h3.182v11.204h-3.182V251.6h-20.42v-3.381zm8.254 13.801l8.553-1.657v-.067l-8.553-1.657v3.381zm-8.254-8.353l23.602 5.27v2.818l-23.602 5.271v-3.382l5.072-.994v-4.608l-5.072-.994v-3.381zm0 15.432h20.42v-3.912h3.182v11.204h-3.182v-3.911h-20.42v-3.381zm0 8.785h23.602v10.077h-3.182v-6.696h-6.928v5.834h-3.183v-5.834h-6.928v6.696h-3.381v-10.077zm0 18.419h23.602v3.381h-10.11v4.177h10.11v3.381h-23.602v-3.381h10.508v-4.177h-10.508v-3.381zm23.602 25.053h-18.298a5.369 5.369 0 01-2.155-.431 5.275 5.275 0 01-1.723-1.16 5.624 5.624 0 01-1.194-1.757 5.282 5.282 0 01-.431-2.121c0-.752.144-1.459.431-2.122a5.756 5.756 0 011.194-1.724 5.748 5.748 0 011.723-1.193 5.369 5.369 0 012.155-.431h18.298v3.381h-17.966c-.84 0-1.459.199-1.857.597-.398.398-.596.895-.596 1.492 0 .596.198 1.093.596 1.491.398.398 1.017.597 1.857.597h17.966v3.381zm-23.602 3.175h23.602v4.939c0 1.083-.166 2-.497 2.752-.332.773-.774 1.403-1.326 1.889a4.779 4.779 0 01-1.923 1.028 7.399 7.399 0 01-2.221.331h-.862c-.641 0-1.182-.055-1.624-.166a3.598 3.598 0 01-1.16-.431c-.619-.375-1.149-.95-1.591-1.723-.376.795-.928 1.381-1.658 1.756-.729.376-1.723.564-2.983.564h-1.326c-2.077 0-3.668-.508-4.773-1.525-1.105-.994-1.658-2.596-1.658-4.806v-4.608zm10.939 3.381h-7.558v1.459c0 .685.1 1.215.299 1.591.199.398.475.696.828.895.354.199.774.32 1.26.365.486.044 1.017.066 1.591.066.597 0 1.116-.033 1.558-.1a2.846 2.846 0 001.127-.397c.31-.221.531-.52.663-.895.155-.376.232-.873.232-1.492v-1.492zm9.481 0h-6.497v1.525c0 1.127.276 1.878.828 2.254.575.398 1.404.597 2.486.597 1.061 0 1.857-.221 2.387-.663.53-.42.796-1.194.796-2.321v-1.392zm-20.42 16.884h23.602v10.077h-3.182v-6.696h-6.928v5.834h-3.183v-5.834h-6.928v6.696h-3.381v-10.077zm16.807 23.207v-3.381h.762c.773 0 1.436-.188 1.989-.563.574-.354.862-.962.862-1.824 0-.464-.089-.839-.266-1.127a2.218 2.218 0 00-.662-.696 2.824 2.824 0 00-.995-.364 6.051 6.051 0 00-1.127-.1c-.464 0-.851.011-1.16.033a2.44 2.44 0 00-.829.266 1.9 1.9 0 00-.63.563 5.95 5.95 0 00-.53 1.061l-1.028 2.585c-.287.752-.629 1.359-1.027 1.824a4.188 4.188 0 01-1.326 1.093 6.286 6.286 0 01-1.823.498c-.663.088-1.426.132-2.288.132a12.36 12.36 0 01-2.784-.298c-.84-.199-1.558-.519-2.155-.961a4.77 4.77 0 01-1.458-1.824c-.354-.751-.531-1.668-.531-2.751 0-.817.144-1.58.431-2.287a5.44 5.44 0 011.194-1.823 6.144 6.144 0 011.757-1.227 5.687 5.687 0 012.22-.431h1.26v3.382h-1.061a2.89 2.89 0 00-1.69.53c-.486.376-.729.994-.729 1.856 0 .575.077 1.017.232 1.326.176.332.419.586.729.762.309.177.674.277 1.094.299.442.044.928.066 1.458.066.619 0 1.127-.022 1.525-.066.398-.044.718-.133.961-.265.243-.155.442-.365.597-.63.155-.243.32-.575.497-.995l.995-2.419c.596-1.459 1.381-2.442 2.353-2.951.995-.486 2.232-.729 3.713-.729.884 0 1.724.122 2.519.365.796.243 1.481.607 2.055 1.094a4.868 4.868 0 011.359 1.757c.354.729.531 1.591.531 2.585 0 .84-.155 1.602-.464 2.287a5.877 5.877 0 01-1.227 1.823c-1.061 1.017-2.276 1.525-3.646 1.525h-1.657zm-16.807 4.749h20.42v-3.912h3.182v11.204h-3.182v-3.911h-20.42v-3.381zm8.254 13.801l8.553-1.658v-.066l-8.553-1.657v3.381zm-8.254-8.354l23.602 5.271v2.818l-23.602 5.27v-3.381l5.072-.994v-4.608l-5.072-.994v-3.382zm0 15.432h20.42v-3.911h3.182v11.204h-3.182v-3.912h-20.42v-3.381zm0 8.786h23.602v10.077h-3.182v-6.696h-6.928v5.834h-3.183v-5.834h-6.928v6.696h-3.381v-10.077z" fill="#F7F7F7"/><path d="M0 94.505c0-17.382 3.02-32.743 9.063-46.082 6.041-13.34 14.097-24.457 24.166-33.35C42.896 6.584 53.771.116 65.855-4.33 78.34-8.777 90.827-11 103.313-11c12.486 0 24.771 2.223 36.854 6.67 12.487 4.446 23.764 10.914 33.834 19.403 9.667 8.893 17.521 20.01 23.562 33.35 6.042 13.34 9.063 28.7 9.063 46.082v227.99c0 18.19-3.021 33.753-9.063 46.689-6.041 12.935-13.895 23.647-23.562 32.136-10.07 8.894-21.347 15.564-33.834 20.01-12.083 4.447-24.368 6.67-36.854 6.67s-24.972-2.223-37.459-6.67c-12.083-4.446-22.958-11.116-32.625-20.01-10.07-8.489-18.125-19.201-24.166-32.136C3.02 356.248 0 340.685 0 322.495V94.505zm61.625 227.99c0 14.956 4.028 26.073 12.084 33.349 8.458 6.872 18.326 10.308 29.604 10.308 11.278 0 20.945-3.436 29-10.308 8.459-7.276 12.688-18.393 12.688-33.349V94.505c0-14.956-4.229-25.87-12.688-32.743-8.055-7.276-17.722-10.914-29-10.914-11.278 0-21.146 3.638-29.604 10.914-8.056 6.872-12.084 17.787-12.084 32.743v227.99zm311.346 101.867V-7.362h61.625v184.938h76.126V-7.362h61.625v431.724h-61.625V232.148h-76.126v192.214h-61.625zM754.674 273.38l-30.208-156.439h-1.209L693.049 273.38h61.625zM602.423 424.362L698.486-7.362h51.355l96.063 431.724h-61.626l-18.125-92.772h-83.979l-18.125 92.772h-61.626zM1072 301.272v26.68c0 13.339-2.62 26.073-7.85 38.2-4.84 11.723-11.68 22.233-20.55 31.53-8.86 9.298-19.33 16.776-31.41 22.435-11.68 5.255-24.371 7.883-38.066 7.883-11.68 0-23.562-1.617-35.646-4.851-12.083-3.234-22.958-8.893-32.625-16.978-9.666-8.084-17.722-18.392-24.166-30.924-6.042-12.935-9.063-29.307-9.063-49.114V88.442c0-14.148 2.417-27.286 7.25-39.413 4.833-12.127 11.681-22.637 20.542-31.53 8.861-8.894 19.333-15.766 31.417-20.616C944.319-8.372 958.013-11 972.916-11c29.004 0 52.564 9.5 70.684 28.499 8.87 9.297 15.71 20.414 20.55 33.35 5.23 12.53 7.85 26.274 7.85 41.231v24.254h-61.63V95.718c0-12.127-3.42-22.637-10.27-31.53-6.843-8.893-16.107-13.34-27.788-13.34-15.306 0-25.577 4.85-30.813 14.553-4.833 9.297-7.25 21.222-7.25 35.774v220.713c0 12.531 2.618 23.042 7.854 31.531 5.639 8.488 15.508 12.733 29.605 12.733 4.028 0 8.257-.606 12.687-1.819 4.834-1.617 9.264-4.042 13.292-7.276 3.623-3.234 6.643-7.681 9.063-13.34 2.42-5.659 3.62-12.734 3.62-21.222v-21.223H1072z" opacity=".03" fill="#000"/><path d="M760.901 7.684l-.715-3.305.745-.161c.756-.164 1.364-.488 1.824-.972.487-.467.639-1.122.457-1.964-.099-.454-.265-.802-.498-1.046a2.225 2.225 0 00-.796-.54 2.806 2.806 0 00-1.049-.146 6.13 6.13 0 00-1.122.142c-.454.098-.829.19-1.127.278a2.442 2.442 0 00-.754.435c-.209.18-.375.409-.496.684a5.84 5.84 0 00-.294 1.149l-.457 2.744c-.121.795-.328 1.462-.618 2a4.195 4.195 0 01-1.064 1.35c-.467.35-1.026.64-1.677.871-.629.227-1.365.432-2.207.614-.972.21-1.9.31-2.785.298-.862-.016-1.632-.178-2.309-.483a4.765 4.765 0 01-1.811-1.473c-.505-.66-.872-1.518-1.101-2.577a6.022 6.022 0 01-.063-2.326c.131-.752.391-1.43.78-2.035a6.132 6.132 0 011.457-1.57 5.686 5.686 0 012.08-.892l1.231-.267.716 3.305-1.037.224a2.894 2.894 0 00-1.54.877c-.396.47-.502 1.126-.32 1.968.122.562.291.977.508 1.247.243.287.534.484.874.59.34.108.717.128 1.132.06.441-.05.921-.131 1.44-.243.604-.131 1.096-.26 1.476-.388.379-.127.674-.282.883-.463.205-.202.355-.45.45-.741.1-.27.191-.63.275-1.078l.46-2.575c.274-1.552.833-2.68 1.675-3.382.869-.685 2.027-1.185 3.474-1.499a8.58 8.58 0 012.54-.177c.829.07 1.576.28 2.24.634a4.88 4.88 0 011.7 1.43c.5.637.856 1.442 1.066 2.414.178.821.188 1.599.031 2.334a5.89 5.89 0 01-.813 2.041c-.821 1.218-1.902 1.973-3.241 2.263l-1.62.35zm-15.419 8.199l19.956-4.324-.828-3.822 3.11-.674 2.372 10.95-3.11.674-.828-3.823-19.956 4.323-.716-3.304zm10.989 11.74l8.007-3.43-.014-.065-8.709.19.716 3.305zm-9.836-6.416l24.183.154.596 2.754-21.95 10.148-.716-3.305 4.746-2.045-.976-4.503-5.167.101-.716-3.304zm3.267 15.082l19.957-4.323-.828-3.823 3.11-.674 2.372 10.95-3.11.674-.828-3.823-19.957 4.323-.716-3.304zm1.861 8.586l23.066-4.997 2.134 9.849-3.11.673-1.418-6.544-6.771 1.467 1.235 5.702-3.11.674-1.235-5.702-6.771 1.467 1.418 6.544-3.305.716-2.133-9.849zm3.899 18.002l23.067-4.997.716 3.304-9.881 2.14.884 4.083 9.881-2.14.716 3.304-23.066 4.997-.716-3.305 10.269-2.225-.884-4.081-10.27 2.224-.716-3.304zm28.371 19.488l-17.883 3.874a5.36 5.36 0 01-2.197.035 5.27 5.27 0 01-1.93-.77 5.626 5.626 0 01-1.538-1.463 5.297 5.297 0 01-.871-1.983 5.287 5.287 0 01-.028-2.164 5.748 5.748 0 01.802-1.938 5.735 5.735 0 011.432-1.53 5.356 5.356 0 012.014-.878l17.883-3.874.716 3.304-17.559 3.804c-.821.178-1.383.503-1.688.976-.304.473-.393 1.001-.267 1.585.126.583.426 1.026.899 1.331.473.304 1.12.368 1.94.19l17.559-3.804.716 3.305zm-22.394 8.1l23.067-4.997 1.045 4.827c.23 1.058.262 1.99.097 2.794-.16.826-.459 1.535-.896 2.127a4.772 4.772 0 01-1.661 1.412 7.414 7.414 0 01-2.101.794l-.842.182c-.626.136-1.167.197-1.623.182a3.616 3.616 0 01-1.225-.175c-.684-.236-1.324-.686-1.92-1.348-.198.857-.614 1.546-1.248 2.068-.633.522-1.565.916-2.796 1.182l-1.296.281c-2.03.44-3.693.28-4.988-.48-1.29-.737-2.169-2.186-2.637-4.346l-.976-4.503zm11.407.988l-7.387 1.6.309 1.426c.145.67.355 1.167.629 1.492.278.346.611.58.999.699.388.12.824.15 1.308.09a17.22 17.22 0 001.569-.273 10.628 10.628 0 001.502-.427c.418-.158.757-.367 1.017-.627.256-.281.409-.62.459-1.015.071-.4.042-.902-.089-1.507l-.316-1.458zm9.265-2.007l-6.349 1.376.322 1.49c.239 1.101.668 1.777 1.288 2.027.645.267 1.497.286 2.556.057 1.036-.225 1.767-.609 2.192-1.153.429-.523.525-1.335.286-2.436l-.295-1.361zM765.93 110.27l23.066-4.997 2.134 9.848-3.11.674-1.418-6.544-6.771 1.467 1.235 5.702-3.11.673-1.235-5.701-6.771 1.466 1.418 6.545-3.305.715-2.133-9.848zm21.339 19.123l-.716-3.304.745-.162c.756-.164 1.364-.488 1.824-.972.487-.467.639-1.122.457-1.964-.099-.454-.265-.802-.498-1.045a2.209 2.209 0 00-.796-.54 2.8 2.8 0 00-1.049-.146c-.359.01-.733.057-1.122.141a17.3 17.3 0 00-1.127.278 2.45 2.45 0 00-.754.435 1.905 1.905 0 00-.496.684c-.117.297-.215.68-.294 1.149l-.457 2.745c-.121.795-.328 1.461-.618 1.999a4.199 4.199 0 01-1.064 1.35c-.467.35-1.026.64-1.677.872-.629.227-1.365.431-2.207.614-.972.21-1.9.309-2.785.298-.862-.017-1.632-.178-2.309-.484a4.755 4.755 0 01-1.811-1.473c-.505-.659-.872-1.518-1.101-2.576a6.024 6.024 0 01-.063-2.327c.131-.752.391-1.43.78-2.035a6.14 6.14 0 011.457-1.57 5.693 5.693 0 012.08-.892l1.231-.266.716 3.304-1.037.225a2.895 2.895 0 00-1.54.876c-.396.47-.502 1.126-.32 1.969.122.561.291.977.508 1.246.243.287.534.484.874.591.34.107.717.127 1.132.06.441-.05.921-.132 1.44-.244.604-.131 1.096-.26 1.476-.388.379-.127.674-.281.883-.462.205-.203.355-.45.45-.742.1-.27.191-.629.275-1.077l.46-2.576c.274-1.552.833-2.679 1.675-3.381.869-.686 2.027-1.186 3.475-1.499a8.58 8.58 0 012.539-.177c.829.069 1.576.28 2.24.634.66.332 1.227.808 1.7 1.429.5.638.856 1.443 1.066 2.415.178.82.188 1.598.031 2.333a5.895 5.895 0 01-.813 2.042c-.821 1.218-1.902 1.972-3.241 2.262l-1.619.351zm-15.42 8.199l19.956-4.323-.828-3.823 3.11-.674 2.372 10.95-3.11.674-.828-3.823-19.956 4.324-.716-3.305zm10.989 11.741l8.007-3.431-.014-.065-8.709.191.716 3.305zm-9.836-6.417l24.183.154.596 2.754-21.95 10.148-.716-3.304 4.746-2.046-.976-4.503-5.167.102-.716-3.305zm3.268 15.082l19.956-4.323-.828-3.823 3.11-.674 2.372 10.951-3.11.673-.828-3.823-19.957 4.324-.715-3.305zm1.86 8.586l23.066-4.997 2.134 9.849-3.11.674-1.418-6.544-6.771 1.466 1.235 5.702-3.11.674-1.235-5.702-6.771 1.467 1.418 6.544-3.305.716-2.133-9.849zm3.899 18.002l23.067-4.997.716 3.305-9.881 2.14.884 4.082 9.881-2.14.716 3.304-23.066 4.997-.716-3.304 10.269-2.225-.884-4.082-10.27 2.225-.716-3.305zm28.371 19.488l-17.883 3.874a5.346 5.346 0 01-2.197.035 5.265 5.265 0 01-1.93-.769 5.625 5.625 0 01-1.538-1.464 5.297 5.297 0 01-.871-1.982 5.288 5.288 0 01-.028-2.165 5.765 5.765 0 01.802-1.937 5.718 5.718 0 011.432-1.531 5.348 5.348 0 012.014-.878l17.883-3.874.716 3.305-17.559 3.804c-.821.177-1.383.503-1.688.976-.304.473-.393 1.001-.267 1.584.126.583.426 1.027.899 1.331.473.305 1.12.368 1.94.191l17.56-3.804.715 3.304zm-22.394 8.1l23.067-4.997 1.045 4.827c.23 1.058.262 1.99.097 2.794-.16.827-.459 1.536-.896 2.128a4.774 4.774 0 01-1.661 1.411 7.41 7.41 0 01-2.101.794l-.842.183c-.626.135-1.167.196-1.623.182a3.626 3.626 0 01-1.225-.176c-.684-.236-1.324-.685-1.92-1.348-.198.858-.614 1.547-1.248 2.068-.633.522-1.565.916-2.796 1.183l-1.296.28c-2.03.44-3.693.28-4.988-.479-1.29-.738-2.169-2.187-2.637-4.347l-.976-4.503zm11.407.989l-7.387 1.6.309 1.425c.145.67.355 1.167.629 1.492.278.347.611.58.999.699.388.12.824.15 1.308.09a17.55 17.55 0 001.569-.272 10.628 10.628 0 001.502-.427c.418-.159.757-.368 1.017-.628.256-.281.409-.619.459-1.015.071-.4.042-.902-.089-1.507l-.316-1.457zm9.265-2.008l-6.349 1.376.322 1.49c.239 1.102.668 1.777 1.288 2.028.645.267 1.497.286 2.556.056 1.036-.224 1.767-.609 2.192-1.153.429-.523.525-1.335.286-2.436l-.295-1.361zm-16.381 20.824l23.066-4.997 2.134 9.849-3.11.673-1.418-6.544-6.771 1.467 1.235 5.702-3.11.674-1.235-5.702-6.771 1.467 1.418 6.544-3.305.716-2.133-9.849zm21.339 19.123l-.716-3.304.745-.161c.756-.164 1.364-.488 1.824-.972.487-.468.639-1.122.457-1.965-.099-.453-.265-.802-.498-1.045a2.234 2.234 0 00-.796-.54 2.82 2.82 0 00-1.049-.146 6.13 6.13 0 00-1.122.142c-.454.098-.829.191-1.127.278a2.428 2.428 0 00-.754.434 1.905 1.905 0 00-.496.684c-.117.297-.215.68-.294 1.149l-.457 2.745c-.121.795-.327 1.462-.618 1.999a4.199 4.199 0 01-1.064 1.35 6.277 6.277 0 01-1.677.872c-.629.227-1.365.432-2.207.614-.972.211-1.9.31-2.785.298-.862-.017-1.632-.178-2.309-.483a4.774 4.774 0 01-1.811-1.473c-.505-.66-.872-1.519-1.101-2.577a6.024 6.024 0 01-.063-2.327c.131-.752.391-1.43.78-2.034a6.144 6.144 0 011.457-1.571 5.675 5.675 0 012.08-.891l1.231-.267.716 3.305-1.037.224a2.895 2.895 0 00-1.54.876c-.396.471-.502 1.127-.32 1.969.122.562.291.977.508 1.247.243.286.534.483.874.591.34.107.717.127 1.132.06.441-.051.921-.132 1.44-.244a14.47 14.47 0 001.476-.388c.379-.128.674-.282.883-.463a1.81 1.81 0 00.45-.742c.1-.27.192-.629.275-1.077l.46-2.575c.274-1.552.833-2.679 1.675-3.382.869-.686 2.027-1.185 3.475-1.499a8.58 8.58 0 012.539-.177 5.733 5.733 0 012.24.634c.66.332 1.227.808 1.7 1.429.5.638.856 1.443 1.066 2.415.178.821.188 1.599.031 2.334a5.89 5.89 0 01-.813 2.041c-.821 1.218-1.902 1.972-3.241 2.262l-1.619.351zm-15.42 8.2l19.956-4.324-.828-3.823 3.11-.673 2.372 10.95-3.11.674-.828-3.823-19.956 4.323-.716-3.304zm10.989 11.74l8.007-3.43-.014-.065-8.709.191.716 3.304zm-9.836-6.416l24.183.154.596 2.753-21.95 10.149-.716-3.305 4.746-2.046-.976-4.503-5.167.102-.716-3.304zm3.268 15.082l19.956-4.324-.828-3.822 3.11-.674 2.372 10.95-3.11.674-.828-3.823-19.957 4.323-.715-3.304zm1.86 8.586l23.066-4.997 2.134 9.848-3.11.674-1.418-6.544-6.771 1.467 1.235 5.702-3.11.674-1.235-5.702-6.771 1.467 1.418 6.544-3.305.716-2.133-9.849zm3.9 18.002l23.066-4.997.716 3.304-9.881 2.141.884 4.082 9.881-2.141.716 3.304-23.066 4.998-.716-3.305 10.269-2.225-.884-4.082-10.27 2.225-.715-3.304zm28.37 19.487l-17.883 3.875a5.38 5.38 0 01-2.197.035 5.282 5.282 0 01-1.93-.769 5.63 5.63 0 01-1.538-1.465 5.29 5.29 0 01-.871-1.982 5.283 5.283 0 01-.028-2.164 5.77 5.77 0 01.802-1.938 5.733 5.733 0 011.432-1.531 5.346 5.346 0 012.014-.877l17.883-3.875.716 3.305-17.559 3.804c-.821.178-1.383.503-1.688.976-.304.473-.393 1.001-.267 1.584.126.583.426 1.027.899 1.332.473.304 1.12.368 1.94.19l17.56-3.804.715 3.304zm-22.394 8.101l23.067-4.998 1.045 4.828c.23 1.058.262 1.989.097 2.794-.16.826-.459 1.535-.896 2.127a4.777 4.777 0 01-1.661 1.412 7.44 7.44 0 01-2.101.794l-.842.182c-.626.136-1.167.197-1.623.182a3.627 3.627 0 01-1.225-.175c-.684-.237-1.324-.686-1.92-1.348-.198.857-.614 1.546-1.248 2.068-.633.521-1.565.915-2.796 1.182l-1.296.281c-2.03.44-3.693.28-4.988-.48-1.29-.738-2.169-2.187-2.637-4.346l-.976-4.503zm11.407.988l-7.387 1.6.309 1.426c.145.669.355 1.166.629 1.491.278.347.611.58.999.7.388.119.824.149 1.308.089.485-.059 1.008-.15 1.57-.272a10.518 10.518 0 001.501-.427c.418-.158.757-.367 1.017-.627a1.81 1.81 0 00.459-1.015c.071-.4.042-.902-.089-1.507l-.316-1.458zm9.265-2.007l-6.349 1.375.322 1.49c.239 1.102.668 1.778 1.288 2.028.645.267 1.497.286 2.556.057 1.036-.225 1.767-.609 2.192-1.153.429-.523.525-1.335.286-2.437l-.295-1.36zm-16.381 20.824l23.066-4.998 2.134 9.849-3.11.674-1.418-6.544-6.771 1.467 1.235 5.701-3.11.674-1.235-5.702-6.771 1.467 1.418 6.544-3.305.716-2.133-9.848zm21.339 19.123l-.716-3.305.745-.161c.756-.164 1.364-.488 1.824-.972.487-.467.639-1.122.457-1.964-.099-.454-.265-.802-.498-1.046a2.234 2.234 0 00-.796-.54 2.82 2.82 0 00-1.049-.145c-.359.01-.733.057-1.122.141-.454.098-.829.191-1.127.278a2.45 2.45 0 00-.754.435 1.905 1.905 0 00-.496.684 5.82 5.82 0 00-.294 1.149l-.457 2.744c-.121.796-.327 1.462-.618 2a4.199 4.199 0 01-1.064 1.35 6.335 6.335 0 01-1.677.872c-.629.226-1.365.431-2.207.613-.972.211-1.9.31-2.785.298-.862-.016-1.632-.177-2.309-.483a4.755 4.755 0 01-1.811-1.473c-.505-.659-.872-1.518-1.101-2.577a6.019 6.019 0 01-.063-2.326c.131-.752.391-1.43.78-2.035a6.124 6.124 0 011.457-1.57 5.693 5.693 0 012.08-.892l1.231-.266.716 3.304-1.037.225a2.895 2.895 0 00-1.54.876c-.396.47-.502 1.126-.32 1.969.122.561.291.977.508 1.246.243.287.534.484.874.591.34.107.717.127 1.132.06.441-.05.921-.132 1.44-.244.604-.131 1.096-.26 1.476-.388.379-.127.674-.281.883-.462.205-.203.355-.45.45-.742.1-.271.192-.63.275-1.077l.46-2.576c.274-1.552.833-2.679 1.676-3.382.868-.685 2.027-1.185 3.474-1.498a8.513 8.513 0 012.539-.177c.829.069 1.576.28 2.24.634.66.331 1.227.808 1.7 1.429.5.638.856 1.443 1.066 2.414.178.821.188 1.599.031 2.334a5.895 5.895 0 01-.813 2.042c-.821 1.218-1.902 1.972-3.241 2.262l-1.619.351zm-15.42 8.199l19.956-4.323-.828-3.823 3.11-.674 2.372 10.95-3.11.674-.828-3.823-19.956 4.323-.716-3.304zm10.989 11.741l8.007-3.431-.014-.065-8.709.191.716 3.305zm-9.836-6.417l24.183.154.596 2.754-21.95 10.148-.716-3.304 4.746-2.046-.976-4.503-5.167.102-.716-3.305zm3.268 15.082l19.956-4.323-.828-3.823 3.11-.674 2.372 10.95-3.11.674-.828-3.823-19.957 4.324-.715-3.305zm1.86 8.586l23.066-4.997 2.134 9.849-3.11.674-1.418-6.545-6.771 1.467 1.235 5.702-3.11.674-1.235-5.702-6.771 1.467 1.418 6.544-3.305.716-2.133-9.849z" fill="#D37700"/></svg>