<svg width="362" height="119" viewBox="0 0 362 119" fill="none" xmlns="http://www.w3.org/2000/svg">
<mask id="path-1-outside-1" maskUnits="userSpaceOnUse" x="70.9294" y="0" width="292" height="119" fill="black">
<rect fill="white" x="70.9294" width="292" height="119"/>
<path d="M71.9294 101.963V1.84371H86.2256V44.732H103.885V1.84371H118.182V101.963H103.885V57.3876H86.2256V101.963H71.9294Z"/>
<path d="M160.479 66.9496L153.471 30.6703H153.19L146.183 66.9496H160.479ZM125.159 101.963L147.444 1.84371H159.357L181.643 101.963H167.346L163.142 80.4488H143.66L139.455 101.963H125.159Z"/>
<path d="M185.491 27.1548C185.491 24.3425 186.052 21.1552 187.173 17.5929C188.388 14.0306 190.21 10.9838 192.64 8.45273C194.789 6.29659 197.218 4.51544 199.928 3.10927C202.637 1.70309 205.768 1 209.318 1C213.523 1 217.12 1.74996 220.111 3.24988C223.194 4.65606 225.717 6.57783 227.679 9.0152C229.735 11.4526 231.23 14.3587 232.164 17.7335C233.098 21.1083 233.566 24.6706 233.566 28.4204C233.566 30.2953 233.519 32.2171 233.426 34.1857C233.332 36.0606 232.958 37.9824 232.304 39.951C231.744 41.8259 230.763 43.6071 229.361 45.2945C228.053 46.9819 226.137 48.5287 223.614 49.9349C226.137 50.9661 228.053 52.3254 229.361 54.0128C230.763 55.6064 231.744 57.4345 232.304 59.4969C232.958 61.4655 233.332 63.6685 233.426 66.1059C233.519 68.4495 233.566 70.8869 233.566 73.418C233.566 77.6365 233.098 81.5738 232.164 85.2298C231.323 88.8859 229.875 91.9326 227.819 94.37C225.764 96.8073 223.147 98.8229 219.97 100.417C216.887 102.01 213.056 102.807 208.477 102.807C205.02 102.807 201.797 102.198 198.806 100.979C195.816 99.7603 193.247 98.0729 191.098 95.9168C188.949 93.7606 187.314 90.9952 186.192 87.6203C185.071 84.2455 184.51 80.8707 184.51 77.4959V73.6992H198.806L198.947 77.6365C198.947 78.9489 199.087 80.2614 199.367 81.5738C199.741 82.7925 200.301 83.9174 201.049 84.9486C201.797 85.9798 202.778 86.8235 203.992 87.4797C205.207 88.1359 206.749 88.464 208.618 88.464C212.822 88.464 215.625 87.1516 217.027 84.5268C218.522 81.8082 219.27 78.1521 219.27 73.5586C219.27 70.9337 219.176 68.4964 218.989 66.2465C218.802 63.9029 218.335 62.0748 217.588 60.7624C215.906 57.8563 213.103 56.4033 209.178 56.4033H203.712V43.7477H209.599C211.374 43.7477 212.962 43.4196 214.364 42.7634C215.766 42.1072 216.887 40.9822 217.728 39.3886C218.475 37.8886 218.896 36.1075 218.989 34.0451C219.176 31.9827 219.27 30.1547 219.27 28.561C219.27 26.8736 219.129 25.2331 218.849 23.6394C218.569 21.952 218.055 20.499 217.307 19.2803C216.56 18.1553 215.532 17.2179 214.224 16.4679C213.009 15.718 211.421 15.343 209.458 15.343C207.683 15.343 206.188 15.6711 204.973 16.3273C203.852 16.9835 202.918 17.8272 202.17 18.8584C201.329 19.9834 200.722 21.4364 200.348 23.2176C199.974 24.9987 199.788 26.733 199.788 28.4204V30.6703H185.491V27.1548Z"/>
<path d="M273.262 66.9496L266.254 30.6703H265.974L258.966 66.9496H273.262ZM237.942 101.963L260.227 1.84371H272.141L294.426 101.963H280.13L275.925 80.4488H256.443L252.238 101.963H237.942Z"/>
<path d="M308.721 101.963V117.431H296.387V89.3077H303.675C304.516 87.5266 305.311 85.5111 306.058 83.2612C306.806 80.9176 307.46 78.4802 308.02 75.9491C308.581 73.418 309.095 70.84 309.562 68.2151C310.029 65.4965 310.403 62.8717 310.683 60.3406C310.87 58.3719 311.01 56.1689 311.104 53.7315C311.291 51.2942 311.431 48.8099 311.524 46.2788C311.618 43.654 311.664 41.076 311.664 38.5449C311.758 35.92 311.805 33.4358 311.805 31.0921V1.84371H352.871V89.3077H361V117.431H348.666V101.963H308.721ZM325.26 14.4993V30.9515C325.26 32.2639 325.213 34.1857 325.12 36.7168C325.026 39.1542 324.886 41.8259 324.699 44.732C324.512 47.6381 324.325 50.5911 324.138 53.5909C323.952 56.497 323.718 59.075 323.438 61.3249C323.251 63.1998 322.924 65.3559 322.457 67.7933C322.083 70.1369 321.616 72.5743 321.055 75.1054C320.494 77.6365 319.887 80.1676 319.233 82.6987C318.579 85.1361 317.831 87.3391 316.99 89.3077H338.575V14.4993H325.26Z"/>
</mask>
<path d="M71.9294 101.963V1.84371H86.2256V44.732H103.885V1.84371H118.182V101.963H103.885V57.3876H86.2256V101.963H71.9294Z" stroke="white" stroke-width="2" mask="url(#path-1-outside-1)"/>
<path d="M160.479 66.9496L153.471 30.6703H153.19L146.183 66.9496H160.479ZM125.159 101.963L147.444 1.84371H159.357L181.643 101.963H167.346L163.142 80.4488H143.66L139.455 101.963H125.159Z" stroke="white" stroke-width="2" mask="url(#path-1-outside-1)"/>
<path d="M185.491 27.1548C185.491 24.3425 186.052 21.1552 187.173 17.5929C188.388 14.0306 190.21 10.9838 192.64 8.45273C194.789 6.29659 197.218 4.51544 199.928 3.10927C202.637 1.70309 205.768 1 209.318 1C213.523 1 217.12 1.74996 220.111 3.24988C223.194 4.65606 225.717 6.57783 227.679 9.0152C229.735 11.4526 231.23 14.3587 232.164 17.7335C233.098 21.1083 233.566 24.6706 233.566 28.4204C233.566 30.2953 233.519 32.2171 233.426 34.1857C233.332 36.0606 232.958 37.9824 232.304 39.951C231.744 41.8259 230.763 43.6071 229.361 45.2945C228.053 46.9819 226.137 48.5287 223.614 49.9349C226.137 50.9661 228.053 52.3254 229.361 54.0128C230.763 55.6064 231.744 57.4345 232.304 59.4969C232.958 61.4655 233.332 63.6685 233.426 66.1059C233.519 68.4495 233.566 70.8869 233.566 73.418C233.566 77.6365 233.098 81.5738 232.164 85.2298C231.323 88.8859 229.875 91.9326 227.819 94.37C225.764 96.8073 223.147 98.8229 219.97 100.417C216.887 102.01 213.056 102.807 208.477 102.807C205.02 102.807 201.797 102.198 198.806 100.979C195.816 99.7603 193.247 98.0729 191.098 95.9168C188.949 93.7606 187.314 90.9952 186.192 87.6203C185.071 84.2455 184.51 80.8707 184.51 77.4959V73.6992H198.806L198.947 77.6365C198.947 78.9489 199.087 80.2614 199.367 81.5738C199.741 82.7925 200.301 83.9174 201.049 84.9486C201.797 85.9798 202.778 86.8235 203.992 87.4797C205.207 88.1359 206.749 88.464 208.618 88.464C212.822 88.464 215.625 87.1516 217.027 84.5268C218.522 81.8082 219.27 78.1521 219.27 73.5586C219.27 70.9337 219.176 68.4964 218.989 66.2465C218.802 63.9029 218.335 62.0748 217.588 60.7624C215.906 57.8563 213.103 56.4033 209.178 56.4033H203.712V43.7477H209.599C211.374 43.7477 212.962 43.4196 214.364 42.7634C215.766 42.1072 216.887 40.9822 217.728 39.3886C218.475 37.8886 218.896 36.1075 218.989 34.0451C219.176 31.9827 219.27 30.1547 219.27 28.561C219.27 26.8736 219.129 25.2331 218.849 23.6394C218.569 21.952 218.055 20.499 217.307 19.2803C216.56 18.1553 215.532 17.2179 214.224 16.4679C213.009 15.718 211.421 15.343 209.458 15.343C207.683 15.343 206.188 15.6711 204.973 16.3273C203.852 16.9835 202.918 17.8272 202.17 18.8584C201.329 19.9834 200.722 21.4364 200.348 23.2176C199.974 24.9987 199.788 26.733 199.788 28.4204V30.6703H185.491V27.1548Z" stroke="white" stroke-width="2" mask="url(#path-1-outside-1)"/>
<path d="M273.262 66.9496L266.254 30.6703H265.974L258.966 66.9496H273.262ZM237.942 101.963L260.227 1.84371H272.141L294.426 101.963H280.13L275.925 80.4488H256.443L252.238 101.963H237.942Z" stroke="white" stroke-width="2" mask="url(#path-1-outside-1)"/>
<path d="M308.721 101.963V117.431H296.387V89.3077H303.675C304.516 87.5266 305.311 85.5111 306.058 83.2612C306.806 80.9176 307.46 78.4802 308.02 75.9491C308.581 73.418 309.095 70.84 309.562 68.2151C310.029 65.4965 310.403 62.8717 310.683 60.3406C310.87 58.3719 311.01 56.1689 311.104 53.7315C311.291 51.2942 311.431 48.8099 311.524 46.2788C311.618 43.654 311.664 41.076 311.664 38.5449C311.758 35.92 311.805 33.4358 311.805 31.0921V1.84371H352.871V89.3077H361V117.431H348.666V101.963H308.721ZM325.26 14.4993V30.9515C325.26 32.2639 325.213 34.1857 325.12 36.7168C325.026 39.1542 324.886 41.8259 324.699 44.732C324.512 47.6381 324.325 50.5911 324.138 53.5909C323.952 56.497 323.718 59.075 323.438 61.3249C323.251 63.1998 322.924 65.3559 322.457 67.7933C322.083 70.1369 321.616 72.5743 321.055 75.1054C320.494 77.6365 319.887 80.1676 319.233 82.6987C318.579 85.1361 317.831 87.3391 316.99 89.3077H338.575V14.4993H325.26Z" stroke="white" stroke-width="2" mask="url(#path-1-outside-1)"/>
<path fill-rule="evenodd" clip-rule="evenodd" d="M27.1741 52.5242L1 10.2083L15.9703 1L47.8401 52.5242L15.9703 104.048L1 94.84L27.1741 52.5242Z" stroke="white"/>
</svg>
