<svg width="257" height="84" viewBox="0 0 257 84" fill="none" xmlns="http://www.w3.org/2000/svg">
<path d="M50.6357 72.0766V0.602315H60.8416V31.2198H73.4488V0.602315H83.6547V72.0766H73.4488V40.2545H60.8416V72.0766H50.6357Z" fill="#D37700"/>
<path d="M113.85 47.0807L108.847 21.1813H108.647L103.644 47.0807H113.85ZM88.6356 72.0766L104.545 0.602315H113.05L128.959 72.0766H118.753L115.751 56.7176H101.843L98.8415 72.0766H88.6356Z" fill="#D37700"/>
<path d="M131.706 18.6717C131.706 16.6639 132.107 14.3885 132.907 11.8455C133.774 9.30237 135.075 7.12735 136.809 5.32042C138.344 3.78118 140.078 2.50963 142.012 1.50578C143.947 0.501928 146.181 0 148.716 0C151.718 0 154.286 0.535389 156.421 1.60617C158.622 2.61002 160.423 3.98195 161.824 5.72196C163.291 7.46197 164.358 9.5366 165.025 11.9458C165.693 14.3551 166.026 16.8982 166.026 19.5751C166.026 20.9136 165.993 22.2855 165.926 23.6909C165.859 25.0294 165.592 26.4013 165.126 27.8067C164.725 29.1452 164.025 30.4167 163.024 31.6213C162.09 32.826 160.723 33.9302 158.922 34.9341C160.723 35.6702 162.09 36.6406 163.024 37.8452C164.025 38.9829 164.725 40.2879 165.126 41.7603C165.592 43.1656 165.859 44.7383 165.926 46.4784C165.993 48.1514 166.026 49.8915 166.026 51.6984C166.026 54.7099 165.693 57.5207 165.025 60.1307C164.425 62.7408 163.391 64.9158 161.924 66.6558C160.456 68.3958 158.588 69.8346 156.32 70.9723C154.119 72.11 151.384 72.6789 148.116 72.6789C145.648 72.6789 143.346 72.2439 141.212 71.3739C139.077 70.5039 137.243 69.2993 135.709 67.76C134.174 66.2208 133.007 64.2465 132.207 61.8373C131.406 59.428 131.006 57.0188 131.006 54.6096V51.8992H141.212L141.312 54.7099C141.312 55.6469 141.412 56.5838 141.612 57.5207C141.879 58.3907 142.279 59.1938 142.813 59.93C143.346 60.6661 144.047 61.2684 144.914 61.7369C145.781 62.2054 146.882 62.4396 148.216 62.4396C151.218 62.4396 153.219 61.5027 154.219 59.6288C155.287 57.688 155.82 55.078 155.82 51.7988C155.82 49.9249 155.754 48.1849 155.62 46.5787C155.487 44.9057 155.153 43.6006 154.62 42.6637C153.419 40.5891 151.418 39.5518 148.616 39.5518H144.714V30.5171H148.916C150.184 30.5171 151.318 30.2829 152.318 29.8144C153.319 29.3459 154.119 28.5429 154.72 27.4052C155.253 26.3344 155.553 25.0628 155.62 23.5905C155.754 22.1182 155.82 20.8132 155.82 19.6755C155.82 18.4709 155.72 17.2997 155.52 16.162C155.32 14.9574 154.953 13.9201 154.419 13.0501C153.886 12.247 153.152 11.5778 152.218 11.0424C151.351 10.507 150.217 10.2393 148.816 10.2393C147.549 10.2393 146.482 10.4735 145.614 10.942C144.814 11.4105 144.147 12.0128 143.613 12.7489C143.013 13.552 142.579 14.5893 142.312 15.8609C142.046 17.1324 141.912 18.3705 141.912 19.5751V21.1813H131.706V18.6717Z" fill="#D37700"/>
<path d="M194.365 47.0807L189.362 21.1813H189.162L184.159 47.0807H194.365ZM169.15 72.0766L185.06 0.602315H193.564L209.474 72.0766H199.268L196.266 56.7176H182.358L179.356 72.0766H169.15Z" fill="#D37700"/>
<path d="M219.679 72.0766V83.119H210.874V63.0419H216.077C216.677 61.7704 217.244 60.3315 217.778 58.7254C218.311 57.0523 218.778 55.3123 219.178 53.5053C219.579 51.6984 219.945 49.858 220.279 47.9841C220.613 46.0434 220.879 44.1695 221.079 42.3626C221.213 40.9572 221.313 39.3845 221.38 37.6445C221.513 35.9044 221.613 34.131 221.68 32.324C221.747 30.4502 221.78 28.6098 221.78 26.8029C221.847 24.929 221.88 23.1555 221.88 21.4824V0.602315H251.197V63.0419H257V83.119H248.195V72.0766H219.679ZM231.485 9.63698V21.3821C231.485 22.319 231.452 23.6909 231.385 25.4978C231.319 27.2379 231.219 29.1452 231.085 31.2198C230.952 33.2944 230.818 35.4025 230.685 37.5441C230.552 39.6187 230.385 41.4591 230.185 43.0653C230.051 44.4037 229.818 45.943 229.484 47.683C229.217 49.3561 228.884 51.0961 228.484 52.903C228.083 54.7099 227.65 56.5169 227.183 58.3238C226.716 60.0638 226.182 61.6365 225.582 63.0419H240.991V9.63698H231.485Z" fill="#D37700"/>
<path fill-rule="evenodd" clip-rule="evenodd" d="M18.6854 36.7825L0 6.57372L10.6871 0L33.4387 36.7825L10.6871 73.5651L0 66.9913L18.6854 36.7825Z" fill="#D37700"/>
</svg>
