<svg width="361" height="118" fill="none" xmlns="http://www.w3.org/2000/svg"><mask id="a" maskUnits="userSpaceOnUse" x="69.929" y="0" width="292" height="119" fill="#000"><path fill="#fff" d="M69.929 0h292v119h-292z"/><path d="M70.93 101.963V1.843h14.295v42.889h17.66V1.844h14.296v100.119h-14.296V57.388h-17.66v44.575H70.93zm88.549-35.013l-7.008-36.28h-.281l-7.008 36.28h14.297zm-35.32 35.013l22.285-100.12h11.913l22.285 100.12h-14.296l-4.204-21.514H142.66l-4.205 21.514h-14.296zm60.332-74.808c0-2.813.561-6 1.682-9.562 1.215-3.562 3.037-6.61 5.466-9.14a29.248 29.248 0 017.289-5.344c2.709-1.406 5.84-2.109 9.39-2.109 4.205 0 7.802.75 10.792 2.25 3.084 1.406 5.607 3.328 7.569 5.765 2.056 2.438 3.551 5.344 4.485 8.718.934 3.375 1.402 6.938 1.402 10.687 0 1.875-.047 3.797-.141 5.766-.093 1.875-.467 3.796-1.121 5.765-.561 1.875-1.542 3.656-2.943 5.343-1.308 1.688-3.224 3.235-5.747 4.64 2.523 1.032 4.439 2.391 5.747 4.079a13.605 13.605 0 012.943 5.484c.654 1.968 1.028 4.172 1.121 6.609.094 2.344.141 4.78.141 7.312 0 4.218-.468 8.156-1.402 11.812-.841 3.656-2.289 6.703-4.345 9.14-2.056 2.437-4.672 4.453-7.849 6.047-3.083 1.593-6.914 2.39-11.493 2.39-3.457 0-6.681-.609-9.671-1.828-2.99-1.219-5.559-2.906-7.708-5.062s-3.785-4.922-4.906-8.297c-1.121-3.374-1.682-6.75-1.682-10.124v-3.797h14.296l.141 3.938c0 1.312.14 2.624.42 3.937a11.407 11.407 0 001.682 3.375c.747 1.03 1.728 1.874 2.943 2.53 1.215.657 2.757.985 4.625.985 4.205 0 7.008-1.312 8.41-3.937 1.495-2.719 2.242-6.375 2.242-10.968 0-2.625-.093-5.063-.28-7.313-.187-2.343-.654-4.171-1.401-5.484-1.682-2.906-4.486-4.359-8.41-4.359h-5.466V43.748h5.887c1.775 0 3.363-.328 4.765-.985 1.401-.656 2.523-1.78 3.364-3.374.747-1.5 1.168-3.282 1.261-5.344.187-2.062.28-3.89.28-5.484 0-1.687-.14-3.328-.42-4.922-.28-1.687-.794-3.14-1.542-4.359-.747-1.125-1.775-2.062-3.083-2.812-1.215-.75-2.803-1.125-4.766-1.125-1.775 0-3.27.328-4.485.984a9.098 9.098 0 00-2.803 2.531c-.841 1.125-1.448 2.578-1.822 4.36a25.288 25.288 0 00-.561 5.202v2.25h-14.296v-3.515zm87.771 39.795l-7.008-36.28h-.28l-7.008 36.28h14.296zm-35.32 35.013l22.285-100.12h11.914l22.285 100.12H279.13l-4.205-21.514h-19.482l-4.205 21.514h-14.296zm70.779 0v15.468h-12.334V89.308h7.288c.841-1.781 1.635-3.797 2.383-6.047a83.385 83.385 0 001.962-7.312 187.51 187.51 0 001.542-7.734 132.85 132.85 0 001.121-7.874c.187-1.97.327-4.172.421-6.61.187-2.437.327-4.921.42-7.452.094-2.625.14-5.203.14-7.734.094-2.625.14-5.11.14-7.453V1.844h41.067v87.464H360v28.123h-12.334v-15.468h-39.945zm16.539-87.464v16.453c0 1.312-.047 3.234-.141 5.765a309.124 309.124 0 01-.42 8.015c-.187 2.906-.374 5.86-.561 8.859-.187 2.906-.42 5.484-.7 7.734-.187 1.875-.514 4.03-.982 6.468-.373 2.344-.84 4.781-1.401 7.312a224.778 224.778 0 01-1.822 7.594c-.654 2.437-1.402 4.64-2.243 6.609h21.585V14.499H324.26z"/></mask><path d="M70.93 101.963V1.843h14.295v42.889h17.66V1.844h14.296v100.119h-14.296V57.388h-17.66v44.575H70.93zm88.549-35.013l-7.008-36.28h-.281l-7.008 36.28h14.297zm-35.32 35.013l22.285-100.12h11.913l22.285 100.12h-14.296l-4.204-21.514H142.66l-4.205 21.514h-14.296zm60.332-74.808c0-2.813.561-6 1.682-9.562 1.215-3.562 3.037-6.61 5.466-9.14a29.248 29.248 0 017.289-5.344c2.709-1.406 5.84-2.109 9.39-2.109 4.205 0 7.802.75 10.792 2.25 3.084 1.406 5.607 3.328 7.569 5.765 2.056 2.438 3.551 5.344 4.485 8.718.934 3.375 1.402 6.938 1.402 10.687 0 1.875-.047 3.797-.141 5.766-.093 1.875-.467 3.796-1.121 5.765-.561 1.875-1.542 3.656-2.943 5.343-1.308 1.688-3.224 3.235-5.747 4.64 2.523 1.032 4.439 2.391 5.747 4.079a13.605 13.605 0 012.943 5.484c.654 1.968 1.028 4.172 1.121 6.609.094 2.344.141 4.78.141 7.312 0 4.218-.468 8.156-1.402 11.812-.841 3.656-2.289 6.703-4.345 9.14-2.056 2.437-4.672 4.453-7.849 6.047-3.083 1.593-6.914 2.39-11.493 2.39-3.457 0-6.681-.609-9.671-1.828-2.99-1.219-5.559-2.906-7.708-5.062s-3.785-4.922-4.906-8.297c-1.121-3.374-1.682-6.75-1.682-10.124v-3.797h14.296l.141 3.938c0 1.312.14 2.624.42 3.937a11.407 11.407 0 001.682 3.375c.747 1.03 1.728 1.874 2.943 2.53 1.215.657 2.757.985 4.625.985 4.205 0 7.008-1.312 8.41-3.937 1.495-2.719 2.242-6.375 2.242-10.968 0-2.625-.093-5.063-.28-7.313-.187-2.343-.654-4.171-1.401-5.484-1.682-2.906-4.486-4.359-8.41-4.359h-5.466V43.748h5.887c1.775 0 3.363-.328 4.765-.985 1.401-.656 2.523-1.78 3.364-3.374.747-1.5 1.168-3.282 1.261-5.344.187-2.062.28-3.89.28-5.484 0-1.687-.14-3.328-.42-4.922-.28-1.687-.794-3.14-1.542-4.359-.747-1.125-1.775-2.062-3.083-2.812-1.215-.75-2.803-1.125-4.766-1.125-1.775 0-3.27.328-4.485.984a9.098 9.098 0 00-2.803 2.531c-.841 1.125-1.448 2.578-1.822 4.36a25.288 25.288 0 00-.561 5.202v2.25h-14.296v-3.515zm87.771 39.795l-7.008-36.28h-.28l-7.008 36.28h14.296zm-35.32 35.013l22.285-100.12h11.914l22.285 100.12H279.13l-4.205-21.514h-19.482l-4.205 21.514h-14.296zm70.779 0v15.468h-12.334V89.308h7.288c.841-1.781 1.635-3.797 2.383-6.047a83.385 83.385 0 001.962-7.312 187.51 187.51 0 001.542-7.734 132.85 132.85 0 001.121-7.874c.187-1.97.327-4.172.421-6.61.187-2.437.327-4.921.42-7.452.094-2.625.14-5.203.14-7.734.094-2.625.14-5.11.14-7.453V1.844h41.067v87.464H360v28.123h-12.334v-15.468h-39.945zm16.539-87.464v16.453c0 1.312-.047 3.234-.141 5.765a309.124 309.124 0 01-.42 8.015c-.187 2.906-.374 5.86-.561 8.859-.187 2.906-.42 5.484-.7 7.734-.187 1.875-.514 4.03-.982 6.468-.373 2.344-.84 4.781-1.401 7.312a224.778 224.778 0 01-1.822 7.594c-.654 2.437-1.402 4.64-2.243 6.609h21.585V14.499H324.26z" fill="#fff"/><path d="M70.93 101.963V1.843h14.295v42.889h17.66V1.844h14.296v100.119h-14.296V57.388h-17.66v44.575H70.93zm88.549-35.013l-7.008-36.28h-.281l-7.008 36.28h14.297zm-35.32 35.013l22.285-100.12h11.913l22.285 100.12h-14.296l-4.204-21.514H142.66l-4.205 21.514h-14.296zm60.332-74.808c0-2.813.561-6 1.682-9.562 1.215-3.562 3.037-6.61 5.466-9.14a29.248 29.248 0 017.289-5.344c2.709-1.406 5.84-2.109 9.39-2.109 4.205 0 7.802.75 10.792 2.25 3.084 1.406 5.607 3.328 7.569 5.765 2.056 2.438 3.551 5.344 4.485 8.718.934 3.375 1.402 6.938 1.402 10.687 0 1.875-.047 3.797-.141 5.766-.093 1.875-.467 3.796-1.121 5.765-.561 1.875-1.542 3.656-2.943 5.343-1.308 1.688-3.224 3.235-5.747 4.64 2.523 1.032 4.439 2.391 5.747 4.079a13.605 13.605 0 012.943 5.484c.654 1.968 1.028 4.172 1.121 6.609.094 2.344.141 4.78.141 7.312 0 4.218-.468 8.156-1.402 11.812-.841 3.656-2.289 6.703-4.345 9.14-2.056 2.437-4.672 4.453-7.849 6.047-3.083 1.593-6.914 2.39-11.493 2.39-3.457 0-6.681-.609-9.671-1.828-2.99-1.219-5.559-2.906-7.708-5.062s-3.785-4.922-4.906-8.297c-1.121-3.374-1.682-6.75-1.682-10.124v-3.797h14.296l.141 3.938c0 1.312.14 2.624.42 3.937a11.407 11.407 0 001.682 3.375c.747 1.03 1.728 1.874 2.943 2.53 1.215.657 2.757.985 4.625.985 4.205 0 7.008-1.312 8.41-3.937 1.495-2.719 2.242-6.375 2.242-10.968 0-2.625-.093-5.063-.28-7.313-.187-2.343-.654-4.171-1.401-5.484-1.682-2.906-4.486-4.359-8.41-4.359h-5.466V43.748h5.887c1.775 0 3.363-.328 4.765-.985 1.401-.656 2.523-1.78 3.364-3.374.747-1.5 1.168-3.282 1.261-5.344.187-2.062.28-3.89.28-5.484 0-1.687-.14-3.328-.42-4.922-.28-1.687-.794-3.14-1.542-4.359-.747-1.125-1.775-2.062-3.083-2.812-1.215-.75-2.803-1.125-4.766-1.125-1.775 0-3.27.328-4.485.984a9.098 9.098 0 00-2.803 2.531c-.841 1.125-1.448 2.578-1.822 4.36a25.288 25.288 0 00-.561 5.202v2.25h-14.296v-3.515zm87.771 39.795l-7.008-36.28h-.28l-7.008 36.28h14.296zm-35.32 35.013l22.285-100.12h11.914l22.285 100.12H279.13l-4.205-21.514h-19.482l-4.205 21.514h-14.296zm70.779 0v15.468h-12.334V89.308h7.288c.841-1.781 1.635-3.797 2.383-6.047a83.385 83.385 0 001.962-7.312 187.51 187.51 0 001.542-7.734 132.85 132.85 0 001.121-7.874c.187-1.97.327-4.172.421-6.61.187-2.437.327-4.921.42-7.452.094-2.625.14-5.203.14-7.734.094-2.625.14-5.11.14-7.453V1.844h41.067v87.464H360v28.123h-12.334v-15.468h-39.945zm16.539-87.464v16.453c0 1.312-.047 3.234-.141 5.765a309.124 309.124 0 01-.42 8.015c-.187 2.906-.374 5.86-.561 8.859-.187 2.906-.42 5.484-.7 7.734-.187 1.875-.514 4.03-.982 6.468-.373 2.344-.84 4.781-1.401 7.312a224.778 224.778 0 01-1.822 7.594c-.654 2.437-1.402 4.64-2.243 6.609h21.585V14.499H324.26z" stroke="#fff" stroke-width="2" mask="url(#a)"/><path fill-rule="evenodd" clip-rule="evenodd" d="M26.174 52.524L0 10.208 14.97 1l31.87 51.524-31.87 51.524L0 94.84l26.174-42.316z" fill="#fff" stroke="#fff"/></svg>