<svg width="262" height="88" viewBox="0 0 262 88" fill="none" xmlns="http://www.w3.org/2000/svg">
<mask id="path-1-outside-1" maskUnits="userSpaceOnUse" x="50.6367" y="0" width="211" height="88" fill="black">
<rect fill="white" x="50.6367" width="211" height="88"/>
<path d="M52.6367 74.0766V2.60232H62.8426V33.2198H75.4498V2.60232H85.6556V74.0766H75.4498V42.2545H62.8426V74.0766H52.6367Z"/>
<path d="M115.851 49.0807L110.848 23.1813H110.648L105.645 49.0807H115.851ZM90.6366 74.0766L106.546 2.60232H115.051L130.96 74.0766H120.754L117.752 58.7176H103.844L100.842 74.0766H90.6366Z"/>
<path d="M133.707 20.6717C133.707 18.6639 134.108 16.3885 134.908 13.8455C135.775 11.3024 137.076 9.12735 138.81 7.32042C140.345 5.78118 142.079 4.50963 144.013 3.50578C145.948 2.50193 148.182 2 150.717 2C153.719 2 156.287 2.53539 158.422 3.60617C160.623 4.61002 162.424 5.98195 163.825 7.72196C165.292 9.46197 166.359 11.5366 167.026 13.9458C167.694 16.3551 168.027 18.8982 168.027 21.5751C168.027 22.9136 167.994 24.2855 167.927 25.6909C167.86 27.0294 167.593 28.4013 167.127 29.8067C166.726 31.1452 166.026 32.4167 165.025 33.6213C164.091 34.826 162.724 35.9302 160.923 36.9341C162.724 37.6702 164.091 38.6406 165.025 39.8452C166.026 40.9829 166.726 42.2879 167.127 43.7603C167.593 45.1656 167.86 46.7383 167.927 48.4784C167.994 50.1514 168.027 51.8915 168.027 53.6984C168.027 56.7099 167.694 59.5207 167.026 62.1307C166.426 64.7408 165.392 66.9158 163.925 68.6558C162.457 70.3958 160.589 71.8346 158.321 72.9723C156.12 74.11 153.385 74.6789 150.117 74.6789C147.649 74.6789 145.347 74.2439 143.213 73.3739C141.078 72.5039 139.244 71.2993 137.71 69.76C136.175 68.2208 135.008 66.2465 134.208 63.8373C133.407 61.428 133.007 59.0188 133.007 56.6096V53.8992H143.213L143.313 56.7099C143.313 57.6469 143.413 58.5838 143.613 59.5207C143.88 60.3907 144.28 61.1938 144.814 61.93C145.347 62.6661 146.048 63.2684 146.915 63.7369C147.782 64.2054 148.883 64.4396 150.217 64.4396C153.219 64.4396 155.22 63.5027 156.22 61.6288C157.288 59.688 157.821 57.078 157.821 53.7988C157.821 51.9249 157.754 50.1849 157.621 48.5787C157.488 46.9057 157.154 45.6006 156.62 44.6637C155.42 42.5891 153.419 41.5518 150.617 41.5518H146.715V32.5171H150.917C152.185 32.5171 153.319 32.2829 154.319 31.8144C155.32 31.3459 156.12 30.5429 156.721 29.4052C157.254 28.3344 157.554 27.0628 157.621 25.5905C157.754 24.1182 157.821 22.8132 157.821 21.6755C157.821 20.4709 157.721 19.2997 157.521 18.162C157.321 16.9574 156.954 15.9201 156.42 15.0501C155.887 14.247 155.153 13.5778 154.219 13.0424C153.352 12.507 152.218 12.2393 150.817 12.2393C149.55 12.2393 148.483 12.4735 147.615 12.942C146.815 13.4105 146.148 14.0128 145.614 14.7489C145.014 15.552 144.58 16.5893 144.313 17.8609C144.047 19.1324 143.913 20.3705 143.913 21.5751V23.1813H133.707V20.6717Z"/>
<path d="M196.366 49.0807L191.363 23.1813H191.163L186.16 49.0807H196.366ZM171.151 74.0766L187.061 2.60232H195.565L211.475 74.0766H201.269L198.267 58.7176H184.359L181.357 74.0766H171.151Z"/>
<path d="M221.68 74.0766V85.119H212.875V65.0419H218.078C218.678 63.7704 219.245 62.3315 219.779 60.7254C220.312 59.0523 220.779 57.3123 221.179 55.5053C221.58 53.6984 221.946 51.858 222.28 49.9841C222.613 48.0434 222.88 46.1695 223.08 44.3626C223.214 42.9572 223.314 41.3845 223.381 39.6445C223.514 37.9044 223.614 36.131 223.681 34.324C223.747 32.4502 223.781 30.6098 223.781 28.8029C223.848 26.929 223.881 25.1555 223.881 23.4824V2.60232H253.198V65.0419H259.001V85.119H250.196V74.0766H221.68ZM233.486 11.637V23.3821C233.486 24.319 233.453 25.6909 233.386 27.4978C233.32 29.2379 233.22 31.1452 233.086 33.2198C232.953 35.2944 232.819 37.4025 232.686 39.5441C232.553 41.6187 232.386 43.4591 232.186 45.0653C232.052 46.4037 231.819 47.943 231.485 49.683C231.218 51.3561 230.885 53.0961 230.485 54.903C230.084 56.7099 229.651 58.5169 229.184 60.3238C228.717 62.0638 228.183 63.6365 227.583 65.0419H242.992V11.637H233.486Z"/>
</mask>
<path d="M52.6367 74.0766V2.60232H62.8426V33.2198H75.4498V2.60232H85.6556V74.0766H75.4498V42.2545H62.8426V74.0766H52.6367Z" stroke="#070707" stroke-opacity="0.33" stroke-width="4" mask="url(#path-1-outside-1)"/>
<path d="M115.851 49.0807L110.848 23.1813H110.648L105.645 49.0807H115.851ZM90.6366 74.0766L106.546 2.60232H115.051L130.96 74.0766H120.754L117.752 58.7176H103.844L100.842 74.0766H90.6366Z" stroke="#070707" stroke-opacity="0.33" stroke-width="4" mask="url(#path-1-outside-1)"/>
<path d="M133.707 20.6717C133.707 18.6639 134.108 16.3885 134.908 13.8455C135.775 11.3024 137.076 9.12735 138.81 7.32042C140.345 5.78118 142.079 4.50963 144.013 3.50578C145.948 2.50193 148.182 2 150.717 2C153.719 2 156.287 2.53539 158.422 3.60617C160.623 4.61002 162.424 5.98195 163.825 7.72196C165.292 9.46197 166.359 11.5366 167.026 13.9458C167.694 16.3551 168.027 18.8982 168.027 21.5751C168.027 22.9136 167.994 24.2855 167.927 25.6909C167.86 27.0294 167.593 28.4013 167.127 29.8067C166.726 31.1452 166.026 32.4167 165.025 33.6213C164.091 34.826 162.724 35.9302 160.923 36.9341C162.724 37.6702 164.091 38.6406 165.025 39.8452C166.026 40.9829 166.726 42.2879 167.127 43.7603C167.593 45.1656 167.86 46.7383 167.927 48.4784C167.994 50.1514 168.027 51.8915 168.027 53.6984C168.027 56.7099 167.694 59.5207 167.026 62.1307C166.426 64.7408 165.392 66.9158 163.925 68.6558C162.457 70.3958 160.589 71.8346 158.321 72.9723C156.12 74.11 153.385 74.6789 150.117 74.6789C147.649 74.6789 145.347 74.2439 143.213 73.3739C141.078 72.5039 139.244 71.2993 137.71 69.76C136.175 68.2208 135.008 66.2465 134.208 63.8373C133.407 61.428 133.007 59.0188 133.007 56.6096V53.8992H143.213L143.313 56.7099C143.313 57.6469 143.413 58.5838 143.613 59.5207C143.88 60.3907 144.28 61.1938 144.814 61.93C145.347 62.6661 146.048 63.2684 146.915 63.7369C147.782 64.2054 148.883 64.4396 150.217 64.4396C153.219 64.4396 155.22 63.5027 156.22 61.6288C157.288 59.688 157.821 57.078 157.821 53.7988C157.821 51.9249 157.754 50.1849 157.621 48.5787C157.488 46.9057 157.154 45.6006 156.62 44.6637C155.42 42.5891 153.419 41.5518 150.617 41.5518H146.715V32.5171H150.917C152.185 32.5171 153.319 32.2829 154.319 31.8144C155.32 31.3459 156.12 30.5429 156.721 29.4052C157.254 28.3344 157.554 27.0628 157.621 25.5905C157.754 24.1182 157.821 22.8132 157.821 21.6755C157.821 20.4709 157.721 19.2997 157.521 18.162C157.321 16.9574 156.954 15.9201 156.42 15.0501C155.887 14.247 155.153 13.5778 154.219 13.0424C153.352 12.507 152.218 12.2393 150.817 12.2393C149.55 12.2393 148.483 12.4735 147.615 12.942C146.815 13.4105 146.148 14.0128 145.614 14.7489C145.014 15.552 144.58 16.5893 144.313 17.8609C144.047 19.1324 143.913 20.3705 143.913 21.5751V23.1813H133.707V20.6717Z" stroke="#070707" stroke-opacity="0.33" stroke-width="4" mask="url(#path-1-outside-1)"/>
<path d="M196.366 49.0807L191.363 23.1813H191.163L186.16 49.0807H196.366ZM171.151 74.0766L187.061 2.60232H195.565L211.475 74.0766H201.269L198.267 58.7176H184.359L181.357 74.0766H171.151Z" stroke="#070707" stroke-opacity="0.33" stroke-width="4" mask="url(#path-1-outside-1)"/>
<path d="M221.68 74.0766V85.119H212.875V65.0419H218.078C218.678 63.7704 219.245 62.3315 219.779 60.7254C220.312 59.0523 220.779 57.3123 221.179 55.5053C221.58 53.6984 221.946 51.858 222.28 49.9841C222.613 48.0434 222.88 46.1695 223.08 44.3626C223.214 42.9572 223.314 41.3845 223.381 39.6445C223.514 37.9044 223.614 36.131 223.681 34.324C223.747 32.4502 223.781 30.6098 223.781 28.8029C223.848 26.929 223.881 25.1555 223.881 23.4824V2.60232H253.198V65.0419H259.001V85.119H250.196V74.0766H221.68ZM233.486 11.637V23.3821C233.486 24.319 233.453 25.6909 233.386 27.4978C233.32 29.2379 233.22 31.1452 233.086 33.2198C232.953 35.2944 232.819 37.4025 232.686 39.5441C232.553 41.6187 232.386 43.4591 232.186 45.0653C232.052 46.4037 231.819 47.943 231.485 49.683C231.218 51.3561 230.885 53.0961 230.485 54.903C230.084 56.7099 229.651 58.5169 229.184 60.3238C228.717 62.0638 228.183 63.6365 227.583 65.0419H242.992V11.637H233.486Z" stroke="#070707" stroke-opacity="0.33" stroke-width="4" mask="url(#path-1-outside-1)"/>
<path fill-rule="evenodd" clip-rule="evenodd" d="M20.6854 38.7825L2 8.57372L12.6871 2L35.4387 38.7825L12.6871 75.5651L2 68.9913L20.6854 38.7825Z" stroke="#070707" stroke-opacity="0.33" stroke-width="2"/>
</svg>
