<svg width="361" height="118" viewBox="0 0 361 118" fill="none" xmlns="http://www.w3.org/2000/svg">
<mask id="path-1-outside-1" maskUnits="userSpaceOnUse" x="69.9293" y="0" width="292" height="119" fill="black">
<rect fill="white" x="69.9293" width="292" height="119"/>
<path d="M70.9293 101.963V1.84371H85.2254V44.732H102.885V1.84371H117.181V101.963H102.885V57.3876H85.2254V101.963H70.9293Z"/>
<path d="M159.479 66.9496L152.471 30.6703H152.19L145.182 66.9496H159.479ZM124.159 101.963L146.444 1.84371H158.357L180.642 101.963H166.346L162.142 80.4488H142.66L138.455 101.963H124.159Z"/>
<path d="M184.491 27.1548C184.491 24.3425 185.052 21.1552 186.173 17.5929C187.388 14.0306 189.21 10.9838 191.639 8.45273C193.788 6.29659 196.218 4.51544 198.928 3.10927C201.637 1.70309 204.768 1 208.318 1C212.523 1 216.12 1.74996 219.11 3.24988C222.194 4.65606 224.717 6.57783 226.679 9.0152C228.735 11.4526 230.23 14.3587 231.164 17.7335C232.098 21.1083 232.566 24.6706 232.566 28.4204C232.566 30.2953 232.519 32.2171 232.425 34.1857C232.332 36.0606 231.958 37.9824 231.304 39.951C230.743 41.8259 229.762 43.6071 228.361 45.2945C227.053 46.9819 225.137 48.5287 222.614 49.9349C225.137 50.9661 227.053 52.3254 228.361 54.0128C229.762 55.6064 230.743 57.4345 231.304 59.4969C231.958 61.4655 232.332 63.6685 232.425 66.1059C232.519 68.4495 232.566 70.8869 232.566 73.418C232.566 77.6365 232.098 81.5738 231.164 85.2298C230.323 88.8859 228.875 91.9326 226.819 94.37C224.763 96.8073 222.147 98.8229 218.97 100.417C215.887 102.01 212.056 102.807 207.477 102.807C204.02 102.807 200.796 102.198 197.806 100.979C194.816 99.7603 192.247 98.0729 190.098 95.9168C187.949 93.7606 186.313 90.9952 185.192 87.6203C184.071 84.2455 183.51 80.8707 183.51 77.4959V73.6992H197.806L197.947 77.6365C197.947 78.9489 198.087 80.2614 198.367 81.5738C198.741 82.7925 199.301 83.9174 200.049 84.9486C200.796 85.9798 201.777 86.8235 202.992 87.4797C204.207 88.1359 205.749 88.464 207.617 88.464C211.822 88.464 214.625 87.1516 216.027 84.5268C217.522 81.8082 218.269 78.1521 218.269 73.5586C218.269 70.9337 218.176 68.4964 217.989 66.2465C217.802 63.9029 217.335 62.0748 216.588 60.7624C214.906 57.8563 212.102 56.4033 208.178 56.4033H202.712V43.7477H208.599C210.374 43.7477 211.962 43.4196 213.364 42.7634C214.765 42.1072 215.887 40.9822 216.728 39.3886C217.475 37.8886 217.896 36.1075 217.989 34.0451C218.176 31.9827 218.269 30.1547 218.269 28.561C218.269 26.8736 218.129 25.2331 217.849 23.6394C217.569 21.952 217.055 20.499 216.307 19.2803C215.56 18.1553 214.532 17.2179 213.224 16.4679C212.009 15.718 210.421 15.343 208.458 15.343C206.683 15.343 205.188 15.6711 203.973 16.3273C202.852 16.9835 201.918 17.8272 201.17 18.8584C200.329 19.9834 199.722 21.4364 199.348 23.2176C198.974 24.9987 198.787 26.733 198.787 28.4204V30.6703H184.491V27.1548Z"/>
<path d="M272.262 66.9496L265.254 30.6703H264.974L257.966 66.9496H272.262ZM236.942 101.963L259.227 1.84371H271.141L293.426 101.963H279.13L274.925 80.4488H255.443L251.238 101.963H236.942Z"/>
<path d="M307.721 101.963V117.431H295.387V89.3077H302.675C303.516 87.5266 304.31 85.5111 305.058 83.2612C305.805 80.9176 306.46 78.4802 307.02 75.9491C307.581 73.418 308.095 70.84 308.562 68.2151C309.029 65.4965 309.403 62.8717 309.683 60.3406C309.87 58.3719 310.01 56.1689 310.104 53.7315C310.291 51.2942 310.431 48.8099 310.524 46.2788C310.618 43.654 310.664 41.076 310.664 38.5449C310.758 35.92 310.804 33.4358 310.804 31.0921V1.84371H351.871V89.3077H360V117.431H347.666V101.963H307.721ZM324.26 14.4993V30.9515C324.26 32.2639 324.213 34.1857 324.119 36.7168C324.026 39.1542 323.886 41.8259 323.699 44.732C323.512 47.6381 323.325 50.5911 323.138 53.5909C322.951 56.497 322.718 59.075 322.438 61.3249C322.251 63.1998 321.924 65.3559 321.456 67.7933C321.083 70.1369 320.616 72.5743 320.055 75.1054C319.494 77.6365 318.887 80.1676 318.233 82.6987C317.579 85.1361 316.831 87.3391 315.99 89.3077H337.575V14.4993H324.26Z"/>
</mask>
<path d="M70.9293 101.963V1.84371H85.2254V44.732H102.885V1.84371H117.181V101.963H102.885V57.3876H85.2254V101.963H70.9293Z" fill="white"/>
<path d="M159.479 66.9496L152.471 30.6703H152.19L145.182 66.9496H159.479ZM124.159 101.963L146.444 1.84371H158.357L180.642 101.963H166.346L162.142 80.4488H142.66L138.455 101.963H124.159Z" fill="white"/>
<path d="M184.491 27.1548C184.491 24.3425 185.052 21.1552 186.173 17.5929C187.388 14.0306 189.21 10.9838 191.639 8.45273C193.788 6.29659 196.218 4.51544 198.928 3.10927C201.637 1.70309 204.768 1 208.318 1C212.523 1 216.12 1.74996 219.11 3.24988C222.194 4.65606 224.717 6.57783 226.679 9.0152C228.735 11.4526 230.23 14.3587 231.164 17.7335C232.098 21.1083 232.566 24.6706 232.566 28.4204C232.566 30.2953 232.519 32.2171 232.425 34.1857C232.332 36.0606 231.958 37.9824 231.304 39.951C230.743 41.8259 229.762 43.6071 228.361 45.2945C227.053 46.9819 225.137 48.5287 222.614 49.9349C225.137 50.9661 227.053 52.3254 228.361 54.0128C229.762 55.6064 230.743 57.4345 231.304 59.4969C231.958 61.4655 232.332 63.6685 232.425 66.1059C232.519 68.4495 232.566 70.8869 232.566 73.418C232.566 77.6365 232.098 81.5738 231.164 85.2298C230.323 88.8859 228.875 91.9326 226.819 94.37C224.763 96.8073 222.147 98.8229 218.97 100.417C215.887 102.01 212.056 102.807 207.477 102.807C204.02 102.807 200.796 102.198 197.806 100.979C194.816 99.7603 192.247 98.0729 190.098 95.9168C187.949 93.7606 186.313 90.9952 185.192 87.6203C184.071 84.2455 183.51 80.8707 183.51 77.4959V73.6992H197.806L197.947 77.6365C197.947 78.9489 198.087 80.2614 198.367 81.5738C198.741 82.7925 199.301 83.9174 200.049 84.9486C200.796 85.9798 201.777 86.8235 202.992 87.4797C204.207 88.1359 205.749 88.464 207.617 88.464C211.822 88.464 214.625 87.1516 216.027 84.5268C217.522 81.8082 218.269 78.1521 218.269 73.5586C218.269 70.9337 218.176 68.4964 217.989 66.2465C217.802 63.9029 217.335 62.0748 216.588 60.7624C214.906 57.8563 212.102 56.4033 208.178 56.4033H202.712V43.7477H208.599C210.374 43.7477 211.962 43.4196 213.364 42.7634C214.765 42.1072 215.887 40.9822 216.728 39.3886C217.475 37.8886 217.896 36.1075 217.989 34.0451C218.176 31.9827 218.269 30.1547 218.269 28.561C218.269 26.8736 218.129 25.2331 217.849 23.6394C217.569 21.952 217.055 20.499 216.307 19.2803C215.56 18.1553 214.532 17.2179 213.224 16.4679C212.009 15.718 210.421 15.343 208.458 15.343C206.683 15.343 205.188 15.6711 203.973 16.3273C202.852 16.9835 201.918 17.8272 201.17 18.8584C200.329 19.9834 199.722 21.4364 199.348 23.2176C198.974 24.9987 198.787 26.733 198.787 28.4204V30.6703H184.491V27.1548Z" fill="white"/>
<path d="M272.262 66.9496L265.254 30.6703H264.974L257.966 66.9496H272.262ZM236.942 101.963L259.227 1.84371H271.141L293.426 101.963H279.13L274.925 80.4488H255.443L251.238 101.963H236.942Z" fill="white"/>
<path d="M307.721 101.963V117.431H295.387V89.3077H302.675C303.516 87.5266 304.31 85.5111 305.058 83.2612C305.805 80.9176 306.46 78.4802 307.02 75.9491C307.581 73.418 308.095 70.84 308.562 68.2151C309.029 65.4965 309.403 62.8717 309.683 60.3406C309.87 58.3719 310.01 56.1689 310.104 53.7315C310.291 51.2942 310.431 48.8099 310.524 46.2788C310.618 43.654 310.664 41.076 310.664 38.5449C310.758 35.92 310.804 33.4358 310.804 31.0921V1.84371H351.871V89.3077H360V117.431H347.666V101.963H307.721ZM324.26 14.4993V30.9515C324.26 32.2639 324.213 34.1857 324.119 36.7168C324.026 39.1542 323.886 41.8259 323.699 44.732C323.512 47.6381 323.325 50.5911 323.138 53.5909C322.951 56.497 322.718 59.075 322.438 61.3249C322.251 63.1998 321.924 65.3559 321.456 67.7933C321.083 70.1369 320.616 72.5743 320.055 75.1054C319.494 77.6365 318.887 80.1676 318.233 82.6987C317.579 85.1361 316.831 87.3391 315.99 89.3077H337.575V14.4993H324.26Z" fill="white"/>
<path d="M70.9293 101.963V1.84371H85.2254V44.732H102.885V1.84371H117.181V101.963H102.885V57.3876H85.2254V101.963H70.9293Z" stroke="white" stroke-width="2" mask="url(#path-1-outside-1)"/>
<path d="M159.479 66.9496L152.471 30.6703H152.19L145.182 66.9496H159.479ZM124.159 101.963L146.444 1.84371H158.357L180.642 101.963H166.346L162.142 80.4488H142.66L138.455 101.963H124.159Z" stroke="white" stroke-width="2" mask="url(#path-1-outside-1)"/>
<path d="M184.491 27.1548C184.491 24.3425 185.052 21.1552 186.173 17.5929C187.388 14.0306 189.21 10.9838 191.639 8.45273C193.788 6.29659 196.218 4.51544 198.928 3.10927C201.637 1.70309 204.768 1 208.318 1C212.523 1 216.12 1.74996 219.11 3.24988C222.194 4.65606 224.717 6.57783 226.679 9.0152C228.735 11.4526 230.23 14.3587 231.164 17.7335C232.098 21.1083 232.566 24.6706 232.566 28.4204C232.566 30.2953 232.519 32.2171 232.425 34.1857C232.332 36.0606 231.958 37.9824 231.304 39.951C230.743 41.8259 229.762 43.6071 228.361 45.2945C227.053 46.9819 225.137 48.5287 222.614 49.9349C225.137 50.9661 227.053 52.3254 228.361 54.0128C229.762 55.6064 230.743 57.4345 231.304 59.4969C231.958 61.4655 232.332 63.6685 232.425 66.1059C232.519 68.4495 232.566 70.8869 232.566 73.418C232.566 77.6365 232.098 81.5738 231.164 85.2298C230.323 88.8859 228.875 91.9326 226.819 94.37C224.763 96.8073 222.147 98.8229 218.97 100.417C215.887 102.01 212.056 102.807 207.477 102.807C204.02 102.807 200.796 102.198 197.806 100.979C194.816 99.7603 192.247 98.0729 190.098 95.9168C187.949 93.7606 186.313 90.9952 185.192 87.6203C184.071 84.2455 183.51 80.8707 183.51 77.4959V73.6992H197.806L197.947 77.6365C197.947 78.9489 198.087 80.2614 198.367 81.5738C198.741 82.7925 199.301 83.9174 200.049 84.9486C200.796 85.9798 201.777 86.8235 202.992 87.4797C204.207 88.1359 205.749 88.464 207.617 88.464C211.822 88.464 214.625 87.1516 216.027 84.5268C217.522 81.8082 218.269 78.1521 218.269 73.5586C218.269 70.9337 218.176 68.4964 217.989 66.2465C217.802 63.9029 217.335 62.0748 216.588 60.7624C214.906 57.8563 212.102 56.4033 208.178 56.4033H202.712V43.7477H208.599C210.374 43.7477 211.962 43.4196 213.364 42.7634C214.765 42.1072 215.887 40.9822 216.728 39.3886C217.475 37.8886 217.896 36.1075 217.989 34.0451C218.176 31.9827 218.269 30.1547 218.269 28.561C218.269 26.8736 218.129 25.2331 217.849 23.6394C217.569 21.952 217.055 20.499 216.307 19.2803C215.56 18.1553 214.532 17.2179 213.224 16.4679C212.009 15.718 210.421 15.343 208.458 15.343C206.683 15.343 205.188 15.6711 203.973 16.3273C202.852 16.9835 201.918 17.8272 201.17 18.8584C200.329 19.9834 199.722 21.4364 199.348 23.2176C198.974 24.9987 198.787 26.733 198.787 28.4204V30.6703H184.491V27.1548Z" stroke="white" stroke-width="2" mask="url(#path-1-outside-1)"/>
<path d="M272.262 66.9496L265.254 30.6703H264.974L257.966 66.9496H272.262ZM236.942 101.963L259.227 1.84371H271.141L293.426 101.963H279.13L274.925 80.4488H255.443L251.238 101.963H236.942Z" stroke="white" stroke-width="2" mask="url(#path-1-outside-1)"/>
<path d="M307.721 101.963V117.431H295.387V89.3077H302.675C303.516 87.5266 304.31 85.5111 305.058 83.2612C305.805 80.9176 306.46 78.4802 307.02 75.9491C307.581 73.418 308.095 70.84 308.562 68.2151C309.029 65.4965 309.403 62.8717 309.683 60.3406C309.87 58.3719 310.01 56.1689 310.104 53.7315C310.291 51.2942 310.431 48.8099 310.524 46.2788C310.618 43.654 310.664 41.076 310.664 38.5449C310.758 35.92 310.804 33.4358 310.804 31.0921V1.84371H351.871V89.3077H360V117.431H347.666V101.963H307.721ZM324.26 14.4993V30.9515C324.26 32.2639 324.213 34.1857 324.119 36.7168C324.026 39.1542 323.886 41.8259 323.699 44.732C323.512 47.6381 323.325 50.5911 323.138 53.5909C322.951 56.497 322.718 59.075 322.438 61.3249C322.251 63.1998 321.924 65.3559 321.456 67.7933C321.083 70.1369 320.616 72.5743 320.055 75.1054C319.494 77.6365 318.887 80.1676 318.233 82.6987C317.579 85.1361 316.831 87.3391 315.99 89.3077H337.575V14.4993H324.26Z" stroke="white" stroke-width="2" mask="url(#path-1-outside-1)"/>
<path fill-rule="evenodd" clip-rule="evenodd" d="M26.1741 52.5242L0 10.2083L14.9703 1L46.8401 52.5242L14.9703 104.048L0 94.84L26.1741 52.5242Z" fill="white" stroke="white"/>
</svg>
