<svg width="257" height="84" fill="none" xmlns="http://www.w3.org/2000/svg"><path d="M50.636 72.077V.602h10.206V31.22h12.607V.602h10.206v71.475H73.449V40.255H60.842v31.822H50.636zM113.85 47.08l-5.003-25.899h-.2l-5.003 25.9h10.206zM88.636 72.078L104.545.602h8.505l15.909 71.475h-10.206l-3.002-15.36h-13.908l-3.002 15.36H88.636zm43.07-53.406c0-2.008.401-4.284 1.201-6.827.867-2.543 2.168-4.718 3.902-6.525a20.904 20.904 0 015.203-3.814C143.947.502 146.181 0 148.716 0c3.002 0 5.57.535 7.705 1.606 2.201 1.004 4.002 2.376 5.403 4.116 1.467 1.74 2.534 3.815 3.201 6.224.668 2.41 1.001 4.952 1.001 7.63 0 1.338-.033 2.71-.1 4.115-.067 1.338-.334 2.71-.8 4.116-.401 1.338-1.101 2.61-2.102 3.814-.934 1.205-2.301 2.31-4.102 3.313 1.801.736 3.168 1.707 4.102 2.911a9.71 9.71 0 012.102 3.915c.466 1.406.733 2.978.8 4.718.067 1.673.1 3.413.1 5.22 0 3.012-.333 5.823-1.001 8.433-.6 2.61-1.634 4.785-3.101 6.525-1.468 1.74-3.336 3.179-5.604 4.316-2.201 1.138-4.936 1.707-8.204 1.707-2.468 0-4.77-.435-6.904-1.305-2.135-.87-3.969-2.075-5.503-3.614-1.535-1.54-2.702-3.514-3.502-5.923-.801-2.409-1.201-4.818-1.201-7.227V51.9h10.206l.1 2.81c0 .937.1 1.874.3 2.81.267.87.667 1.674 1.201 2.41.533.736 1.234 1.338 2.101 1.807.867.468 1.968.703 3.302.703 3.002 0 5.003-.937 6.003-2.811 1.068-1.941 1.601-4.551 1.601-7.83 0-1.874-.066-3.614-.2-5.22-.133-1.673-.467-2.978-1-3.915-1.201-2.075-3.202-3.112-6.004-3.112h-3.902v-9.035h4.202c1.268 0 2.402-.234 3.402-.703 1.001-.468 1.801-1.271 2.402-2.409.533-1.07.833-2.342.9-3.815.134-1.472.2-2.777.2-3.915 0-1.204-.1-2.375-.3-3.513-.2-1.205-.567-2.242-1.101-3.112-.533-.803-1.267-1.472-2.201-2.008-.867-.535-2.001-.803-3.402-.803-1.267 0-2.334.234-3.202.703a6.5 6.5 0 00-2.001 1.807c-.6.803-1.034 1.84-1.301 3.112a18.12 18.12 0 00-.4 3.714v1.606h-10.206v-2.51zm62.659 28.408l-5.003-25.899h-.2l-5.003 25.9h10.206zM169.15 72.078L185.06.602h8.504l15.91 71.475h-10.206l-3.002-15.36h-13.908l-3.002 15.36H169.15zm50.529-.001v11.042h-8.805V63.042h5.203a38.93 38.93 0 001.701-4.317 59.7 59.7 0 001.4-5.22 134.07 134.07 0 001.101-5.52c.334-1.942.6-3.816.8-5.622.134-1.406.234-2.978.301-4.718.133-1.74.233-3.514.3-5.321.067-1.874.1-3.714.1-5.521.067-1.874.1-3.648.1-5.32V.602h29.317v62.439H257v20.077h-8.805V72.077h-28.516zm11.806-62.44v11.745c0 .937-.033 2.309-.1 4.116-.066 1.74-.166 3.647-.3 5.722-.133 2.074-.267 4.183-.4 6.324a93.666 93.666 0 01-.5 5.521c-.134 1.339-.367 2.878-.701 4.618a89.27 89.27 0 01-1 5.22 161.426 161.426 0 01-1.301 5.42c-.467 1.74-1.001 3.313-1.601 4.719h15.409V9.637h-9.506z" fill="#D37700"/><path fill-rule="evenodd" clip-rule="evenodd" d="M18.685 36.782L0 6.575 10.687 0 33.44 36.782 10.687 73.566 0 66.991l18.685-30.209z" fill="#D37700"/></svg>