<svg width="24" height="20" fill="none" xmlns="http://www.w3.org/2000/svg"><path d="M6.4 18.9c-.3 0-.5-.2-.5-.5V3.6c0-.3.2-.5.5-.5s.5.2.5.5v14.8c0 .2-.2.5-.5.5zm7.6-2.5c-3 0-5.5-2.4-5.5-5.5S11 5.5 14 5.5s5.5 2.4 5.5 5.5-2.5 5.4-5.5 5.4zm0-9.9c-2.5 0-4.5 2-4.5 4.5s2 4.5 4.5 4.5 4.5-2 4.5-4.5-2-4.5-4.5-4.5z" fill="#fff"/><path d="M20.9 19.4H2.4C1.1 19.4 0 18.3 0 17V4.9c0-1.3 1.1-2.4 2.4-2.4h6L10.1.4c.2-.3.5-.4.8-.4h6.3c.3 0 .6.1.8.4l1.7 2.1H21c1.3 0 2.4 1.1 2.4 2.4V17c-.1 1.3-1.2 2.4-2.5 2.4zM2.4 4.5c-.2 0-.4.2-.4.4V17c0 .2.2.4.4.4h18.5c.2 0 .4-.2.4-.4V4.9c0-.2-.2-.4-.4-.4h-1.8c-.3 0-.6-.1-.8-.4L16.7 2h-5.3L9.7 4.1c-.2.3-.5.4-.8.4H2.4z" fill="#fff"/></svg>