<svg width="24" height="20" viewBox="0 0 24 20" fill="none" xmlns="http://www.w3.org/2000/svg">
<path d="M6.40039 18.9C6.10039 18.9 5.90039 18.7 5.90039 18.4V3.59998C5.90039 3.29998 6.10039 3.09998 6.40039 3.09998C6.70039 3.09998 6.90039 3.29998 6.90039 3.59998V18.4C6.90039 18.6 6.70039 18.9 6.40039 18.9Z" fill="white"/>
<path d="M14 16.4C11 16.4 8.5 14 8.5 10.9C8.5 7.8 11 5.5 14 5.5C17 5.5 19.5 7.9 19.5 11C19.5 14.1 17 16.4 14 16.4ZM14 6.5C11.5 6.5 9.5 8.5 9.5 11C9.5 13.5 11.5 15.5 14 15.5C16.5 15.5 18.5 13.5 18.5 11C18.5 8.5 16.5 6.5 14 6.5Z" fill="white"/>
<path d="M20.9 19.4H2.4C1.1 19.4 0 18.3 0 17V4.9C0 3.6 1.1 2.5 2.4 2.5H8.4L10.1 0.4C10.3 0.1 10.6 0 10.9 0H17.2C17.5 0 17.8 0.1 18 0.4L19.7 2.5H21C22.3 2.5 23.4 3.6 23.4 4.9V17C23.3 18.3 22.2 19.4 20.9 19.4ZM2.4 4.5C2.2 4.5 2 4.7 2 4.9V17C2 17.2 2.2 17.4 2.4 17.4H20.9C21.1 17.4 21.3 17.2 21.3 17V4.9C21.3 4.7 21.1 4.5 20.9 4.5H19.1C18.8 4.5 18.5 4.4 18.3 4.1L16.7 2H11.4L9.7 4.1C9.5 4.4 9.2 4.5 8.9 4.5H2.4Z" fill="white"/>
</svg>
