<svg width="22" height="22" viewBox="0 0 22 22" fill="none" xmlns="http://www.w3.org/2000/svg">
<path d="M11.2644 4.88698V0H0V22H22V4.88698H11.2644ZM4.50577 19.5536H2.25288V17.1073H4.50577V19.5536ZM4.50577 14.6667H2.25288V12.2203H4.50577V14.6667ZM4.50577 9.77969H2.25288V7.33333H4.50577V9.77969ZM4.50577 4.88698H2.25288V2.44062H4.50577V4.88698ZM9.01154 19.5536H6.75865V17.1073H9.01154V19.5536ZM9.01154 14.6667H6.75865V12.2203H9.01154V14.6667ZM9.01154 9.77969H6.75865V7.33333H9.01154V9.77969ZM9.01154 4.88698H6.75865V2.44062H9.01154V4.88698ZM19.7471 19.5536H11.2644V17.1073H13.5173V14.6667H11.2644V12.2203H13.5173V9.77396H11.2644V7.33333H19.7471V19.5536ZM17.7587 9.77969H15.5058V12.226H17.7587V9.77969ZM17.7587 14.6667H15.5058V17.113H17.7587V14.6667Z" fill="white"/>
</svg>
