<svg width="22" height="22" fill="none" xmlns="http://www.w3.org/2000/svg"><path d="M11.264 4.887V0H0v22h22V4.887H11.264zM4.506 19.554H2.253v-2.447h2.253v2.447zm0-4.887H2.253V12.22h2.253v2.447zm0-4.887H2.253V7.333h2.253V9.78zm0-4.893H2.253V2.441h2.253v2.446zm4.506 14.667H6.759v-2.447h2.253v2.447zm0-4.887H6.759V12.22h2.253v2.447zm0-4.887H6.759V7.333h2.253V9.78zm0-4.893H6.759V2.441h2.253v2.446zm10.735 14.667h-8.483v-2.447h2.253v-2.44h-2.253V12.22h2.253V9.774h-2.253v-2.44h8.483v12.22zM17.76 9.78h-2.253v2.446h2.253V9.78zm0 4.887h-2.253v2.446h2.253v-2.446z" fill="#fff"/></svg>