<svg width="22" height="22" viewBox="0 0 22 22" fill="none" xmlns="http://www.w3.org/2000/svg">
<path d="M11.7841 1.19623L11.7841 9.55468C11.7841 10.1119 12.1556 10.4834 12.7128 10.4834L21.0713 10.4834C21.6285 10.4834 22 10.1119 22 9.55468L22 1.19624C22 0.639007 21.6285 0.26752 21.0713 0.26752L12.7128 0.267519C12.1556 0.267519 11.7841 0.639006 11.7841 1.19623ZM13.6416 8.62597L13.6416 2.12495L20.1426 2.12495L20.1426 8.62597L13.6416 8.62597Z" fill="white"/>
<path d="M0.267519 12.7128L0.267519 21.0713C0.267519 21.6285 0.639006 22 1.19624 22L9.55468 22C10.1119 22 10.4834 21.6285 10.4834 21.0713L10.4834 12.7128C10.4834 12.1556 10.1119 11.7841 9.55468 11.7841L1.19624 11.7841C0.639006 11.7841 0.267519 12.1556 0.267519 12.7128ZM2.12495 20.1426L2.12495 13.6416L8.62597 13.6416L8.62597 20.1426L2.12495 20.1426Z" fill="#D37700"/>
</svg>
