<svg width="27" height="28" viewBox="0 0 27 28" fill="none" xmlns="http://www.w3.org/2000/svg">
<path d="M10.3403 18.5085C9.99566 18.5085 9.76587 18.3898 9.53609 18.1525C9.07651 17.678 9.07651 16.9661 9.53609 16.4915L15.9701 9.84745C16.4297 9.37287 17.1191 9.37287 17.5786 9.84745C18.0382 10.322 18.0382 11.0339 17.5786 11.5085L11.1446 18.1525C10.9148 18.3898 10.5701 18.5085 10.3403 18.5085Z" fill="#D37700"/>
<path d="M16.7744 18.5085C16.4297 18.5085 16.1999 18.3898 15.9701 18.1525L9.53609 11.5085C9.07651 11.0339 9.07651 10.322 9.53609 9.84745C9.99566 9.37287 10.685 9.37287 11.1446 9.84745L17.5786 16.4915C18.0382 16.9661 18.0382 17.678 17.5786 18.1525C17.3489 18.3898 17.0042 18.5085 16.7744 18.5085Z" fill="#D37700"/>
<path d="M13.5574 28C9.99575 28 6.54894 26.5763 4.02128 23.9661C1.37872 21.2373 0 17.678 0 14C0 10.322 1.37872 6.76271 3.90638 4.15254C6.54894 1.42373 9.88085 0 13.5574 0C17.1192 0 20.566 1.42373 23.0936 4.0339C28.3787 9.49153 28.3787 18.3898 23.0936 23.8475C20.566 26.4576 17.1192 28 13.5574 28ZM13.5574 2.37288C10.5702 2.37288 7.69787 3.55932 5.62979 5.81356C3.44681 7.94915 2.29787 10.9153 2.29787 14C2.29787 17.0847 3.44681 20.0508 5.62979 22.1864C7.69787 24.322 10.5702 25.6271 13.5574 25.6271C16.5447 25.6271 19.417 24.4407 21.4851 22.1864C25.8511 17.678 25.8511 10.322 21.4851 5.81356C19.3021 3.55932 16.5447 2.37288 13.5574 2.37288Z" fill="#D37700"/>
</svg>
