<svg width="27" height="28" fill="none" xmlns="http://www.w3.org/2000/svg"><path d="M10.34 18.509c-.344 0-.574-.12-.804-.357a1.173 1.173 0 010-1.66l6.434-6.645c.46-.474 1.15-.474 1.609 0 .46.475.46 1.187 0 1.662l-6.434 6.643c-.23.238-.575.357-.805.357z" fill="#D37700"/><path d="M16.774 18.509c-.344 0-.574-.12-.804-.357l-6.434-6.644a1.173 1.173 0 010-1.66c.46-.475 1.149-.475 1.609 0l6.434 6.643c.46.475.46 1.187 0 1.662-.23.237-.575.356-.805.356z" fill="#D37700"/><path d="M13.557 28a13.258 13.258 0 01-9.536-4.034A14.253 14.253 0 010 14c0-3.678 1.379-7.237 3.906-9.847C6.55 1.423 9.881 0 13.557 0c3.562 0 7.009 1.424 9.537 4.034 5.285 5.458 5.285 14.356 0 19.814C20.566 26.457 17.119 28 13.557 28zm0-25.627c-2.987 0-5.86 1.186-7.927 3.44C3.447 7.95 2.298 10.916 2.298 14c0 3.085 1.149 6.05 3.332 8.186 2.068 2.136 4.94 3.441 7.927 3.441 2.988 0 5.86-1.186 7.928-3.44 4.366-4.509 4.366-11.865 0-16.373-2.183-2.255-4.94-3.441-7.928-3.441z" fill="#D37700"/></svg>