<svg width="38" height="34" viewBox="0 0 38 34" fill="none" xmlns="http://www.w3.org/2000/svg">
<g opacity="0.5">
<path d="M34.7621 29.3722C33.9799 29.3722 33.3438 30.0085 33.3438 30.7906C33.3438 31.5727 33.98 32.209 34.7621 32.209C35.5442 32.209 36.1805 31.5727 36.1805 30.7906C36.1805 30.0085 35.5442 29.3722 34.7621 29.3722ZM34.7621 31.2521C34.5077 31.2521 34.3007 31.0451 34.3007 30.7906C34.3007 30.5361 34.5077 30.3291 34.7621 30.3291C35.0165 30.3291 35.2236 30.5361 35.2236 30.7906C35.2236 31.0451 35.0166 31.2521 34.7621 31.2521Z" fill="white"/>
<path d="M16.5777 29.3722C15.7955 29.3722 15.1592 30.0085 15.1592 30.7906C15.1592 31.5727 15.7955 32.209 16.5777 32.209C17.3598 32.209 17.996 31.5727 17.996 30.7906C17.996 30.0085 17.3598 29.3722 16.5777 29.3722ZM16.5777 31.2521C16.3232 31.2521 16.1161 31.0451 16.1161 30.7906C16.1161 30.5361 16.3232 30.3291 16.5777 30.3291C16.8321 30.3291 17.0391 30.5361 17.0391 30.7906C17.0391 31.0451 16.8322 31.2521 16.5777 31.2521Z" fill="white"/>
<path d="M34.7625 27.6232H29.9689V26.6112H32.8331H33.79H35.241V18.4228L33.79 17.3088V6.33536H33.0555V3.2678H30.1441V6.33536H23.5868L19.8581 12.5754L8.09783 1.24973C7.99041 0.988571 7.82782 0.750537 7.6149 0.549823C7.21188 0.170006 6.6646 -0.028635 6.1127 0.00334208C6.05385 0.00685079 5.99388 0.0157821 5.92865 0.0309333L2.06261 0.934186C1.55616 1.05253 1.20258 1.49829 1.20258 2.01838V6.59413H2.1595V3.12513L2.62775 3.23454V8.40646H1.13823V13.7882H2.11676V14.3352C1.3005 14.5478 0.696289 15.2912 0.696289 16.1731C0.696289 17.2202 1.54827 18.072 2.59522 18.072C3.64217 18.072 4.49415 17.2201 4.49415 16.1731H3.53723C3.53723 16.6926 3.11467 17.1151 2.59522 17.1151C2.07569 17.1151 1.65321 16.6926 1.65321 16.1731C1.65321 15.6536 2.07577 15.2311 2.59522 15.2311H3.07368V13.7881H4.05221V8.40638H3.58459V3.45806L5.92921 4.00582C5.99388 4.02081 6.05385 4.02982 6.11238 4.03325C6.15145 4.03556 6.19061 4.03676 6.22968 4.03676C6.23845 4.03676 6.2473 4.0362 6.25616 4.03612L17.6078 16.6568V22.3399H15.5816V26.6112H17.6078H18.5647H21.4289V27.6232H16.578C14.8314 27.6232 13.4104 29.0441 13.4104 30.7907C13.4104 32.5374 14.8313 33.9583 16.578 33.9583H34.7625C36.509 33.9583 37.93 32.5374 37.93 30.7907C37.93 29.0441 36.5091 27.6232 34.7625 27.6232ZM33.79 18.5153L34.284 18.8945V25.6543H33.79V18.5153ZM17.6078 25.6542H16.5385V23.2968H17.6078V25.6542ZM31.101 4.22472H32.0986V4.90413H31.101V4.22472ZM31.101 5.86097H32.0986V6.33528H31.101V5.86097ZM3.09537 12.8313H2.09515V9.36338H3.09537V12.8313ZM6.1686 3.07801C6.16836 3.07801 6.16182 3.07753 6.14651 3.07394L2.28031 2.17069C2.20902 2.1541 2.15942 2.09142 2.15942 2.01838C2.15942 1.94533 2.20902 1.88265 2.28031 1.86607L6.14595 0.962814C6.16182 0.959146 6.16836 0.958667 6.16892 0.958588C6.19045 0.957312 6.2119 0.956754 6.23327 0.956754C6.50376 0.956754 6.75926 1.05811 6.95861 1.24606C7.17344 1.44861 7.29186 1.72285 7.29186 2.01838C7.29186 2.31391 7.17352 2.58806 6.95861 2.79061C6.74339 2.99324 6.46325 3.09595 6.1686 3.07801ZM18.0033 15.6656L7.2787 3.74203C7.39864 3.6693 7.51163 3.58422 7.6149 3.48693C7.86912 3.24722 8.05229 2.95472 8.15445 2.63272L19.3282 13.3935L18.0033 15.6656ZM18.5647 25.6542V25.0375H21.128V24.0806H18.5647V22.3399V16.6054L24.1297 7.2922H30.1441H32.8331V16.5741V24.0805H22.3313V25.0374H32.8331V25.6541H29.9689H21.4289H18.5647V25.6542ZM29.012 26.6111V27.6231H22.3858V26.6111H29.012ZM16.578 33.0013C15.359 33.0013 14.3673 32.0096 14.3673 30.7907C14.3673 29.5717 15.359 28.58 16.578 28.58C17.7969 28.58 18.7886 29.5717 18.7886 30.7907C18.7886 32.0096 17.7969 33.0013 16.578 33.0013ZM18.8435 33.0013C18.9902 32.851 19.1219 32.6862 19.2367 32.5092H32.1037C32.2184 32.6862 32.3502 32.851 32.4969 33.0013H18.8435ZM20.2857 31.5523H19.6524C19.7128 31.3081 19.7455 31.0532 19.7455 30.7907C19.7455 30.5133 19.7094 30.2443 19.6421 29.9878H20.2857C20.1667 30.2231 20.0991 30.4887 20.0991 30.7701C20.0991 31.0514 20.1667 31.317 20.2857 31.5523ZM21.056 30.77C21.056 30.3387 21.4069 29.9877 21.8383 29.9877C22.2696 29.9877 22.6205 30.3386 22.6205 30.77C22.6205 31.2014 22.2697 31.5523 21.8383 31.5523C21.407 31.5523 21.056 31.2014 21.056 30.77ZM23.3909 29.9878H24.1177C23.9986 30.2231 23.9311 30.4887 23.9311 30.7701C23.9311 31.0514 23.9986 31.317 24.1177 31.5524H23.3909C23.5099 31.317 23.5774 31.0514 23.5774 30.7701C23.5774 30.4887 23.5099 30.2231 23.3909 29.9878ZM24.888 30.77C24.888 30.3387 25.2389 29.9877 25.6702 29.9877C26.1016 29.9877 26.4525 30.3386 26.4525 30.77C26.4525 31.2014 26.1016 31.5523 25.6702 31.5523C25.239 31.5523 24.888 31.2014 24.888 30.77ZM27.2228 29.9878H27.8998C27.7807 30.2231 27.7132 30.4887 27.7132 30.7701C27.7132 31.0514 27.7807 31.317 27.8998 31.5524H27.2228C27.3419 31.317 27.4094 31.0514 27.4094 30.7701C27.4094 30.4887 27.3419 30.2231 27.2228 29.9878ZM28.6701 30.77C28.6701 30.3387 29.021 29.9877 29.4524 29.9877C29.8838 29.9877 30.2347 30.3386 30.2347 30.77C30.2347 31.2014 29.8838 31.5523 29.4524 31.5523C29.021 31.5523 28.6701 31.2014 28.6701 30.77ZM31.0049 29.9878H31.6983C31.631 30.2443 31.5948 30.5134 31.5948 30.7907C31.5948 31.0532 31.6275 31.3081 31.688 31.5523H31.0049C31.1239 31.317 31.1915 31.0513 31.1915 30.77C31.1915 30.4887 31.1239 30.2231 31.0049 29.9878ZM32.1302 29.0309H19.2102C19.1019 28.8694 18.9789 28.7188 18.8435 28.5801H21.4289H29.9689H32.4969C32.3616 28.7188 32.2386 28.8693 32.1302 29.0309ZM34.7625 33.0013C33.5435 33.0013 32.5518 32.0096 32.5518 30.7907C32.5518 29.5717 33.5435 28.58 34.7625 28.58C35.9814 28.58 36.9731 29.5717 36.9731 30.7907C36.9731 32.0096 35.9814 33.0013 34.7625 33.0013Z" fill="white"/>
<path d="M27.5234 20.2265H31.3939V17.5413H27.5234V20.2265ZM28.4804 18.4982H30.437V19.2696H28.4804V18.4982Z" fill="white"/>
<path d="M31.3928 8.06323H24.795L19.5488 16.9536H31.3928V8.06323ZM26.6524 15.9967H21.2246L25.3415 9.02023H26.6524V15.9967ZM30.4359 15.9967H27.6094V9.02023H30.4359V15.9967Z" fill="white"/>
</g>
</svg>
