<svg width="38" height="34" fill="none" xmlns="http://www.w3.org/2000/svg"><g opacity=".5" fill="#fff"><path d="M34.762 29.372a1.42 1.42 0 00-1.418 1.419 1.42 1.42 0 001.418 1.418 1.42 1.42 0 001.419-1.418 1.42 1.42 0 00-1.419-1.419zm0 1.88a.462.462 0 11.001-.924.462.462 0 010 .924zm-18.184-1.88a1.42 1.42 0 00-1.419 1.419 1.42 1.42 0 001.419 1.418 1.42 1.42 0 001.418-1.418 1.42 1.42 0 00-1.418-1.419zm0 1.88a.462.462 0 110-.924.462.462 0 010 .924z"/><path d="M34.763 27.623h-4.794v-1.012h5.272v-8.188l-1.451-1.114V6.335h-.734V3.268h-2.912v3.067h-6.557l-3.729 6.24L8.098 1.25A2.027 2.027 0 006.113.004a1.093 1.093 0 00-.184.027L2.063.934c-.507.119-.86.564-.86 1.084v4.576h.956V3.125l.469.11v5.171h-1.49v5.382h.979v.547a1.902 1.902 0 00-1.42 1.838 1.9 1.9 0 001.898 1.899 1.901 1.901 0 001.9-1.899h-.958a.943.943 0 01-1.884 0c0-.52.423-.942.942-.942h.479v-1.443h.978V8.406h-.467V3.458l2.344.548a1.088 1.088 0 00.3.03h.027l11.352 12.62v5.684h-2.026v4.271h5.847v1.012h-4.851a3.171 3.171 0 00-3.168 3.168 3.171 3.171 0 003.168 3.167h18.185a3.171 3.171 0 003.167-3.167 3.171 3.171 0 00-3.167-3.168zm-.973-9.108l.494.38v6.76h-.494v-7.14zm-16.182 7.14h-1.07v-2.358h1.07v2.357zM31.1 4.224h.998v.68H31.1v-.68zm0 1.636h.998v.474H31.1V5.86zM3.094 12.83h-1V9.363h1v3.468zM6.17 3.078s-.007 0-.022-.004L2.28 2.17a.156.156 0 01-.12-.153c0-.073.049-.135.12-.152L6.146.963c.016-.004.022-.004.023-.004.021-.002.043-.002.064-.002.27 0 .526.101.726.29.214.202.333.476.333.771 0 .296-.118.57-.333.773a1.049 1.049 0 01-.79.287zm11.834 12.588L7.28 3.742a2.008 2.008 0 00.875-1.11l11.174 10.761-1.325 2.273zm.562 9.988v-.616h2.563v-.957h-2.563v-7.476l5.565-9.313h8.704V24.08H22.33v.957h10.502v.617H18.565zm10.447.957v1.012h-6.626v-1.012h6.626zm-12.434 6.39a2.213 2.213 0 01-2.21-2.21c0-1.22.991-2.211 2.21-2.211 1.219 0 2.21.992 2.21 2.21 0 1.22-.991 2.211-2.21 2.211zm2.265 0c.147-.15.279-.315.394-.492h12.867c.114.177.246.342.393.492H18.843zm1.443-1.449h-.634a3.168 3.168 0 00-.01-1.564h.644a1.728 1.728 0 000 1.564zm.77-.782a.783.783 0 011.564 0 .783.783 0 01-1.564 0zm2.335-.782h.727a1.727 1.727 0 000 1.564h-.727a1.729 1.729 0 000-1.564zm1.497.782a.783.783 0 011.564 0 .783.783 0 01-1.564 0zm2.335-.782h.677a1.727 1.727 0 000 1.564h-.677a1.728 1.728 0 000-1.564zm1.447.782a.783.783 0 011.565 0 .783.783 0 01-1.565 0zm2.335-.782h.693a3.16 3.16 0 00-.01 1.564h-.683a1.729 1.729 0 000-1.564zm1.125-.957H19.21a3.185 3.185 0 00-.367-.45h13.654a3.19 3.19 0 00-.367.45zM34.763 33a2.213 2.213 0 01-2.211-2.21c0-1.22.992-2.211 2.21-2.211 1.22 0 2.211.992 2.211 2.21 0 1.22-.992 2.211-2.21 2.211z"/><path d="M27.523 20.227h3.87V17.54h-3.87v2.686zm.957-1.729h1.957v.772H28.48v-.772zm2.913-10.435h-6.598l-5.246 8.89h11.844v-8.89zm-4.74 7.934h-5.428L25.34 9.02h1.311v6.977zm3.783 0h-2.827V9.02h2.827v6.977z"/></g></svg>