<svg width="21" height="21" fill="none" xmlns="http://www.w3.org/2000/svg"><path d="M10.039 11.173c-.175 0-.35-.087-.524-.175L4.801 7.594c-.349-.349-.436-.873-.174-1.222.262-.436.873-.524 1.222-.262l4.19 3.055 4.19-3.055c.349-.262.96-.174 1.222.175.261.349.174.96-.175 1.222l-4.713 3.404c-.175.175-.35.262-.524.262z" fill="#fff"/><path d="M10.038 11.173c-.524 0-.873-.35-.873-.873V.873c0-.524.35-.873.873-.873.524 0 .873.35.873.873V10.3c0 .436-.35.873-.873.873zm9.165 9.427H.873c-.524 0-.873-.35-.873-.873V13.53c0-.524.35-.873.873-.873h5.674c.523 0 .872.349.872.873v1.222h5.238V13.53c0-.524.349-.873.873-.873h5.673c.524 0 .873.349.873.873v6.197a.875.875 0 01-.873.873zM1.746 18.854H18.33v-4.451h-3.928v.349a1.75 1.75 0 01-1.746 1.745H7.419a1.75 1.75 0 01-1.745-1.745v-.35H1.746v4.452z" fill="#fff"/><path d="M.873 14.402a.943.943 0 01-.611-.262.844.844 0 010-1.222l3.491-3.666a.844.844 0 011.222 0c.35.35.35.873 0 1.222L1.484 14.14a.792.792 0 01-.611.262zm18.33 0a.792.792 0 01-.61-.262L15.1 10.474a.844.844 0 010-1.222.844.844 0 011.222 0l3.491 3.666c.35.35.35.873 0 1.222a.792.792 0 01-.61.262z" fill="#fff"/></svg>