<svg width="21" height="22" viewBox="0 0 21 22" fill="none" xmlns="http://www.w3.org/2000/svg">
<path d="M10.5793 11.7176C10.4074 11.7176 10.2354 11.6261 10.0634 11.5345L5.41965 7.96442C5.07567 7.59825 4.98968 7.049 5.24766 6.68284C5.50564 6.22513 6.10761 6.13359 6.45159 6.40821L10.5793 9.61216L14.7071 6.40821C15.0511 6.13359 15.653 6.22513 15.911 6.5913C16.169 6.95746 16.083 7.59825 15.739 7.87288L11.0953 11.443C10.9233 11.6261 10.7513 11.7176 10.5793 11.7176Z" fill="black"/>
<path d="M10.5777 11.7173C10.0618 11.7173 9.71777 11.3511 9.71777 10.8019V0.915412C9.71777 0.366165 10.0618 0 10.5777 0C11.0937 0 11.4377 0.366165 11.4377 0.915412V10.8019C11.4377 11.2596 11.0937 11.7173 10.5777 11.7173Z" fill="black"/>
<path d="M19.6074 21.6036H1.54843C1.03246 21.6036 0.688477 21.2375 0.688477 20.6882V14.1888C0.688477 13.6396 1.03246 13.2734 1.54843 13.2734H7.1381C7.65407 13.2734 7.99805 13.6396 7.99805 14.1888V15.4704H13.1577V14.1888C13.1577 13.6396 13.5017 13.2734 14.0177 13.2734H19.6074C20.1233 13.2734 20.4673 13.6396 20.4673 14.1888V20.6882C20.4673 21.1459 20.1233 21.6036 19.6074 21.6036ZM2.40838 19.7728H18.7474V15.1042H14.8776V15.4704C14.8776 16.4774 14.1037 17.3012 13.1577 17.3012H7.99805C7.0521 17.3012 6.27815 16.4774 6.27815 15.4704V15.1042H2.40838V19.7728Z" fill="black"/>
<path d="M1.54843 15.1038C1.37644 15.1038 1.11845 15.0122 0.946462 14.8291C0.602482 14.463 0.602482 13.9137 0.946462 13.5476L4.38626 9.70285C4.73024 9.33668 5.24621 9.33668 5.59019 9.70285C5.93417 10.069 5.93417 10.6183 5.59019 10.9844L2.15039 14.8291C1.9784 15.0122 1.80641 15.1038 1.54843 15.1038Z" fill="black"/>
<path d="M19.6074 15.1038C19.3494 15.1038 19.1774 15.0122 19.0054 14.8291L15.5656 10.9844C15.2216 10.6183 15.2216 10.069 15.5656 9.70285C15.9096 9.33668 16.4256 9.33668 16.7695 9.70285L20.2093 13.5476C20.5533 13.9137 20.5533 14.463 20.2093 14.8291C20.0373 15.0122 19.8654 15.1038 19.6074 15.1038Z" fill="black"/>
</svg>
