<svg width="21" height="21" viewBox="0 0 21 21" fill="none" xmlns="http://www.w3.org/2000/svg">
<path d="M10.0387 11.173C9.86416 11.173 9.68958 11.0857 9.515 10.9984L4.80145 7.59417C4.45229 7.24501 4.365 6.72128 4.62687 6.37213C4.88873 5.93569 5.49975 5.8484 5.8489 6.11027L10.0387 9.16535L14.2286 6.11027C14.5777 5.8484 15.1887 5.93569 15.4506 6.28484C15.7125 6.634 15.6252 7.24501 15.276 7.50688L10.5625 10.9111C10.3879 11.0857 10.2133 11.173 10.0387 11.173Z" fill="white"/>
<path d="M10.0379 11.1729C9.51419 11.1729 9.16504 10.8237 9.16504 10.3V0.872881C9.16504 0.349153 9.51419 0 10.0379 0C10.5616 0 10.9108 0.349153 10.9108 0.872881V10.3C10.9108 10.7364 10.5616 11.1729 10.0379 11.1729Z" fill="white"/>
<path d="M19.2034 20.6H0.872881C0.349153 20.6 0 20.2508 0 19.7271V13.5296C0 13.0059 0.349153 12.6567 0.872881 12.6567H6.54661C7.07034 12.6567 7.41949 13.0059 7.41949 13.5296V14.7517H12.6568V13.5296C12.6568 13.0059 13.0059 12.6567 13.5297 12.6567H19.2034C19.7271 12.6567 20.0763 13.0059 20.0763 13.5296V19.7271C20.0763 20.1635 19.7271 20.6 19.2034 20.6ZM1.74576 18.8542H18.3305V14.4025H14.4025V14.7517C14.4025 15.7118 13.6169 16.4974 12.6568 16.4974H7.41949C6.45932 16.4974 5.67373 15.7118 5.67373 14.7517V14.4025H1.74576V18.8542Z" fill="white"/>
<path d="M0.872881 14.4021C0.698305 14.4021 0.436441 14.3148 0.261864 14.1402C-0.0872881 13.7911 -0.0872881 13.2674 0.261864 12.9182L3.75339 9.2521C4.10254 8.90295 4.62627 8.90295 4.97542 9.2521C5.32458 9.60125 5.32458 10.125 4.97542 10.4741L1.4839 14.1402C1.30932 14.3148 1.13475 14.4021 0.872881 14.4021Z" fill="white"/>
<path d="M19.2033 14.4021C18.9414 14.4021 18.7668 14.3148 18.5923 14.1402L15.1007 10.4741C14.7516 10.125 14.7516 9.60125 15.1007 9.2521C15.4499 8.90295 15.9736 8.90295 16.3228 9.2521L19.8143 12.9182C20.1634 13.2674 20.1634 13.7911 19.8143 14.1402C19.6397 14.3148 19.4651 14.4021 19.2033 14.4021Z" fill="white"/>
</svg>
