<svg width="21" height="22" fill="none" xmlns="http://www.w3.org/2000/svg"><path d="M10.58 11.718c-.173 0-.345-.092-.517-.184L5.42 7.964c-.344-.366-.43-.915-.172-1.281.258-.458.86-.55 1.204-.275l4.127 3.204 4.128-3.204c.344-.274.946-.183 1.204.183s.172 1.007-.172 1.282l-4.644 3.57c-.172.183-.344.275-.516.275z" fill="#000"/><path d="M10.578 11.717c-.516 0-.86-.366-.86-.915V.915c0-.549.344-.915.86-.915s.86.366.86.915v9.887c0 .458-.344.915-.86.915zm9.029 9.887H1.548c-.516 0-.86-.366-.86-.916v-6.5c0-.548.344-.915.86-.915h5.59c.516 0 .86.367.86.916v1.281h5.16v-1.28c0-.55.344-.916.86-.916h5.59c.515 0 .86.367.86.916v6.5c0 .457-.345.915-.86.915zM2.408 19.773h16.34v-4.669h-3.87v.366c0 1.007-.774 1.831-1.72 1.831h-5.16c-.946 0-1.72-.824-1.72-1.83v-.367h-3.87v4.669z" fill="#000"/><path d="M1.548 15.104a.901.901 0 01-.602-.275.925.925 0 010-1.281l3.44-3.845c.344-.366.86-.366 1.204 0a.925.925 0 010 1.281L2.15 14.83c-.172.183-.344.275-.602.275zm18.059 0c-.258 0-.43-.092-.602-.275l-3.44-3.845a.925.925 0 010-1.281c.345-.366.86-.366 1.205 0l3.44 3.845a.925.925 0 010 1.281c-.173.183-.345.275-.603.275z" fill="#000"/></svg>