<svg width="36" height="36" viewBox="0 0 36 36" fill="none" xmlns="http://www.w3.org/2000/svg">
<g opacity="0.5">
<path fill-rule="evenodd" clip-rule="evenodd" d="M16.6899 13.6742C16.0916 14.2726 16.0916 15.2427 16.6899 15.841C17.2883 16.4394 18.2584 16.4394 18.8568 15.841C19.4551 15.2427 19.4551 14.2726 18.8568 13.6742C18.2584 13.0759 17.2883 13.0759 16.6899 13.6742ZM15.8232 16.7078C14.7462 15.6307 14.7462 13.8845 15.8232 12.8075C16.9002 11.7305 18.6465 11.7305 19.7235 12.8075C20.8005 13.8845 20.8005 15.6307 19.7235 16.7078C18.6465 17.7848 16.9002 17.7848 15.8232 16.7078Z" fill="white"/>
<path fill-rule="evenodd" clip-rule="evenodd" d="M0 35.2888C0 34.9503 0.274391 34.6759 0.61287 34.6759H34.9336C35.272 34.6759 35.5464 34.9503 35.5464 35.2888C35.5464 35.6273 35.272 35.9016 34.9336 35.9016H0.61287C0.274391 35.9016 0 35.6273 0 35.2888Z" fill="white"/>
<path fill-rule="evenodd" clip-rule="evenodd" d="M0 0.968064C0 0.629585 0.274391 0.355194 0.61287 0.355194H34.9336C35.272 0.355194 35.5464 0.629585 35.5464 0.968064V7.09676C35.5464 7.43524 35.272 7.70963 34.9336 7.70963H0.61287C0.274391 7.70963 0 7.43524 0 7.09676V0.968064ZM1.22574 1.58093V6.48389H34.3207V1.58093H1.22574Z" fill="white"/>
<path fill-rule="evenodd" clip-rule="evenodd" d="M15.3212 19.3542C14.3057 19.3542 13.4826 20.1773 13.4826 21.1928V26.0957C13.4826 26.4342 13.757 26.7086 14.0954 26.7086H14.0955C14.434 26.7086 14.7083 26.4342 14.7083 26.0957L14.7083 23.0314C14.7083 22.6929 14.9827 22.4185 15.3212 22.4185C15.6597 22.4185 15.9341 22.6929 15.9341 23.0314L15.9341 26.0957C15.9341 27.1111 15.1109 27.9343 14.0955 27.9343H14.0954C13.08 27.9343 12.2568 27.1112 12.2568 26.0957V21.1928C12.2568 19.5004 13.6288 18.1284 15.3212 18.1284H20.2241C21.9165 18.1284 23.2885 19.5004 23.2885 21.1928V26.0957C23.2885 27.1112 22.4653 27.9343 21.4499 27.9343C20.4345 27.9343 19.6113 27.1112 19.6113 26.0957L19.6113 23.0314C19.6113 22.6929 19.8857 22.4185 20.2241 22.4185C20.5626 22.4185 20.837 22.6929 20.837 23.0314L20.837 26.0957C20.837 26.4342 21.1114 26.7086 21.4499 26.7086C21.7884 26.7086 22.0627 26.4342 22.0627 26.0957V21.1928C22.0627 20.1773 21.2396 19.3542 20.2241 19.3542H15.3212Z" fill="white"/>
<path fill-rule="evenodd" clip-rule="evenodd" d="M15.3219 25.4828C15.6603 25.4828 15.9347 25.7572 15.9347 26.0957V34.6759H17.1605V27.3215C17.1605 26.983 17.4349 26.7086 17.7733 26.7086C18.1118 26.7086 18.3862 26.983 18.3862 27.3215V35.2888C18.3862 35.6272 18.1118 35.9016 17.7733 35.9016H15.3219C14.9834 35.9016 14.709 35.6272 14.709 35.2888V26.0957C14.709 25.7572 14.9834 25.4828 15.3219 25.4828Z" fill="white"/>
<path fill-rule="evenodd" clip-rule="evenodd" d="M20.2245 25.4828C20.563 25.4828 20.8374 25.7572 20.8374 26.0957V35.2888C20.8374 35.6272 20.563 35.9016 20.2245 35.9016H17.773C17.4345 35.9016 17.1602 35.6272 17.1602 35.2888V27.3215C17.1602 26.983 17.4345 26.7086 17.773 26.7086C18.1115 26.7086 18.3859 26.983 18.3859 27.3215V34.6759H19.6116V26.0957C19.6116 25.7572 19.886 25.4828 20.2245 25.4828Z" fill="white"/>
<path fill-rule="evenodd" clip-rule="evenodd" d="M26.3535 7.09676C26.3535 6.75828 26.6279 6.48389 26.9664 6.48389H32.4822C32.8207 6.48389 33.0951 6.75828 33.0951 7.09676V35.2888C33.0951 35.6272 32.8207 35.9016 32.4822 35.9016H26.9664C26.6279 35.9016 26.3535 35.6272 26.3535 35.2888V7.09676ZM27.5793 7.70963V34.6759H31.8693V7.70963H27.5793Z" fill="white"/>
<path fill-rule="evenodd" clip-rule="evenodd" d="M2.45117 7.09676C2.45117 6.75828 2.72556 6.48389 3.06404 6.48389H8.57987C8.91835 6.48389 9.19274 6.75828 9.19274 7.09676V35.2888C9.19274 35.6272 8.91835 35.9016 8.57987 35.9016H3.06404C2.72556 35.9016 2.45117 35.6272 2.45117 35.2888V7.09676ZM3.67691 7.70963V34.6759H7.967V7.70963H3.67691Z" fill="white"/>
<path fill-rule="evenodd" clip-rule="evenodd" d="M15.7554 2.98618C15.9947 3.22552 15.9947 3.61356 15.7554 3.85291L14.5296 5.07864C14.2903 5.31798 13.9022 5.31798 13.6629 5.07864C13.4236 4.8393 13.4236 4.45126 13.6629 4.21192L14.8886 2.98618C15.128 2.74684 15.516 2.74684 15.7554 2.98618Z" fill="white"/>
<path fill-rule="evenodd" clip-rule="evenodd" d="M14.8885 2.98618C15.1278 2.74684 15.5159 2.74684 15.7552 2.98618L16.981 4.21192C17.2203 4.45126 17.2203 4.8393 16.981 5.07864C16.7416 5.31798 16.3536 5.31798 16.1142 5.07864L14.8885 3.85291C14.6491 3.61356 14.6491 3.22552 14.8885 2.98618Z" fill="white"/>
<path fill-rule="evenodd" clip-rule="evenodd" d="M18.5652 2.98618C18.8046 2.74684 19.1926 2.74684 19.432 2.98618L20.6577 4.21192C20.8971 4.45126 20.8971 4.8393 20.6577 5.07864C20.4184 5.31798 20.0303 5.31798 19.791 5.07864L18.5652 3.85291C18.3259 3.61356 18.3259 3.22552 18.5652 2.98618Z" fill="white"/>
<path fill-rule="evenodd" clip-rule="evenodd" d="M21.8843 2.98618C22.1236 3.22552 22.1236 3.61356 21.8843 3.85291L20.6585 5.07864C20.4192 5.31798 20.0312 5.31798 19.7918 5.07864C19.5525 4.8393 19.5525 4.45126 19.7918 4.21192L21.0175 2.98618C21.2569 2.74684 21.6449 2.74684 21.8843 2.98618Z" fill="white"/>
</g>
</svg>
