<svg width="36" height="36" fill="none" xmlns="http://www.w3.org/2000/svg"><g opacity=".5" fill-rule="evenodd" clip-rule="evenodd" fill="#fff"><path d="M16.69 13.674a1.532 1.532 0 102.167 2.167 1.532 1.532 0 00-2.167-2.167zm-.867 3.034a2.758 2.758 0 113.9-3.9 2.758 2.758 0 01-3.9 3.9zM0 35.289c0-.339.274-.613.613-.613h34.32a.613.613 0 010 1.226H.614A.613.613 0 010 35.289zM0 .968C0 .63.274.355.613.355h34.32c.339 0 .613.275.613.613v6.129a.613.613 0 01-.612.613H.613A.613.613 0 010 7.097V.968zm1.226.613v4.903H34.32V1.58H1.226zm14.095 17.773a1.839 1.839 0 00-1.838 1.839v4.903a.613.613 0 101.226 0V23.03a.613.613 0 111.225 0v3.065a1.839 1.839 0 11-3.677 0v-4.903a3.064 3.064 0 013.064-3.065h4.903a3.064 3.064 0 013.064 3.065v4.903a1.839 1.839 0 11-3.677 0V23.03a.613.613 0 111.226 0v3.065a.613.613 0 101.226 0v-4.903a1.839 1.839 0 00-1.839-1.839h-4.903z"/><path d="M15.322 25.483c.338 0 .613.274.613.613v8.58h1.225V27.32a.613.613 0 111.226 0v7.968a.613.613 0 01-.613.613h-2.451a.613.613 0 01-.613-.613v-9.193c0-.339.274-.613.613-.613z"/><path d="M20.224 25.483c.339 0 .613.274.613.613v9.193a.613.613 0 01-.613.613h-2.451a.613.613 0 01-.613-.613V27.32a.613.613 0 111.226 0v7.355h1.226v-8.58c0-.339.274-.613.613-.613zm6.13-18.386c0-.339.274-.613.612-.613h5.516c.339 0 .613.274.613.613v28.192a.613.613 0 01-.613.613h-5.516a.613.613 0 01-.613-.613V7.097zm1.225.613v26.966h4.29V7.71h-4.29zM2.451 7.097c0-.339.275-.613.613-.613H8.58c.338 0 .613.274.613.613v28.192a.613.613 0 01-.613.613H3.064a.613.613 0 01-.613-.613V7.097zm1.226.613v26.966h4.29V7.71h-4.29zm12.078-4.724c.24.24.24.628 0 .867L14.53 5.079a.613.613 0 11-.867-.867l1.226-1.226a.61.61 0 01.866 0z"/><path d="M14.889 2.986a.61.61 0 01.866 0l1.226 1.226a.613.613 0 01-.867.867l-1.226-1.226a.613.613 0 010-.867zm3.676 0c.24-.24.628-.24.867 0l1.226 1.226a.613.613 0 11-.867.867l-1.226-1.226a.613.613 0 010-.867z"/><path d="M21.884 2.986c.24.24.24.628 0 .867l-1.226 1.226a.613.613 0 11-.866-.867l1.225-1.226c.24-.24.628-.24.867 0z"/></g></svg>