<svg width="169" height="177" fill="none" xmlns="http://www.w3.org/2000/svg"><path d="M33.584 119.15v-14.786H5.18V90.972l20.568-71.144H40.86L19.452 90.972h14.132V62.654h14.272v28.318h6.856v13.392h-6.856v14.786H33.584zm27.154-78.816c0-3.348.56-6.324 1.68-8.928 1.212-2.604 2.798-4.836 4.756-6.696a19.436 19.436 0 016.717-4.185 22.062 22.062 0 018.115-1.534c2.799 0 5.457.511 7.976 1.534 2.612.93 4.897 2.325 6.856 4.185 1.959 1.86 3.498 4.092 4.617 6.696 1.213 2.604 1.819 5.58 1.819 8.928v58.31c0 3.348-.606 6.324-1.819 8.928-1.119 2.604-2.658 4.836-4.617 6.696-1.96 1.86-4.244 3.301-6.856 4.324-2.519.93-5.177 1.395-7.976 1.395-2.798 0-5.503-.465-8.115-1.395a21.314 21.314 0 01-6.717-4.324c-1.958-1.86-3.544-4.092-4.757-6.696-1.12-2.604-1.679-5.58-1.679-8.928v-58.31zm14.272 58.31c0 2.046.653 3.767 1.959 5.162 1.306 1.302 2.985 1.953 5.037 1.953s3.731-.651 5.037-1.953c1.306-1.395 1.96-3.116 1.96-5.162v-58.31c0-2.046-.654-3.72-1.96-5.022-1.306-1.395-2.985-2.092-5.037-2.092s-3.731.697-5.037 2.092c-1.306 1.302-1.959 2.976-1.959 5.022v58.31zm62.694 20.506v-14.786h-28.403V90.972l20.568-71.144h15.111l-21.408 71.144h14.132V62.654h14.272v28.318h6.857v13.392h-6.857v14.786h-14.272z" fill="#fff"/><path fill-rule="evenodd" clip-rule="evenodd" d="M.092 129.273v-2.621h168.137v2.621H.092zm0 4.367v-2.62h168.137v2.62H.092zM83.945 4.367l84.383 6.121-.19 2.614-84.192-6.108L.19 13.102 0 10.488l83.945-6.12z" fill="#D37700"/><path fill-rule="evenodd" clip-rule="evenodd" d="M83.945 0l84.383 6.121-.19 2.613-84.192-6.107L.19 8.734 0 6.121 83.945 0z" fill="#D37700"/><path d="M8.68 152.428v.15h7.4v2.18h2.508v-4.264h-1.455v-12.328h-2.859v12.328H11.54v-12.328H8.68v14.262zm36.686-.264v.15h8.16v-2.284h-5.222v-3.765h4.551v-2.167h-4.551v-3.765h5.222v-2.167h-8.161v13.998zm35.81 0v.15h2.73v-6.166h2.701v6.166h2.73v-14.148h-2.73v5.932h-2.701v-5.932h-2.73v13.998zm37.68 0v.15h2.672v-11.981h2.745v-2.167h-8.161v2.167h2.744v11.831zm33.068 0v.15h2.723v-5.407h1.085c.914 0 1.665-.124 2.245-.383v.001l.003-.002a3.543 3.543 0 001.387-1.116c.297-.392.489-.814.573-1.265.097-.442.145-.978.145-1.606 0-.836-.079-1.509-.245-2.011a3.007 3.007 0 00-.898-1.349 3.64 3.64 0 00-1.436-.791c-.523-.147-1.123-.219-1.798-.219h-3.784v13.998zm5.344-8.017h0l-.002.003c-.107.176-.279.32-.525.427-.242.105-.598.163-1.081.163h-1.013v-4.407h1.108c.467 0 .806.058 1.03.161.228.105.393.254.503.444.113.197.179.433.194.712h0c.015.282.023.584.023.906 0 .346-.015.658-.046.936h-.001v.009a1.29 1.29 0 01-.19.646z" fill="#fff" stroke="#fff" stroke-width=".3"/><path d="M8.83 174.339v-13.625h2.43v5.836h3.001v-5.836h2.43v13.625h-2.43v-6.066H11.26v6.066H8.83z" fill="#fff"/><path fill-rule="evenodd" clip-rule="evenodd" d="M8.568 174.555v-14.057h2.954v5.837H14v-5.837h2.953v14.057H14v-6.067h-2.478v6.067H8.568zm2.692-6.282h3.002v6.066h2.43v-13.625h-2.43v5.836H11.26v-5.836H8.83v13.625h2.43v-6.066z" fill="#fff"/><path d="M21.057 174.339v-13.625h6.987v1.837h-4.643v3.999h4.046v1.838H23.4v3.999h4.643v1.952h-6.987z" fill="#fff"/><path fill-rule="evenodd" clip-rule="evenodd" d="M20.795 174.555v-14.057h7.511v2.268h-4.643v3.569h4.046v2.268h-4.046v3.569h4.643v2.383h-7.511zm2.606-2.168v-3.999h4.046v-1.838H23.4v-3.999h4.643v-1.837h-6.987v13.625h6.988v-1.952H23.4z" fill="#fff"/><path d="M33.538 174.38v2.111h-2v-3.839h1.181a6.64 6.64 0 00.387-.825c.121-.32.227-.653.318-.998.091-.346.175-.698.25-1.056.076-.371.137-.729.182-1.075.03-.269.053-.569.068-.902a21.825 21.825 0 00.091-2.073c.016-.358.023-.697.023-1.017v-3.992H40.7v11.938h1.318v3.839h-2v-2.111h-6.48zm2.683-11.939v2.246c0 .179-.008.441-.023.787a36.25 36.25 0 01-.068 1.094l-.091 1.209c-.03.397-.068.748-.114 1.056a8.6 8.6 0 01-.159.882c-.06.32-.136.653-.227.999-.091.345-.19.691-.296 1.036a6.06 6.06 0 01-.364.902h3.502v-10.211h-2.16z" fill="#fff"/><path fill-rule="evenodd" clip-rule="evenodd" d="M33.802 176.706h-2.525v-4.269h1.275a6.9 6.9 0 00.306-.675 9.78 9.78 0 00.312-.979c.09-.342.173-.691.248-1.046.075-.367.135-.72.18-1.06.03-.264.052-.56.067-.889v-.008a21.525 21.525 0 00.09-2.057v-.007c.016-.356.023-.693.023-1.01v-4.208h7.186v11.939h1.319v4.269h-2.525v-2.111h-5.956v2.111zm6.218-2.326v2.111h2v-3.839h-1.318v-11.938H34.04v3.992c0 .32-.007.659-.022 1.017a21.965 21.965 0 01-.091 2.073c-.016.333-.038.633-.069.902-.045.346-.106.704-.181 1.075-.076.358-.16.71-.25 1.056-.091.345-.198.678-.319.998-.121.307-.25.582-.386.825h-1.183v3.839h2.001v-2.111h6.48zm-3.558-8.898c-.015.334-.038.701-.068 1.099l-.091 1.209c-.03.399-.069.754-.115 1.066a8.807 8.807 0 01-.161.896c-.062.323-.138.659-.23 1.007-.091.348-.19.696-.298 1.044v.002c-.072.224-.15.434-.236.632h2.858v-9.781h-1.636v2.031c0 .183-.008.449-.023.795zm-.239-3.041h2.16v10.211h-3.501a6.34 6.34 0 00.364-.902c.105-.345.204-.691.295-1.036.09-.346.167-.679.227-.999a8.57 8.57 0 00.16-.882c.045-.308.083-.659.113-1.056.03-.41.06-.813.091-1.209.03-.397.053-.762.068-1.094.015-.346.023-.608.023-.787v-2.246z" fill="#fff"/><path d="M47.26 174.339v-13.625h3.55c.777 0 1.436.095 1.976.287.556.191 1.009.446 1.358.765.35.319.596.689.739 1.11.158.408.238.836.238 1.282v.498c0 .37-.04.682-.12.938a1.848 1.848 0 01-.309.669c-.27.358-.683.664-1.239.919.572.217.993.536 1.263.957.27.421.405.995.405 1.722v.766c0 1.199-.366 2.118-1.096 2.756-.715.637-1.866.956-3.454.956H47.26zm2.43-6.315v4.363h1.048c.492 0 .873-.057 1.143-.172.286-.115.5-.274.643-.478a1.55 1.55 0 00.262-.727c.032-.281.048-.587.048-.919 0-.345-.024-.644-.072-.9a1.443 1.443 0 00-.285-.65 1.317 1.317 0 00-.644-.383c-.27-.089-.627-.134-1.072-.134H49.69zm0-5.473v3.751h1.095c.81 0 1.35-.16 1.62-.479.286-.331.429-.81.429-1.435 0-.612-.159-1.072-.477-1.378-.301-.306-.857-.459-1.667-.459h-1z" fill="#fff"/><path fill-rule="evenodd" clip-rule="evenodd" d="M46.998 174.555v-14.057h3.811c.803 0 1.499.099 2.08.305.586.201 1.072.474 1.45.819.376.343.641.742.795 1.192.166.43.25.878.25 1.344v.498c0 .379-.041.709-.127.986a2.047 2.047 0 01-.341.734l-.001.001c-.228.302-.545.566-.943.793.42.222.747.511.976.869.297.464.435 1.077.435 1.822v.766c0 1.233-.376 2.212-1.166 2.902-.785.7-2.022 1.026-3.646 1.026h-3.573zm7.027-1.172c.73-.638 1.096-1.557 1.096-2.756v-.766c0-.727-.135-1.301-.405-1.722-.225-.351-.554-.63-.988-.839a3.36 3.36 0 00-.274-.118c.092-.043.181-.087.266-.132.423-.227.747-.489.972-.787.143-.191.246-.414.31-.669.08-.256.12-.568.12-.938v-.498c0-.446-.08-.874-.24-1.282a2.636 2.636 0 00-.738-1.11c-.349-.319-.802-.574-1.357-.765-.54-.192-1.2-.287-1.978-.287H47.26v13.625h3.311c1.588 0 2.74-.319 3.454-.956zm-2.259-1.361c.245-.098.417-.23.531-.392.121-.173.2-.384.229-.64.03-.273.046-.573.046-.899 0-.337-.023-.625-.068-.867a1.266 1.266 0 00-.242-.561 1.064 1.064 0 00-.514-.302l-.006-.001-.006-.002c-.227-.075-.547-.119-.974-.119h-.81v3.933h.786c.473 0 .806-.056 1.023-.148l.005-.002zm-2.076.365v-4.363h1.072c.444 0 .802.045 1.072.134.27.077.484.204.643.383.143.178.238.395.286.65.047.256.071.555.071.9 0 .332-.016.638-.047.919a1.55 1.55 0 01-.262.727c-.143.204-.358.363-.644.478-.27.115-.65.172-1.143.172H49.69zm2.502-6.688c.241-.281.38-.708.38-1.311 0-.587-.153-.987-.414-1.238l-.004-.005c-.226-.229-.68-.379-1.464-.379h-.738v3.321h.834c.784 0 1.21-.157 1.404-.387l.002-.001zm-2.502.603v-3.751h1c.81 0 1.366.153 1.668.459.317.306.476.766.476 1.378 0 .625-.143 1.104-.429 1.435-.27.319-.81.479-1.62.479H49.69z" fill="#fff"/><path d="M64.995 174.339v-8.841h-.046l-3.099 8.841h-2.358v-13.625h2.358v8.86h.047l3.098-8.86h2.358v13.625h-2.358z" fill="#fff"/><path fill-rule="evenodd" clip-rule="evenodd" d="M64.731 174.555v-7.663l-2.685 7.663h-2.818v-14.057h2.883v7.679l2.685-7.679h2.818v14.057H64.73zm-2.836-4.981h-.046v-8.86H59.49v13.625h2.358l3.098-8.841h.046v8.841h2.359v-13.625h-2.359l-3.098 8.86z" fill="#fff"/><path d="M76.637 160.714h2.392v5.836h.704c.28 0 .5-.031.656-.095a.909.909 0 00.399-.268c.11-.115.187-.243.234-.383a4.08 4.08 0 00.117-.497l.235-1.627c.016-.051.031-.153.047-.306.031-.166.078-.345.14-.536.079-.204.172-.415.282-.632.11-.229.258-.433.445-.612a2.691 2.691 0 011.079-.689c.406-.128.883-.191 1.43-.191h.024v1.837h-.047c-.172 0-.336.025-.493.076a.971.971 0 00-.398.23.889.889 0 00-.258.421 16.9 16.9 0 00-.094.555l-.21 1.588a4.67 4.67 0 01-.071.479l-.094.421c-.031.127-.07.229-.117.306-.188.357-.422.619-.704.785l2.204 6.927h-2.438l-1.83-6.066H79.03v6.066h-2.392v-6.066h-1.242l-1.83 6.066h-2.438l2.204-6.927c-.281-.166-.516-.428-.703-.785a1.1 1.1 0 01-.118-.306l-.093-.421a4.512 4.512 0 01-.07-.479l-.212-1.588a4.616 4.616 0 00-.117-.555.745.745 0 00-.234-.421.957.957 0 00-.422-.23 1.368 1.368 0 00-.47-.076h-.046v-1.837h.023c.547 0 1.016.063 1.407.191a2.66 2.66 0 011.102.689c.188.179.336.383.446.612.109.217.195.428.258.632.078.191.125.37.14.536.032.153.055.255.07.306l.235 1.627c.031.178.07.344.117.497.047.14.117.268.211.383.11.115.243.204.399.268.172.064.399.095.68.095h.703v-5.836z" fill="#fff"/><path fill-rule="evenodd" clip-rule="evenodd" d="M76.376 160.498h2.915v5.837h.442c.263 0 .435-.03.54-.073l.008-.003a.655.655 0 00.29-.192l.005-.006.006-.007a.817.817 0 00.187-.305c.044-.143.081-.3.11-.47l.237-1.638.004-.014c.01-.031.024-.116.04-.271v-.008l.002-.007a4.48 4.48 0 01.147-.559l.003-.009c.08-.21.176-.426.288-.647.12-.25.282-.473.488-.67a2.94 2.94 0 011.183-.751l.003-.001c.443-.139.952-.206 1.524-.206h.285v2.268h-.309c-.14 0-.27.02-.395.061l-.008.003-.007.002a.687.687 0 00-.285.168l-.196-.143a.97.97 0 01.399-.23c.156-.051.32-.076.492-.076h.047v-1.837h-.023c-.081 0-.161.001-.239.004a4.512 4.512 0 00-1.192.187c-.39.128-.75.357-1.078.689a2.066 2.066 0 00-.446.612c-.11.217-.203.428-.281.632-.063.191-.11.37-.14.536a1.947 1.947 0 01-.048.306l-.234 1.627c-.031.178-.07.344-.118.497-.046.14-.125.268-.234.383a.909.909 0 01-.399.268c-.156.064-.375.095-.656.095h-.704v-5.836h-2.391v5.836h-.704c-.281 0-.508-.031-.68-.095a1.136 1.136 0 01-.398-.268 1.21 1.21 0 01-.211-.383 4.135 4.135 0 01-.118-.497l-.234-1.627a4.081 4.081 0 01-.07-.306 1.896 1.896 0 00-.141-.536 4.037 4.037 0 00-.258-.632 2.066 2.066 0 00-.446-.612 2.665 2.665 0 00-1.102-.689 4.257 4.257 0 00-1.168-.187 6.205 6.205 0 00-.239-.004h-.023v1.837h.047c.172 0 .328.025.469.076a.957.957 0 01.422.23.745.745 0 01.234.421c.047.166.086.351.118.555l.21 1.588c.016.166.04.326.071.479l.094.421a1.1 1.1 0 00.117.306c.188.357.422.619.704.785l-2.205 6.927h2.439l1.829-6.066h1.243v6.066h2.391v-6.066h1.243l1.83 6.066h2.438l-2.204-6.927c.281-.166.515-.428.703-.785a1.1 1.1 0 00.117-.306l.094-.421c.031-.153.055-.313.07-.479l.211-1.588a16.9 16.9 0 01.094-.555.888.888 0 01.258-.421l.196.143a.686.686 0 00-.196.319c-.03.161-.06.341-.091.539l-.21 1.583a4.64 4.64 0 01-.073.494l-.001.004-.095.424a1.288 1.288 0 01-.136.355 2.21 2.21 0 01-.645.774l2.247 7.063h-2.983l-1.829-6.067h-.776v6.067h-2.915v-6.067H75.6l-1.829 6.067h-2.983l2.247-7.063a2.212 2.212 0 01-.645-.774 1.291 1.291 0 01-.136-.355l-.001-.003-.094-.425a4.64 4.64 0 01-.073-.494l-.21-1.583a4.463 4.463 0 00-.113-.531l-.002-.008-.001-.008a.545.545 0 00-.171-.311.694.694 0 00-.302-.167l-.016-.003-.015-.006a1.07 1.07 0 00-.363-.058h-.309v-2.268h.285c.57 0 1.074.067 1.503.206.455.144.857.398 1.207.752.206.197.369.42.488.67.112.222.2.439.267.651.08.199.13.389.149.57.03.149.052.24.064.28l.004.014.236 1.638c.03.17.067.327.111.47a.995.995 0 00.17.311.875.875 0 00.299.2c.125.046.31.075.567.075h.442v-5.837z" fill="#fff"/><path d="M94.688 174.339v-8.841h-.046l-3.098 8.841h-2.358v-13.625h2.358v8.86h.046l3.098-8.86h2.358v13.625h-2.358z" fill="#fff"/><path fill-rule="evenodd" clip-rule="evenodd" d="M94.427 174.555v-7.663l-2.686 7.663h-2.817v-14.057h2.882v7.679l2.685-7.679h2.818v14.057h-2.882zm-2.837-4.981h-.046v-8.86h-2.358v13.625h2.358l3.098-8.841h.047v8.841h2.358v-13.625h-2.358l-3.099 8.86z" fill="#fff"/><path d="M101.416 174.339v-13.625h2.233l2.985 7.214h.045l2.963-7.214h2.255v13.625h-2.324v-8.286h-.045l-2.302 5.856h-1.162l-2.278-5.856h-.046v8.286h-2.324z" fill="#fff"/><path fill-rule="evenodd" clip-rule="evenodd" d="M101.154 174.555v-14.057h2.683l2.819 6.814 2.798-6.814h2.706v14.057h-2.849v-7.251l-1.894 4.82h-1.544l-1.871-4.808v7.239h-2.848zm2.586-8.502h.046l2.279 5.856h1.162l2.301-5.856h.046v8.286h2.324v-13.625h-2.256l-2.962 7.214h-.046l-2.985-7.214h-2.233v13.625h2.324v-8.286z" fill="#fff"/><path d="M116.262 163.988c0-.539.115-1.016.345-1.43.229-.414.536-.759.919-1.035a4.159 4.159 0 011.241-.602c.475-.138.95-.207 1.425-.207.475 0 .943.069 1.402.207.475.138.904.338 1.287.602.368.276.667.621.897 1.035.23.414.345.891.345 1.43v7.077c0 .564-.115 1.047-.345 1.449-.23.401-.529.734-.897.997a4.174 4.174 0 01-1.287.621 4.847 4.847 0 01-1.402.207c-.475 0-.95-.069-1.425-.207a3.93 3.93 0 01-1.241-.621 3.003 3.003 0 01-.919-.997c-.23-.402-.345-.885-.345-1.449v-7.077zm2.344 7.077c0 .464.153.809.46 1.035.322.213.697.32 1.126.32.429 0 .797-.107 1.104-.32.321-.226.482-.571.482-1.035v-7.077c0-.464-.161-.803-.482-1.016-.307-.226-.675-.339-1.104-.339a1.91 1.91 0 00-1.126.339c-.307.213-.46.552-.46 1.016v7.077z" fill="#fff"/><path fill-rule="evenodd" clip-rule="evenodd" d="M117.352 161.361a4.455 4.455 0 011.323-.642l.003-.001a5.388 5.388 0 011.513-.22c.506 0 1.003.074 1.49.22.504.147.96.36 1.367.64l.009.006c.396.298.715.667.958 1.105.248.446.368.955.368 1.519v7.077c0 .588-.12 1.104-.37 1.54a3.323 3.323 0 01-.961 1.068 4.426 4.426 0 01-1.371.662l.002-.001-.09-.202.087.203h.001c-.487.146-.984.22-1.49.22a5.388 5.388 0 01-1.513-.22l-.003-.001a4.202 4.202 0 01-1.323-.661l.004.003.168-.165-.177.159.005.003a3.23 3.23 0 01-.984-1.068c-.25-.436-.37-.952-.37-1.54v-7.077c0-.564.12-1.073.368-1.519.244-.44.573-.81.986-1.108zm4.241-.44c.475.138.904.338 1.287.602l-1.287-.602zm-2.529 11.179c-.306-.226-.459-.571-.459-1.035v-7.077c0-.464.153-.803.459-1.016a1.913 1.913 0 011.127-.339c.429 0 .796.113 1.103.339.322.213.483.552.483 1.016v7.077c0 .464-.161.809-.483 1.035-.307.213-.674.32-1.103.32-.429 0-.805-.107-1.127-.32z" fill="#fff"/><path d="M136.353 170.406v.828c0 .414-.092.809-.275 1.186-.17.364-.41.69-.72.978a3.67 3.67 0 01-1.101.697 3.58 3.58 0 01-1.334.244c-.41 0-.826-.05-1.25-.15a3.097 3.097 0 01-1.143-.527 3.136 3.136 0 01-.847-.96c-.212-.401-.318-.91-.318-1.524V163.8a2.884 2.884 0 01.974-2.202 3.319 3.319 0 011.101-.64 4.099 4.099 0 011.44-.244c1.017 0 1.842.294 2.478.884.31.289.55.634.72 1.035.183.389.275.816.275 1.28v.753h-2.16v-.64c0-.376-.12-.703-.36-.979s-.565-.414-.974-.414c-.536 0-.896.151-1.08.452-.169.288-.254.659-.254 1.11v6.851c0 .389.092.715.275.979.198.263.544.395 1.038.395.141 0 .289-.019.444-.057.17-.05.325-.125.466-.226.127-.1.233-.238.318-.414.085-.175.127-.395.127-.658v-.659h2.16z" fill="#fff"/><path fill-rule="evenodd" clip-rule="evenodd" d="M136.615 170.191v1.043c0 .44-.097.862-.293 1.264a3.367 3.367 0 01-.768 1.043 3.929 3.929 0 01-1.179.746l-.004.001a3.883 3.883 0 01-1.448.267c-.436 0-.877-.054-1.322-.159a3.384 3.384 0 01-1.246-.574 3.364 3.364 0 01-.908-1.027l-.004-.007c-.231-.437-.339-.977-.339-1.61V163.8a3.083 3.083 0 011.043-2.348 3.564 3.564 0 011.187-.69 4.392 4.392 0 011.546-.264c1.087 0 1.986.319 2.674.958.335.31.591.679.77 1.103.195.416.291.868.291 1.354v.968h-2.684v-.855c0-.337-.106-.618-.311-.854-.191-.22-.437-.324-.761-.324-.472 0-.719.127-.844.332-.147.25-.228.584-.228 1.015v6.851c0 .36.085.646.239.869.136.178.379.29.812.29.111 0 .231-.015.363-.046.133-.04.257-.1.371-.18a.96.96 0 00.251-.335c.068-.142.108-.333.108-.579v-.874h2.684zm-2.866 1.946a1.561 1.561 0 01-.466.226 1.873 1.873 0 01-.445.057c-.494 0-.84-.132-1.037-.395-.184-.264-.276-.59-.276-.979v-6.851c0-.451.085-.822.254-1.11.184-.301.544-.452 1.08-.452.41 0 .734.138.974.414.24.276.36.603.36.979v.64h2.16v-.753a2.97 2.97 0 00-.275-1.28 2.995 2.995 0 00-.72-1.035c-.635-.59-1.461-.884-2.478-.884-.522 0-1.002.081-1.439.244a3.299 3.299 0 00-1.101.64 2.858 2.858 0 00-.72.979c-.17.376-.254.784-.254 1.223v7.378c0 .614.105 1.123.317 1.524.226.389.508.709.847.96.339.251.72.427 1.144.527.423.1.839.15 1.249.15.48 0 .924-.081 1.334-.244a3.67 3.67 0 001.101-.697c.31-.288.55-.614.72-.978.183-.377.275-.772.275-1.186v-.828h-2.16v.659c0 .263-.042.483-.127.658a1.14 1.14 0 01-.317.414z" fill="#fff"/><path d="M142.592 174.339v-11.788h-2.744v-1.837h7.861v1.837h-2.745v11.788h-2.372z" fill="#fff"/><path fill-rule="evenodd" clip-rule="evenodd" d="M142.328 174.555v-11.789h-2.744v-2.268h8.385v2.268h-2.744v11.789h-2.897zm2.635-12.004h2.744v-1.837h-7.861v1.837h2.744v11.788h2.373v-11.788z" fill="#fff"/><path d="M157.577 174.339v-8.841h-.046l-3.098 8.841h-2.359v-13.625h2.359v8.86h.046l3.098-8.86h2.358v13.625h-2.358z" fill="#fff"/><path fill-rule="evenodd" clip-rule="evenodd" d="M157.315 174.555v-7.663l-2.685 7.663h-2.818v-14.057h2.883v7.679l2.685-7.679h2.818v14.057h-2.883zm-2.836-4.981h-.046v-8.86h-2.358v13.625h2.358l3.098-8.841h.046v8.841h2.359v-13.625h-2.359l-3.098 8.86z" fill="#fff"/></svg>