<svg width="169" height="177" viewBox="0 0 169 177" fill="none" xmlns="http://www.w3.org/2000/svg">
<path d="M33.5836 119.15V104.364H5.17969V90.9718L25.7481 19.8278H40.8595L19.4516 90.9718H33.5836V62.6537H47.8556V90.9718H54.7117V104.364H47.8556V119.15H33.5836Z" fill="white"/>
<path d="M60.7381 40.334C60.7381 36.986 61.2978 34.0101 62.4172 31.4061C63.6298 28.8022 65.2156 26.5702 67.1745 24.7102C69.1334 22.8502 71.3721 21.4553 73.8907 20.5253C76.5026 19.5023 79.2077 18.9908 82.0061 18.9908C84.8046 18.9908 87.4631 19.5023 89.9816 20.5253C92.5935 21.4553 94.8789 22.8502 96.8378 24.7102C98.7967 26.5702 100.336 28.8022 101.455 31.4061C102.668 34.0101 103.274 36.986 103.274 40.334V98.6442C103.274 101.992 102.668 104.968 101.455 107.572C100.336 110.176 98.7967 112.408 96.8378 114.268C94.8789 116.128 92.5935 117.569 89.9816 118.592C87.4631 119.522 84.8046 119.987 82.0061 119.987C79.2077 119.987 76.5026 119.522 73.8907 118.592C71.3721 117.569 69.1334 116.128 67.1745 114.268C65.2156 112.408 63.6298 110.176 62.4172 107.572C61.2978 104.968 60.7381 101.992 60.7381 98.6442V40.334ZM75.0101 98.6442C75.0101 100.69 75.6631 102.411 76.969 103.806C78.2749 105.108 79.954 105.759 82.0061 105.759C84.0583 105.759 85.7374 105.108 87.0433 103.806C88.3492 102.411 89.0022 100.69 89.0022 98.6442V40.334C89.0022 38.288 88.3492 36.614 87.0433 35.3121C85.7374 33.9171 84.0583 33.2196 82.0061 33.2196C79.954 33.2196 78.2749 33.9171 76.969 35.3121C75.6631 36.614 75.0101 38.288 75.0101 40.334V98.6442Z" fill="white"/>
<path d="M137.704 119.15V104.364H109.301V90.9718L129.869 19.8278H144.98L123.572 90.9718H137.704V62.6537H151.976V90.9718H158.833V104.364H151.976V119.15H137.704Z" fill="white"/>
<path fill-rule="evenodd" clip-rule="evenodd" d="M0.0917969 129.273V126.652H168.229V129.273H0.0917969Z" fill="#D37700"/>
<path fill-rule="evenodd" clip-rule="evenodd" d="M0.0917969 133.64V131.02H168.229V133.64H0.0917969Z" fill="#D37700"/>
<path fill-rule="evenodd" clip-rule="evenodd" d="M83.9454 4.36719L168.328 10.4882L168.138 13.1016L83.9459 6.99443L0.190559 13.1016L0 10.4882L83.9454 4.36719Z" fill="#D37700"/>
<path fill-rule="evenodd" clip-rule="evenodd" d="M83.9454 0L168.328 6.12099L168.138 8.73444L83.9459 2.62725L0.190559 8.73441L0 6.12102L83.9454 0Z" fill="#D37700"/>
<path d="M8.68008 152.428V152.578H8.83008H16.0804V154.608V154.758H16.2304H18.4379H18.5879V154.608V150.644V150.494H18.4379H17.133V138.316V138.166H16.983H14.4242H14.2742V138.316V150.494H11.5388V138.316V138.166H11.3888H8.83008H8.68008V138.316V152.428Z" fill="white" stroke="white" stroke-width="0.3"/>
<path d="M45.3656 152.164V152.314H45.5156H53.3766H53.5266V152.164V150.18V150.03H53.3766H48.3032V146.265H52.7043H52.8543V146.115V144.248V144.098H52.7043H48.3032V140.333H53.3766H53.5266V140.183V138.316V138.166H53.3766H45.5156H45.3656V138.316V152.164Z" fill="white" stroke="white" stroke-width="0.3"/>
<path d="M81.1762 152.164V152.314H81.3262H83.7559H83.9059V152.164V146.148H86.6074V152.164V152.314H86.7574H89.1871H89.3371V152.164V138.316V138.166H89.1871H86.7574H86.6074V138.316V144.098H83.9059V138.316V138.166H83.7559H81.3262H81.1762V138.316V152.164Z" fill="white" stroke="white" stroke-width="0.3"/>
<path d="M118.856 152.164V152.314H119.006H121.378H121.528V152.164V140.333H124.123H124.273V140.183V138.316V138.166H124.123H116.262H116.112V138.316V140.183V140.333H116.262H118.856V152.164Z" fill="white" stroke="white" stroke-width="0.3"/>
<path d="M151.924 152.164V152.314H152.074H154.497H154.647V152.164V146.907H155.732C156.646 146.907 157.397 146.783 157.977 146.524L157.977 146.525L157.98 146.523C158.555 146.254 159.018 145.883 159.367 145.407C159.664 145.015 159.856 144.593 159.94 144.142C160.037 143.7 160.085 143.164 160.085 142.536C160.085 141.7 160.006 141.027 159.84 140.525C159.673 140.006 159.372 139.555 158.942 139.176C158.514 138.798 158.035 138.534 157.506 138.385C156.983 138.238 156.383 138.166 155.708 138.166H152.074H151.924V138.316V152.164ZM157.268 144.147L157.268 144.147L157.266 144.15C157.159 144.326 156.987 144.47 156.741 144.577C156.499 144.682 156.143 144.74 155.66 144.74H154.647V140.333H155.755C156.222 140.333 156.561 140.391 156.785 140.494C157.013 140.599 157.178 140.748 157.288 140.938C157.401 141.135 157.467 141.371 157.482 141.65L157.482 141.65C157.497 141.932 157.505 142.234 157.505 142.556C157.505 142.902 157.49 143.214 157.459 143.492L157.458 143.492L157.458 143.501C157.443 143.766 157.378 143.979 157.268 144.147Z" fill="white" stroke="white" stroke-width="0.3"/>
<path d="M8.83008 174.339V160.714H11.2598V166.55H14.2613V160.714H16.6911V174.339H14.2613V168.273H11.2598V174.339H8.83008Z" fill="white"/>
<path fill-rule="evenodd" clip-rule="evenodd" d="M8.56836 174.555V160.498H11.5222V166.335H13.9996V160.498H16.9534V174.555H13.9996V168.488H11.5222V174.555H8.56836ZM11.2601 168.273H14.2616V174.339H16.6914V160.714H14.2616V166.55H11.2601V160.714H8.83039V174.339H11.2601V168.273Z" fill="white"/>
<path d="M21.0566 174.339V160.714H28.0442V162.551H23.4011V166.55H27.4466V168.388H23.4011V172.387H28.0442V174.339H21.0566Z" fill="white"/>
<path fill-rule="evenodd" clip-rule="evenodd" d="M20.7949 174.555V160.498H28.3065V162.766H23.6635V166.335H27.7089V168.603H23.6635V172.172H28.3065V174.555H20.7949ZM23.4015 172.387V168.388H27.4469V166.55H23.4015V162.551H28.0445V160.714H21.057V174.339H28.0445V172.387H23.4015Z" fill="white"/>
<path d="M33.5379 174.38V176.491H31.5371V172.652H32.7194C32.8558 172.409 32.9846 172.134 33.1059 171.827C33.2272 171.507 33.3333 171.174 33.4242 170.829C33.5151 170.483 33.5985 170.131 33.6743 169.773C33.7501 169.402 33.8107 169.044 33.8562 168.698C33.8865 168.429 33.9092 168.129 33.9244 167.796C33.9547 167.463 33.9774 167.124 33.9926 166.779C34.0078 166.421 34.0153 166.069 34.0153 165.723C34.0305 165.365 34.0381 165.026 34.0381 164.706V160.714H40.6997V172.652H42.0184V176.491H40.0176V174.38H33.5379ZM36.2207 162.441V164.687C36.2207 164.866 36.2131 165.128 36.198 165.474C36.1828 165.806 36.1601 166.171 36.1298 166.568C36.0995 166.964 36.0692 167.367 36.0388 167.777C36.0085 168.174 35.9706 168.525 35.9252 168.833C35.8948 169.088 35.8418 169.383 35.766 169.715C35.7054 170.035 35.6296 170.368 35.5386 170.714C35.4477 171.059 35.3492 171.405 35.2431 171.75C35.137 172.083 35.0157 172.383 34.8793 172.652H38.3806V162.441H36.2207Z" fill="white"/>
<path fill-rule="evenodd" clip-rule="evenodd" d="M33.8022 176.706H31.2773V172.437H32.5516C32.6582 172.234 32.7605 172.01 32.8584 171.762C32.9771 171.449 33.0811 171.122 33.1703 170.783C33.2605 170.441 33.3431 170.092 33.4183 169.737C33.4931 169.37 33.5529 169.017 33.5977 168.677C33.6274 168.413 33.6498 168.117 33.6648 167.788L33.6652 167.78C33.6952 167.45 33.718 167.114 33.733 166.771C33.748 166.415 33.7556 166.066 33.7556 165.723V165.716C33.7706 165.36 33.7783 165.023 33.7783 164.706V160.498H40.964V172.437H42.2827V176.706H39.7579V174.595H33.8022V176.706ZM40.0199 174.38V176.491H42.0207V172.652H40.702V160.714H34.0403V164.706C34.0403 165.026 34.0328 165.365 34.0176 165.723C34.0176 166.069 34.01 166.421 33.9949 166.779C33.9797 167.124 33.957 167.463 33.9267 167.796C33.9115 168.129 33.8888 168.429 33.8584 168.698C33.813 169.044 33.7523 169.402 33.6766 169.773C33.6008 170.131 33.5174 170.483 33.4265 170.829C33.3355 171.174 33.2294 171.507 33.1082 171.827C32.9869 172.134 32.8581 172.409 32.7216 172.652H31.5394V176.491H33.5401V174.38H40.0199ZM36.4621 165.482C36.4469 165.816 36.424 166.183 36.3936 166.581C36.3633 166.978 36.333 167.381 36.3027 167.79C36.2722 168.189 36.234 168.544 36.1879 168.856C36.1567 169.118 36.1027 169.417 36.0266 169.752C35.9652 170.075 35.8887 170.411 35.797 170.759C35.7055 171.107 35.6063 171.455 35.4994 171.803L35.4988 171.805C35.4274 172.029 35.3489 172.239 35.2632 172.437H38.1209V162.656H36.485V164.687C36.485 164.87 36.4773 165.136 36.4621 165.482ZM36.223 162.441H38.3829V172.652H34.8816C34.9169 172.583 34.9512 172.511 34.9845 172.437C35.0798 172.226 35.1667 171.997 35.2453 171.75C35.3514 171.405 35.45 171.059 35.5409 170.714C35.6319 170.368 35.7076 170.035 35.7683 169.715C35.8441 169.383 35.8971 169.088 35.9274 168.833C35.9729 168.525 36.0108 168.174 36.0411 167.777C36.0714 167.367 36.1017 166.964 36.1321 166.568C36.1624 166.171 36.1851 165.806 36.2003 165.474C36.2154 165.128 36.223 164.866 36.223 164.687V162.441Z" fill="white"/>
<path d="M47.2598 174.339V160.714H50.8091C51.5873 160.714 52.2463 160.809 52.7863 161.001C53.3421 161.192 53.7947 161.447 54.1441 161.766C54.4935 162.085 54.7396 162.455 54.8825 162.876C55.0413 163.284 55.1207 163.712 55.1207 164.158V164.656C55.1207 165.026 55.081 165.338 55.0016 165.594C54.9381 165.849 54.8349 166.072 54.692 166.263C54.422 166.621 54.0091 166.927 53.4533 167.182C54.025 167.399 54.4458 167.718 54.7158 168.139C54.9858 168.56 55.1207 169.134 55.1207 169.861V170.627C55.1207 171.826 54.7555 172.745 54.025 173.383C53.3103 174.02 52.159 174.339 50.5709 174.339H47.2598ZM49.6895 168.024V172.387H50.7377C51.23 172.387 51.6111 172.33 51.8811 172.215C52.1669 172.1 52.3813 171.941 52.5242 171.737C52.6672 171.533 52.7545 171.29 52.7863 171.01C52.818 170.729 52.8339 170.423 52.8339 170.091C52.8339 169.746 52.8101 169.447 52.7625 169.191C52.7148 168.936 52.6195 168.719 52.4766 168.541C52.3178 168.362 52.1034 168.235 51.8334 168.158C51.5635 168.069 51.2061 168.024 50.7615 168.024H49.6895ZM49.6895 162.551V166.302H50.7853C51.5952 166.302 52.1352 166.142 52.4051 165.823C52.691 165.492 52.8339 165.013 52.8339 164.388C52.8339 163.776 52.6751 163.316 52.3575 163.01C52.0558 162.704 51.4999 162.551 50.69 162.551H49.6895Z" fill="white"/>
<path fill-rule="evenodd" clip-rule="evenodd" d="M46.998 174.555V160.498H50.8094C51.6118 160.498 52.3079 160.597 52.8892 160.803C53.4747 161.004 53.9605 161.277 54.3392 161.622C54.7151 161.965 54.9802 162.364 55.1339 162.814C55.3003 163.244 55.3831 163.692 55.3831 164.158V164.656C55.3831 165.035 55.3428 165.365 55.2574 165.642C55.1886 165.916 55.0759 166.161 54.9157 166.376L54.9149 166.377C54.6867 166.679 54.37 166.943 53.9718 167.17C54.3911 167.392 54.7186 167.681 54.948 168.039C55.2455 168.503 55.3831 169.116 55.3831 169.861V170.627C55.3831 171.86 55.0073 172.839 54.2172 173.529C53.4324 174.229 52.1949 174.555 50.5712 174.555H46.998ZM54.0253 173.383C54.7558 172.745 55.1211 171.826 55.1211 170.627V169.861C55.1211 169.134 54.9861 168.56 54.7161 168.139C54.4914 167.788 54.1621 167.509 53.7283 167.3C53.641 167.258 53.5494 167.218 53.4536 167.182C53.5464 167.139 53.6352 167.095 53.72 167.05C54.1433 166.823 54.4674 166.561 54.6923 166.263C54.8352 166.072 54.9384 165.849 55.0019 165.594C55.0814 165.338 55.1211 165.026 55.1211 164.656V164.158C55.1211 163.712 55.0417 163.284 54.8828 162.876C54.7399 162.455 54.4938 162.085 54.1444 161.766C53.795 161.447 53.3424 161.192 52.7866 161.001C52.2466 160.809 51.5876 160.714 50.8094 160.714H47.2601V174.339H50.5712C52.1593 174.339 53.3106 174.02 54.0253 173.383ZM51.7662 172.022C52.0105 171.924 52.1833 171.792 52.2974 171.63C52.4182 171.457 52.4967 171.246 52.5257 170.99C52.5566 170.717 52.5722 170.417 52.5722 170.091C52.5722 169.754 52.5488 169.466 52.5038 169.224C52.4611 168.996 52.378 168.811 52.2615 168.663C52.1365 168.525 51.9686 168.424 51.7482 168.361L51.742 168.36L51.7358 168.358C51.5089 168.283 51.1888 168.239 50.7618 168.239H49.9519V172.172H50.738C51.2114 172.172 51.5443 172.116 51.7609 172.024L51.7662 172.022ZM49.6898 172.387V168.024H50.7618C51.2064 168.024 51.5638 168.069 51.8337 168.158C52.1037 168.235 52.3181 168.362 52.4769 168.541C52.6198 168.719 52.7151 168.936 52.7628 169.191C52.8104 169.447 52.8342 169.746 52.8342 170.091C52.8342 170.423 52.8183 170.729 52.7866 171.01C52.7548 171.29 52.6675 171.533 52.5246 171.737C52.3816 171.941 52.1672 172.1 51.8814 172.215C51.6114 172.33 51.2303 172.387 50.738 172.387H49.6898ZM52.1915 165.699C52.4333 165.418 52.5722 164.991 52.5722 164.388C52.5722 163.801 52.4191 163.401 52.1583 163.15L52.154 163.145C51.9278 162.916 51.4741 162.766 50.6903 162.766H49.9519V166.087H50.7856C51.5703 166.087 51.9959 165.93 52.1903 165.7L52.1915 165.699ZM49.6898 166.302V162.551H50.6903C51.5002 162.551 52.0561 162.704 52.3578 163.01C52.6754 163.316 52.8342 163.776 52.8342 164.388C52.8342 165.013 52.6913 165.492 52.4054 165.823C52.1355 166.142 51.5955 166.302 50.7856 166.302H49.6898Z" fill="white"/>
<path d="M64.9949 174.339V165.498H64.9486L61.8505 174.339H59.4922V160.714H61.8505V169.574H61.8967L64.9949 160.714H67.3532V174.339H64.9949Z" fill="white"/>
<path fill-rule="evenodd" clip-rule="evenodd" d="M64.7312 174.555V166.892L62.0461 174.555H59.2285V160.498H62.1109V168.177L64.7958 160.498H67.6136V174.555H64.7312ZM61.8951 169.574H61.8488V160.714H59.4905V174.339H61.8488L64.947 165.498H64.9932V174.339H67.3515V160.714H64.9932L61.8951 169.574Z" fill="white"/>
<path d="M76.6374 160.714H79.0291V166.55H79.7325C80.0139 166.55 80.2328 166.519 80.3891 166.455C80.561 166.391 80.6939 166.302 80.7877 166.187C80.8971 166.072 80.9753 165.944 81.0222 165.804C81.0691 165.651 81.1082 165.485 81.1394 165.307L81.3739 163.68C81.3895 163.629 81.4052 163.527 81.4208 163.374C81.4521 163.208 81.499 163.029 81.5615 162.838C81.6396 162.634 81.7334 162.423 81.8429 162.206C81.9523 161.977 82.1008 161.773 82.2884 161.594C82.6166 161.262 82.9762 161.033 83.367 160.905C83.7734 160.777 84.2502 160.714 84.7973 160.714H84.8208V162.551H84.7739C84.6019 162.551 84.4378 162.576 84.2815 162.627C84.1408 162.666 84.0079 162.742 83.8828 162.857C83.7578 162.972 83.6718 163.112 83.6249 163.278C83.5937 163.444 83.5624 163.629 83.5311 163.833L83.3201 165.421C83.3045 165.587 83.281 165.747 83.2497 165.9C83.2185 166.04 83.1872 166.181 83.1559 166.321C83.1247 166.448 83.0856 166.55 83.0387 166.627C82.8511 166.984 82.6166 167.246 82.3353 167.412L84.5394 174.339H82.1008L80.2718 168.273H79.0291V174.339H76.6374V168.273H75.3946L73.5657 174.339H71.1271L73.3312 167.412C73.0498 167.246 72.8153 166.984 72.6278 166.627C72.5809 166.55 72.5418 166.448 72.5105 166.321C72.4793 166.181 72.448 166.04 72.4167 165.9C72.3855 165.747 72.362 165.587 72.3464 165.421L72.1353 163.833C72.1041 163.629 72.065 163.444 72.0181 163.278C71.9868 163.112 71.9087 162.972 71.7836 162.857C71.6586 162.742 71.5179 162.666 71.3616 162.627C71.2209 162.576 71.0646 162.551 70.8926 162.551H70.8457V160.714H70.8691C71.4163 160.714 71.8852 160.777 72.276 160.905C72.6825 161.033 73.0498 161.262 73.3781 161.594C73.5657 161.773 73.7142 161.977 73.8236 162.206C73.933 162.423 74.019 162.634 74.0815 162.838C74.1597 163.029 74.2066 163.208 74.2222 163.374C74.2535 163.527 74.2769 163.629 74.2926 163.68L74.5271 165.307C74.5583 165.485 74.5974 165.651 74.6443 165.804C74.6912 165.944 74.7615 166.072 74.8553 166.187C74.9647 166.302 75.0976 166.391 75.2539 166.455C75.4259 166.519 75.6526 166.55 75.9339 166.55H76.6374V160.714Z" fill="white"/>
<path fill-rule="evenodd" clip-rule="evenodd" d="M76.3757 160.498H79.2914V166.335H79.7328C79.9958 166.335 80.1683 166.305 80.2728 166.262L80.2814 166.259C80.4144 166.209 80.507 166.145 80.5704 166.067L80.5757 166.061L80.5816 166.054C80.6692 165.962 80.7313 165.861 80.7691 165.749C80.8129 165.606 80.85 165.449 80.8799 165.279L81.116 163.641L81.1201 163.627C81.1297 163.596 81.1441 163.511 81.16 163.356L81.1608 163.348L81.1622 163.341C81.1951 163.166 81.2441 162.98 81.3087 162.782L81.3116 162.773C81.392 162.563 81.4884 162.347 81.6001 162.126C81.7193 161.876 81.8817 161.653 82.0877 161.456C82.437 161.103 82.8303 160.849 83.2705 160.705L83.2737 160.704C83.7166 160.565 84.2264 160.498 84.7976 160.498H85.0831V162.766H84.7742C84.6346 162.766 84.5034 162.786 84.3786 162.827L84.3715 162.83L84.3642 162.832C84.2771 162.855 84.181 162.906 84.0785 163L83.8832 162.857C84.0082 162.742 84.1411 162.666 84.2818 162.627C84.4381 162.576 84.6022 162.551 84.7742 162.551H84.8211V160.714H84.7976C84.7166 160.714 84.637 160.715 84.5591 160.718C84.1108 160.734 83.7135 160.796 83.3673 160.905C82.9765 161.033 82.617 161.262 82.2887 161.594C82.1011 161.772 81.9526 161.977 81.8432 162.206C81.7338 162.423 81.64 162.634 81.5618 162.838C81.4993 163.029 81.4524 163.208 81.4211 163.374C81.4055 163.527 81.3898 163.629 81.3742 163.68L81.1397 165.307C81.1085 165.485 81.0694 165.651 81.0225 165.804C80.9756 165.944 80.8974 166.072 80.788 166.187C80.6942 166.302 80.5613 166.391 80.3894 166.455C80.2331 166.519 80.0142 166.55 79.7328 166.55H79.0294V160.714H76.6377V166.55H75.9343C75.6529 166.55 75.4262 166.519 75.2543 166.455C75.0979 166.391 74.9651 166.302 74.8556 166.187C74.7618 166.072 74.6915 165.944 74.6446 165.804C74.5977 165.651 74.5586 165.485 74.5274 165.307L74.2929 163.68C74.2773 163.629 74.2538 163.527 74.2225 163.374C74.2069 163.208 74.16 163.029 74.0819 162.838C74.0193 162.634 73.9334 162.423 73.8239 162.206C73.7145 161.977 73.566 161.772 73.3784 161.594C73.0501 161.262 72.6828 161.033 72.2764 160.905C71.9436 160.796 71.5542 160.734 71.108 160.718C71.0302 160.715 70.9507 160.714 70.8695 160.714H70.846V162.551H70.8929C71.0649 162.551 71.2212 162.576 71.3619 162.627C71.5182 162.666 71.6589 162.742 71.7839 162.857C71.909 162.972 71.9872 163.112 72.0184 163.278C72.0653 163.444 72.1044 163.629 72.1357 163.833L72.3467 165.421C72.3623 165.587 72.3858 165.747 72.417 165.9L72.5108 166.321C72.5421 166.448 72.5812 166.55 72.6281 166.627C72.8157 166.984 73.0501 167.246 73.3315 167.412L71.1274 174.339H73.566L75.3949 168.273H76.6377V174.339H79.0294V168.273H80.2722L82.1011 174.339H84.5397L82.3356 167.412C82.617 167.246 82.8514 166.984 83.039 166.627C83.0859 166.55 83.125 166.448 83.1563 166.321L83.2501 165.9C83.2813 165.747 83.3048 165.587 83.3204 165.421L83.5314 163.833C83.5627 163.629 83.594 163.444 83.6252 163.278C83.6721 163.112 83.7581 162.972 83.8832 162.857L84.0785 163C83.9875 163.084 83.921 163.188 83.8826 163.319C83.8524 163.48 83.8221 163.66 83.7917 163.858L83.5813 165.441C83.5651 165.612 83.5409 165.777 83.5085 165.935L83.5078 165.939L83.4132 166.363C83.3801 166.498 83.3362 166.619 83.2767 166.718C83.1073 167.039 82.8947 167.301 82.632 167.492L84.879 174.555H81.896L80.0671 168.488H79.2914V174.555H76.3757V168.488H75.6L73.7711 174.555H70.7881L73.0351 167.492C72.7724 167.301 72.5598 167.039 72.3903 166.718C72.3309 166.619 72.287 166.498 72.2539 166.363L72.253 166.36L72.1586 165.935C72.1262 165.777 72.102 165.612 72.0858 165.441L71.8754 163.858C71.8451 163.661 71.8075 163.484 71.7632 163.327L71.761 163.319L71.7595 163.311C71.7352 163.182 71.6769 163.081 71.5886 163C71.4909 162.911 71.3902 162.859 71.287 162.833L71.2711 162.83L71.256 162.824C71.1524 162.787 71.0327 162.766 70.8929 162.766H70.584V160.498H70.8695C71.4395 160.498 71.9426 160.565 72.3716 160.704C72.8269 160.848 73.2288 161.102 73.5794 161.456C73.7854 161.653 73.9478 161.876 74.067 162.126C74.1789 162.348 74.2679 162.565 74.3335 162.777C74.4138 162.976 74.4646 163.166 74.4828 163.347C74.5134 163.496 74.5346 163.587 74.547 163.627L74.5511 163.641L74.7872 165.279C74.8171 165.449 74.8542 165.606 74.898 165.749C74.9369 165.865 74.9938 165.968 75.0679 166.06C75.1514 166.146 75.2504 166.212 75.3665 166.26C75.492 166.306 75.6764 166.335 75.9343 166.335H76.3757V160.498Z" fill="white"/>
<path d="M94.6882 174.339V165.498H94.642L91.5438 174.339H89.1855V160.714H91.5438V169.574H91.5901L94.6882 160.714H97.0465V174.339H94.6882Z" fill="white"/>
<path fill-rule="evenodd" clip-rule="evenodd" d="M94.4265 174.555V166.892L91.7414 174.555H88.9238V160.498H91.8062V168.177L94.4912 160.498H97.3089V174.555H94.4265ZM91.5904 169.574H91.5442V160.714H89.1859V174.339H91.5442L94.6423 165.498H94.6885V174.339H97.0468V160.714H94.6885L91.5904 169.574Z" fill="white"/>
<path d="M101.416 174.339V160.714H103.649L106.634 167.928H106.679L109.642 160.714H111.897V174.339H109.573V166.053H109.528L107.226 171.909H106.064L103.786 166.053H103.74V174.339H101.416Z" fill="white"/>
<path fill-rule="evenodd" clip-rule="evenodd" d="M101.154 174.555V160.498H103.837L106.656 167.312L109.454 160.498H112.16V174.555H109.311V167.304L107.417 172.124H105.873L104.002 167.316V174.555H101.154ZM103.74 166.053H103.786L106.065 171.909H107.227L109.528 166.053H109.574V174.339H111.898V160.714H109.642L106.68 167.928H106.634L103.649 160.714H101.416V174.339H103.74V166.053Z" fill="white"/>
<path d="M116.262 163.988C116.262 163.449 116.377 162.972 116.607 162.558C116.836 162.144 117.143 161.799 117.526 161.523C117.894 161.259 118.307 161.059 118.767 160.921C119.242 160.783 119.717 160.714 120.192 160.714C120.667 160.714 121.135 160.783 121.594 160.921C122.069 161.059 122.498 161.259 122.881 161.523C123.249 161.799 123.548 162.144 123.778 162.558C124.008 162.972 124.123 163.449 124.123 163.988V171.065C124.123 171.629 124.008 172.112 123.778 172.514C123.548 172.915 123.249 173.248 122.881 173.511C122.498 173.787 122.069 173.994 121.594 174.132C121.135 174.27 120.667 174.339 120.192 174.339C119.717 174.339 119.242 174.27 118.767 174.132C118.307 173.994 117.894 173.787 117.526 173.511C117.143 173.248 116.836 172.915 116.607 172.514C116.377 172.112 116.262 171.629 116.262 171.065V163.988ZM118.606 171.065C118.606 171.529 118.759 171.874 119.066 172.1C119.388 172.313 119.763 172.42 120.192 172.42C120.621 172.42 120.989 172.313 121.296 172.1C121.617 171.874 121.778 171.529 121.778 171.065V163.988C121.778 163.524 121.617 163.185 121.296 162.972C120.989 162.746 120.621 162.633 120.192 162.633C119.763 162.633 119.388 162.746 119.066 162.972C118.759 163.185 118.606 163.524 118.606 163.988V171.065Z" fill="white"/>
<path fill-rule="evenodd" clip-rule="evenodd" d="M117.352 161.361C117.744 161.08 118.186 160.866 118.675 160.719L118.678 160.718C119.179 160.572 119.684 160.498 120.191 160.498C120.697 160.498 121.194 160.572 121.681 160.718C122.185 160.865 122.641 161.078 123.048 161.358L123.057 161.364C123.453 161.662 123.772 162.031 124.015 162.469C124.263 162.915 124.383 163.424 124.383 163.988V171.065C124.383 171.653 124.263 172.169 124.013 172.605C123.77 173.031 123.45 173.388 123.052 173.673C122.645 173.967 122.188 174.188 121.681 174.335L121.683 174.334L121.593 174.132L121.68 174.335L121.681 174.335C121.194 174.481 120.697 174.555 120.191 174.555C119.684 174.555 119.179 174.481 118.678 174.335L118.675 174.334C118.185 174.187 117.743 173.966 117.352 173.673C117.353 173.674 117.355 173.675 117.356 173.676L117.524 173.511L117.347 173.67C117.349 173.671 117.35 173.672 117.352 173.673C116.939 173.389 116.612 173.031 116.368 172.605C116.118 172.169 115.998 171.653 115.998 171.065V163.988C115.998 163.424 116.118 162.915 116.366 162.469C116.61 162.029 116.939 161.659 117.352 161.361ZM121.593 160.921C122.068 161.059 122.497 161.259 122.88 161.523L121.593 160.921ZM119.064 172.1C118.758 171.874 118.605 171.529 118.605 171.065V163.988C118.605 163.524 118.758 163.185 119.064 162.972C119.386 162.746 119.762 162.633 120.191 162.633C120.62 162.633 120.987 162.746 121.294 162.972C121.616 163.185 121.777 163.524 121.777 163.988V171.065C121.777 171.529 121.616 171.874 121.294 172.1C120.987 172.313 120.62 172.42 120.191 172.42C119.762 172.42 119.386 172.313 119.064 172.1Z" fill="white"/>
<path d="M136.353 170.406V171.234C136.353 171.648 136.261 172.043 136.078 172.42C135.908 172.784 135.668 173.11 135.358 173.398C135.047 173.687 134.68 173.919 134.257 174.095C133.847 174.258 133.402 174.339 132.923 174.339C132.513 174.339 132.097 174.289 131.673 174.189C131.25 174.089 130.869 173.913 130.53 173.662C130.191 173.411 129.909 173.091 129.683 172.702C129.471 172.301 129.365 171.792 129.365 171.178V163.8C129.365 163.361 129.45 162.953 129.619 162.577C129.789 162.2 130.029 161.874 130.339 161.598C130.65 161.322 131.017 161.109 131.44 160.958C131.878 160.795 132.358 160.714 132.88 160.714C133.897 160.714 134.722 161.008 135.358 161.598C135.668 161.887 135.908 162.232 136.078 162.633C136.261 163.022 136.353 163.449 136.353 163.913V164.666H134.193V164.026C134.193 163.65 134.073 163.323 133.833 163.047C133.593 162.771 133.268 162.633 132.859 162.633C132.323 162.633 131.963 162.784 131.779 163.085C131.61 163.373 131.525 163.744 131.525 164.195V171.046C131.525 171.435 131.617 171.761 131.8 172.025C131.998 172.288 132.344 172.42 132.838 172.42C132.979 172.42 133.127 172.401 133.282 172.363C133.452 172.313 133.607 172.238 133.748 172.137C133.875 172.037 133.981 171.899 134.066 171.723C134.151 171.548 134.193 171.328 134.193 171.065V170.406H136.353Z" fill="white"/>
<path fill-rule="evenodd" clip-rule="evenodd" d="M136.615 170.191V171.234C136.615 171.674 136.518 172.096 136.322 172.498C136.141 172.885 135.885 173.233 135.554 173.541C135.221 173.85 134.828 174.099 134.375 174.287L134.371 174.288C133.924 174.466 133.44 174.555 132.923 174.555C132.487 174.555 132.046 174.501 131.601 174.396C131.138 174.286 130.722 174.094 130.355 173.822C129.987 173.549 129.685 173.205 129.447 172.795L129.443 172.788C129.212 172.351 129.104 171.811 129.104 171.178V163.8C129.104 163.338 129.193 162.905 129.374 162.502C129.554 162.101 129.812 161.75 130.147 161.452C130.482 161.154 130.879 160.924 131.334 160.762C131.808 160.585 132.325 160.498 132.88 160.498C133.967 160.498 134.866 160.817 135.554 161.456C135.889 161.766 136.145 162.135 136.324 162.559C136.519 162.975 136.615 163.427 136.615 163.913V164.881H133.931V164.026C133.931 163.689 133.825 163.408 133.62 163.172C133.429 162.952 133.183 162.848 132.859 162.848C132.387 162.848 132.14 162.975 132.015 163.18C131.868 163.43 131.787 163.764 131.787 164.195V171.046C131.787 171.406 131.872 171.692 132.026 171.915C132.162 172.093 132.405 172.205 132.838 172.205C132.949 172.205 133.069 172.19 133.201 172.159C133.334 172.119 133.458 172.059 133.572 171.979C133.663 171.905 133.749 171.797 133.823 171.644C133.891 171.502 133.931 171.311 133.931 171.065V170.191H136.615ZM133.749 172.137C133.607 172.238 133.452 172.313 133.283 172.363C133.128 172.401 132.979 172.42 132.838 172.42C132.344 172.42 131.998 172.288 131.801 172.025C131.617 171.761 131.525 171.435 131.525 171.046V164.195C131.525 163.744 131.61 163.373 131.779 163.085C131.963 162.784 132.323 162.633 132.859 162.633C133.269 162.633 133.593 162.771 133.833 163.047C134.073 163.323 134.193 163.65 134.193 164.026V164.666H136.353V163.913C136.353 163.449 136.261 163.022 136.078 162.633C135.908 162.232 135.668 161.887 135.358 161.598C134.723 161.008 133.897 160.714 132.88 160.714C132.358 160.714 131.878 160.795 131.441 160.958C131.017 161.109 130.65 161.322 130.34 161.598C130.029 161.874 129.789 162.2 129.62 162.577C129.45 162.953 129.366 163.361 129.366 163.8V171.178C129.366 171.792 129.471 172.301 129.683 172.702C129.909 173.091 130.191 173.411 130.53 173.662C130.869 173.913 131.25 174.089 131.674 174.189C132.097 174.289 132.513 174.339 132.923 174.339C133.403 174.339 133.847 174.258 134.257 174.095C134.68 173.919 135.047 173.687 135.358 173.398C135.668 173.11 135.908 172.784 136.078 172.42C136.261 172.043 136.353 171.648 136.353 171.234V170.406H134.193V171.065C134.193 171.328 134.151 171.548 134.066 171.723C133.982 171.899 133.876 172.037 133.749 172.137Z" fill="white"/>
<path d="M142.592 174.339V162.551H139.848V160.714H147.709V162.551H144.964V174.339H142.592Z" fill="white"/>
<path fill-rule="evenodd" clip-rule="evenodd" d="M142.328 174.555V162.766H139.584V160.498H147.969V162.766H145.225V174.555H142.328ZM144.963 162.551H147.707V160.714H139.846V162.551H142.59V174.339H144.963V162.551Z" fill="white"/>
<path d="M157.577 174.339V165.498H157.531L154.433 174.339H152.074V160.714H154.433V169.574H154.479L157.577 160.714H159.935V174.339H157.577Z" fill="white"/>
<path fill-rule="evenodd" clip-rule="evenodd" d="M157.315 174.555V166.892L154.63 174.555H151.812V160.498H154.695V168.177L157.38 160.498H160.198V174.555H157.315ZM154.479 169.574H154.433V160.714H152.075V174.339H154.433L157.531 165.498H157.577V174.339H159.936V160.714H157.577L154.479 169.574Z" fill="white"/>
</svg>
