<svg width="21" height="24" viewBox="0 0 21 24" fill="none" xmlns="http://www.w3.org/2000/svg">
<path d="M13.1 18C12.8 18 12.6 17.9 12.4 17.7C12 17.3 12 16.7 12.4 16.3L17.4 11.3C19.3 9.40001 19.3 6.30001 17.4 4.40001C15.5 2.50001 12.4 2.50001 10.5 4.40001L1.7 13.2C1.3 13.6 0.7 13.6 0.3 13.2C-0.1 12.8 -0.1 12.2 0.3 11.8L9 3.00001C11.7 0.300006 16 0.300006 18.7 3.00001C21.4 5.70001 21.4 10 18.7 12.7L13.7 17.7C13.6 17.9 13.4 18 13.1 18Z" fill="white"/>
<path d="M6.00039 23.4C4.70039 23.4 3.40039 22.9 2.40039 21.9C1.40039 20.9 0.900391 19.7 0.900391 18.3C0.900391 16.9 1.40039 15.7 2.40039 14.7L6.40039 10.7C6.80039 10.3 7.40039 10.3 7.80039 10.7C8.20039 11.1 8.20039 11.7 7.80039 12.1L3.80039 16.1C3.20039 16.7 2.90039 17.5 2.90039 18.3C2.90039 19.1 3.20039 19.9 3.80039 20.5C5.00039 21.7 7.00039 21.7 8.20039 20.5L12.2004 16.5C12.6004 16.1 13.2004 16.1 13.6004 16.5C14.0004 16.9 14.0004 17.5 13.6004 17.9L9.60039 21.9C8.60039 22.9 7.30039 23.4 6.00039 23.4Z" fill="white"/>
<path d="M8.59981 17.9C8.29981 17.9 8.0998 17.8 7.8998 17.6C7.4998 17.2 7.4998 16.6 7.8998 16.2L14.5998 9.5C15.1998 8.9 15.1998 8 14.5998 7.4C13.9998 6.9 13.0998 6.9 12.4998 7.4L7.4998 12.4C7.0998 12.8 6.4998 12.8 6.0998 12.4C5.6998 12 5.6998 11.4 6.0998 11L11.0998 6C11.7998 5.3 12.5998 5 13.4998 5C14.3998 5 15.2998 5.4 15.8998 6C17.1998 7.3 17.1998 9.5 15.8998 10.9L9.1998 17.6C9.0998 17.8 8.89981 17.9 8.59981 17.9Z" fill="white"/>
</svg>
