<svg width="21" height="24" fill="none" xmlns="http://www.w3.org/2000/svg"><path d="M13.1 18c-.3 0-.5-.1-.7-.3-.4-.4-.4-1 0-1.4l5-5c1.9-1.9 1.9-5 0-6.9-1.9-1.9-5-1.9-6.9 0l-8.8 8.8c-.4.4-1 .4-1.4 0-.4-.4-.4-1 0-1.4L9 3c2.7-2.7 7-2.7 9.7 0 2.7 2.7 2.7 7 0 9.7l-5 5c-.1.2-.3.3-.6.3z" fill="#fff"/><path d="M6 23.4c-1.3 0-2.6-.5-3.6-1.5S.9 19.7.9 18.3s.5-2.6 1.5-3.6l4-4c.4-.4 1-.4 1.4 0 .4.4.4 1 0 1.4l-4 4c-.6.6-.9 1.4-.9 2.2 0 .8.3 1.6.9 2.2 1.2 1.2 3.2 1.2 4.4 0l4-4c.4-.4 1-.4 1.4 0 .4.4.4 1 0 1.4l-4 4c-1 1-2.3 1.5-3.6 1.5z" fill="#fff"/><path d="M8.6 17.9c-.3 0-.5-.1-.7-.3-.4-.4-.4-1 0-1.4l6.7-6.7c.6-.6.6-1.5 0-2.1-.6-.5-1.5-.5-2.1 0l-5 5c-.4.4-1 .4-1.4 0-.4-.4-.4-1 0-1.4l5-5c.7-.7 1.5-1 2.4-1 .9 0 1.8.4 2.4 1 1.3 1.3 1.3 3.5 0 4.9l-6.7 6.7c-.1.2-.3.3-.6.3z" fill="#fff"/></svg>