<svg width="143" height="136" viewBox="0 0 143 136" fill="none" xmlns="http://www.w3.org/2000/svg">
<path d="M136.782 40.1465L104.452 7.46913C100.411 3.42336 94.1932 1.24487 87.9758 1.24487C85.7997 1.24487 83.9345 1.55608 82.0693 2.17851L80.8258 2.48972C77.7171 3.42336 73.6758 5.29064 69.9454 7.78034C63.728 4.97942 57.5106 1.8673 55.0237 1.24487L53.7802 0.933657C48.4954 -0.622407 41.3454 1.24487 37.3041 4.97942L4.6628 37.0343C0.932365 40.7689 -0.932852 48.238 0.621496 53.2174L1.24323 55.0847C2.79758 60.3753 7.46062 67.5332 11.1911 71.2678L17.7193 77.8032C16.165 82.4714 17.0976 87.4508 20.5171 90.563C22.0715 92.119 24.2476 93.3639 26.4237 93.6751C20.2063 99.8993 19.2737 108.925 24.5584 114.215C26.7345 116.394 29.8432 117.638 32.9519 117.638C34.5063 117.638 36.0606 117.327 37.615 117.016C37.615 120.128 38.8584 123.24 41.0345 125.419C43.2106 127.597 46.3193 128.842 49.428 128.842C52.5367 128.842 55.6454 127.908 58.4432 126.041C58.7541 128.531 59.9976 130.709 61.5519 132.265C63.728 134.444 66.8367 135.689 69.9454 135.689C74.2976 135.689 78.3389 133.822 81.7584 130.398L83.6237 128.531C85.7997 128.842 87.9758 128.842 89.841 127.597L91.0845 126.975C94.5041 125.108 96.0584 121.062 94.815 117.327L95.7476 116.394C98.5454 118.572 102.276 118.883 105.385 117.016L106.628 116.394C110.669 113.904 111.913 108.613 109.737 104.568L109.115 103.323L110.048 102.389C112.845 104.256 116.265 104.256 119.063 102.7L120.306 102.078C124.348 99.5881 125.591 94.2975 123.415 90.2517L123.104 89.6293L124.348 88.3845C126.835 89.6293 130.254 89.9405 132.741 88.0732L133.985 87.4508C138.026 84.9611 139.269 79.6705 137.093 75.6247L136.782 74.3799C138.958 70.9565 140.513 67.222 141.756 64.4211L142.378 62.5538C144.554 55.0847 142.378 45.4371 136.782 40.1465ZM136.471 60.6865L135.85 62.5538C135.228 64.4211 134.295 66.5996 133.052 68.7781L130.565 64.1099C128.078 60.0641 122.793 58.8192 118.752 61.3089L117.508 61.9314C113.467 64.4211 112.224 69.7117 114.4 73.7575L120.617 84.0275L120.306 84.3387L114.711 75.0023C112.224 70.9565 106.939 69.7117 102.898 72.2014L101.654 72.8238C97.6128 75.3135 96.3693 80.6041 98.5454 84.6499L106.628 98.0321L106.317 98.3433L103.208 93.3639C100.721 89.3181 95.4367 88.0732 91.3954 90.2517L90.1519 90.8742C86.1106 93.3639 84.8671 98.6545 87.0432 102.7L92.328 111.725L92.6389 112.037L91.7063 110.481C89.2193 106.435 83.9345 105.19 79.8932 107.368L78.6497 107.991C74.6084 110.481 73.365 115.771 75.5411 119.817L78.3389 124.796C78.3389 125.108 78.6497 125.108 78.9606 125.419L78.028 126.352C75.8519 128.531 72.7432 129.776 70.2563 129.776C68.7019 129.776 67.1476 129.153 65.9041 128.22C64.3498 126.664 64.0389 124.796 64.3498 122.307C64.6606 121.373 64.9715 120.128 65.5932 119.195C65.5932 119.195 65.5932 118.883 65.9041 118.883C66.215 118.572 66.215 117.95 66.5258 117.638C66.8367 117.016 67.4584 116.705 67.7693 116.082L85.7998 98.0321L82.0693 94.2975L56.8889 119.506C54.7128 121.684 51.6041 122.929 49.1171 122.929C47.5628 122.929 46.0084 122.307 44.765 121.373C41.9671 118.572 42.8997 113.281 46.6302 109.236L47.5628 108.302L48.1845 107.68L71.8106 84.0275L68.7019 80.9154L40.7237 108.924C38.5476 111.103 35.4389 112.348 32.9519 112.348C31.3976 112.348 29.8432 111.725 28.5998 110.792C25.8019 107.991 26.7345 102.7 30.465 98.6545L58.4432 70.6453L54.7128 66.9108L36.6824 84.9611C34.5063 87.1396 31.3976 88.3845 28.9106 88.3845C27.3563 88.3845 25.8019 87.762 24.5584 86.8284C23.6258 85.8948 23.315 84.9611 23.0041 83.7163C23.0041 82.7826 23.0041 81.849 23.315 80.6041V80.2929C23.315 79.9817 23.6258 79.6705 23.6258 79.3593C23.6258 79.0481 23.9367 78.4257 24.2476 78.1144C24.2476 77.8032 24.5584 77.8032 24.5584 77.492C24.8693 77.492 24.8693 76.8696 25.1802 76.5584L25.4911 76.2472C25.8019 75.936 26.1128 75.3135 26.7345 75.0023L44.765 56.952L42.8997 55.0847C41.9671 54.1511 41.3454 53.2174 40.7237 51.9726L29.8432 58.1968C28.2889 59.1305 26.4237 59.4417 24.5584 59.4417C21.4498 59.4417 18.3411 57.8856 16.4758 55.3959C13.678 51.3501 15.5432 45.7483 20.2063 42.9474L52.5367 24.5858C53.4693 25.8307 54.7128 27.0755 56.2671 28.0092L77.4063 42.0137C83.6237 46.0595 92.0171 45.1259 95.7476 39.524C99.478 33.9222 97.3019 25.8307 91.0845 21.7849L75.5411 11.5149C78.028 10.27 80.515 9.02519 82.6911 8.40276L83.9345 7.78034C85.178 7.46913 86.7324 7.15791 87.9758 7.15791C92.328 7.15791 97.3019 9.02519 100.1 11.8261L132.741 44.5035C136.471 48.238 138.337 55.3959 136.471 60.6865Z" fill="#D37700"/>
</svg>
