<svg width="143" height="136" fill="none" xmlns="http://www.w3.org/2000/svg"><path d="M136.782 40.147l-32.33-32.678c-4.041-4.046-10.259-6.224-16.476-6.224-2.176 0-4.041.311-5.907.934l-1.243.31c-3.109.934-7.15 2.802-10.88 5.291-6.218-2.8-12.435-5.913-14.922-6.535L53.78.934c-5.285-1.556-12.435.31-16.476 4.045L4.663 37.034C.933 40.77-.933 48.238.62 53.217l.622 1.868c1.555 5.29 6.218 12.448 9.948 16.183l6.528 6.535c-1.554 4.668-.621 9.648 2.798 12.76 1.555 1.556 3.73 2.8 5.907 3.112-6.218 6.224-7.15 15.25-1.866 20.54 2.177 2.179 5.285 3.423 8.394 3.423 1.554 0 3.109-.311 4.663-.622 0 3.112 1.243 6.224 3.42 8.403 2.176 2.178 5.284 3.423 8.393 3.423 3.109 0 6.217-.934 9.015-2.801.311 2.49 1.555 4.668 3.109 6.224 2.176 2.179 5.285 3.424 8.393 3.424 4.353 0 8.394-1.867 11.813-5.291l1.866-1.867c2.176.311 4.352.311 6.217-.934l1.244-.622c3.42-1.867 4.973-5.913 3.73-9.648l.933-.933c2.797 2.178 6.528 2.489 9.637.622l1.243-.622c4.041-2.49 5.285-7.781 3.109-11.826l-.622-1.245.933-.934c2.797 1.867 6.217 1.867 9.015.311l1.243-.622c4.042-2.49 5.285-7.78 3.109-11.826l-.311-.623 1.244-1.245c2.487 1.245 5.906 1.556 8.393-.31l1.244-.623c4.041-2.49 5.284-7.78 3.108-11.826l-.311-1.245c2.176-3.423 3.731-7.158 4.974-9.959l.622-1.867c2.176-7.47 0-17.117-5.596-22.407zm-.311 20.54l-.621 1.867a35.336 35.336 0 01-2.798 6.224l-2.487-4.668c-2.487-4.046-7.772-5.29-11.813-2.801l-1.244.622c-4.041 2.49-5.284 7.78-3.108 11.826l6.217 10.27-.311.312-5.595-9.337c-2.487-4.045-7.772-5.29-11.813-2.8l-1.244.622c-4.041 2.49-5.285 7.78-3.109 11.826l8.083 13.382-.311.311-3.109-4.98c-2.487-4.045-7.771-5.29-11.813-3.111l-1.243.622c-4.041 2.49-5.285 7.78-3.109 11.826l5.285 9.025.31.312-.932-1.556c-2.487-4.046-7.772-5.291-11.813-3.113l-1.243.623c-4.042 2.49-5.285 7.78-3.109 11.826l2.798 4.979c0 .312.31.312.622.623l-.933.933c-2.176 2.179-5.285 3.424-7.772 3.424-1.554 0-3.108-.623-4.352-1.556-1.554-1.556-1.865-3.424-1.554-5.913.31-.934.622-2.179 1.243-3.112 0 0 0-.312.311-.312.311-.311.311-.933.622-1.245.31-.622.932-.933 1.243-1.556l18.03-18.05-3.73-3.734-25.18 25.208c-2.176 2.178-5.285 3.423-7.772 3.423-1.554 0-3.109-.622-4.352-1.556-2.798-2.801-1.865-8.092 1.865-12.137l.933-.934.621-.622 23.627-23.653-3.11-3.112-27.977 28.009c-2.176 2.179-5.285 3.424-7.772 3.424-1.554 0-3.109-.623-4.352-1.556-2.798-2.801-1.866-8.092 1.865-12.138l27.978-28.009-3.73-3.734-18.03 18.05c-2.177 2.179-5.285 3.424-7.772 3.424-1.555 0-3.11-.623-4.353-1.557-.932-.933-1.243-1.867-1.554-3.112 0-.933 0-1.867.311-3.112v-.311c0-.311.31-.623.31-.934 0-.31.312-.933.623-1.245 0-.31.31-.31.31-.622.311 0 .311-.622.622-.934l.311-.31c.31-.312.622-.934 1.244-1.246l18.03-18.05-1.865-1.867c-.933-.934-1.555-1.868-2.176-3.112l-10.88 6.224c-1.555.933-3.42 1.245-5.286 1.245-3.108 0-6.217-1.556-8.082-4.046-2.798-4.046-.933-9.648 3.73-12.449l32.33-18.361c.933 1.245 2.177 2.49 3.731 3.423l21.14 14.005c6.217 4.045 14.61 3.112 18.34-2.49 3.731-5.602 1.555-13.693-4.662-17.74L75.54 11.515c2.487-1.244 4.974-2.489 7.15-3.111l1.243-.623c1.244-.31 2.798-.622 4.042-.622 4.352 0 9.326 1.867 12.124 4.668l32.641 32.678c3.73 3.734 5.596 10.892 3.73 16.183z" fill="#D37700"/></svg>