<svg width="45" height="60" viewBox="0 0 45 60" fill="none" xmlns="http://www.w3.org/2000/svg">
<path d="M27.2109 2.396L0.71325 46.9115L18.3658 57.4919L44.8635 12.9764L27.2109 2.396ZM17.7334 55.232L2.99598 46.3988L4.3108 44.19L7.46881 46.0828L8.294 44.6965L5.13599 42.8037L6.44893 40.598L8.31138 41.7143L9.13656 40.328L7.27411 39.2117L8.58893 37.0028L11.7469 38.8956L12.5721 37.5093L9.41412 35.6165L10.7289 33.4076L12.5914 34.5239L13.4166 33.1376L11.5541 32.0213L12.8671 29.8156L16.0251 31.7085L16.8503 30.3222L13.6923 28.4293L15.0071 26.2205L16.8695 27.3368L17.6947 25.9505L15.8323 24.8342L17.147 22.6254L20.305 24.5182L21.1302 23.1319L17.9722 21.2391L19.2852 19.0333L21.1477 20.1496L21.9728 18.7633L20.1104 17.647L21.4252 15.4381L24.5832 17.331L25.4084 15.9447L22.2504 14.0518L23.5652 11.8431L25.4276 12.9594L26.2528 11.5731L24.3903 10.4568L25.7037 8.25043L28.8617 10.1433L29.6869 8.75696L26.5289 6.86414L27.8433 4.6559L42.5807 13.4891L17.7334 55.232Z" fill="#6B6C6E"/>
<path d="M23.683 39.1562L22.2012 38.2798L15.1226 50.0378L16.6044 50.9142L23.683 39.1562Z" fill="#6B6C6E"/>
<path d="M27.5185 32.8447L26.0615 31.9712L23.9227 35.5653L25.3797 36.4388L27.5185 32.8447Z" fill="#6B6C6E"/>
<path d="M30.5054 17.3046C31.5605 17.9437 32.9002 17.6401 33.4977 16.6265C34.0952 15.6129 33.7243 14.2732 32.6692 13.6342C31.6141 12.9951 30.2744 13.2987 29.6769 14.3123C29.0793 15.3258 29.4503 16.6656 30.5054 17.3046Z" fill="#6B6C6E"/>
</svg>
