<svg width="45" height="60" fill="none" xmlns="http://www.w3.org/2000/svg"><path d="M27.21 2.396L.714 46.911l17.653 10.58 26.498-44.515L27.21 2.396zm-9.477 52.836L2.996 46.399l1.315-2.209 3.158 1.893.825-1.386-3.158-1.893 1.313-2.206 1.862 1.116.826-1.386-1.863-1.116 1.315-2.21 3.158 1.894.825-1.387-3.158-1.892 1.315-2.21 1.862 1.117.826-1.386-1.863-1.117 1.313-2.205 3.158 1.893.825-1.387-3.158-1.893 1.315-2.208 1.862 1.116.826-1.386-1.863-1.117 1.315-2.209 3.158 1.893.825-1.386-3.158-1.893 1.313-2.206 1.863 1.117.825-1.387-1.863-1.116 1.315-2.209 3.158 1.893.825-1.386-3.158-1.893 1.315-2.209 1.863 1.116.825-1.386-1.863-1.116 1.314-2.207 3.158 1.893.825-1.386-3.158-1.893 1.314-2.208 14.738 8.833-24.848 41.743z" fill="#6B6C6E"/><path d="M23.683 39.156l-1.482-.876-7.078 11.758 1.481.876 7.079-11.758zm3.835-6.311l-1.457-.874-2.138 3.594 1.457.874 2.139-3.594zm2.987-15.54c1.056.639 2.395.335 2.993-.678.597-1.014.226-2.354-.829-2.993-1.055-.639-2.395-.335-2.992.678-.598 1.014-.227 2.354.828 2.993z" fill="#6B6C6E"/></svg>