<svg width="28" height="45" fill="none" xmlns="http://www.w3.org/2000/svg"><path d="M15.867 20.625h-3.734v-3.75h3.734v3.75zm0-9.375h-3.734V15h3.734v-3.75zm5.6 16.875h-3.734v3.75h3.734v-3.75zm0-16.875h-3.734V15h3.734v-3.75zm0 11.25h-3.734v3.75h3.734V22.5zm0-16.875h-3.734v3.75h3.734v-3.75zm0 11.25h-3.734v3.75h3.734v-3.75zm-5.6-11.25h-3.734v3.75h3.734v-3.75zm-5.6 11.25H6.533v3.75h3.734v-3.75zm0 11.25H6.533v3.75h3.734v-3.75zm0-5.625H6.533v3.75h3.734V22.5zm15.12-18.75v39.375H28V45H0v-1.875h2.613V3.75H0V1.875h5.227V0h17.546v1.875H28V3.75h-2.613zM16.8 38.438a2.81 2.81 0 00-2.8-2.813 2.81 2.81 0 00-2.8 2.813v4.687h5.6v-4.688zM23.52 3.75H4.48v39.375h4.853v-4.688c0-2.585 2.094-4.687 4.667-4.687s4.667 2.102 4.667 4.688v4.687h4.853V3.75zm-7.653 24.375h-3.734v3.75h3.734v-3.75zm0-5.625h-3.734v3.75h3.734V22.5zm-5.6-11.25H6.533V15h3.734v-3.75zm0-5.625H6.533v3.75h3.734v-3.75z" fill="#6B6C6E"/></svg>