<svg width="53" height="49" viewBox="0 0 53 49" fill="none" xmlns="http://www.w3.org/2000/svg">
<path fill-rule="evenodd" clip-rule="evenodd" d="M51.005 44.4399H48.7022V18.8619C48.7022 17.0698 42.9453 12.4267 42.9453 12.4267C42.9453 12.4267 31.4314 17.0698 31.4314 18.8619V47.6168H26.4969V8.43523C26.4969 6.64314 19.0951 2 19.0951 2C19.0951 2 4.29162 6.64314 4.29162 8.43523V44.4399H1.82436C0.919705 44.4399 1.00195 45.173 1.00195 46.0691C1.00195 46.9651 0.919705 47.6983 1.82436 47.6983H51.005C52.1564 47.6983 51.9919 46.9651 51.9919 46.0691C51.9919 45.173 52.1564 44.4399 51.005 44.4399Z" stroke="#6B6C6E" stroke-width="2"/>
<path d="M19.0957 2V41.9962" stroke="#6B6C6E" stroke-width="2"/>
<path d="M6.75977 11.6122L12.5167 9.16846" stroke="#6B6C6E" stroke-width="2"/>
<path d="M6.75977 16.4179L12.5167 13.9741" stroke="#6B6C6E" stroke-width="2"/>
<path d="M6.75977 20.4091L12.5167 17.9653" stroke="#6B6C6E" stroke-width="2"/>
<path d="M6.75977 24.4009L12.5167 22.0386" stroke="#6B6C6E" stroke-width="2"/>
<path d="M6.75977 29.2075L12.5167 26.8452" stroke="#6B6C6E" stroke-width="2"/>
<path d="M6.75977 33.1987L12.5167 30.8364" stroke="#6B6C6E" stroke-width="2"/>
<path d="M6.75977 38.0049L12.5167 35.6426" stroke="#6B6C6E" stroke-width="2"/>
<path d="M6.75977 41.9956L12.5167 39.6333" stroke="#6B6C6E" stroke-width="2"/>
<path d="M14.1611 8.43519L16.6284 7.62061" stroke="#6B6C6E" stroke-width="2"/>
<path d="M14.1611 13.2418L16.6284 12.4272" stroke="#6B6C6E" stroke-width="2"/>
<path d="M14.1611 17.2326L16.6284 16.418" stroke="#6B6C6E" stroke-width="2"/>
<path d="M14.1611 21.2243L16.6284 20.4097" stroke="#6B6C6E" stroke-width="2"/>
<path d="M14.1611 26.0299L16.6284 25.2153" stroke="#6B6C6E" stroke-width="2"/>
<path d="M14.1611 30.0216L16.6284 29.207" stroke="#6B6C6E" stroke-width="2"/>
<path d="M14.1611 34.8273L16.6284 34.0127" stroke="#6B6C6E" stroke-width="2"/>
<path d="M14.1611 38.8195L16.6284 38.0049" stroke="#6B6C6E" stroke-width="2"/>
<path d="M42.9453 12.4272V41.9967" stroke="#6B6C6E" stroke-width="2"/>
<path d="M33.8994 21.2245L39.6563 18.7808" stroke="#6B6C6E" stroke-width="2"/>
<path d="M33.8994 25.2157L39.6563 22.772" stroke="#6B6C6E" stroke-width="2"/>
<path d="M33.8994 29.2075L39.6563 26.8452" stroke="#6B6C6E" stroke-width="2"/>
<path d="M33.8994 34.0131L39.6563 31.5693" stroke="#6B6C6E" stroke-width="2"/>
<path d="M33.8994 38.0049L39.6563 35.6426" stroke="#6B6C6E" stroke-width="2"/>
</svg>
