<svg width="51" height="50" viewBox="0 0 51 50" fill="none" xmlns="http://www.w3.org/2000/svg">
<path d="M6.99194 49.6061H51V6.83195H7.81452V0.662598H6.99194C3.12581 0.662598 0 3.7884 0 7.65453V42.6142C0 46.4803 3.12581 49.6061 6.99194 49.6061ZM1.64516 7.65453C1.64516 4.98115 3.61935 2.76018 6.16935 2.39002V18.965C6.16935 26.1626 6.16935 33.3602 6.16935 35.6634C4.35968 35.869 2.75565 36.7739 1.64516 38.09V7.65453ZM1.64516 42.6142C1.64516 39.6529 4.03065 37.2674 6.99194 37.2674H7.81452V8.47711H49.3548V47.961H6.99194C4.03065 47.961 1.64516 45.5755 1.64516 42.6142Z" fill="#6B6C6E"/>
<path d="M45.2413 20.8161H31.2574V19.9936H29.6122V22.4613H43.5961V42.2032H31.2574V27.3968H29.6122V42.2032H13.5719V22.4613H23.0316V19.5823H21.3864V20.8161H13.5719V14.2355H29.6122V15.0581H31.2574V12.5903H11.9268V43.8484H45.2413V20.8161Z" fill="#6B6C6E"/>
</svg>
