<svg width="46" height="43" fill="none" xmlns="http://www.w3.org/2000/svg"><path d="M45.48 30.324a4.726 4.726 0 00-2.583-2.766 4.72 4.72 0 00-3.786-.022l-8.217 3.47a2.9 2.9 0 00-2.883-3.206h-5.928c-.242 0-.477-.051-.697-.154l-5.025-2.267a6.106 6.106 0 00-2.524-.55H9.582v-.411c0-.807-.653-1.467-1.468-1.467H0v18.517h8.114c.815 0 1.468-.66 1.468-1.467v-1.152h2.355l8.767 2.817a7.45 7.45 0 002.23.345 7.298 7.298 0 003.434-.851l19.331-10.242-.22-.594zM5.157 38.746a1.03 1.03 0 010-2.061 1.032 1.032 0 010 2.061zm20.527 1.115a5.878 5.878 0 01-4.534.404l-8.877-2.854-2.692-.03V26.297h4.255c.66 0 1.32.147 1.915.418l5.025 2.275c.411.183.851.278 1.306.278h5.928c.792 0 1.43.646 1.43 1.431 0 .792-.638 1.43-1.43 1.43h-7.674v1.468h7.674a2.81 2.81 0 001.46-.396l10.213-4.314a3.302 3.302 0 012.626.015 3.333 3.333 0 011.526 1.35l-18.15 9.61zM6.646 19.992l4.57-2.53 4.474 2.695-.996-5.128 3.283-2.847-1.212 5.222a.733.733 0 001.07.807l5.079-2.813 4.972 2.996a.733.733 0 001.098-.768l-1.106-5.7.104-.09 3.29 3.068-1.181 5.088 4.569-2.53 4.474 2.695-.996-5.128 3.946-3.422-5.184-.638-2.035-4.81-2.209 4.733-3.981.344 3.59-3.113a.732.732 0 00-.392-1.283l-5.763-.708L23.85.785a.734.734 0 00-.662-.448h-.014a.734.734 0 00-.665.424l-2.454 5.26-5.784.5a.734.734 0 00-.438 1.268l3.984 3.716-4.36-.536-2.035-4.81-2.209 4.733-5.204.45 3.82 3.562-1.182 5.088zM20.602 7.447a.733.733 0 00.602-.42l1.936-4.15 1.785 4.217c.102.242.326.41.586.442l4.545.56-3.46 3a.732.732 0 00-.24.694l.873 4.495-3.922-2.362a.732.732 0 00-.734-.014l-4.006 2.22 1.035-4.462a.735.735 0 00-.213-.702l-3.35-3.124 4.563-.394z" fill="gray"/></svg>