<svg width="34" height="42" viewBox="0 0 34 42" fill="none" xmlns="http://www.w3.org/2000/svg">
<g opacity="0.5">
<mask id="path-1-inside-1" fill="white">
<path d="M33.1421 20.5638V11.626H31.4495V7.39223V6.72021V0H30.0954V6.72021H0.744767V11.626H0V12.97H0.744767V17.8758H7.58308V41.6653H8.9372V17.8758H31.4495V12.97H31.788V19.4214L14.8615 22.2103V29.0985H12.898V41.6653H18.2129V29.1321H16.2156V23.3527L33.1421 20.5638ZM30.0954 16.5317H2.09889V8.06425H30.0954V16.5317ZM16.825 40.3212H14.2183V30.4761H16.825V40.3212Z"/>
</mask>
<path d="M33.1421 20.5638V11.626H31.4495V7.39223V6.72021V0H30.0954V6.72021H0.744767V11.626H0V12.97H0.744767V17.8758H7.58308V41.6653H8.9372V17.8758H31.4495V12.97H31.788V19.4214L14.8615 22.2103V29.0985H12.898V41.6653H18.2129V29.1321H16.2156V23.3527L33.1421 20.5638ZM30.0954 16.5317H2.09889V8.06425H30.0954V16.5317ZM16.825 40.3212H14.2183V30.4761H16.825V40.3212Z" fill="black"/>
<path d="M33.1421 20.5638L33.4673 22.5372L35.1421 22.2613V20.5638H33.1421ZM33.1421 11.626H35.1421V9.62596H33.1421V11.626ZM31.4495 11.626H29.4495V13.626H31.4495V11.626ZM31.4495 0H33.4495V-2H31.4495V0ZM30.0954 0V-2H28.0954V0H30.0954ZM30.0954 6.72021V8.72021H32.0954V6.72021H30.0954ZM0.744767 6.72021V4.72021H-1.25523V6.72021H0.744767ZM0.744767 11.626V13.626H2.74477V11.626H0.744767ZM0 11.626V9.62596H-2V11.626H0ZM0 12.97H-2V14.97H0V12.97ZM0.744767 12.97H2.74477V10.97H0.744767V12.97ZM0.744767 17.8758H-1.25523V19.8758H0.744767V17.8758ZM7.58308 17.8758H9.58308V15.8758H7.58308V17.8758ZM7.58308 41.6653H5.58308V43.6653H7.58308V41.6653ZM8.9372 41.6653V43.6653H10.9372V41.6653H8.9372ZM8.9372 17.8758V15.8758H6.9372V17.8758H8.9372ZM31.4495 17.8758V19.8758H33.4495V17.8758H31.4495ZM31.4495 12.97V10.97H29.4495V12.97H31.4495ZM31.788 12.97H33.788V10.97H31.788V12.97ZM31.788 19.4214L32.1132 21.3948L33.788 21.1188V19.4214H31.788ZM14.8615 22.2103L14.5363 20.2369L12.8615 20.5128V22.2103H14.8615ZM14.8615 29.0985V31.0985H16.8615V29.0985H14.8615ZM12.898 29.0985V27.0985H10.898V29.0985H12.898ZM12.898 41.6653H10.898V43.6653H12.898V41.6653ZM18.2129 41.6653V43.6653H20.2129V41.6653H18.2129ZM18.2129 29.1321H20.2129V27.1321H18.2129V29.1321ZM16.2156 29.1321H14.2156V31.1321H16.2156V29.1321ZM16.2156 23.3527L15.8905 21.3793L14.2156 21.6553V23.3527H16.2156ZM30.0954 16.5317V18.5317H32.0954V16.5317H30.0954ZM2.09889 16.5317H0.0988886V18.5317H2.09889V16.5317ZM2.09889 8.06425V6.06425H0.0988886V8.06425H2.09889ZM30.0954 8.06425H32.0954V6.06425H30.0954V8.06425ZM16.825 40.3212V42.3212H18.825V40.3212H16.825ZM14.2183 40.3212H12.2183V42.3212H14.2183V40.3212ZM14.2183 30.4761V28.4761H12.2183V30.4761H14.2183ZM16.825 30.4761H18.825V28.4761H16.825V30.4761ZM35.1421 20.5638V11.626H31.1421V20.5638H35.1421ZM33.1421 9.62596H31.4495V13.626H33.1421V9.62596ZM33.4495 11.626V7.39223H29.4495V11.626H33.4495ZM33.4495 7.39223V6.72021H29.4495V7.39223H33.4495ZM33.4495 6.72021V0H29.4495V6.72021H33.4495ZM31.4495 -2H30.0954V2H31.4495V-2ZM28.0954 0V6.72021H32.0954V0H28.0954ZM30.0954 4.72021H0.744767V8.72021H30.0954V4.72021ZM-1.25523 6.72021V11.626H2.74477V6.72021H-1.25523ZM0.744767 9.62596H0V13.626H0.744767V9.62596ZM-2 11.626V12.97H2V11.626H-2ZM0 14.97H0.744767V10.97H0V14.97ZM-1.25523 12.97V17.8758H2.74477V12.97H-1.25523ZM0.744767 19.8758H7.58308V15.8758H0.744767V19.8758ZM5.58308 17.8758V41.6653H9.58308V17.8758H5.58308ZM7.58308 43.6653H8.9372V39.6653H7.58308V43.6653ZM10.9372 41.6653V17.8758H6.9372V41.6653H10.9372ZM8.9372 19.8758H31.4495V15.8758H8.9372V19.8758ZM33.4495 17.8758V12.97H29.4495V17.8758H33.4495ZM31.4495 14.97H31.788V10.97H31.4495V14.97ZM29.788 12.97V19.4214H33.788V12.97H29.788ZM31.4629 17.448L14.5363 20.2369L15.1866 24.1837L32.1132 21.3948L31.4629 17.448ZM12.8615 22.2103V29.0985H16.8615V22.2103H12.8615ZM14.8615 27.0985H12.898V31.0985H14.8615V27.0985ZM10.898 29.0985V41.6653H14.898V29.0985H10.898ZM12.898 43.6653H18.2129V39.6653H12.898V43.6653ZM20.2129 41.6653V29.1321H16.2129V41.6653H20.2129ZM18.2129 27.1321H16.2156V31.1321H18.2129V27.1321ZM18.2156 29.1321V23.3527H14.2156V29.1321H18.2156ZM16.5408 25.3261L33.4673 22.5372L32.817 18.5904L15.8905 21.3793L16.5408 25.3261ZM30.0954 14.5317H2.09889V18.5317H30.0954V14.5317ZM4.09889 16.5317V8.06425H0.0988886V16.5317H4.09889ZM2.09889 10.0642H30.0954V6.06425H2.09889V10.0642ZM28.0954 8.06425V16.5317H32.0954V8.06425H28.0954ZM16.825 38.3212H14.2183V42.3212H16.825V38.3212ZM16.2183 40.3212V30.4761H12.2183V40.3212H16.2183ZM14.2183 32.4761H16.825V28.4761H14.2183V32.4761ZM14.825 30.4761V40.3212H18.825V30.4761H14.825Z" fill="black" mask="url(#path-1-inside-1)"/>
</g>
</svg>
