<svg width="55" height="33" viewBox="0 0 55 33" fill="none" xmlns="http://www.w3.org/2000/svg">
<path fill-rule="evenodd" clip-rule="evenodd" d="M24.625 29.6316C24.625 30.5579 23.8656 31.3158 22.9375 31.3158H11.9688C11.0406 31.3158 10.2812 30.5579 10.2812 29.6316V25.421C10.2812 24.4947 11.0406 23.7368 11.9688 23.7368H22.9375C23.8656 23.7368 24.625 24.4947 24.625 25.421V29.6316Z" stroke="#6B6C6E" stroke-width="2"/>
<path fill-rule="evenodd" clip-rule="evenodd" d="M38.9688 29.6316C38.9688 30.5579 38.2094 31.3158 37.2812 31.3158H26.3125C25.3844 31.3158 24.625 30.5579 24.625 29.6316V25.421C24.625 24.4947 25.3844 23.7368 26.3125 23.7368H37.2812C38.2094 23.7368 38.9688 24.4947 38.9688 25.421V29.6316Z" stroke="#6B6C6E" stroke-width="2"/>
<path fill-rule="evenodd" clip-rule="evenodd" d="M53.3125 29.6316C53.3125 30.5579 52.5531 31.3158 51.625 31.3158H40.6562C39.7281 31.3158 38.9688 30.5579 38.9688 29.6316V25.421C38.9688 24.4947 39.7281 23.7368 40.6562 23.7368H51.625C52.5531 23.7368 53.3125 24.4947 53.3125 25.421V29.6316Z" stroke="#6B6C6E" stroke-width="2"/>
<path fill-rule="evenodd" clip-rule="evenodd" d="M10.2812 29.6316C10.2812 30.5579 9.52188 31.3158 8.59375 31.3158H2.6875C1.75937 31.3158 1 30.5579 1 29.6316V25.421C1 24.4947 1.75937 23.7368 2.6875 23.7368H8.59375C9.52188 23.7368 10.2812 24.4947 10.2812 25.421V29.6316Z" stroke="#6B6C6E" stroke-width="2"/>
<path fill-rule="evenodd" clip-rule="evenodd" d="M24.625 14.4738C24.625 15.4002 23.8656 16.158 22.9375 16.158H11.9688C11.0406 16.158 10.2812 15.4002 10.2812 14.4738V10.2633C10.2812 9.337 11.0406 8.5791 11.9688 8.5791H22.9375C23.8656 8.5791 24.625 9.337 24.625 10.2633V14.4738Z" stroke="#6B6C6E" stroke-width="2"/>
<path fill-rule="evenodd" clip-rule="evenodd" d="M38.9688 14.4738C38.9688 15.4002 38.2094 16.158 37.2812 16.158H26.3125C25.3844 16.158 24.625 15.4002 24.625 14.4738V10.2633C24.625 9.337 25.3844 8.5791 26.3125 8.5791H37.2812C38.2094 8.5791 38.9688 9.337 38.9688 10.2633V14.4738Z" stroke="#6B6C6E" stroke-width="2"/>
<path fill-rule="evenodd" clip-rule="evenodd" d="M53.3125 14.4738C53.3125 15.4002 52.5531 16.158 51.625 16.158H40.6562C39.7281 16.158 38.9688 15.4002 38.9688 14.4738V10.2633C38.9688 9.337 39.7281 8.5791 40.6562 8.5791H51.625C52.5531 8.5791 53.3125 9.337 53.3125 10.2633V14.4738Z" stroke="#6B6C6E" stroke-width="2"/>
<path fill-rule="evenodd" clip-rule="evenodd" d="M10.2812 14.4738C10.2812 15.4002 9.52188 16.158 8.59375 16.158H2.6875C1.75937 16.158 1 15.4002 1 14.4738V10.2633C1 9.337 1.75937 8.5791 2.6875 8.5791H8.59375C9.52188 8.5791 10.2812 9.337 10.2812 10.2633V14.4738Z" stroke="#6B6C6E" stroke-width="2"/>
<path fill-rule="evenodd" clip-rule="evenodd" d="M15.3438 6.89474C15.3438 7.82105 14.5844 8.57895 13.6562 8.57895H2.6875C1.75937 8.57895 1 7.82105 1 6.89474V2.68421C1 1.75789 1.75937 1 2.6875 1H13.6562C14.5844 1 15.3438 1.75789 15.3438 2.68421V6.89474Z" stroke="#6B6C6E" stroke-width="2"/>
<path fill-rule="evenodd" clip-rule="evenodd" d="M29.6875 6.89474C29.6875 7.82105 28.9281 8.57895 28 8.57895H17.0312C16.1031 8.57895 15.3438 7.82105 15.3438 6.89474V2.68421C15.3438 1.75789 16.1031 1 17.0312 1H28C28.9281 1 29.6875 1.75789 29.6875 2.68421V6.89474Z" stroke="#6B6C6E" stroke-width="2"/>
<path fill-rule="evenodd" clip-rule="evenodd" d="M44.0312 6.89474C44.0312 7.82105 43.2719 8.57895 42.3438 8.57895H31.375C30.4469 8.57895 29.6875 7.82105 29.6875 6.89474V2.68421C29.6875 1.75789 30.4469 1 31.375 1H42.3438C43.2719 1 44.0312 1.75789 44.0312 2.68421V6.89474Z" stroke="#6B6C6E" stroke-width="2"/>
<path fill-rule="evenodd" clip-rule="evenodd" d="M15.3438 22.0525C15.3438 22.9788 14.5844 23.7367 13.6562 23.7367H2.6875C1.75937 23.7367 1 22.9788 1 22.0525V17.8419C1 16.9156 1.75937 16.1577 2.6875 16.1577H13.6562C14.5844 16.1577 15.3438 16.9156 15.3438 17.8419V22.0525Z" stroke="#6B6C6E" stroke-width="2"/>
<path fill-rule="evenodd" clip-rule="evenodd" d="M29.6875 22.0525C29.6875 22.9788 28.9281 23.7367 28 23.7367H17.0312C16.1031 23.7367 15.3438 22.9788 15.3438 22.0525V17.8419C15.3438 16.9156 16.1031 16.1577 17.0312 16.1577H28C28.9281 16.1577 29.6875 16.9156 29.6875 17.8419V22.0525Z" stroke="#6B6C6E" stroke-width="2"/>
<path fill-rule="evenodd" clip-rule="evenodd" d="M44.0312 22.0525C44.0312 22.9788 43.2719 23.7367 42.3438 23.7367H31.375C30.4469 23.7367 29.6875 22.9788 29.6875 22.0525V17.8419C29.6875 16.9156 30.4469 16.1577 31.375 16.1577H42.3438C43.2719 16.1577 44.0312 16.9156 44.0312 17.8419V22.0525Z" stroke="#6B6C6E" stroke-width="2"/>
<path fill-rule="evenodd" clip-rule="evenodd" d="M53.3125 22.0525C53.3125 22.9788 52.5531 23.7367 51.625 23.7367H45.7188C44.7906 23.7367 44.0312 22.9788 44.0312 22.0525V17.8419C44.0312 16.9156 44.7906 16.1577 45.7188 16.1577H51.625C52.5531 16.1577 53.3125 16.9156 53.3125 17.8419V22.0525Z" stroke="#6B6C6E" stroke-width="2"/>
</svg>
