<svg width="51" height="36" viewBox="0 0 51 36" fill="none" xmlns="http://www.w3.org/2000/svg">
<path d="M39.639 36C39.5761 36 39.5124 35.9991 39.4488 35.9957C37.5894 35.8981 36.1249 34.3275 36.0663 32.3951L34.1967 32.4273C34.1967 34.4599 32.4927 36.0908 30.4331 35.9957C28.5737 35.8981 27.1091 34.3275 27.0506 32.3951L25.181 32.4273C25.181 34.4599 23.466 36.0908 21.4165 35.9957C19.5571 35.8981 18.0925 34.3275 18.034 32.3951L16.1645 32.4273C16.1645 34.4599 14.4528 36.0908 12.3999 35.9957C10.5414 35.8981 9.07682 34.3275 9.01822 32.3951L7.14876 32.4273C7.14876 34.4599 5.44049 36.0908 3.3842 35.9957C1.48666 35.8965 0 34.2621 0 32.2746V3.57603C0 1.54182 1.70314 -0.112112 3.76456 0.0059522C5.62394 0.103585 7.08843 1.6751 7.14703 3.60829L9.01657 3.57603C9.01657 1.54182 10.7163 -0.112112 12.7811 0.0059522C14.6396 0.103585 16.1041 1.6751 16.1627 3.60829L18.0323 3.57603C18.0323 1.54182 19.7295 -0.112112 21.7968 0.0059522C23.6562 0.103585 25.1207 1.6751 25.1793 3.60829L27.0488 3.57603C27.0488 1.54182 28.7418 -0.112112 30.8125 0.0059522C32.6719 0.103585 34.1364 1.6751 34.195 3.60829L36.0645 3.57603C36.0645 1.54182 37.7686 -0.112112 39.8291 0.0059522C41.7267 0.105237 43.2133 1.74048 43.2133 3.72887V32.4273C43.2133 33.3816 42.8414 34.279 42.1665 34.954C41.4915 35.629 40.5941 36 39.639 36ZM33.3274 30.6563H36.9339C37.4145 30.6563 37.8033 31.0451 37.8033 31.5257V32.2746C37.8033 33.3188 38.5819 34.2086 39.5387 34.2587L39.639 34.2612C40.1297 34.2612 40.5907 34.0711 40.9371 33.7246C41.2835 33.3783 41.4745 32.9172 41.4745 32.4273V3.72887C41.4745 2.68369 40.696 1.79221 39.7391 1.743L39.639 1.74048C38.6269 1.74048 37.8033 2.56397 37.8033 3.57603V4.47768C37.8033 4.9582 37.4145 5.34708 36.9339 5.34708H33.3274C32.8468 5.34708 32.458 4.9582 32.458 4.47768V3.72887C32.458 2.68369 31.6794 1.79221 30.7226 1.743L30.6224 1.74048C29.6103 1.74048 28.7876 2.56397 28.7876 3.57603V4.47768C28.7876 4.9582 28.3988 5.34708 27.9182 5.34708H24.3116C23.831 5.34708 23.4423 4.9582 23.4423 4.47768V3.72887C23.4423 2.68369 22.6637 1.79221 21.7069 1.743L21.6066 1.74048C20.5946 1.74048 19.7711 2.56397 19.7711 3.57603V4.47768C19.7711 4.9582 19.3822 5.34708 18.9017 5.34708H15.2951C14.8145 5.34708 14.4257 4.9582 14.4257 4.47768V3.72887C14.4257 2.68369 13.6471 1.79221 12.6912 1.743L12.5909 1.74048C11.5789 1.74048 10.7554 2.56397 10.7554 3.57603V4.47768C10.7554 4.9582 10.3665 5.34708 9.88597 5.34708H6.27937C5.79877 5.34708 5.40998 4.9582 5.40998 4.47768V3.72887C5.40998 2.68369 4.63135 1.79221 3.67458 1.743L3.57434 1.74048C2.56236 1.74048 1.73879 2.56397 1.73879 3.57603V32.2746C1.73879 33.3188 2.51733 34.2095 3.47418 34.2587L3.57434 34.2612C4.5864 34.2612 5.40998 33.4385 5.40998 32.4273V31.5257C5.40998 31.0451 5.79877 30.6563 6.27937 30.6563H9.88597C10.3665 30.6563 10.7554 31.0451 10.7554 31.5257V32.2746C10.7554 33.3188 11.5339 34.2095 12.4899 34.2587L12.59 34.2612C13.6021 34.2612 14.4257 33.4385 14.4257 32.4273V31.5257C14.4257 31.0451 14.8145 30.6563 15.2951 30.6563H18.9017C19.3822 30.6563 19.7711 31.0451 19.7711 31.5257V32.2746C19.7711 33.3188 20.5496 34.2095 21.5065 34.2587L21.6066 34.2612C22.6187 34.2612 23.4423 33.4385 23.4423 32.4273V31.5257C23.4423 31.0451 23.831 30.6563 24.3116 30.6563H27.9182C28.3988 30.6563 28.7876 31.0451 28.7876 31.5257V32.2746C28.7876 33.3188 29.5662 34.2095 30.523 34.2587L30.6232 34.2612C31.6352 34.2612 32.458 33.4385 32.458 32.4273V31.5257C32.458 31.0451 32.8468 30.6563 33.3274 30.6563Z" fill="#808080"/>
<path d="M6.27857 32.3947C5.79797 32.3947 5.40918 32.0059 5.40918 31.5253V4.4773C5.40918 3.99679 5.79797 3.60791 6.27857 3.60791C6.75908 3.60791 7.14796 3.99679 7.14796 4.4773V31.5253C7.14796 32.0059 6.75908 32.3947 6.27857 32.3947Z" fill="#808080"/>
<path d="M15.2952 32.3947C14.8146 32.3947 14.4258 32.0059 14.4258 31.5253V4.4773C14.4258 3.99679 14.8146 3.60791 15.2952 3.60791C15.7757 3.60791 16.1646 3.99679 16.1646 4.4773V31.5253C16.1646 32.0059 15.7757 32.3947 15.2952 32.3947Z" fill="#808080"/>
<path d="M24.3118 32.3947C23.8312 32.3947 23.4424 32.0059 23.4424 31.5253V4.4773C23.4424 3.99679 23.8312 3.60791 24.3118 3.60791C24.7923 3.60791 25.1812 3.99679 25.1812 4.4773V31.5253C25.1812 32.0059 24.7923 32.3947 24.3118 32.3947Z" fill="#808080"/>
<path d="M33.3274 32.3947C32.8469 32.3947 32.458 32.0059 32.458 31.5253V4.4773C32.458 3.99679 32.8469 3.60791 33.3274 3.60791C33.8079 3.60791 34.1968 3.99679 34.1968 4.4773V31.5253C34.1968 32.0059 33.8079 32.3947 33.3274 32.3947Z" fill="#808080"/>
<path d="M47.7547 10.1476H45.9514C45.4709 10.1476 45.082 9.75875 45.082 9.27823V5.67164C45.082 5.19104 45.4709 4.80225 45.9514 4.80225H47.7547C49.2278 4.80225 50.4258 6.00105 50.4258 7.47494C50.4258 8.94882 49.2278 10.1476 47.7547 10.1476ZM46.8208 8.40884H47.7547C48.2684 8.40884 48.687 7.99031 48.687 7.47494C48.687 6.95956 48.2684 6.54103 47.7547 6.54103H46.8208V8.40884Z" fill="#808080"/>
<path d="M45.9494 8.34426H42.7708C42.2902 8.34426 41.9014 7.95538 41.9014 7.47486C41.9014 6.99426 42.2902 6.60547 42.7708 6.60547H45.9494C46.43 6.60547 46.8188 6.99426 46.8188 7.47486C46.8188 7.95538 46.43 8.34426 45.9494 8.34426Z" fill="#808080"/>
<path d="M9.88599 33.1439C9.40548 33.1439 9.0166 32.755 9.0166 32.2745V3.57594C9.0166 3.09542 9.40548 2.70654 9.88599 2.70654C10.3665 2.70654 10.7554 3.09542 10.7554 3.57594V32.2745C10.7554 32.755 10.3665 33.1439 9.88599 33.1439Z" fill="#808080"/>
<path d="M18.9026 32.3947C18.4221 32.3947 18.0332 32.0059 18.0332 31.5253V4.4773C18.0332 3.99679 18.4221 3.60791 18.9026 3.60791C19.3831 3.60791 19.772 3.99679 19.772 4.4773V31.5253C19.772 32.0059 19.3831 32.3947 18.9026 32.3947Z" fill="#808080"/>
<path d="M27.9182 32.3947C27.4377 32.3947 27.0488 32.0059 27.0488 31.5253V4.4773C27.0488 3.99679 27.4377 3.60791 27.9182 3.60791C28.3987 3.60791 28.7876 3.99679 28.7876 4.4773V31.5253C28.7876 32.0059 28.3987 32.3947 27.9182 32.3947Z" fill="#808080"/>
<path d="M36.9338 33.1436C36.4533 33.1436 36.0645 32.7547 36.0645 32.2742V4.4773C36.0645 3.99679 36.4533 3.60791 36.9338 3.60791C37.4145 3.60791 37.8032 3.99679 37.8032 4.4773V32.2742C37.8032 32.7547 37.4145 33.1436 36.9338 33.1436Z" fill="#808080"/>
<path d="M3.47682 31.0418C2.9963 31.0418 2.60742 30.6529 2.60742 30.1724V5.82935C2.60742 5.34884 2.9963 4.95996 3.47682 4.95996C3.95733 4.95996 4.34621 5.34884 4.34621 5.82935V30.1724C4.34621 30.6529 3.95733 31.0418 3.47682 31.0418Z" fill="#808080"/>
<path d="M12.5413 31.0418C12.0608 31.0418 11.6719 30.6529 11.6719 30.1724V5.82935C11.6719 5.34884 12.0608 4.95996 12.5413 4.95996C13.0218 4.95996 13.4107 5.34884 13.4107 5.82935V30.1724C13.4107 30.6529 13.0218 31.0418 12.5413 31.0418Z" fill="#808080"/>
<path d="M21.6038 31.0418C21.1233 31.0418 20.7344 30.6529 20.7344 30.1724V5.82935C20.7344 5.34884 21.1233 4.95996 21.6038 4.95996C22.0843 4.95996 22.4732 5.34884 22.4732 5.82935V30.1724C22.4732 30.6529 22.0843 31.0418 21.6038 31.0418Z" fill="#808080"/>
<path d="M30.6682 30.9651C30.1877 30.9651 29.7988 30.5762 29.7988 30.0957V5.75269C29.7988 5.27218 30.1877 4.8833 30.6682 4.8833C31.1487 4.8833 31.5376 5.27218 31.5376 5.75269V30.0957C31.5376 30.5762 31.1487 30.9651 30.6682 30.9651Z" fill="#808080"/>
<path d="M39.7317 30.9651C39.2512 30.9651 38.8623 30.5762 38.8623 30.0957V5.75269C38.8623 5.27218 39.2512 4.8833 39.7317 4.8833C40.2122 4.8833 40.6011 5.27218 40.6011 5.75269V30.0957C40.6011 30.5762 40.2122 30.9651 39.7317 30.9651Z" fill="#808080"/>
</svg>
