<svg width="51" height="54" viewBox="0 0 51 54" fill="none" xmlns="http://www.w3.org/2000/svg">
<path fill-rule="evenodd" clip-rule="evenodd" d="M2.60673 9.74353H0V7.9751H2.60673V9.74353Z" fill="black"/>
<path fill-rule="evenodd" clip-rule="evenodd" d="M7.59208 9.74305H4.98535V7.97461H7.59208V9.74305Z" fill="black"/>
<path fill-rule="evenodd" clip-rule="evenodd" d="M12.5813 9.74305H9.97461V7.97461H12.5813V9.74305Z" fill="black"/>
<path fill-rule="evenodd" clip-rule="evenodd" d="M41.0276 9.74353H38.4209V7.9751H41.0276V9.74353Z" fill="black"/>
<path fill-rule="evenodd" clip-rule="evenodd" d="M46.014 9.74305H43.4072V7.97461H46.014V9.74305Z" fill="black"/>
<path fill-rule="evenodd" clip-rule="evenodd" d="M51.0003 9.74305H48.3936V7.97461H51.0003V9.74305Z" fill="black"/>
<path fill-rule="evenodd" clip-rule="evenodd" d="M7.43315 31.4571C7.26556 31.4824 7.12545 31.6362 7.12545 31.8067V43.0559C7.12545 43.2425 7.29328 43.4091 7.4813 43.4091H44.3155C44.4609 43.4091 44.5582 43.3611 44.6072 43.3185C44.6469 43.2841 44.6713 43.2426 44.6713 43.1684V31.9192C44.6713 31.7479 44.5299 31.5935 44.3613 31.5693L29.5361 33.8158H22.2573L7.43315 31.4571ZM5.34375 31.8067C5.34375 30.6434 6.30928 29.6851 7.4813 29.6851H7.55225L22.3993 32.0474H29.4009L44.2479 29.7975H44.3155C45.4875 29.7975 46.453 30.7559 46.453 31.9192V43.1684C46.453 44.4389 45.372 45.1775 44.3155 45.1775H7.4813C6.30928 45.1775 5.34375 44.2192 5.34375 43.0559V31.8067Z" fill="black"/>
<path fill-rule="evenodd" clip-rule="evenodd" d="M3.98764 43.9775C4.37553 43.5925 4.8968 43.4092 5.43925 43.4092H46.9202C47.4902 43.4092 47.9988 43.6826 48.3365 44.0416C48.6575 44.383 48.9118 44.9011 48.8311 45.4895V47.6682C48.8311 48.2066 48.6464 48.724 48.2585 49.109C47.8706 49.494 47.3493 49.6773 46.8069 49.6773H5.43925C4.8968 49.6773 4.37553 49.494 3.98764 49.109C3.59974 48.724 3.41504 48.2066 3.41504 47.6682V45.4183C3.41504 44.8799 3.59974 44.3625 3.98764 43.9775ZM5.24749 45.228C5.2387 45.2367 5.19674 45.2818 5.19674 45.4183V47.6682C5.19674 47.8047 5.2387 47.8498 5.24749 47.8585C5.25627 47.8672 5.30168 47.9089 5.43925 47.9089H46.8069C46.9444 47.9089 46.9898 47.8672 46.9986 47.8585C47.0074 47.8498 47.0494 47.8047 47.0494 47.6682V45.3308L47.0594 45.2809C47.0544 45.2727 47.0463 45.2614 47.034 45.2483C47.0102 45.223 46.981 45.2022 46.9537 45.1894C46.9322 45.1793 46.92 45.1778 46.9188 45.1776H5.43925C5.30168 45.1776 5.25627 45.2193 5.24749 45.228Z" fill="black"/>
<path fill-rule="evenodd" clip-rule="evenodd" d="M8.59908 52.1839V49.6934H6.81738V52.8431C6.81738 53.187 6.98162 53.4568 7.14914 53.6231C7.31667 53.7893 7.5885 53.9523 7.93491 53.9523H14.7351C15.0815 53.9523 15.3533 53.7893 15.5208 53.6231C15.6884 53.4568 15.8526 53.187 15.8526 52.8431V49.6934H14.0709V52.1839H8.59908Z" fill="black"/>
<path fill-rule="evenodd" clip-rule="evenodd" d="M38.1782 52.1839V49.6934H36.3965V52.8431C36.3965 53.187 36.5607 53.4568 36.7282 53.623C36.8958 53.7893 37.1676 53.9523 37.514 53.9523H44.3142C44.6606 53.9523 44.9324 53.7893 45.0999 53.6231C45.2674 53.4568 45.4317 53.187 45.4317 52.8431V49.6934H43.65V52.1839H38.1782Z" fill="black"/>
<path fill-rule="evenodd" clip-rule="evenodd" d="M21.6485 37.3026H19.4951V35.5342H21.6485V37.3026Z" fill="black"/>
<path fill-rule="evenodd" clip-rule="evenodd" d="M25.1621 37.3026H23.1221V35.5342H25.1621V37.3026Z" fill="black"/>
<path fill-rule="evenodd" clip-rule="evenodd" d="M28.7881 37.3026H26.6348V35.5342H28.7881V37.3026Z" fill="black"/>
<path fill-rule="evenodd" clip-rule="evenodd" d="M32.3018 37.3026H30.2617V35.5342H32.3018V37.3026Z" fill="black"/>
<path fill-rule="evenodd" clip-rule="evenodd" d="M21.6485 40.9037H19.4951V39.1353H21.6485V40.9037Z" fill="black"/>
<path fill-rule="evenodd" clip-rule="evenodd" d="M25.1621 40.9027H23.1221V39.1343H25.1621V40.9027Z" fill="black"/>
<path fill-rule="evenodd" clip-rule="evenodd" d="M28.7881 40.9027H26.6348V39.1343H28.7881V40.9027Z" fill="black"/>
<path fill-rule="evenodd" clip-rule="evenodd" d="M32.3018 40.9027H30.2617V39.1343H32.3018V40.9027Z" fill="black"/>
<path fill-rule="evenodd" clip-rule="evenodd" d="M46.9204 27.6293C46.0353 27.6293 45.3178 28.3414 45.3178 29.2199C45.3178 30.0984 46.0353 30.8105 46.9204 30.8105C47.8054 30.8105 48.5229 30.0984 48.5229 29.2199C48.5229 28.3414 47.8054 27.6293 46.9204 27.6293ZM43.5361 29.2199C43.5361 27.3647 45.0513 25.8608 46.9204 25.8608C48.7894 25.8608 50.3046 27.3647 50.3046 29.2199C50.3046 31.075 48.7894 32.5789 46.9204 32.5789C45.0513 32.5789 43.5361 31.075 43.5361 29.2199Z" fill="black"/>
<path fill-rule="evenodd" clip-rule="evenodd" d="M4.30807 27.6288C3.42301 27.6288 2.70553 28.3409 2.70553 29.2194C2.70553 30.0979 3.42301 30.81 4.30807 30.81C5.19313 30.81 5.91061 30.0979 5.91061 29.2194C5.91061 28.3409 5.19313 27.6288 4.30807 27.6288ZM0.923828 29.2194C0.923828 27.3642 2.439 25.8604 4.30807 25.8604C6.17713 25.8604 7.69231 27.3642 7.69231 29.2194C7.69231 31.0746 6.17713 32.5784 4.30807 32.5784C2.439 32.5784 0.923828 31.0746 0.923828 29.2194Z" fill="black"/>
<path fill-rule="evenodd" clip-rule="evenodd" d="M12.8195 19.8125L8.94518 28.7853H43.1907L39.3428 19.8738C39.2971 19.8195 39.2326 19.7599 39.1582 19.7125C39.058 19.6485 38.997 19.642 38.9882 19.642H13.1476C12.9903 19.642 12.8774 19.7119 12.8195 19.8125ZM11.2175 19.0373C11.6159 18.2463 12.4063 17.8735 13.1476 17.8735H38.9882C39.4328 17.8735 39.8252 18.0357 40.1216 18.2249C40.4204 18.4155 40.6797 18.6696 40.8628 18.9422L40.9082 19.0098L45.8927 30.5537H6.24316L11.2058 19.0605L11.2175 19.0373Z" fill="black"/>
<path fill-rule="evenodd" clip-rule="evenodd" d="M34.583 34.9722H43.5049V40.806H41.7232V36.7406H36.3647V40.806H34.583V34.9722Z" fill="black"/>
<path fill-rule="evenodd" clip-rule="evenodd" d="M8.40137 34.9722H17.3232V40.806H15.5415V36.7406H10.1831V40.806H8.40137V34.9722Z" fill="black"/>
<path fill-rule="evenodd" clip-rule="evenodd" d="M22.2295 12.4583V4.35889H24.0112V12.4583H22.2295Z" fill="black"/>
<path fill-rule="evenodd" clip-rule="evenodd" d="M22.1172 3.4751H26.7481C27.992 3.4751 29.2257 4.50577 29.2257 5.93421V6.60916C29.2257 7.92714 28.1032 8.95578 26.7481 8.95578H22.1172V3.4751ZM23.8989 5.24353V7.18734H26.7481C27.2064 7.18734 27.444 6.86608 27.444 6.60916V5.93421C27.444 5.56277 27.0909 5.24353 26.7481 5.24353H23.8989Z" fill="black"/>
<path fill-rule="evenodd" clip-rule="evenodd" d="M19.0258 2.43103V14.3866H32.4312V2.43103H19.0258ZM17.5759 0.991885C17.7434 0.825605 18.0153 0.662598 18.3617 0.662598H33.0953C33.4417 0.662598 33.7136 0.825605 33.8811 0.991885C34.0486 1.15816 34.2129 1.42798 34.2129 1.7718V14.9334C34.2129 15.3942 33.9213 16.1551 33.0953 16.1551H18.3617C18.0153 16.1551 17.7434 15.9921 17.5759 15.8258C17.4084 15.6595 17.2441 15.3897 17.2441 15.0459V1.7718C17.2441 1.42798 17.4084 1.15816 17.5759 0.991885Z" fill="black"/>
</svg>
