<svg width="34" height="42" fill="none" xmlns="http://www.w3.org/2000/svg"><g opacity=".5"><mask id="a" fill="#fff"><path d="M33.142 20.564v-8.938H31.45V0h-1.354v6.72H.745v4.906H0v1.344h.745v4.906h6.838v23.79h1.354v-23.79H31.45V12.97h.338v6.451l-16.927 2.79v6.888h-1.963v12.566h5.315V29.132h-1.997v-5.78l16.926-2.788zm-3.047-4.032H2.1V8.064h27.996v8.468zm-13.27 23.79h-2.607v-9.846h2.607v9.845z"/></mask><path d="M33.142 20.564v-8.938H31.45V0h-1.354v6.72H.745v4.906H0v1.344h.745v4.906h6.838v23.79h1.354v-23.79H31.45V12.97h.338v6.451l-16.927 2.79v6.888h-1.963v12.566h5.315V29.132h-1.997v-5.78l16.926-2.788zm-3.047-4.032H2.1V8.064h27.996v8.468zm-13.27 23.79h-2.607v-9.846h2.607v9.845z" fill="#000"/><path d="M33.142 20.564l.325 1.973 1.675-.276v-1.697h-2zm0-8.938h2v-2h-2v2zm-1.693 0h-2v2h2v-2zM31.45 0h2v-2h-2v2zm-1.354 0v-2h-2v2h2zm0 6.72v2h2v-2h-2zm-29.35 0v-2h-2v2h2zm0 4.906v2h2v-2h-2zm-.745 0v-2h-2v2h2zm0 1.344h-2v2h2v-2zm.745 0h2v-2h-2v2zm0 4.906h-2v2h2v-2zm6.838 0h2v-2h-2v2zm0 23.79h-2v2h2v-2zm1.354 0v2h2v-2h-2zm0-23.79v-2h-2v2h2zm22.513 0v2h2v-2h-2zm0-4.906v-2h-2v2h2zm.338 0h2v-2h-2v2zm0 6.451l.325 1.974 1.675-.276V19.42h-2zm-16.927 2.79l-.325-1.974-1.675.276v1.697h2zm0 6.888v2h2v-2h-2zm-1.963 0v-2h-2v2h2zm0 12.566h-2v2h2v-2zm5.315 0v2h2v-2h-2zm0-12.533h2v-2h-2v2zm-1.997 0h-2v2h2v-2zm0-5.78l-.326-1.973-1.674.276v1.698h2zm13.88-6.82v2h2v-2h-2zm-27.997 0h-2v2h2v-2zm0-8.468v-2h-2v2h2zm27.996 0h2v-2h-2v2zm-13.27 32.257v2h2v-2h-2zm-2.607 0h-2v2h2v-2zm0-9.845v-2h-2v2h2zm2.607 0h2v-2h-2v2zm18.317-9.912v-8.938h-4v8.938h4zm-2-10.938H31.45v4h1.693v-4zm.307 2V7.392h-4v4.234h4zm0-4.234V6.72h-4v.672h4zm0-.672V0h-4v6.72h4zm-2-8.72h-1.354v4h1.355v-4zm-3.354 2v6.72h4V0h-4zm2 4.72H.745v4h29.35v-4zm-31.35 2v4.906h4V6.72h-4zm2 2.906H0v4h.745v-4zm-2.745 2v1.344h4v-1.344h-4zm2 3.344h.745v-4H0v4zm-1.255-2v4.906h4V12.97h-4zm2 6.906h6.838v-4H.745v4zm4.838-2v23.79h4v-23.79h-4zm2 25.79h1.354v-4H7.583v4zm3.354-2v-23.79h-4v23.79h4zm-2-21.79H31.45v-4H8.936v4zm24.513-2V12.97h-4v4.906h4zm-2-2.906h.338v-4h-.338v4zm-1.662-2v6.451h4V12.97h-4zm1.675 4.478l-16.927 2.789.65 3.947 16.927-2.79-.65-3.946zM12.86 22.21v6.89h4v-6.89h-4zm2 4.889h-1.963v4h1.963v-4zm-3.963 2v12.566h4V29.1h-4zm2 14.566h5.315v-4h-5.315v4zm7.315-2V29.132h-4v12.533h4zm-2-14.533h-1.997v4h1.997v-4zm.003 2v-5.78h-4v5.78h4zm-1.675-3.806l16.926-2.789-.65-3.947-16.927 2.79.65 3.946zm13.554-10.794H2.1v4h27.996v-4zm-25.996 2V8.064h-4v8.468h4zm-2-6.468h27.996v-4H2.1v4zm25.996-2v8.468h4V8.064h-4zm-11.27 30.257h-2.607v4h2.607v-4zm-.607 2v-9.845h-4v9.845h4zm-2-7.845h2.607v-4h-2.607v4zm.607-2v9.845h4v-9.845h-4z" fill="#000" mask="url(#a)"/></g></svg>