<svg width="16" height="44" fill="none" xmlns="http://www.w3.org/2000/svg"><path d="M13.333 29.365V6.004A5.34 5.34 0 008 .663a5.332 5.332 0 00-5.333 5.34v23.362A8.002 8.002 0 008 43.33a8.003 8.003 0 005.333-13.964zM8 40.663a5.334 5.334 0 01-2.667-9.954V6.003A2.67 2.67 0 018 3.329a2.664 2.664 0 012.667 2.674v24.706A5.334 5.334 0 018 40.662z" fill="#6B6C6E"/><path d="M9.312 31.55c.015-.073.021-.147.021-.225V18A1.33 1.33 0 008 16.663 1.34 1.34 0 006.667 18v13.325c0 .078.006.152.018.226a4 4 0 102.627 0z" fill="#6B6C6E"/></svg>