<svg width="51" height="36" fill="none" xmlns="http://www.w3.org/2000/svg"><path d="M39.639 36c-.063 0-.127 0-.19-.004-1.86-.098-3.324-1.669-3.383-3.6l-1.87.031c0 2.033-1.703 3.664-3.763 3.569-1.86-.098-3.324-1.669-3.382-3.6l-1.87.031c0 2.033-1.715 3.664-3.765 3.569-1.859-.098-3.323-1.669-3.382-3.6l-1.87.031c0 2.033-1.711 3.664-3.764 3.569-1.859-.098-3.323-1.669-3.382-3.6l-1.87.031c0 2.033-1.708 3.664-3.764 3.569C1.487 35.896 0 34.262 0 32.275V3.576C0 1.542 1.703-.112 3.765.006c1.859.098 3.323 1.67 3.382 3.602l1.87-.032c0-2.034 1.7-3.688 3.764-3.57 1.859.098 3.323 1.67 3.382 3.602l1.87-.032c0-2.034 1.697-3.688 3.764-3.57 1.86.098 3.324 1.67 3.382 3.602l1.87-.032c0-2.034 1.693-3.688 3.764-3.57 1.859.098 3.323 1.67 3.382 3.602l1.87-.032c0-2.034 1.704-3.688 3.764-3.57 1.898.1 3.384 1.734 3.384 3.723v28.698a3.55 3.55 0 01-1.047 2.527A3.55 3.55 0 0139.64 36zm-6.312-5.344h3.607c.48 0 .87.39.87.87v.749c0 1.044.778 1.934 1.735 1.984l.1.002c.49 0 .952-.19 1.298-.536.346-.347.538-.808.538-1.298V3.73c0-1.045-.779-1.937-1.736-1.986l-.1-.003a1.838 1.838 0 00-1.836 1.836v.902a.87.87 0 01-.87.87h-3.606a.869.869 0 01-.869-.87v-.75c0-1.044-.779-1.936-1.735-1.985l-.1-.003a1.837 1.837 0 00-1.835 1.836v.902c0 .48-.39.87-.87.87h-3.606a.869.869 0 01-.87-.87v-.75c0-1.044-.778-1.936-1.735-1.985l-.1-.003a1.838 1.838 0 00-1.836 1.836v.902a.87.87 0 01-.87.87h-3.606a.869.869 0 01-.87-.87v-.75c0-1.044-.778-1.936-1.734-1.985l-.1-.003a1.838 1.838 0 00-1.836 1.836v.902a.87.87 0 01-.869.87H6.279a.869.869 0 01-.869-.87v-.75c0-1.044-.779-1.936-1.735-1.985l-.1-.003a1.838 1.838 0 00-1.836 1.836v28.699c0 1.044.778 1.934 1.735 1.984l.1.002a1.837 1.837 0 001.836-1.834v-.901c0-.48.389-.87.87-.87h3.606c.48 0 .87.39.87.87v.749c0 1.044.778 1.934 1.734 1.984l.1.002a1.837 1.837 0 001.836-1.834v-.901c0-.48.389-.87.87-.87h3.606c.48 0 .87.39.87.87v.749c0 1.044.778 1.934 1.735 1.984l.1.002a1.837 1.837 0 001.835-1.834v-.901c0-.48.389-.87.87-.87h3.606c.48 0 .87.39.87.87v.749c0 1.044.778 1.934 1.735 1.984l.1.002a1.836 1.836 0 001.835-1.834v-.901c0-.48.389-.87.87-.87z" fill="gray"/><path d="M6.279 32.395a.869.869 0 01-.87-.87V4.477a.869.869 0 111.739 0v27.048a.87.87 0 01-.87.87zm9.016 0a.869.869 0 01-.87-.87V4.477a.869.869 0 111.74 0v27.048c0 .48-.39.87-.87.87zm9.017 0a.869.869 0 01-.87-.87V4.477a.869.869 0 111.74 0v27.048c0 .48-.39.87-.87.87zm9.015 0a.869.869 0 01-.869-.87V4.477a.869.869 0 111.739 0v27.048c0 .48-.39.87-.87.87zm14.428-22.247H45.95a.869.869 0 01-.869-.87V5.672a.87.87 0 01.87-.87h1.803a2.675 2.675 0 012.67 2.673 2.675 2.675 0 01-2.67 2.673zm-.934-1.74h.934a.934.934 0 000-1.867h-.934v1.868z" fill="gray"/><path d="M45.95 8.344h-3.18a.869.869 0 110-1.739h3.18a.869.869 0 110 1.74zm-36.064 24.8a.869.869 0 01-.87-.87V3.577a.869.869 0 111.74 0v28.699a.87.87 0 01-.87.869zm9.017-.749a.869.869 0 01-.87-.87V4.477a.869.869 0 111.739 0v27.048a.87.87 0 01-.87.87zm9.015 0a.869.869 0 01-.87-.87V4.477a.869.869 0 111.74 0v27.048c0 .48-.39.87-.87.87zm9.016.749a.869.869 0 01-.87-.87V4.477a.869.869 0 111.74 0v27.797c0 .48-.39.87-.87.87zM3.477 31.042a.869.869 0 01-.87-.87V5.83a.869.869 0 111.74 0v24.343c0 .48-.39.87-.87.87zm9.064 0a.869.869 0 01-.87-.87V5.83a.869.869 0 111.74 0v24.343c0 .48-.39.87-.87.87zm9.063 0a.869.869 0 01-.87-.87V5.83a.869.869 0 111.74 0v24.343c0 .48-.39.87-.87.87zm9.064-.077a.869.869 0 01-.87-.87V5.754a.869.869 0 111.74 0v24.343c0 .48-.39.87-.87.87zm9.064 0a.869.869 0 01-.87-.87V5.754a.869.869 0 111.74 0v24.343c0 .48-.39.87-.87.87z" fill="gray"/></svg>