<svg width="58" height="43" viewBox="0 0 58 43" fill="none" xmlns="http://www.w3.org/2000/svg">
<path d="M57.3333 21.5V10.75H51.9583V5.375L46.5833 0L41.2083 5.375V10.75H34.0417V5.375L28.6667 0L23.2917 5.375V10.75H16.125V5.375L10.75 0L5.375 5.375V10.75H0V21.5H5.375V25.0833H0V35.8333H5.375V43H16.125V35.8333H23.2917V43H34.0417V35.8333H41.2083V43H51.9583V35.8333H57.3333V25.0833H51.9583V21.5H57.3333ZM55.5417 12.5417V19.7083H51.9583V12.5417H55.5417ZM41.2083 12.5417V19.7083H34.0417V12.5417H41.2083ZM41.2083 25.0833H34.0417V21.5H41.2083V25.0833ZM23.2917 12.5417V19.7083H16.125V12.5417H23.2917ZM23.2917 25.0833H16.125V21.5H23.2917V25.0833ZM1.79167 19.7083V12.5417H5.375V19.7083H1.79167ZM1.79167 34.0417V26.875H5.375V34.0417H1.79167ZM14.3333 41.2083H7.16667V6.1163L10.75 2.53297L14.3333 6.1163V41.2083ZM16.125 34.0417V26.875H23.2917V34.0417H16.125ZM32.25 41.2083H25.0833V6.1163L28.6667 2.53297L32.25 6.1163V41.2083ZM34.0417 34.0417V26.875H41.2083V34.0417H34.0417ZM55.5417 26.875V34.0417H51.9583V26.875H55.5417ZM50.1667 25.0833V41.2083H43V6.1163L46.5833 2.53297L50.1667 6.1163V25.0833Z" fill="#6B6C6E"/>
<path d="M10.7497 17.9168C11.7392 17.9168 12.5413 17.1147 12.5413 16.1252C12.5413 15.1357 11.7392 14.3335 10.7497 14.3335C9.76016 14.3335 8.95801 15.1357 8.95801 16.1252C8.95801 17.1147 9.76016 17.9168 10.7497 17.9168Z" fill="#6B6C6E"/>
<path d="M28.6667 17.9168C29.6562 17.9168 30.4583 17.1147 30.4583 16.1252C30.4583 15.1357 29.6562 14.3335 28.6667 14.3335C27.6772 14.3335 26.875 15.1357 26.875 16.1252C26.875 17.1147 27.6772 17.9168 28.6667 17.9168Z" fill="#6B6C6E"/>
<path d="M46.5837 17.9168C47.5732 17.9168 48.3753 17.1147 48.3753 16.1252C48.3753 15.1357 47.5732 14.3335 46.5837 14.3335C45.5941 14.3335 44.792 15.1357 44.792 16.1252C44.792 17.1147 45.5941 17.9168 46.5837 17.9168Z" fill="#6B6C6E"/>
<path d="M10.7497 32.2498C11.7392 32.2498 12.5413 31.4477 12.5413 30.4582C12.5413 29.4687 11.7392 28.6665 10.7497 28.6665C9.76016 28.6665 8.95801 29.4687 8.95801 30.4582C8.95801 31.4477 9.76016 32.2498 10.7497 32.2498Z" fill="#6B6C6E"/>
<path d="M28.6667 32.2498C29.6562 32.2498 30.4583 31.4477 30.4583 30.4582C30.4583 29.4687 29.6562 28.6665 28.6667 28.6665C27.6772 28.6665 26.875 29.4687 26.875 30.4582C26.875 31.4477 27.6772 32.2498 28.6667 32.2498Z" fill="#6B6C6E"/>
<path d="M46.5837 32.2498C47.5732 32.2498 48.3753 31.4477 48.3753 30.4582C48.3753 29.4687 47.5732 28.6665 46.5837 28.6665C45.5941 28.6665 44.792 29.4687 44.792 30.4582C44.792 31.4477 45.5941 32.2498 46.5837 32.2498Z" fill="#6B6C6E"/>
</svg>
