<svg width="28" height="45" viewBox="0 0 28 45" fill="none" xmlns="http://www.w3.org/2000/svg">
<path d="M15.8667 20.625H12.1333V16.875H15.8667V20.625ZM15.8667 11.25H12.1333V15H15.8667V11.25ZM21.4667 28.125H17.7333V31.875H21.4667V28.125ZM21.4667 11.25H17.7333V15H21.4667V11.25ZM21.4667 22.5H17.7333V26.25H21.4667V22.5ZM21.4667 5.625H17.7333V9.375H21.4667V5.625ZM21.4667 16.875H17.7333V20.625H21.4667V16.875ZM15.8667 5.625H12.1333V9.375H15.8667V5.625ZM10.2667 16.875H6.53333V20.625H10.2667V16.875ZM10.2667 28.125H6.53333V31.875H10.2667V28.125ZM10.2667 22.5H6.53333V26.25H10.2667V22.5ZM25.3867 3.75V43.125H28V45H25.3867H18.6667H9.33333H2.61333H0V43.125H2.61333V3.75H0V1.875H2.61333H5.22667V0H22.7733V1.875H25.3867H28V3.75H25.3867ZM16.8 38.4375C16.8 36.8869 15.5437 35.625 14 35.625C12.4563 35.625 11.2 36.8869 11.2 38.4375V43.125H16.8V38.4375ZM23.52 3.75H4.48V43.125H9.33333V38.4375C9.33333 35.8519 11.4268 33.75 14 33.75C16.5732 33.75 18.6667 35.8519 18.6667 38.4375V43.125H23.52V3.75ZM15.8667 28.125H12.1333V31.875H15.8667V28.125ZM15.8667 22.5H12.1333V26.25H15.8667V22.5ZM10.2667 11.25H6.53333V15H10.2667V11.25ZM10.2667 5.625H6.53333V9.375H10.2667V5.625Z" fill="#6B6C6E"/>
</svg>
