<svg width="51" height="50" fill="none" xmlns="http://www.w3.org/2000/svg"><path d="M6.992 49.606H51V6.832H7.815V.662h-.823A6.986 6.986 0 000 7.656v34.96a6.986 6.986 0 006.992 6.991zM1.645 7.655C1.645 4.98 3.62 2.76 6.17 2.39v33.273a6.956 6.956 0 00-4.524 2.427V7.655zm0 34.96a5.336 5.336 0 015.347-5.348h.823V8.477h41.54v39.484H6.992a5.336 5.336 0 01-5.347-5.347z" fill="#6B6C6E"/><path d="M45.241 20.816H31.257v-.822h-1.645v2.467h13.984v19.742H31.257V27.397h-1.645v14.806h-16.04V22.461h9.46v-2.879h-1.646v1.234h-7.814v-6.58h16.04v.822h1.645V12.59h-19.33v31.258H45.24V20.816z" fill="#6B6C6E"/></svg>