<svg width="46" height="43" viewBox="0 0 46 43" fill="none" xmlns="http://www.w3.org/2000/svg">
<path d="M45.4793 30.324C45.0319 29.0694 44.1148 28.0936 42.8969 27.5581C41.679 27.0225 40.3365 27.0152 39.1112 27.536L30.8943 31.0063C30.9017 30.9109 30.909 30.8008 30.909 30.6981C30.909 29.0987 29.6104 27.8002 28.011 27.8002H22.0831C21.8409 27.8002 21.6062 27.7488 21.3862 27.6461L16.3606 25.3791C15.5756 25.0196 14.7025 24.8288 13.8368 24.8288H9.58159V24.418C9.58159 23.611 8.92871 22.9507 8.11428 22.9507H0V41.4681H8.11428C8.92871 41.4681 9.58159 40.8079 9.58159 40.0008V38.849H11.9366L20.7038 41.6663C21.4301 41.8937 22.1785 42.0111 22.9341 42.0111C24.1227 42.0111 25.3111 41.725 26.3676 41.16L45.6994 30.9182L45.4793 30.324ZM5.15762 38.7463C4.59269 38.7463 4.13057 38.2841 4.13057 37.7192C4.13057 37.1469 4.59269 36.6847 5.15762 36.6847C5.72255 36.6847 6.18475 37.1469 6.18475 37.7192C6.18475 38.2841 5.72255 38.7463 5.15762 38.7463ZM25.6853 39.8615C24.2988 40.6024 22.648 40.7418 21.1513 40.265L12.2741 37.411L9.58159 37.3817V26.2962H13.8368C14.497 26.2962 15.1574 26.4429 15.7517 26.7143L20.7772 28.9887C21.1881 29.1721 21.6282 29.2675 22.0831 29.2675H28.011C28.8033 29.2675 29.4417 29.9131 29.4417 30.6981C29.4417 31.4904 28.8033 32.1287 28.011 32.1287H20.337V33.596H28.011C28.5466 33.596 29.0455 33.4566 29.4711 33.1999L39.6835 28.886C40.5345 28.5265 41.4662 28.5338 42.31 28.9007C42.9556 29.1868 43.4838 29.6563 43.8359 30.2506L25.6853 39.8615Z" fill="#808080"/>
<path d="M6.64636 19.9925L11.2154 17.4611L15.6897 20.1566L14.6941 15.0289L17.977 12.1818L16.7649 17.4039C16.699 17.6861 16.8058 17.9806 17.0372 18.1554C17.2693 18.3302 17.581 18.3521 17.8346 18.2113L22.9136 15.3981L27.8858 18.3936C28.1257 18.5395 28.4405 18.5371 28.6847 18.3664C28.9218 18.2006 29.0393 17.91 28.9842 17.6256L27.878 11.9265L27.9824 11.8359L31.2715 14.9043L30.0905 19.9925L34.6595 17.4611L39.1337 20.1566L38.1382 15.0289L42.0843 11.6066L36.9 10.9689L34.8645 6.15833L32.656 10.8919L28.6747 11.2356L32.2641 8.12281C32.4834 7.93295 32.5694 7.63204 32.4848 7.35477C32.4003 7.07751 32.161 6.87582 31.873 6.84035L26.1105 6.13178L23.8486 0.785193C23.7354 0.518308 23.476 0.342779 23.1866 0.337402C23.1816 0.337402 23.1773 0.337402 23.173 0.337402C22.8885 0.337402 22.6284 0.502192 22.5081 0.760829L20.0535 6.0218L14.2695 6.52117C13.6404 6.57503 13.3665 7.35249 13.8317 7.78859L17.8163 11.5052L13.4559 10.9689L11.4205 6.15832L9.21201 10.8919L4.00781 11.3411L7.82726 14.9043L6.64636 19.9925ZM20.6023 7.44721C20.8638 7.42464 21.0931 7.26451 21.2041 7.02664L23.14 2.87654L24.9247 7.09398C25.0271 7.33579 25.2507 7.50416 25.5108 7.5364L30.056 8.09524L26.5962 11.0958C26.3977 11.2677 26.3067 11.5321 26.3569 11.7897L27.2295 16.2855L23.3069 13.9226C23.0809 13.7859 22.7993 13.7831 22.5733 13.9093L18.5668 16.1285L19.6021 11.6675C19.6616 11.4121 19.5799 11.1441 19.3886 10.965L16.0391 7.84089L20.6023 7.44721Z" fill="#808080"/>
</svg>
