<svg width="16" height="44" viewBox="0 0 16 44" fill="none" xmlns="http://www.w3.org/2000/svg">
<path d="M13.3333 29.3653V6.00393C13.3333 3.05326 10.94 0.662598 8 0.662598C5.05467 0.662598 2.66667 3.04526 2.66667 6.00393V29.3653C1.02933 30.8306 0 32.9599 0 35.3293C0 39.7453 3.58267 43.3293 8 43.3293C12.416 43.3293 16 39.7453 16 35.3293C16 32.9599 14.972 30.8306 13.3333 29.3653ZM8 40.6626C5.05467 40.6626 2.66667 38.2746 2.66667 35.3293C2.66667 33.3559 3.74 31.6319 5.33333 30.7093V6.0026C5.33333 4.52526 6.528 3.32926 8 3.32926C9.48133 3.32926 10.6667 4.52526 10.6667 6.0026V30.7093C12.26 31.6306 13.3333 33.3546 13.3333 35.3293C13.3333 38.2746 10.9453 40.6626 8 40.6626Z" fill="#6B6C6E"/>
<path d="M9.312 31.5506C9.32667 31.4773 9.33333 31.4026 9.33333 31.3253V17.9999C9.33333 17.2613 8.74267 16.6626 8 16.6626C7.26267 16.6626 6.66667 17.2706 6.66667 17.9999V31.3253C6.66667 31.4026 6.67333 31.4773 6.68533 31.5506C5.12267 32.0933 4 33.5799 4 35.3293C4 37.5386 5.79067 39.3293 8 39.3293C10.2093 39.3293 12 37.5386 12 35.3293C12 33.5799 10.8773 32.0933 9.312 31.5506Z" fill="#6B6C6E"/>
</svg>
