<svg width="51" height="54" fill="none" xmlns="http://www.w3.org/2000/svg"><path fill-rule="evenodd" clip-rule="evenodd" d="M2.607 9.744H0V7.975h2.607v1.769zm4.985-.001H4.985V7.975h2.607v1.768zm4.989 0H9.975V7.975h2.606v1.768zm28.447.001H38.42V7.975h2.607v1.769zm4.986-.001h-2.607V7.975h2.607v1.768zm4.986 0h-2.606V7.975H51v1.768zM7.433 31.457a.368.368 0 00-.308.35v11.249c0 .187.168.353.356.353h36.835a.446.446 0 00.291-.09c.04-.035.064-.076.064-.15v-11.25a.368.368 0 00-.31-.35l-14.825 2.247h-7.279L7.433 31.457zm-2.09.35c0-1.164.966-2.122 2.138-2.122h.071L22.4 32.047h7.002l14.847-2.25h.068c1.171 0 2.137.959 2.137 2.122v11.25c0 1.27-1.081 2.009-2.138 2.009H7.481c-1.172 0-2.137-.959-2.137-2.122v-11.25z" fill="#000"/><path fill-rule="evenodd" clip-rule="evenodd" d="M3.988 43.977c.388-.384.909-.568 1.451-.568H46.92c.57 0 1.079.274 1.416.633.322.341.576.86.495 1.447v2.18c0 .538-.185 1.055-.573 1.44-.387.385-.909.568-1.451.568H5.439c-.542 0-1.063-.183-1.451-.568-.388-.385-.573-.902-.573-1.44v-2.25c0-.54.185-1.056.573-1.441zm1.26 1.251c-.01.009-.051.054-.051.19v2.25c0 .137.042.182.05.19.01.01.055.05.192.05h41.368c.137 0 .183-.04.192-.05.008-.008.05-.053.05-.19v-2.337l.01-.05a.274.274 0 00-.106-.092.094.094 0 00-.034-.011H5.439c-.137 0-.183.041-.192.05zM8.6 52.184v-2.49H6.816v3.15a1.128 1.128 0 001.118 1.108h6.8c.347 0 .618-.163.786-.329.167-.166.332-.436.332-.78v-3.15H14.07v2.49H8.599zm29.578 0v-2.49h-1.781v3.15c0 .343.164.613.331.779.168.166.44.33.786.33h6.8c.347 0 .618-.164.786-.33.167-.166.332-.436.332-.78v-3.15H43.65v2.49h-5.472zm-16.53-14.881h-2.153v-1.769h2.153v1.769zm3.514 0h-2.04v-1.769h2.04v1.769zm3.626 0h-2.153v-1.769h2.153v1.769zm3.514 0h-2.04v-1.769h2.04v1.769zm-10.654 3.601h-2.153v-1.769h2.153v1.769zm3.514-.001h-2.04v-1.769h2.04v1.769zm3.626 0h-2.153v-1.769h2.153v1.769zm3.514 0h-2.04v-1.769h2.04v1.769zM46.92 27.63c-.885 0-1.602.711-1.602 1.59 0 .878.717 1.59 1.602 1.59.885 0 1.603-.712 1.603-1.59 0-.879-.718-1.59-1.603-1.59zm-3.384 1.59c0-1.855 1.515-3.36 3.384-3.36 1.87 0 3.385 1.505 3.385 3.36s-1.516 3.359-3.385 3.359c-1.869 0-3.384-1.504-3.384-3.36zM4.308 27.629c-.885 0-1.602.712-1.602 1.59 0 .879.717 1.591 1.602 1.591.885 0 1.603-.712 1.603-1.59 0-.88-.718-1.591-1.603-1.591zm-3.384 1.59c0-1.855 1.515-3.359 3.384-3.359 1.87 0 3.384 1.504 3.384 3.36 0 1.855-1.515 3.358-3.384 3.358S.924 31.075.924 29.22z" fill="#000"/><path fill-rule="evenodd" clip-rule="evenodd" d="M12.82 19.813l-3.875 8.972h34.246l-3.848-8.911a.834.834 0 00-.185-.162.383.383 0 00-.17-.07h-25.84c-.158 0-.27.07-.329.17zm-1.603-.776c.399-.79 1.19-1.163 1.93-1.163h25.841c.445 0 .837.162 1.134.35.298.192.558.446.74.718l.046.068 4.985 11.544H6.243l4.963-11.493.011-.024zm23.366 15.935h8.922v5.834h-1.782v-4.065h-5.358v4.065h-1.782v-5.834zm-26.182 0h8.922v5.834h-1.782v-4.065h-5.358v4.065H8.401v-5.834zM22.23 12.458v-8.1h1.781v8.1H22.23z" fill="#000"/><path fill-rule="evenodd" clip-rule="evenodd" d="M22.117 3.475h4.631c1.244 0 2.478 1.03 2.478 2.46v.674c0 1.318-1.123 2.347-2.478 2.347h-4.63v-5.48zM23.9 5.244v1.943h2.85c.457 0 .695-.32.695-.578v-.675c0-.371-.353-.69-.696-.69h-2.85z" fill="#000"/><path fill-rule="evenodd" clip-rule="evenodd" d="M19.026 2.431v11.956H32.43V2.43H19.026zm-1.45-1.44c.167-.165.44-.328.786-.328h14.733c.347 0 .619.163.786.329.168.166.332.436.332.78v13.161c0 .461-.292 1.222-1.118 1.222H18.362c-.347 0-.619-.163-.786-.33a1.105 1.105 0 01-.332-.78V1.773c0-.344.164-.614.332-.78z" fill="#000"/></svg>