<svg width="58" height="43" fill="none" xmlns="http://www.w3.org/2000/svg"><path d="M57.333 21.5V10.75h-5.375V5.375L46.583 0l-5.375 5.375v5.375h-7.166V5.375L28.667 0l-5.375 5.375v5.375h-7.167V5.375L10.75 0 5.375 5.375v5.375H0V21.5h5.375v3.583H0v10.75h5.375V43h10.75v-7.167h7.167V43h10.75v-7.167h7.166V43h10.75v-7.167h5.375v-10.75h-5.375V21.5h5.375zm-1.791-8.958v7.166h-3.584v-7.166h3.584zm-14.334 0v7.166h-7.166v-7.166h7.166zm0 12.541h-7.166V21.5h7.166v3.583zM23.292 12.542v7.166h-7.167v-7.166h7.167zm0 12.541h-7.167V21.5h7.167v3.583zm-21.5-5.375v-7.166h3.583v7.166H1.792zm0 14.334v-7.167h3.583v7.167H1.792zm12.541 7.166H7.167V6.116l3.583-3.583 3.583 3.583v35.092zm1.792-7.166v-7.167h7.167v7.167h-7.167zm16.125 7.166h-7.167V6.116l3.584-3.583 3.583 3.583v35.092zm1.792-7.166v-7.167h7.166v7.167h-7.166zm21.5-7.167v7.167h-3.584v-7.167h3.584zm-5.375-1.792v16.125H43V6.116l3.583-3.583 3.584 3.583v18.967z" fill="#6B6C6E"/><path d="M10.75 17.917a1.792 1.792 0 100-3.583 1.792 1.792 0 000 3.583zm17.917 0a1.792 1.792 0 100-3.583 1.792 1.792 0 000 3.583zm17.917 0a1.792 1.792 0 100-3.583 1.792 1.792 0 000 3.583zM10.75 32.25a1.792 1.792 0 100-3.583 1.792 1.792 0 000 3.583zm17.917 0a1.792 1.792 0 100-3.583 1.792 1.792 0 000 3.583zm17.917 0a1.792 1.792 0 100-3.583 1.792 1.792 0 000 3.583z" fill="#6B6C6E"/></svg>