<svg width="46" height="49" fill="none" xmlns="http://www.w3.org/2000/svg"><path d="M13.23 10.203a2.753 2.753 0 00-2.75 2.75 2.753 2.753 0 002.75 2.75 2.753 2.753 0 002.75-2.75 2.753 2.753 0 00-2.75-2.75zm0 4.734a1.984 1.984 0 110-3.969 1.984 1.984 0 010 3.969z" fill="gray"/><path d="M45.903 15.956L40.54 9.88c-.007-.008-.007-.008-.015-.008a.42.42 0 00-.069-.054c-.023-.015-.038-.023-.053-.038-.008 0-.008-.008-.016-.008L13.36.014c-.115-.038-.337.008-.39.085L2.712 9.828c-.046.053-.07.076-.092.122a.415.415 0 00-.054.176l.016 5.654c0 .015.007.023.007.038v4.26H1.287A1.29 1.29 0 000 21.363v5.447a1.29 1.29 0 001.287 1.287h3.631a1.29 1.29 0 001.287-1.287v-5.447a1.29 1.29 0 00-1.287-1.287h-1.57v-3.915h3.531v.453a1.71 1.71 0 001.709 1.708h.597v26.123H7.982A1.855 1.855 0 006.13 46.3v1.187H1.065a.38.38 0 00-.383.383.38.38 0 00.383.383h24.33a.38.38 0 00.383-.383.38.38 0 00-.383-.383H20.34V46.3a1.855 1.855 0 00-1.854-1.854h-1.21V18.323h.597a1.71 1.71 0 001.709-1.709v-.023h17.344v6.956h-.238a.99.99 0 00-.766.36.995.995 0 00-.215.82l.69 3.746a.988.988 0 00.98.812h.805v1.226a2.064 2.064 0 00-1.678 2.022c0 1.134.927 2.061 2.06 2.061a2.066 2.066 0 002.062-2.06.38.38 0 00-.383-.384.38.38 0 00-.383.383c0 .713-.583 1.295-1.295 1.295a1.298 1.298 0 01-1.295-1.295c0-.712.583-1.294 1.295-1.294a.38.38 0 00.383-.383v-1.578h.804a1 1 0 00.98-.812l.69-3.747a.995.995 0 00-.214-.82.993.993 0 00-.728-.352v-6.956h5.14a.393.393 0 00.353-.222.407.407 0 00-.07-.413zM13.23 1.324l2.727 6.159H10.51l2.72-6.16zm-8.32 19.52a.52.52 0 01.521.52v5.447a.52.52 0 01-.52.52H1.279a.521.521 0 01-.52-.52v-5.447c0-.283.23-.52.52-.52h3.632zm1.97-5.448H3.34v-4.895h3.54v4.895zm0-6.105v.452H3.921l8.19-7.776L9.63 7.575H8.595c-.942 0-1.716.774-1.716 1.716zm11.605 35.928c.598 0 1.088.49 1.088 1.088v1.188H6.895v-1.188c0-.597.49-1.088 1.087-1.088h10.503zm-2.168-14.042l-3.087 2.797-3.087-2.796 3.087-2.797 3.087 2.796zm-6.174-6.618l3.087-2.797 3.087 2.797-3.087 2.796-3.087-2.796zm6.174 13.237l-3.087 2.797-3.087-2.797L13.23 35l3.087 2.796zm.008 6.627h-6.182l3.087-2.796 3.095 2.796zm-2.52-3.317l2.704-2.444v4.895l-2.704-2.451zm0-6.62l2.704-2.443v4.895l-2.704-2.451zm0-6.618l2.704-2.444v4.896l-2.704-2.452zm0-6.619l2.704-2.444v4.896l-2.704-2.452zm-.575-.513l-2.666-2.413h5.324l-2.658 2.413zm-.567.513L9.96 23.693v-4.895l2.704 2.451zm0 6.62L9.96 30.311v-4.895l2.704 2.451zm0 6.618L9.96 36.93v-4.895l2.704 2.45zm0 6.619L9.96 43.55v-4.896l2.704 2.452zm6.16-30.973v6.481a.943.943 0 01-.943.943H8.595a.942.942 0 01-.942-.942V9.282c0-.52.421-.942.942-.942h9.285c.521 0 .942.421.942.942v.85zm-.95-2.558H16.83L13.943 1.04l24.123 8.71H19.588v-.467c0-.934-.773-1.708-1.716-1.708zm20.56 2.942l-2.359 2.137-2.36-2.137h4.72zm-6.748 0l-2.36 2.137-2.36-2.137h4.72zm-6.75 0l-2.359 2.137-2.36-2.137h4.72zm-5.347.467l2.421 2.19-2.42 2.192v-4.382zm.629 4.841l2.36-2.137 2.359 2.137h-4.72zm2.926-2.65l2.804-2.536 2.804 2.536-2.804 2.535-2.804-2.535zm3.815 2.65l2.36-2.137 2.359 2.137h-4.719zm2.934-2.65l2.804-2.536 2.804 2.536-2.804 2.535-2.804-2.535zm3.815 2.65l2.36-2.137 2.36 2.137h-4.72zm6.006.767v6.955h-2.022v-6.956h2.022zm.904 7.806c.023.03.069.1.046.191l-.69 3.746a.229.229 0 01-.222.184h-2.374a.223.223 0 01-.223-.184l-.69-3.746a.252.252 0 01.047-.191.225.225 0 01.176-.084h3.754c.092 0 .153.053.176.084zm-1.042-8.573l-2.934-2.65 2.934-2.658h.506l4.688 5.308h-5.194z" fill="gray"/></svg>