<svg width="46" height="49" viewBox="0 0 46 49" fill="none" xmlns="http://www.w3.org/2000/svg">
<path d="M13.2297 10.2026C11.7129 10.2026 10.4795 11.436 10.4795 12.9528C10.4795 14.4696 11.7129 15.703 13.2297 15.703C14.7465 15.703 15.9799 14.4696 15.9799 12.9528C15.9799 11.436 14.7465 10.2026 13.2297 10.2026ZM13.2297 14.9369C12.1342 14.9369 11.2456 14.0483 11.2456 12.9528C11.2456 11.8573 12.1342 10.9687 13.2297 10.9687C14.3252 10.9687 15.2138 11.8573 15.2138 12.9528C15.2138 14.0483 14.3252 14.9369 13.2297 14.9369Z" fill="#808080"/>
<path d="M45.9029 15.9557L40.5404 9.88075C40.5327 9.87309 40.5327 9.87309 40.5251 9.87309C40.5021 9.8501 40.4791 9.83478 40.4561 9.81946C40.4332 9.80414 40.4178 9.79648 40.4025 9.78116C40.3949 9.78116 40.3949 9.7735 40.3872 9.7735L13.3603 0.0137677C13.2453 -0.0245358 13.0232 0.0214285 12.9696 0.0980354L2.71189 9.82712C2.66592 9.88075 2.64294 9.90373 2.61996 9.94969C2.58932 9.99566 2.58165 10.034 2.56633 10.1259L2.58165 15.7795C2.58165 15.7948 2.58932 15.8025 2.58932 15.8178V20.0771H1.287C0.582213 20.0771 0 20.6517 0 21.3641V26.8109C0 27.5157 0.574552 28.0979 1.287 28.0979H4.91817C5.62295 28.0979 6.20516 27.5233 6.20516 26.8109V21.3641C6.20516 20.6593 5.63061 20.0771 4.91817 20.0771H3.34772V16.1625H6.87931V16.6145C6.87931 17.5568 7.64537 18.3228 8.58764 18.3228H9.18518V44.4458H7.98245C6.96357 44.4458 6.12856 45.2732 6.12856 46.2997V47.4871H1.06484C0.850337 47.4871 0.681802 47.6556 0.681802 47.8701C0.681802 48.0846 0.850337 48.2532 1.06484 48.2532H25.3952C25.6097 48.2532 25.7782 48.0846 25.7782 47.8701C25.7782 47.6556 25.6097 47.4871 25.3952 47.4871H20.3392V46.2997C20.3392 45.2808 19.5118 44.4458 18.4853 44.4458H17.2749V18.3228H17.8724C18.8147 18.3228 19.5807 17.5568 19.5807 16.6145V16.5915H36.9246V23.5474H36.6871C36.3883 23.5474 36.1125 23.6777 35.921 23.9075C35.7295 24.1373 35.6529 24.4361 35.7065 24.7272L36.396 28.4733C36.4802 28.9482 36.8939 29.2853 37.3765 29.2853H38.1809V30.511C37.231 30.6872 36.5032 31.5299 36.5032 32.5334C36.5032 33.6672 37.4302 34.5942 38.5639 34.5942C39.6977 34.5942 40.6247 33.6672 40.6247 32.5334C40.6247 32.3189 40.4561 32.1504 40.2416 32.1504C40.0271 32.1504 39.8586 32.3189 39.8586 32.5334C39.8586 33.2459 39.2764 33.8281 38.5639 33.8281C37.8515 33.8281 37.2693 33.2459 37.2693 32.5334C37.2693 31.821 37.8515 31.2388 38.5639 31.2388C38.7785 31.2388 38.947 31.0702 38.947 30.8557V29.2776H39.7514C40.234 29.2776 40.64 28.9329 40.7319 28.4656L41.4214 24.7195C41.475 24.4284 41.3984 24.1296 41.2069 23.8998C41.023 23.6853 40.7626 23.5551 40.4791 23.5474V16.5915H45.6194C45.7727 16.5915 45.9106 16.4996 45.9718 16.3694C46.0255 16.2315 46.0025 16.0706 45.9029 15.9557ZM13.23 1.32375L15.9572 7.48295H10.5105L13.23 1.32375ZM4.91051 20.8432C5.19395 20.8432 5.43143 21.073 5.43143 21.3641V26.8109C5.43143 27.0943 5.20161 27.3318 4.91051 27.3318H1.27934C0.995891 27.3318 0.758409 27.102 0.758409 26.8109V21.3641C0.758409 21.0807 0.98823 20.8432 1.27934 20.8432H4.91051ZM6.87931 15.3964H3.34006V10.5013H6.87931V15.3964ZM6.87931 9.29087V9.74285H3.92228L12.1116 1.96725L9.6295 7.57488H8.5953C7.65304 7.57488 6.87931 8.34861 6.87931 9.29087ZM18.4853 45.2195C19.0828 45.2195 19.5731 45.7098 19.5731 46.3074V47.4948H6.89463V46.3074C6.89463 45.7098 7.38491 45.2195 7.98245 45.2195H18.4853ZM16.3173 31.1775L13.23 33.9736L10.1428 31.1775L13.23 28.3813L16.3173 31.1775ZM10.1428 24.5586L13.23 21.7625L16.3173 24.5586L13.23 27.3548L10.1428 24.5586ZM16.3173 37.7963L13.23 40.5925L10.1428 37.7963L13.23 35.0002L16.3173 37.7963ZM16.3249 44.4228H10.1428L13.23 41.6267L16.3249 44.4228ZM13.8046 41.1057L16.5088 38.662V43.5572L13.8046 41.1057ZM13.8046 34.4869L16.5088 32.0431V36.9383L13.8046 34.4869ZM13.8046 27.8681L16.5088 25.4243V30.3195L13.8046 27.8681ZM13.8046 21.2492L16.5088 18.8055V23.7006L13.8046 21.2492ZM13.23 20.736L10.5641 18.3228H15.8883L13.23 20.736ZM12.6631 21.2492L9.95891 23.693V18.7978L12.6631 21.2492ZM12.6631 27.8681L9.95891 30.3118V25.4166L12.6631 27.8681ZM12.6631 34.4869L9.95891 36.9307V32.0355L12.6631 34.4869ZM12.6631 41.1057L9.95891 43.5495V38.6543L12.6631 41.1057ZM18.8223 10.1335V16.2085V16.6145C18.8223 17.1354 18.401 17.5568 17.8801 17.5568H16.8995H9.58353H8.5953C8.07437 17.5568 7.65304 17.1354 7.65304 16.6145V15.7795V10.1182V9.28321C7.65304 8.76228 8.07437 8.34095 8.5953 8.34095H17.8801C18.401 8.34095 18.8223 8.76228 18.8223 9.28321V10.1335ZM17.8724 7.57488H16.8306L13.9425 1.0403L38.066 9.75051H19.5884V9.28321C19.5884 8.34861 18.8147 7.57488 17.8724 7.57488ZM38.4337 10.5166L36.0742 12.6539L33.7147 10.5166H38.4337ZM31.6846 10.5166L29.3251 12.6539L26.9657 10.5166H31.6846ZM24.9356 10.5166L22.5761 12.6539L20.2166 10.5166H24.9356ZM19.5884 10.9839L22.0092 13.1748L19.5884 15.3658V10.9839ZM20.2166 15.8254L22.5761 13.6881L24.9356 15.8254H20.2166ZM23.143 13.1748L25.9468 10.6392L28.7506 13.1748L25.9468 15.7105L23.143 13.1748ZM26.958 15.8254L29.3175 13.6881L31.677 15.8254H26.958ZM29.892 13.1748L32.6959 10.6392L35.4997 13.1748L32.6959 15.7105L29.892 13.1748ZM33.7071 15.8254L36.0666 13.6881L38.4261 15.8254H33.7071ZM39.7131 16.5915V23.5474H37.6906V16.5915H39.7131ZM40.617 24.3978C40.64 24.4284 40.686 24.4974 40.663 24.5893L39.9735 28.3354C39.9505 28.4426 39.8586 28.5192 39.7514 28.5192H37.3765C37.2693 28.5192 37.1697 28.4426 37.1544 28.3354L36.4649 24.5893C36.4496 24.4974 36.4879 24.4284 36.5109 24.3978C36.5339 24.3671 36.5951 24.3135 36.6871 24.3135H40.4408C40.5327 24.3135 40.594 24.3671 40.617 24.3978ZM39.5752 15.8254L36.6411 13.1748L39.5752 10.5166H40.0808L44.7691 15.8254H39.5752Z" fill="#808080"/>
</svg>
