<svg width="53" height="49" fill="none" xmlns="http://www.w3.org/2000/svg"><path clip-rule="evenodd" d="M51.005 44.44h-2.303V18.862c0-1.792-5.757-6.435-5.757-6.435s-11.514 4.643-11.514 6.435v28.755h-4.934V8.435C26.497 6.643 19.095 2 19.095 2S4.292 6.643 4.292 8.435V44.44H1.824c-.904 0-.822.733-.822 1.63 0 .895-.082 1.628.822 1.628h49.181c1.151 0 .987-.733.987-1.629s.164-1.63-.987-1.63z" stroke="#6B6C6E" stroke-width="2"/><path d="M19.096 2v39.996M6.76 11.612l5.757-2.444m-5.757 7.25l5.757-2.444M6.76 20.41l5.757-2.445M6.76 24.4l5.757-2.361M6.76 29.207l5.757-2.362M6.76 33.199l5.757-2.363M6.76 38.005l5.757-2.362M6.76 41.996l5.757-2.363m1.644-31.198l2.467-.814m-2.467 5.621l2.467-.815m-2.467 4.806l2.467-.815m-2.467 4.806l2.467-.814m-2.467 5.62l2.467-.815m-2.467 4.807l2.467-.815m-2.467 5.62l2.467-.814m-2.467 4.807l2.467-.815m26.317-25.578v29.57M33.9 21.224l5.756-2.443M33.9 25.216l5.756-2.444M33.9 29.207l5.756-2.362M33.9 34.013l5.756-2.444M33.9 38.005l5.756-2.362" stroke="#6B6C6E" stroke-width="2"/></svg>