<svg width="55" height="33" fill="none" xmlns="http://www.w3.org/2000/svg"><path clip-rule="evenodd" d="M24.625 29.632a1.69 1.69 0 01-1.688 1.684H11.97a1.69 1.69 0 01-1.688-1.684V25.42c0-.926.76-1.684 1.688-1.684h10.969a1.69 1.69 0 011.687 1.684v4.21z" stroke="#6B6C6E" stroke-width="2"/><path clip-rule="evenodd" d="M38.969 29.632a1.69 1.69 0 01-1.688 1.684H26.313a1.69 1.69 0 01-1.688-1.684V25.42c0-.926.76-1.684 1.688-1.684H37.28a1.69 1.69 0 011.688 1.684v4.21zm14.344 0a1.69 1.69 0 01-1.688 1.684H40.656a1.69 1.69 0 01-1.687-1.684V25.42c0-.926.76-1.684 1.687-1.684h10.969a1.69 1.69 0 011.688 1.684v4.21zm-43.032 0a1.69 1.69 0 01-1.687 1.684H2.688A1.69 1.69 0 011 29.632V25.42c0-.926.76-1.684 1.688-1.684h5.906a1.69 1.69 0 011.687 1.684v4.21zm14.344-15.158a1.69 1.69 0 01-1.688 1.684H11.97a1.69 1.69 0 01-1.688-1.684v-4.21c0-.927.76-1.685 1.688-1.685h10.969a1.69 1.69 0 011.687 1.684v4.21z" stroke="#6B6C6E" stroke-width="2"/><path clip-rule="evenodd" d="M38.969 14.474a1.69 1.69 0 01-1.688 1.684H26.313a1.69 1.69 0 01-1.688-1.684v-4.21c0-.927.76-1.685 1.688-1.685H37.28a1.69 1.69 0 011.688 1.684v4.21zm14.344 0a1.69 1.69 0 01-1.688 1.684H40.656a1.69 1.69 0 01-1.687-1.684v-4.21c0-.927.76-1.685 1.687-1.685h10.969a1.69 1.69 0 011.688 1.684v4.21zm-43.032 0a1.69 1.69 0 01-1.687 1.684H2.688A1.69 1.69 0 011 14.474v-4.21c0-.927.76-1.685 1.688-1.685h5.906a1.69 1.69 0 011.687 1.684v4.21zm5.063-7.579a1.69 1.69 0 01-1.688 1.684H2.687A1.69 1.69 0 011 6.895v-4.21C1 1.757 1.76 1 2.688 1h10.968a1.69 1.69 0 011.688 1.684v4.21z" stroke="#6B6C6E" stroke-width="2"/><path clip-rule="evenodd" d="M29.688 6.895A1.69 1.69 0 0128 8.579H17.031a1.69 1.69 0 01-1.687-1.684v-4.21c0-.927.76-1.685 1.687-1.685H28a1.69 1.69 0 011.688 1.684v4.21z" stroke="#6B6C6E" stroke-width="2"/><path clip-rule="evenodd" d="M44.031 6.895a1.69 1.69 0 01-1.687 1.684H31.375a1.69 1.69 0 01-1.688-1.684v-4.21c0-.927.76-1.685 1.688-1.685h10.969a1.69 1.69 0 011.687 1.684v4.21zM15.344 22.052a1.69 1.69 0 01-1.688 1.685H2.687A1.69 1.69 0 011 22.053v-4.211c0-.926.76-1.684 1.688-1.684h10.968a1.69 1.69 0 011.688 1.684v4.21zm14.344 0A1.69 1.69 0 0128 23.737H17.031a1.69 1.69 0 01-1.687-1.684v-4.211c0-.926.76-1.684 1.687-1.684H28a1.69 1.69 0 011.688 1.684v4.21z" stroke="#6B6C6E" stroke-width="2"/><path clip-rule="evenodd" d="M44.031 22.052a1.69 1.69 0 01-1.687 1.685H31.375a1.69 1.69 0 01-1.688-1.684v-4.211c0-.926.76-1.684 1.688-1.684h10.969a1.69 1.69 0 011.687 1.684v4.21zm9.282 0a1.69 1.69 0 01-1.688 1.685h-5.906a1.69 1.69 0 01-1.688-1.684v-4.211c0-.926.76-1.684 1.688-1.684h5.906a1.69 1.69 0 011.688 1.684v4.21z" stroke="#6B6C6E" stroke-width="2"/></svg>