<svg width="43" height="43" viewBox="0 0 43 43" fill="none" xmlns="http://www.w3.org/2000/svg">
<path d="M0.331055 42.9015L3.97213 31.979C2.12458 28.8716 1.06102 25.2451 1.06102 21.3675C1.06102 9.87784 10.3754 0.563477 21.8651 0.563477C33.3547 0.563477 42.6691 9.87784 42.6691 21.3675C42.6691 32.8572 33.3547 42.1715 21.8651 42.1715C18.3692 42.1715 15.0771 41.3051 12.1857 39.7824L0.331055 42.9015Z" fill="black"/>
<path d="M35.1381 28.2912C34.1775 26.4757 30.6349 24.3997 30.6349 24.3997C29.8334 23.9428 28.8662 23.8917 28.4093 24.7063C28.4093 24.7063 27.2581 26.0867 26.9654 26.2852C25.6281 27.1911 24.3893 27.1561 23.1389 25.9056L20.2329 22.9997L17.3269 20.0937C16.0765 18.8432 16.0414 17.6045 16.9473 16.2672C17.1459 15.9745 18.5263 14.8233 18.5263 14.8233C19.3409 14.3656 19.2898 13.3991 18.8328 12.5976C18.8328 12.5976 16.7568 9.05511 14.9414 8.09447C14.1691 7.68569 13.2209 7.82877 12.6033 8.44632L11.32 9.7296C7.24901 13.8006 9.25349 18.3965 13.3245 22.4675L17.0452 26.1881L20.7658 29.9088C24.8368 33.9798 29.4327 35.9843 33.5037 31.9133L34.787 30.63C35.4045 30.011 35.5469 29.0627 35.1381 28.2912Z" fill="white"/>
</svg>
