<svg width="57" height="60" viewBox="0 0 57 60" fill="none" xmlns="http://www.w3.org/2000/svg">
<g opacity="0.66">
<path d="M31.4221 6.65088H28.1038C27.5144 6.65088 27.0349 7.13037 27.0349 7.71984V11.7018C27.0348 12.2911 27.5143 12.7706 28.1038 12.7706H31.4221C32.0115 12.7706 32.4911 12.2911 32.4911 11.7016V7.71984C32.4911 7.13049 32.0116 6.65088 31.4221 6.65088ZM30.8028 11.0824H28.723V8.33908H30.8028V11.0824Z" fill="white"/>
<path d="M38.0198 6.65088H34.7014C34.1121 6.65088 33.6326 7.13037 33.6326 7.71984V11.7018C33.6326 12.2911 34.1119 12.7706 34.7014 12.7706H38.0198C38.6091 12.7706 39.0886 12.2911 39.0886 11.7016V7.71984C39.0886 7.13049 38.6091 6.65088 38.0198 6.65088ZM37.4003 11.0824H35.3207V8.33908H37.4003V11.0824Z" fill="white"/>
<path d="M44.6174 6.65088H41.2991C40.7097 6.65088 40.2302 7.13037 40.2302 7.71984V11.7018C40.2302 12.2911 40.7097 12.7706 41.2991 12.7706H44.6174C45.2068 12.7706 45.6864 12.2911 45.6864 11.7016V7.71984C45.6864 7.13049 45.2069 6.65088 44.6174 6.65088ZM43.9982 11.0824H41.9184V8.33908H43.9982V11.0824Z" fill="white"/>
<path d="M31.4221 16.5391H28.1038C27.5144 16.5391 27.0349 17.0186 27.0349 17.608V21.5899C27.0348 22.1794 27.5143 22.6589 28.1038 22.6589H31.4221C32.0115 22.6589 32.4911 22.1794 32.4911 21.5899V17.608C32.4911 17.0187 32.0116 16.5391 31.4221 16.5391ZM30.8028 20.9708H28.723V18.2275H30.8028V20.9708Z" fill="white"/>
<path d="M38.0198 16.5391H34.7014C34.1121 16.5391 33.6326 17.0186 33.6326 17.608V21.5899C33.6326 22.1794 34.1119 22.6589 34.7014 22.6589H38.0198C38.6091 22.6589 39.0886 22.1794 39.0886 21.5899V17.608C39.0886 17.0187 38.6091 16.5391 38.0198 16.5391ZM37.4003 20.9708H35.3207V18.2275H37.4003V20.9708Z" fill="white"/>
<path d="M44.6174 16.5391H41.2991C40.7097 16.5391 40.2302 17.0186 40.2302 17.608V21.5899C40.2302 22.1794 40.7097 22.6589 41.2991 22.6589H44.6174C45.2068 22.6589 45.6864 22.1794 45.6864 21.5899V17.608C45.6864 17.0187 45.2069 16.5391 44.6174 16.5391ZM43.9982 20.9708H41.9184V18.2275H43.9982V20.9708Z" fill="white"/>
<path d="M31.4221 26.4274H28.1038C27.5144 26.4274 27.0349 26.9069 27.0349 27.4964V31.4783C27.0348 32.0677 27.5143 32.5473 28.1038 32.5473H31.4221C32.0115 32.5473 32.4911 32.0678 32.4911 31.4783V27.4964C32.4911 26.907 32.0116 26.4274 31.4221 26.4274ZM30.8028 30.8591H28.723V28.1157H30.8028V30.8591Z" fill="white"/>
<path d="M38.0198 26.4274H34.7014C34.1121 26.4274 33.6326 26.9069 33.6326 27.4964V31.4783C33.6326 32.0677 34.1119 32.5473 34.7014 32.5473H38.0198C38.6091 32.5473 39.0886 32.0678 39.0886 31.4783V27.4964C39.0886 26.907 38.6091 26.4274 38.0198 26.4274ZM37.4003 30.8591H35.3207V28.1157H37.4003V30.8591Z" fill="white"/>
<path d="M44.6174 26.4274H41.2991C40.7097 26.4274 40.2302 26.9069 40.2302 27.4964V31.4783C40.2302 32.0677 40.7097 32.5473 41.2991 32.5473H44.6174C45.2068 32.5473 45.6864 32.0678 45.6864 31.4783V27.4964C45.6864 26.907 45.2069 26.4274 44.6174 26.4274ZM43.9982 30.8591H41.9184V28.1157H43.9982V30.8591Z" fill="white"/>
<path d="M55.6676 40.0774C54.586 38.4877 52.4076 38.0668 50.8128 39.1385L48.492 40.6917V4.38097H48.6603C49.2714 4.38097 49.7686 3.88382 49.7686 3.27266V1.10831C49.7686 0.497148 49.2714 0 48.6603 0H43.2701C42.8039 0 42.4261 0.377939 42.4261 0.844044C42.4261 1.31015 42.804 1.68809 43.2701 1.68809H48.0804V2.69265H24.3804V1.68809H37.9844C38.4506 1.68809 38.8284 1.31015 38.8284 0.844044C38.8284 0.377939 38.4505 0 37.9843 0H23.8006C23.1894 0 22.6922 0.497148 22.6922 1.10831V3.27266C22.6922 3.88382 23.1894 4.38097 23.8006 4.38097H24.2292V15.223H22.4959V13.1396C22.4959 12.4142 21.9058 11.824 21.1805 11.824H14.8071C14.0817 11.824 13.4915 12.4142 13.4915 13.1396V15.2229H12.2787C11.5249 15.2229 10.9116 15.8361 10.9116 16.5899V35.9479C10.5544 35.9252 10.196 35.9129 9.83691 35.9129H8.50656V35.4742C8.50656 33.8365 7.17426 32.5042 5.53648 32.5042H2.97008C1.33242 32.5042 0 33.8365 0 35.4742V47.5278C0 47.994 0.377939 48.3719 0.844044 48.3719C1.31015 48.3719 1.68809 47.9939 1.68809 47.5278V35.4742C1.68809 34.7675 2.26313 34.1924 2.96996 34.1924H5.53637C6.2432 34.1924 6.81824 34.7675 6.81824 35.4742V54.4666C6.81824 55.1733 6.2432 55.7483 5.53637 55.7483H2.97008C2.26325 55.7483 1.6882 55.1733 1.6882 54.4666V52.8104C1.6882 52.3442 1.31026 51.9664 0.844159 51.9664C0.378054 51.9664 0.000115448 52.3443 0.000115448 52.8104V54.4666C0.000115448 56.1042 1.33242 57.4365 2.97019 57.4365H5.5366C7.17426 57.4365 8.50668 56.1041 8.50668 54.4666V54.4184L20.1948 58.8445C20.2177 58.8532 20.2409 58.8608 20.2644 58.8675C20.778 59.0125 21.2913 59.0854 21.8 59.0854C22.0765 59.0854 22.3516 59.0638 22.6246 59.0207C22.6248 59.0207 22.6254 59.0206 22.6262 59.0205L39.8788 56.5336C39.8831 56.533 39.8872 56.5323 39.8915 56.5317C41.3663 56.2961 42.7575 55.6728 43.9149 54.729C43.9254 54.7204 43.9357 54.7115 43.9458 54.7024L55.0968 44.6733C56.4108 43.5062 56.6563 41.5305 55.6676 40.0774ZM25.9174 4.38097H46.8039V41.8216L39.7808 46.5218L37.4262 46.3896L37.3662 45.7868C37.3222 45.344 37.223 44.918 37.0753 44.5161C37.026 44.3821 36.9714 44.2508 36.9117 44.1223C36.8221 43.9297 36.721 43.7437 36.6092 43.5651C36.3448 43.1431 36.0205 42.7628 35.6477 42.4355H38.0199C38.6093 42.4355 39.0888 41.956 39.0888 41.3666V37.3847C39.0888 36.7953 38.6093 36.3158 38.0199 36.3158H34.7016C34.1122 36.3158 33.6327 36.7953 33.6327 37.3847V41.3476C33.4195 41.2888 33.2006 41.2427 32.9766 41.211C32.9694 41.21 32.9621 41.209 32.9549 41.2082L32.491 41.1548V37.3845C32.491 36.7952 32.0115 36.3156 31.422 36.3156H28.1036C27.5143 36.3156 27.0348 36.7951 27.0348 37.3845V40.5267L25.9174 40.3981V4.38097ZM35.3207 40.7473V38.0041H37.4003V40.7473H35.3207ZM30.8026 38.004V40.7473H28.9496L28.7229 40.7212V38.004H30.8026ZM15.1797 13.5122H20.8077V15.2229H15.1797V13.5122ZM12.5996 16.9111H24.2292V19.5508H14.6963C14.1506 19.5508 13.7067 19.9947 13.7067 20.5405V23.0891C13.7067 23.6348 14.1506 24.0788 14.6963 24.0788H24.2292V26.4535H14.6963C14.1506 26.4535 13.7067 26.8975 13.7067 27.4432V29.9917C13.7067 30.5374 14.1506 30.9814 14.6963 30.9814H24.2292V33.3561H14.6963C14.1506 33.3561 13.7067 33.8001 13.7067 34.3458V36.361C13.5633 36.3277 13.4194 36.2965 13.2749 36.2668C13.2069 36.2527 13.1388 36.2393 13.0704 36.226C12.9906 36.2106 12.9104 36.196 12.8302 36.1817C12.7533 36.1679 12.6767 36.1531 12.5996 36.1404V16.9111ZM24.2292 21.239V22.3906H15.3949V21.239H24.2292ZM24.2292 28.1416V29.2932H15.3949V28.1416H24.2292ZM15.3949 36.1959V35.0443H24.2292V36.1959H15.3949ZM24.2292 37.8841V40.2038L23.9692 40.1738C23.4238 40.0962 22.8865 39.9893 22.3576 39.8553C21.3322 39.5955 20.3396 39.2313 19.3881 38.7636C19.2616 38.7014 19.1362 38.637 19.0112 38.5711C18.8071 38.4636 18.605 38.3521 18.405 38.235C18.2577 38.1488 18.1091 38.066 17.9599 37.9845C17.9276 37.9669 17.8953 37.9494 17.8628 37.9321C17.8332 37.9162 17.8036 37.8998 17.774 37.8841H24.2292ZM53.9718 43.4145L42.8325 53.433C41.9101 54.1808 40.8039 54.6752 39.6313 54.8635L22.3786 57.3504C22.3748 57.351 22.3591 57.3534 22.3554 57.354C21.8392 57.4356 21.3015 57.4013 20.7569 57.2522L8.50656 52.6132V37.6013H9.83679C10.4489 37.6013 11.0585 37.6401 11.6631 37.7131C11.7859 37.7279 11.9082 37.7441 12.0303 37.7618C12.0481 37.7643 12.0658 37.7671 12.0834 37.7697C12.3919 37.8154 12.6976 37.8709 13.0007 37.9347C13.095 37.9546 13.1894 37.9747 13.2834 37.9964C13.3303 38.0072 13.3771 38.0187 13.4239 38.0299C13.5464 38.0594 13.6686 38.0901 13.7903 38.1228C13.8122 38.1286 13.8343 38.1343 13.8562 38.1403C14.8099 38.4003 15.7384 38.7528 16.6275 39.1938C16.654 39.207 16.6804 39.2203 16.7068 39.2337C16.8199 39.2906 16.9322 39.3492 17.0439 39.4089C17.078 39.4271 17.1121 39.445 17.1461 39.4635C17.2805 39.5368 17.4143 39.6115 17.5466 39.689C17.5486 39.6901 17.5505 39.6912 17.5525 39.6923C17.9113 39.9021 18.276 40.0982 18.6463 40.2802C20.2508 41.0688 21.9601 41.5947 23.7432 41.847C23.7505 41.848 23.7576 41.8489 23.7649 41.8497L24.9767 41.9893L25.9636 42.1029L28.2397 42.365L28.8045 42.4301C28.8046 42.4301 28.8047 42.4301 28.8048 42.4301L32.7499 42.8843C34.3221 43.1114 35.5289 44.3723 35.6862 45.954L35.7155 46.2481L19.8939 44.7062C19.4285 44.6608 19.0171 45.0004 18.9718 45.4645C18.9267 45.9285 19.2661 46.3413 19.7301 46.3865L36.5028 48.0213C36.538 48.0279 36.5737 48.0331 36.6103 48.035L39.9681 48.2235C39.9839 48.2244 39.9998 48.2247 40.0155 48.2247C40.0322 48.2247 40.0486 48.2221 40.0653 48.221C40.0845 48.2199 40.1035 48.2192 40.1224 48.2168C40.1467 48.2137 40.1704 48.2083 40.1943 48.2032C40.213 48.1991 40.2318 48.1959 40.2501 48.1906C40.2754 48.1832 40.3 48.1733 40.3246 48.1635C40.3402 48.1573 40.3561 48.1525 40.3712 48.1455C40.4105 48.1272 40.4486 48.1062 40.4849 48.082L48.1174 42.974L48.1175 42.9739L51.7531 40.5408C52.5809 39.9845 53.7109 40.2027 54.2719 41.0273C54.7847 41.7809 54.6574 42.8056 53.9718 43.4145Z" fill="white"/>
</g>
</svg>
