<svg width="43" height="43" viewBox="0 0 43 43" fill="none" xmlns="http://www.w3.org/2000/svg">
<path d="M29.9894 4.09165C32.3268 4.09165 34.543 5.01779 36.2189 6.68264C37.8947 8.3475 38.8099 10.5747 38.8099 12.9121V30.5529C38.8099 32.8903 37.8837 35.1065 36.2189 36.7823C34.554 38.4582 32.3268 39.3733 29.9894 39.3733H12.3486C10.0112 39.3733 7.79505 38.4472 6.11917 36.7823C4.44329 35.1175 3.52817 32.8903 3.52817 30.5529V12.9121C3.52817 10.5747 4.45431 8.35852 6.11917 6.68264C7.78402 5.00676 10.0112 4.09165 12.3486 4.09165H29.9894ZM29.9894 0.563477H12.3486C5.55687 0.563477 0 6.12034 0 12.9121V30.5529C0 37.3446 5.55687 42.9015 12.3486 42.9015H29.9894C36.7812 42.9015 42.338 37.3446 42.338 30.5529V12.9121C42.338 6.12034 36.7812 0.563477 29.9894 0.563477Z" fill="black"/>
<path d="M32.6355 12.9119C31.1691 12.9119 29.9894 11.7322 29.9894 10.2658C29.9894 8.79936 31.1691 7.61963 32.6355 7.61963C34.0909 7.61963 35.2817 8.79936 35.2817 10.2658C35.2817 11.7322 34.0909 12.9119 32.6355 12.9119ZM21.169 14.676C25.061 14.676 28.2253 17.8403 28.2253 21.7323C28.2253 25.6243 25.061 28.7886 21.169 28.7886C17.277 28.7886 14.1126 25.6243 14.1126 21.7323C14.1126 17.8403 17.277 14.676 21.169 14.676ZM21.169 11.1478C15.3254 11.1478 10.5845 15.8888 10.5845 21.7323C10.5845 27.5758 15.3254 32.3168 21.169 32.3168C27.0125 32.3168 31.7535 27.5758 31.7535 21.7323C31.7535 15.8888 27.0125 11.1478 21.169 11.1478Z" fill="black"/>
</svg>
