<svg width="60" height="60" fill="none" xmlns="http://www.w3.org/2000/svg"><g opacity=".66" fill="#fff"><path d="M27.67 20.673a44.4 44.4 0 00-.097 2.961c0 4.933 1.472 7.878 3.939 7.878 3.11 0 3.939-3.713 3.939-5.908a.985.985 0 00-1.97 0c0 .039-.084 3.939-1.969 3.939-1.141 0-1.97-2.485-1.97-5.909 0-11.481 4.03-12.789 4.157-12.825a.986.986 0 00-.41-1.926c-.197.039-.911.226-1.77.962a1.98 1.98 0 01.06-.508c.136-.508.462-.932.918-1.195a1.958 1.958 0 011.494-.197 1.97 1.97 0 01.476 3.608.986.986 0 00.984 1.706 3.945 3.945 0 001.442-5.38A3.917 3.917 0 0034.5 6.042a3.91 3.91 0 00-2.989.393 3.916 3.916 0 00-1.836 2.392c-.255.952-.133 1.94.33 2.838-.846 1.375-1.635 3.422-2.075 6.467-1.474-1.765-2.328-4.015-2.328-6.316 0-5.43 4.418-9.848 9.848-9.848 5.43 0 9.847 4.418 9.847 9.848 0 5.43-4.417 9.848-9.847 9.848-1.07 0-2.121-.17-3.125-.506a.986.986 0 00-.624 1.867 11.8 11.8 0 003.749.608c6.516 0 11.817-5.3 11.817-11.817C47.268 5.301 41.968 0 35.451 0c-6.516 0-11.817 5.301-11.817 11.817 0 3.358 1.508 6.622 4.037 8.856zm31.127 8.173L48.569 18.62a.985.985 0 00-1.392 1.392l9.939 9.94v3.53h-3.532l-.407-.407v-2.546a.985.985 0 00-.985-.985h-.985v-.985a.985.985 0 00-.984-.985h-2.546l-.409-.408V24.62a.985.985 0 00-.984-.985h-2.547l-.096-.095a.985.985 0 00-1.392 1.392l.384.384a.982.982 0 00.696.289h1.97v1.968c0 .261.103.511.287.696l.985.986a.985.985 0 00.697.289h1.97v.985c0 .543.441.984.985.984h.984v1.97c0 .26.104.512.289.696l.985.985a.982.982 0 00.696.288H58.1a.985.985 0 00.984-.984v-4.924a.982.982 0 00-.288-.697zM5.909 16.74c0 .544.44.986.984.986h.985v5.908h-.985a.985.985 0 000 1.97h.985v5.908h-.985a.985.985 0 000 1.97h.985v5.908h-.985a.985.985 0 000 1.97h.985v5.908h-.985a.985.985 0 000 1.97h.985v4.923a.985.985 0 001.97 0v-4.924h3.938v4.924a.985.985 0 001.97 0v-4.924h3.939v4.924a.985.985 0 001.97 0v-4.924h3.938v4.924a.985.985 0 001.97 0v-4.924h.985a.985.985 0 000-1.969h-.985v-5.909h.985a.985.985 0 000-1.969h-.985v-5.909a.985.985 0 000-1.969.985.985 0 00-1.97 0h-3.939v-5.908h2.955a.985.985 0 000-1.97h-2.955v-5.908h.493a.985.985 0 000-1.97H6.893a.985.985 0 00-.984.985zm15.756 16.742h3.939v5.908h-3.94v-5.908zm0 7.878h3.939v5.908h-3.94V41.36zm-5.909-23.634h3.94v5.908h-3.94v-5.908zm0 7.878h3.94v5.908h-3.94v-5.908zm0 7.878h3.94v5.908h-3.94v-5.908zm0 7.878h3.94v5.908h-3.94V41.36zM9.848 17.726h3.939v5.908h-3.94v-5.908zm0 7.878h3.939v5.908h-3.94v-5.908zm0 7.878h3.939v5.908h-3.94v-5.908zm0 7.878h3.939v5.908h-3.94V41.36zM20.68 13.787a.985.985 0 000-1.97h-5.91a.985.985 0 000 1.97h5.909z"/><path d="M58.1 57.116H43.33v-4.039a4.932 4.932 0 003.938-4.824c0-.128-.056-12.802-4.924-12.802-4.867 0-4.923 12.674-4.923 12.802a4.932 4.932 0 003.939 4.824v4.039h-7.878v-22.65a.985.985 0 00-1.97 0v22.65H3.94v-43.33h6.893a.985.985 0 00.985-.984V9.848h8.863a.985.985 0 000-1.97h-9.848a.985.985 0 00-.984.985v2.954H2.954a.985.985 0 00-.984.985v44.314H.985a.985.985 0 000 1.97H58.1a.985.985 0 000-1.97zm-18.71-8.863c0-4.906 1.318-10.832 2.954-10.832 1.637 0 2.955 5.926 2.955 10.832a2.958 2.958 0 01-2.955 2.954 2.958 2.958 0 01-2.954-2.954z"/></g></svg>