<svg width="42" height="43" viewBox="0 0 42 43" fill="none" xmlns="http://www.w3.org/2000/svg">
<path d="M21 0C9.39852 0 0 9.62368 0 21.5C0 33.3763 9.39987 43 21 43C32.6015 43 42 33.3763 42 21.5C42 9.62368 32.6001 0 21 0ZM31.3144 14.7296L27.8677 31.3581C27.613 32.5371 26.9274 32.8229 25.9709 32.268L20.7209 28.3065L18.1887 30.8033C17.9096 31.089 17.6725 31.3317 17.1306 31.3317L17.5032 25.861L27.2323 16.8615C27.6563 16.4801 27.1388 16.2637 26.5792 16.6452L14.555 24.3949L9.37278 22.7387C8.2469 22.3753 8.22116 21.586 9.60987 21.0312L29.8566 13.0373C30.7968 12.6905 31.6179 13.2717 31.313 14.7282L31.3144 14.7296Z" fill="black"/>
</svg>
