<svg width="33" height="34" viewBox="0 0 33 34" fill="none" xmlns="http://www.w3.org/2000/svg">
<g opacity="0.5">
<path d="M0.595703 33.1695L3.38246 24.8098C1.96841 22.4314 1.15439 19.6559 1.15439 16.6881C1.15439 7.89429 8.2833 0.765381 17.0771 0.765381C25.8709 0.765381 32.9998 7.89429 32.9998 16.6881C32.9998 25.4819 25.8709 32.6108 17.0771 32.6108C14.4015 32.6108 11.8818 31.9477 9.66886 30.7822L0.595703 33.1695Z" fill="white"/>
<path d="M27.2365 21.9873C26.5013 20.5978 23.7899 19.0089 23.7899 19.0089C23.1765 18.6591 22.4362 18.62 22.0865 19.2435C22.0865 19.2435 21.2054 20.3 20.9814 20.452C19.9579 21.1453 19.0098 21.1185 18.0527 20.1614L15.8286 17.9373L13.6044 15.7131C12.6474 14.7561 12.6206 13.808 13.3139 12.7845C13.4659 12.5604 14.5224 11.6794 14.5224 11.6794C15.1459 11.3291 15.1067 10.5894 14.757 9.97593C14.757 9.97593 13.1681 7.2646 11.7786 6.52936C11.1875 6.2165 10.4618 6.326 9.98912 6.79865L9.00694 7.78083C5.89112 10.8967 7.42529 14.4142 10.5411 17.53L13.3888 20.3777L16.2364 23.2253C19.3522 26.3411 22.8698 27.8753 25.9856 24.7595L26.9678 23.7773C27.4404 23.3035 27.5494 22.5778 27.2365 21.9873Z" fill="#1C1C1B"/>
</g>
</svg>
