<svg width="60" height="59" viewBox="0 0 60 59" fill="none" xmlns="http://www.w3.org/2000/svg">
<path opacity="0.66" d="M28.5455 42.649V42.7671L28.5983 42.8727C28.6496 42.9753 28.6745 43.049 28.7075 43.1478L28.7087 43.1513C28.7358 43.2325 28.7678 43.3285 28.8199 43.4457C28.8274 43.7136 28.859 43.9977 28.8877 44.2558L28.8894 44.2712C28.9243 44.5849 28.9545 44.8622 28.9545 45.1016V58.2275H23.6818V44.5566V44.0566H23.1818H21.1364H20.6364V44.5566V58.2275H8.68182V44.5566V44.0566H8.18182H6H5.5V44.5566V58.5H0.5V45.2379C0.5 39.7915 4.91214 35.3822 10.3636 35.3822H18.9545C21.1487 35.3822 23.0968 36.1546 24.8064 37.3373L24.8064 37.3374L24.8137 37.3422C25.2371 37.6243 25.5984 37.8675 25.8284 38.0973C26.4666 38.735 26.9838 39.506 27.5319 40.3274C27.7965 40.7701 27.9265 41.1269 28.0828 41.5559C28.1492 41.738 28.2204 41.9332 28.3085 42.1535L28.3467 42.2488L28.4193 42.3214C28.4346 42.3366 28.4698 42.3823 28.5007 42.4543C28.5307 42.5241 28.5455 42.5932 28.5455 42.649ZM43.9091 22.8002H43.4091V23.3002V37.2436H32.4091V23.3002V22.8002H31.9091H30H29.5V23.3002V36.8657C28.2037 35.3184 26.5948 34.0987 24.7727 33.2046V23.709C24.7727 18.6714 28.9121 14.5346 33.9545 14.5346H35.5205C35.5131 14.5575 35.5065 14.5798 35.5006 14.6013C35.4348 14.8423 35.4095 15.1727 35.5392 15.4563L36.3072 17.5027L34.8217 29.9175L34.791 30.1743L34.9829 30.3478L37.8465 32.9367L38.1818 33.2399L38.5171 32.9367L41.3808 30.3478L41.5726 30.1743L41.5419 29.9175L40.0564 17.5027L40.8244 15.4563C40.9541 15.1727 40.9288 14.8423 40.863 14.6013C40.8572 14.5798 40.8506 14.5575 40.8432 14.5346H42C47.0424 14.5346 51.1818 18.6714 51.1818 23.709V37.2436H46.3182V23.3002V22.8002H45.8182H43.9091ZM21.0455 26.5704C21.0455 30.1092 18.2697 32.8834 14.7273 32.8834C11.1849 32.8834 8.40909 30.1092 8.40909 26.5704C8.40909 23.0317 11.1849 20.2575 14.7273 20.2575C18.2697 20.2575 21.0455 23.0317 21.0455 26.5704ZM32.2727 45.1016C32.2727 43.5282 31.9634 41.9571 31.4317 40.56H58.6476L43.5879 53.4584H32.2727V45.1016ZM43.8182 6.40416C43.8182 9.67038 41.1788 12.3083 37.9091 12.3083C34.6394 12.3083 32 9.67038 32 6.40416C32 3.13794 34.6394 0.5 37.9091 0.5C41.1788 0.5 43.8182 3.13794 43.8182 6.40416Z" fill="white" stroke="white"/>
</svg>
