<svg width="53" height="55" viewBox="0 0 53 55" fill="none" xmlns="http://www.w3.org/2000/svg">
<path d="M22.1149 2.49115V7.13528H1.38218C0.608159 7.13528 0 7.74344 0 8.51746V53.0237C0 53.7977 0.608159 54.4059 1.38218 54.4059H50.9748C51.7488 54.4059 52.357 53.7977 52.357 53.0237V1.38541C52.357 0.611385 51.6936 -0.0520621 50.9195 0.00322512L23.4418 1.10897C22.6678 1.10897 22.1149 1.71713 22.1149 2.49115ZM11.0574 51.6415H2.76436V9.89964H21.949V17.9716H12.4396C11.6656 17.9716 11.0574 18.5797 11.0574 19.3538V51.6415ZM25.1004 51.6415H21.6173V48.3243H25.1004V51.6415ZM32.7853 51.6415H27.8648V47.0527C27.8648 46.2786 27.2566 45.6705 26.4826 45.6705H20.2351C19.4611 45.6705 18.8529 46.2786 18.8529 47.0527V51.6968H13.8218V20.7359H32.7853V51.6415ZM49.5374 51.6415H35.5497V19.3538C35.5497 18.5797 34.9415 17.9716 34.1675 17.9716H24.8793V3.81804L49.5374 2.82287V51.6415Z" fill="black"/>
<path d="M6.35854 15.0966H8.01715C8.34888 15.0966 8.57003 14.8755 8.57003 14.5438V12.8851C8.57003 12.5534 8.34888 12.3323 8.01715 12.3323H6.35854C6.02681 12.3323 5.80566 12.5534 5.80566 12.8851V14.5438C5.80566 14.8755 6.0821 15.0966 6.35854 15.0966Z" fill="black"/>
<path d="M16.0333 15.0966H17.692C18.0237 15.0966 18.2448 14.8755 18.2448 14.5438V12.8851C18.2448 12.5534 18.0237 12.3323 17.692 12.3323H16.0333C15.7016 12.3323 15.4805 12.5534 15.4805 12.8851V14.5438C15.4805 14.8755 15.7569 15.0966 16.0333 15.0966Z" fill="black"/>
<path d="M30.6841 6.36127H29.0255C28.6938 6.36127 28.4727 6.58242 28.4727 6.91414V8.57276C28.4727 8.90448 28.6938 9.12563 29.0255 9.12563H30.6841C31.0159 9.12563 31.237 8.90448 31.237 8.57276V6.91414C31.237 6.6377 31.0159 6.36127 30.6841 6.36127Z" fill="black"/>
<path d="M39.1431 6.36127H37.4845C37.1528 6.36127 36.9316 6.58242 36.9316 6.91414V8.57276C36.9316 8.90448 37.1528 9.12563 37.4845 9.12563H39.1431C39.4749 9.12563 39.696 8.90448 39.696 8.57276V6.91414C39.696 6.6377 39.4749 6.36127 39.1431 6.36127Z" fill="black"/>
<path d="M46.441 6.36127H44.7824C44.4506 6.36127 44.2295 6.58242 44.2295 6.91414V8.57276C44.2295 8.90448 44.4506 9.12563 44.7824 9.12563H46.441C46.7727 9.12563 46.9939 8.90448 46.9939 8.57276V6.91414C46.9939 6.6377 46.7727 6.36127 46.441 6.36127Z" fill="black"/>
<path d="M30.6841 14.1014H29.0255C28.6938 14.1014 28.4727 14.3226 28.4727 14.6543V16.3129C28.4727 16.6447 28.6938 16.8658 29.0255 16.8658H30.6841C31.0159 16.8658 31.237 16.6447 31.237 16.3129V14.6543C31.237 14.3779 31.0159 14.1014 30.6841 14.1014Z" fill="black"/>
<path d="M39.1431 14.1014H37.4845C37.1528 14.1014 36.9316 14.3226 36.9316 14.6543V16.3129C36.9316 16.6447 37.1528 16.8658 37.4845 16.8658H39.1431C39.4749 16.8658 39.696 16.6447 39.696 16.3129V14.6543C39.696 14.3779 39.4749 14.1014 39.1431 14.1014Z" fill="black"/>
<path d="M46.441 14.1014H44.7824C44.4506 14.1014 44.2295 14.3226 44.2295 14.6543V16.3129C44.2295 16.6447 44.4506 16.8658 44.7824 16.8658H46.441C46.7727 16.8658 46.9939 16.6447 46.9939 16.3129V14.6543C46.9939 14.3779 46.7727 14.1014 46.441 14.1014Z" fill="black"/>
<path d="M39.1431 20.9018H37.4845C37.1528 20.9018 36.9316 21.1229 36.9316 21.4547V23.1133C36.9316 23.445 37.1528 23.6662 37.4845 23.6662H39.1431C39.4749 23.6662 39.696 23.445 39.696 23.1133V21.4547C39.696 21.1782 39.4749 20.9018 39.1431 20.9018Z" fill="black"/>
<path d="M46.441 20.9018H44.7824C44.4506 20.9018 44.2295 21.1229 44.2295 21.4547V23.1133C44.2295 23.445 44.4506 23.6662 44.7824 23.6662H46.441C46.7727 23.6662 46.9939 23.445 46.9939 23.1133V21.4547C46.9939 21.1782 46.7727 20.9018 46.441 20.9018Z" fill="black"/>
<path d="M39.1431 26.9834H37.4845C37.1528 26.9834 36.9316 27.2045 36.9316 27.5363V29.1949C36.9316 29.5266 37.1528 29.7478 37.4845 29.7478H39.1431C39.4749 29.7478 39.696 29.5266 39.696 29.1949V27.5363C39.696 27.2598 39.4749 26.9834 39.1431 26.9834Z" fill="black"/>
<path d="M46.441 26.9834H44.7824C44.4506 26.9834 44.2295 27.2045 44.2295 27.5363V29.1949C44.2295 29.5266 44.4506 29.7478 44.7824 29.7478H46.441C46.7727 29.7478 46.9939 29.5266 46.9939 29.1949V27.5363C46.9939 27.2598 46.7727 26.9834 46.441 26.9834Z" fill="black"/>
<path d="M39.1431 33.6179H37.4845C37.1528 33.6179 36.9316 33.839 36.9316 34.1707V35.8293C36.9316 36.1611 37.1528 36.3822 37.4845 36.3822H39.1431C39.4749 36.3822 39.696 36.1611 39.696 35.8293V34.1707C39.696 33.8943 39.4749 33.6179 39.1431 33.6179Z" fill="black"/>
<path d="M46.441 33.6179H44.7824C44.4506 33.6179 44.2295 33.839 44.2295 34.1707V35.8293C44.2295 36.1611 44.4506 36.3822 44.7824 36.3822H46.441C46.7727 36.3822 46.9939 36.1611 46.9939 35.8293V34.1707C46.9939 33.8943 46.7727 33.6179 46.441 33.6179Z" fill="black"/>
<path d="M39.1431 40.2523H37.4845C37.1528 40.2523 36.9316 40.4735 36.9316 40.8052V42.4638C36.9316 42.7955 37.1528 43.0167 37.4845 43.0167H39.1431C39.4749 43.0167 39.696 42.7955 39.696 42.4638V40.8052C39.696 40.5288 39.4749 40.2523 39.1431 40.2523Z" fill="black"/>
<path d="M46.441 40.2523H44.7824C44.4506 40.2523 44.2295 40.4735 44.2295 40.8052V42.4638C44.2295 42.7955 44.4506 43.0167 44.7824 43.0167H46.441C46.7727 43.0167 46.9939 42.7955 46.9939 42.4638V40.8052C46.9939 40.5288 46.7727 40.2523 46.441 40.2523Z" fill="black"/>
<path d="M39.1431 46.8868H37.4845C37.1528 46.8868 36.9316 47.1079 36.9316 47.4397V49.0983C36.9316 49.43 37.1528 49.6511 37.4845 49.6511H39.1431C39.4749 49.6511 39.696 49.43 39.696 49.0983V47.4397C39.696 47.1632 39.4749 46.8868 39.1431 46.8868Z" fill="black"/>
<path d="M46.441 46.8868H44.7824C44.4506 46.8868 44.2295 47.1079 44.2295 47.4397V49.0983C44.2295 49.43 44.4506 49.6511 44.7824 49.6511H46.441C46.7727 49.6511 46.9939 49.43 46.9939 49.0983V47.4397C46.9939 47.1632 46.7727 46.8868 46.441 46.8868Z" fill="black"/>
<path d="M6.35854 21.6206H8.01715C8.34888 21.6206 8.57003 21.3994 8.57003 21.0677V19.4091C8.57003 19.0774 8.34888 18.8562 8.01715 18.8562H6.35854C6.02681 18.8562 5.80566 19.0774 5.80566 19.4091V21.0677C5.80566 21.3994 6.0821 21.6206 6.35854 21.6206Z" fill="black"/>
<path d="M6.35854 28.1444H8.01715C8.34888 28.1444 8.57003 27.9233 8.57003 27.5916V25.9329C8.57003 25.6012 8.34888 25.3801 8.01715 25.3801H6.35854C6.02681 25.3801 5.80566 25.6012 5.80566 25.9329V27.5916C5.80566 27.9233 6.0821 28.1444 6.35854 28.1444Z" fill="black"/>
<path d="M6.35854 34.6683H8.01715C8.34888 34.6683 8.57003 34.4471 8.57003 34.1154V32.4568C8.57003 32.1251 8.34888 31.9039 8.01715 31.9039H6.35854C6.02681 31.9039 5.80566 32.1251 5.80566 32.4568V34.1154C5.80566 34.4471 6.0821 34.6683 6.35854 34.6683Z" fill="black"/>
<path d="M6.35854 41.1922H8.01715C8.34888 41.1922 8.57003 40.9711 8.57003 40.6393V38.9807C8.57003 38.649 8.34888 38.4279 8.01715 38.4279H6.35854C6.02681 38.4279 5.80566 38.649 5.80566 38.9807V40.6393C5.80566 40.9711 6.0821 41.1922 6.35854 41.1922Z" fill="black"/>
<path d="M6.35854 47.7161H8.01715C8.34888 47.7161 8.57003 47.4949 8.57003 47.1632V45.5046C8.57003 45.1729 8.34888 44.9517 8.01715 44.9517H6.35854C6.02681 44.9517 5.80566 45.1729 5.80566 45.5046V47.1632C5.80566 47.4949 6.0821 47.7161 6.35854 47.7161Z" fill="black"/>
<path d="M19.4058 23.5003H17.7472C17.4155 23.5003 17.1943 23.7215 17.1943 24.0532V25.7118C17.1943 26.0435 17.4155 26.2647 17.7472 26.2647H19.4058C19.7375 26.2647 19.9587 26.0435 19.9587 25.7118V24.0532C19.9587 23.7767 19.7375 23.5003 19.4058 23.5003Z" fill="black"/>
<path d="M28.9713 23.5003H27.3126C26.9809 23.5003 26.7598 23.7215 26.7598 24.0532V25.7118C26.7598 26.0435 26.9809 26.2647 27.3126 26.2647H28.9713C29.303 26.2647 29.5241 26.0435 29.5241 25.7118V24.0532C29.5241 23.7767 29.2477 23.5003 28.9713 23.5003Z" fill="black"/>
<path d="M19.4058 31.2405H17.7472C17.4155 31.2405 17.1943 31.4617 17.1943 31.7934V33.452C17.1943 33.7838 17.4155 34.0049 17.7472 34.0049H19.4058C19.7375 34.0049 19.9587 33.7838 19.9587 33.452V31.7934C19.9587 31.517 19.7375 31.2405 19.4058 31.2405Z" fill="black"/>
<path d="M28.9713 31.2405H27.3126C26.9809 31.2405 26.7598 31.4617 26.7598 31.7934V33.452C26.7598 33.7838 26.9809 34.0049 27.3126 34.0049H28.9713C29.303 34.0049 29.5241 33.7838 29.5241 33.452V31.7934C29.5241 31.517 29.2477 31.2405 28.9713 31.2405Z" fill="black"/>
<path d="M19.4058 38.9807H17.7472C17.4155 38.9807 17.1943 39.2019 17.1943 39.5336V41.1922C17.1943 41.5239 17.4155 41.7451 17.7472 41.7451H19.4058C19.7375 41.7451 19.9587 41.5239 19.9587 41.1922V39.5336C19.9587 39.2571 19.7375 38.9807 19.4058 38.9807Z" fill="black"/>
<path d="M28.9713 38.9807H27.3126C26.9809 38.9807 26.7598 39.2019 26.7598 39.5336V41.1922C26.7598 41.5239 26.9809 41.7451 27.3126 41.7451H28.9713C29.303 41.7451 29.5241 41.5239 29.5241 41.1922V39.5336C29.5241 39.2571 29.2477 38.9807 28.9713 38.9807Z" fill="black"/>
</svg>
