<svg width="43" height="45" viewBox="0 0 43 45" fill="none" xmlns="http://www.w3.org/2000/svg">
<path fill-rule="evenodd" clip-rule="evenodd" d="M24.7983 9.89624C23.496 9.35575 22.095 9.09347 20.6854 9.12625C20.3818 9.13331 20.13 8.89294 20.123 8.58938C20.1159 8.28582 20.3563 8.03402 20.6598 8.02696C22.2227 7.99062 23.7759 8.2814 25.2198 8.88064C26.6637 9.47988 27.9663 10.3743 29.0442 11.5066C30.1221 12.6389 30.9513 13.9841 31.4787 15.4557C32.0062 16.9273 32.2201 18.493 32.1069 20.0522C32.0849 20.355 31.8216 20.5827 31.5187 20.5607C31.2159 20.5387 30.9882 20.2754 31.0102 19.9725C31.1123 18.5662 30.9193 17.154 30.4436 15.8267C29.9679 14.4993 29.2199 13.2861 28.2478 12.2648C27.2756 11.2435 26.1006 10.4367 24.7983 9.89624ZM24.2178 12.5066C23.4102 12.1617 22.541 11.9844 21.6628 11.9853C21.3592 11.9857 21.1128 11.7398 21.1124 11.4361C21.1121 11.1325 21.358 10.8861 21.6616 10.8857C22.6886 10.8846 23.7052 11.092 24.6497 11.4953C25.5942 11.8987 26.4469 12.4896 27.1563 13.2322C27.8657 13.9748 28.417 14.8538 28.7766 15.8157C29.1363 16.7777 29.2969 17.8027 29.2488 18.8286C29.2346 19.1319 28.9771 19.3662 28.6738 19.352C28.3705 19.3377 28.1362 19.0803 28.1504 18.777C28.1916 17.8998 28.0542 17.0234 27.7467 16.2008C27.4391 15.3783 26.9678 14.6267 26.3612 13.9917C25.7546 13.3567 25.0254 12.8515 24.2178 12.5066ZM23.5526 15.1441C23.2022 15.0059 22.8271 14.9411 22.4506 14.9539C22.1471 14.9642 21.8928 14.7265 21.8825 14.4231C21.8722 14.1196 22.1098 13.8652 22.4133 13.855C22.9404 13.8371 23.4655 13.9277 23.9561 14.1212C24.4467 14.3148 24.8922 14.607 25.2651 14.98C25.6381 15.3529 25.9303 15.7984 26.1239 16.289C26.3174 16.7796 26.408 17.3047 26.3902 17.8318C26.3799 18.1353 26.1255 18.3729 25.822 18.3626C25.5186 18.3523 25.2809 18.098 25.2912 17.7945C25.304 17.418 25.2392 17.043 25.101 16.6925C24.9628 16.3421 24.754 16.0238 24.4876 15.7575C24.2213 15.4911 23.903 15.2823 23.5526 15.1441Z" fill="black"/>
<path fill-rule="evenodd" clip-rule="evenodd" d="M3.29877 19.4627C3.29877 9.45648 5.16807 3.29877 21.0022 3.29877C36.8363 3.29877 38.7056 9.45648 38.7056 19.4627C38.7056 29.469 36.8363 35.6267 21.0022 35.6267L18.1432 35.5168L12.3154 42.4442C11.8756 42.884 11.4357 42.5541 11.4357 42.1143V34.5271C10.776 34.5271 8.02701 33.2076 7.2573 32.4379C4.8382 29.9089 3.29877 28.0396 3.29877 19.4627ZM0 19.4627C0 5.60791 6.04775 0 21.0022 0C35.9566 0 42.0043 5.60791 42.0043 19.4627C42.0043 33.3176 35.9566 38.9255 21.0022 38.9255C19.9026 38.9255 19.0229 38.9255 17.4835 38.7056L13.305 43.4338C12.5353 44.3135 10.2262 44.6434 10.2262 42.0043V37.3861C9.56643 37.3861 8.02701 36.7263 5.93779 35.4068C3.84857 33.9773 0 30.5686 0 19.4627ZM24.5209 24.081C25.2539 23.128 26.1336 22.9814 27.1599 23.6412L31.1184 26.6101C31.7049 27.3431 31.4483 28.3694 30.3487 29.6889C29.2491 31.0084 28.2228 31.5582 27.2698 31.3383C23.3846 30.4587 19.646 28.2595 16.054 24.7408C12.462 21.2221 10.2262 17.4102 9.34652 13.305C9.34652 11.8389 10.2628 10.5927 12.0955 9.56644C13.0485 8.90668 13.8548 9.08995 14.5146 10.1162L17.2636 13.9648C17.7034 14.8445 17.4468 15.6508 16.4939 16.3839C12.2055 18.0333 22.1018 28.6993 24.5209 24.081Z" fill="black"/>
</svg>
