<svg width="43" height="45" fill="none" xmlns="http://www.w3.org/2000/svg"><path fill-rule="evenodd" clip-rule="evenodd" d="M24.798 9.896a10.116 10.116 0 00-4.113-.77.55.55 0 11-.025-1.099 11.216 11.216 0 0111.447 12.025.55.55 0 11-1.097-.08 10.117 10.117 0 00-6.212-10.076zm-.58 2.61a6.488 6.488 0 00-2.555-.52.55.55 0 11-.001-1.1 7.589 7.589 0 017.587 7.943.55.55 0 01-1.099-.052 6.488 6.488 0 00-3.932-6.27zm-.665 2.638a2.75 2.75 0 00-1.102-.19.55.55 0 01-.038-1.099 3.849 3.849 0 013.977 3.977.55.55 0 01-1.099-.038 2.75 2.75 0 00-1.738-2.65z" fill="#000"/><path fill-rule="evenodd" clip-rule="evenodd" d="M3.299 19.463c0-10.007 1.87-16.164 17.703-16.164 15.834 0 17.704 6.157 17.704 16.164 0 10.006-1.87 16.164-17.704 16.164l-2.859-.11-5.828 6.927c-.44.44-.88.11-.88-.33v-7.587c-.659 0-3.408-1.32-4.178-2.09C4.838 29.91 3.3 28.04 3.3 19.464zm-3.299 0C0 5.608 6.048 0 21.002 0c14.955 0 21.002 5.608 21.002 19.463s-6.047 19.462-21.002 19.462c-1.1 0-1.98 0-3.518-.22l-4.179 4.729c-.77.88-3.079 1.21-3.079-1.43v-4.618c-.66 0-2.199-.66-4.288-1.98C3.848 33.978 0 30.57 0 19.464zm24.52 4.618c.734-.953 1.614-1.1 2.64-.44l3.958 2.97c.587.732.33 1.758-.77 3.078-1.099 1.32-2.125 1.87-3.078 1.65-3.885-.88-7.624-3.08-11.216-6.598-3.592-3.519-5.828-7.33-6.707-11.436 0-1.466.916-2.712 2.748-3.739.954-.66 1.76-.476 2.42.55l2.749 3.849c.44.88.183 1.686-.77 2.419-4.288 1.65 5.608 12.315 8.027 7.697z" fill="#000"/></svg>