<svg width="52" height="52" fill="none" xmlns="http://www.w3.org/2000/svg"><path fill-rule="evenodd" clip-rule="evenodd" d="M0 6a1 1 0 011-1h18v2H2v9.667h48V7H33V5h18a1 1 0 011 1v11.667a1 1 0 01-1 1H1a1 1 0 01-1-1V6zm3 45.039V19h2.03v31.078h41.94V19H49v32.039c0 .53-.454.961-1.015.961H4.015C3.455 52 3 51.57 3 51.039z" fill="#fff" fill-opacity=".25"/><path fill-rule="evenodd" clip-rule="evenodd" d="M8 36.907c0-.5.467-.907 1.043-.907h13.913c.577 0 1.044.406 1.044.907V49h-2.087V37.814H10.087V49H8V36.907z" fill="#fff" fill-opacity=".25"/><path fill-rule="evenodd" clip-rule="evenodd" d="M15 49V38h2v11h-2zm13-12.093c0-.5.467-.907 1.044-.907h13.912c.577 0 1.044.406 1.044.907V49h-2.087V37.814H30.087V49H28V36.907z" fill="#fff" fill-opacity=".25"/><path fill-rule="evenodd" clip-rule="evenodd" d="M35 49V38h2v11h-2zm11-14H6v-2h40v2zm0-13H6v-2h40v2zm-27.626 3.04l-6.667 6.667-1.414-1.414 6.667-6.667 1.414 1.414zm11.666 0l-6.666 6.667-1.414-1.414 6.667-6.667 1.414 1.414zm11.667 0l-6.667 6.667-1.414-1.414 6.667-6.667 1.414 1.414zM20.844.859a1 1 0 01.99-.859h8.333a1 1 0 01.99.859l1.667 11.666a1 1 0 01-.99 1.142H20.167a1 1 0 01-.99-1.142L20.844.86zM22.7 2l-1.381 9.667h9.36L29.3 2h-6.6z" fill="#fff" fill-opacity=".25"/><path fill-rule="evenodd" clip-rule="evenodd" d="M23.333 5.167V3.5h2v1.667a.666.666 0 101.333 0V3.5h2v1.667a2.667 2.667 0 11-5.333 0z" fill="#fff" fill-opacity=".25"/></svg>