<svg width="33" height="34" fill="none" xmlns="http://www.w3.org/2000/svg"><g opacity=".5"><path d="M.596 33.17l2.786-8.36a15.839 15.839 0 01-2.228-8.122C1.154 7.894 8.284.765 17.077.765 25.871.765 33 7.895 33 16.688c0 8.794-7.13 15.923-15.923 15.923a15.85 15.85 0 01-7.408-1.829L.596 33.17z" fill="#fff"/><path d="M27.236 21.987c-.735-1.39-3.446-2.978-3.446-2.978-.613-.35-1.354-.389-1.703.235 0 0-.882 1.056-1.106 1.208-1.023.693-1.971.666-2.928-.29l-2.224-2.225-2.225-2.224c-.957-.957-.983-1.905-.29-2.928.152-.225 1.208-1.106 1.208-1.106.624-.35.585-1.09.235-1.703 0 0-1.589-2.711-2.978-3.447a1.523 1.523 0 00-1.79.27l-.982.982c-3.116 3.116-1.582 6.633 1.534 9.749l2.848 2.848 2.847 2.847c3.116 3.116 6.634 4.65 9.75 1.534l.982-.982c.472-.474.581-1.2.268-1.79z" fill="#1C1C1B"/></g></svg>