<svg width="60" height="59" fill="none" xmlns="http://www.w3.org/2000/svg"><path opacity=".66" d="M28.546 42.649v.118l.052.106c.052.102.076.176.11.275v.003c.028.081.06.177.112.295.007.268.039.552.068.81l.001.015c.035.314.066.591.066.83v13.127h-5.273V44.056h-3.046v14.17H8.682v-14.17H5.5V58.5h-5V45.238c0-5.447 4.412-9.856 9.864-9.856h8.59c2.195 0 4.143.773 5.852 1.955h0l.008.005c.423.282.784.526 1.014.755.639.638 1.156 1.409 1.704 2.23.265.443.395.8.55 1.229.067.182.138.377.226.598l.039.095.072.072c.016.016.05.061.082.133.03.07.044.14.044.195zM43.909 22.8h-.5v14.444h-11V22.8H29.5v14.066c-1.296-1.548-2.905-2.767-4.727-3.661v-9.496c0-5.038 4.14-9.174 9.182-9.174h1.566a1.557 1.557 0 00-.02.066c-.066.241-.091.572.038.855l.768 2.047-1.485 12.415-.031.256.192.174 2.864 2.589.335.303.335-.303 2.864-2.59.192-.173-.031-.256-1.486-12.415.768-2.047c.13-.283.105-.614.039-.855a1.42 1.42 0 00-.02-.066H42c5.042 0 9.182 4.136 9.182 9.174v13.535h-4.864V22.8H43.91zm-22.863 3.77c0 3.54-2.776 6.313-6.319 6.313-3.542 0-6.318-2.774-6.318-6.313 0-3.538 2.776-6.313 6.318-6.313 3.543 0 6.319 2.775 6.319 6.313zm11.227 18.532c0-1.574-.31-3.145-.841-4.542h27.216l-15.06 12.898H32.273v-8.356zM43.818 6.404a5.9 5.9 0 01-5.909 5.904A5.9 5.9 0 0132 6.404 5.9 5.9 0 0137.91.5a5.9 5.9 0 015.908 5.904z" fill="#fff" stroke="#fff"/></svg>