<svg width="57" height="57" viewBox="0 0 57 57" fill="none" xmlns="http://www.w3.org/2000/svg">
<g opacity="0.66">
<path d="M56.2029 7.80629L48.6724 0.275804C48.4959 0.0992618 48.2565 5.33134e-05 48.0069 0H19.7675C19.0186 0 18.3003 0.297521 17.7707 0.827111C17.2411 1.3567 16.9436 2.07498 16.9436 2.82393V26.3567H12.237C11.9874 26.3567 11.748 26.4559 11.5714 26.6324C11.3949 26.8089 11.2957 27.0484 11.2957 27.298V31.0633C11.2957 31.3129 11.3949 31.5523 11.5714 31.7289C11.748 31.9054 11.9874 32.0046 12.237 32.0046H13.1784V33.8872H2.82393C2.57428 33.8872 2.33486 33.9864 2.15833 34.1629C1.9818 34.3394 1.88262 34.5789 1.88262 34.8285V38.5938C1.88262 38.8434 1.9818 39.0828 2.15833 39.2594C2.33486 39.4359 2.57428 39.5351 2.82393 39.5351H3.76524V54.596H0V56.4787H47.0655V54.596H43.3003V52.7134H53.6547C54.4037 52.7134 55.122 52.4159 55.6515 51.8863C56.1811 51.3567 56.4787 50.6384 56.4787 49.8895V8.4718C56.4786 8.22217 56.3794 7.98278 56.2029 7.80629ZM48.9482 3.21364L53.265 7.53049H49.8895C49.6398 7.53049 49.4004 7.43131 49.2239 7.25478C49.0473 7.07825 48.9482 6.83883 48.9482 6.58918V3.21364ZM13.1784 28.2393H33.8872V30.122H13.1784V28.2393ZM33.8872 37.6524V35.7698H43.3003V37.6524H33.8872ZM32.0046 32.0046V54.596H27.298V50.8308H28.2393V48.9482H18.8262V50.8308H19.7675V54.596H15.061V32.0046H32.0046ZM25.4154 50.8308V54.596H21.6502V50.8308H25.4154ZM3.76524 35.7698H13.1784V37.6524H3.76524V35.7698ZM5.64787 39.5351H13.1784V54.596H5.64787V39.5351ZM33.8872 54.596V39.5351H41.4177V54.596H33.8872ZM53.6547 50.8308H43.3003V39.5351H44.2416C44.4913 39.5351 44.7307 39.4359 44.9072 39.2594C45.0838 39.0828 45.1829 38.8434 45.1829 38.5938V34.8285C45.1829 34.5789 45.0838 34.3394 44.9072 34.1629C44.7307 33.9864 44.4913 33.8872 44.2416 33.8872H33.8872V32.0046H34.8285C35.0782 32.0046 35.3176 31.9054 35.4941 31.7289C35.6706 31.5523 35.7698 31.3129 35.7698 31.0633V27.298C35.7698 27.0484 35.6706 26.8089 35.4941 26.6324C35.3176 26.4559 35.0782 26.3567 34.8285 26.3567H18.8262V2.82393C18.8262 2.57428 18.9254 2.33486 19.1019 2.15833C19.2785 1.9818 19.5179 1.88262 19.7675 1.88262H47.0655V6.58918C47.0655 7.33813 47.3631 8.05641 47.8927 8.586C48.4222 9.11559 49.1405 9.41311 49.8895 9.41311H54.596V49.8895C54.596 50.1391 54.4969 50.3786 54.3203 50.5551C54.1438 50.7316 53.9044 50.8308 53.6547 50.8308Z" fill="white"/>
<path d="M16.9438 33.8872H18.8265V35.7698H16.9438V33.8872Z" fill="white"/>
<path d="M20.709 33.8872H22.5916V35.7698H20.709V33.8872Z" fill="white"/>
<path d="M24.4741 33.8872H26.3567V35.7698H24.4741V33.8872Z" fill="white"/>
<path d="M28.2393 33.8872H30.1219V35.7698H28.2393V33.8872Z" fill="white"/>
<path d="M16.9438 37.6525H18.8265V39.5351H16.9438V37.6525Z" fill="white"/>
<path d="M20.709 37.6525H22.5916V39.5351H20.709V37.6525Z" fill="white"/>
<path d="M24.4741 37.6525H26.3567V39.5351H24.4741V37.6525Z" fill="white"/>
<path d="M28.2393 37.6525H30.1219V39.5351H28.2393V37.6525Z" fill="white"/>
<path d="M16.9438 41.4177H18.8265V43.3003H16.9438V41.4177Z" fill="white"/>
<path d="M20.709 41.4177H22.5916V43.3003H20.709V41.4177Z" fill="white"/>
<path d="M24.4741 41.4177H26.3567V43.3003H24.4741V41.4177Z" fill="white"/>
<path d="M28.2393 41.4177H30.1219V43.3003H28.2393V41.4177Z" fill="white"/>
<path d="M16.9438 45.1829H18.8265V47.0655H16.9438V45.1829Z" fill="white"/>
<path d="M20.709 45.1829H22.5916V47.0655H20.709V45.1829Z" fill="white"/>
<path d="M24.4741 45.1829H26.3567V47.0655H24.4741V45.1829Z" fill="white"/>
<path d="M28.2393 45.1829H30.1219V47.0655H28.2393V45.1829Z" fill="white"/>
<path d="M35.7698 41.4177H39.535V43.3003H35.7698V41.4177Z" fill="white"/>
<path d="M35.7698 45.1829H39.535V47.0655H35.7698V45.1829Z" fill="white"/>
<path d="M35.7698 48.9482H39.535V50.8308H35.7698V48.9482Z" fill="white"/>
<path d="M7.53027 41.4177H11.2955V43.3003H7.53027V41.4177Z" fill="white"/>
<path d="M7.53027 45.1829H11.2955V47.0655H7.53027V45.1829Z" fill="white"/>
<path d="M7.53027 48.9482H11.2955V50.8308H7.53027V48.9482Z" fill="white"/>
<path d="M25.4155 8.47182H27.2981C27.5478 8.47182 27.7872 8.57099 27.9637 8.74752C28.1402 8.92405 28.2394 9.16348 28.2394 9.41313H30.122C30.122 8.66418 29.8245 7.9459 29.2949 7.41631C28.7653 6.88672 28.0471 6.5892 27.2981 6.5892V5.64789H25.4155V6.5892C24.6665 6.5892 23.9483 6.88672 23.4187 7.41631C22.8891 7.9459 22.5916 8.66418 22.5916 9.41313C22.5916 10.1621 22.8891 10.8804 23.4187 11.41C23.9483 11.9395 24.6665 12.2371 25.4155 12.2371H27.2981C27.5478 12.2371 27.7872 12.3362 27.9637 12.5128C28.1402 12.6893 28.2394 12.9287 28.2394 13.1784C28.2394 13.428 28.1402 13.6675 27.9637 13.844C27.7872 14.0205 27.5478 14.1197 27.2981 14.1197H25.4155C25.1658 14.1197 24.9264 14.0205 24.7499 13.844C24.5733 13.6675 24.4742 13.428 24.4742 13.1784H22.5916C22.5916 13.9273 22.8891 14.6456 23.4187 15.1752C23.9483 15.7048 24.6665 16.0023 25.4155 16.0023V16.9436H27.2981V16.0023C28.0471 16.0023 28.7653 15.7048 29.2949 15.1752C29.8245 14.6456 30.122 13.9273 30.122 13.1784C30.122 12.4294 29.8245 11.7111 29.2949 11.1816C28.7653 10.652 28.0471 10.3544 27.2981 10.3544H25.4155C25.1658 10.3544 24.9264 10.2553 24.7499 10.0787C24.5733 9.90221 24.4742 9.66278 24.4742 9.41313C24.4742 9.16348 24.5733 8.92405 24.7499 8.74752C24.9264 8.57099 25.1658 8.47182 25.4155 8.47182Z" fill="white"/>
<path d="M33.8872 14.1197H43.3003V16.0023H33.8872V14.1197Z" fill="white"/>
<path d="M33.8872 10.3544H35.7698V12.2371H33.8872V10.3544Z" fill="white"/>
<path d="M37.6523 10.3544H39.535V12.2371H37.6523V10.3544Z" fill="white"/>
<path d="M41.4175 10.3544H43.3001V12.2371H41.4175V10.3544Z" fill="white"/>
<path d="M39.5349 19.7675H50.8306V21.6501H39.5349V19.7675Z" fill="white"/>
<path d="M39.5349 23.5328H50.8306V25.4154H39.5349V23.5328Z" fill="white"/>
<path d="M39.5349 27.298H50.8306V29.1807H39.5349V27.298Z" fill="white"/>
</g>
</svg>
