<svg width="57" height="57" fill="none" xmlns="http://www.w3.org/2000/svg"><g opacity=".66" fill="#fff"><path d="M56.203 7.806l-7.53-7.53A.941.941 0 0048.006 0h-28.24a2.824 2.824 0 00-2.823 2.824v23.533h-4.707a.942.942 0 00-.941.941v3.765a.942.942 0 00.941.942h.941v1.882H2.824a.941.941 0 00-.941.941v3.766a.942.942 0 00.94.941h.942v15.061H0v1.883h47.066v-1.883H43.3v-1.883h10.355a2.824 2.824 0 002.824-2.824V8.472c0-.25-.1-.49-.276-.666zm-7.255-4.592l4.317 4.316h-3.376a.941.941 0 01-.94-.94V3.213zm-35.77 25.025h20.71v1.883h-20.71v-1.883zm20.71 9.413V35.77H43.3v1.882h-9.413zm-1.883-5.647v22.591h-4.707v-3.765h.941v-1.883h-9.413v1.883h.941v3.765h-4.706V32.005h16.944zm-6.59 18.826v3.765H21.65v-3.765h3.765zM3.765 35.77h9.413v1.882H3.765V35.77zm1.883 3.765h7.53v15.061h-7.53v-15.06zm28.24 15.061v-15.06h7.53v15.06h-7.53zm19.767-3.765H43.3V39.535h.942a.941.941 0 00.94-.941v-3.766a.941.941 0 00-.94-.94H33.887v-1.883h.941a.941.941 0 00.942-.942v-3.765a.941.941 0 00-.942-.941H18.826V2.824a.941.941 0 01.941-.941h27.299v4.706a2.824 2.824 0 002.823 2.824h4.707V49.89a.941.941 0 01-.941.942z"/><path d="M16.944 33.887h1.883v1.883h-1.883v-1.883zm3.765 0h1.883v1.883h-1.883v-1.883zm3.765 0h1.883v1.883h-1.883v-1.883zm3.766 0h1.882v1.883h-1.883v-1.883zm-11.296 3.766h1.883v1.882h-1.883v-1.882zm3.765 0h1.883v1.882h-1.883v-1.882zm3.765 0h1.883v1.882h-1.883v-1.882zm3.766 0h1.882v1.882h-1.883v-1.882zm-11.296 3.765h1.883V43.3h-1.883v-1.882zm3.765 0h1.883V43.3h-1.883v-1.882zm3.765 0h1.883V43.3h-1.883v-1.882zm3.766 0h1.882V43.3h-1.883v-1.882zm-11.296 3.765h1.883v1.883h-1.883v-1.883zm3.765 0h1.883v1.883h-1.883v-1.883zm3.765 0h1.883v1.883h-1.883v-1.883zm3.766 0h1.882v1.883h-1.883v-1.883zm7.53-3.765h3.765V43.3H35.77v-1.882zm0 3.765h3.765v1.883H35.77v-1.883zm0 3.765h3.765v1.883H35.77v-1.883zm-28.24-7.53h3.766V43.3H7.53v-1.882zm0 3.765h3.766v1.883H7.53v-1.883zm0 3.765h3.766v1.883H7.53v-1.883zM25.416 8.472h1.882a.941.941 0 01.941.941h1.883a2.824 2.824 0 00-2.824-2.824v-.941h-1.882v.941a2.824 2.824 0 100 5.648h1.882a.94.94 0 110 1.883h-1.882a.941.941 0 01-.942-.942h-1.882a2.824 2.824 0 002.824 2.824v.942h1.882v-.942a2.824 2.824 0 100-5.648h-1.882a.94.94 0 110-1.882zm8.471 5.648H43.3v1.882h-9.413V14.12zm0-3.766h1.883v1.883h-1.883v-1.883zm3.765 0h1.883v1.883h-1.883v-1.883zm3.765 0H43.3v1.883h-1.883v-1.883zm-1.882 9.413H50.83v1.883H39.535v-1.883zm0 3.766H50.83v1.882H39.535v-1.882zm0 3.765H50.83v1.883H39.535v-1.883z"/></g></svg>