<svg width="43" height="43" fill="none" xmlns="http://www.w3.org/2000/svg"><path d="M.331 42.901L3.972 31.98a20.694 20.694 0 01-2.911-10.611C1.061 9.877 10.375.563 21.865.563c11.49 0 20.804 9.315 20.804 20.805s-9.314 20.804-20.804 20.804c-3.496 0-6.788-.867-9.68-2.39L.332 42.902z" fill="#000"/><path d="M35.138 28.291c-.96-1.815-4.503-3.891-4.503-3.891-.802-.457-1.769-.508-2.226.306 0 0-1.15 1.38-1.444 1.58-1.337.905-2.576.87-3.826-.38L20.233 23l-2.906-2.906c-1.25-1.25-1.286-2.49-.38-3.827.199-.292 1.58-1.444 1.58-1.444.814-.457.763-1.424.306-2.225 0 0-2.076-3.543-3.892-4.504a1.99 1.99 0 00-2.338.352L11.32 9.73c-4.071 4.07-2.067 8.666 2.005 12.738l3.72 3.72 3.72 3.72c4.072 4.072 8.668 6.076 12.739 2.005l1.283-1.283c.617-.619.76-1.567.351-2.339z" fill="#fff"/></svg>