<svg width="43" height="43" fill="none" xmlns="http://www.w3.org/2000/svg"><path d="M29.99 4.092c2.337 0 4.553.926 6.229 2.59a8.742 8.742 0 012.59 6.23v17.64c0 2.338-.925 4.554-2.59 6.23a8.742 8.742 0 01-6.23 2.591H12.35c-2.338 0-4.554-.926-6.23-2.59a8.741 8.741 0 01-2.59-6.23v-17.64c0-2.338.925-4.554 2.59-6.23a8.742 8.742 0 016.23-2.591h17.64zm0-3.529H12.348C5.557.563 0 6.12 0 12.913v17.64C0 37.345 5.557 42.9 12.349 42.9h17.64c6.792 0 12.349-5.556 12.349-12.348v-17.64c0-6.793-5.557-12.35-12.349-12.35z" fill="#000"/><path d="M32.636 12.912a2.64 2.64 0 01-2.647-2.646 2.647 2.647 0 112.646 2.646zm-11.467 1.764a7.063 7.063 0 017.056 7.056 7.063 7.063 0 01-7.056 7.057 7.063 7.063 0 01-7.056-7.057 7.063 7.063 0 017.056-7.056zm0-3.528c-5.844 0-10.585 4.74-10.585 10.584 0 5.844 4.741 10.585 10.585 10.585 5.843 0 10.584-4.741 10.584-10.585 0-5.843-4.74-10.584-10.584-10.584z" fill="#000"/></svg>