<svg width="52" height="52" viewBox="0 0 52 52" fill="none" xmlns="http://www.w3.org/2000/svg">
<path fill-rule="evenodd" clip-rule="evenodd" d="M0 6C0 5.44772 0.447715 5 1 5H19V7H2V16.6667H50V7H33V5H51C51.5523 5 52 5.44772 52 6V17.6667C52 18.219 51.5523 18.6667 51 18.6667H1C0.447715 18.6667 0 18.219 0 17.6667V6Z" fill="white" fill-opacity="0.25"/>
<path fill-rule="evenodd" clip-rule="evenodd" d="M3 51.0388V19H5.02941V50.0777H46.9706V19H49V51.0388C49 51.5697 48.5457 52 47.9853 52H4.01471C3.4543 52 3 51.5697 3 51.0388Z" fill="white" fill-opacity="0.25"/>
<path fill-rule="evenodd" clip-rule="evenodd" d="M8 36.907C8 36.4061 8.46718 36 9.04348 36H22.9565C23.5328 36 24 36.4061 24 36.907V49H21.913V37.814H10.087V49H8V36.907Z" fill="white" fill-opacity="0.25"/>
<path fill-rule="evenodd" clip-rule="evenodd" d="M15 49V38H17V49H15Z" fill="white" fill-opacity="0.25"/>
<path fill-rule="evenodd" clip-rule="evenodd" d="M28 36.907C28 36.4061 28.4672 36 29.0435 36H42.9565C43.5328 36 44 36.4061 44 36.907V49H41.913V37.814H30.087V49H28V36.907Z" fill="white" fill-opacity="0.25"/>
<path fill-rule="evenodd" clip-rule="evenodd" d="M35 49V38H37V49H35Z" fill="white" fill-opacity="0.25"/>
<path fill-rule="evenodd" clip-rule="evenodd" d="M46 35H6V33H46V35Z" fill="white" fill-opacity="0.25"/>
<path fill-rule="evenodd" clip-rule="evenodd" d="M46 22H6V20H46V22Z" fill="white" fill-opacity="0.25"/>
<path fill-rule="evenodd" clip-rule="evenodd" d="M18.3738 25.0404L11.7072 31.7071L10.293 30.2929L16.9596 23.6262L18.3738 25.0404Z" fill="white" fill-opacity="0.25"/>
<path fill-rule="evenodd" clip-rule="evenodd" d="M30.0408 25.0404L23.3742 31.7071L21.96 30.2929L28.6266 23.6262L30.0408 25.0404Z" fill="white" fill-opacity="0.25"/>
<path fill-rule="evenodd" clip-rule="evenodd" d="M41.7069 25.0404L35.0402 31.7071L33.626 30.2929L40.2926 23.6262L41.7069 25.0404Z" fill="white" fill-opacity="0.25"/>
<path fill-rule="evenodd" clip-rule="evenodd" d="M20.8437 0.858579C20.9141 0.36593 21.336 0 21.8337 0H30.167C30.6646 0 31.0866 0.36593 31.1569 0.858579L32.8236 12.5252C32.8646 12.8122 32.7791 13.1029 32.5891 13.3219C32.3992 13.5409 32.1236 13.6667 31.8337 13.6667H20.167C19.8771 13.6667 19.6015 13.5409 19.4115 13.3219C19.2216 13.1029 19.1361 12.8122 19.177 12.5252L20.8437 0.858579ZM22.701 2L21.32 11.6667H30.6807L29.2997 2H22.701Z" fill="white" fill-opacity="0.25"/>
<path fill-rule="evenodd" clip-rule="evenodd" d="M23.333 5.16667V3.5H25.333V5.16667C25.333 5.34348 25.4032 5.51305 25.5283 5.63807C25.6533 5.7631 25.8229 5.83333 25.9997 5.83333C26.1765 5.83333 26.3461 5.76309 26.4711 5.63807C26.5961 5.51305 26.6663 5.34348 26.6663 5.16667V3.5H28.6663V5.16667C28.6663 5.87391 28.3854 6.55219 27.8853 7.05228C27.3852 7.55238 26.7069 7.83333 25.9997 7.83333C25.2924 7.83333 24.6142 7.55238 24.1141 7.05228C23.614 6.55219 23.333 5.87391 23.333 5.16667Z" fill="white" fill-opacity="0.25"/>
</svg>
