<svg width="53" height="55" fill="none" xmlns="http://www.w3.org/2000/svg"><path d="M22.115 2.491v4.644H1.382C.608 7.135 0 7.743 0 8.517v44.507c0 .774.608 1.382 1.382 1.382h49.593c.774 0 1.382-.608 1.382-1.382V1.385c0-.774-.663-1.437-1.438-1.382L23.442 1.11c-.774 0-1.327.608-1.327 1.382zm-11.058 49.15H2.764V9.9H21.95v8.072h-9.51a1.37 1.37 0 00-1.382 1.382v32.288zm14.043 0h-3.483v-3.317H25.1v3.318zm7.685 0h-4.92v-4.588a1.37 1.37 0 00-1.382-1.383h-6.248a1.37 1.37 0 00-1.382 1.383v4.644h-5.031V20.736h18.963V51.64zm16.752 0H35.55V19.355c0-.774-.608-1.382-1.383-1.382H24.88V3.818l24.658-.995v48.819z" fill="#000"/><path d="M6.359 15.097h1.658c.332 0 .553-.221.553-.553v-1.659c0-.332-.221-.553-.553-.553H6.36c-.332 0-.553.221-.553.553v1.659c0 .332.276.553.553.553zm9.674 0h1.659c.332 0 .553-.221.553-.553v-1.659c0-.332-.221-.553-.553-.553h-1.659c-.331 0-.553.221-.553.553v1.659c0 .332.277.553.553.553zm14.651-8.736h-1.659c-.331 0-.552.221-.552.553v1.659c0 .331.22.553.553.553h1.658c.332 0 .553-.222.553-.553V6.914a.554.554 0 00-.553-.553zm8.459 0h-1.659c-.331 0-.552.221-.552.553v1.659c0 .331.22.553.552.553h1.66c.33 0 .552-.222.552-.553V6.914a.554.554 0 00-.553-.553zm7.298 0h-1.659c-.331 0-.552.221-.552.553v1.659c0 .331.22.553.552.553h1.659c.332 0 .553-.222.553-.553V6.914a.554.554 0 00-.553-.553zm-15.757 7.74h-1.659c-.331 0-.552.222-.552.553v1.659c0 .332.22.553.553.553h1.658c.332 0 .553-.221.553-.553v-1.659a.554.554 0 00-.553-.553zm8.459 0h-1.659c-.331 0-.552.222-.552.553v1.659c0 .332.22.553.552.553h1.66c.33 0 .552-.221.552-.553v-1.659a.554.554 0 00-.553-.553zm7.298 0h-1.659c-.331 0-.552.222-.552.553v1.659c0 .332.22.553.552.553h1.659c.332 0 .553-.221.553-.553v-1.659a.554.554 0 00-.553-.553zm-7.298 6.801h-1.659c-.331 0-.552.22-.552.553v1.658c0 .332.22.553.552.553h1.66c.33 0 .552-.221.552-.553v-1.658a.554.554 0 00-.553-.553zm7.298 0h-1.659c-.331 0-.552.22-.552.553v1.658c0 .332.22.553.552.553h1.659c.332 0 .553-.221.553-.553v-1.658a.554.554 0 00-.553-.553zm-7.298 6.081h-1.659c-.331 0-.552.221-.552.553v1.659c0 .332.22.553.552.553h1.66c.33 0 .552-.221.552-.553v-1.659a.554.554 0 00-.553-.553zm7.298 0h-1.659c-.331 0-.552.221-.552.553v1.659c0 .332.22.553.552.553h1.659c.332 0 .553-.221.553-.553v-1.659a.554.554 0 00-.553-.553zm-7.298 6.635h-1.659c-.331 0-.552.221-.552.553v1.658c0 .332.22.553.552.553h1.66c.33 0 .552-.22.552-.553v-1.658a.554.554 0 00-.553-.553zm7.298 0h-1.659c-.331 0-.552.221-.552.553v1.658c0 .332.22.553.552.553h1.659c.332 0 .553-.22.553-.553v-1.658a.554.554 0 00-.553-.553zm-7.298 6.634h-1.659c-.331 0-.552.221-.552.553v1.659c0 .331.22.553.552.553h1.66c.33 0 .552-.222.552-.553v-1.659a.554.554 0 00-.553-.553zm7.298 0h-1.659c-.331 0-.552.221-.552.553v1.659c0 .331.22.553.552.553h1.659c.332 0 .553-.222.553-.553v-1.659a.554.554 0 00-.553-.553zm-7.298 6.635h-1.659c-.331 0-.552.22-.552.553v1.658c0 .332.22.553.552.553h1.66c.33 0 .552-.221.552-.553V47.44a.554.554 0 00-.553-.553zm7.298 0h-1.659c-.331 0-.552.22-.552.553v1.658c0 .332.22.553.552.553h1.659c.332 0 .553-.221.553-.553V47.44a.554.554 0 00-.553-.553zM6.359 21.62h1.658c.332 0 .553-.22.553-.552v-1.659c0-.332-.221-.553-.553-.553H6.36c-.332 0-.553.221-.553.553v1.659c0 .331.276.553.553.553zm0 6.524h1.658c.332 0 .553-.22.553-.552v-1.66c0-.33-.221-.552-.553-.552H6.36c-.332 0-.553.221-.553.553v1.659c0 .331.276.552.553.552zm0 6.524h1.658c.332 0 .553-.22.553-.553v-1.658c0-.332-.221-.553-.553-.553H6.36c-.332 0-.553.221-.553.553v1.658c0 .332.276.553.553.553zm0 6.524h1.658c.332 0 .553-.22.553-.553v-1.658c0-.332-.221-.553-.553-.553H6.36c-.332 0-.553.221-.553.553v1.658c0 .332.276.553.553.553zm0 6.524h1.658c.332 0 .553-.221.553-.553v-1.658c0-.332-.221-.553-.553-.553H6.36c-.332 0-.553.22-.553.553v1.658c0 .332.276.553.553.553zM19.406 23.5h-1.659c-.331 0-.553.221-.553.553v1.659c0 .332.222.553.553.553h1.659c.332 0 .553-.221.553-.553v-1.659a.554.554 0 00-.553-.553zm9.565 0h-1.658c-.332 0-.553.221-.553.553v1.659c0 .332.22.553.553.553h1.658c.332 0 .553-.221.553-.553v-1.659c0-.276-.276-.553-.553-.553zm-9.565 7.74h-1.659c-.331 0-.553.222-.553.553v1.659c0 .332.222.553.553.553h1.659c.332 0 .553-.221.553-.553v-1.659a.554.554 0 00-.553-.552zm9.565 0h-1.658c-.332 0-.553.222-.553.553v1.659c0 .332.22.553.553.553h1.658c.332 0 .553-.221.553-.553v-1.659c0-.276-.276-.552-.553-.552zm-9.565 7.74h-1.659c-.331 0-.553.222-.553.554v1.658c0 .332.222.553.553.553h1.659c.332 0 .553-.221.553-.553v-1.658a.554.554 0 00-.553-.553zm9.565 0h-1.658c-.332 0-.553.222-.553.554v1.658c0 .332.22.553.553.553h1.658c.332 0 .553-.221.553-.553v-1.658c0-.277-.276-.553-.553-.553z" fill="#000"/></svg>