<svg width="29" height="36" fill="none" xmlns="http://www.w3.org/2000/svg"><g opacity=".5" fill="#fff"><mask id="a"><path d="M28.064 17.9v-7.626h-1.433V.355h-1.146v5.733H.63v4.186H0v1.147h.63v4.185h5.791v20.296h1.147V15.606H26.63V11.42h.287v5.503l-14.333 2.38v5.876h-1.663v10.722h4.5V25.209h-1.69v-4.93l14.332-2.38zm-2.58-3.44H1.777V7.234h23.707v7.224zM14.248 34.754H12.04v-8.4h2.207v8.4z"/></mask><path d="M28.064 17.9v-7.626h-1.433V.355h-1.146v5.733H.63v4.186H0v1.147h.63v4.185h5.791v20.296h1.147V15.606H26.63V11.42h.287v5.503l-14.333 2.38v5.876h-1.663v10.722h4.5V25.209h-1.69v-4.93l14.332-2.38zm-2.58-3.44H1.777V7.234h23.707v7.224zM14.248 34.754H12.04v-8.4h2.207v8.4z"/><path d="M28.064 17.9l.328 1.972 1.672-.278V17.9h-2zm0-7.626h2v-2h-2v2zm-1.433 0h-2v2h2v-2zm0-9.919h2v-2h-2v2zm-1.146 0v-2h-2v2h2zm0 5.733v2h2v-2h-2zm-24.854 0v-2h-2v2h2zm0 4.186v2h2v-2h-2zm-.631 0v-2h-2v2h2zm0 1.147h-2v2h2v-2zm.63 0h2v-2h-2v2zm0 4.185h-2v2h2v-2zm5.791 0h2v-2h-2v2zm0 20.296h-2v2h2v-2zm1.147 0v2h2v-2h-2zm0-20.296v-2h-2v2h2zm19.063 0v2h2v-2h-2zm0-4.185v-2h-2v2h2zm.287 0h2v-2h-2v2zm0 5.503l.327 1.973 1.673-.277v-1.696h-2zm-14.333 2.38l-.328-1.973-1.672.277v1.696h2zm0 5.876v2h2v-2h-2zm-1.663 0v-2h-2v2h2zm0 10.722h-2v2h2v-2zm4.5 0v2h2v-2h-2zm0-10.693h2v-2h-2v2zm-1.69 0h-2v2h2v-2zm0-4.93l-.328-1.974-1.673.278v1.695h2zm11.753-5.82v2h2v-2h-2zm-23.708 0h-2v2h2v-2zm0-7.224v-2h-2v2h2zm23.707 0h2v-2h-2v2zm-11.237 27.52v2h2v-2h-2zm-2.207 0h-2v2h2v-2zm0-8.4v-2h-2v2h2zm2.207 0h2v-2h-2v2zM30.064 17.9v-7.625h-4V17.9h4zm-2-9.625h-1.433v4h1.433v-4zm.567 2V6.662h-4v3.612h4zm0-3.612v-.574h-4v.574h4zm0-.574V.355h-4v5.733h4zm-2-7.733h-1.146v4h1.146v-4zm-3.146 2v5.733h4V.355h-4zm2 3.733H.63v4h24.854v-4zm-26.854 2v4.186h4V6.088h-4zm2 2.186H0v4h.63v-4zm-2.631 2v1.147h4v-1.147h-4zm2 3.147h.63v-4H0v4zm-1.37-2v4.185h4V11.42h-4zm2 6.185h5.791v-4H.631v4zm3.791-2v20.296h4V15.606h-4zm2 22.296h1.147v-4H6.42v4zm3.147-2V15.606h-4v20.296h4zm-2-18.296H26.63v-4H7.568v4zm21.063-2V11.42h-4v4.185h4zm-2-2.185h.287v-4h-.287v4zm-1.713-2v5.503h4v-5.503h-4zm1.672 3.53l-14.333 2.38.655 3.946 14.333-2.38-.655-3.946zm-16.005 4.353v5.876h4v-5.876h-4zm2 3.876h-1.663v4h1.663v-4zm-3.663 2v10.722h4V25.18h-4zm2 12.722h4.5v-4h-4.5v4zm6.5-2V25.209h-4v10.693h4zm-2-12.693h-1.69v4h1.69v-4zm.31 2v-4.93h-4v4.93h4zm-1.673-2.958l14.333-2.379-.655-3.946-14.333 2.38.655 3.945zm11.426-9.792H1.777v4h23.707v-4zm-21.708 2V7.235h-4v7.224h4zm-2-5.224h23.707v-4H1.777v4zm21.707-2v7.224h4V7.235h-4zm-9.237 25.52H12.04v4h2.207v-4zm-.207 2v-8.4h-4v8.4h4zm-2-6.4h2.207v-4H12.04v4zm.207-2v8.4h4v-8.4h-4z" mask="url(#a)"/></g></svg>