<svg width="29" height="36" viewBox="0 0 29 36" fill="none" xmlns="http://www.w3.org/2000/svg">
<g opacity="0.5">
<mask id="path-1-inside-1" fill="white">
<path d="M28.0645 17.8991V10.2738H26.6312V6.66182V6.08849V0.355194H25.4845V6.08849H0.630662V10.2738H0V11.4205H0.630662V15.6058H6.42129V35.9016H7.56795V15.6058H26.6312V11.4205H26.9178V16.9244L12.5846 19.3037V25.1804H10.9219V35.9016H15.4226V25.209H13.7312V20.2784L28.0645 17.8991ZM25.4845 14.4591H1.77732V7.23515H25.4845V14.4591ZM14.2472 34.755H12.0399V26.3557H14.2472V34.755Z"/>
</mask>
<path d="M28.0645 17.8991V10.2738H26.6312V6.66182V6.08849V0.355194H25.4845V6.08849H0.630662V10.2738H0V11.4205H0.630662V15.6058H6.42129V35.9016H7.56795V15.6058H26.6312V11.4205H26.9178V16.9244L12.5846 19.3037V25.1804H10.9219V35.9016H15.4226V25.209H13.7312V20.2784L28.0645 17.8991ZM25.4845 14.4591H1.77732V7.23515H25.4845V14.4591ZM14.2472 34.755H12.0399V26.3557H14.2472V34.755Z" fill="white"/>
<path d="M28.0645 17.8991L28.392 19.8721L30.0645 19.5944V17.8991H28.0645ZM28.0645 10.2738H30.0645V8.2738H28.0645V10.2738ZM26.6312 10.2738H24.6312V12.2738H26.6312V10.2738ZM26.6312 0.355194H28.6312V-1.64481H26.6312V0.355194ZM25.4845 0.355194V-1.64481H23.4845V0.355194H25.4845ZM25.4845 6.08849V8.08849H27.4845V6.08849H25.4845ZM0.630662 6.08849V4.08849H-1.36934V6.08849H0.630662ZM0.630662 10.2738V12.2738H2.63066V10.2738H0.630662ZM0 10.2738V8.2738H-2V10.2738H0ZM0 11.4205H-2V13.4205H0V11.4205ZM0.630662 11.4205H2.63066V9.42046H0.630662V11.4205ZM0.630662 15.6058H-1.36934V17.6058H0.630662V15.6058ZM6.42129 15.6058H8.42129V13.6058H6.42129V15.6058ZM6.42129 35.9016H4.42129V37.9016H6.42129V35.9016ZM7.56795 35.9016V37.9016H9.56795V35.9016H7.56795ZM7.56795 15.6058V13.6058H5.56795V15.6058H7.56795ZM26.6312 15.6058V17.6058H28.6312V15.6058H26.6312ZM26.6312 11.4205V9.42046H24.6312V11.4205H26.6312ZM26.9178 11.4205H28.9178V9.42046H26.9178V11.4205ZM26.9178 16.9244L27.2453 18.8974L28.9178 18.6198V16.9244H26.9178ZM12.5846 19.3037L12.2571 17.3307L10.5846 17.6084V19.3037H12.5846ZM12.5846 25.1804V27.1804H14.5846V25.1804H12.5846ZM10.9219 25.1804V23.1804H8.92193V25.1804H10.9219ZM10.9219 35.9016H8.92193V37.9016H10.9219V35.9016ZM15.4226 35.9016V37.9016H17.4226V35.9016H15.4226ZM15.4226 25.209H17.4226V23.209H15.4226V25.209ZM13.7312 25.209H11.7312V27.209H13.7312V25.209ZM13.7312 20.2784L13.4037 18.3054L11.7312 18.583V20.2784H13.7312ZM25.4845 14.4591V16.4591H27.4845V14.4591H25.4845ZM1.77732 14.4591H-0.222679V16.4591H1.77732V14.4591ZM1.77732 7.23515V5.23515H-0.222679V7.23515H1.77732ZM25.4845 7.23515H27.4845V5.23515H25.4845V7.23515ZM14.2472 34.755V36.755H16.2472V34.755H14.2472ZM12.0399 34.755H10.0399V36.755H12.0399V34.755ZM12.0399 26.3557V24.3557H10.0399V26.3557H12.0399ZM14.2472 26.3557H16.2472V24.3557H14.2472V26.3557ZM30.0645 17.8991V10.2738H26.0645V17.8991H30.0645ZM28.0645 8.2738H26.6312V12.2738H28.0645V8.2738ZM28.6312 10.2738V6.66182H24.6312V10.2738H28.6312ZM28.6312 6.66182V6.08849H24.6312V6.66182H28.6312ZM28.6312 6.08849V0.355194H24.6312V6.08849H28.6312ZM26.6312 -1.64481H25.4845V2.35519H26.6312V-1.64481ZM23.4845 0.355194V6.08849H27.4845V0.355194H23.4845ZM25.4845 4.08849H0.630662V8.08849H25.4845V4.08849ZM-1.36934 6.08849V10.2738H2.63066V6.08849H-1.36934ZM0.630662 8.2738H0V12.2738H0.630662V8.2738ZM-2 10.2738V11.4205H2V10.2738H-2ZM0 13.4205H0.630662V9.42046H0V13.4205ZM-1.36934 11.4205V15.6058H2.63066V11.4205H-1.36934ZM0.630662 17.6058H6.42129V13.6058H0.630662V17.6058ZM4.42129 15.6058V35.9016H8.42129V15.6058H4.42129ZM6.42129 37.9016H7.56795V33.9016H6.42129V37.9016ZM9.56795 35.9016V15.6058H5.56795V35.9016H9.56795ZM7.56795 17.6058H26.6312V13.6058H7.56795V17.6058ZM28.6312 15.6058V11.4205H24.6312V15.6058H28.6312ZM26.6312 13.4205H26.9178V9.42046H26.6312V13.4205ZM24.9178 11.4205V16.9244H28.9178V11.4205H24.9178ZM26.5903 14.9514L12.2571 17.3307L12.9121 21.2767L27.2453 18.8974L26.5903 14.9514ZM10.5846 19.3037V25.1804H14.5846V19.3037H10.5846ZM12.5846 23.1804H10.9219V27.1804H12.5846V23.1804ZM8.92193 25.1804V35.9016H12.9219V25.1804H8.92193ZM10.9219 37.9016H15.4226V33.9016H10.9219V37.9016ZM17.4226 35.9016V25.209H13.4226V35.9016H17.4226ZM15.4226 23.209H13.7312V27.209H15.4226V23.209ZM15.7312 25.209V20.2784H11.7312V25.209H15.7312ZM14.0588 22.2514L28.392 19.8721L27.737 15.9261L13.4037 18.3054L14.0588 22.2514ZM25.4845 12.4591H1.77732V16.4591H25.4845V12.4591ZM3.77732 14.4591V7.23515H-0.222679V14.4591H3.77732ZM1.77732 9.23515H25.4845V5.23515H1.77732V9.23515ZM23.4845 7.23515V14.4591H27.4845V7.23515H23.4845ZM14.2472 32.755H12.0399V36.755H14.2472V32.755ZM14.0399 34.755V26.3557H10.0399V34.755H14.0399ZM12.0399 28.3557H14.2472V24.3557H12.0399V28.3557ZM12.2472 26.3557V34.755H16.2472V26.3557H12.2472Z" fill="white" mask="url(#path-1-inside-1)"/>
</g>
</svg>
