<svg width="18" height="22" fill="none" xmlns="http://www.w3.org/2000/svg"><path d="M9 22a.867.867 0 01-.57-.218C7.568 21.02 0 14.216 0 9.3 0 4.173 4.039 0 9 0s9 4.173 9 9.299c0 4.917-7.569 11.721-8.43 12.483A.867.867 0 019 22zM9 1.814c-3.995 0-7.244 3.357-7.244 7.485C1.756 12.483 6.55 17.6 9 19.886c2.45-2.286 7.244-7.403 7.244-10.587 0-4.128-3.249-7.485-7.244-7.485z" fill="#fff"/><path d="M9 13.835c-2.423 0-4.39-2.032-4.39-4.536 0-2.504 1.967-4.536 4.39-4.536 2.424 0 4.39 2.032 4.39 4.536 0 2.504-1.966 4.536-4.39 4.536zm0-7.258c-1.449 0-2.634 1.225-2.634 2.722 0 1.497 1.185 2.722 2.634 2.722 1.449 0 2.634-1.225 2.634-2.722 0-1.497-1.176-2.722-2.634-2.722z" fill="#fff"/></svg>