<svg width="18" height="23" fill="none" xmlns="http://www.w3.org/2000/svg"><path d="M9 22.113a.867.867 0 01-.57-.218C7.568 21.133 0 14.329 0 9.412c0-5.126 4.039-9.3 9-9.3s9 4.174 9 9.3c0 4.917-7.569 11.72-8.43 12.483a.867.867 0 01-.57.218zM9 1.927c-3.995 0-7.244 3.357-7.244 7.485 0 3.184 4.794 8.3 7.244 10.587 2.45-2.287 7.244-7.403 7.244-10.587 0-4.128-3.249-7.485-7.244-7.485z" fill="#000"/><path d="M9 13.948c-2.424 0-4.39-2.033-4.39-4.536 0-2.504 1.966-4.537 4.39-4.537 2.423 0 4.39 2.033 4.39 4.537 0 2.503-1.967 4.536-4.39 4.536zM9 6.69c-1.45 0-2.635 1.225-2.635 2.722 0 1.496 1.186 2.721 2.635 2.721 1.448 0 2.634-1.224 2.634-2.721S10.457 6.69 9 6.69z" fill="#000"/></svg>