<svg width="18" height="22" viewBox="0 0 18 22" fill="none" xmlns="http://www.w3.org/2000/svg">
<path d="M9 22C8.79805 22 8.5961 21.9274 8.42927 21.7823C7.56878 21.0202 0 14.2161 0 9.29897C0 4.1732 4.03902 0 9 0C13.961 0 18 4.1732 18 9.29897C18 14.2161 10.4312 21.0202 9.57073 21.7823C9.4039 21.9274 9.20195 22 9 22ZM9 1.81443C5.00488 1.81443 1.7561 5.17113 1.7561 9.29897C1.7561 12.4833 6.55024 17.6 9 19.8862C11.4498 17.6 16.2439 12.4833 16.2439 9.29897C16.2439 5.17113 12.9951 1.81443 9 1.81443Z" fill="white"/>
<path d="M9.00011 13.835C6.57669 13.835 4.60986 11.8029 4.60986 9.29896C4.60986 6.79504 6.57669 4.76288 9.00011 4.76288C11.4235 4.76288 13.3904 6.79504 13.3904 9.29896C13.3904 11.8029 11.4235 13.835 9.00011 13.835ZM9.00011 6.57731C7.55133 6.57731 6.36596 7.80205 6.36596 9.29896C6.36596 10.7959 7.55133 12.0206 9.00011 12.0206C10.4489 12.0206 11.6343 10.7959 11.6343 9.29896C11.6343 7.80205 10.4577 6.57731 9.00011 6.57731Z" fill="white"/>
</svg>
