<svg width="18" height="23" viewBox="0 0 18 23" fill="none" xmlns="http://www.w3.org/2000/svg">
<path d="M9 22.1125C8.79805 22.1125 8.5961 22.04 8.42927 21.8948C7.56878 21.1328 0 14.3286 0 9.41152C0 4.28574 4.03902 0.112549 9 0.112549C13.961 0.112549 18 4.28574 18 9.41152C18 14.3286 10.4312 21.1328 9.57073 21.8948C9.4039 22.04 9.20195 22.1125 9 22.1125ZM9 1.92698C5.00488 1.92698 1.7561 5.28368 1.7561 9.41152C1.7561 12.5958 6.55024 17.7125 9 19.9987C11.4498 17.7125 16.2439 12.5958 16.2439 9.41152C16.2439 5.28368 12.9951 1.92698 9 1.92698Z" fill="black"/>
<path d="M8.99962 13.9477C6.5762 13.9477 4.60938 11.9155 4.60938 9.41157C4.60938 6.90765 6.5762 4.87549 8.99962 4.87549C11.423 4.87549 13.3899 6.90765 13.3899 9.41157C13.3899 11.9155 11.423 13.9477 8.99962 13.9477ZM8.99962 6.68992C7.55084 6.68992 6.36547 7.91466 6.36547 9.41157C6.36547 10.9085 7.55084 12.1332 8.99962 12.1332C10.4484 12.1332 11.6338 10.9085 11.6338 9.41157C11.6338 7.91466 10.4572 6.68992 8.99962 6.68992Z" fill="black"/>
</svg>
