<svg width="84" height="89" fill="none" xmlns="http://www.w3.org/2000/svg"><path d="M7.893 10.245h4.823v11.002h5.174V10.245h4.823v27.024H17.89V25.108h-5.174v12.16H7.893V10.246zm34.216 27.46c-2.48 0-4.372-.58-5.674-1.74-1.303-1.187-1.954-2.876-1.954-5.068V10.245h5.116v20.962c0 .928.217 1.599.651 2.011.466.413 1.117.619 1.954.619s1.473-.206 1.907-.619c.465-.412.698-1.083.698-2.011V10.245h4.93v20.653c0 2.191-.651 3.88-1.954 5.066-1.302 1.16-3.194 1.74-5.674 1.74zm19.396-27.46h7.236c2.47 0 4.271.514 5.405 1.544 1.133 1.004 1.7 2.56 1.7 4.671v1.081c0 1.39-.262 2.522-.785 3.397-.494.876-1.264 1.506-2.31 1.892v.077c2.383.72 3.574 2.6 3.574 5.637v2.316c0 2.085-.625 3.68-1.874 4.787-1.22 1.081-3.022 1.622-5.405 1.622h-7.54V10.245zm6.67 11.002c.958 0 1.67-.218 2.135-.656.494-.438.74-1.171.74-2.2v-1.506c0-.978-.203-1.686-.61-2.124-.377-.437-.987-.656-1.83-.656H66.3v7.142h1.874zm.87 12.161c.844 0 1.468-.193 1.875-.579.407-.412.61-1.107.61-2.085V28.39c0-1.235-.247-2.084-.74-2.548-.466-.489-1.25-.733-2.354-.733H66.3v8.3h2.746zm-23.423 7.783h4.307l3.295 17h-3.18l-.578-3.376v.048h-3.613l-.578 3.327h-2.948l3.295-16.999zm3.468 11.365l-1.416-8.402h-.058l-1.387 8.402h2.861zm-25.343 6.07c-1.489 0-2.614-.372-3.377-1.117-.763-.76-1.144-1.845-1.144-3.251v-.993h2.902v1.191c0 1.126.53 1.688 1.59 1.688.522 0 .912-.132 1.173-.397.279-.281.418-.728.418-1.34 0-.728-.186-1.365-.558-1.911-.372-.563-1.06-1.233-2.065-2.01-1.265-.994-2.149-1.887-2.65-2.681-.503-.811-.754-1.721-.754-2.73 0-1.374.39-2.433 1.172-3.178.781-.76 1.916-1.141 3.404-1.141 1.47 0 2.577.38 3.321 1.141.763.745 1.144 1.82 1.144 3.227v.72h-2.902v-.894c0-.595-.13-1.026-.39-1.29-.261-.282-.642-.422-1.145-.422-1.023 0-1.535.554-1.535 1.663 0 .628.186 1.216.559 1.762.39.546 1.088 1.208 2.092 1.986 1.284.992 2.168 1.894 2.652 2.705.483.81.725 1.762.725 2.854 0 1.423-.4 2.515-1.2 3.277-.781.76-1.925 1.141-3.432 1.141zM7.457 41.191h8.282v2.429h-5.245v4.492h4.168v2.429h-4.168v5.22h5.245v2.43H7.457v-17zm50.029 2.429h-3.39v-2.43H64.12v2.429h-3.39v14.57h-3.243V43.62zm-22.953 0h-3.539v-2.43h10.461v2.429h-3.538v14.57h-3.384V43.62zm33.074-2.429h8.718v2.429h-5.521v4.492h4.388v2.429h-4.388v5.22h5.52v2.43h-8.717v-17z" fill="#fff"/><path fill-rule="evenodd" clip-rule="evenodd" d="M.048 64.51v-1.307h83.905v1.308H.048zm0 2.18v-1.307h83.905v1.307H.048zM41.891 2.18L84 5.233l-.095 1.304L41.891 3.49.095 6.538 0 5.234l41.891-3.055z" fill="#D37700"/><path fill-rule="evenodd" clip-rule="evenodd" d="M41.891 0L84 3.055l-.095 1.304L41.891 1.31.095 4.36 0 3.055 41.891 0z" fill="#D37700"/><path d="M4.256 76.065v.15H7.95v1.088h1.402v-2.278h-.726v-6.152H7.048v6.152H5.833v-6.152H4.256v7.192zm18.307-.131v.15h4.223v-1.29h-2.607v-1.729h2.271v-1.231h-2.27v-1.729h2.606v-1.232h-4.223v7.06zm17.871 0v.15h1.512v-3.077h1.198v3.077h1.512v-7.21h-1.512v2.96h-1.198v-2.96h-1.512v7.059zm18.804 0v.15h1.484v-5.979h1.37v-1.232h-4.224v1.232h1.371v5.829zm16.502 0v.15h1.507v-2.698h.466c.462 0 .849-.063 1.152-.198h.002c.297-.14.539-.333.72-.581a1.55 1.55 0 00.3-.662c.05-.227.074-.5.074-.816 0-.42-.04-.765-.126-1.026a1.575 1.575 0 00-.47-.707 1.893 1.893 0 00-.746-.41 3.393 3.393 0 00-.918-.113H75.74v7.06zm2.678-4.042h0l-.002.004a.476.476 0 01-.228.183c-.107.046-.273.075-.51.075h-.43v-2.049h.478c.229 0 .385.029.483.074.1.046.17.11.217.19a.71.71 0 01.087.322h0c.007.14.011.289.011.448 0 .17-.008.323-.023.46h0v.007a.572.572 0 01-.083.286z" fill="#fff" stroke="#000" stroke-width=".3"/><path d="M4.406 87v-6.8H5.62v2.913h1.498V80.2H8.33V87H7.117v-3.027H5.619V87H4.406z" fill="#fff"/><path fill-rule="evenodd" clip-rule="evenodd" d="M4.275 87.107v-7.014H5.75v2.913h1.237v-2.913H8.46v7.014H6.986V84.08H5.749v3.027H4.275zm1.344-3.134h1.497V87H8.33v-6.8H7.116v2.913H5.62V80.2H4.406V87H5.62v-3.027z" fill="#fff"/><path d="M10.508 87v-6.8h3.488v.917h-2.318v1.996h2.02v.917h-2.02v1.996h2.317V87H10.51z" fill="#fff"/><path fill-rule="evenodd" clip-rule="evenodd" d="M10.378 87.107v-7.014h3.748v1.132H11.81v1.78h2.019v1.132H11.81v1.782h2.317v1.188h-3.748zm1.3-1.081V84.03h2.02v-.917h-2.02v-1.996h2.317V80.2h-3.487V87h3.487v-.974h-2.317z" fill="#fff"/><path d="M16.737 87.02v1.054h-.998v-1.916h.59a3.39 3.39 0 00.193-.412c.06-.16.113-.325.159-.498.045-.172.086-.348.124-.527a7.81 7.81 0 00.091-.536 7.21 7.21 0 00.034-.45 10.77 10.77 0 00.046-1.035c.007-.178.01-.348.01-.507V80.2h3.325v5.958h.658v1.916h-.998V87.02h-3.234zm1.339-5.957v1.12c0 .09-.004.22-.011.393a17.77 17.77 0 01-.034.546l-.046.603a7.607 7.607 0 01-.056.527 4.28 4.28 0 01-.08.44c-.03.16-.068.326-.113.499-.046.172-.095.344-.148.517a3.014 3.014 0 01-.181.45h1.747v-5.096h-1.078z" fill="#fff"/><path fill-rule="evenodd" clip-rule="evenodd" d="M16.868 88.181h-1.26v-2.13h.636c.053-.101.104-.214.153-.337a4.88 4.88 0 00.156-.489c.045-.17.086-.344.123-.522a7.06 7.06 0 00.09-.529 6.75 6.75 0 00.034-.443v-.004a10.706 10.706 0 00.045-1.027v-.003a12.9 12.9 0 00.011-.504v-2.1h3.586v5.958h.658v2.13h-1.26v-1.053h-2.972v1.053zm3.103-1.16v1.053h.998v-1.916h-.658V80.2h-3.324v1.993c0 .16-.004.329-.011.507a12.573 12.573 0 01-.046 1.035 6.788 6.788 0 01-.034.45 7.736 7.736 0 01-.09.536c-.038.18-.08.355-.125.527a4.997 4.997 0 01-.16.498c-.06.153-.124.29-.192.412h-.59v1.916h.998V87.02h3.234zm-1.776-4.441c-.007.167-.018.35-.034.549l-.045.603a7.675 7.675 0 01-.057.532c-.016.13-.043.28-.08.447a8.06 8.06 0 01-.115.502c-.046.174-.096.348-.149.521v.001a3.368 3.368 0 01-.118.316h1.426V81.17h-.816v1.013a9.3 9.3 0 01-.012.397zm-.119-1.518h1.078v5.096h-1.747c.017-.035.035-.07.051-.107.048-.106.091-.22.13-.343.053-.172.102-.345.148-.517.045-.173.083-.339.113-.498.038-.166.064-.313.08-.441.022-.153.041-.329.056-.527l.046-.603c.015-.198.026-.38.034-.546.007-.173.011-.303.011-.393v-1.12z" fill="#fff"/><path d="M23.584 87v-6.8h1.772c.388 0 .717.048.986.144.278.095.504.223.678.382.174.159.297.344.368.554.08.203.12.417.12.64v.248c0 .184-.02.34-.06.468a.924.924 0 01-.155.334c-.134.178-.34.331-.618.458.285.109.495.268.63.478.135.21.202.496.202.86v.381c0 .599-.182 1.057-.547 1.376-.356.318-.93.477-1.723.477h-1.652zm1.213-3.151v2.177h.523c.246 0 .436-.029.57-.086a.693.693 0 00.322-.239.772.772 0 00.13-.363 4.04 4.04 0 00.024-.458 2.55 2.55 0 00-.035-.449.723.723 0 00-.143-.325.657.657 0 00-.321-.19 1.752 1.752 0 00-.535-.067h-.535zm0-2.732v1.872h.547c.404 0 .673-.08.808-.239.143-.165.214-.404.214-.716 0-.306-.08-.535-.238-.688-.15-.152-.428-.229-.832-.229h-.499z" fill="#fff"/><path fill-rule="evenodd" clip-rule="evenodd" d="M23.454 87.107v-7.014h1.902c.4 0 .748.05 1.038.152.292.1.534.236.723.409.188.171.32.37.397.595.083.214.124.438.124.67v.249c0 .189-.02.353-.063.492a1.02 1.02 0 01-.17.366 1.519 1.519 0 01-.471.396c.21.11.373.255.487.434.149.231.217.537.217.91v.381c0 .616-.187 1.104-.582 1.449-.391.349-1.009.511-1.819.511h-1.783zm3.507-.584c.364-.319.547-.777.547-1.376v-.382c0-.363-.068-.65-.203-.86a1.17 1.17 0 00-.492-.418 1.74 1.74 0 00-.138-.059c.047-.02.091-.043.133-.066.212-.113.373-.244.486-.392a.925.925 0 00.154-.334c.04-.128.06-.284.06-.468v-.249c0-.222-.04-.436-.12-.64a1.316 1.316 0 00-.368-.553c-.174-.16-.4-.287-.677-.382-.27-.096-.599-.144-.987-.144h-1.771V87h1.652c.793 0 1.367-.16 1.724-.477zm-1.128-.68a.57.57 0 00.265-.195.68.68 0 00.114-.32 3.86 3.86 0 00.023-.448c0-.168-.011-.312-.034-.433a.627.627 0 00-.12-.28.525.525 0 00-.257-.15l-.003-.001-.003-.001a1.597 1.597 0 00-.486-.06h-.404v1.964h.392c.236 0 .403-.028.51-.074l.003-.001zm-1.036.183v-2.177h.535c.222 0 .4.022.535.066a.657.657 0 01.321.191c.071.09.119.198.143.325.023.127.035.277.035.449a4.3 4.3 0 01-.023.458.772.772 0 01-.131.363.693.693 0 01-.321.239c-.135.057-.325.086-.57.086h-.524zm1.249-3.338c.12-.14.19-.353.19-.654 0-.293-.077-.493-.207-.618l-.002-.002c-.113-.115-.34-.19-.73-.19h-.37v1.658h.417c.391 0 .604-.078.7-.193h.002zm-1.249.301v-1.872h.5c.404 0 .68.077.831.23.159.152.238.381.238.687 0 .312-.071.55-.214.716-.134.16-.404.239-.808.239h-.547z" fill="#fff"/><path d="M32.433 87v-4.412h-.023L30.864 87h-1.177v-6.8h1.177v4.422h.023l1.546-4.422h1.177V87h-1.177z" fill="#fff"/><path fill-rule="evenodd" clip-rule="evenodd" d="M32.302 87.107v-3.823l-1.34 3.823h-1.406v-7.014h1.438v3.832l1.34-3.832h1.406v7.014h-1.438zm-1.415-2.485h-.024V80.2h-1.176V87h1.176l1.547-4.412h.023V87h1.176v-6.8h-1.176l-1.546 4.422z" fill="#fff"/><path d="M38.243 80.2h1.194v2.913h.35c.141 0 .25-.016.328-.047a.454.454 0 00.2-.134.508.508 0 00.116-.191c.024-.077.043-.16.059-.248l.117-.812a.974.974 0 00.023-.153 2.49 2.49 0 01.07-.268c.04-.101.086-.206.14-.315.055-.114.13-.216.223-.305.164-.166.343-.28.538-.344.203-.064.441-.096.714-.096h.012v.917h-.023a.786.786 0 00-.246.038.481.481 0 00-.328.325 8.195 8.195 0 00-.047.277l-.105.793c-.008.082-.02.162-.035.239l-.047.21a.542.542 0 01-.058.152.95.95 0 01-.351.392l1.1 3.457H40.97l-.913-3.027h-.62V87h-1.194v-3.027h-.62L36.71 87h-1.217l1.1-3.457a.95.95 0 01-.35-.392.542.542 0 01-.06-.152l-.046-.21a2.248 2.248 0 01-.035-.24l-.105-.792a2.299 2.299 0 00-.059-.277.372.372 0 00-.117-.21.475.475 0 00-.21-.114.682.682 0 00-.235-.039h-.023V80.2h.012c.273 0 .507.032.702.096.203.064.386.178.55.344.093.089.168.19.222.305.055.109.098.214.129.316a.947.947 0 01.07.267c.016.076.027.127.035.153l.117.812c.016.089.035.171.059.248a.6.6 0 00.105.19c.054.058.12.103.199.135a.997.997 0 00.34.047h.35V80.2z" fill="#fff"/><path fill-rule="evenodd" clip-rule="evenodd" d="M38.113 80.093h1.455v2.913h.22a.75.75 0 00.27-.037l.004-.001a.326.326 0 00.144-.096l.003-.003.002-.003a.41.41 0 00.094-.153c.022-.071.04-.15.055-.234l.118-.818.002-.007a.936.936 0 00.02-.135v-.004l.001-.004a2.35 2.35 0 01.073-.278l.002-.005c.04-.105.088-.212.144-.323.06-.124.14-.236.243-.334a1.47 1.47 0 01.59-.375h.002c.22-.07.475-.103.76-.103h.143v1.132h-.154c-.07 0-.135.01-.198.03l-.003.001-.004.001a.347.347 0 00-.142.085l-.098-.072a.481.481 0 01.199-.115.786.786 0 01.246-.038h.023V80.2h-.012l-.119.002a2.26 2.26 0 00-.594.094 1.342 1.342 0 00-.539.344 1.04 1.04 0 00-.222.305 3.381 3.381 0 00-.14.315 2.15 2.15 0 00-.07.268.972.972 0 01-.024.153l-.117.811c-.016.09-.035.172-.059.249a.51.51 0 01-.116.19.453.453 0 01-.2.134.893.893 0 01-.327.048h-.351V80.2h-1.194v2.913h-.35a.994.994 0 01-.34-.048.566.566 0 01-.199-.133.6.6 0 01-.105-.191 2.065 2.065 0 01-.059-.249l-.117-.811a2.018 2.018 0 01-.035-.153.949.949 0 00-.07-.268 2.008 2.008 0 00-.129-.315 1.032 1.032 0 00-.222-.305 1.328 1.328 0 00-.55-.344 2.13 2.13 0 00-.583-.094 3.302 3.302 0 00-.12-.002h-.01v.917h.023a.7.7 0 01.234.038c.078.02.148.058.21.115a.372.372 0 01.117.21c.024.083.043.175.059.277l.105.793c.008.082.02.162.035.239l.047.21a.543.543 0 00.059.152.95.95 0 00.35.392L35.493 87h1.218l.912-3.027h.62V87h1.194v-3.027h.62L40.97 87h1.217l-1.1-3.457a.95.95 0 00.35-.392.543.543 0 00.06-.152l.046-.21c.016-.077.027-.157.035-.24l.105-.792c.016-.102.032-.194.047-.277a.443.443 0 01.13-.21l.096.072a.34.34 0 00-.097.159c-.015.08-.03.17-.046.269l-.105.79c-.008.085-.02.167-.036.246v.002l-.047.212a1.103 1.103 0 01-.39.563l1.121 3.524h-1.489l-.912-3.027h-.387v3.027h-1.455V84.08h-.387l-.913 3.027h-1.489l1.122-3.524a1.104 1.104 0 01-.39-.563v-.002l-.048-.212a2.333 2.333 0 01-.036-.246l-.105-.79a2.234 2.234 0 00-.056-.266l-.001-.004-.001-.004a.271.271 0 00-.085-.154.338.338 0 00-.15-.084l-.009-.002-.007-.002a.526.526 0 00-.181-.03h-.155v-1.131h.143c.284 0 .535.033.75.103.227.071.427.198.602.375.103.098.184.21.244.334.055.111.1.22.133.325.04.1.065.194.074.285.015.074.026.12.032.14l.002.006.118.817c.015.086.033.164.055.235.02.058.048.11.085.156a.438.438 0 00.149.1.854.854 0 00.283.037h.22v-2.913z" fill="#fff"/><path d="M47.252 87v-4.412h-.023L45.683 87h-1.177v-6.8h1.177v4.422h.023l1.546-4.422h1.177V87h-1.177z" fill="#fff"/><path fill-rule="evenodd" clip-rule="evenodd" d="M47.121 87.107v-3.823l-1.34 3.823h-1.405v-7.014h1.438v3.832l1.34-3.832h1.406v7.014h-1.44zm-1.415-2.485h-.023V80.2h-1.177V87h1.177l1.546-4.412h.023V87h1.177v-6.8h-1.177l-1.546 4.422z" fill="#fff"/><path d="M50.608 87v-6.8h1.115l1.49 3.6h.022l1.478-3.6h1.126V87h-1.16v-4.135h-.023l-1.148 2.922h-.58l-1.137-2.922h-.023V87h-1.16z" fill="#fff"/><path fill-rule="evenodd" clip-rule="evenodd" d="M50.478 87.107v-7.014h1.338l1.407 3.4 1.396-3.4h1.35v7.014h-1.42V83.49l-.946 2.406h-.77l-.934-2.4v3.612h-1.421zm1.29-4.242h.023l1.137 2.922h.58l1.148-2.922h.023V87h1.16v-6.8h-1.126l-1.478 3.6h-.023l-1.49-3.6h-1.114V87h1.16v-4.135z" fill="#fff"/><path d="M58.019 81.835c0-.27.057-.507.172-.714.114-.207.267-.379.458-.517.184-.131.39-.231.62-.3a2.424 2.424 0 011.41 0c.238.069.452.169.643.3.183.138.333.31.447.517.115.207.172.444.172.714v3.53c0 .283-.057.524-.172.724a1.56 1.56 0 01-.447.498 2.086 2.086 0 01-.642.31 2.42 2.42 0 01-.7.103c-.237 0-.474-.034-.711-.103a1.964 1.964 0 01-.62-.31 1.504 1.504 0 01-.458-.498 1.433 1.433 0 01-.172-.723v-3.531zm1.17 3.53c0 .233.076.405.229.517.16.107.348.16.562.16a.94.94 0 00.55-.16c.161-.112.241-.284.241-.516v-3.531c0-.232-.08-.401-.24-.507a.902.902 0 00-.551-.17.954.954 0 00-.562.17c-.153.106-.23.275-.23.507v3.53z" fill="#fff"/><path fill-rule="evenodd" clip-rule="evenodd" d="M58.563 80.523c.196-.14.416-.247.66-.32h.002c.25-.073.502-.11.755-.11s.5.037.744.11c.251.073.479.18.682.319l.004.003c.198.148.357.333.478.551.124.223.184.477.184.759v3.53c0 .294-.06.552-.184.77a1.69 1.69 0 01-.48.533 2.223 2.223 0 01-.684.33l-.044-.101.043.101c-.242.073-.49.11-.743.11s-.505-.037-.755-.11h-.001a2.1 2.1 0 01-.659-.329l.084-.082-.088.08h.002a1.615 1.615 0 01-.49-.532 1.523 1.523 0 01-.185-.77v-3.53c0-.282.06-.536.184-.759.121-.219.285-.404.491-.553zm2.117-.22c.237.07.45.17.642.301l-.642-.3zm-1.262 5.58c-.153-.113-.23-.285-.23-.517v-3.531c0-.232.077-.401.23-.508a.954.954 0 01.562-.169c.214 0 .398.057.55.17.161.106.241.275.241.507v3.53c0 .233-.08.405-.24.517a.94.94 0 01-.551.16.993.993 0 01-.562-.16z" fill="#fff"/><path d="M68.043 85.037v.413c0 .207-.045.404-.137.592a1.565 1.565 0 01-.36.489c-.154.143-.337.26-.549.347a1.782 1.782 0 01-.665.122c-.205 0-.412-.025-.624-.075a1.547 1.547 0 01-.993-.742c-.106-.2-.159-.454-.159-.76V81.74a1.433 1.433 0 01.486-1.099c.155-.138.339-.244.55-.32.218-.08.458-.122.718-.122.508 0 .92.148 1.237.442.155.144.275.316.359.516.092.195.137.407.137.64v.375h-1.077v-.32a.72.72 0 00-.18-.488.611.611 0 00-.486-.207c-.268 0-.447.076-.539.226a1.084 1.084 0 00-.127.554v3.419c0 .194.046.356.138.488.098.131.27.197.517.197.07 0 .145-.01.222-.028a.783.783 0 00.233-.113.577.577 0 00.158-.206.756.756 0 00.064-.33v-.328h1.077z" fill="#fff"/><path fill-rule="evenodd" clip-rule="evenodd" d="M68.174 84.93v.52c0 .22-.048.43-.146.631-.09.193-.218.367-.383.52a1.958 1.958 0 01-.589.373h-.001a1.938 1.938 0 01-.723.133c-.218 0-.438-.026-.66-.079a1.69 1.69 0 01-.622-.286 1.678 1.678 0 01-.453-.513l-.002-.003c-.115-.218-.17-.488-.17-.804v-3.681a1.54 1.54 0 01.52-1.172 1.78 1.78 0 01.594-.345 2.2 2.2 0 01.772-.131c.542 0 .99.159 1.334.478.167.155.294.339.384.55.097.208.145.433.145.676v.483h-1.339v-.427a.626.626 0 00-.155-.426.47.47 0 00-.38-.161c-.236 0-.359.063-.421.165a.995.995 0 00-.114.507v3.418c0 .18.042.323.12.434.067.09.188.145.404.145a.786.786 0 00.182-.023.642.642 0 00.184-.09.472.472 0 00.126-.167.666.666 0 00.054-.29v-.435h1.34zm-1.43.971a.78.78 0 01-.233.113.942.942 0 01-.221.028c-.247 0-.42-.066-.518-.197a.834.834 0 01-.138-.489v-3.418c0-.225.043-.41.127-.554.092-.15.271-.226.539-.226.204 0 .366.07.486.207.12.138.18.3.18.488v.32h1.078v-.376c0-.232-.046-.445-.138-.639a1.482 1.482 0 00-.36-.516c-.316-.294-.728-.442-1.235-.442-.261 0-.5.041-.719.123a1.647 1.647 0 00-.55.319 1.434 1.434 0 00-.486 1.099v3.681c0 .307.053.56.159.761a1.548 1.548 0 00.993.742c.212.05.42.075.624.075a1.764 1.764 0 001.215-.469c.155-.145.275-.307.36-.489.09-.188.136-.385.136-.592v-.413h-1.077v.329a.754.754 0 01-.064.329.575.575 0 01-.158.206z" fill="#fff"/><path d="M71.156 87v-5.883h-1.37V80.2h3.924v.917h-1.37V87h-1.184z" fill="#fff"/><path fill-rule="evenodd" clip-rule="evenodd" d="M71.026 87.107v-5.882h-1.37v-1.132h4.185v1.132h-1.37v5.882h-1.445zm1.314-5.99h1.37V80.2h-3.923v.917h1.37V87h1.183v-5.883z" fill="#fff"/><path d="M78.635 87v-4.412h-.023L77.066 87h-1.177v-6.8h1.177v4.422h.023l1.546-4.422h1.177V87h-1.177z" fill="#fff"/><path fill-rule="evenodd" clip-rule="evenodd" d="M78.504 87.107v-3.823l-1.34 3.823h-1.406v-7.014h1.439v3.832l1.34-3.832h1.406v7.014h-1.439zm-1.415-2.485h-.023V80.2h-1.177V87h1.177l1.546-4.412h.023V87h1.177v-6.8h-1.177l-1.546 4.422z" fill="#fff"/></svg>