<svg width="54" height="44" viewBox="0 0 54 44" fill="none" xmlns="http://www.w3.org/2000/svg">
<path d="M5.38965 7.36035H8.47012V14.3879H11.7746V7.36035H14.8551V24.6209H11.7746V16.8536H8.47012V24.6209H5.38965V7.36035Z" fill="white"/>
<path d="M27.243 24.8973C25.6587 24.8973 24.4506 24.5268 23.6188 23.7857C22.787 23.0281 22.3711 21.9495 22.3711 20.5496V7.3584H25.6388V20.7473C25.6388 21.3401 25.7775 21.7683 26.0547 22.0318C26.3518 22.2953 26.7677 22.427 27.3024 22.427C27.8372 22.427 28.2431 22.2953 28.5204 22.0318C28.8175 21.7683 28.966 21.3401 28.966 20.7473V7.3584H32.1149V20.5496C32.1149 21.9495 31.699 23.0281 30.8673 23.7857C30.0355 24.5268 28.8274 24.8973 27.243 24.8973Z" fill="white"/>
<path d="M39.6318 7.3584H44.2532C45.8308 7.3584 46.9815 7.68717 47.7053 8.34471C48.4291 8.98582 48.791 9.98035 48.791 11.3283V12.0187C48.791 12.9064 48.624 13.6297 48.2899 14.1886C47.9744 14.7475 47.4826 15.1503 46.8144 15.3969V15.4462C48.3363 15.9065 49.0973 17.1065 49.0973 19.0462V20.5257C49.0973 21.8572 48.6982 22.8764 47.9002 23.5833C47.1207 24.2737 45.97 24.6189 44.4481 24.6189H39.6318V7.3584ZM43.8913 14.3859C44.5038 14.3859 44.9585 14.2462 45.2554 13.9667C45.5709 13.6873 45.7287 13.2188 45.7287 12.5612V11.5996C45.7287 10.9749 45.5988 10.5228 45.3389 10.2434C45.0977 9.96392 44.7079 9.82419 44.1697 9.82419H42.6942V14.3859H43.8913ZM44.4481 22.1531C44.9863 22.1531 45.3853 22.0298 45.6452 21.7833C45.905 21.5202 46.0349 21.0764 46.0349 20.4517V18.9476C46.0349 18.1586 45.8772 17.6161 45.5617 17.3202C45.2647 17.0079 44.7636 16.8517 44.0583 16.8517H42.6942V22.1531H44.4481Z" fill="white"/>
<path d="M29.4874 27.124H32.2381L34.3427 37.9814H32.312L31.9427 35.8255V35.8565H29.6351L29.2659 37.9814H27.3828L29.4874 27.124ZM31.7027 34.383L30.7981 29.0163H30.7612L29.8751 34.383H31.7027Z" fill="white"/>
<path d="M15.5154 38.2599C14.5648 38.2599 13.8459 38.0221 13.3587 37.5465C12.8715 37.0604 12.6279 36.3681 12.6279 35.4698V34.8357H14.4816V35.5966C14.4816 36.3153 14.8203 36.6746 15.4976 36.6746C15.8303 36.6746 16.0799 36.5901 16.2462 36.421C16.4245 36.2413 16.5136 35.9559 16.5136 35.5649C16.5136 35.0999 16.3948 34.693 16.1571 34.3442C15.9194 33.9849 15.4798 33.5568 14.8381 33.0601C14.0301 32.426 13.4657 31.8553 13.1448 31.348C12.824 30.8301 12.6636 30.2488 12.6636 29.6041C12.6636 28.7269 12.9131 28.0505 13.4122 27.5749C13.9113 27.0888 14.6361 26.8457 15.5867 26.8457C16.5255 26.8457 17.2325 27.0888 17.7078 27.5749C18.195 28.0505 18.4386 28.7375 18.4386 29.6358V30.0956H16.5849V29.5249C16.5849 29.1444 16.5017 28.8696 16.3353 28.7005C16.169 28.5208 15.9254 28.431 15.6046 28.431C14.951 28.431 14.6242 28.7851 14.6242 29.4932C14.6242 29.8948 14.7431 30.27 14.9807 30.6187C15.2302 30.9675 15.6759 31.3903 16.3175 31.887C17.1374 32.5211 17.7019 33.0971 18.0108 33.615C18.3198 34.1328 18.4742 34.7405 18.4742 35.4381C18.4742 36.347 18.2188 37.0445 17.7078 37.5307C17.2087 38.0168 16.4779 38.2599 15.5154 38.2599Z" fill="white"/>
<path d="M5.11035 27.124H10.3999V28.6751H7.04984V31.5445H9.71223V33.0956H7.04984V36.4304H10.3999V37.9814H5.11035V27.124Z" fill="white"/>
<path d="M37.0652 28.6751H34.8994V27.124H41.3025V28.6751H39.1368V37.9814H37.0652V28.6751Z" fill="white"/>
<path d="M22.4035 28.6751H20.1436V27.124H26.825V28.6751H24.5651V37.9814H22.4035V28.6751Z" fill="white"/>
<path d="M43.5293 27.124H49.0972V28.6751H45.5709V31.5445H48.3734V33.0956H45.5709V36.4304H49.0972V37.9814H43.5293V27.124Z" fill="white"/>
<path fill-rule="evenodd" clip-rule="evenodd" d="M0.37793 42.0178V41.1826H53.9691V42.0178H0.37793Z" fill="#D37700"/>
<path fill-rule="evenodd" clip-rule="evenodd" d="M0.37793 43.4104V42.5752H53.9691V43.4104H0.37793Z" fill="#D37700"/>
<path fill-rule="evenodd" clip-rule="evenodd" d="M27.1039 2.20703L53.9994 4.158L53.939 4.99099L27.1041 3.04442L0.408394 4.99098L0.347656 4.15801L27.1039 2.20703Z" fill="#D37700"/>
<path fill-rule="evenodd" clip-rule="evenodd" d="M27.1039 0.814453L53.9994 2.76542L53.939 3.59842L27.1041 1.65185L0.408394 3.59841L0.347656 2.76543L27.1039 0.814453Z" fill="#D37700"/>
</svg>
