<svg width="84" height="89" viewBox="0 0 84 89" fill="none" xmlns="http://www.w3.org/2000/svg">
<path d="M7.89331 10.2446H12.7163V21.2473H17.89V10.2446H22.7129V37.2686H17.89V25.1078H12.7163V37.2686H7.89331V10.2446Z" fill="white"/>
<path d="M42.1089 37.7045C39.6284 37.7045 37.7369 37.1244 36.4346 35.9641C35.1324 34.778 34.4812 33.0892 34.4812 30.8975V10.2446H39.5974V31.207C39.5974 32.1352 39.8144 32.8056 40.2485 33.2181C40.7136 33.6306 41.3648 33.8369 42.202 33.8369C43.0392 33.8369 43.6748 33.6306 44.1089 33.2181C44.574 32.8056 44.8066 32.1352 44.8066 31.207V10.2446H49.7367V30.8975C49.7367 33.0892 49.0855 34.778 47.7832 35.9641C46.4809 37.1244 44.5895 37.7045 42.1089 37.7045Z" fill="white"/>
<path d="M61.5054 10.2446H68.7408C71.2108 10.2446 73.0124 10.7594 74.1456 11.7889C75.2789 12.7926 75.8455 14.3497 75.8455 16.4601V17.5411C75.8455 18.9309 75.584 20.0633 75.061 20.9384C74.567 21.8135 73.7969 22.444 72.7508 22.8301V22.9073C75.1336 23.6279 76.325 25.5068 76.325 28.5437V30.8601C76.325 32.9448 75.7002 34.5405 74.4507 35.6472C73.2303 36.7281 71.4287 37.2686 69.0459 37.2686H61.5054V10.2446ZM68.1742 21.2473C69.1331 21.2473 69.845 21.0285 70.31 20.591C70.804 20.1534 71.0509 19.4199 71.0509 18.3904V16.8848C71.0509 15.9068 70.8475 15.199 70.4407 14.7615C70.063 14.324 69.4528 14.1052 68.6101 14.1052H66.2999V21.2473H68.1742ZM69.0459 33.4081C69.8886 33.4081 70.5134 33.215 70.9202 32.829C71.327 32.4172 71.5304 31.7223 71.5304 30.7443V28.3893C71.5304 27.1539 71.2834 26.3046 70.7894 25.8413C70.3245 25.3523 69.5399 25.1078 68.4357 25.1078H66.2999V33.4081H69.0459Z" fill="white"/>
<path d="M45.622 41.1914H49.9286L53.2237 58.1904H50.0442L49.4662 54.8149V54.8634H45.8532L45.2751 58.1904H42.3269L45.622 41.1914ZM49.0904 52.5564L47.6741 44.1541H47.6163L46.2289 52.5564H49.0904Z" fill="white"/>
<path d="M23.7467 58.6263C22.2583 58.6263 21.1328 58.254 20.37 57.5094C19.6072 56.7482 19.2258 55.6644 19.2258 54.2579V53.2651H22.1281V54.4565C22.1281 55.5817 22.6583 56.1443 23.7188 56.1443C24.2397 56.1443 24.6304 56.0119 24.8908 55.7472C25.1699 55.4659 25.3094 55.0191 25.3094 54.4069C25.3094 53.6788 25.1234 53.0417 24.7513 52.4957C24.3792 51.9331 23.6908 51.2629 22.6862 50.4852C21.4211 49.4924 20.5374 48.5989 20.0351 47.8046C19.5328 46.9938 19.2816 46.0837 19.2816 45.0744C19.2816 43.701 19.6723 42.642 20.4537 41.8974C21.2351 41.1362 22.3699 40.7556 23.8583 40.7556C25.328 40.7556 26.435 41.1362 27.1791 41.8974C27.9419 42.642 28.3233 43.7175 28.3233 45.124V45.8438H25.421V44.9503C25.421 44.3546 25.2908 43.9244 25.0304 43.6596C24.7699 43.3783 24.3885 43.2377 23.8862 43.2377C22.863 43.2377 22.3513 43.792 22.3513 44.9006C22.3513 45.5294 22.5374 46.1168 22.9095 46.6629C23.3002 47.2089 23.9978 47.8708 25.0024 48.6485C26.2861 49.6413 27.1698 50.5431 27.6536 51.3539C28.1373 52.1647 28.3791 53.1162 28.3791 54.2083C28.3791 55.6313 27.9791 56.7234 27.1791 57.4846C26.3978 58.2457 25.2536 58.6263 23.7467 58.6263Z" fill="white"/>
<path d="M7.45728 41.1914H15.7388V43.6198H10.4938V48.1124H14.6622V50.5408H10.4938V55.7619H15.7388V58.1904H7.45728V41.1914Z" fill="white"/>
<path d="M57.4865 43.6198H54.0957V41.1914H64.1207V43.6198H60.7299V58.1904H57.4865V43.6198Z" fill="white"/>
<path d="M34.5326 43.6198H30.9944V41.1914H41.4553V43.6198H37.917V58.1904H34.5326V43.6198Z" fill="white"/>
<path d="M67.6074 41.1914H76.3248V43.6198H70.8038V48.1124H75.1916V50.5408H70.8038V55.7619H76.3248V58.1904H67.6074V41.1914Z" fill="white"/>
<path fill-rule="evenodd" clip-rule="evenodd" d="M0.0478516 64.5107V63.2031H83.953V64.5107H0.0478516Z" fill="#D37700"/>
<path fill-rule="evenodd" clip-rule="evenodd" d="M0.0476074 66.6902V65.3826H83.9528V66.6902H0.0476074Z" fill="#D37700"/>
<path fill-rule="evenodd" clip-rule="evenodd" d="M41.891 2.17944L84 5.23398L83.9054 6.53817L41.8913 3.49051L0.0950943 6.53815L0 5.234L41.891 2.17944Z" fill="#D37700"/>
<path fill-rule="evenodd" clip-rule="evenodd" d="M41.891 0L84 3.05454L83.9054 4.35872L41.8913 1.31107L0.0950943 4.3587L0 3.05455L41.891 0Z" fill="#D37700"/>
<path d="M4.25625 76.0654V76.2154H4.40625H7.9492V77.1534V77.3034H8.0992H9.20083H9.35083V77.1534V75.1753V75.0253H9.20083H8.62476V69.0232V68.8732H8.47476H7.19787H7.04787V69.0232V75.0253H5.83314V69.0232V68.8732H5.68314H4.40625H4.25625V69.0232V76.0654Z" fill="white" stroke="black" stroke-width="0.3"/>
<path d="M22.5629 75.9339V76.0839H22.7129H26.6357H26.7857V75.9339V74.9439V74.7939H26.6357H24.1791V73.0653H26.3002H26.4502V72.9153V71.9835V71.8335H26.3002H24.1791V70.105H26.6357H26.7857V69.955V69.0232V68.8732H26.6357H22.7129H22.5629V69.0232V75.9339Z" fill="white" stroke="black" stroke-width="0.3"/>
<path d="M40.4335 75.9339V76.0839H40.5835H41.796H41.946V75.9339V73.0071H43.1438V75.9339V76.0839H43.2938H44.5063H44.6563V75.9339V69.0232V68.8732H44.5063H43.2938H43.1438V69.0232V71.8335H41.946V69.0232V68.8732H41.796H40.5835H40.4335V69.0232V75.9339Z" fill="white" stroke="black" stroke-width="0.3"/>
<path d="M59.2381 75.9339V76.0839H59.3881H60.5719H60.7219V75.9339V70.105H61.9414H62.0914V69.955V69.0232V68.8732H61.9414H58.0186H57.8686V69.0232V69.955V70.105H58.0186H59.2381V75.9339Z" fill="white" stroke="black" stroke-width="0.3"/>
<path d="M75.7392 75.9339V76.0839H75.8892H77.098H77.248V75.9339V73.3856H77.7143C78.1763 73.3856 78.5628 73.3229 78.8656 73.1883L78.8656 73.1883L78.8682 73.1871C79.1651 73.0481 79.4066 72.8551 79.5886 72.607C79.7427 72.4033 79.8436 72.1826 79.8879 71.9455C79.938 71.7184 79.962 71.4456 79.962 71.1294C79.962 70.7085 79.9222 70.3637 79.8361 70.1026C79.7483 69.8297 79.5903 69.5938 79.366 69.396C79.1445 69.2006 78.8955 69.0631 78.6201 68.9856C78.3511 68.9098 78.0446 68.8732 77.7024 68.8732H75.8892H75.7392V69.0232V75.9339ZM78.4182 71.892L78.4181 71.8919L78.4159 71.8957C78.3719 71.9677 78.2999 72.0303 78.1879 72.0789C78.081 72.1252 77.9151 72.1538 77.6787 72.1538H77.248V70.105H77.7261C77.9547 70.105 78.111 70.1336 78.2085 70.1786C78.3096 70.2251 78.3795 70.289 78.4257 70.3694C78.4753 70.4557 78.5057 70.5615 78.5126 70.6909L78.5126 70.6912C78.5204 70.8305 78.5243 70.9798 78.5243 71.1391C78.5243 71.3094 78.5165 71.4623 78.5015 71.5982L78.5012 71.5981L78.5008 71.6064C78.494 71.7286 78.4641 71.8214 78.4182 71.892Z" fill="white" stroke="black" stroke-width="0.3"/>
<path d="M4.40625 87.0001V80.2004H5.61876V83.1132H7.11657V80.2004H8.32909V87.0001H7.11657V83.9727H5.61876V87.0001H4.40625Z" fill="white"/>
<path fill-rule="evenodd" clip-rule="evenodd" d="M4.27539 87.1074V80.093H5.74943V83.0058H6.98572V80.093H8.45975V87.1074H6.98572V84.08H5.74943V87.1074H4.27539ZM5.61867 83.9727H7.11648V87.0001H8.32899V80.2004H7.11648V83.1132H5.61867V80.2004H4.40615V87.0001H5.61867V83.9727Z" fill="white"/>
<path d="M10.5085 87.0001V80.2004H13.9955V81.1173H11.6785V83.1132H13.6973V84.03H11.6785V86.026H13.9955V87.0001H10.5085Z" fill="white"/>
<path fill-rule="evenodd" clip-rule="evenodd" d="M10.3777 87.1074V80.093H14.1262V81.2246H11.8092V83.0058H13.8279V84.1373H11.8092V85.9186H14.1262V87.1074H10.3777ZM11.6784 86.026V84.03H13.6972V83.1132H11.6784V81.1172H13.9954V80.2004H10.5084V87.0001H13.9954V86.026H11.6784Z" fill="white"/>
<path d="M16.7372 87.0202V88.0738H15.7388V86.1581H16.3288C16.3968 86.0368 16.4611 85.8995 16.5216 85.7462C16.5821 85.5866 16.6351 85.4206 16.6805 85.2482C16.7259 85.0758 16.7675 84.9002 16.8053 84.7214C16.8431 84.5362 16.8734 84.3574 16.896 84.185C16.9112 84.0509 16.9225 83.9008 16.9301 83.7348C16.9452 83.5688 16.9566 83.3996 16.9641 83.2272C16.9717 83.0484 16.9755 82.8728 16.9755 82.7004C16.983 82.5216 16.9868 82.3524 16.9868 82.1927V80.2004H20.3112V86.1581H20.9692V88.0738H19.9708V87.0202H16.7372ZM18.076 81.0625V82.1831C18.076 82.2725 18.0722 82.4034 18.0647 82.5758C18.0571 82.7419 18.0458 82.9239 18.0306 83.1218C18.0155 83.3198 18.0004 83.5209 17.9853 83.7252C17.9701 83.9232 17.9512 84.0988 17.9285 84.252C17.9134 84.3797 17.8869 84.5266 17.8491 84.6926C17.8188 84.8523 17.781 85.0183 17.7356 85.1907C17.6903 85.3631 17.6411 85.5355 17.5881 85.7079C17.5352 85.874 17.4747 86.024 17.4066 86.1581H19.1539V81.0625H18.076Z" fill="white"/>
<path fill-rule="evenodd" clip-rule="evenodd" d="M16.8681 88.1811H15.6082V86.0507H16.2441C16.2972 85.9496 16.3483 85.8374 16.3972 85.7137C16.4564 85.5574 16.5083 85.3947 16.5528 85.2254C16.5978 85.0546 16.639 84.8805 16.6765 84.7032C16.7139 84.5204 16.7437 84.344 16.7661 84.1742C16.7809 84.0427 16.7921 83.8949 16.7996 83.7307L16.7997 83.7267C16.8147 83.5622 16.8261 83.3944 16.8336 83.2233C16.8411 83.0457 16.8449 82.8714 16.8449 82.7003V82.6966C16.8524 82.5189 16.8562 82.3509 16.8562 82.1927V80.093H20.4421V86.0507H21.1001V88.1811H19.8402V87.1275H16.8681V88.1811ZM19.9709 87.0201V88.0737H20.9694V86.158H20.3113V80.2004H16.987V82.1927C16.987 82.3523 16.9832 82.5215 16.9756 82.7003C16.9756 82.8727 16.9718 83.0483 16.9643 83.2271C16.9567 83.3995 16.9454 83.5687 16.9302 83.7348C16.9227 83.9008 16.9113 84.0508 16.8962 84.1849C16.8735 84.3573 16.8432 84.5361 16.8054 84.7213C16.7676 84.9001 16.726 85.0757 16.6806 85.2481C16.6352 85.4205 16.5823 85.5865 16.5218 85.7462C16.4613 85.8994 16.397 86.0367 16.3289 86.158H15.7389V88.0737H16.7374V87.0201H19.9709ZM18.1955 82.5798C18.1879 82.7469 18.1765 82.9298 18.1613 83.1285C18.1462 83.3263 18.131 83.5274 18.1159 83.7317C18.1007 83.9306 18.0817 84.1082 18.0587 84.2637C18.0431 84.3946 18.0161 84.5437 17.9781 84.7107C17.9475 84.8721 17.9093 85.0396 17.8636 85.2133C17.8179 85.3869 17.7684 85.5605 17.7151 85.7341L17.7148 85.7351C17.6791 85.8468 17.64 85.9521 17.5972 86.0507H19.0233V81.1698H18.2069V82.1831C18.2069 82.2745 18.2031 82.4071 18.1955 82.5798ZM18.0762 81.0624H19.154V86.158H17.4068C17.4244 86.1233 17.4415 86.0875 17.4581 86.0507C17.5057 85.9452 17.5491 85.8309 17.5883 85.7079C17.6412 85.5355 17.6904 85.3631 17.7358 85.1906C17.7812 85.0182 17.819 84.8522 17.8492 84.6926C17.8871 84.5266 17.9135 84.3797 17.9287 84.252C17.9514 84.0987 17.9703 83.9231 17.9854 83.7252C18.0005 83.5208 18.0157 83.3197 18.0308 83.1217C18.0459 82.9238 18.0573 82.7418 18.0648 82.5758C18.0724 82.4034 18.0762 82.2725 18.0762 82.1831V81.0624Z" fill="white"/>
<path d="M23.5845 87.0001V80.2004H25.3557C25.744 80.2004 26.0729 80.2482 26.3423 80.3437C26.6197 80.4392 26.8456 80.5665 27.0199 80.7257C27.1943 80.8849 27.3171 81.0695 27.3884 81.2796C27.4677 81.4833 27.5073 81.6966 27.5073 81.9195V82.1678C27.5073 82.3524 27.4875 82.5084 27.4479 82.6357C27.4162 82.7631 27.3647 82.8745 27.2933 82.97C27.1586 83.1482 26.9526 83.301 26.6752 83.4284C26.9605 83.5366 27.1705 83.6958 27.3052 83.9059C27.4399 84.116 27.5073 84.4025 27.5073 84.7654V85.1474C27.5073 85.7459 27.325 86.2043 26.9605 86.5226C26.6039 86.841 26.0293 87.0001 25.2368 87.0001H23.5845ZM24.797 83.8486V86.026H25.32C25.5657 86.026 25.7559 85.9974 25.8906 85.9401C26.0333 85.8828 26.1403 85.8032 26.2116 85.7013C26.2829 85.5994 26.3265 85.4785 26.3423 85.3384C26.3582 85.1983 26.3661 85.0455 26.3661 84.88C26.3661 84.7081 26.3542 84.5585 26.3305 84.4311C26.3067 84.3038 26.2591 84.1956 26.1878 84.1064C26.1086 84.0173 26.0016 83.9536 25.8669 83.9154C25.7321 83.8709 25.5538 83.8486 25.3319 83.8486H24.797ZM24.797 81.1173V82.9891H25.3438C25.748 82.9891 26.0174 82.9095 26.1521 82.7503C26.2948 82.5848 26.3661 82.346 26.3661 82.0341C26.3661 81.7285 26.2869 81.4993 26.1284 81.3465C25.9778 81.1937 25.7004 81.1173 25.2963 81.1173H24.797Z" fill="white"/>
<path fill-rule="evenodd" clip-rule="evenodd" d="M23.4539 87.1074V80.093H25.3558C25.7562 80.093 26.1036 80.1421 26.3937 80.2448C26.6859 80.3455 26.9283 80.4813 27.1173 80.6538C27.3049 80.8251 27.4372 81.0238 27.5139 81.2488C27.5969 81.4629 27.6382 81.6866 27.6382 81.9194V82.1677C27.6382 82.3568 27.6181 82.5215 27.5755 82.6597C27.5412 82.7963 27.4849 82.919 27.405 83.026L27.4046 83.0265C27.2907 83.1772 27.1326 83.3088 26.9339 83.4224C27.1432 83.5329 27.3066 83.6773 27.4211 83.8558C27.5696 84.0874 27.6382 84.3934 27.6382 84.7653V85.1473C27.6382 85.7627 27.4507 86.2511 27.0564 86.5957C26.6648 86.9449 26.0472 87.1074 25.237 87.1074H23.4539ZM26.9606 86.5226C27.3252 86.2042 27.5075 85.7458 27.5075 85.1473V84.7653C27.5075 84.4024 27.4401 84.1159 27.3054 83.9058C27.1932 83.7309 27.0289 83.5913 26.8125 83.487C26.7689 83.466 26.7232 83.4465 26.6753 83.4283C26.7216 83.4071 26.766 83.3851 26.8083 83.3624C27.0195 83.2493 27.1813 83.1184 27.2935 82.9699C27.3648 82.8744 27.4163 82.763 27.448 82.6357C27.4876 82.5083 27.5075 82.3523 27.5075 82.1677V81.9194C27.5075 81.6966 27.4678 81.4833 27.3886 81.2795C27.3173 81.0694 27.1944 80.8848 27.0201 80.7256C26.8457 80.5665 26.6199 80.4391 26.3425 80.3436C26.073 80.2481 25.7442 80.2004 25.3558 80.2004H23.5846V87.0001H25.237C26.0295 87.0001 26.604 86.8409 26.9606 86.5226ZM25.8333 85.8436C25.9552 85.7946 26.0415 85.729 26.0984 85.6477C26.1587 85.5616 26.1978 85.4561 26.2123 85.3284C26.2277 85.1922 26.2355 85.0427 26.2355 84.8799C26.2355 84.7118 26.2239 84.5679 26.2014 84.4474C26.1801 84.3333 26.1386 84.2411 26.0804 84.1676C26.0181 84.0983 25.9343 84.048 25.8243 84.0169L25.8212 84.016L25.8181 84.015C25.7049 83.9775 25.5451 83.9559 25.3321 83.9559H24.9279V85.9186H25.3202C25.5565 85.9186 25.7226 85.8906 25.8306 85.8447L25.8333 85.8436ZM24.7971 86.026V83.8485H25.3321C25.554 83.8485 25.7323 83.8708 25.867 83.9154C26.0017 83.9536 26.1087 84.0172 26.188 84.1064C26.2593 84.1955 26.3068 84.3037 26.3306 84.4311C26.3544 84.5584 26.3663 84.708 26.3663 84.8799C26.3663 85.0455 26.3583 85.1983 26.3425 85.3383C26.3266 85.4784 26.2831 85.5994 26.2117 85.7012C26.1404 85.8031 26.0334 85.8827 25.8908 85.94C25.756 85.9973 25.5659 86.026 25.3202 86.026H24.7971ZM26.0456 82.6883C26.1662 82.5482 26.2355 82.3349 26.2355 82.034C26.2355 81.7411 26.1591 81.5415 26.029 81.416L26.0268 81.4139C25.9139 81.2994 25.6875 81.2246 25.2964 81.2246H24.9279V82.8817H25.344C25.7355 82.8817 25.9479 82.8036 26.0449 82.689L26.0456 82.6883ZM24.7971 82.989V81.1172H25.2964C25.7006 81.1172 25.9779 81.1936 26.1285 81.3464C26.287 81.4992 26.3663 81.7284 26.3663 82.034C26.3663 82.346 26.2949 82.5847 26.1523 82.7503C26.0176 82.9094 25.7481 82.989 25.344 82.989H24.7971Z" fill="white"/>
<path d="M32.4328 87.0001V82.588H32.4097L30.8636 87.0001H29.6868V80.2004H30.8636V84.6221H30.8867L32.4328 80.2004H33.6096V87.0001H32.4328Z" fill="white"/>
<path fill-rule="evenodd" clip-rule="evenodd" d="M32.3019 87.1074V83.2835L30.962 87.1074H29.5559V80.093H30.9943V83.925L32.3342 80.093H33.7403V87.1074H32.3019ZM30.8866 84.6221H30.8635V80.2004H29.6867V87.0001H30.8635L32.4096 82.5879H32.4327V87.0001H33.6095V80.2004H32.4327L30.8866 84.6221Z" fill="white"/>
<path d="M38.2432 80.2004H39.4368V83.1132H39.7878C39.9282 83.1132 40.0374 83.0973 40.1154 83.0655C40.2012 83.0336 40.2675 82.9891 40.3143 82.9318C40.369 82.8745 40.408 82.8108 40.4314 82.7408C40.4548 82.6644 40.4743 82.5816 40.4899 82.4925L40.6069 81.6807C40.6147 81.6552 40.6225 81.6043 40.6303 81.5279C40.6459 81.4451 40.6693 81.356 40.7005 81.2605C40.7395 81.1586 40.7863 81.0536 40.8409 80.9453C40.8955 80.8307 40.9696 80.7289 41.0632 80.6397C41.227 80.4742 41.4065 80.3596 41.6015 80.2959C41.8043 80.2323 42.0422 80.2004 42.3153 80.2004H42.327V81.1173H42.3036C42.2177 81.1173 42.1358 81.13 42.0578 81.1555C41.9876 81.1746 41.9213 81.2128 41.8589 81.2701C41.7965 81.3274 41.7536 81.3974 41.7302 81.4802C41.7146 81.5629 41.699 81.6552 41.6834 81.7571L41.5781 82.5498C41.5703 82.6325 41.5586 82.7121 41.543 82.7885C41.5274 82.8586 41.5118 82.9286 41.4962 82.9986C41.4806 83.0623 41.4611 83.1132 41.4377 83.1514C41.3441 83.3297 41.227 83.4602 41.0866 83.543L42.1865 87.0001H40.9696L40.0569 83.9727H39.4368V87.0001H38.2432V83.9727H37.6231L36.7104 87.0001H35.4934L36.5934 83.543C36.4529 83.4602 36.3359 83.3297 36.2423 83.1514C36.2189 83.1132 36.1994 83.0623 36.1838 82.9986C36.1682 82.9286 36.1526 82.8586 36.137 82.7885C36.1214 82.7121 36.1097 82.6325 36.1019 82.5498L35.9966 81.7571C35.981 81.6552 35.9615 81.5629 35.9381 81.4802C35.9225 81.3974 35.8835 81.3274 35.8211 81.2701C35.7587 81.2128 35.6885 81.1746 35.6105 81.1555C35.5402 81.13 35.4622 81.1173 35.3764 81.1173H35.353V80.2004H35.3647C35.6378 80.2004 35.8718 80.2323 36.0668 80.2959C36.2696 80.3596 36.4529 80.4742 36.6168 80.6397C36.7104 80.7289 36.7845 80.8307 36.8391 80.9453C36.8937 81.0536 36.9366 81.1586 36.9678 81.2605C37.0068 81.356 37.0302 81.4451 37.038 81.5279C37.0536 81.6043 37.0653 81.6552 37.0731 81.6807L37.1901 82.4925C37.2057 82.5816 37.2252 82.6644 37.2486 82.7408C37.272 82.8108 37.3071 82.8745 37.3539 82.9318C37.4085 82.9891 37.4748 83.0336 37.5529 83.0655C37.6387 83.0973 37.7518 83.1132 37.8922 83.1132H38.2432V80.2004Z" fill="white"/>
<path fill-rule="evenodd" clip-rule="evenodd" d="M38.1126 80.093H39.5677V83.0058H39.7879C39.9191 83.0058 40.0052 82.9906 40.0574 82.9693L40.0617 82.9675C40.128 82.9429 40.1743 82.9106 40.2059 82.8719L40.2086 82.8686L40.2115 82.8656C40.2552 82.8197 40.2862 82.7692 40.3051 82.7134C40.3269 82.6417 40.3454 82.5635 40.3604 82.4785L40.4782 81.6612L40.4802 81.6545C40.485 81.6388 40.4922 81.5966 40.5001 81.5189L40.5005 81.5151L40.5012 81.5114C40.5176 81.4242 40.5421 81.3312 40.5743 81.2326L40.5758 81.2282C40.6159 81.1234 40.664 81.0157 40.7198 80.9052C40.7792 80.7807 40.8603 80.669 40.9631 80.5708C41.1374 80.395 41.3336 80.2678 41.5533 80.1961L41.5549 80.1956C41.7759 80.1262 42.0304 80.093 42.3154 80.093H42.4579V81.2246H42.3037C42.2341 81.2246 42.1686 81.2348 42.1063 81.2552L42.1027 81.2563L42.0991 81.2573C42.0556 81.2691 42.0077 81.2946 41.9565 81.3416L41.8591 81.27C41.9215 81.2127 41.9878 81.1745 42.058 81.1554C42.136 81.1299 42.2179 81.1172 42.3037 81.1172H42.3271V80.2004H42.3154C42.2749 80.2004 42.2353 80.2011 42.1963 80.2025C41.9726 80.2105 41.7744 80.2416 41.6016 80.2959C41.4066 80.3595 41.2272 80.4742 41.0634 80.6397C40.9698 80.7288 40.8957 80.8307 40.8411 80.9453C40.7864 81.0535 40.7396 81.1586 40.7006 81.2604C40.6694 81.3559 40.646 81.4451 40.6304 81.5278C40.6226 81.6042 40.6148 81.6552 40.607 81.6806L40.49 82.4924C40.4744 82.5815 40.4549 82.6643 40.4315 82.7407C40.4081 82.8107 40.3691 82.8744 40.3145 82.9317C40.2677 82.989 40.2014 83.0336 40.1156 83.0654C40.0376 83.0973 39.9284 83.1132 39.7879 83.1132H39.4369V80.2004H38.2434V83.1132H37.8923C37.7519 83.1132 37.6388 83.0973 37.553 83.0654C37.475 83.0336 37.4087 82.989 37.3541 82.9317C37.3073 82.8744 37.2722 82.8107 37.2488 82.7407C37.2254 82.6643 37.2059 82.5815 37.1903 82.4924L37.0733 81.6806C37.0655 81.6552 37.0538 81.6042 37.0382 81.5278C37.0304 81.4451 37.0069 81.3559 36.9679 81.2604C36.9367 81.1586 36.8938 81.0535 36.8392 80.9453C36.7846 80.8307 36.7105 80.7288 36.6169 80.6397C36.4531 80.4742 36.2698 80.3595 36.0669 80.2959C35.9009 80.2417 35.7066 80.2105 35.4839 80.2025C35.4451 80.2011 35.4054 80.2004 35.3649 80.2004H35.3532V81.1172H35.3766C35.4624 81.1172 35.5404 81.1299 35.6106 81.1554C35.6886 81.1745 35.7588 81.2127 35.8212 81.27C35.8836 81.3273 35.9226 81.3973 35.9382 81.4801C35.9616 81.5629 35.9811 81.6552 35.9967 81.7571L36.1021 82.5497C36.1099 82.6325 36.1216 82.7121 36.1372 82.7885L36.184 82.9986C36.1996 83.0622 36.2191 83.1132 36.2425 83.1514C36.3361 83.3296 36.4531 83.4602 36.5935 83.5429L35.4936 87.0001H36.7105L37.6232 83.9727H38.2434V87.0001H39.4369V83.9727H40.0571L40.9698 87.0001H42.1867L41.0868 83.5429C41.2272 83.4602 41.3442 83.3296 41.4378 83.1514C41.4612 83.1132 41.4807 83.0622 41.4963 82.9986L41.5431 82.7885C41.5587 82.7121 41.5704 82.6325 41.5782 82.5497L41.6835 81.7571C41.6991 81.6552 41.7147 81.5629 41.7303 81.4801C41.7537 81.3973 41.7967 81.3273 41.8591 81.27L41.9565 81.3416C41.9111 81.3832 41.8779 81.4353 41.8588 81.5007C41.8437 81.5809 41.8286 81.6706 41.8134 81.7696L41.7084 82.5597C41.7004 82.6448 41.6883 82.727 41.6721 82.8062L41.6718 82.8078L41.6245 83.0197C41.608 83.0871 41.5861 83.1472 41.5564 83.1966C41.4719 83.3569 41.3658 83.4878 41.2347 83.5831L42.356 87.1074H40.8674L39.9547 84.08H39.5677V87.1074H38.1126V84.08H37.7256L36.8129 87.1074H35.3243L36.4456 83.5831C36.3145 83.4878 36.2084 83.3569 36.1238 83.1966C36.0941 83.1472 36.0723 83.0871 36.0558 83.0197L36.0553 83.0179L36.0082 82.8062C35.992 82.727 35.9799 82.6448 35.9718 82.5597L35.8669 81.7696C35.8517 81.671 35.833 81.5827 35.8109 81.5044L35.8098 81.5005L35.809 81.4965C35.7969 81.4324 35.7678 81.382 35.7237 81.3416C35.675 81.2968 35.6248 81.2709 35.5732 81.2583L35.5653 81.2563L35.5578 81.2536C35.5061 81.2348 35.4463 81.2246 35.3766 81.2246H35.2224V80.093H35.3649C35.6494 80.093 35.9004 80.1261 36.1145 80.1959C36.3417 80.2673 36.5422 80.3943 36.7172 80.5708C36.82 80.669 36.9011 80.7807 36.9605 80.9052C37.0164 81.016 37.0608 81.1243 37.0935 81.2303C37.1336 81.3292 37.1589 81.4241 37.168 81.5146C37.1833 81.589 37.1939 81.6343 37.2001 81.6545L37.2021 81.6612L37.3199 82.4785C37.3349 82.5635 37.3533 82.6417 37.3752 82.7134C37.3946 82.771 37.423 82.8225 37.46 82.8686C37.5017 82.9115 37.5511 82.9444 37.609 82.9684C37.6716 82.9912 37.7637 83.0058 37.8923 83.0058H38.1126V80.093Z" fill="white"/>
<path d="M47.2523 87.0001V82.588H47.2293L45.6832 87.0001H44.5063V80.2004H45.6832V84.6221H45.7063L47.2523 80.2004H48.4292V87.0001H47.2523Z" fill="white"/>
<path fill-rule="evenodd" clip-rule="evenodd" d="M47.1215 87.1074V83.2835L45.7815 87.1074H44.3755V80.093H45.8139V83.925L47.1537 80.093H48.5598V87.1074H47.1215ZM45.7062 84.6221H45.6831V80.2004H44.5062V87.0001H45.6831L47.2292 82.5879H47.2522V87.0001H48.4291V80.2004H47.2522L45.7062 84.6221Z" fill="white"/>
<path d="M50.6084 87.0001V80.2004H51.7227L53.2123 83.8008H53.235L54.7132 80.2004H55.8388V87.0001H54.6791V82.8649H54.6563L53.5079 85.7873H52.928L51.7909 82.8649H51.7682V87.0001H50.6084Z" fill="white"/>
<path fill-rule="evenodd" clip-rule="evenodd" d="M50.4778 87.1074V80.093H51.8165L53.2233 83.4934L54.6194 80.093H55.9698V87.1074H54.5484V83.4894L53.6032 85.8946H52.8326L51.8991 83.4953V87.1074H50.4778ZM51.7683 82.8649H51.7911L52.9281 85.7872H53.508L54.6565 82.8649H54.6792V87.0001H55.839V80.2004H54.7133L53.2351 83.8008H53.2124L51.7229 80.2004H50.6085V87.0001H51.7683V82.8649Z" fill="white"/>
<path d="M58.0186 81.8346C58.0186 81.5654 58.0759 81.3275 58.1906 81.1208C58.3053 80.9142 58.4583 80.742 58.6494 80.6043C58.8329 80.4728 59.0394 80.3726 59.2688 80.3037C59.5059 80.2349 59.7429 80.2004 59.98 80.2004C60.217 80.2004 60.4503 80.2349 60.6797 80.3037C60.9167 80.3726 61.1308 80.4728 61.322 80.6043C61.5055 80.742 61.6546 80.9142 61.7693 81.1208C61.884 81.3275 61.9414 81.5654 61.9414 81.8346V85.3659C61.9414 85.6477 61.884 85.8888 61.7693 86.0891C61.6546 86.2895 61.5055 86.4554 61.322 86.5869C61.1308 86.7246 60.9167 86.8279 60.6797 86.8968C60.4503 86.9657 60.217 87.0001 59.98 87.0001C59.7429 87.0001 59.5059 86.9657 59.2688 86.8968C59.0394 86.8279 58.8329 86.7246 58.6494 86.5869C58.4583 86.4554 58.3053 86.2895 58.1906 86.0891C58.0759 85.8888 58.0186 85.6477 58.0186 85.3659V81.8346ZM59.1885 85.3659C59.1885 85.5976 59.265 85.7698 59.4179 85.8825C59.5785 85.9889 59.7659 86.0422 59.98 86.0422C60.1941 86.0422 60.3776 85.9889 60.5305 85.8825C60.6911 85.7698 60.7714 85.5976 60.7714 85.3659V81.8346C60.7714 81.603 60.6911 81.4339 60.5305 81.3275C60.3776 81.2148 60.1941 81.1584 59.98 81.1584C59.7659 81.1584 59.5785 81.2148 59.4179 81.3275C59.265 81.4339 59.1885 81.603 59.1885 81.8346V85.3659Z" fill="white"/>
<path fill-rule="evenodd" clip-rule="evenodd" d="M58.5634 80.5233C58.759 80.3832 58.9794 80.2762 59.2238 80.2029L59.2251 80.2025C59.4753 80.1298 59.7271 80.093 59.9799 80.093C60.2325 80.093 60.4807 80.1297 60.7238 80.2027C60.9752 80.2758 61.2028 80.3823 61.4059 80.5219L61.4102 80.5249C61.6081 80.6735 61.767 80.858 61.8882 81.0763C62.012 81.2992 62.0721 81.5528 62.0721 81.8346V85.3659C62.0721 85.6593 62.0124 85.9167 61.8876 86.1347C61.766 86.347 61.6065 86.5254 61.408 86.6676C61.2047 86.8141 60.9764 86.9243 60.7238 86.9978L60.7245 86.9976L60.6796 86.8968L60.7232 86.998L60.7238 86.9978C60.4807 87.0707 60.2325 87.1074 59.9799 87.1074C59.7271 87.1074 59.4753 87.0707 59.2251 86.998L59.2238 86.9976C58.979 86.9241 58.7585 86.8139 58.5632 86.6676C58.5639 86.6681 58.5646 86.6686 58.5654 86.6691L58.6493 86.5868L58.5611 86.6661C58.5618 86.6666 58.5625 86.6671 58.5632 86.6676C58.3573 86.5256 58.1939 86.3473 58.0722 86.1347C57.9474 85.9167 57.8877 85.6593 57.8877 85.3659V81.8346C57.8877 81.5528 57.9478 81.2992 58.0715 81.0763C58.1932 80.857 58.3571 80.6719 58.5634 80.5233ZM60.6796 80.3037C60.9166 80.3726 61.1307 80.4727 61.3219 80.6042L60.6796 80.3037ZM59.4178 85.8824C59.2649 85.7697 59.1884 85.5976 59.1884 85.3659V81.8346C59.1884 81.6029 59.2649 81.4338 59.4178 81.3274C59.5784 81.2147 59.7658 81.1583 59.9799 81.1583C60.194 81.1583 60.3775 81.2147 60.5305 81.3274C60.691 81.4338 60.7713 81.6029 60.7713 81.8346V85.3659C60.7713 85.5976 60.691 85.7697 60.5305 85.8824C60.3775 85.9889 60.194 86.0421 59.9799 86.0421C59.7658 86.0421 59.5784 85.9889 59.4178 85.8824Z" fill="white"/>
<path d="M68.0434 85.0372V85.4505C68.0434 85.6571 67.9976 85.8543 67.906 86.0422C67.8215 86.2237 67.7017 86.3865 67.5467 86.5305C67.3918 86.6745 67.2086 86.7904 66.9973 86.878C66.793 86.9594 66.5711 87.0001 66.3316 87.0001C66.1273 87.0001 65.9195 86.9751 65.7082 86.925C65.4968 86.8749 65.3066 86.7872 65.1376 86.662C64.9685 86.5368 64.8276 86.3771 64.7149 86.183C64.6092 85.9827 64.5564 85.7291 64.5564 85.4223V81.7407C64.5564 81.5216 64.5987 81.3181 64.6832 81.1302C64.7677 80.9424 64.8875 80.7796 65.0425 80.6419C65.1974 80.5041 65.3806 80.3977 65.5919 80.3225C65.8103 80.2411 66.0498 80.2004 66.3104 80.2004C66.8176 80.2004 67.2297 80.3476 67.5467 80.6419C67.7017 80.7859 67.8215 80.958 67.906 81.1584C67.9976 81.3525 68.0434 81.5654 68.0434 81.7971V82.1727H66.9656V81.8534C66.9656 81.6656 66.9057 81.5028 66.7859 81.365C66.6662 81.2273 66.5042 81.1584 66.2999 81.1584C66.0322 81.1584 65.8526 81.2335 65.761 81.3838C65.6765 81.5278 65.6342 81.7125 65.6342 81.9379V85.3566C65.6342 85.5507 65.68 85.7134 65.7716 85.8449C65.8702 85.9764 66.0428 86.0422 66.2893 86.0422C66.3598 86.0422 66.4337 86.0328 66.5112 86.014C66.5957 85.9889 66.6732 85.9514 66.7437 85.9013C66.8071 85.8512 66.8599 85.7823 66.9022 85.6947C66.9444 85.607 66.9656 85.4974 66.9656 85.3659V85.0372H68.0434Z" fill="white"/>
<path fill-rule="evenodd" clip-rule="evenodd" d="M68.1743 84.9298V85.4504C68.1743 85.6701 68.1256 85.8807 68.0279 86.0812C67.9379 86.2744 67.8101 86.448 67.6449 86.6016C67.4788 86.7559 67.2823 86.8801 67.0564 86.9738L67.0545 86.9746C66.8315 87.0634 66.5899 87.1074 66.3317 87.1074C66.1143 87.1074 65.8943 87.0808 65.672 87.0281C65.441 86.9733 65.2334 86.8774 65.0501 86.7417C64.8666 86.6057 64.716 86.4341 64.597 86.2292L64.595 86.2257C64.4799 86.0076 64.4258 85.7382 64.4258 85.4222V81.7406C64.4258 81.51 64.4703 81.2938 64.5607 81.093C64.6508 80.8928 64.7792 80.7177 64.9466 80.5689C65.1137 80.4203 65.3116 80.3053 65.5391 80.2243C65.7756 80.1363 66.0334 80.093 66.3106 80.093C66.8527 80.093 67.3014 80.2518 67.6448 80.5707C67.8117 80.7258 67.9394 80.9099 68.0289 81.1214C68.1264 81.3287 68.1743 81.5543 68.1743 81.797V82.28H66.835V81.8533C66.835 81.6853 66.7819 81.5449 66.6797 81.4273C66.5842 81.3175 66.4616 81.2657 66.3 81.2657C66.0644 81.2657 65.941 81.3291 65.8785 81.4311C65.8055 81.5558 65.7651 81.7228 65.7651 81.9379V85.3565C65.7651 85.5362 65.8073 85.6789 65.8841 85.79C65.9518 85.8792 66.0735 85.9347 66.2895 85.9347C66.3446 85.9347 66.4048 85.9275 66.4706 85.9119C66.537 85.8918 66.5985 85.8621 66.6555 85.822C66.7011 85.7853 66.744 85.7313 66.7807 85.6551C66.8151 85.5839 66.835 85.4888 66.835 85.3659V84.9298H68.1743ZM66.7438 85.9012C66.6734 85.9513 66.5959 85.9889 66.5114 86.0139C66.4339 86.0327 66.3599 86.0421 66.2895 86.0421C66.0429 86.0421 65.8703 85.9764 65.7717 85.8449C65.6801 85.7134 65.6343 85.5506 65.6343 85.3565V81.9379C65.6343 81.7125 65.6766 81.5278 65.7611 81.3838C65.8527 81.2335 66.0323 81.1583 66.3 81.1583C66.5043 81.1583 66.6663 81.2272 66.7861 81.365C66.9058 81.5027 66.9657 81.6655 66.9657 81.8533V82.1727H68.0435V81.797C68.0435 81.5653 67.9977 81.3524 67.9061 81.1583C67.8216 80.958 67.7019 80.7858 67.5469 80.6418C67.2299 80.3475 66.8178 80.2004 66.3106 80.2004C66.05 80.2004 65.8104 80.2411 65.5921 80.3225C65.3807 80.3976 65.1976 80.5041 65.0426 80.6418C64.8876 80.7795 64.7679 80.9423 64.6833 81.1302C64.5988 81.318 64.5565 81.5215 64.5565 81.7406V85.4222C64.5565 85.729 64.6094 85.9826 64.715 86.183C64.8278 86.3771 64.9686 86.5367 65.1377 86.662C65.3068 86.7872 65.497 86.8748 65.7083 86.9249C65.9196 86.975 66.1274 87.0001 66.3317 87.0001C66.5712 87.0001 66.7931 86.9594 66.9974 86.878C67.2088 86.7903 67.3919 86.6745 67.5469 86.5305C67.7019 86.3865 67.8216 86.2237 67.9061 86.0421C67.9977 85.8543 68.0435 85.657 68.0435 85.4504V85.0372H66.9657V85.3659C66.9657 85.4974 66.9446 85.6069 66.9023 85.6946C66.8601 85.7823 66.8072 85.8511 66.7438 85.9012Z" fill="white"/>
<path d="M71.1564 87.0001V81.1173H69.7869V80.2004H73.7097V81.1173H72.3402V87.0001H71.1564Z" fill="white"/>
<path fill-rule="evenodd" clip-rule="evenodd" d="M71.0258 87.1074V81.2246H69.6562V80.093H73.8406V81.2246H72.4711V87.1074H71.0258ZM72.3403 81.1172H73.7098V80.2004H69.787V81.1172H71.1565V87.0001H72.3403V81.1172Z" fill="white"/>
<path d="M78.6351 87.0001V82.588H78.6121L77.066 87.0001H75.8892V80.2004H77.066V84.6221H77.0891L78.6351 80.2004H79.812V87.0001H78.6351Z" fill="white"/>
<path fill-rule="evenodd" clip-rule="evenodd" d="M78.5043 87.1074V83.2835L77.1644 87.1074H75.7583V80.093H77.1967V83.925L78.5365 80.093H79.9427V87.1074H78.5043ZM77.089 84.6221H77.0659V80.2004H75.8891V87.0001H77.0659L78.612 82.5879H78.635V87.0001H79.8119V80.2004H78.635L77.089 84.6221Z" fill="white"/>
</svg>
