<svg width="54" height="44" fill="none" xmlns="http://www.w3.org/2000/svg"><path d="M5.39 7.36h3.08v7.028h3.305V7.36h3.08v17.26h-3.08v-7.766H8.47v7.767H5.39V7.36zm21.853 17.537c-1.584 0-2.792-.37-3.624-1.111-.832-.758-1.248-1.837-1.248-3.236V7.358h3.268v13.39c0 .592.139 1.02.416 1.284.297.263.713.395 1.247.395.535 0 .941-.132 1.218-.395.297-.264.446-.692.446-1.285V7.358h3.149V20.55c0 1.4-.416 2.478-1.248 3.236-.832.74-2.04 1.111-3.624 1.111zM39.632 7.358h4.621c1.578 0 2.728.33 3.452.987.724.64 1.086 1.635 1.086 2.983v.69c0 .888-.167 1.612-.501 2.17-.316.56-.807.962-1.476 1.209v.05c1.522.46 2.283 1.66 2.283 3.6v1.479c0 1.331-.399 2.35-1.197 3.057-.78.69-1.93 1.036-3.452 1.036h-4.816V7.359zm4.26 7.028c.612 0 1.066-.14 1.363-.42.316-.279.474-.747.474-1.405V11.6c0-.625-.13-1.077-.39-1.357-.241-.28-.631-.419-1.17-.419h-1.475v4.562h1.197zm.556 7.767c.538 0 .937-.123 1.197-.37.26-.263.39-.707.39-1.331v-1.504c0-.79-.158-1.332-.473-1.628-.297-.312-.798-.468-1.504-.468h-1.364v5.301h1.754zm-14.961 4.971h2.751l2.105 10.857h-2.031l-.37-2.156v.031h-2.307l-.37 2.125h-1.882l2.104-10.857zm2.216 7.259l-.905-5.367h-.037l-.886 5.367h1.828zM15.515 38.26c-.95 0-1.67-.238-2.156-.713-.488-.487-.731-1.179-.731-2.077v-.634h1.854v.76c0 .72.338 1.079 1.016 1.079.332 0 .582-.085.748-.254.178-.18.268-.465.268-.856 0-.465-.12-.872-.357-1.22-.238-.36-.677-.788-1.319-1.285-.808-.634-1.372-1.205-1.693-1.712a3.244 3.244 0 01-.481-1.744c0-.877.25-1.553.748-2.03.5-.485 1.224-.728 2.175-.728.939 0 1.646.243 2.12.729.488.476.732 1.163.732 2.06v.46h-1.854v-.57c0-.38-.083-.655-.25-.824-.166-.18-.41-.27-.73-.27-.654 0-.98.354-.98 1.062 0 .402.118.777.356 1.126.25.349.695.771 1.336 1.268.82.634 1.385 1.21 1.694 1.728.309.518.463 1.125.463 1.823 0 .909-.255 1.606-.766 2.093-.5.486-1.23.729-2.193.729zM5.11 27.124h5.29v1.551H7.05v2.87h2.662v1.55H7.05v3.335h3.35v1.551H5.11V27.124zm31.955 1.551H34.9v-1.551h6.404v1.551h-2.166v9.306h-2.072v-9.306zm-14.661 0h-2.26v-1.551h6.681v1.551h-2.26v9.306h-2.162v-9.306zm21.126-1.551h5.567v1.551h-3.526v2.87h2.802v1.55h-2.802v3.335h3.526v1.551H43.53V27.124z" fill="#fff"/><path fill-rule="evenodd" clip-rule="evenodd" d="M.378 42.018v-.835h53.591v.835H.378zm0 1.392v-.835h53.591v.835H.378zM27.104 2.207l26.895 1.951-.06.833-26.835-1.947L.408 4.991l-.06-.833 26.756-1.951z" fill="#D37700"/><path fill-rule="evenodd" clip-rule="evenodd" d="M27.104.814l26.895 1.951-.06.833-26.835-1.946L.408 3.598l-.06-.833L27.104.815z" fill="#D37700"/></svg>