<svg width="15" height="15" fill="none" xmlns="http://www.w3.org/2000/svg"><path d="M6.579 12.866C2.961 12.866 0 9.956 0 6.401 0 2.909 2.96 0 6.579 0c3.618 0 6.579 2.91 6.579 6.466-.066 3.556-2.96 6.4-6.579 6.4zm0-11.573c-2.895 0-5.263 2.328-5.263 5.173 0 2.844 2.368 5.172 5.263 5.172s5.263-2.328 5.263-5.172C11.776 3.62 9.474 1.293 6.58 1.293z" fill="#F2EEE8"/><path d="M2.894 6.465h-.658c0-2.327 1.974-4.267 4.342-4.267v.647c-2.039 0-3.684 1.616-3.684 3.62zM14.342 15a.602.602 0 01-.46-.194l-3.685-3.62a.618.618 0 010-.906.644.644 0 01.921 0l3.685 3.62a.618.618 0 010 .906c-.066.13-.264.194-.46.194z" fill="#F2EEE8"/></svg>