<svg width="23" height="24" viewBox="0 0 23 24" fill="none" xmlns="http://www.w3.org/2000/svg">
<path d="M10 19.9C4.5 19.9 0 15.4 0 9.9C0 4.5 4.5 0 10 0C15.5 0 20 4.5 20 10C19.9 15.5 15.5 19.9 10 19.9ZM10 2C5.6 2 2 5.6 2 10C2 14.4 5.6 18 10 18C14.4 18 18 14.4 18 10C17.9 5.6 14.4 2 10 2Z" fill="#8A8A8A"/>
<path d="M4.40039 9.99999H3.40039C3.40039 6.39999 6.40039 3.39999 10.0004 3.39999V4.39999C6.90039 4.39999 4.40039 6.89999 4.40039 9.99999Z" fill="#8A8A8A"/>
<path d="M21.7992 23.2C21.4992 23.2 21.2992 23.1 21.0992 22.9L15.4992 17.3C15.0992 16.9 15.0992 16.3 15.4992 15.9C15.8992 15.5 16.4992 15.5 16.8992 15.9L22.4992 21.5C22.8992 21.9 22.8992 22.5 22.4992 22.9C22.3992 23.1 22.0992 23.2 21.7992 23.2Z" fill="#8A8A8A"/>
</svg>
