<svg width="1045" height="225" fill="none" xmlns="http://www.w3.org/2000/svg"><path d="M93.174 62.456c-2.443 0-4.45.349-6.02 1.046-1.57.522-3.053 1.568-4.449 3.136s-2.355 3.484-2.879 5.749c-.523 2.265-.96 4.79-1.308 7.578l-2.356 21.69a61.502 61.502 0 01-.785 6.272 316.185 316.185 0 00-1.047 5.488c-.35 1.742-.873 3.31-1.57 4.703-1.047 2.439-2.356 4.617-3.926 6.534-1.396 1.742-2.792 3.135-4.188 4.181l27.743 94.599h-27.22l-23.555-82.84H26.696v82.84H0V37.369h26.696v79.704h8.899c3.14 0 5.67-.435 7.59-1.306 1.919-.872 3.49-2.091 4.71-3.659a14.748 14.748 0 002.618-5.226c.523-2.091.96-4.356 1.309-6.795l2.617-22.212c.174-.697.349-2.091.523-4.182.35-2.264.873-4.79 1.57-7.578.699-2.787 1.658-5.662 2.88-8.624a39.558 39.558 0 014.71-8.362c3.316-4.181 7.329-7.143 12.04-8.885 4.885-1.916 10.556-2.875 17.012-2.875v25.087zm69.112 95.906L149.2 90.941h-.524l-13.086 67.421h26.696zm-65.955 65.07l41.614-186.063h22.247l41.614 186.063H175.11l-7.851-39.983h-36.38l-7.852 39.983H96.331zm118.621 0V37.369h40.044c7.328 0 13.784.959 19.367 2.875 5.584 1.916 10.644 5.313 15.18 10.191 4.537 4.879 7.678 10.628 9.422 17.248 1.745 6.446 2.618 15.244 2.618 26.394 0 8.362-.524 15.418-1.571 21.167-.872 5.749-2.879 11.15-6.019 16.202-3.664 6.098-8.55 10.888-14.657 14.373-6.107 3.31-14.133 4.965-24.079 4.965h-13.609v72.648h-26.696zm26.696-160.976v63.241h12.824c5.409 0 9.597-.784 12.563-2.352 2.966-1.568 5.147-3.746 6.543-6.533 1.396-2.613 2.181-5.836 2.356-9.669.349-3.833.523-8.101.523-12.805 0-4.355-.087-8.45-.262-12.282-.174-4.007-.959-7.492-2.355-10.453-1.396-2.962-3.49-5.227-6.281-6.795-2.792-1.568-6.805-2.352-12.04-2.352h-13.871zm97.421 160.976V62.456h-30.884V37.37h88.463v25.087h-30.883v160.976h-26.696zm111.523-65.07l-13.086-67.421h-.524l-13.086 67.421h26.696zm-65.955 65.07l41.615-186.063h22.246l41.615 186.063h-26.696l-7.852-39.983h-36.38l-7.852 39.983h-26.696zm251.982-53.049v11.499c0 5.749-1.134 11.236-3.402 16.463-2.094 5.052-5.06 9.582-8.899 13.589-3.839 4.007-8.375 7.23-13.61 9.669-5.06 2.265-10.556 3.397-16.488 3.397-5.06 0-10.208-.697-15.442-2.091-5.235-1.393-9.946-3.832-14.133-7.317-4.188-3.484-7.677-7.927-10.469-13.327-2.617-5.575-3.926-12.631-3.926-21.167V78.658c0-6.097 1.047-11.76 3.141-16.986 2.093-5.226 5.06-9.756 8.898-13.588 3.839-3.833 8.376-6.795 13.61-8.885 5.409-2.265 11.341-3.398 17.797-3.398 12.563 0 22.77 4.094 30.622 12.283 3.839 4.007 6.805 8.797 8.899 14.372 2.268 5.401 3.402 11.325 3.402 17.77V90.68h-26.696v-8.885c0-5.226-1.483-9.756-4.449-13.588-2.966-3.833-6.979-5.75-12.039-5.75-6.631 0-11.08 2.091-13.348 6.272-2.094 4.007-3.141 9.147-3.141 15.418v95.122c0 5.401 1.134 9.931 3.402 13.589 2.443 3.659 6.718 5.488 12.825 5.488 1.745 0 3.577-.261 5.496-.784a18.54 18.54 0 005.758-3.136c1.57-1.394 2.879-3.31 3.926-5.749 1.047-2.439 1.57-5.488 1.57-9.146v-9.147h26.696zm73.142-12.021l-13.086-67.421h-.524l-13.086 67.421h26.696zm-65.955 65.07l41.615-186.063h22.246l41.615 186.063h-26.696l-7.852-39.983h-36.38l-7.852 39.983h-26.696zm180.912 0V102.7h-.524l-35.071 120.732h-26.696V37.369h26.696v120.993h.523l35.072-120.993h26.696v186.063h-26.696zM792.787 0c.175 1.045.349 2.352.524 3.92.174 1.394.697 2.874 1.57 4.442 1.047 1.394 2.443 2.614 4.188 3.659 1.919 1.045 4.536 1.568 7.851 1.568 3.315 0 5.845-.523 7.59-1.568 1.92-1.045 3.316-2.265 4.188-3.659 1.047-1.568 1.658-3.048 1.832-4.442.175-1.568.349-2.875.523-3.92H843.3c-1.221 10.453-4.711 18.119-10.469 22.997-5.583 4.878-14.22 7.317-25.911 7.317-11.69 0-20.414-2.44-26.172-7.317-5.584-4.878-8.986-12.544-10.207-22.997h22.246zm101.169 223.432V62.456h-30.883V37.37h88.463v25.087h-30.884v160.976h-26.696zm111.524-65.07l-13.087-67.421h-.523l-13.086 67.421h26.696zm-65.955 65.07l41.614-186.063h22.251L1045 223.432h-26.7l-7.85-39.983h-36.377l-7.852 39.983h-26.696z" fill="#000" fill-opacity=".15"/></svg>