<svg width="1045" height="225" viewBox="0 0 1045 225" fill="none" xmlns="http://www.w3.org/2000/svg">
<path d="M93.1741 62.4564C90.7313 62.4564 88.7247 62.8049 87.1544 63.5017C85.584 64.0244 84.1009 65.0697 82.7051 66.6376C81.3092 68.2056 80.3495 70.1219 79.8261 72.3868C79.3026 74.6516 78.8664 77.1777 78.5175 79.9651L76.1619 101.655C75.9875 103.92 75.7257 106.01 75.3768 107.927C75.0278 109.669 74.6788 111.498 74.3299 113.415C73.9809 115.157 73.4575 116.725 72.7595 118.118C71.7126 120.557 70.404 122.735 68.8336 124.652C67.4378 126.394 66.0419 127.787 64.646 128.833L92.3889 223.432H65.1695L41.6143 140.592H26.6959V223.432H0V37.3693H26.6959V117.073H35.5946C38.7353 117.073 41.2653 116.638 43.1846 115.767C45.1039 114.895 46.6743 113.676 47.8957 112.108C49.117 110.54 49.9895 108.798 50.5129 106.882C51.0364 104.791 51.4726 102.526 51.8215 100.087L54.4388 77.8746C54.6133 77.1777 54.7878 75.784 54.9622 73.6934C55.3112 71.4286 55.8346 68.9024 56.5326 66.115C57.2305 63.3275 58.1902 60.4529 59.4116 57.4913C60.6329 54.5296 62.2033 51.7422 64.1226 49.1289C67.4378 44.9477 71.4509 41.9861 76.1619 40.2439C81.0475 38.3275 86.7182 37.3693 93.1741 37.3693V62.4564Z" fill="black" fill-opacity="0.15"/>
<path d="M162.286 158.362L149.2 90.9408H148.676L135.59 158.362H162.286ZM96.3311 223.432L137.945 37.3693H160.192L201.806 223.432H175.11L167.259 183.449H130.879L123.027 223.432H96.3311Z" fill="black" fill-opacity="0.15"/>
<path d="M214.952 223.432V37.3693H254.996C262.324 37.3693 268.78 38.3275 274.363 40.2439C279.947 42.1603 285.007 45.5575 289.543 50.4355C294.08 55.3136 297.221 61.0627 298.965 67.6829C300.71 74.1289 301.583 82.9268 301.583 94.0766C301.583 102.439 301.059 109.495 300.012 115.244C299.14 120.993 297.133 126.394 293.993 131.446C290.329 137.544 285.443 142.334 279.336 145.819C273.229 149.129 265.203 150.784 255.257 150.784H241.648V223.432H214.952ZM241.648 62.4564V125.697H254.472C259.881 125.697 264.069 124.913 267.035 123.345C270.001 121.777 272.182 119.599 273.578 116.812C274.974 114.199 275.759 110.976 275.934 107.143C276.283 103.31 276.457 99.0418 276.457 94.338C276.457 89.9826 276.37 85.8885 276.195 82.0557C276.021 78.0488 275.236 74.5645 273.84 71.6028C272.444 68.6411 270.35 66.3763 267.559 64.8083C264.767 63.2404 260.754 62.4564 255.519 62.4564H241.648Z" fill="black" fill-opacity="0.15"/>
<path d="M339.069 223.432V62.4564H308.185V37.3693H396.648V62.4564H365.765V223.432H339.069Z" fill="black" fill-opacity="0.15"/>
<path d="M450.592 158.362L437.506 90.9408H436.982L423.896 158.362H450.592ZM384.637 223.432L426.252 37.3693H448.498L490.113 223.432H463.417L455.565 183.449H419.185L411.333 223.432H384.637Z" fill="black" fill-opacity="0.15"/>
<path d="M636.619 170.383V181.882C636.619 187.631 635.485 193.118 633.217 198.345C631.123 203.397 628.157 207.927 624.318 211.934C620.479 215.941 615.943 219.164 610.708 221.603C605.648 223.868 600.152 225 594.22 225C589.16 225 584.012 224.303 578.778 222.909C573.543 221.516 568.832 219.077 564.645 215.592C560.457 212.108 556.968 207.665 554.176 202.265C551.559 196.69 550.25 189.634 550.25 181.098V78.6585C550.25 72.561 551.297 66.8989 553.391 61.6725C555.484 56.446 558.451 51.9164 562.289 48.0836C566.128 44.2509 570.665 41.2892 575.899 39.1986C581.308 36.9338 587.24 35.8014 593.696 35.8014C606.259 35.8014 616.466 39.8955 624.318 48.0836C628.157 52.0906 631.123 56.8815 633.217 62.4564C635.485 67.8571 636.619 73.7805 636.619 80.2265V90.6794H609.923V81.7944C609.923 76.5679 608.44 72.0383 605.474 68.2056C602.508 64.3728 598.495 62.4564 593.435 62.4564C586.804 62.4564 582.355 64.547 580.087 68.7282C577.993 72.7352 576.946 77.8746 576.946 84.1463V179.268C576.946 184.669 578.08 189.199 580.348 192.857C582.791 196.516 587.066 198.345 593.173 198.345C594.918 198.345 596.75 198.084 598.669 197.561C600.763 196.864 602.682 195.819 604.427 194.425C605.997 193.031 607.306 191.115 608.353 188.676C609.4 186.237 609.923 183.188 609.923 179.53V170.383H636.619Z" fill="black" fill-opacity="0.15"/>
<path d="M709.761 158.362L696.675 90.9408H696.151L683.065 158.362H709.761ZM643.806 223.432L685.421 37.3693H707.667L749.282 223.432H722.586L714.734 183.449H678.354L670.502 223.432H643.806Z" fill="black" fill-opacity="0.15"/>
<path d="M824.718 223.432V102.7H824.194L789.123 223.432H762.427V37.3693H789.123V158.362H789.646L824.718 37.3693H851.414V223.432H824.718ZM792.787 0C792.962 1.04529 793.136 2.35191 793.311 3.91986C793.485 5.31359 794.008 6.79443 794.881 8.36237C795.928 9.75609 797.324 10.9756 799.069 12.0209C800.988 13.0662 803.605 13.5888 806.92 13.5888C810.235 13.5888 812.765 13.0662 814.51 12.0209C816.43 10.9756 817.826 9.75609 818.698 8.36237C819.745 6.79443 820.356 5.31359 820.53 3.91986C820.705 2.35191 820.879 1.04529 821.053 0H843.3C842.079 10.453 838.589 18.1185 832.831 22.9965C827.248 27.8746 818.611 30.3136 806.92 30.3136C795.23 30.3136 786.506 27.8746 780.748 22.9965C775.164 18.1185 771.762 10.453 770.541 0H792.787Z" fill="black" fill-opacity="0.15"/>
<path d="M893.956 223.432V62.4564H863.073V37.3693H951.536V62.4564H920.652V223.432H893.956Z" fill="black" fill-opacity="0.15"/>
<path d="M1005.48 158.362L992.393 90.9408H991.87L978.784 158.362H1005.48ZM939.525 223.432L981.139 37.3693H1003.39L1045 223.432H1018.3L1010.45 183.449H974.073L966.221 223.432H939.525Z" fill="black" fill-opacity="0.15"/>
</svg>
