<svg width="31" height="31" viewBox="0 0 31 31" fill="none" xmlns="http://www.w3.org/2000/svg">
<path d="M17.7521 14.5726H29.6752C30.4701 14.5726 31 14.0427 31 13.2479V1.32479C31 0.529914 30.4701 0 29.6752 0H17.7521C16.9573 0 16.4274 0.529914 16.4274 1.32479V13.2479C16.4274 14.0427 16.9573 14.5726 17.7521 14.5726ZM28.3504 11.9231H19.0769V2.64957H28.3504V11.9231Z" fill="white"/>
<path d="M1.32489 14.5726H13.248C14.0428 14.5726 14.5728 14.0427 14.5728 13.2479V1.32479C14.5728 0.529914 14.0428 0 13.248 0H1.32489C0.530019 0 0.000104904 0.529914 0.000104904 1.32479V13.2479C0.000104904 14.0427 0.530019 14.5726 1.32489 14.5726ZM11.9232 11.9231H2.64968V2.64957H11.9232V11.9231Z" fill="white"/>
<path d="M17.7521 31H29.6752C30.4701 31 31 30.4701 31 29.6752V17.7522C31 16.9573 30.4701 16.4274 29.6752 16.4274H17.7521C16.9573 16.4274 16.4274 16.9573 16.4274 17.7522V29.6752C16.4274 30.4701 16.9573 31 17.7521 31ZM28.3504 28.3504H19.0769V19.0769H28.3504V28.3504Z" fill="#D37700"/>
<path d="M1.32489 31H13.248C14.0428 31 14.5728 30.4701 14.5728 29.6752V17.7522C14.5728 16.9573 14.0428 16.4274 13.248 16.4274H1.32489C0.530019 16.4274 0.000104904 16.9573 0.000104904 17.7522V29.6752C0.000104904 30.4701 0.530019 31 1.32489 31ZM11.9232 28.3504H2.64968V19.0769H11.9232V28.3504Z" fill="white"/>
</svg>
