<svg width="31" height="31" viewBox="0 0 31 31" fill="none" xmlns="http://www.w3.org/2000/svg">
<path d="M17.7521 14.5726H29.6752C30.4701 14.5726 31 14.0427 31 13.2479V1.32479C31 0.529914 30.4701 0 29.6752 0H17.7521C16.9573 0 16.4274 0.529914 16.4274 1.32479V13.2479C16.4274 14.0427 16.9573 14.5726 17.7521 14.5726ZM28.3504 11.9231H19.0769V2.64957H28.3504V11.9231Z" fill="white"/>
<path d="M1.32489 30.9999H13.248C14.0428 30.9999 14.5728 30.47 14.5728 29.6751V17.752C14.5728 16.9572 14.0428 16.4272 13.248 16.4272H1.32489C0.530019 16.4272 0.000104904 16.9572 0.000104904 17.752V29.6751C0.000104904 30.47 0.530019 30.9999 1.32489 30.9999ZM11.9232 28.3503H2.64968V19.0768H11.9232V28.3503Z" fill="white"/>
</svg>
