<svg width="31" height="31" fill="none" xmlns="http://www.w3.org/2000/svg"><path d="M17.752 14.573h11.923c.795 0 1.325-.53 1.325-1.325V1.325C31 .53 30.47 0 29.675 0H17.752c-.795 0-1.325.53-1.325 1.325v11.923c0 .795.53 1.325 1.325 1.325zm10.598-2.65h-9.273V2.65h9.273v9.273zm-27.025 2.65h11.923c.795 0 1.325-.53 1.325-1.325V1.325C14.573.53 14.043 0 13.248 0H1.325C.53 0 0 .53 0 1.325v11.923c0 .795.53 1.325 1.325 1.325zm10.598-2.65H2.65V2.65h9.273v9.273z" fill="#fff"/><path d="M17.752 31h11.923C30.47 31 31 30.47 31 29.675V17.752c0-.795-.53-1.325-1.325-1.325H17.752c-.795 0-1.325.53-1.325 1.325v11.923c0 .795.53 1.325 1.325 1.325zm10.598-2.65h-9.273v-9.273h9.273v9.273z" fill="#D37700"/><path d="M1.325 31h11.923c.795 0 1.325-.53 1.325-1.325V17.752c0-.795-.53-1.325-1.325-1.325H1.325c-.795 0-1.325.53-1.325 1.325v11.923C0 30.47.53 31 1.325 31zm10.598-2.65H2.65v-9.273h9.273v9.273z" fill="#fff"/></svg>