<svg width="35" height="36" viewBox="0 0 35 36" fill="none" xmlns="http://www.w3.org/2000/svg">
<path d="M1.43443 -0.000278473C1.14754 -0.000278473 0.860656 0.137653 0.573771 0.275585C0.286885 0.551449 0 0.96524 0 1.37903V28.8273C0 29.379 0.430328 29.9308 0.860656 30.0687L16.9262 35.8618C17.5 35.9997 17.9303 35.9997 18.3607 35.7239C18.6475 35.448 18.9344 35.0342 18.9344 34.6204V7.31007C18.9344 6.75834 18.5041 6.20662 18.0738 6.06869L2.0082 0.137653C1.72131 0.137653 1.57787 -0.000278473 1.43443 -0.000278473ZM2.86885 27.8618V3.448L16.0656 8.27559V32.6894L2.86885 27.8618Z" fill="#D37700"/>
<path d="M4.73365 22.2069C4.44677 22.2069 4.15988 22.3448 4.01644 22.6207C3.87299 23.0344 4.01644 23.3103 4.44677 23.4482L14.0574 26.8965C14.4877 27.0344 14.7746 26.8965 14.9181 26.4827C15.0615 26.0689 14.9181 25.7931 14.4877 25.6551L5.02054 22.2069C4.87709 22.2069 4.87709 22.2069 4.73365 22.2069Z" fill="#D37700"/>
<path d="M4.73365 13.2413C4.44677 13.2413 4.15988 13.3792 4.01644 13.6551C3.87299 14.0689 4.01644 14.3447 4.44677 14.4827L14.0574 18.0689C14.4877 18.2068 14.7746 18.0689 14.9181 17.6551C15.0615 17.2413 14.9181 16.9654 14.4877 16.8275L4.87709 13.3792C4.87709 13.2413 4.87709 13.2413 4.73365 13.2413Z" fill="#D37700"/>
<path d="M4.73365 8.82747C4.44677 8.82747 4.15988 8.9654 4.01644 9.24126C3.87299 9.65505 4.01644 9.93092 4.44677 10.0688L14.0574 13.5171C14.4877 13.6551 14.7746 13.5171 14.9181 13.1033C15.0615 12.6895 14.9181 12.4137 14.4877 12.2757L4.87709 8.82747C4.87709 8.82747 4.87709 8.82747 4.73365 8.82747Z" fill="#D37700"/>
<path d="M4.73365 17.6553C4.44677 17.6553 4.15988 17.7933 4.01644 18.0691C3.87299 18.4829 4.01644 18.7588 4.44677 18.8967L14.0574 22.345C14.4877 22.4829 14.7746 22.345 14.9181 21.9312C15.0615 21.5174 14.9181 21.2416 14.4877 21.1036L4.87709 17.6553C4.87709 17.6553 4.87709 17.6553 4.73365 17.6553Z" fill="#D37700"/>
<path d="M27.6847 2.89633C27.2544 2.89633 26.9675 3.17219 26.9675 3.58599V11.586C26.9675 11.8618 27.111 11.9998 27.2544 12.1377C27.3979 12.2756 27.6847 12.2756 27.9716 12.2756L33.8528 10.0687C34.2831 9.93081 34.4266 9.51702 34.2831 9.24116C34.1397 8.82736 33.7093 8.68943 33.4225 8.82736L28.5454 10.6205V3.58599C28.402 3.17219 28.1151 2.89633 27.6847 2.89633Z" fill="#D37700"/>
<path d="M27.6848 2.20687C27.5413 2.20687 27.3979 2.20687 27.111 2.3448L16.9266 6.06893C16.3528 6.20687 16.0659 6.75859 16.0659 7.31032V34.6207C16.0659 35.0344 16.3528 35.4482 16.6397 35.7241C17.07 36 17.5003 36 17.9307 35.862L33.9963 30.0689C34.57 29.931 34.8569 29.3793 34.8569 28.8276V9.51721C34.8569 9.10342 34.7135 8.82756 34.4266 8.55169L28.6889 2.62066C28.402 2.3448 27.9717 2.20687 27.6848 2.20687ZM18.9348 8.27583L27.2544 5.24135L32.1315 10.0689V27.862L18.9348 32.6896V8.27583Z" fill="#D37700"/>
<path d="M30.5533 22.0689C30.4099 22.0689 30.4099 22.0689 30.2664 22.0689L20.6557 25.5172C20.2254 25.6551 20.082 26.0689 20.2254 26.3448C20.3689 26.7586 20.7992 26.8965 21.0861 26.7586L30.6967 23.3103C31.1271 23.1724 31.2705 22.7586 31.1271 22.4827C31.1271 22.2069 30.8402 22.0689 30.5533 22.0689Z" fill="#D37700"/>
<path d="M30.5533 13.1036C30.4099 13.1036 30.4099 13.1036 30.2664 13.1036L20.6557 16.6898C20.2254 16.8277 20.082 17.2415 20.2254 17.5174C20.3689 17.9312 20.7992 18.0691 21.0861 17.9312L30.6967 14.4829C31.1271 14.345 31.2705 13.9312 31.1271 13.6553C31.1271 13.3795 30.8402 13.1036 30.5533 13.1036Z" fill="#D37700"/>
<path d="M30.5533 17.5172C30.4099 17.5172 30.4099 17.5172 30.2664 17.5172L20.6557 20.9654C20.2254 21.1034 20.082 21.5172 20.2254 21.793C20.3689 22.2068 20.7992 22.3448 21.0861 22.2068L30.6967 18.7585C31.1271 18.6206 31.2705 18.2068 31.1271 17.931C31.1271 17.793 30.8402 17.5172 30.5533 17.5172Z" fill="#D37700"/>
</svg>
