<svg width="35" height="36" fill="none" xmlns="http://www.w3.org/2000/svg"><path d="M1.434 0c-.286 0-.573.138-.86.276C.287.55 0 .966 0 1.379v27.448c0 .552.43 1.104.86 1.242l16.066 5.793c.574.138 1.004.138 1.435-.138.287-.276.573-.69.573-1.104V7.31c0-.552-.43-1.103-.86-1.241L2.008.138C1.721.138 1.578 0 1.434 0zM2.87 27.862V3.448l13.197 4.828v24.413L2.869 27.862z" fill="#D37700"/><path d="M4.734 22.207a.794.794 0 00-.718.414c-.143.413 0 .69.43.827l9.611 3.448c.43.138.718 0 .861-.413.144-.414 0-.69-.43-.828L5.02 22.207h-.287zm0-8.966a.794.794 0 00-.718.414c-.143.414 0 .69.43.828l9.611 3.586c.43.138.718 0 .861-.414.144-.414 0-.69-.43-.828l-9.61-3.448c0-.138 0-.138-.144-.138zm0-4.414a.794.794 0 00-.718.414c-.143.414 0 .69.43.828l9.611 3.448c.43.138.718 0 .861-.414.144-.413 0-.69-.43-.827l-9.61-3.449h-.144zm0 8.828a.794.794 0 00-.718.414c-.143.414 0 .69.43.828l9.611 3.448c.43.138.718 0 .861-.414.144-.414 0-.69-.43-.827l-9.61-3.449h-.144zM27.685 2.896c-.43 0-.717.276-.717.69v8c0 .276.143.414.286.552.144.138.43.138.718.138l5.88-2.207c.431-.138.575-.552.431-.828-.143-.414-.574-.552-.86-.414l-4.878 1.793V3.587c-.143-.414-.43-.69-.86-.69z" fill="#D37700"/><path d="M27.685 2.207c-.144 0-.287 0-.574.138L16.927 6.069c-.574.138-.861.69-.861 1.241v27.31c0 .414.287.828.574 1.104.43.276.86.276 1.29.138l16.066-5.793c.574-.138.86-.69.86-1.241V9.518c0-.415-.142-.69-.43-.966L28.69 2.62a1.582 1.582 0 00-1.004-.414zm-8.75 6.069l8.32-3.035 4.877 4.828v17.793L18.935 32.69V8.276z" fill="#D37700"/><path d="M30.553 22.069h-.287l-9.61 3.448c-.43.138-.574.552-.43.828.143.414.573.552.86.414l9.61-3.449c.431-.138.574-.551.431-.827 0-.276-.287-.414-.574-.414zm0-8.965h-.287l-9.61 3.586c-.43.138-.574.551-.43.827.143.414.573.552.86.414l9.61-3.448c.431-.138.574-.552.431-.828 0-.275-.287-.551-.574-.551zm0 4.413h-.287l-9.61 3.448c-.43.138-.574.552-.43.828.143.414.573.552.86.414l9.61-3.448c.431-.138.574-.552.431-.828 0-.138-.287-.414-.574-.414z" fill="#D37700"/></svg>