<svg width="1064" height="265" viewBox="0 0 1064 265" fill="none" xmlns="http://www.w3.org/2000/svg">
<path d="M0 262.696V-10.6961H39.1428V106.417H87.4957V-10.6961H126.638V262.696H87.4957V140.975H39.1428V262.696H0Z" fill="#F7F7F7"/>
<path d="M161.092 53.8122C161.092 42.8048 163.011 33.0774 166.849 24.6298C170.686 16.1823 175.803 9.14272 182.199 3.51106C188.339 -1.86464 195.246 -5.9604 202.921 -8.77623C210.852 -11.5921 218.783 -13 226.714 -13C234.645 -13 242.448 -11.5921 250.123 -8.77623C258.054 -5.9604 265.217 -1.86464 271.613 3.51106C277.753 9.14272 282.742 16.1823 286.579 24.6298C290.417 33.0774 292.336 42.8048 292.336 53.8122V198.188C292.336 209.707 290.417 219.563 286.579 227.754C282.742 235.946 277.753 242.729 271.613 248.105C265.217 253.737 258.054 257.96 250.123 260.776C242.448 263.592 234.645 265 226.714 265C218.783 265 210.852 263.592 202.921 260.776C195.246 257.96 188.339 253.737 182.199 248.105C175.803 242.729 170.686 235.946 166.849 227.754C163.011 219.563 161.092 209.707 161.092 198.188V53.8122ZM200.235 198.188C200.235 207.659 202.793 214.699 207.91 219.307C213.283 223.658 219.551 225.834 226.714 225.834C233.877 225.834 240.017 223.658 245.134 219.307C250.507 214.699 253.193 207.659 253.193 198.188V53.8122C253.193 44.3407 250.507 37.4291 245.134 33.0773C240.017 28.4696 233.877 26.1657 226.714 26.1657C219.551 26.1657 213.283 28.4696 207.91 33.0773C202.793 37.4291 200.235 44.3407 200.235 53.8122V198.188Z" fill="#F7F7F7"/>
<path d="M326.79 262.696V-10.6961H383.969C396.505 -10.6961 407.122 -8.77623 415.82 -4.93645C424.775 -1.09668 432.066 4.02303 437.694 10.4227C443.323 16.8223 447.288 24.2459 449.591 32.6934C452.149 40.8849 453.428 49.4604 453.428 58.4199V68.4033C453.428 75.8269 452.789 82.0985 451.509 87.2182C450.486 92.3379 448.823 96.8177 446.521 100.657C442.171 107.825 435.52 113.969 426.565 119.088C435.775 123.44 442.555 129.84 446.904 138.287C451.254 146.735 453.428 158.254 453.428 172.845V188.204C453.428 212.267 447.544 230.698 435.775 243.497C424.263 256.296 405.715 262.696 380.131 262.696H326.79ZM365.932 135.983V223.53H382.818C390.748 223.53 396.888 222.378 401.238 220.075C405.843 217.771 409.297 214.571 411.599 210.475C413.902 206.379 415.309 201.516 415.82 195.884C416.332 190.252 416.588 184.109 416.588 177.453C416.588 170.541 416.204 164.526 415.437 159.406C414.669 154.286 413.134 149.935 410.832 146.351C408.273 142.767 404.819 140.207 400.47 138.671C396.121 136.879 390.365 135.983 383.201 135.983H365.932ZM365.932 26.1657V101.425H383.585C396.633 101.425 405.331 98.2256 409.68 91.826C414.285 85.1703 416.588 75.5709 416.588 63.0276C416.588 50.7403 414.029 41.5249 408.913 35.3812C404.052 29.2376 395.098 26.1657 382.05 26.1657H365.932Z" fill="#F7F7F7"/>
<path d="M487.882 53.8122C487.882 42.8048 489.801 33.0774 493.638 24.6298C497.476 16.1823 502.592 9.14272 508.988 3.51106C515.128 -1.86464 522.036 -5.9604 529.711 -8.77623C537.642 -11.5921 545.573 -13 553.504 -13C561.435 -13 569.238 -11.5921 576.913 -8.77623C584.844 -5.9604 592.007 -1.86464 598.403 3.51106C604.543 9.14272 609.532 16.1823 613.369 24.6298C617.207 33.0774 619.125 42.8048 619.125 53.8122V198.188C619.125 209.707 617.207 219.563 613.369 227.754C609.532 235.946 604.543 242.729 598.403 248.105C592.007 253.737 584.844 257.96 576.913 260.776C569.238 263.592 561.435 265 553.504 265C545.573 265 537.642 263.592 529.711 260.776C522.036 257.96 515.128 253.737 508.988 248.105C502.592 242.729 497.476 235.946 493.638 227.754C489.801 219.563 487.882 209.707 487.882 198.188V53.8122ZM527.025 198.188C527.025 207.659 529.583 214.699 534.7 219.307C540.072 223.658 546.34 225.834 553.504 225.834C560.667 225.834 566.807 223.658 571.924 219.307C577.296 214.699 579.983 207.659 579.983 198.188V53.8122C579.983 44.3407 577.296 37.4291 571.924 33.0773C566.807 28.4696 560.667 26.1657 553.504 26.1657C546.34 26.1657 540.072 28.4696 534.7 33.0773C529.583 37.4291 527.025 44.3407 527.025 53.8122V198.188Z" fill="#F7F7F7"/>
<path d="M777.915 184.749V201.644C777.915 210.091 776.252 218.155 772.926 225.834C769.856 233.258 765.507 239.913 759.879 245.801C754.25 251.689 747.599 256.424 739.924 260.008C732.504 263.336 724.446 265 715.747 265C708.328 265 700.781 263.976 693.106 261.928C685.431 259.88 678.523 256.297 672.383 251.177C666.243 246.057 661.126 239.529 657.033 231.594C653.195 223.402 651.277 213.035 651.277 200.492V49.9724C651.277 41.0129 652.812 32.6934 655.882 25.0138C658.952 17.3343 663.301 10.6786 668.929 5.04698C674.558 -0.584701 681.209 -4.93645 688.885 -8.00828C696.815 -11.3361 705.514 -13 714.98 -13C733.4 -13 748.366 -6.98434 759.879 5.04698C765.507 10.9346 769.856 17.9742 772.926 26.1657C776.252 34.1013 777.915 42.8048 777.915 52.2762V67.6354H738.772V54.5801C738.772 46.9006 736.598 40.2449 732.249 34.6133C727.899 28.9816 722.015 26.1657 714.596 26.1657C704.874 26.1657 698.35 29.2376 695.025 35.3812C691.955 41.2689 690.419 48.8204 690.419 58.0359V197.804C690.419 205.739 692.082 212.395 695.408 217.771C698.99 223.146 705.258 225.834 714.212 225.834C716.771 225.834 719.457 225.45 722.271 224.682C725.341 223.658 728.155 222.122 730.714 220.075C733.016 218.027 734.935 215.211 736.47 211.627C738.005 208.043 738.772 203.564 738.772 198.188V184.749H777.915Z" fill="#F7F7F7"/>
<path d="M831.817 262.696V26.1657H786.535V-10.6961H916.243V26.1657H870.96V262.696H831.817Z" fill="#F7F7F7"/>
<path d="M1024.86 262.696V85.2983H1024.09L972.667 262.696H933.524V-10.6961H972.667V167.086H973.434L1024.86 -10.6961H1064V262.696H1024.86Z" fill="#F7F7F7"/>
</svg>
