<svg width="1064" height="265" fill="none" xmlns="http://www.w3.org/2000/svg"><path d="M0 262.696V-10.696h39.143v117.113h48.353V-10.696h39.142v273.392H87.496V140.975H39.143v121.721H0zM161.092 53.812c0-11.007 1.919-20.735 5.757-29.182 3.837-8.448 8.954-15.487 15.35-21.119a65.375 65.375 0 0120.722-12.287C210.852-11.592 218.783-13 226.714-13c7.931 0 15.734 1.408 23.409 4.224 7.931 2.816 15.094 6.911 21.49 12.287 6.14 5.632 11.129 12.671 14.966 21.119 3.838 8.447 5.757 18.175 5.757 29.182v144.376c0 11.519-1.919 21.375-5.757 29.566-3.837 8.192-8.826 14.975-14.966 20.351-6.396 5.632-13.559 9.855-21.49 12.671-7.675 2.816-15.478 4.224-23.409 4.224-7.931 0-15.862-1.408-23.793-4.224-7.675-2.816-14.582-7.039-20.722-12.671-6.396-5.376-11.513-12.159-15.35-20.351-3.838-8.191-5.757-18.047-5.757-29.566V53.812zm39.143 144.376c0 9.471 2.558 16.511 7.675 21.119 5.373 4.351 11.641 6.527 18.804 6.527 7.163 0 13.303-2.176 18.42-6.527 5.373-4.608 8.059-11.648 8.059-21.119V53.812c0-9.471-2.686-16.383-8.059-20.735-5.117-4.607-11.257-6.911-18.42-6.911-7.163 0-13.431 2.304-18.804 6.911-5.117 4.352-7.675 11.264-7.675 20.735v144.376zm126.555 64.508V-10.696h57.179c12.536 0 23.153 1.92 31.851 5.76 8.955 3.84 16.246 8.959 21.874 15.359 5.629 6.4 9.594 13.823 11.897 22.27 2.558 8.192 3.837 16.767 3.837 25.727v9.983c0 7.424-.639 13.695-1.919 18.815-1.023 5.12-2.686 9.6-4.988 13.439-4.35 7.168-11.001 13.312-19.956 18.431 9.21 4.352 15.99 10.752 20.339 19.199 4.35 8.448 6.524 19.967 6.524 34.558v15.359c0 24.063-5.884 42.494-17.653 55.293-11.512 12.799-30.06 19.199-55.644 19.199H326.79zm39.142-126.713v87.547h16.886c7.93 0 14.07-1.152 18.42-3.455 4.605-2.304 8.059-5.504 10.361-9.6 2.303-4.096 3.71-8.959 4.221-14.591.512-5.632.768-11.775.768-18.431 0-6.912-.384-12.927-1.151-18.047-.768-5.12-2.303-9.471-4.605-13.055-2.559-3.584-6.013-6.144-10.362-7.68-4.349-1.792-10.105-2.688-17.269-2.688h-17.269zm0-109.817v75.259h17.653c13.048 0 21.746-3.2 26.095-9.599 4.605-6.656 6.908-16.255 6.908-28.798 0-12.288-2.559-21.503-7.675-27.647-4.861-6.143-13.815-9.215-26.863-9.215h-16.118zm121.95 27.646c0-11.007 1.919-20.735 5.756-29.182 3.838-8.448 8.954-15.487 15.35-21.119a65.38 65.38 0 0120.723-12.287C537.642-11.592 545.573-13 553.504-13c7.931 0 15.734 1.408 23.409 4.224 7.931 2.816 15.094 6.911 21.49 12.287 6.14 5.632 11.129 12.671 14.966 21.119 3.838 8.447 5.756 18.175 5.756 29.182v144.376c0 11.519-1.918 21.375-5.756 29.566-3.837 8.192-8.826 14.975-14.966 20.351-6.396 5.632-13.559 9.855-21.49 12.671-7.675 2.816-15.478 4.224-23.409 4.224-7.931 0-15.862-1.408-23.793-4.224-7.675-2.816-14.583-7.039-20.723-12.671-6.396-5.376-11.512-12.159-15.35-20.351-3.837-8.191-5.756-18.047-5.756-29.566V53.812zm39.143 144.376c0 9.471 2.558 16.511 7.675 21.119 5.372 4.351 11.64 6.527 18.804 6.527 7.163 0 13.303-2.176 18.42-6.527 5.372-4.608 8.059-11.648 8.059-21.119V53.812c0-9.471-2.687-16.383-8.059-20.735-5.117-4.607-11.257-6.911-18.42-6.911-7.164 0-13.432 2.304-18.804 6.911-5.117 4.352-7.675 11.264-7.675 20.735v144.376zm250.89-13.439v16.895c0 8.447-1.663 16.511-4.989 24.19-3.07 7.424-7.419 14.079-13.047 19.967-5.629 5.888-12.28 10.623-19.955 14.207-7.42 3.328-15.478 4.992-24.177 4.992-7.419 0-14.966-1.024-22.641-3.072-7.675-2.048-14.583-5.631-20.723-10.751-6.14-5.12-11.257-11.648-15.35-19.583-3.838-8.192-5.756-18.559-5.756-31.102V49.972c0-8.96 1.535-17.279 4.605-24.958 3.07-7.68 7.419-14.335 13.047-19.967 5.629-5.632 12.28-9.983 19.956-13.055C696.815-11.336 705.514-13 714.98-13c18.42 0 33.386 6.016 44.899 18.047 5.628 5.888 9.977 12.927 13.047 21.119 3.326 7.935 4.989 16.639 4.989 26.11v15.36h-39.143V54.58c0-7.68-2.174-14.335-6.523-19.967-4.35-5.631-10.234-8.447-17.653-8.447-9.722 0-16.246 3.072-19.571 9.215-3.07 5.888-4.606 13.44-4.606 22.655v139.768c0 7.935 1.663 14.591 4.989 19.967 3.582 5.375 9.85 8.063 18.804 8.063 2.559 0 5.245-.384 8.059-1.152a27.198 27.198 0 008.443-4.607c2.302-2.048 4.221-4.864 5.756-8.448 1.535-3.584 2.302-8.063 2.302-13.439v-13.439h39.143zm53.902 77.947V26.166h-45.282v-36.862h129.708v36.862H870.96v236.53h-39.143zm193.043 0V85.298h-.77l-51.423 177.398h-39.143V-10.696h39.143v177.782h.767l51.426-177.782H1064v273.392h-39.14z" fill="#F7F7F7"/></svg>