<svg width="764" height="767" fill="none" xmlns="http://www.w3.org/2000/svg"><path d="M382.811 766.524c-100.569 0-197.894-38.93-269.265-110.301C38.93 581.607 0 484.282 0 383.713c0-100.569 38.93-197.894 110.301-269.265C184.917 39.832 278.998.902 382.811.902c100.569 0 197.894 38.93 269.265 110.302 149.232 149.231 149.232 392.543 0 541.775-71.371 71.371-168.696 113.545-269.265 113.545zm0-700.739c-84.348 0-165.452 32.442-223.847 94.081-61.64 58.395-94.08 139.499-94.08 223.847 0 84.349 32.44 165.453 94.08 223.848 58.395 58.394 139.499 94.08 223.847 94.08 84.348 0 165.452-32.441 223.847-94.08 123.278-123.279 123.278-324.417 0-447.695-61.639-61.639-139.499-94.08-223.847-94.08z" fill="#333"/><path d="M272.526 289.632c-25.954 0-48.663 22.71-48.663 48.663 0 25.953 22.709 48.662 48.663 48.662 25.953 0 48.662-22.709 48.662-48.662s-22.709-48.663-48.662-48.663zm220.627 0c-25.954 0-48.663 22.71-48.663 48.663 0 25.953 22.709 48.662 48.663 48.662 25.953 0 48.662-22.709 48.662-48.662s-22.709-48.663-48.662-48.663zM308.225 565.386c-19.465 0-38.93-6.488-58.395-19.465-6.488-6.488-6.488-16.221-3.244-22.709 6.488-6.488 16.221-6.488 22.709-3.244 29.198 22.709 55.151 12.977 94.081-3.244s84.348-32.442 126.522 3.244c6.488 6.488 6.488 16.221 3.244 22.709-6.488 6.488-16.221 6.488-22.709 3.244-29.197-22.709-55.151-12.976-94.081 3.244-19.464 6.489-42.174 16.221-68.127 16.221z" fill="#333"/></svg>