<svg width="764" height="767" viewBox="0 0 764 767" fill="none" xmlns="http://www.w3.org/2000/svg">
<path d="M382.811 766.524C282.242 766.524 184.917 727.594 113.546 656.223C38.9299 581.607 0 484.282 0 383.713C0 283.144 38.9299 185.819 110.301 114.448C184.917 39.8322 278.998 0.902283 382.811 0.902283C483.38 0.902283 580.705 39.8322 652.076 111.204C801.308 260.435 801.308 503.747 652.076 652.979C580.705 724.35 483.38 766.524 382.811 766.524ZM382.811 65.7855C298.463 65.7855 217.359 98.2271 158.964 159.866C97.3249 218.261 64.8832 299.365 64.8832 383.713C64.8832 468.062 97.3249 549.166 158.964 607.561C217.359 665.955 298.463 701.641 382.811 701.641C467.159 701.641 548.263 669.2 606.658 607.561C729.936 484.282 729.936 283.144 606.658 159.866C545.019 98.2271 467.159 65.7855 382.811 65.7855Z" fill="#333333"/>
<path d="M272.526 289.632C246.572 289.632 223.863 312.342 223.863 338.295C223.863 364.248 246.572 386.957 272.526 386.957C298.479 386.957 321.188 364.248 321.188 338.295C321.188 312.342 298.479 289.632 272.526 289.632Z" fill="#333333"/>
<path d="M493.153 289.632C467.199 289.632 444.49 312.342 444.49 338.295C444.49 364.248 467.199 386.957 493.153 386.957C519.106 386.957 541.815 364.248 541.815 338.295C541.815 312.342 519.106 289.632 493.153 289.632Z" fill="#333333"/>
<path d="M308.225 565.386C288.76 565.386 269.295 558.898 249.83 545.921C243.342 539.433 243.342 529.7 246.586 523.212C253.074 516.724 262.807 516.724 269.295 519.968C298.493 542.677 324.446 532.945 363.376 516.724C402.306 500.503 447.724 484.282 489.898 519.968C496.386 526.456 496.386 536.189 493.142 542.677C486.654 549.165 476.921 549.165 470.433 545.921C441.236 523.212 415.282 532.945 376.352 549.165C356.888 555.654 334.178 565.386 308.225 565.386Z" fill="#333333"/>
</svg>
