<svg width="37" height="36" fill="none" xmlns="http://www.w3.org/2000/svg"><g opacity=".5" fill="#fff"><path d="M33.335 26.726H2.905c-.709 0-1.294-.27-1.637-.929-.147-.285-.14-.607-.14-.92V17.85c0-.921.68-1.667 1.624-1.667h30.525c.906 0 1.652.68 1.652 1.601v7.26c-.008.929-.666 1.66-1.594 1.682-.71.015-.71 1.111 0 1.097 1.52-.037 2.683-1.243 2.683-2.764v-5.893c0-.716.088-1.52-.131-2.215-.351-1.14-1.455-1.865-2.625-1.865H2.737A2.717 2.717 0 00.04 17.477c-.073.65-.022 1.338-.022 1.996v5.644c0 1.47 1.214 2.698 2.691 2.698H33.32c.724.008.724-1.09.015-1.09z"/><path d="M6.232 34.161H2.95l.548.549v-7.436l-.548.549h3.282l-.548-.549v7.436c0 .709 1.097.709 1.097 0v-7.436c0-.3-.249-.548-.549-.548H2.95c-.3 0-.549.248-.549.548v7.436c0 .3.249.548.549.548h3.282c.71 0 .71-1.097 0-1.097zm26.868 0h-3.282l.548.549v-7.436l-.548.549H33.1l-.549-.549v7.436c0 .709 1.097.709 1.097 0v-7.436c0-.3-.249-.548-.548-.548h-3.283c-.3 0-.549.248-.549.548v7.436c0 .3.25.548.549.548H33.1c.702 0 .702-1.097 0-1.097zM17.477 15.642v11.632c0 .71 1.096.71 1.096 0V15.642c0-.71-1.096-.71-1.096 0zM6.232 22.003h4.263c.709 0 .709-1.097 0-1.097H6.232c-.71 0-.71 1.097 0 1.097zm18.49 0h4.263c.709 0 .709-1.097 0-1.097h-4.263c-.709 0-.709 1.097 0 1.097zm2.771-9.885h-2.5c-.403 0-.79-.022-1.178.102-.848.263-1.375 1.075-1.404 1.938-.029.833.556 1.608 1.309 1.9.395.154.804.14 1.214.14h2.551c.71 0 .71-1.097 0-1.097h-2.12c-.746 0-1.828.117-1.857-.943-.015-.52.446-.943.95-.943h3.035c.709 0 .709-1.097 0-1.097z"/><path d="M28.041 15.642v-.073c0-.3-.249-.549-.548-.549-.3 0-.549.25-.549.549v.073c0 .3.249.548.549.548.3 0 .548-.248.548-.548z"/><path d="M32.005 15.613v-2.947c0-.3-.249-.548-.549-.548h-2.661c-1.126 0-2.31-.103-3.173.775-.578.585-.658 1.47-.249 2.171.439.739 1.367 1.097 2.186 1.097h3.897c.71 0 .71-1.097 0-1.097h-2.661c-.812 0-2.31.22-2.58-.819-.184-.701.855-1.023 1.344-1.038.3-.007.6 0 .907 0h2.998l-.549-.548v2.946c-.007.717 1.09.717 1.09.008zM8.908 5.29V.58c0-.708-1.096-.708-1.096 0v4.71c0 .708 1.096.708 1.096 0z"/><path d="M6.005 10.597c-.701-.987-.804-2.23-.197-3.29.52-.914 1.513-1.448 2.559-1.462 1.053-.015 2.018.577 2.559 1.462.629 1.038.482 2.325-.197 3.29-.41.578.54 1.126.95.556.921-1.302.98-3.02.197-4.402-.709-1.25-2.083-1.988-3.502-2.01-1.447-.015-2.778.797-3.516 2.01-.812 1.346-.702 3.13.197 4.402.41.57 1.36.022.95-.556z"/><path d="M11.189 10.327h-5.66c-.708 0-.708 1.096 0 1.096h5.66c.71 0 .71-1.096 0-1.096z"/></g></svg>