<svg width="37" height="36" viewBox="0 0 37 36" fill="none" xmlns="http://www.w3.org/2000/svg">
<g opacity="0.5">
<path d="M33.335 26.7258C30.893 26.7258 28.4583 26.7258 26.0164 26.7258C21.3225 26.7258 16.6287 26.7258 11.9348 26.7258C8.92256 26.7258 5.91031 26.7258 2.90537 26.7258C2.19618 26.7258 1.61128 26.4553 1.26765 25.7973C1.12142 25.5122 1.12873 25.1905 1.12873 24.8761C1.12873 24.4959 1.12873 24.123 1.12873 23.7428C1.12873 21.7761 1.12873 19.8167 1.12873 17.8499C1.12873 16.9287 1.80868 16.183 2.75184 16.183C3.02235 16.183 3.28556 16.183 3.55608 16.183C4.95985 16.183 6.36361 16.183 7.76738 16.183C12.3369 16.183 16.9065 16.183 21.476 16.183C25.1098 16.183 28.7435 16.183 32.3772 16.183C32.6769 16.183 32.9767 16.183 33.2765 16.183C34.1831 16.183 34.9288 16.8629 34.9288 17.7841C34.9288 19.6631 34.9288 21.5495 34.9288 23.4285C34.9288 23.9695 34.9288 24.5105 34.9288 25.0442C34.9215 25.9728 34.2635 26.7039 33.335 26.7258C32.6258 26.7405 32.6258 27.8372 33.335 27.8225C34.8557 27.786 36.0182 26.5796 36.0182 25.0589C36.0182 24.2546 36.0182 23.4504 36.0182 22.6388C36.0182 21.4837 36.0182 20.3212 36.0182 19.166C36.0182 18.4495 36.1059 17.6452 35.8866 16.9507C35.5357 15.8101 34.4316 15.0863 33.2618 15.0863C32.9621 15.0863 32.6623 15.0863 32.3626 15.0863C30.9076 15.0863 29.4527 15.0863 28.005 15.0863C23.4135 15.0863 18.822 15.0863 14.2232 15.0863C10.6627 15.0863 7.10205 15.0863 3.54146 15.0863C3.27094 15.0863 3.00773 15.0863 2.73721 15.0863C1.37 15.0863 0.200197 16.1099 0.039349 17.4771C-0.0337639 18.1278 0.0174151 18.815 0.0174151 19.473C0.0174151 20.6429 0.0174151 21.8127 0.0174151 22.9825C0.0174151 23.6917 0.0174151 24.4082 0.0174151 25.1174C0.0174151 26.5869 1.23109 27.8152 2.70797 27.8152C3.46103 27.8152 4.22141 27.8152 4.97447 27.8152C9.09072 27.8152 13.1997 27.8152 17.3159 27.8152C21.615 27.8152 25.9213 27.8152 30.2203 27.8152C31.2512 27.8152 32.2894 27.8152 33.3203 27.8152C34.0442 27.8225 34.0442 26.7258 33.335 26.7258Z" fill="white"/>
<path d="M6.23248 34.1614C5.13579 34.1614 4.04641 34.1614 2.94971 34.1614C3.1325 34.3442 3.31528 34.527 3.49806 34.7098C3.49806 32.2313 3.49806 29.7527 3.49806 27.2742C3.31528 27.457 3.1325 27.6398 2.94971 27.8226C4.04641 27.8226 5.13579 27.8226 6.23248 27.8226C6.0497 27.6398 5.86692 27.457 5.68414 27.2742C5.68414 29.7527 5.68414 32.2313 5.68414 34.7098C5.68414 35.419 6.78083 35.419 6.78083 34.7098C6.78083 32.2313 6.78083 29.7527 6.78083 27.2742C6.78083 26.9744 6.53225 26.7259 6.23248 26.7259C5.13579 26.7259 4.04641 26.7259 2.94971 26.7259C2.64995 26.7259 2.40137 26.9744 2.40137 27.2742C2.40137 29.7527 2.40137 32.2313 2.40137 34.7098C2.40137 35.0096 2.64995 35.2581 2.94971 35.2581C4.04641 35.2581 5.13579 35.2581 6.23248 35.2581C6.94168 35.2581 6.94168 34.1614 6.23248 34.1614Z" fill="white"/>
<path d="M33.1006 34.1614C32.004 34.1614 30.9146 34.1614 29.8179 34.1614C30.0007 34.3442 30.1834 34.527 30.3662 34.7098C30.3662 32.2313 30.3662 29.7527 30.3662 27.2742C30.1834 27.457 30.0007 27.6398 29.8179 27.8226C30.9146 27.8226 32.004 27.8226 33.1006 27.8226C32.9179 27.6398 32.7351 27.457 32.5523 27.2742C32.5523 29.7527 32.5523 32.2313 32.5523 34.7098C32.5523 35.419 33.649 35.419 33.649 34.7098C33.649 32.2313 33.649 29.7527 33.649 27.2742C33.649 26.9744 33.4004 26.7259 33.1006 26.7259C32.004 26.7259 30.9146 26.7259 29.8179 26.7259C29.5181 26.7259 29.2695 26.9744 29.2695 27.2742C29.2695 29.7527 29.2695 32.2313 29.2695 34.7098C29.2695 35.0096 29.5181 35.2581 29.8179 35.2581C30.9146 35.2581 32.004 35.2581 33.1006 35.2581C33.8025 35.2581 33.8025 34.1614 33.1006 34.1614Z" fill="white"/>
<path d="M17.4766 15.642C17.4766 19.2464 17.4766 22.8436 17.4766 26.4481C17.4766 26.7259 17.4766 27.0037 17.4766 27.2742C17.4766 27.9834 18.5733 27.9834 18.5733 27.2742C18.5733 23.6698 18.5733 20.0726 18.5733 16.4681C18.5733 16.1903 18.5733 15.9125 18.5733 15.642C18.5733 14.9328 17.4766 14.9328 17.4766 15.642Z" fill="white"/>
<path d="M6.23209 22.0028C7.65048 22.0028 9.06887 22.0028 10.4946 22.0028C11.2038 22.0028 11.2038 20.9061 10.4946 20.9061C9.07618 20.9061 7.65779 20.9061 6.23209 20.9061C5.5229 20.9061 5.5229 22.0028 6.23209 22.0028Z" fill="white"/>
<path d="M24.7223 22.0028C26.1407 22.0028 27.5591 22.0028 28.9848 22.0028C29.694 22.0028 29.694 20.9061 28.9848 20.9061C27.5664 20.9061 26.148 20.9061 24.7223 20.9061C24.0131 20.9061 24.0131 22.0028 24.7223 22.0028Z" fill="white"/>
<path d="M27.4926 12.1179C26.6591 12.1179 25.8256 12.1179 24.9921 12.1179C24.59 12.1179 24.2025 12.096 23.815 12.2203C22.9669 12.4835 22.4405 13.295 22.4112 14.1578C22.382 14.9913 22.9669 15.7663 23.7199 16.0587C24.1147 16.2122 24.5242 16.1976 24.9336 16.1976C25.7817 16.1976 26.6371 16.1976 27.4852 16.1976C28.1944 16.1976 28.1944 15.1009 27.4852 15.1009C26.776 15.1009 26.0669 15.1009 25.365 15.1009C24.6192 15.1009 23.5371 15.2179 23.5079 14.1578C23.4933 13.6387 23.9539 13.2146 24.4584 13.2146C24.7435 13.2146 25.0213 13.2146 25.3065 13.2146C26.0376 13.2146 26.7687 13.2146 27.4926 13.2146C28.2017 13.2146 28.2017 12.1179 27.4926 12.1179Z" fill="white"/>
<path d="M28.041 15.642C28.041 15.62 28.041 15.5908 28.041 15.5689C28.041 15.2691 27.7924 15.0205 27.4927 15.0205C27.1929 15.0205 26.9443 15.2691 26.9443 15.5689C26.9443 15.5908 26.9443 15.62 26.9443 15.642C26.9443 15.9417 27.1929 16.1903 27.4927 16.1903C27.7924 16.1903 28.041 15.9417 28.041 15.642Z" fill="white"/>
<path d="M32.0047 15.6127C32.0047 14.633 32.0047 13.646 32.0047 12.6662C32.0047 12.3665 31.7561 12.1179 31.4563 12.1179C30.5716 12.1179 29.6797 12.1179 28.795 12.1179C27.6691 12.1179 26.4846 12.0155 25.6219 12.8929C25.0443 13.4778 24.9639 14.3625 25.3733 15.0643C25.812 15.8028 26.7405 16.161 27.5594 16.161C28.4733 16.161 29.3799 16.161 30.2938 16.161C30.6813 16.161 31.0688 16.161 31.4563 16.161C32.1655 16.161 32.1655 15.0643 31.4563 15.0643C30.5716 15.0643 29.6797 15.0643 28.795 15.0643C27.9834 15.0643 26.4846 15.2837 26.2141 14.2455C26.0313 13.5436 27.0695 13.2219 27.5594 13.2073C27.8592 13.2 28.1589 13.2073 28.466 13.2073C29.453 13.2073 30.4327 13.2073 31.4198 13.2073C31.4344 13.2073 31.449 13.2073 31.4636 13.2073C31.2808 13.0245 31.0981 12.8417 30.9153 12.6589C30.9153 13.6386 30.9153 14.6257 30.9153 15.6054C30.908 16.3219 32.0047 16.3219 32.0047 15.6127Z" fill="white"/>
<path d="M8.90822 5.28919C8.90822 3.71727 8.90822 2.14534 8.90822 0.580724C8.90822 -0.128471 7.81152 -0.128471 7.81152 0.580724C7.81152 2.15265 7.81152 3.72458 7.81152 5.28919C7.81152 5.99839 8.90822 5.99839 8.90822 5.28919Z" fill="white"/>
<path d="M6.00546 10.5972C5.30358 9.61018 5.20122 8.36726 5.80806 7.30712C6.32716 6.39321 7.32149 5.85948 8.36701 5.84486C9.41983 5.83024 10.3849 6.42245 10.926 7.30712C11.5547 8.34532 11.4085 9.63211 10.7286 10.5972C10.3191 11.1748 11.2696 11.7231 11.679 11.1529C12.6002 9.85145 12.6587 8.13329 11.8764 6.75146C11.1672 5.50123 9.79271 4.76279 8.37432 4.74086C6.92668 4.72623 5.59603 5.53779 4.85759 6.75146C4.04604 8.09674 4.1557 9.88069 5.05499 11.1529C5.46443 11.7231 6.41489 11.1748 6.00546 10.5972Z" fill="white"/>
<path d="M11.1889 10.3267C9.30257 10.3267 7.41626 10.3267 5.52994 10.3267C4.82075 10.3267 4.82075 11.4234 5.52994 11.4234C7.41626 11.4234 9.30257 11.4234 11.1889 11.4234C11.8981 11.4234 11.8981 10.3267 11.1889 10.3267Z" fill="white"/>
</g>
</svg>
