<svg width="563" height="348" fill="none" xmlns="http://www.w3.org/2000/svg"><g opacity=".5" clip-path="url(#clip0)" fill="#000"><path d="M545.453 330.501l11.354.047 6.24.047v-.891l-27.728-.235-6.334-71.354 3.941-.563h.094s.047 0 .047-.047c0 0 0-.047.047-.047v-.094l-.844-9.476v-.094s0-.047-.047-.047l-.047-.047-.047-.047h-.141l-11.307-124.366h.047l14.544-6.286s.047 0 .047-.047v-.047s0-.047.047-.047v-.141l-1.36-8.256v-.047s0-.047-.047-.047l-.047-.047-.047-.047h-.094l-83.23-9.664-11.823-2.533h-.141L225.763 0h-.188s-.047 0-.047.047c0 0-.046 0-.046.047 0 0 0 .047-.047.047l-.047.047-2.909 9.195v.093l2.674 76.469-3.331.187c-.047 0-.094.047-.141.047L190.2 109.635c-.047.047-.094.094-.094.188l-3.565 46.444v.094l6.709 44.098-6.85 94.811h-1.361a.258.258 0 00-.234.141v.093l-.188 2.44-4.926 7.271h-1.689s-.047 0-.047.047l-.047.047-6.756 9.946h-4.269a.356.356 0 00-.188.094c-.047.047-.094.093-.094.187l-1.173 14.637-9.336.047-29.933 1.689-.798.094h-.14s-.047 0-.047.047L0 332.706v.563l102.091-.516L0 338.195v.563l102.56-5.442 22.379-.047-.938 9.383-12.48 1.83h-.094s-.047 0-.047.046c0 0-.047 0-.047.047 0 0 0 .047-.047.047 0 0 0 .047-.047.047v.094c0 .047.047.094.094.141.047.047.094.047.188.047l70.14-.939 67.983-.938L563 338.758v-.563l-309.087 4.222 18.251-2.627.75-.094 3.472-.516h.141l12.48-1.782L563 334.771v-.61l-5.818-.047-5.911-.047-5.443-.047-4.691-.094-.329-3.565 4.645.14zm-10.697-.75v.094l-3.096-.047-6.24-71.871 3.002.188 6.334 71.636zm-93.786.328l-.657-14.121-.047-.985-.047-.985-2.064-45.036-.047-.939-.047-.938-.422-9.523-.235-5.207c0-.141-.141-.282-.281-.282a.303.303 0 00-.282.282l.235 4.878-68.592-4.362-25.007-1.595v-5.958l96.414 6.708 3.659 78.204-2.627-.047.047-.094c0 .047 0 .047 0 0zm-73.706-76.421l.094 9.523-23.834 3.378v-9.007l23.74-3.894zm-23.74 3.331v-4.926l21.535 1.361-21.535 3.565zm23.834 6.755l.422 32.23h-.094l-.375-31.479v-.094l-.047-.047-.047-.047h-.141l-16.233 2.252-7.225.985v-.422l23.74-3.378zm52.781 3.988c-.094 0-.094 0-.141.047l-.047.047-.047.047v.14l1.689 45.787c0 .047.047.141.094.188.047.047.094.094.188.094l17.922.188v.469l-18.438-.188-1.736-47.241 18.063.985v.422l-17.547-.985zm17.5 1.501l2.017 44.521-17.594-.188-1.689-45.224 17.266.891zm-42.413-3.284l23.787 1.267 1.736 47.288-24.303-.234-1.22-48.321zm.704 48.321l-25.429-.235-.704-49.446 24.866 1.36 1.267 48.321zm23.364-47.57l-24.303-1.314-25.428-1.36c-.094 0-.188.047-.235.188v.093l.657 50.009v.094s0 .047.047.047c0 0 0 .047.047.047 0 0 .047 0 .047.047 0 0 .047 0 .047.047h.093l25.992.281 24.819.235 18.72.188v.469l-66.95-.61a.258.258 0 00-.235-.141l-3.002.094-.047-3.753v-.235l-.047-1.923v-.235l-.094-8.256v-.188l-.047-1.876v-.188l-.047-1.877v-.187l-.422-32.745 68.686 3.8v.422l-18.298-1.173zm-50.435 34.293l.094 7.694h-.469l-.094-7.647.469-.047zm-.469-.797v-1.267l.469-.047v1.314h-.469zm.563 9.288v1.361h-.469v-1.314l.469-.047zm.047 2.112l.047 3.471h-.47l-.047-3.471h.47zm1.829-48.508l4.176-.845a.352.352 0 00.235-.328.353.353 0 00-.329-.235l-6.005 1.173-.141-9.476 68.358 4.363.422 8.96-66.716-3.612zm-2.064 33.73v1.314h-.469v-1.267l.469-.047zm-.422-.798l-.422-32.369.422-.094.422 32.463h-.422zm-1.126 12.62l-.094-7.6h.094l.094 7.6h-.094zm.094.844v1.314h-.094v-1.314h.094zm-.188-9.288v-1.22h.094v1.22h-.094zm-.047-2.111v-1.22h.094v1.22h-.094zm0-2.111l-.375-30.353v-.094l-.047-.047s-.047-.047-.094-.047h-.094l-15.013 2.064h-.094s-.047 0-.047.047c0 0-.047 0-.047.047 0 0 0 .047-.047.047v.141l.141 27.866h-.047l-.141-28.523 15.67-2.158.376 31.103-.141-.093zm-.563.844v1.22l-14.732-.376v-1.266l14.732.422zm-14.685-1.267l-.141-27.631 14.498-1.971.375 30.025-14.732-.423zm14.732 3.378v1.22l-14.732-.329v-1.266l14.732.375zm0 2.111l.094 7.6-14.779-.235-.047-7.74 14.732.375zm.094 8.444v1.314l-14.779-.235v-1.313l14.779.234zm.047 2.112v1.407l-14.826.422v-2.017l14.826.188zm-15.436-15.153v1.266h-.047l.047-1.266zm0 2.111v1.266h-.047l.047-1.266zm0 2.158l.047 7.74h-.047v-7.74zm.047 8.538v1.313h-.047l.047-1.313zm0 2.158v2.392s0 .047.047.047c0 0 0 .047.047.047 0 0 .047 0 .047.047 0 0 .047 0 .047.047h.094l15.388-.422h.094s.047 0 .047-.047c0 0 .047 0 .047-.047 0 0 0-.047.047-.047 0 0 0-.047.047-.047v-1.782h.094l.046 2.439-16.045.422-.047-3.049zm16.327 3.19h.094c.047 0 .047-.047.047-.047h.047l.047-.047v-.141l-.047-2.721h.094l.046 3.425-13.23-.141 12.902-.328zm.188-5.911l-.094-7.6h.094l.094 7.6h-.094zm.094.797v1.314h-.094v-1.314h.094zm-.188-9.288v-1.22h.094v1.22h-.094zm.188-37.108l-.141-9.524.422-.094.141 9.571-.422.047zm-.141 34.997h-.094v-1.22h.094v1.22zm-17.078.469v1.266h-.047l.047-1.266zm-.047-.892v-1.266h.047l-.047 1.266zm.047 3.003l.047 7.74h-.047v-7.74zm.047 8.585v1.313h-.047l.047-1.313zm-.188-42.175l.141 28.429h-.047l-.094-27.725v-.094s0-.047-.047-.047c0 0-.046-.047-.093-.047h-.141l-6.662.892v-.423l6.943-.985zm-.563 1.079l.094 27.35-6.521-.187-.047-26.318 6.474-.845zm.094 28.242v1.266l-6.521-.14v-1.267l6.521.141zm0 2.158v1.266l-6.521-.14v-1.267l6.521.141zm0 2.111l.047 7.74-6.568-.093v-7.788l6.521.141zm.047 8.585v1.313l-6.568-.093v-1.314l6.568.094zm0 2.158v2.111l-6.568.188v-2.346l6.568.047zm.329 2.627h.093s.047 0 .047-.047c0 0 .047 0 .047-.047 0 0 0-.047.047-.047 0 0 0-.047.047-.047v-2.439h.047v3.096l-7.178.188v-.469l6.85-.188zm17.828 1.595h1.032l70.516.657.61 13.558-7.742.047-13.136.046-75.911.329v-14.825l24.631.188zm51.233 14.825l20.925.234.14 3.19-97.023.798v-3.894l75.958-.328zM259.825 160.63l-7.273.375-1.407.094-.891.047h-.376l-1.407.094-13.325.703 24.679-1.313zm-24.585.563l.329-3.894 12.761 1.689-.094 1.548-12.996.657zm13.606-.704l.047-1.454.844.094-.046 1.266-.845.094zm1.783-.094l.047-1.126.328.047-.047 1.032-.328.047zm.891-.047l.047-.938.845.094-.047.797-.845.047zm1.408-.093l.047-.704 3.659.469-3.706.235zm4.691 14.261v-.563l3.519-.188.047.563-3.566.188zm3.754 1.032l.094 1.079-3.941.188.047-1.079 3.8-.188zm-3.66-2.862v-.563l3.238-.14.046.563-3.284.14zm.047-1.829l.188-4.738 2.44.093.469 4.457-3.097.188zm-.047-5.301c-.187 0-.281.093-.281.281l-.188 5.067h-.234l.234-5.536 3.097.141v.187l-2.628-.14zm-.891 8.96v-.563h.234l.047.563h-.281zm.188 1.267l-.047 1.079h-.235l.047-1.079h.235zm-.094-3.097v-.563h.234v.563h-.234zm1.642-7.834l1.689-.094v.188l-1.689-.094zm-5.349-.985h-.422v-.469l7.272-.376.047.516-6.897.329zm2.815 10.696V174h.235v.563h-.235zm.188 1.22l-.047 1.079h-.235l.047-1.079h.235zm-.094-3.05v-.563h.235v.563h-.235zm.094-1.829l.235-5.161c0-.094-.047-.14-.047-.187l-.047-.047h-.141l-3.425-.141v-.188h.188l3.753.188-.235 5.583-.281-.047zm-6.24 3.94l.047-.563h.328l-.047.563h-.328zm.282 1.22l-.047 1.079h-.329l.047-1.079h.329zm-.188-3.049l.047-.563h.328l-.047.563h-.328zm.047-1.783l.281-5.958h.329l-.282 5.958h-.328zm.328-7.271v-.516h.329v.516h-.329zm.094-1.783v-.516h.328v.516h-.328zm.281 13.886l.892-.047-.047 1.079-.891.047.046-1.079zm.047-1.266l.047-.563.892-.047-.047.563-.892.047zm.094-1.783l.047-.563.892-.047-.047.563-.892.047zm.094-1.83l.282-5.958.844-.047v.423l-.234 5.535-.892.047zm.282-7.224v-.516l.844-.047v.516l-.844.047zm.093-1.83v-.516l.845-.047v.516l-.845.047zm.798 13.839l3.19-.14-.047 1.079-3.19.14.047-1.079zm.047-1.219l.047-.563 3.19-.141-.047.563-3.19.141zm.094-1.83l.047-.563 3.19-.141-.047.563-3.19.141zm.094-1.83l.234-5.254 3.191.141-.188 4.926-3.237.187zm.375-9.007v-.516l7.037-.375.047.516-7.084.375zm-4.645 12.854l.047-.563.892-.047-.047.563-.892.047zm.798 1.22l-.047 1.079-.892.047.047-1.079.892-.047zm-.751-3.049l.047-.563.845-.047-.047.563-.845.047zm.094-1.783l.281-5.958.845-.047-.282 5.958-.844.047zm.328-7.272l.047-.516.845-.047v.517l-.892.046zm.094-1.782l.047-.516.845-.047v.516l-.892.047zm-.516-.469v.516l-13.09.656.047-.516 13.043-.656zm-.094 1.782v.516l-13.183.657.047-.516 13.136-.657zm-.094 1.783l-.281 5.958-13.465.657.516-5.958 13.23-.657zm-.328 7.225l-.047.563-13.512.656.047-.563 13.512-.656zm-.094 1.829l-.047.563-13.606.657.047-.563 13.606-.657zm-.047 1.783l-.047 1.079-13.699.657.094-1.079 13.652-.657zm.188 1.595l1.407-.047h.376l.891-.047 1.408-.047 3.753-.187.798-.047.797-.047 4.27-.188.891 8.679-29.37 1.267.751-8.679 14.028-.657zm14.685 8.632l1.079 10.696-13.512-.516h-.141l.047-.704c0-.14-.094-.281-.281-.281-.141 0-.282.094-.282.281l-.047.985-.047 1.033-1.22 27.35h-.375l1.314-29.415c0-.14-.094-.281-.282-.281h-.094l.235-4.879c0-.141-.094-.282-.281-.282-.141 0-.282.094-.282.282l-.281 6.146-1.314 28.476-.892.047 1.643-35.701c0-.141-.094-.282-.282-.282-.188 0-.281.094-.281.282l-1.643 35.748-4.785.14-10.697-.844 2.956-34.528.187-2.393 29.558-1.36zm-3.378 39.594l7.366.235.047.375-8.633.282-7.507-.61 8.727-.282zm-8.867-.844l-1.267-.047h-.094v-.188l4.223.141-2.862.094zm11.87-.375l-13.184-.376.141-2.392 17.077.516.235 2.111-4.269.141zm-13.043-3.331v-.188l16.984.516v.188l-16.984-.516zm0-.751l.14-2.392 16.515.516.235 2.392-16.89-.516zm.187-2.955v-.235l16.421.516v.235l-16.421-.516zm0-.751l.141-2.392 15.952.516.234 2.392-16.327-.516zm.188-2.955v-.282l15.858.516.047.282-15.905-.516zm.047-.845l.141-2.439 15.388.516.235 2.439-15.764-.516zm.141-2.955v-.282l15.248.516.047.282-15.295-.516zm.047-.845l.14-2.439 14.779.516.235 2.439-15.154-.516zm.14-3.002v-.329l14.685.516.047.329-14.732-.516zm.047-.892l.141-2.439 14.216.516.234 2.44-14.591-.517zm.188-3.002v-.375l14.075.516.047.375-14.122-.516zm.047-.891l.141-2.44 13.605.516.235 2.44-13.981-.516zm.141-3.003v-.422l13.465.516.047.422-13.512-.516zm.047-.985l.046-.469 13.325.516.047.469-13.418-.516zm-9.759 28.429l1.736.141 3.143.235h.141l1.454.093.376.047.891.094h.188l.375.047 8.961.704 1.736.141 3.143.234 4.176.328 5.959.47.985.093h.047l.422.047 1.126.094 1.783.141 3.096.234 4.27.329 5.489.422.704.047.703.047h.563l4.551.375h.563l4.786.376h.281l.282.046 4.973.376.328.047.329.047 3.19.234h.188l.375.047.422.047 4.833.375.422.047.422.047 5.067.422.423.047.422.047 5.301.422.47.047.469.047 3.565.282 2.487.187.469.047 2.205.188v10.602l-119.778-8.303.282-4.879.046-.798v-.188l.047-.891.047-.797v-.188l.047-.891.047-.798v-.188l.141-2.017 4.504.375 5.161.423 11.166.75zm32.841-63.754l2.862.375-9.758.516-.047-.516 6.943-.375zm8.539 1.36l-.047 1.548-15.247-.703v-.047l15.294-.798zm-.047 2.064v.188l-7.178-.328-7.976-.376v-.187l15.154.703zm-2.111 7.694v-.563l1.877-.094v.563l-1.877.094zm1.83 1.173l-.047 1.079-1.877.094v-1.079l1.924-.094zm-1.924-3.003c-.047 0-.093-.046-.14-.046l-1.736-.094h-.141s-.047 0-.047.047l-.047.047s0 .046-.047.046v.094l-1.97.094v-.563l6.146-.281v.563l-2.018.093zm-1.689 3.284v-.093l1.22-.047v.234l-1.22-.094zm1.173.751v.141l-1.22.047v-.282l1.22.094zm-1.126-2.44v-.234l1.22-.047v.375l-1.22-.094zm-2.58.47v-.563l1.736-.094-.141.563-1.595.094zm1.314 1.172l-.282 1.079-1.126.047.047-1.079 1.361-.047zm-1.173-4.879l.093-3.049 6.147.282-.094 2.439-6.146.328zm-.141-3.565c-.094 0-.141 0-.188.094-.047.047-.047.094-.094.188l-.093 3.377h-.235l.141-3.847 6.896.329v.187l-6.427-.328zm-.751 7.272v-.563h.235v.563h-.235zm.188 1.266l-.047 1.079h-.235l.047-1.079h.235zm-.141-3.096v-.563h.235v.563h-.235zm-.375-5.676l-.141 3.893h-.235l.094-3.471v-.141s0-.047-.047-.047c0 0 0-.047-.047-.047 0 0-.046 0-.046-.047l-.047-.047h-.094l-7.132-.328v-.188l7.695.423zm-.469 7.553v-.563h.234v.563h-.234zm.187 1.266l-.047 1.079h-.234l.047-1.079h.234zm-.14-3.096v-.563h.234v.563h-.234zm-.376-5.02l-.094 3.237-6.24.282-.375-3.847 6.709.328zm-.141 4.504v.563l-6.005.281-.047-.563 6.052-.281zm-.093 1.783v.563l-5.771.281-.047-.563 5.818-.281zm-.047 1.829l-.047 1.079-5.443.235-.093-1.079 5.583-.235zm.234 1.642l.798-.047.797-.047 1.596-.094h.985l1.736-.093 2.439-.094 4.27-.188 3.847-.188.798-.046.797-.047 14.685-.704.751-.047.75-.047h.563l3.801-.187-.141 8.913-43.21 1.876-.892-8.725 5.63-.235zm12.433-5.864v.563l-3.706.188v-.563l3.706-.188zm-3.659-1.126l.094-2.674v-1.501l.046-1.877.751-.047 2.909.376-.047 1.689v1.501l-.047 2.299-3.706.234zm3.612 2.956v.563l-3.706.187v-.563l3.706-.187zm-.047 1.829l-.047 1.079-3.706.188.047-1.079 3.706-.188zm21.676-7.459l-.047 1.454h-.235v-1.126s0-.046-.047-.046c0 0 0-.047-.047-.047 0 0-.046 0-.046-.047 0 0-.047 0-.047-.047h-.094l-16.139-.751-4.317-.187v-.188l21.019.985zm-20.878-1.548l.047-1.361 15.998 2.112-16.045-.751zm20.596 6.708v-.609h.235v.609h-.235zm.188 1.267v1.079h-.235v-1.079h.235zm-.141-3.096v-.563h.235v.563h-.235zm-.797 1.876v-.609h.234v.609h-.234zm.187 1.267v1.079h-.234v-1.079h.234zm-.187-3.096v-.563h.234v.563h-.234zm.047-1.877v-.469s0-.047-.047-.047c0 0 0-.047-.047-.047 0 0-.047 0-.047-.047 0 0-.047 0-.047-.047h-.094l-14.591-.703c-.047 0-.141.047-.188.047-.047.047-.047.094-.093.187l-.047 1.783h-.235l.047-2.299 15.576.751v.797l-.187.094zm-14.732 4.41v-.563l14.075-.657v.61l-14.075.61zm14.075.61v1.079l-14.122.657.047-1.079 14.075-.657zm-14.028-2.44v-.562l14.075-.657v.563l-14.075.656zm.047-1.829l.047-1.454 14.028.656v.141l-14.075.657zm-.845 3.706v-.563h.235v.563h-.235zm.188 1.22l-.047 1.079h-.235l.047-1.079h.235zm-.141-3.05v-.563h.235v.563h-.235zm-.469-4.175l-.047 2.346h-.235l.047-1.924v-.093s0-.047-.047-.047v-.047s-.047 0-.047-.047c0 0-.046 0-.046-.047h-.094l-3.566-.188v-.187l4.035.234zm-.375 6.052v-.563h.234v.563h-.234zm.187 1.22l-.047 1.079h-.234l.047-1.079h.234zm-.141-3.097v-.563h.235v.563h-.235zm-.469-3.471l-.047 1.689-3.284.14.047-1.97 3.284.141zm-.047 2.955v.563l-3.284.141v-.563l3.284-.141zm-.047 1.83v.563l-3.284.141v-.563l3.284-.141zm-.046 1.83l-.047 1.079-3.285.14.047-1.079 3.285-.14zm18.907-2.158v-.61l3.378-.141v.61l-3.378.141zm3.331 1.079v1.079l-3.378.14v-1.079l3.378-.14zm-3.284-2.909v-.563l3.378-.141v.563l-3.378.141zm0-1.877v-.422l1.314-.797 2.064.281v.798l-3.378.14zm-.282-.891v-.094l.61-.375h.094l-.704.469zm3.425 16.795l-.375 25.474-19.658 8.819-6.568.235.469-17.499c0-.14-.094-.281-.282-.281a.302.302 0 00-.281.281l-.469 17.78-.141 5.067-3.8.141.14-5.02.516-18.108c0-.141-.093-.282-.281-.282a.303.303 0 00-.282.282l-.516 17.873-4.832.141 1.877-20.126.046-.562c0-.141-.093-.282-.234-.282h-.094l.047-.141v-.14s0-.047-.047-.047c0 0 0-.047-.047-.047 0 0-.047 0-.047-.047 0 0-.047 0-.047-.047h-.094l-.891-.047h-.047l-5.958-.235-1.173-11.212 43.069-1.97zm-3.284 42.972v-.844l2.674-.094v.844l-2.674.094zm2.627 1.032l-.046 2.815-2.675-.188.047-2.533 2.674-.094zm-2.58-2.955v-.845l2.674-.094v.845l-2.674.094zm0-1.971l.047-2.439 2.674-1.079-.047 3.471-2.674.047zm-.235-2.908v-.188l2.956-1.22v.188l-2.956 1.22zm-.375-.657l-5.63 2.346-3.706 1.548h-.376l13.09-5.442v.188l-3.378 1.36zm-5.067 7.647v-.845l4.457-.14v.844l-4.457.141zm4.457.938l-.047 2.393-4.457-.329.047-1.923 4.457-.141zm-4.41-2.909v-.844l4.457-.141v.845l-4.457.14zm.047-1.923v-.328l4.457-1.83-.047 2.017-4.41.141zm-.282-.798v-.187l5.067-2.111v.234h-.187l-4.88 2.064zm-5.16 5.958l4.222-.14-.047 1.782-4.222-.328.047-1.314zm-.235-3.753v-.14h.375l-.375.14zm.235 2.628v-.845l4.222-.141v.845l-4.222.141zm.047-1.924v-.234l1.642-.704 2.58-.094v.844l-4.222.188zm3.002-2.064h-.422l1.97-.845v.188h-.093l-1.455.657zm-3.894.141l-4.692.14.094-4.879 19.33-8.678-.094 7.271-14.638 6.146zm-4.785 1.97v-.751l1.876-.047-1.876.798zm3.471-.844h.376l-2.205.891h-.329l2.158-.891zm-3.19 2.064l.094-.047h.328l-.422.187v-.14zm.188 1.923l3.988-.141-.047 1.22-3.988-.328.047-.751zm.047-1.079v-.187l1.736-.704 2.298-.094v.844l-4.034.141zm3.049-2.064h-.375l1.689-.704v.188h-.094l-1.22.516zm-4.316 2.111v-.844h.188v.844h-.188zm.141 1.079v.657h-.188v-.61l.188-.047zm-6.334-2.862v-.844l6.381-.188v.845l-6.381.187zm5.489 1.783v-.141a.354.354 0 00-.094-.187c-.047-.047-.093-.094-.187-.094l-5.208.141v-.188l5.677-.188v.61l-.188.047zm.141 1.079v.563h-.188v-.563h.188zm-.751 0v.469l-4.457-.375 4.457-.094zm-4.785-4.785l.141-4.785 6.38-.188-.094 4.785-6.427.188zm-4.457 2.064l.047-.844 3.8-.141v.844l-3.847.141zm3.8.985v.845l-3.8.094v-.845l3.8-.094zm-9.618-.797l.094-.845 5.208-.14-.047.844-5.255.141zm5.255 1.126v.187l-2.158.047h-.141c-.047 0-.047.047-.047.047l-.047.047s0 .047-.047.047v.281h-.141v-.609l2.581-.047zm-3.284.563c0-.094-.047-.141-.094-.188-.047-.047-.094-.094-.188-.094l-1.783.047v-.188l2.252-.046v.609h-.141l-.046-.14zm-2.159-10.227h-.281l.094-2.393h.422l-.235 2.393zm.376 6.614l.422-4.785 4.832-.141-.093 4.739-5.161.187zm.703-26.271a.146.146 0 01.047.094v.047s.047 0 .047.047h.61l-.047.281-6.287-.234-.046-.469 5.676.234zm.657 1.032l-.047.376-6.099-.235-.047-.422 6.193.281zm-.094.938l-.234 2.44-5.536-.188-.235-2.439 6.005.187zm-.281 2.956l-.047.375-5.349-.187-.046-.376 5.442.188zm-.047.938l-.235 2.44-4.785-.188-.235-2.439 5.255.187zm-.281 2.956l-.047.328-4.598-.141-.047-.328 4.692.141zm-.094.891l-.235 2.393-4.035-.141-.234-2.44 4.504.188zm-1.173 2.909l-.047.14v.141l-2.909-.094-.047-.281 3.003.094zm.797.891l-.234 2.393-3.284-.094-.235-2.393 3.753.094zm-1.126 2.909v.14s0 .047.047.047c0 0 0 .047.047.047l-2.346-.094-.047-.281 2.299.141zm-.187.797l-.094 2.393-1.689-.047-.235-2.393 2.018.047zm-.094 2.956a.146.146 0 01.047.094h-.047c-.047 0-.141.046-.141.14l-1.454-.047-.047-.234 1.642.047zm.047.797h.704l-.235 2.393-1.83-.047-.234-2.393 1.595.047zm-.469 2.909c0 .047-.047.047-.047.094l-.047.093h-.751v-.187h.845zm.797.75l-.141 1.642-1.219.047-.188-1.736 1.548.047zm-.422 4.692l-.047.656-.516-.046-.047-.563.61-.047zm-.751-1.595l-.047-.188h.094l-.047.094v.094c0-.047 0-.047 0 0zm45.228-56.296v.329l-5.114 3.002v-.422c.047 0 .094.047.094.047.047 0 .094 0 .141-.047l4.879-2.909zm-4.692 2.111l.047-4.081 4.223.563v.985l-4.27 2.533zm5.114-1.407l2.768-1.595.469.047-9.148 5.301v-.422c.047 0 .094.047.094.047.046 0 .093 0 .14-.047l5.677-3.331zm.141-.751v-.469c.047 0 .094.047.141.047.047 0 .094 0 .14-.047l.986-.61.422.047-1.689 1.032zm3.941-.703l13.418 1.782-23.552 12.854.141-8.819 9.993-5.817zm13.981 2.111v9.758l-24.256 12.385.141-8.914 24.115-13.229zm0 10.367v.657s-.047 0-.047-.047h-.234l-6.381 3.237-6.099 3.097-5.865 2.955-5.583 2.815v-.329l24.209-12.385zm-.751 51.417c.047 0 .047-.047.047-.047s.047 0 .047-.047v.375l-.844-.047.75-.234zm-2.111.141l-3.284-.282.235-46.303 4.926-2.486-.141 48.414-1.736.657zm2.205-49.728c-.047 0-.047 0 0 0h-.14l-5.49 2.768h-.047v-.422l5.818-2.956v.657s-.047 0-.047-.047c0 0-.047 0-.047-.047 0 .047-.047.047-.047.047zm-11.729 5.817c-.047 0-.047 0-.047.047v-.375l5.536-2.815v.563h-.047s-.046 0-.046-.047h-.188l-5.208 2.627zm5.02-1.923l-.281 45.411-4.786-.375.376-42.691 4.691-2.345zm-10.931 4.926v-.376l5.301-2.674v.563s-.047 0-.047-.047h-.187l-5.067 2.534zm4.879-1.83l-.375 41.893-4.504-.375.422-39.266 4.457-2.252zm-10.462 4.644v-.328l5.067-2.533v.516h-.235l-4.832 2.345zm4.597-1.735l-.469 38.468-4.316-.328.516-36.029 4.269-2.111zm19.705 40.063l.094-52.12 1.83-.938-.047 53.199-1.877-.141zm.094-52.73v-9.758l1.83-.985v9.805l-1.83.938zm-.281-10.18l-14.216-1.876-1.361-.188-1.313-.188-1.079-.141-.423-.046-.422-.047-4.785-.657-.376-.047-.375-.047-.188-.047-2.392-.328-.986-.141-.985-.141h-.141l-21.394-2.861-3.19-.423-3.003-.375-.985-.141-5.865-.797-3.002-.422-.985-.141-3.238-.422c0-.141-.14-.282-.281-.235-.141 0-.282.141-.235.282v.234l.047.61v.188l.047.563.094 1.079v.187l.047.563.047.563.094.751.093.75.47 4.41v.188l.046.516.094 1.126v.187l.047.516.094 1.126v.188l.047.516.188 1.595.938 9.289 1.22 11.775.094 1.032.093.938.329 3.003.094.938.328 3.002.094.892.328 3.002.094.845.329 2.955.093.798.282 2.955.094.798.281 2.955.094.751.235 2.299v.187l.047.329v.093l.093.704.047.563v.188l.047.328.094.798-5.395-.423v-.234l-.047-.329v-.187l-.094-.938-.047-.47-.047-.328v-.188l-.281-2.674-.094-.75-.282-2.956-.094-.797-.281-2.956-.094-.844-.281-2.956-.094-.844-.282-3.003-.094-.891-.281-3.002-.094-.939-.281-3.002-.094-.938-.094-1.032-1.126-11.306-.938-9.242-.141-1.595-.047-.516v-.188l-.094-1.126-.047-.516v-.188l-.094-1.125-.047-.517v-.187l-.516-4.973-.093-.751-.094-.75-.047-.563v-.188l-.094-1.079-.047-.563v-.187l-.094-1.032-.047-.376c.094-.047.141-.094.141-.187a.353.353 0 00-.235-.329h-.187l-.469-.047-6.944-.938-1.408-.188-.891-.093-.375-.047-1.408-.188-13.324-1.783-4.223-.563-1.219-.187h-.141c-.047 0-.047.047-.047.047l-.047.047v.187l1.407 22.518c0 .141.141.235.282.235s.281-.141.234-.282l-1.36-22.189.657.093.657 11.869c0 .141.14.282.281.282a.303.303 0 00.282-.282l-.657-11.728 3.612.469-.375 4.269v.188l-.047.563-.094 1.032v.188l-.047.563-.093 1.079v.187l-.047.516-.563 6.474v.188l-.047.516-.094 1.126v.188l-.047.516-.094 1.126v.187l-.047.516-.141 1.595-.797 9.242-.235 2.627-2.955 34.528-4.645-.375 2.956-33.965.14-1.83.094-1.126.704-8.069c0-.14-.094-.281-.235-.281-.14 0-.281.094-.281.234l-.657 7.788h-.094l-.751-7.928-.187-2.111-.047-.516v-.188l-.094-1.126-.047-.516v-.188l-.094-1.079-.047-.516v-.187l-.469-4.926-.047-.469-.094-1.032-.046-.516v-.188l-.047-.422v-.047l-.047-.563-.047-.563v-.188l-.094-1.032-.047-.563v-.187l-.657-6.803V155l-.094-1.032-.047-.328 3.003-3.05 116.307 15.951-4.129 2.252-2.721 1.407zm-109.645 17.921l-7.178-.751.516-8.679 5.349.61.75 7.928c0 .047.047.094.094.141.047.047.094.047.141.047l.328.047v.657zm-4.034-12.198v-.14l-.047-.235 2.346-.094.046.563-2.439.094c0-.047.047-.094.047-.141l.047-.047zm.093-1.782V174l-.046-.235 2.111-.093.047.563-2.158.093c0-.047.046-.093 0-.14l.046-.047zm.61-10.696v-.141l-.047-.282h.423l.047.516-.47.047v-.047l.047-.093zm.282-12.808l.422-7.13.047-1.032.375-.423.141-.14.047-.047 1.314-1.361.328-.375.422-.422-.61 10.602-2.627 2.627.141-2.299zm-1.455-11.493l-.281-.704v-.047s0-.047-.047-.047l-.047-.047-.047-.047h-.187c-.047 0-.047.047-.094.047-.047.047-.094.094-.094.188l-.282 5.067-.656.046.328-5.348.094-.375.187-.281.282-.188.375-.094.282.047.187.141.188.234.141.329 1.454 3.706-.328.375c-.047.047-.047.094-.047.141v.188l-1.408-3.331zm2.581 1.782l.234-3.753.657-.047-.187 3.05-.704.75zm5.864-3.19l-.563-.14-.469-.047h-.094l-.516.14c-.047 0-.047 0-.093.047l-.423.282-.047.047-.281.422c0 .047-.047.047-.047.094l-.047.187-.657-.093.094-.282.235-.375.281-.329.375-.281.376-.235.422-.14.469-.047h.563l.516.094.422.14-.046.657-.47-.141zm.329.892l-.047.563h-.328l-1.643-.235.141-.188.329-.234.422-.094.422.047.516.094.188.047zm-2.768.75l.375.047 2.018.282.562.093 5.068.751 12.62 1.83 1.361.187.375.047.891.141 1.408.188 4.973.703 5.818.845 18.438 2.674 4.176.61 21.253 3.096 4.457.657.188.047.375.047.375.046 4.739.704.422.047.422.047 4.974.751.422.046.422.047 5.677.845.422.047.422.047 6.006.891.469.047.469.047.938.141.939.14.938.141.469.047h.047l4.598.657.047 9.945-2.111-.281-117.01-16.044.609-10.931.939.328zm25.569-9.945l.423-9.148c0-.141-.094-.282-.282-.282-.141 0-.281.094-.281.282l-.423 9.382-.563 12.761-.844-.141 1.032-23.128.704-15.904 2.721 26.834-2.487-.656zm2.534 1.219l1.267 12.479-4.364-.656.563-12.479 2.534.656zm-2.862-28.288h-.094l-.844-.047h-.094l.328-7.412.704 7.459zm-.751.469h.329l-.751 16.279-1.032 23.081-.329-.047 1.783-39.313zm10.04 29.414l19.424 4.833-.282 9.57-17.922-2.627-1.22-11.776zm23.834 15.153l.235-9.101 20.549 5.114-.094 6.99-20.69-3.003zm21.253 3.097l.141-7.131 3.941-2.815-.141 10.555-3.941-.609zm9.994-30.775l-.376 32.182-4.222-.61.328-24.019 4.27-7.553zm-4.223 6.38l.094-7.272 4.222-5.817-.046 5.536-4.27 7.553zm4.41-14.168l.282-.422v.375c-.047 0-.094-.047-.094-.047h-.094c-.047.094-.094.094-.094.094zm5.583-2.58l-.375 43.394-4.457-.656.375-34.857 4.457-7.881zm-4.41 6.755l.047-4.972 4.41-6.099-.047 3.143-4.41 7.928zm4.504-12.056l.376-.516v.422c-.047-.047-.094-.047-.141-.047h-.094l-.141.141zm13.09-17.17l-.141 67.836-5.442-.798.281-58.594 2.722-4.832 2.58-3.612zm-.235-.61l.094-.14.61-.798v.563c-.047-.047-.094-.047-.141-.047h-.093c-.047 0-.141.046-.141.094l-.329.328zm-5.489 7.6l2.721-3.8-.047.14-2.674 3.66zm5.114-8.07l-5.583 7.788-4.363 6.052 10.04-13.98-.094.14zm-5.677 8.82v.47c-.047-.047-.094-.047-.141-.047h-.093c-.047 0-.141.046-.141.093l-4.692 6.521 5.067-7.037zm-.422 1.548v.516l-5.067 9.008v-2.58l5.067-6.944zm0 1.69l-.282 55.873-5.16-.798.375-46.068 5.067-9.008zm8.07 57.045l.093-71.683.376-.656-.094 72.386-.375-.047zm1.079-56.248h-.094V81.957l86.233 39.078 2.017 46.96-.281-.047-1.971-46.537v-.094c-.047-.047-.047-.094-.141-.141l-19.939-9.007-20.503-9.289s-.047 0-.047-.047l-21.159-9.57s-.047 0-.047-.047l-23.318-10.555h-.281s-.047 0-.047.046c0 0 0 .047-.047.047 0 0 0 .047-.047.047v.094l-.047 72.199-.422-.047.047-55.826h.047c.14 0 .234-.094.281-.235a.353.353 0 00-.234-.328zm91.206 5.629l2.955 64.599-5.442-.797-2.017-47.194-.563-13.558 5.067-3.05zm-5.114 2.346l-.047-1.548 5.067-3.003.094 1.549-5.114 3.002zm-.939 15.341v-.094c0-.047-.047-.047-.047-.094l-.093-.094-18.298-8.257h-.281s-.047 0-.047.047c0 0 0 .047-.047.047l-.047.047v.094l1.689 51.276-.282-.047-1.689-52.167 19.377 8.772 1.97 46.257-.281-.047-1.924-45.74zm1.361 45.787l-17.969-2.628-1.689-50.947 17.734 8.022 1.924 45.553zm-21.347-54.795v-.094s0-.046-.047-.046c-.047-.047-.094-.047-.141-.094l-18.766-8.492c-.047-.046-.094-.046-.188-.046h-.094s-.047 0-.047.046c0 0-.047 0-.047.047 0 0 0 .047-.047.047l-.047.047v.094l1.314 57.515-.328-.047-1.314-58.406 20.033 9.054 1.689 52.308-.281-.047-1.689-51.886zm1.126 51.792l-18.673-2.721-1.314-57.187 18.298 8.257 1.689 51.651zm-21.723-61.08c0-.047 0-.047 0 0 0-.047 0-.094-.046-.094l-.141-.141-19.471-8.82h-.187s-.047 0-.047.047c0 0-.047 0-.047.047 0 0 0 .047-.047.047l-.047.047v.094l.751 63.895-.376-.047-.75-64.786 20.69 9.335 1.314 58.548-.329-.047-1.267-58.125zm.704 58.031l-19.423-2.862-.751-63.567 18.907 8.538 1.267 57.891zm57.145-54.654l-2.534 1.408-.141-2.627 2.675 1.219zm-1.83-1.454l2.299.469-.094.516-2.205-.985zm2.58 1.642l.047-.047.047-.047v-.047l6.709 1.408-3.894 2.111-6.193-1.267v-.235l3.284-1.876zm.235-.704l.047-.328 7.788 1.595-.422.234-7.413-1.501zm2.533 4.551l.188 3.847-5.958-1.173-.188-3.847 5.958 1.173zm.235 4.41l.141 2.486.047 1.267v.187l-6.006-1.219-.187-3.941 6.005 1.22zm.235 4.456l.328 6.568-6.005-1.126-.329-6.615 6.006 1.173zm.375 7.131v.328l-6.005-1.125v-.329l6.005 1.126zm.047.891v.329l-6.005-1.126v-.328l6.005 1.125zm.047.939l2.299 43.488-6.146-.891-2.205-43.723 6.052 1.126zm20.08 185.634h.094s.047 0 .047-.047c0 0 .047 0 .047-.047 0 0 0-.047.047-.047 0 0 0-.047.047-.047v-.093l-2.534-43.958v-.094s0-.047-.047-.047v-.046s-.047-.047-.094-.047h-.093l-9.525-.516v-.376l9.947.516 2.627 45.271-10.181-.094v-.422l9.618.094zm-9.665-.657l-2.346-43.769 9.243.469 2.487 43.394-9.384-.094zm10.463 1.642c.047 0 .047 0 0 0h.094s.046 0 .046-.047c0 0 .047 0 .047-.047 0 0 0-.047.047-.047 0 0 0-.046.047-.046v-.094l-2.674-45.834v-.094c0-.047-.047-.047-.047-.094-.047-.047-.094-.094-.188-.094l-10.274-.563v-.375l10.697.61 2.768 47.147-10.932-.093v-.423l10.369.094zm.563.985l.75 13.183-10.978.047-.704-13.323 10.932.093zm.563 0l34.014.329.939 12.713-34.203.141-.75-13.183zm-.047-.563l-2.768-47.147 33.404 1.83 3.378 45.599-34.014-.282zm-3.05-47.663l-10.978-.61-.469-8.82 44.477 2.862.609 8.444-33.639-1.876zm-11.494-9.993l-.282-5.348 29.088 2.018.751.047 38.894 2.721-.844.14-22.896 3.284-44.711-2.862zm-112.366-88.524c.047 0 .047 0 0 0l95.053 12.76.423 9.101-95.382-11.963-2.158-.281v-9.899l2.064.282zm-1.501-.751l4.035-2.205 1.501.188-4.082 2.205-1.454-.188zm1.501 11.165c.047 0 .047 0 0 0l95.476 11.963 2.299 49.071-97.681-7.74h-.047l-2.205-.188.047-53.387 2.111.281zm99.088 2.909l.422 9.054-3.518-.422-.423-9.054 3.519.422zm-2.674-.938l2.58-.938.047 1.313-2.627-.375zm-.375 10.086l3.518.422 2.393 48.884-3.612-.282-2.299-49.024zm11.307-18.343v.375l-6.147-.891v-.375l6.147.891zm-6.193-1.454v-.375l6.146.891v.375l-6.146-.891zm4.363-43.442l8.679 1.596 2.487 43.113-8.82-1.267-2.346-43.442zm11.401 45.318h.046c.047 0 .094-.047.141-.047.047-.046.047-.093.094-.14v-.094l-2.533-43.676v-.094c0-.047-.047-.047-.047-.047s-.047-.047-.094-.047h-.047l-9.008-1.689v-.328l9.43 1.783 2.627 44.942-9.617-1.407v-.375l9.008 1.219zm4.504 67.79l-9.9-.798v-.469l9.383.75c.047 0 .094-.046.141-.046.047-.047.047-.094.094-.141l-2.58-44.708v-.141s0-.047-.047-.047l-.047-.047h-.094l-9.243-1.126v-.422l9.712 1.22 2.581 45.975zm-2.159-46.022l17.125 2.111 3.05 45.318-17.453-1.407-2.722-46.022zm-18.016-1.548c0 .047 0 .047 0 0l2.252 45.412c0 .046.047.14.094.187.047.047.094.047.141.047l7.131.563v.469l-7.647-.61-2.299-46.819 7.507.938v.423l-6.897-.845h-.047c-.094 0-.141.047-.188.094 0 0-.047.047-.047.094v.047zm7.789 1.22l8.914 1.125 2.533 44.146-9.102-.751-2.345-44.52zm1.829 44.52l-6.803-.563-2.252-44.802 6.663.845 2.392 44.52zm-2.439-55.967l28.009 3.753.563 8.726-28.15-3.519-.422-8.96zm0-.516l-.47-8.867 27.916 3.988.563 8.632-28.009-3.753zm-.516-9.477v-.375l9.852 1.407 17.547 2.534h.047c.047 0 .094-.047.141-.047.046-.047.046-.094.093-.141v-.094l-3.002-44.802v-.093l-.047-.047-.047-.047s-.047 0-.047-.047h-.047l-17.171-3.237-9.759-1.83v-.328l27.305 5.16 3.097 46.022-27.962-4.035zm7.506-44.379l16.609 3.096 2.955 44.239-16.983-2.44-2.581-44.895zm-7.506 54.325l.469 8.96-8.305-1.032-.422-9.054 8.258 1.126zm-5.912 57.844l.469 9.617-3.612-.235-.47-9.664 3.613.282zm-1.877-49.353l8.305 1.032v.422l-7.695-.938h-.187l-.047.047v.047l-.047.047v.141l2.346 47.382c0 .047.047.14.093.187.047.047.094.047.141.047l7.976.657.047.469-8.492-.657-2.44-48.883zm10.885 50.056l.516 9.524-8.539-.61-.469-9.617 8.492.703zm.516-.938l10.181.797 18.016 1.455c.047 0 .094-.047.141-.047.047-.047.047-.094.094-.141l-3.05-45.881v-.14s0-.047-.047-.047l-.047-.047s-.047 0-.047-.047h-.094l-17.687-2.205-10.04-1.267v-.375l28.15 3.518 3.19 47.195-28.713-2.252-.047-.516zm28.76 3.284l.61 9.242-28.854-2.018-.516-9.523 28.76 2.299zm1.361 0l3.378-.61h.047l.656 9.336-3.425.563-.656-9.289zm-.376-.469c-.047 0-.094.047-.094.047s-.046 0-.046.047c0 0-.047 0-.047.046 0 0 0 .047-.047.047v.141l.657 9.477h-.235l-.657-9.571-3.19-47.757-.61-8.96 3.988.516 3.847 55.263-3.566.704zm-4.269-57.093l-.61-8.961-3.097-46.209 3.895.751h.046l3.801 54.982-4.035-.563zm-3.941-55.78l-27.681-5.207-.328-6.568 31.668 6.146h.047l.423 6.38-4.129-.751zM446.6 118.971l-.047-.657 31.622 6.193h.047l.047.657-31.669-6.193zm-3.613 61.362c.047 0 .047 0 0 0 .047 0 .047-.047.047-.047s0-.047.047-.047c0 0 0-.047.047-.047v-.093L442.8 174l6.146.891.469 8.867-8.258-1.126-.093-1.595 1.923-.704zm-2.205.235l-3.894 1.454-94.302-12.666 4.081-2.205 95.147 13.041-1.032.376zm-94.162-24.489c-.047 0-.047 0 0 0l-4.879-.703-.235-.047V99.502c.047.047.094.047.141.047h.047a.317.317 0 00.282-.188c.047-.14-.047-.234-.141-.328h-.094c-.047 0-.094.047-.141.047V84.725l20.972 9.476.704 64.271-16.656-2.393zm16.421-62.019v-.093s0-.047-.047-.047c0 0 0-.047-.047-.047l-.047-.047-21.534-9.711h-.235s-.047 0-.047.047c0 0 0 .047-.047.047l-.047.047v71.026l-.422-.047.047-71.824 22.802 10.321.75 64.974-.375-.047-.751-64.599zm-23.552 139.801l2.158.188 97.775 7.74.469 9.664-98.15-6.802-2.252-.141v-10.649zm101.012 18.155l3.612.235 3.8 77.922h-3.753l-3.659-78.157zm4.175.329l8.539.609.282 5.677.516 9.382.047.939.046.938 2.346 44.333.047.985.047.985.751 13.886v.094l-8.821.047-3.8-77.875zm12.902 78.344c.047 0 .047 0 0 0h.094s.047 0 .047-.047c0 0 .047 0 .047-.047 0 0 0-.047.047-.047 0 0 0-.047.047-.047v-.187l11.26-.047 34.484-.141.234 3.284-55.221.422-.094-3.096 9.055-.047zm45.603-14.121l-3.425-46.162-.656-8.726 22.379-3.237 6.099 71.355-23.411-.235-.986-12.995zm24.397 13.793l.281 3.471-23.458-.422-.234-3.284 23.411.235zm-5.583-72.012l2.862-.422 6.24 71.871-3.003-.047-6.099-71.402zm9.149 72.012l.328 3.518-3.05-.047-.281-3.471h3.003zm-2.534-72.762l-3.519-.235-39.081-2.721 1.595-.281 42.6 3.002-1.595.235zm3.894-.61l-44.664-3.143-.657-9.336.469.047.422.047.329.047.75.047.422.047.329.047.751.046.422.047.328.047.751.047.422.047.329.047.75.047.422.047.329.047.751.047.422.047.328.047.751.046.422.047.328.047.751.047.422.047.329.047.751.047.422.047.328.047.751.047.422.047.329.046.75.047.422.047.329.047.751.047.422.047.328.047.751.047.375.047.329.047.75.047.376.047.328.046.751.047.375.047.328.047.751.047.375.047.329.047.751.047.375.047.328.047.751.047.375.046.329.047.75.047.376.047.328.047.751.047.375.047.329.047.703.047.376.047.328.047.704.046.375.047.329.047.703.047.376.047.375.047.704.047.375.047.375.047.704.047.375.047.376.047.704.046.375.047.375.047.704.047.375.047.376.047.703.047.329.047.375.047.704.047.375.047.376.047.703.046.329.047.375.047.469.047 1.126 8.21zM479.77 125.774l.047.422-.329-.047-.047-.422.329.047zm-.329-.141l-.093-1.126.328.047.094 1.126-.329-.047zm.376.657l.469 6.849-.328-.047-.47-6.849.329.047zm.469 6.943l3.894 55.357-.328-.047-3.848-55.404.282.094zm3.894 55.451l3.894 55.357-.375-.047-3.847-55.357.328.047zm-2.956-62.629l.047.422-.328-.047-.047-.422.328.047zm-.328-.141l-.094-1.126.328.047.094 1.126-.328-.047zm.375.657l.469 6.849-.328-.047-.469-6.849.328.047zm.516 6.943l3.894 55.31-.328-.046-3.894-55.311.328.047zm3.894 55.357l3.894 55.264-.328-.047-3.894-55.264.328.047zm-3.002-62.535l.047.423-.329-.047-.047-.422.329.046zm-.329-.14l-.094-1.126.329.047.094 1.126-.329-.047zm.376.657l.469 6.849-.329-.047-.469-6.849.329.047zm.516 6.896l3.941 55.263-.329-.047-3.941-55.263.329.047zm3.941 55.357l3.941 55.17-.329-.047-3.941-55.217.329.094zm-3.05-62.488l.047.422-.328-.047-.047-.422.328.047zm-.328-.141l-.094-1.126.328.047.094 1.126-.328-.047zm.375.657l.516 6.849-.328-.047-.469-6.849.281.047zm.516 6.896l3.988 55.17-.328-.047-3.988-55.17.328.047zm3.988 55.264l3.988 55.122-.328-.047-3.988-55.122.328.047zm-3.096-62.395l.046.423-.328-.047-.047-.422.329.046zm-.329-.14l-.094-1.126.329.047.094 1.126-.329-.047zm.375.656l.517 6.803-.329-.047-.516-6.802.328.046zm.517 6.897l4.034 55.075-.328-.047-3.988-55.122.282.094zm4.034 55.169l4.035 55.029-.328-.047-3.988-55.029.281.047zm-3.143-62.3l.047.422-.329-.047-.046-.422.328.047zm-.328-.141l-.094-1.126.328.047.094 1.126-.328-.047zm.375.657l.516 6.802-.328-.047-.517-6.802.329.047zm.516 6.896l4.035 55.029-.329-.047-4.034-55.029.328.047zm4.035 55.076l4.035 54.935-.329-.047-4.035-54.982.329.094zm-3.144-62.207l.047.423-.328-.047-.047-.423.328.047zm-.328-.14l-.094-1.126.329.047.093 1.126-.328-.047zm.375.656l.516 6.803-.328-.047-.516-6.802.328.046zm.516 6.897l4.082 54.935-.328-.047-4.082-54.982.328.094zm4.082 55.028l4.082 54.889-.329-.047-4.081-54.888.328.046zm-3.237-62.159l.047.422-.329-.047-.047-.422.329.047zm-.282-.141l-.093-1.126.328.047.094 1.126-.329-.047zm.329.657l.516 6.802-.329-.047-.516-6.802.329.047zm.516 6.849l4.129 54.888-.329-.047-4.129-54.888.329.047zm4.129 54.982l4.128 54.794-.328-.047-4.082-54.794.282.047zm-3.238-62.066l.047.423-.328-.047-.047-.423.328.047zm-.328-.14l-.094-1.126.328.047.094 1.126-.328-.047zm.375.656l.516 6.803-.328-.047-.516-6.803.328.047zm.516 6.85l4.176 54.794-.329-.047-4.128-54.841.281.094zm4.176 54.888l4.128 54.7-.328-.047-4.129-54.747.329.094zm-3.284-61.972l.047.422-.329-.047-.047-.422.329.047zm-.329-.141l-.094-1.126.329.047.094 1.126-.329-.047zm.329.657l.516 6.755-.329-.047-.516-6.802.329.094zm.563 6.849l4.175 54.747-.328-.046-4.176-54.748.329.047zm4.175 54.794l4.176 54.654-.329-.047-4.175-54.654.328.047zm-3.331-61.878l.047.422-.328-.046-.047-.423.328.047zm-.328-.14l-.094-1.126.281.047.094 1.125-.281-.046zm.375.656l.516 6.756-.328-.047-.516-6.756.328.047zm.516 6.85l4.223 54.653-.329-.047-4.222-54.653.328.047zm4.223 54.7l4.222 54.56-.328-.047-4.223-54.56.329.047zm-3.378-61.784l.047.422-.282-.047-.047-.422.282.047zm-.282-.141l-.094-1.126.282.047.094 1.126-.282-.047zm.329.657l.516 6.755-.282-.047-.516-6.755.282.047zm.516 6.802l4.269 54.607-.328-.047-4.223-54.607.282.047zm4.269 54.701l4.223 54.466-.329-.047-4.222-54.513.328.094zm-3.425-61.738l.047.422-.281-.046-.047-.423.281.047zm-.281-.141l-.094-1.125.281.047.094 1.125-.281-.047zm.328.61l.516 6.756-.281-.047-.516-6.756.281.047zm.563 6.85l4.27 54.512-.329-.046-4.269-54.513.328.047zm4.27 54.606l4.269 54.419-.329-.047-4.269-54.419.329.047zm-3.425-61.69l.047.422-.282-.047-.047-.422.282.047zm-.329-.094l-.094-1.126.282.047.094 1.126-.282-.047zm.329.61l.516 6.755-.282-.047-.516-6.755.282.047zm.563 6.849l4.316 54.419-.329-.047-4.316-54.466.329.094zm4.316 54.513l4.316 54.325-.328-.047-4.317-54.372.329.094zm-3.472-61.597l.047.422-.281-.046-.047-.423.281.047zm-.328-.14l-.094-1.126.281.047.094 1.125-.281-.046zm.328.656l.516 6.756-.281-.047-.516-6.756.281.047zm.563 6.803l4.363 54.372-.281-.047-4.363-54.372.281.047zm4.363 54.466l4.364 54.278-.329-.047-4.316-54.278.281.047zm-3.518-61.503l.047.422-.282-.047-.047-.422.282.047zm-.329-.141l-.094-1.126.282.047.094 1.126-.282-.047zm.329.657l.563 6.708-.282-.047-.563-6.708.282.047zm.563 6.802l4.363 54.278-.282-.046-4.363-54.326.282.094zm4.41 54.372l4.363 54.185-.328-.047-4.364-54.185.329.047zm-3.613-61.409l.047.422-.281-.046-.047-.423.281.047zm-.281-.141l-.094-1.125.281.046.094 1.126-.281-.047zm.328.657l.563 6.709-.281-.047-.563-6.709.281.047zm.563 6.803l4.41 54.231-.281-.047-4.41-54.231.281.047zm4.41 54.278l4.41 54.09-.281-.046-4.41-54.138.281.094zm-3.612-61.315l.047.422-.282-.047-.047-.422.282.047zm-.282-.141l-.094-1.126.282.047.094 1.126-.282-.047zm.329.657l.563 6.708-.282-.047-.563-6.708.282.047zm.563 6.755l4.457 54.138-.282-.047-4.457-54.185.282.094zm4.457 54.232l4.457 54.043h-.282l-4.41-54.043h.235zm-3.66-61.222l.047.422-.281-.046-.047-.423.281.047zm-.281-.141l-.094-1.079.281.047.094 1.079-.281-.047zm.328.61l.563 6.709-.281-.047-.563-6.709.281.047zm.563 6.803l4.457 54.09-.281-.047-4.457-54.09.281.047zm4.457 54.184l4.457 53.95-.281-.047-4.457-53.95.281.047zm-3.706-61.221l.047.422-.282-.047-.047-.422.282.047zm-.282-.094l-.094-1.079.282.047.094 1.079-.282-.047zm.329.61l.563 6.708-.282-.047-.563-6.708.282.047zm.563 6.802l4.504 53.997-.282-.047-4.504-54.044.282.094zm4.551 54.091l4.504 53.903h-.282l-4.504-53.903h.282zm-3.754-61.128l.047.422-.281-.046-.047-.423.281.047zm-.281-.14l-.094-1.08.281.047.094 1.079-.281-.046zm.328.656l.563 6.662-.281-.047-.563-6.662.281.047zm.563 6.756l4.551 53.95-.281-.047-4.551-53.95.281.047zm4.551 54.043l4.551 53.81h-.281l-4.504-53.81h.234zm-3.8-61.033l.047.422-.282-.047-.047-.422.282.047zm-.282-.141l-.093-1.079.281.047.094 1.079-.282-.047zm.329.657l.563 6.661-.282-.047-.563-6.661.282.047zm.61 6.755l4.551 53.856-.282-.047-4.551-53.903.282.094zm4.551 53.95l4.551 53.715h-.282l-4.551-53.762.282.047zm-3.801-60.94l.047.422-.281-.047-.047-.422.281.047zm-.281-.141l-.094-1.079.282.047.093 1.079-.281-.047zm.328.61l.563 6.662-.281-.047-.563-6.662.281.047zm.563 6.756l4.598 53.809-.281-.047-4.598-53.809.281.047zM516.224 193l4.598 53.668h-.282L515.943 193h.281zm-3.847-60.893l.047.422-.282-.047-.047-.422.282.047zm-.282-.094l-.093-1.079.281.047.094 1.079-.282-.047zm.329.61l.563 6.661-.282-.046-.563-6.662.282.047zm.563 6.755l4.645 53.716-.282-.047-4.645-53.763.282.094zm4.645 53.809l4.597 53.575h-.281l-4.598-53.622.282.047zm-3.988-61.972l.094 1.079-.282-.047-.094-1.078.282.046zm-.282-.14l-1.173-13.324.282.047 1.173 13.324-.282-.047zm.376 1.313l.046.422-.281-.046-.047-.423.282.047zm.046.516l.563 6.662-.281-.047-.563-6.662.281.047zm.61 6.709l4.645 53.668-.281-.047-4.645-53.668.281.047zm4.645 53.762l4.645 53.528h-.282l-4.644-53.528h.281zm-4.035-61.878l.094 1.079-.281-.047-.094-1.079.281.047zm-.234-.141l-1.173-13.276.281.047 1.173 13.276-.281-.047zm.375 1.314l.047.422-.282-.047-.046-.422.281.047zm0 .469l.563 6.661-.281-.046-.563-6.662.281.047zm.61 6.755l4.692 53.575-.282-.047-4.692-53.622.282.094zm4.692 53.669l4.691 53.433h-.281l-4.692-53.433h.282zm-4.082-61.785l.094 1.079-.282-.047-.094-1.079.282.047zm-.235-.14l-1.173-13.277.282.047 1.173 13.277-.282-.047zm.376 1.266l.047.422-.282-.046-.047-.423.282.047zm.047.516l.562 6.615-.281-.047-.563-6.615.282.047zm.562 6.709l4.739 53.527-.281-.046-4.739-53.528.281.047zm4.739 53.621l4.692 53.387h-.282l-4.691-53.387h.281zm1.126.094l-4.738-53.574-.61-6.709-.047-.516-.094-1.173-.657-7.318.235-.094L528 247.184h-.281l-4.739-53.34zm-4.879-69.806l.234-.094 11.073 123.381h-.282l-11.025-123.287zm1.267-.516l.234-.094 11.213 124.038h-.281l-11.166-123.944zm1.266-.892l-.563-6.192s0-.047-.047-.047c0 0-.047 0-.047.047l.563 6.239h-.046c-.141.047-.188.235-.141.376.047.093.141.14.234.14l11.307 124.319-.61-.046-11.87-131.122s0-.047-.046-.047c0 0-.047 0-.047.047l11.87 131.122h-.282l-11.213-124.132-.61-6.849s0-.047-.047-.047c0 0-.047 0-.047.047l.61 6.802-.234.094-.657-7.131s0-.047-.047-.047c0 0-.047 0-.047.047l.657 7.178 11.166 123.944-.61-.047-11.776-131.169s0-.047-.047-.047c0 0-.047 0-.047.047l11.776 131.169h-.281l-11.026-123.428-.657-7.553s0-.047-.047-.047c0 0-.046 0-.046.047l.656 7.506-.234.094-.704-7.835s0-.046-.047-.046c0 0-.047 0-.047.046l.704 7.882 11.025 123.287-.61-.047-11.682-131.168s0-.047-.047-.047c0 0-.047 0-.047.047l11.683 131.168h-.282L517.115 124.46l-.75-8.21s0-.047-.047-.047c0 0-.047 0-.047.047l.751 8.21-.235.094-.516-5.958-.235-2.58s0-.047-.046-.047c0 0-.047 0-.047.047l.234 2.58 1.173 13.323.094 1.173.047.516.61 6.709 4.738 53.574 4.739 53.34-.61-.047-11.588-131.215s0-.047-.047-.047c0 0-.047 0-.047.047l11.588 131.215h-.281l-4.692-53.387-4.739-53.621-.609-6.709-.047-.516-.094-1.173-1.173-13.37-.188-2.299s0-.046-.047-.046c0 0-.047 0-.047.046l.188 2.252-.281-.047-.235-2.392s0-.047-.047-.047c0 0-.047 0-.047.047l.235 2.439 1.173 13.37.093 1.173.047.516.61 6.709 4.739 53.621 4.692 53.434-.61-.047-11.542-131.262s0-.047-.047-.047c0 0-.047 0-.047.047l11.495 131.215h-.282l-4.691-53.48-4.692-53.669-.61-6.708-.047-.516-.094-1.173-1.173-13.37-.187-2.158s0-.047-.047-.047c0 0-.047 0-.047.047l.188 2.111-.282-.047-.188-2.252s0-.047-.046-.047c0 0-.047 0-.047.047l.187 2.299 1.173 13.37.094 1.173.047.516.61 6.708 4.691 53.669 4.692 53.48-.61-.047-11.447-131.262s0-.047-.047-.047c0 0-.047 0-.047.047l11.447 131.262h-.281l-4.645-53.574-4.692-53.762-.562-6.709-.047-.516-.094-1.173-1.173-13.37-.188-2.017s0-.047-.047-.047c0 0-.047 0-.047.047l.188 1.97-.281-.047-.188-2.111s0-.047-.047-.047c0 0-.047 0-.047.047l.188 2.158 1.173 13.37.093 1.173.047.516.563 6.756 4.645 53.762 4.645 53.574-.61-.046-11.354-131.31s0-.047-.047-.047c0 0-.047 0-.047.047l11.354 131.263h-.281l-4.645-53.622-4.645-53.809-.563-6.755-.047-.516-.094-1.173-1.126-13.324-.187-1.97s0-.047-.047-.047c0 0-.047 0-.047.047l.188 1.97 1.126 13.277-.282-.047-1.126-13.23-.188-2.111s0-.046-.047-.046c0 0-.046-.001-.046.046l.187 2.111 1.126 13.277.094 1.173.047.516.563 6.755 4.645 53.809 4.598 53.622-.657-.047-11.26-131.309s0-.047-.047-.047c0 0-.047 0-.047.047l11.26 131.309h-.282l-4.597-53.715-4.598-53.903-.563-6.756-.047-.516-.094-1.173-1.126-13.182-.188-1.971s0-.046-.047-.046c0 0-.047-.001-.047.046l.188 1.971 1.126 13.135-.281-.047-1.126-13.135-.188-2.158s0-.047-.047-.047c0 0-.047 0-.047.047l.188 2.158 1.126 13.135.094 1.173.047.516.563 6.756L515.52 193l4.598 53.715-.657-.047-11.166-131.356s0-.047-.047-.047c0 0-.047 0-.047.047l11.167 131.356h-.282l-4.551-53.762-4.598-53.95-.563-6.755-.047-.516-.093-1.173-1.126-13.042-.188-1.97s0-.047-.047-.047c0 0-.047 0-.047.047l.188 1.97 1.126 12.995-.282-.047-1.079-12.995-.188-2.158s0-.047-.046-.047c0 0-.047 0-.047.047l.187 2.158 1.126 13.042.094 1.173.047.516.563 6.755 4.551 53.95 4.551 53.762-.657-.047-11.072-131.356s0-.047-.047-.047c0 0-.047 0-.047.047l11.072 131.356h-.281l-4.551-53.856-4.551-54.043-.563-6.756-.047-.516-.094-1.173-1.079-12.901-.188-1.97s0-.047-.047-.047c0 0-.046 0-.046.047l.187 1.97 1.079 12.854-.281-.047-1.079-12.854-.188-2.158s0-.047-.047-.047c0 0-.047 0-.047.047l.188 2.158 1.079 12.901.094 1.173.047.516.563 6.756 4.551 54.043 4.504 53.856-.657-.047-10.51-131.543s0-.047-.047-.047c0 0-.046 0-.046.047l10.978 131.403h-.281l-4.504-53.95-4.504-54.091-.563-6.755-.047-.516-.094-1.173-1.079-12.807-.141-1.971s0-.047-.047-.047c0 0-.047 0-.047.047l.141 1.971 1.079 12.76-.281-.047-1.08-12.713-.187-2.158s0-.047-.047-.047c0 0-.047 0-.047.047l.188 2.158 1.079 12.76.094 1.173.046.516.563 6.755 4.504 54.091 4.504 53.95-.656-.047-10.885-131.45s0-.047-.047-.047c0 0-.047 0-.047.047l10.885 131.403h-.282l-4.457-53.997-4.504-54.184-.563-6.803-.047-.516-.094-1.172-1.032-12.667-.14-1.97s0-.047-.047-.047c0 0-.047 0-.047.047l.14 1.97 1.033 12.62-.282-.047-1.032-12.62-.188-2.158s0-.047-.047-.047c0 0-.047 0-.047.047l.188 2.158 1.032 12.62.094 1.173.047.516.563 6.802 4.457 54.184 4.457 53.997-.657-.047-10.837-131.45s0-.047-.047-.047c0 0-.047 0-.047.047l10.838 131.45h-.282l-4.457-54.09-4.457-54.232-.563-6.802-.047-.516-.094-1.173-1.032-12.526-.141-1.97s0-.047-.047-.047c0 0-.047 0-.047.047l.141 1.97 1.032 12.479-.281-.047-1.032-12.479-.188-2.158s0-.047-.047-.047c0 0-.047.001-.047.047l.188 2.158 1.032 12.479.094 1.173.047.516.563 6.802 4.457 54.232 4.41 54.09-.657-.047-10.744-131.496s0-.047-.047-.047c0 0-.047 0-.047.047l10.744 131.496h-.281l-4.41-54.137-4.411-54.325-.563-6.803-.046-.516-.094-1.172-1.032-12.385-.141-1.971s0-.047-.047-.047c0 0-.047 0-.047.047l.141 1.971.985 12.338-.282-.047-.985-12.338-.187-2.158s0-.047-.047-.047c0 0-.047 0-.047.047l.187 2.158.986 12.338.093 1.173.047.516.563 6.802 4.411 54.325 4.41 54.138-.657-.047-10.65-131.497s0-.047-.047-.047c0 0-.047 0-.047.047l10.65 131.497h-.281l-4.364-54.232-4.41-54.372-.563-6.802-.047-.516-.094-1.173-.985-12.244-.141-1.971s0-.046-.047-.046c0 0-.046 0-.046.046l.14 1.971.986 12.197-.282-.047-.985-12.197-.188-2.158s0-.047-.047-.047c0 0-.047 0-.047.047l.188 2.158.985 12.244.094 1.173.047.516.563 6.802 4.363 54.373 4.363 54.231-.656-.047-10.557-131.544s0-.047-.047-.047c0 0-.046 0-.046.047l10.556 131.544h-.282l-4.363-54.325-4.363-54.466-.563-6.803-.047-.516-.094-1.172-.985-12.151-.141-1.97s0-.047-.047-.047c0 0-.047 0-.047.047l.141 1.97.985 12.057-.281-.047-.986-12.057-.187-2.158s0-.047-.047-.047c0 0-.047 0-.047.047l.188 2.158.985 12.104.094 1.173.047.516.563 6.802 4.363 54.466 4.316 54.325-.657-.047-10.462-131.591s0-.046-.047-.046c0 0-.047 0-.047.046l10.463 131.544h-.282l-4.316-54.372-4.317-54.513-.563-6.802-.047-.516-.093-1.173-.939-12.01-.14-1.97s0-.047-.047-.047c0 0-.047 0-.047.047l.14 1.97.939 11.963-.282-.047-.938-11.916-.188-2.158s0-.046-.047-.046c0 0-.047 0-.047.046l.188 2.158.938 11.963.094 1.173.047.516.563 6.802 4.317 54.56 4.316 54.372-.657-.047-10.369-131.59s0-.047-.046-.047c0 0-.047 0-.047.047l10.368 131.59h-.281l-4.27-54.466-4.316-54.606-.516-6.849-.047-.517-.094-1.172-.938-11.869-.141-1.971s0-.047-.047-.047c0 0-.047 0-.047.047l.141 1.971.938 11.822-.281-.047-.939-11.775-.187-2.158s0-.047-.047-.047c0 0-.047 0-.047.047l.188 2.158.938 11.822.094 1.173.047.516.516 6.849 4.269 54.607 4.27 54.465-.657-.046-10.275-131.638s0-.047-.047-.047c0 0-.047 0-.047.047l10.275 131.638h-.282l-4.269-54.513-4.269-54.654-.516-6.849-.047-.516-.094-1.173-.892-11.728-.14-1.971-.047-.046s-.047 0-.047.046l.141 1.971.891 11.681-.282-.047-.891-11.681-.188-2.158s0-.047-.047-.047c0 0-.046 0-.046.047l.187 2.158.892 11.681.093 1.173.047.516.516 6.849 4.27 54.701 4.222 54.56-.657-.047-10.18-131.638s0-.047-.047-.047c0 0-.047 0-.047.047l10.181 131.638h-.282l-4.222-54.607-4.223-54.747-.516-6.85-.047-.516-.094-1.173-.891-11.587-.141-1.97s0-.047-.047-.047c0 0-.047 0-.047.047l.141 1.97.892 11.541-.329-.047-.891-11.541-.188-2.158s0-.047-.047-.047c0 0-.047 0-.047.047l.188 2.158.891 11.541.094 1.172.047.516.516 6.85 4.223 54.747 4.222 54.607-.657-.047-10.087-131.685s0-.047-.047-.047c0 0-.047 0-.047.047l10.087 131.685h-.281l-4.176-54.701-4.175-54.794-.516-6.849-.047-.516-.094-1.173-.891-11.447-.141-1.97s0-.047-.047-.047c0 0-.047 0-.047.047l.141 1.97.891 11.4-.328-.047-.892-11.4-.187-2.158s0-.047-.047-.047c0 0-.047 0-.047.047l.187 2.158.892 11.447.094 1.173.047.516.516 6.849 4.175 54.841 4.176 54.701-.657-.047-9.993-131.732s0-.046-.047-.046c0 0-.047 0-.047.046l9.993 131.685h-.281l-4.129-54.747-4.176-54.888-.516-6.85-.047-.516-.093-1.173-.845-11.306-.141-2.017s0-.047-.047-.047c0 0-.046 0-.046.047l.14 2.017.845 11.26-.329-.047-.844-11.259-.188-2.159s0-.046-.047-.046c0 0-.047 0-.047.046l.188 2.159.845 11.306.093 1.219.047.516.516 6.85 4.129 54.888 4.129 54.747-.657-.047-9.9-131.731s0-.047-.046-.047c0 0-.047 0-.047.047l9.899 131.731h-.281l-4.129-54.841-4.129-54.935-.516-6.896-.047-.516-.094-1.22-.844-11.212-.141-2.018s0-.046-.047-.046c0 0-.047 0-.047.046l.141 2.018.845 11.118-.329-.047-.844-11.118-.141-2.205s0-.047-.047-.047c0 0-.047 0-.047.047l.141 2.205.844 11.165.094 1.22.047.516.516 6.896 4.129 54.982 4.128 54.841-.656-.047-9.806-131.778s0-.047-.047-.047c0 0-.047 0-.047.047l9.806 131.778h-.282l-4.081-54.935-4.082-55.029-.516-6.896-.047-.516-.094-1.22-.845-11.071-.14-2.017s0-.047-.047-.047c0 0-.047 0-.047.047l.141 2.017.797 11.025-.328-.047-.798-10.978-.141-2.205s0-.047-.046-.047c0 0-.047 0-.047.047l.14 2.205.798 11.025.094 1.219.047.516.516 6.897 4.082 55.028 4.081 54.935-.657-.047-9.711-131.778s0-.047-.047-.047c0 0-.047 0-.047.047l9.712 131.778h-.282l-4.035-54.981-4.035-55.076-.516-6.896-.047-.516-.093-1.22-.798-10.931-.141-2.017s0-.047-.047-.047c0 0-.047 0-.047.047l.141 2.017.798 10.884-.329-.047-.797-10.837-.141-2.205s0-.047-.047-.047c0 0-.047 0-.047.047l.141 2.205.798 10.884.093 1.22.047.516.516 6.896 4.035 55.123 4.035 54.981-.657-.046-9.618-131.826s0-.047-.047-.047c0 0-.047 0-.047.047l9.618 131.826h-.281l-4.035-55.076-4.035-55.17-.516-6.896-.047-.516-.094-1.22-.797-10.79-.141-2.017s0-.047-.047-.047c0 0-.047 0-.047.047l.141 2.017.798 10.743-.329-.047-.797-10.696-.141-2.205s0-.047-.047-.047c0 0-.047 0-.047.047l.141 2.205.797 10.743.094 1.22.047.516.516 6.896 4.035 55.17 3.988 55.076-.704-.047-8.492-132.107s0-.047-.047-.047c0 0-.047 0-.047.047l9.524 131.825h-.234l-3.988-55.169-3.988-55.264-.516-6.896-.047-.516-.094-1.22-.75-10.649-.141-2.017s0-.047-.047-.047c0 0-.047 0-.047.047l.141 2.017.75 10.602-.328-.047-.751-10.555-.14-2.205s0-.047-.047-.047c0 0-.047 0-.047.047l.14 2.205.751 10.602.094 1.22.047.516.516 6.896 3.988 55.264 3.988 55.169-.704-.047-9.43-131.872s0-.047-.047-.047c0 0-.047 0-.047.047l9.43 131.872h-.234l-3.941-55.216-3.941-55.31-.516-6.943-.047-.517-.094-1.219-.751-10.509-.141-2.017s0-.047-.047-.047c0 0-.046 0-.046.047l.14 2.017.751 10.462-.328-.047-.751-10.462-.141-2.205s0-.046-.047-.046c0 0-.047 0-.047.046l.141 2.205.751 10.462.094 1.22.046.516.517 6.943 3.941 55.357 3.941 55.217-.704-.047-9.337-131.919s0-.047-.047-.047c0 0-.046 0-.046.047l9.336 131.919h-.235l-3.894-55.311-3.941-55.404-.469-6.943-.047-.516-.094-1.22-.75-10.368-.141-2.017s0-.047-.047-.047c0 0-.047 0-.047.047l.141 2.017.751 10.321-.329-.047-.704-10.32-.14-2.205s0-.047-.047-.047c0 0-.047 0-.047.047l.141 2.205.75 10.32.094 1.22.047.516.469 6.943 3.894 55.404 3.894 55.311-.703-.047-9.196-131.966s0-.047-.047-.047c0 0-.047 0-.047.047l9.243 131.919h-.235l-3.894-55.404-3.894-55.451-.469-6.943-.047-.516-.094-1.22-.704-10.227-.141-2.017s0-.047-.046-.047c0 0-.047 0-.047.047l.14 2.017.704 10.18-.328-.047-.704-10.18-.141-2.205s0-.047-.047-.047c0 0-.047 0-.047.047l.141 2.205.704 10.18.094 1.22.047.516.469 6.943 3.894 55.498 3.847 55.404-.704-.047-9.148-131.966s0-.047-.047-.047c0 0-.047 0-.047.047l9.148 131.966-.234.047-3.847-55.263c.094-.047.187-.094.234-.235a.353.353 0 00-.234-.328l-3.801-55.029c.094-.047.188-.094.235-.188.047-.141-.094-.281-.235-.328h-.046l-.423-6.427c.094-.047.188-.094.235-.188.047-.141-.047-.281-.235-.328.094-.047.188-.094.188-.188.047-.141-.047-.281-.235-.328h-.047l-.046-.657c.093-.047.187-.094.234-.188.047-.141-.047-.281-.234-.328h-.047l-.657-9.805-.141-2.017s0-.047-.047-.047c0 0-.047 0-.047.047l.141 2.017.657 9.805-31.669-6.24-.141-2.486-.234-4.222 4.504-2.44 1.079-.609 82.339 8.819-13.372 5.817zm12.902-14.027l1.267 7.741-82.808-8.913-.469-8.35 82.01 9.522zm-82.573-9.523l.047 1.126-.141-1.173.094.047zm-.657-.14l1.079 8.444-11.963-2.487-.094-1.595-.329-6.802 11.307 2.44zm-11.213 9.992l.047.61.235 4.409.234 4.504.376 7.178.046.891.047.891 2.205 44.286.047.938.047.939.329 6.098-95.71-13.135-.047-9.946 16.561 2.44.939.14.938.141 19.987 2.909.891.141.891.14 19.236 2.815.845.141.844.141 18.532 2.721.798.14.844.141 6.006.891h.047c.047 0 .093-.047.14-.047.047-.046.047-.093.094-.14v-.094l-3.049-65.068 7.459 1.548.141 3.237zm-.281-5.395l.093 1.595-7.459-1.548-.094-1.595 7.319 1.548h.141zM225.857.657l212.298 95.608c0 .047 0 .141.047.188.047.094.14.14.234.14h.047l.329 6.381-7.648-1.595h-.187l-.047.047-207.841-92.09 2.768-8.68zm-38.847 155.61l3.566-46.256 31.34-23.316 3.237-.188.047.704c0 .14.141.282.282.282.14 0 .281-.141.281-.282l-.047-.985-2.674-76.28L430.32 101.8l-4.833 2.862-3.378-1.595-37.205-16.326c-.14-.047-.281 0-.375.14-.047.141 0 .282.141.376l37.205 16.326 3.378 1.595.093 1.97.564 13.276-86.233-39.078V67.039a.303.303 0 00-.282-.282.302.302 0 00-.281.281v14.403l-.376.516V67.789s0-.047-.047-.047c0 0 0-.047-.046-.047l-.047-.047h-.047L235.662 22.565h-.234s-.047 0-.047.047c0 0-.047 0-.047.047 0 0-.047.047-.047.094v.14l-.094 65.49c0 .142.141.282.282.282s.281-.14.281-.281l.094-65.068 102.372 44.849v14.683l-24.725 34.387.376-26.6 20.737-18.718c.094-.093.14-.281 0-.375-.094-.094-.282-.14-.376 0L313.45 90.307a.257.257 0 00-.14.235l-.376 27.585v1.548l-.094.094v.047c0 .046-.047.046-.047.093v.235l-.281 19.75-4.269 3.05-20.785-5.208.517-18.953c0-.14-.094-.281-.282-.281-.141-.047-.282.094-.282.281l-.516 19.188-.234 9.382-3.613-.516.282-9.851.563-19.235c0-.14-.094-.281-.282-.281-.14 0-.281.141-.281.281l-.563 18.906-19.564-4.972-10.275-99.737c0-.141-.141-.282-.282-.235-.14 0-.281.14-.234.282l10.274 99.924 1.22 12.057-5.254-.751-1.314-12.807-10.04-100.112c0-.141-.141-.282-.282-.235-.14 0-.281.14-.234.282l6.24 61.784c-.094.047-.188.14-.188.234l-1.22 26.412-1.032 23.222-.845-.14 2.393-51.745c0-.141-.094-.282-.281-.282-.188 0-.282.094-.282.282l-2.439 51.698-12.105-1.783 4.363-51.088 2.534-29.32c0-.141-.094-.282-.235-.282s-.281.094-.281.234L240.87 88.9l-4.363 51.041-4.504-.657.094-.844v-.188l.094-1.266 4.222-48.602 2.627-30.212c0-.14-.093-.281-.234-.281-.141 0-.282.093-.282.234l-2.627 30.212-4.176 48.273-.328-.093-.563-.094h-.657l-.516.094h-.094l-.469.187-.422.235h-.047l-.375.328-.329.375-.047.047-.281.423v.047l-.188.469v.187l-.375.376.094-1.924a.35.35 0 00-.094-.187l-.094-.094-.282-.282s-.046 0-.093-.047c0 0-.047 0-.047-.047h-.047l-.985.047a.356.356 0 00-.188.094l-.094.094c-.047.047-.094.094-.094.188l-.187 3.565-.939-2.393-.141-.375-.187-.328h-.047v-.047l-.282-.282-.281-.234c-.047-.047-.047-.047-.094-.047l-.422-.047h-.094l-.469.094s-.047 0-.047.047h-.047l-.375.234c-.047 0-.047.047-.047.047l-.282.375c0 .047-.047.047-.047.094l-.094.423v.093l-.328 5.583c0 .047.047.141.094.188l.094.093.328.282a.356.356 0 00.188.094l.985-.047h.094c.047 0 .047-.047.047-.047l.094-.094s0-.047.047-.094c0-.047.046-.047.046-.094l.235-3.565.938 2.393.141.375v.047l.188.328-.376 6.615-.093-.047h-.329l-.141.047h-.093l-.094.047c-.047 0-.047.047-.047.047s0 .047-.047.047v.094l-.047.562-.047-.046-.141-.188-.187-.188-.188-.14-.047-.047-.234-.094h-.094l-.235-.047h-.422l-.282.047h-.093l-.235.094-.235.14h-.047l-.187.188-.188.188v.047l-.141.234-.093.235-.047-.094v-.094l-.094-.188-.047-.047-.141-.14-.188-.141-.187-.141-.047-.047-.188-.093h-.094l-.234-.047h-.422l.046-.657c0-.047-.046-.141-.093-.141l-.047-.047-.188-.141c-.047-.046-.094-.046-.141-.046h-.047l-.61.046c-.046 0-.093.047-.14.047l-.047.047c-.047.047-.094.094-.094.188l-.188 2.862-.047-.188v-.094l-.093-.234-.047-.047-.141-.188h-.047v-.047l-.188-.141-.187-.14-.047-.047-.188-.094h-.094l-.234-.047h-.563v-.047l.047-.047.046-.047h.61l.376.047.328.047h.047c.047 0 .094 0 .141-.047l.047-.047s0-.047.047-.094c0-.047.047-.047.047-.093l.046-.704v-.094a.354.354 0 00-.093-.188l-.188-.187s-.047 0-.047-.047h-.094l-.422-.047-.422-.047h-.61l-.235.047h-.094l-.234.094-.188.14h-.047l-.187.141h-.047l-.141.188-.047.047-.141.187v.047l-.094.235v.094l-.047.234v.376l.047.234v.047l.094.188.047.047.141.187h.047l.187.141.188.141.047.047.188.094h.047l.234.046h.61v.047l-.047.094-.047.094-.094.047-.14.047h-.563l-.376-.047-.328-.047c-.047 0-.141 0-.188.047l-.047.047c-.047.047-.093.094-.093.187l-.047.704v.141s0 .047.047.047l.046.047.188.14c.047.047.094.047.141.047l.422.047.422.047h.61l.235-.047h.047l.234-.094h.047l.235-.14h.047l.187-.141h.047l.188-.188.141-.234v-.047l.047-.188-.047.61c0 .047.047.141.094.188l.047.047.187.14c.047.047.094.047.188.047l.61-.047h.141l.046-.047.047-.046v-.094c0-.047.047-.047.047-.094l.141-1.97.047-.094.094-.094.141-.047.093-.047-.14 1.97c0 .047.047.141.093.188l.047.047.188.141c.047.047.094.047.188.047l.61-.047h.14l.047-.047.047-.047s0-.047.047-.094c0-.047.047-.047.047-.094l.047-.891v.047l.094.234.047.047.14.188h.047l.188.141.188.14.047.047.234.094h.094l.235.047h.375l.281-.047h.047l.235-.094h.047l.234-.14h.047l.188-.188h.047l.188-.188.14-.234v-.047l.094-.235-.141 2.111c0 .047.047.141.094.188l.047.047.188.141c.047.047.094.047.188.047h.375l.61 6.239-2.581.141h-.047c-.093 0-.187.094-.234.187v.282l.141 1.266c-.047 0-.094.047-.141.047-.047.047-.094.094-.094.188v.188l.141 1.079h-.469l-.329.047h-.094l-.328.187s-.047 0-.047.047l-.281.235v.047h-.047l-.235.328v.235s0 .047.047.047l.047.046.188.141h.046l.047.047-.14.141-.047.047-.094.187v.047l-.094.188v.094l-.047.187-.188-.14h-.375l-.328.14-.329.141-.328.094-.235.047-.187-.047-.047-.094-.047-.234.047-1.126.047-.235.14-.188.188-.14.235-.047h.234l.282.047.281.094.282.14h.281s.047 0 .047-.047c.047-.047.047-.093.047-.14l.047-.751v-.094c0-.047-.047-.141-.094-.141l-.188-.14s-.046 0-.046-.047l-.329-.141-.328-.094-.329-.047h-.422l-.328.047h-.094l-.282.094h-.047l-.281.141h-.047l-.235.187-.187.235v.047l-.141.281v.047l-.094.282v.047l-.047.328-.094 1.173v.375l.094.282v.047l.141.234.047.047.188.235.046.047.235.187.188.141h.047l.234.141h.047l.282.094h.422l.375-.047h.047l.329-.094.328-.141.328-.141s.047 0 .047-.047c.047-.046.047-.093.047-.14v-.329l.094.141.047.047.141.141.047.047.14.14.188.141h.047l.188.094h.093l.188.047h.563l.188-.047h.047l.14-.094.047.047s.047 0 .047.047l.141.047h.328l.141-.047s.047 0 .047-.047l.094-.047.047-.047c.047-.047.047-.094.047-.141l.047-.609v-.094c0-.047-.047-.141-.094-.141l-.094-.094.047-.657c0-.14-.094-.234-.235-.281a.257.257 0 00-.234-.141c-.141 0-.282.094-.282.282l-.047 1.032v.094c0 .046.047.093.094.14.047 0 .047.047.094.047v.141h-.047l-.047-.047-.187-.188a.354.354 0 00-.188-.093c-.094 0-.141.046-.188.093l-.141.141-.093.047-.094.047h-.282l-.047.328-.14-.047-.094-.093-.094-.094-.047-.141-.047-.141v-.14l.047-.141.047-.141.094-.141.094-.14.14-.094.141-.094.141-.047h.281l.188.094s0 .047.047.047l-.141-.047h-.375l-.188.047h-.094l-.14.094c-.047 0-.047.047-.047.047l-.094.14c-.047.047-.047.047-.047.094l-.047.141v.094l.047.14c0 .047.047.047.047.047v.047l.094.141c0 .047.047.047.094.094l.14.094h.094l.141.047h.094l.187-.047h.094l.188-.094.047-.047.141-.141v-.047l.046-.047.047-.14v-.141l-.047-.141v-.047c0-.047-.046-.047-.046-.094h.046c.141 0 .282-.14.235-.328l-.094-.798 1.548-.093h-.046c-.094.047-.141.14-.141.281l.047.328a.258.258 0 00-.141.235v.141l-.094 1.501c0 .047.047.141.094.188l.047.047.188.14c.046.047.093.047.187.047h.61c.047 0 .094 0 .094-.047l.047-.047.047-.047v-.093c0-.047.047-.047.047-.094l.14-2.158h.235l.094.75v.329l.047.094.422 4.597-4.222.328h-.047c-.047 0-.094.047-.141.141v.282l.141 1.219c0 .047.047.094.047.094h-.047a.258.258 0 00-.235.141v.282l.141 1.172c0 .047.047.094.047.141h-.094c-.047 0-.094.047-.141.141v.281l.141 1.173c0 .141.141.235.281.235h.047c.141 0 .235-.141.235-.329l-.094-.891 1.501-.047a.26.26 0 00-.14.235l.093.703c0 .141.141.235.282.235h.047c.141 0 .281-.141.234-.329v-.187l-.046-.235 2.627-.14.141 1.501-5.537-.657c-.093 0-.14 0-.187.047-.047.047-.094.094-.094.187l-.563 9.195v.094l.422 2.909c0 .141.141.234.282.234h.047c.14 0 .234-.14.234-.328l-.375-2.533 7.084.75-.14 1.548-2.956 33.965-4.504-.375c-.141 0-.282.094-.282.235l-.14 2.064-1.361.047h-.047c-.094 0-.188.094-.235.187v.376l.188.797c.047.141.141.235.282.235h.047c.14-.047.234-.188.187-.329l-.094-.469.986-.047-.047.516-.047.657-1.361.047c-.094 0-.187.047-.234.188v.375l.187.798c.047.14.141.234.282.234h.047c.14-.047.234-.188.187-.328l-.093-.469.985-.047-.047.516-.047.657-1.361.046h-.047c-.093 0-.187.094-.234.188v.375l.188.751c.046.141.14.235.281.235h.047c.141-.047.235-.188.188-.329l-.094-.422.985-.047-.047.469-.281 5.114v.093l.281 1.173-1.736.047a.35.35 0 00-.187.094s-.047.047-.047.094v.375l.187.704c.047.141.141.188.282.188h.094c.14-.047.234-.188.187-.329l-.094-.375 1.408-.047v.094l.094.422c.047.094.141.188.234.188l.094.469-2.299.047c-.094 0-.187.093-.234.187v.376l.187.703c.047.141.141.188.282.188h.094c.14-.047.234-.188.187-.328l-.093-.376 1.407-.047v.094l.094.422c.047.141.141.188.281.188h.047c.141-.047.235-.188.188-.328v-.047h.141l.187.891-2.862.094h-.093l-.047.047-.047.047-.047.047v.375l.188.657c.046.14.14.187.281.187h.094c.141-.047.234-.187.188-.328l-.094-.328 1.407-.047v.094l.094.422c.047.14.141.187.282.187h.046c.141-.047.235-.187.188-.328v-.047h.751l.563 2.252-4.223-.282c-.187 0-.281.094-.281.235l-.563 9.852v.14l.516 1.549a.318.318 0 00.281.187h.094c.141-.047.235-.187.188-.328l-.422-1.173 5.254.282-.094.844-3.378 38.985-29.229.234 9.665-14.308c.047-.047.047-.094.047-.141l2.299-33.965v-.094l-7.037-46.35-6.944-44.004zm36.407-2.627l.047.469-.047.657h-.141l.188-3.519v-.375s0-.047-.047-.047c0 0 0-.047-.047-.047l-.047-.047h-.093v-.141h.093l.047.047.047.047.094.094-.094 2.862zm-.516-2.205v.141l-.047-.188.047.047zm-.704.328l-.047.563-.046.235-.094.187-.094.188-.141.141-.188.141-.187.093-.188.094-.234.047h-.188l-.188-.047-.187-.094-.141-.093-.094-.141-.094-.188-.047-.187v-.235l.047-.563.047-.235.094-.187.094-.188.14-.141.188-.14.188-.094.187-.094.235-.047h.188l.187.047.188.094.141.094.094.14.093.188.047.188v.234zm-3.425 0c0-.047 0-.047 0 0l-.046-.234c0-.047-.047-.094-.094-.141l-.094-.094c0-.047-.047-.047-.094-.094l-.141-.094h-.094l-.187-.046h-.094l-.188.046h-.094l-.187.094-.047.047-.141.141c-.047.047-.047.047-.047.094l-.047.187v.094l-.094 1.83h-.14l.234-3.8h.141l-.047 1.079c0 .047 0 .094.047.141 0 .047.047.047.094.093.047 0 .047.047.094.047s.094 0 .14-.047l.141-.093h.047l.094-.047.141-.047h.281l.188.047.141.094.14.093.094.094.094.141.047.141v.187l-.094 1.783h-.141l-.047-1.736zm-3.331.657c0-.047 0-.047-.047-.094v-.047l-.046-.094-.047-.046-.047-.047-.047-.047-.188-.094h-.047s-.047 0-.047-.047l-.187-.047h-.516l-.141-.047-.141-.094-.141-.093-.094-.141-.046-.141-.047-.188v-.187l.047-.188.046-.188.094-.187.141-.141.141-.141.187-.094.188-.046.188-.047h1.079v.187h-.094l-.422-.047h-.704l-.188.047c-.047 0-.047 0-.093.047l-.141.094s0 .047-.047.047c0 0-.047 0-.047.047l-.094.141c0 .047-.047.047-.047.093l-.047.188v.328c0 .047 0 .094.047.094l.094.141c0 .047.047.047.094.094l.141.094h.093l.188.047h.563l.188.047.141.093.14.094.094.141.094.141.047.187v.188l-.047.188-.094.187-.094.188-.14.141-.141.14-.188.094-.188.047-.234.047h-1.032v-.188h.094l.422.047h.657l.234-.047c.047 0 .047 0 .094-.047l.188-.14.047-.047.14-.188v-.047l.047-.047.047-.187v-.094l-.094-.094zm8.305 12.854v.047h-.047c.047 0 .047 0 .047-.047zm-.516-.328a.258.258 0 00-.141.234v.047h-.235c-.094 0-.141.047-.187.094l-.047.047-.047.047-.61.047v-.094l-.094-.985 1.595-.094h-.094c-.094.047-.14.141-.14.281v.376zm.046-2.111l.094.75-1.313.047v-.047l-.094-.985 1.595-.094h-.094c-.141.094-.188.188-.188.329zm.235 4.363c.094 0 .141-.047.188-.141l-.094 1.267h-.141l.047-1.126zm-2.346-1.267h-.234l-.141.047h-.094l-.141.094-.047.047-.14.093v.047l-.047-.047.047-.046.234-.188.235-.141.281-.047h.141l-.094.141c0-.047 0-.047 0 0zm-4.363 1.407l.047.329c0 .047 0 .094.047.094l.141.234c0 .047.046.047.093.094l.188.094.047.047c.047 0 .047.047.094.047l.328.047h.094l.282-.047h.046l.329-.094.328-.141v.188l-.187.094-.329.093-.328.094-.329.047h-.234l-.235-.047-.187-.094-.188-.14-.141-.188-.094-.188-.047-.234v-.282l.047-1.126.047-.281.094-.235.141-.234.187-.188.188-.188.235-.14.234-.094.282-.047h.328l.282.047.281.094.094.047v.187l-.328-.094-.329-.093h-.422l-.282.047h-.093l-.282.187s0 .047-.047.047c0 0-.047 0-.047.047l-.187.235c0 .046-.047.046-.047.093l-.094.329v.047l-.047 1.266zm5.958 6.897c0 .046.047.046.047.093l-1.407.047c.047-.047.047-.094.047-.14l-.094-.892 1.501-.094c-.094.047-.141.141-.141.282l.047.704zm-1.548.938l1.501-.047c-.093.047-.14.141-.14.281l.094.704c0 .047.046.094.046.094l-1.407.047c.047-.047.047-.094.047-.188l-.141-.891zm-.516 70.088l1.126 4.691-.422 4.644-5.396-.281.563-9.289 4.129.235zm-27.165-42.363l6.662 43.911-2.252 33.871-9.852 14.543h-1.22l6.662-92.325zm-8.445 95.14l.141-2.252h2.956l29.698-.235-.798 9.477-32.513.14.516-7.13zm-.657.985l-.469 6.145h-3.706l4.175-6.145zm-6.146 6.755h5.959l32.748-.14-.845 9.617h-2.393v-2.862c0-.469-.047-.844-.14-1.173a2.157 2.157 0 00-.423-.797c-.187-.188-.375-.376-.61-.423a2.206 2.206 0 00-.797-.14c-.375 0-.751.094-1.079.281-.329.188-.657.516-1.032.892a1.726 1.726 0 00-.704-.892 2.064 2.064 0 00-1.079-.281c-.376 0-.657.094-.985.234-.282.188-.61.423-.892.704v-.751h-1.173v5.255h-2.205v-1.548h1.079v-.986h-1.032v-5.019h-1.126l-4.082 4.691v1.267h4.035v1.548h-4.879c.094-.282.187-.61.187-.939 0-.562-.14-1.032-.422-1.36-.281-.375-.657-.657-1.22-.891v-.094c.47-.235.798-.516 1.033-.938.234-.423.375-.798.375-1.22 0-.657-.235-1.22-.751-1.689-.516-.422-1.173-.657-1.97-.657-.798 0-1.455.235-1.971.704s-.797 1.032-.797 1.736c0 .469.093.844.328 1.172.235.329.563.61.985.845v.047c-.516.234-.891.563-1.126.985-.281.422-.375.891-.375 1.36 0 .329.047.657.141.939h-1.783v-.188h-1.455v.188h-2.111c.282-.751.422-1.736.422-3.003 0-1.595-.234-2.768-.703-3.565-.469-.798-1.22-1.173-2.205-1.173-.986 0-1.736.375-2.205 1.126-.47.751-.704 1.97-.704 3.612 0 1.267.141 2.252.422 3.003h-3.143l.703-9.477zm31.622 6.193v-.235a3.2 3.2 0 01.845-.61c.281-.14.516-.234.75-.234.235 0 .47.047.61.094.141.093.282.187.329.375.094.141.14.375.14.61.047.281.047.563.047.891v2.346h-2.721v-3.237zm-1.126.891v2.346h-2.721v-3.519c.235-.234.516-.422.798-.61.281-.14.516-.234.797-.234.235 0 .469.047.61.094.141.094.282.187.329.375.093.141.14.375.14.61 0 .328.047.61.047.938zm-7.319-3.706v3.565h-3.049l3.049-3.565zm-9.149 6.099c-.187-.282-.281-.657-.281-1.032 0-.423.094-.798.281-1.126a2.28 2.28 0 01.798-.845c.282.141.563.235.798.329.234.094.422.187.563.234.422.235.703.469.844.657.141.235.235.516.235.891 0 .329-.047.61-.188.845l-3.05.047zm2.581.516c-.282.234-.657.328-1.079.328-.376 0-.704-.094-.985-.328h2.064zm-2.393-5.254a1.299 1.299 0 01-.234-.751c0-.422.14-.751.422-.985a1.67 1.67 0 011.079-.376c.469 0 .844.141 1.126.423.281.281.422.61.422 1.032 0 .375-.047.703-.188.985-.14.281-.375.563-.703.844-.235-.047-.469-.187-.704-.281l-.563-.282c-.328-.234-.516-.422-.657-.609zm-10.556 4.738c-.047-.094-.094-.141-.141-.235a2.893 2.893 0 01-.234-1.173c-.047-.422-.047-.938-.047-1.595 0-.61 0-1.126.047-1.595.046-.469.14-.844.234-1.173.141-.328.282-.562.516-.703a1.62 1.62 0 01.845-.235c.328 0 .61.094.844.235.235.141.376.375.516.703.141.329.188.704.235 1.173.047.469.094.985.094 1.642 0 .61-.047 1.173-.094 1.642a5.173 5.173 0 01-.235 1.126c-.047.094-.094.141-.14.235l-2.44-.047zm1.923.563a1.548 1.548 0 01-.703.187c-.282 0-.516-.047-.704-.187h1.407zm-6.193-9.336l-.656 8.773h-5.302l5.958-8.773zm-67.513 26.224l14.779-.093v.046l-14.779.047zm5.49 11.729l8.398-1.267h.047l.375.188c.047 0 .047.046.094.046l1.595.188 2.768.188 3.941.141 5.067.14 1.83.047-24.115.329zm65.777-.892l-7.554.094-7.929.047h-15.201l-6.803-.047-6.005-.094-5.02-.141-3.941-.14-2.768-.188-1.502-.188-.14-.093.985-9.805.047-.375h.141l1.548.046 2.768.047 3.941.047 5.02.047 5.959.047h29.745l7.459-.047-.75 10.743zm68.123-5.254l-.188 4.316-67.419.938.797-10.649 67.044-.328-.234 5.723zm.375 4.269l.188-3.988 7.835-.14 7.366-.141 4.222-.094-.047.892v.14s0 .047.047.047c0 0 .047 0 .047.047l.047.047h.094l.751.047v.188l-20.55 2.955zm20.596-3.706l-.469-.047v-.61h.469v.657zm5.584-.047l-3.238.469h-1.782v-.141l.046-.985h.751l4.269-.14-.046.797zm.516-.094v-.703h1.032v.046c0 .047.047.094.094.141.047.047.094.047.14.047l.188.047h.422l.563-.047.657-.047.751-.094.797-.093.798-.141.188-.047.703-.047-6.333.938zm15.248-3.331l-.047 1.314-.892.141-1.923.187-2.862.188-3.8.188-4.317.14h-.422l-1.126.047-4.551.141h-2.017l-4.504.094-7.366.141-7.788.14.234-5.488 7.788-.047 7.319-.094 6.522-.094 5.677-.094 4.644-.141 3.801-.093 2.862-.094 1.923-.094.845-.047v3.565zm-12.574-73.934c-.188 0-.282.093-.282.281l-.328 10.509-1.032.14-1.924-18.624 35.047-.798-.141 9.477-2.346.375-.703.188h-.047l-14.122 7.131-.516.14-9.149 1.267.282-9.711c0-.141-.094-.282-.282-.282-.141 0-.281.094-.281.282l-.282 10.039-.188 7.553v.751l-.328 11.353-3.003-.094-.75-7.178.093-2.814v-1.502l.235-7.506.328-10.743c-.046-.141-.14-.234-.281-.234zm-.61 11.306l-.188 6.943h-.047l-.703-6.803.938-.14zm-4.082-30.118l-.14-1.22.609.047-.469 1.173zm.61-.094v.657h-.234l.234-.657zm.188 1.219h.234l1.643-.046h.093l2.44-.047 4.41-.094 5.536-.141h1.971l4.598-.141h.563l2.533-.047 11.636.798-.141 8.444-35.282.798-.985-9.383.751-.141zm.375-.75l.047-1.501 1.267.093-.047 1.455-1.267-.047zm1.877.141l.047-1.502 1.876.141-.046 1.314-1.877.047zm2.44-.094l.046-1.267 3.848.282-.047.891-3.847.094zm4.41-.094v-.844l4.973.328v.375l-4.973.141zm5.536-.141v-.328h.188v.328h-.188zm.704-.047v-.281h.187v.234l-.187.047zm1.266 0v-.14l1.549.093-1.549.047zm27.587 7.788l17.829 1.126v6.333l-21.16 3.472.094-8.726c0-.141-.141-.282-.281-.282a.303.303 0 00-.282.282l-.094 9.054-.094 8.96v1.783l-.328 22.049-4.598-.141.329-21.251v-1.783l.14-8.82.141-9.757 8.304-2.299zm-8.069 1.689l.14-8.304 23.506 1.595-14.779 4.175h-.047l-.798.235h-.046l-7.976 2.299zm24.912 61.643v-2.674h.845v2.627l-.845.047zm.845.516v.376h-1.361v-.61.094s0 .046.047.046v.047l.047.047h1.267zm-.798-4.034v-1.361h.845v1.361h-.845zm0-2.158v-7.835h.798v7.835h-.798zm0-8.726v-1.267h.798v1.267h-.798zm0-2.158v-1.267h.798v1.267h-.798zm0-2.158l.047-25.192.798-.094-.047 25.333-.798-.047zm-.234-25.708c-.047 0-.047 0-.094.047 0 0-.047 0-.047.047 0 0-.047 0-.047.046 0 0 0 .047-.047.047v.047-.563l1.314-.187v.375l-1.079.141zm-.516-.845l-14.028 1.971h-.047l-5.49.75v-.328l21.254-3.003v.376l-1.689.234zm-.892 27.397v1.267l-12.573-.281v-1.314l12.573.328zm-12.573-1.219l.187-22.894 12.433-1.689-.094 24.911-12.526-.328zm12.573 3.377v1.267l-12.62-.281v-1.314l12.62.328zm0 2.158v7.835l-12.667-.188.094-7.928 12.573.281zm0 8.679v1.361l-12.667-.141v-1.36l12.667.14zm0 2.205v2.721l-12.714.375.047-3.237 12.667.141zm.235 3.237h.094s.047 0 .047-.047c0 0 .047 0 .047-.047 0 0 0-.047.046-.047 0 0 0-.046.047-.046v-.094.563l-8.257-.094 7.976-.188zm.234-44.802h-.093l-12.996 1.783h-.094s-.047 0-.047.047c0 0-.047 0-.047.047v-.469l13.465-1.877v.61-.047c0-.047-.047-.047-.047-.047-.047-.047-.094-.047-.141-.047zm-19.658 40.486v-1.36l4.927.094v1.36l-4.927-.094zm4.927.892l-.047 3.283-4.927.141.047-3.518 4.927.094zm-4.88-3.144l.094-7.975 4.879.094-.093 7.928-4.88-.047zm.094-8.866v-1.314l4.879.094v1.314l-4.879-.094zm0-2.205v-1.314l4.879.141v1.314l-4.879-.141zm.047-2.158l.282-21.861 4.832-.657-.235 22.659-4.879-.141zm.282-22.424v-.329l5.348-.75v.469s-.047-.047-.094-.047h-.094l-5.16.657zm0-1.83l.093-8.397 21.16-3.472v8.867l-21.253 3.002zm-5.63 1.36v.329l-1.877.281c-.047 0-.094.047-.141.047v-.375l2.018-.282zm-2.018-.234l.141-8.21 2.017-.328-.14 8.256-2.018.282zm2.018 1.126v.328l-1.408.188c-.047 0-.047 0-.094.047 0 0-.047 0-.047.047v-.376l1.549-.234zm-1.689 38.234h1.126l-.047 3.659h-1.126l.047-3.659zm0-.845v-1.407h1.126v1.407h-1.126zm.046-2.251l.141-8.023 1.126.047-.094 8.023-1.173-.047zm.141-8.914v-1.313l1.126.047v1.313l-1.126-.047zm0-2.205v-1.313l1.126.047v1.313l-1.126-.047zm.047-2.205l.329-20.735 1.126-.141-.282 20.923-1.173-.047zm1.455 16.42l4.597.047-.047 3.612-4.644-.047.094-3.612zm0-.845v-1.407l4.597.047v1.36h-4.597zm.046-2.251l.094-8.023 4.598.094-.094 7.976-4.598-.047zm.094-8.867v-1.313l4.598.093v1.314l-4.598-.094zm.047-2.205v-1.313l4.598.093v1.314l-4.598-.094zm-7.366 13.23v-1.408l2.909.047V310l-2.909-.046zm2.909.891l-.047 3.659-2.956-.047.047-3.659 2.956.047zm-2.862-3.143l.141-8.069 2.909.047-.141 8.022h-2.909zm.141-8.914v-1.313l2.909.047v1.313l-2.909-.047zm.047-2.252v-1.313l2.909.094v1.313l-2.909-.094zm.047-2.204l.328-18.812 2.909-1.22-.328 20.078-2.909-.046zm.187-19.329v-.234l3.238-1.407v.281l-3.238 1.36zm-.375-.703l-3.519 1.501c-.047 0-.093 0-.093.047l-3.285 1.407-2.908 1.267v-.188l13.652-5.911v.282l-3.847 1.595zm-5.958 35.607l.047-1.408h1.36l-.047 1.408h-1.36zm1.36.844l-.094 3.706h-1.36l.094-3.706h1.36zm-1.313-3.143l.187-8.116 1.361.047-.141 8.116-1.407-.047zm.187-8.96l.047-1.361 1.361.047-.047 1.36-1.361-.046zm.047-2.252l.047-1.314 1.361.047-.047 1.314-1.361-.047zm.047-2.205l.047-1.97v-.141c0-.047-.047-.047-.047-.094l-.047-.047h-.094l-.844-.047.281-13.464 2.487-1.032-.329 16.842-1.454-.047zm-.938-16.279v-.188l2.815-1.219v.234l-2.815 1.173zm2.862 32.839l2.721.047-.047 3.659-2.721-.047.047-3.659zm0-.844l.047-1.408 2.721.047-.047 1.408-2.721-.047zm.047-2.252l.14-8.069 2.722.047-.141 8.069-2.721-.047zm.187-8.961l.047-1.36 2.674.047-.046 1.36-2.675-.047zm.047-2.251l.047-1.314 2.674.047v1.314l-2.721-.047zm.047-2.205l.329-17.217 2.674-1.126-.329 18.39-2.674-.047zm.188-17.733v-.235l3.002-1.267v.235l-.046.047-2.956 1.22zm-6.569 2.721v-.188l2.628-1.126v.188l-2.628 1.126zm2.487-.423l-.281 13.089-2.299-.047.281-12.056 2.299-.986zm-2.58-1.079l.14-7.177 13.606-6.85-.141 8.116-13.605 5.911zm13.605 33.121h.141l-.047 3.659h-.141l.047-3.659zm0-.845v-1.407h.141V310h-.141zm.047-2.251l.141-8.022h.141l-.141 8.022h-.141zm.141-8.914v-1.313h.141v1.313h-.141zm0-2.205v-1.313h.141v1.313h-.141zm.047-2.205l.375-22.236.141-.047-.328 22.236-.188.047zm.375-22.799l.141-8.21.141-.047-.141 8.21-.141.047zm-24.209 8.96c-.047 0-.047 0-.093.047v-.235l8.491-.985v.282h-.093l-8.305.891zm7.976-.375l-.281 11.54-7.695-.234.282-10.462 7.694-.844zm-8.069-.375v-.188l8.961-1.079v.281s-.047 0-.047-.047h-.094l-8.82 1.033zm.046-.751l.188-7.037 8.914-1.22-.14 7.178-8.962 1.079zm-.656 12.995c.047 0 .047 0 0 0h.422l8.257.234h1.689l2.862.094h1.126l-.047 1.97v.376l-.047 1.876v.329l-.047 1.876v.329l-.187 8.679v.328l-.047 1.97v.282l-.094 3.987-14.873-.14-2.299-22.284 3.285.094zm14.215 22.893h2.205l3.285.047h.375l3.472.047h3.706l5.161.047 6.005.047 14.31.141h1.642l-.047 14.918-53.626.235-1.595-15.669 15.107.187zm-4.785 16.232c-.047-.047-.047-.047 0 0l-.751-.094-1.548-.094h-.141l47.433-.187v3.894l-44.852.375.093-3.659v-.282s-.046 0-.046-.047c0 0-.047 0-.047-.047-.094.141-.141.141-.141.141zm0 5.723c.047 0 .047 0 0 0 .047-.046.047-.14.047-.187l.047-1.126 44.852-.375v.469c0 .141.141.281.282.281.14 0 .281-.14.281-.281v-5.208l.047-15.481v-19.562l.047-25.896v-24.254a.303.303 0 00-.282-.282c-.14 0-.281.141-.281.282v5.582l-15.342-.985 14.779-4.175c.047 0 .094-.047.094-.047.047-.047.094-.094.094-.188v-.094s0-.046-.047-.046v-.047l-.047-.047-.047-.047h-.094l-25.382-1.736-11.917-.844-2.533-.188h-.563l-4.598-.328h-.563l-.704-.047-.704-.047-5.536-.376-4.363-.281-2.393-.188h-.047l-1.783-.14h-.046l-1.126-.094c-.047-.094-.141-.188-.282-.141-.141 0-.281.141-.235.281v.141l.235 2.393 1.032 9.945 1.971 19.235.75 7.318.094.751.094.75.282 2.768.75 7.459 2.346 22.847 1.689 16.232.047.375v.094a.258.258 0 00.235.141h.093l3.331.093h-.563l-3.8.094-4.738.094-5.677.094-6.522.094-7.319.093-8.022.047-67.607.376-7.789.047h-29.745l-5.958-.047-5.02-.047-3.472-.047 25.523-1.454 24.256-.094h5.02l16.139-.047h.704c.14 0 .281-.141.281-.282 0-.14-.141-.281-.281-.281h-36.22l1.126-14.168h13.887c.47.798 1.22 1.173 2.205 1.173.986 0 1.736-.375 2.206-1.126v-.047h2.345v1.032h1.455v-1.032h2.064c.094.141.235.329.375.422.282.235.563.47.939.563.375.141.797.188 1.22.188.844 0 1.548-.281 2.111-.798.141-.14.281-.281.375-.469h5.161v1.032h1.173v-1.032h2.205v1.032h1.173v-1.032h2.721v1.079h1.173v-1.36h2.721v1.079h1.173v-1.079h2.346l-.61 6.849h-3.659a.303.303 0 00-.282.282c0 .14.141.281.282.281h3.612l-.281 3.19h-12.856c-.14 0-.281.141-.281.282 0 .14.141.281.281.281h.798l-.235 3.425c0 .141.094.281.282.281h11.917c.094 0 .187-.094.234-.187v-.094l.282-3.472h4.738l-.281 3.425v.047c0 .141.094.281.235.281h14.544l5.724-.14c.046 0 .14-.047.187-.094.047-.047.094-.094.094-.188l.047-.563.141-2.721h3.847l-.094 1.97-.047.751c0 .141.094.282.282.282.14 0 .281-.094.281-.282l.047-.751.094-1.97h6.193l-.094 1.924v.422c0 .141.094.281.282.281.14 0 .281-.14.281-.281v-.422l.094-1.971h3.519l-.094 1.924v.422c0 .141.094.281.281.281.141 0 .282-.093.282-.281v-.422l.094-1.924h13.418l-.047 1.877-.047 1.923v.094c0 .047.047.047.047.094l.047.047h.938c.047.094.141.14.235.14.14 0 .281-.14.281-.281v-.141l.141-3.847h4.973l-.094 3.753v.282s0 .047.047.047c0 0 0 .047.047.047 0 0 .047 0 .047.047l.047.047h.563c.047.093.141.187.235.187h.046c.141 0 .282-.141.235-.281v-.376l-1.642-16.278-2.299-22.941-.657-6.333-.234-2.205-.047-.657v-.187l-.329-3.097v-.281l-.328-3.143-.047-.376-.328-3.143-.047-.422-.329-3.143-.047-.422-.328-3.143-.047-.47-.329-3.19-.046-.516-.094-.75-.657-6.38-.985-9.946-.047-.328-.047-.704v-.375l-.141-1.267c.047-.047.094-.094.094-.188 0-.14-.094-.281-.235-.281h-.14l-.986-.047-2.064-.141-1.079-.094-.798-.047h-.187l-.704-.046-1.548-.094-.798-.047-.422-.047-2.018-.141-.797-.047-1.079-.094-1.361-.093-.797-.047-2.44-.188-.798-.047h-.14l-3.144-.234-2.017-.141-14.826-1.032-1.642-.094-.61-.047-2.44-.188h-.046c-.094 0-.141.047-.188.094 0 0-.047.047-.047.094v.188l2.815 16.56h-.657l.235-2.487c0-.14-.094-.281-.235-.281s-.281.094-.281.235l-.235 2.767-.047.61-.047.751-3.378 39.313-.844 10.039-.892 10.18-.61 7.131h-1.642c-.14 0-.281.141-.281.282 0 .14.141.281.281.281h5.067l39.551-.234-.141 3.565h-28.525l-14.403-.047h-4.974l.282-3.472.657-7.412.891-10.133.892-10.039 3.424-39.266.094-1.126.282-3.331c.047.094.141.187.234.187h.047c.141-.046.235-.187.188-.328l-.375-1.548-1.173-4.926-.704-2.862-.047-.281-.047-.188-.328-1.407-.094-.282-.047-.187-.328-1.408-.094-.328-.047-.188-.282-1.172 119.966 8.35 2.487.188 1.267.094v23.503l.046 26.834v40.158c0 .14.141.281.282.281a.302.302 0 00.281-.281v-.563l97.024-.798v.422c0 .141.141.282.282.282.14 0 .281-.141.281-.282l-.047-.657-.281-3.518 2.627.047.188 4.175c0 .141.14.282.281.282a.303.303 0 00.282-.282l-.188-4.128h3.753l.141 3.378.047.75c0 .141.141.282.282.282.14 0 .281-.141.281-.282v-.469l55.456-.422 24.021.422 3.566.047 7.928.141-247.391 2.251zm-77.131-9.992l-.282 3.19h-11.4l.187-3.19h11.495zm5.583 3.143l.281-3.143 13.888.047-.141 3.143-14.028-.047zm14.544 0l.141-3.143h5.161l-.141 2.721v.281l-5.161.141zm-7.788-74.591c.047 0 .047 0 0 0h.141l1.313-.516c.047 0 .047-.047.094-.047.047-.047.047-.094.047-.141l40.114-.891.563 5.817-22.614-.422h-.141v-.235c0-.141-.094-.281-.281-.281-.141 0-.282.093-.282.281v.516l-.047.751-1.266 28.101-1.173 26.646h-.423l2.534-56.061c0-.141-.094-.281-.282-.281h-.093l.093-2.44c0-.141-.093-.281-.281-.281-.141-.047-.282.094-.282.281l-.14 3.237-1.267 27.491-1.173 25.943-.094 2.158h-.985l.891-19.703 1.83-39.689c0-.14-.094-.281-.281-.281-.141 0-.282.094-.282.281l-1.83 39.36-.891-.141-17.359.141 3.331-38.984.047-.47.469-.14zm-.282-.563v-.047h.047v.047h-.047zm.845-13.23l.047.282.375 2.674-.375 7.365-2.393-13.98 1.83.141.328 2.439.141.892.047.187zm16.562-1.829l-.047.891-16.046.422-.094-.61v-.234l16.187-.469zm-16.093-.61l.094-.892 1.407-.046 9.102.609-10.603.329zm17.453 2.533l-.094 2.158h-.938l.094-2.158h.938zm-.844-1.032l.047-.891.891-.047-.047.891-.891.047zm1.032 3.753h1.313l1.455-.047h1.876l2.44-.047h.845l1.36-.047 1.079-.047h.798l2.44-.046h1.266l1.924-.047h1.314l1.97-.047h.845l.985-.047h.047l.938 9.382-40.677.939.516-9.289 15.718-.422 1.548-.235zm1.126-2.768l-.094 2.158h-.375l.093-2.158h.376zm-.329-1.032l.047-.891h.376l-.047.891h-.376zm1.83.985v.423l-.047 1.219v.469h-.938l.094-2.158.891.047zm-.891-1.032l.047-.891.938-.047-.047.891-.938.047zm1.783 2.44l.046-.657h.047l-.047.657h-.046zm.093-2.487l.047-.891h.047l-.047.891h-.047zm.845 1.032v.516l-.047 1.22v.422h-.282l.094-2.205.235.047zm-.235-1.032l.047-.844h.282l-.047.844h-.282zm.845-.047l.047-.75 1.876.141-.047.609h-1.876zm1.83 1.971l-.047.657-1.877-.047.047-.657 1.877.047zm.844-.985v.703l-.047 1.22v.235h-.281l.093-2.205.235.047zm-.188-1.033v-.516h.282v.516h-.282zm1.549.986v.093h-.798v-.093h.798zm-.751-1.032v-.47l.798.047v.376l-.798.047zm.704 2.111l-.047.656h-.798l.047-.656h.798zm1.126-1.079v.187h-.516v-.14l.516-.047zm-.469-1.032v-.329l.516.047v.282h-.516zm.422 2.111l-.047.656h-.516l.047-.656h.516zm.891-1.126v.844l-.047 1.22v.094h-.281l.094-2.205.234.047zm-.234-1.032v-.235h.281v.188l-.281.047zm2.252.985v.328l-1.455-.047v-.234l1.455-.047zm-1.408-.985v-.141l1.455.094-1.455.047zm1.361 2.251l-.047.657-1.455-.047.047-.656 1.455.046zm.985.892l.094-2.205h.281l-.047.657v.375l-.047 1.173h-.281zm1.877-.845l-.047.657-1.032-.047.046-.657 1.033.047zm-1.033-.938v-.422l1.033-.047v.469h-1.033zm1.736.985l-.047.657h-.14l.047-.657h.14zm-.14-.938v-.469h.14v.516l-.14-.047zm.797 1.642l.094-2.205h.282l-.047.798v.375l-.047 1.032h-.282zm2.721-.657v.563l-1.689.047h-.187l.047-.657 1.829.047zm-1.829-.985v-.563l1.876-.047v.657l-1.876-.047zm2.392 1.595l.094-2.205h.282l-.047.985v.376l-.047.844h-.282zm1.455-.516l.047.282-.141.187h-.516v-.516l.61.047zm-.61-.985l.047-.751h.375l.094.751h-.516zm-38.847.281l15.858-.422-.094 2.158-15.436.375-.328-2.111zm12.245 63.145l.469-9.898.657.093-.891 19.516-1.924.047.469-9.57.939.094h.047c.093 0 .14-.047.187-.094 0 0 0-.047.047-.047-.047-.047 0-.094 0-.141zm.516 10.227l1.502-.047h1.36l1.501-.047 6.71-.14 4.081-.094h.845l7.319-.141h.75l3.988-.094-.093 3.237-33.546.422.141-3.049h.047l2.909-.047h2.486zm30.168-26.646v.422l-.047 1.548-25.57-.282c-.141 0-.281.141-.281.282s.14.281.281.281h.61l-.047 1.314-.985 22.471h-.985l1.173-26.318c.093-.047.187-.094.187-.234l.141-2.674c.047 0 .094.046.141.046l25.616.282-.281 2.674a.355.355 0 01.047.188zm-13.278 3.424h-.797l-4.035-.047-6.381-.047.047-1.032 23.177.235v.141l-.047.844-3.988-.047h-.751l-7.225-.047zm6.944.61l-.751 21.627-6.756.141.845-21.862 6.662.094zm-11.542-.141l3.472.047-.844 21.862-3.519.047.891-21.956zm-1.454 22.003l-6.193.093.985-22.189 6.099.046-.891 22.05zm13.512-.235l.751-21.627 3.706.047-.704 21.486-3.753.094zm4.035 8.022l.141-4.034.14-3.8.751-22.19.047-.798.188-.047-.751 22.612-.375 11.963h-.188l.047-3.706zm.516 6.286l.047-1.876h.469l-.094 3.565h-.469l.047-1.689zm.094-2.486l.375-11.681 4.551.047 1.173 11.681-6.099-.047zm.422-12.244l.751-22.425 1.501.047 2.252 22.425-4.504-.047zm1.267-23.081l.047-1.595.328-.376c.047-.047.047-.094.047-.14l.094-.986.281 3.003-.797.094zm-.188-5.865l-25.804-.328.141-2.58 25.851.328.047.282-.235 2.298zm-25.616-3.706l.14-2.58 25.335.329.235 2.533-25.71-.282zm.187-3.471l.141-2.58 24.772.375.281 2.58-25.194-.375zm.188-3.519l.141-2.58 24.256.375.281 2.581-24.678-.376zm.188-3.565l.14-2.627 23.693.422.282 2.58-24.115-.375zm.187-3.612l.141-2.627 23.13.422.281 2.627-23.552-.422zm.188-3.66l.141-2.627 22.567.423.281 2.627-22.989-.423zm.234-3.706v-.234l22.38.422v.235l-22.38-.423zm-6.662 35.373l-.469 9.617-.938-.094-16.515.094.798-9.477 17.124-.14zm-1.689 10.086l-.469 9.617-2.627.047h-.282l-13.699.047.844-9.617 16.233-.094zm-3.706 10.227l-.141 3.049-10.791.141c-.14 0-.281.141-.281.282 0 .14.141.281.281.281l11.073-.141h.328l33.499-.422-.094 3.472h-5.114l-39.832.234h-2.909l.61-6.849 13.371-.047zm33.827 7.225l-.094 3.518h-4.832l.14-3.565 4.786.047zm7.647 7.599v-.516l.047.516h-.047zm255.086 3.378l-.328-3.518 8.585.094.329 3.565-8.586-.141z"/><path d="M395.555 313.566v-.047l-1.173-46.866v-.141a.258.258 0 00-.235-.14l-23.693-1.267a.257.257 0 00-.234.141v.093l.657 47.899v.093s0 .047.046.047v.047s.047 0 .047.047h.141l24.209.282h.094s.047 0 .047-.047c0 0 .047 0 .047-.047 0 0 0-.047.047-.047l.047-.047c-.047.047-.047 0-.047 0zm-24.866-47.898l23.177 1.22 1.173 46.35-23.693-.282-.657-47.288zm49.731 48.179v-.047l-1.689-45.833v-.094c0-.047-.046-.047-.046-.047l-.047-.047h-.094l-22.661-1.22h-.094l-.047.047-.047.047v.141l1.22 46.819v.094s0 .047.047.047c0 0 0 .046.047.046 0 0 .047 0 .047.047 0 0 .047 0 .047.047h.094l23.13.235h.093s.047 0 .047-.047c0 0 .047 0 .047-.047 0 0 0-.047.047-.047l.047-.047-.188-.094zm-24.302-46.866l22.144 1.173 1.642 45.318-22.567-.234-1.219-46.257zm106.219 48.79s0-.047.047-.047v-.094l-3.284-44.333v-.093s0-.047-.047-.047c0 0 0-.047-.047-.047l-.047-.047h-.141l-8.914-.469-7.084-.376-7.179-.375-9.336-.516c-.094 0-.188.094-.235.188v.094l2.675 45.74c0 .047.046.14.093.187.047.047.094.094.188.094l9.477.094 7.319.094 7.226.094 9.054.093h.094s.047 0 .047-.047c.047-.14.047-.14.094-.187zm-.516-.422l-8.492-.094-3.097-44.145 8.352.469 3.237 43.77zm-35.235-45.506l8.774.469 2.815 44.802-8.961-.094-2.628-45.177zm12.152 45.271l-2.815-44.755 6.662.375 2.956 44.474-6.803-.094zm7.366.047l-2.956-44.473 6.521.375 3.097 44.192-6.662-.094zm-47.011-74.732s.047 0 0 0l-2.205-47.617c0-.047-.047-.094-.047-.141l-.047-.047c-.047-.046-.094-.046-.141-.046l-22.567-2.815-23.505-2.909h-.094l-24.584-3.049-24.209-3.003-1.454-.187h-.141s-.047 0-.047.047l-.047.047-.047.046v.094l-.047 51.745v.094s0 .047.047.047c0 0 0 .047.047.047 0 0 .047 0 .047.047 0 0 .047 0 .047.047h.094l1.454.14 24.819 1.971 25.147 2.017 24.069 1.923 23.036 1.83c.047 0 .094-.047.14-.047.235-.094.235-.188.235-.281 0 .047.047.047 0 0 .047.047 0 .047 0 0zm-.516-.282l-22.52-1.782-1.689-48.039 22.004 2.721 2.205 47.1zm-96.836-7.74l-1.267-.094.047-51.182 1.126.141h.047l23.974 3.002.61 50.103-24.537-1.97zm24.49-48.086l24.022 3.002 1.173 49.071-24.632-1.97-.563-50.103zm24.585 3.049l22.989 2.862 1.689 48.086-23.505-1.877-1.173-49.071zm70.375 9.383c0 .047 0 .047 0 0v.094l2.628 44.661c0 .047.047.14.094.14.046.047.093.047.14.047l16.468 1.314c.047 0 .094-.047.141-.047.047-.047.047-.094.094-.141l-2.909-43.957v-.141l-.047-.047h-.047l-.047-.047h-.094l-16.139-2.017h-.188c-.047 0-.047.047-.094.047.047 0 .047.047 0 .094zm19.049 45.74l-15.905-1.267-2.581-44.051 15.577 1.923 2.909 43.395z"/><path d="M436.137 193.657c0-.094-.047-.141-.094-.188l-.047-.047c-.046-.047-.093-.047-.14-.047l-20.831-2.58h-.235c-.047 0-.047.047-.094.047l-.047.047v.094l1.689 46.537c0 .047.047.141.094.188.047.047.094.047.141.047l21.347 1.735c.047 0 .094-.046.141-.046.047-.047.047-.094.094-.141l-2.018-45.646zm-20.925-2.252l20.362 2.533 2.065 45.13-20.785-1.689-1.642-45.974zm-.047 46.115c0-.047 0-.047 0 0l-1.642-46.631c0-.047-.047-.141-.094-.141-.047-.047-.094-.047-.141-.047l-21.816-2.674h-.188c-.047 0-.047.047-.094.047l-.046.047v.094l1.172 47.522v.094s0 .047.047.047c0 0 0 .047.047.047l.047.047s.047 0 .047.047h.094l22.285 1.783c.047 0 .141-.047.188-.047.047-.094.047-.141.094-.235zm-23.458-49.024l21.253 2.627 1.642 46.069-21.723-1.736-1.172-46.96zm-.656 47.054l-1.126-47.617v-.094c-.047-.094-.094-.187-.235-.187l-22.754-2.815h-.094c-.047 0-.047.047-.094.047l-.047.047v.094l.61 48.507v.094s0 .047.047.047c0 0 0 .047.047.047 0 0 .047 0 .047.047 0 0 .047 0 .047.047h.094l23.27 1.876c.047 0 .141-.046.188-.046-.047.046 0 0 0-.094 0 .047 0 0 0 0zm-23.881-50.103l22.239 2.768 1.126 47.053-22.755-1.829-.61-47.992zm-1.314 48.085c0-.046 0-.046 0 0l-.563-48.601v-.094s0-.047-.047-.047v-.047l-.047-.047h-.141l-23.27-2.862-.469-.046h-.094c-.047 0-.047.046-.094.046l-.047.047v49.775s0 .047.047.047c0 0 .047 0 .047.047l.047.047h.094l.469.047 23.833 1.923c.047 0 .141-.047.188-.047 0-.047.047-.141.047-.188zm-.563-.328l-23.552-1.923h-.282v-48.977h.188l23.036 2.861.61 48.039zm92.051-102.598c-.047 0-.047 0 0 0v.093l2.58 43.629c0 .047.047.094.094.141.047.047.094.047.141.047l15.998 2.299h.047c.047 0 .094-.047.141-.047.047-.047.047-.094.094-.141v-.094l-2.862-43.019v-.094l-.047-.047-.047-.046s-.047 0-.047-.047h-.047l-15.717-2.909h-.187s-.047 0-.047.047l-.047.047s0 .047-.047.047v.094zm18.485 45.693l-15.436-2.252-2.533-43.066 15.154 2.815 2.815 42.503zM191.42 144.023s0 .047 0 0v.047l.047.422c0 .047 0 .094.047.094l.234.328.047.047.329.281.328.235c.047 0 .047.047.094.047l.422.047h.047l1.736-.094.422-.047h.047l.376-.141h.046l.376-.187h.047l.328-.282h.047l.282-.328.234-.376v-.046l.141-.376v-.047l.094-.422v-.563l-.141-.422v-.094l-.235-.375h-.047v-.047l-.093-.094.093-.094.047-.047.188-.328v-.047l.094-.328v-.047l.047-.329v-.563l-.094-.375v-.094l-.141-.328-.047-.047-.234-.282h-.047v-.046l-.329-.282-.281-.234-.047-.047-.328-.141h-.094l-.376-.094h-.469l-1.595.094h-.094l-.422.094h-.094l-.375.234c-.047 0-.047.047-.047.047l-.282.375c0 .047-.047.047-.047.094l-.14.423v.093l-.141 4.692zm3.425-5.442h.328l.282.094.281.14.235.188.188.235.14.281.094.281v.329l-.047.281-.094.282-.14.281-.235.235c0 .047 0 .047-.047.094 0 .047-.047.047-.047.094 0 .046.047.046.047.093s0 .047.047.094l.282.282.187.281.094.329v.375l-.047.375-.141.329-.187.328-.235.281-.281.235-.329.188-.328.14-.376.047-1.689.094-.328-.047-.235-.141-.14-.234-.047-.329.328-4.456.094-.376.188-.281.281-.188.376-.094 1.501-.14z"/><path d="M192.968 139.519s0 .047 0 0c0 .047-.047.094-.047.094l-.094 1.36c0 .047.047.141.094.188.047.047.094.047.141.094h.375l1.173-.047h.047l.281-.047c.047 0 .047 0 .094-.047l.235-.188.047-.047.187-.234v-.047l.047-.047.094-.281v-.094l-.047-.282v-.047c0-.047 0-.047-.047-.047l-.047-.093-.046-.094c0-.047-.047-.047-.094-.094l-.235-.141c-.047 0-.047-.047-.094-.047l-.281-.047h-.047l-1.455.047c-.047 0-.093 0-.093.047h-.047c-.047 0-.047.047-.094.094 0-.047-.047 0-.047.047zm.844.563l1.267-.047h.047v.094l-.047.188-.094.14-.187.094-.235.047-.844.047.093-.563zm1.877 2.393l-.094-.141-.047-.094c0-.047-.046-.047-.093-.094l-.282-.188c-.047 0-.047-.046-.094-.046l-.328-.047h-.047l-1.689.093h-.047c-.047 0-.047.047-.094.047l-.047.047v.141l-.14 1.642v.188c0 .093.093.14.14.187l.047.047h.376l1.313-.047h.047l.329-.094c.046 0 .046 0 .093-.046l.282-.188.047-.047.187-.281v-.047l.047-.047.094-.329v-.094l-.047-.328v-.047c.094-.141.047-.187.047-.187zm-2.064.281l1.407-.047.188.047.047.235-.047.234-.141.188-.234.141-.282.046-.985.047.047-.891zm3.941.188v.047l.141.469v.047l.188.422.047.047.281.328h.047l.329.282.375.281.047.047.422.188h.094l.469.14h.047l.516.047h.047l.516-.093h.047l.469-.188h.047l.469-.235h.047l.375-.328h.047l.329-.375.281-.423v-.047l.188-.469v-.047l.094-.516.281-4.222v-.047c0-.047-.047-.094-.047-.14l-.093-.094-.329-.282c-.047-.047-.094-.047-.141-.047l-.985.047a.356.356 0 00-.188.094l-.093.094c-.047.047-.094.094-.094.188l-.282 4.175-.047.187-.093.188-.282.329-.375.234-.423.094-.375-.047-.047-.047-.141-.188-.046-.14v-.235l.281-4.175v-.047c0-.047-.047-.094-.047-.141l-.094-.094-.469-.328c-.047 0-.047 0-.094-.047-.047 0-.047-.047-.094-.047l-.985.047a.35.35 0 00-.187.094l-.094.094c-.047.047-.094.094-.094.187l-.282 4.223v.469zm1.455-4.551l-.282 3.988v.281l.047.235s0 .047.047.047l.282.375c0 .047.047.047.093.094l.235.141.141.093c.047 0 .047.047.094.047l.516.094h.094l.516-.141c.047 0 .047 0 .047-.047l.469-.281.047-.047.328-.422v-.047l.047-.047.094-.235v-.046l.047-.235.281-4.081.657-.047-.281 3.987-.094.469-.188.423-.235.375-.281.328-.375.282-.423.234-.422.141-.469.047-.422-.047-.423-.094-.375-.187-.328-.235-.235-.281-.188-.376-.093-.375v-.469l.281-4.035.751.094zm4.644 6.146c0 .094.047.14.094.187l.094.094.328.282c.047.047.094.047.188.047l.985-.047h.141c.047 0 .047-.047.047-.047l.094-.094v-.047c0-.047.046-.047.046-.094l.47-6.568c0-.047-.047-.093-.047-.14l-.094-.094-.329-.282c-.046-.047-.093-.047-.14-.047l-.986.047a.357.357 0 00-.187.094l-.094.094c-.047.047-.094.094-.094.188l-.516 6.427zm1.642-6.427l-.422 6.239-.657.047.422-6.239.657-.047zm.939 5.348l.047.422c0 .047 0 .094.047.094l.235.328.047.047.328.282.328.234c.047 0 .047.047.094.047l.422.047h.047l3.097-.141h.094c.047 0 .047-.047.047-.047l.093-.094v-.093c0-.047.047-.047.047-.094l.047-.985c0-.047-.047-.094-.047-.141l-.094-.094-.328-.281h-.047c-.047-.047-.094-.047-.141-.047l-2.392.093.328-4.878c0-.047-.047-.094-.047-.141l-.094-.094-.328-.281c-.047-.047-.094-.094-.188-.094l-.985.047a.362.362 0 00-.188.093l-.093.094c-.047.047-.094.094-.094.188l-.376 5.536c.094-.094.094-.094.094-.047 0-.047 0-.047 0 0zm1.548-5.489l-.328 5.207c0 .047 0 .094.047.141v.047c0 .094.094.141.141.141l.047.047h.375l2.486-.094-.046.656-2.909.141-.329-.047-.234-.14-.141-.235-.047-.328.375-5.395.563-.141zm3.8 5.254l.047.422c0 .047 0 .094.047.094l.234.329.047.046.329.282.328.235c.047 0 .047.046.094.046l.422.047h.047l1.314-.047h.047l.563-.093h.094l.516-.235h.047l.469-.328.047-.047.422-.422h.047l.375-.517.282-.609v-.047l.187-.657v-.047l.094-.704v-.75l-.141-.657v-.047l-.234-.563v-.094l-.329-.469h-.046v-.047l-.376-.375-.328-.282-.047-.047-.469-.281h-.094l-.516-.141h-.094l-.563-.047-1.314.047h-.094l-.469.094h-.094l-.375.235c-.047 0-.047.047-.047.047l-.281.375c0 .047-.047.047-.047.094l-.141.422v.094l-.282 4.55c.282.047.282.047.282.094 0-.047 0-.047 0 0zm3.097-5.536l.516.047.422.141.375.235.329.328.281.422.188.516.094.563v.657l-.094.657-.188.61-.281.563-.329.469-.422.375-.469.282-.469.187-.516.094-1.267.047-.376-.047-.234-.141-.141-.234-.047-.329.282-4.456.094-.376.187-.281.282-.188.375-.094 1.408-.047z"/><path d="M213.096 138.628v.093l-.282 4.27v.187c0 .094.094.141.188.188l.047.047h.328l.939-.047h.047l.328-.047h.094l.281-.141.047-.047.282-.234h.047l.234-.282.188-.328v-.047l.188-.375v-.047l.094-.422v-.047l.046-.423v-.375l-.046-.375-.141-.376v-.046l-.188-.329-.047-.047-.141-.187-.046-.094h-.047v-.047l-.235-.188-.047-.047-.281-.14h-.094l-.329-.047-1.173.047c-.046 0-.093 0-.14.046h-.047c-.047 0-.094.047-.094.047.047-.234 0-.234 0-.14 0-.047 0 0 0 0zm.844.563l.986-.047.234.047.188.093.094.094.141.282.093.328.047.329v.375l-.047.375-.093.375-.141.329-.188.328-.234.282-.235.187-.235.141-.234.047-.61.047.234-3.612zm3.941 4.738a.35.35 0 00.094.187l.094.094.328.282a.356.356 0 00.188.094l.985-.047h.094c.047 0 .047-.047.047-.047l.094-.094s0-.047.047-.094c0-.047.047-.047.047-.094l.422-6.568a.357.357 0 00-.094-.187l-.094-.094-.281-.281c-.047-.047-.094-.047-.094-.047-.047 0-.047-.047-.094-.047l-.985.047a.362.362 0 00-.188.093l-.094.094c-.047.047-.047.094-.094.141l-.422 6.568c-.047-.047 0-.047 0 0zm1.595-6.474l-.375 6.239-.657.047.376-6.239.656-.047zm.891 13.98c0 .047-.047.047-.047.094l-.047.234v.047l-.046.563v.094l.046.235c0 .046 0 .093.047.093l.141.188c0 .047.047.047.094.094l.141.094c.047 0 .047.047.094.047l.234.046h.094l.235-.046c.046 0 .046 0 .093-.047l.188-.141.047-.047.141-.188v-.047l.047-.046.047-.235v-.047l.046-.563v-.094l-.046-.234v-.094l-.094-.094-.047-.094-.047-.047-.047-.047-.188-.14s-.047 0-.047-.047h-.047l-.234-.047h-.094l-.235.047c-.046 0-.046 0-.093.047l-.188.14c-.047 0-.047.047-.047.047l-.141.235zm.845 1.267l-.141.046h-.094v-.14l.047-.516.047-.188.094-.141.141-.094.14-.046h.094v.14l-.047.516-.047.188-.093.141-.141.094zm341.789 192.999l-79.571 1.736a.303.303 0 00-.282.282c0 .14.141.281.282.281l79.524-1.736v-.563h.047z"/></g><defs><clipPath id="clip0"><path fill="#fff" d="M0 0h563v348H0z"/></clipPath></defs></svg>