<svg width="38" height="39" viewBox="0 0 38 39" fill="none" xmlns="http://www.w3.org/2000/svg">
<path fill-rule="evenodd" clip-rule="evenodd" d="M2.17715 6.62207H0.280273V5.33521H2.17715V6.62207Z" fill="white" opacity="0.5"/>
<path fill-rule="evenodd" clip-rule="evenodd" d="M5.80508 6.62158H3.9082V5.33472H5.80508V6.62158Z" fill="white" opacity="0.5"/>
<path fill-rule="evenodd" clip-rule="evenodd" d="M9.43496 6.62158H7.53809V5.33472H9.43496V6.62158Z" fill="white" opacity="0.5"/>
<path fill-rule="evenodd" clip-rule="evenodd" d="M30.1361 6.62207H28.2393V5.33521H30.1361V6.62207Z" fill="white" opacity="0.5"/>
<path fill-rule="evenodd" clip-rule="evenodd" d="M33.765 6.62158H31.8682V5.33472H33.765V6.62158Z" fill="white" opacity="0.5"/>
<path fill-rule="evenodd" clip-rule="evenodd" d="M37.393 6.62158H35.4961V5.33472H37.393V6.62158Z" fill="white" opacity="0.5"/>
<path fill-rule="evenodd" clip-rule="evenodd" d="M5.68742 22.4232C5.56546 22.4416 5.46351 22.5535 5.46351 22.6775V30.8634C5.46351 30.9992 5.58564 31.1205 5.72245 31.1205H32.5261C32.632 31.1205 32.7028 31.0855 32.7384 31.0545C32.7673 31.0295 32.7851 30.9993 32.7851 30.9453V22.7594C32.7851 22.6348 32.6822 22.5224 32.5595 22.5048L21.7714 24.1396H16.4748L5.68742 22.4232ZM4.16699 22.6775C4.16699 21.831 4.86959 21.1337 5.72245 21.1337H5.77408L16.578 22.8527H21.673L32.4769 21.2155H32.5261C33.379 21.2155 34.0816 21.9129 34.0816 22.7594V30.9453C34.0816 31.8698 33.295 32.4073 32.5261 32.4073H5.72245C4.86959 32.4073 4.16699 31.71 4.16699 30.8634V22.6775Z" fill="white" opacity="0.5"/>
<path fill-rule="evenodd" clip-rule="evenodd" d="M3.18132 31.5339C3.46358 31.2538 3.8429 31.1204 4.23764 31.1204H34.4227C34.8375 31.1204 35.2076 31.3193 35.4533 31.5806C35.6869 31.829 35.8719 32.206 35.8132 32.6342V34.2196C35.8132 34.6114 35.6788 34.9879 35.3966 35.268C35.1143 35.5482 34.735 35.6816 34.3402 35.6816H4.23764C3.8429 35.6816 3.46358 35.5482 3.18132 35.268C2.89906 34.9879 2.76465 34.6114 2.76465 34.2196V32.5824C2.76465 32.1906 2.89906 31.8141 3.18132 31.5339ZM4.0981 32.4439C4.0917 32.4502 4.06117 32.483 4.06117 32.5824V34.2196C4.06117 34.3189 4.0917 34.3517 4.0981 34.3581C4.10449 34.3644 4.13753 34.3947 4.23764 34.3947H34.3402C34.4403 34.3947 34.4734 34.3644 34.4798 34.3581C34.4862 34.3517 34.5167 34.3189 34.5167 34.2196V32.5187L34.524 32.4824C34.5204 32.4764 34.5145 32.4682 34.5055 32.4586C34.4882 32.4402 34.467 32.4251 34.4471 32.4158C34.4314 32.4084 34.4226 32.4074 34.4217 32.4072H4.23764C4.13753 32.4072 4.10449 32.4375 4.0981 32.4439Z" fill="white" opacity="0.5"/>
<path fill-rule="evenodd" clip-rule="evenodd" d="M6.53577 37.5053V35.693H5.23926V37.985C5.23926 38.2352 5.35877 38.4316 5.48067 38.5526C5.60258 38.6736 5.80039 38.7922 6.05246 38.7922H11.0008C11.2529 38.7922 11.4507 38.6736 11.5726 38.5526C11.6945 38.4316 11.814 38.2352 11.814 37.985V35.693H10.5175V37.5053H6.53577Z" fill="white" opacity="0.5"/>
<path fill-rule="evenodd" clip-rule="evenodd" d="M28.0602 37.5053V35.693H26.7637V37.985C26.7637 38.2352 26.8832 38.4316 27.0051 38.5526C27.127 38.6736 27.3248 38.7922 27.5769 38.7922H32.5252C32.7773 38.7922 32.9751 38.6736 33.097 38.5526C33.2189 38.4316 33.3385 38.2352 33.3385 37.985V35.693H32.0419V37.5053H28.0602Z" fill="white" opacity="0.5"/>
<path fill-rule="evenodd" clip-rule="evenodd" d="M16.0328 26.6772H14.4658V25.3904H16.0328V26.6772Z" fill="white" opacity="0.5"/>
<path fill-rule="evenodd" clip-rule="evenodd" d="M18.589 26.6771H17.1045V25.3903H18.589V26.6771Z" fill="white" opacity="0.5"/>
<path fill-rule="evenodd" clip-rule="evenodd" d="M21.2281 26.6771H19.6611V25.3903H21.2281V26.6771Z" fill="white" opacity="0.5"/>
<path fill-rule="evenodd" clip-rule="evenodd" d="M23.7843 26.6771H22.2998V25.3903H23.7843V26.6771Z" fill="white" opacity="0.5"/>
<path fill-rule="evenodd" clip-rule="evenodd" d="M16.0328 29.2968H14.4658V28.0099H16.0328V29.2968Z" fill="white" opacity="0.5"/>
<path fill-rule="evenodd" clip-rule="evenodd" d="M18.589 29.2964H17.1045V28.0095H18.589V29.2964Z" fill="white" opacity="0.5"/>
<path fill-rule="evenodd" clip-rule="evenodd" d="M21.2281 29.2964H19.6611V28.0095H21.2281V29.2964Z" fill="white" opacity="0.5"/>
<path fill-rule="evenodd" clip-rule="evenodd" d="M23.7843 29.2964H22.2998V28.0095H23.7843V29.2964Z" fill="white" opacity="0.5"/>
<path fill-rule="evenodd" clip-rule="evenodd" d="M34.4226 19.6373C33.7786 19.6373 33.2565 20.1555 33.2565 20.7948C33.2565 21.434 33.7786 21.9523 34.4226 21.9523C35.0667 21.9523 35.5888 21.434 35.5888 20.7948C35.5888 20.1555 35.0667 19.6373 34.4226 19.6373ZM31.96 20.7948C31.96 19.4448 33.0625 18.3505 34.4226 18.3505C35.7827 18.3505 36.8853 19.4448 36.8853 20.7948C36.8853 22.1448 35.7827 23.2391 34.4226 23.2391C33.0625 23.2391 31.96 22.1448 31.96 20.7948Z" fill="white" opacity="0.5"/>
<path fill-rule="evenodd" clip-rule="evenodd" d="M3.41383 19.6373C2.76979 19.6373 2.24769 20.1555 2.24769 20.7948C2.24769 21.434 2.76979 21.9523 3.41383 21.9523C4.05788 21.9523 4.57998 21.434 4.57998 20.7948C4.57998 20.1555 4.05788 19.6373 3.41383 19.6373ZM0.951172 20.7948C0.951172 19.4448 2.05374 18.3505 3.41383 18.3505C4.77393 18.3505 5.8765 19.4448 5.8765 20.7948C5.8765 22.1448 4.77393 23.2391 3.41383 23.2391C2.05374 23.2391 0.951172 22.1448 0.951172 20.7948Z" fill="white" opacity="0.5"/>
<path fill-rule="evenodd" clip-rule="evenodd" d="M9.60679 13.9494L6.78751 20.4788H31.7075L28.9074 13.994C28.8741 13.9545 28.8272 13.9112 28.7731 13.8766C28.7001 13.8301 28.6558 13.8253 28.6494 13.8253H9.84557C9.73111 13.8253 9.64889 13.8762 9.60679 13.9494ZM8.44102 13.3853C8.73098 12.8097 9.30609 12.5385 9.84557 12.5385H28.6494C28.9729 12.5385 29.2584 12.6565 29.4742 12.7941C29.6916 12.9328 29.8802 13.1177 30.0135 13.3161L30.0465 13.3653L33.6737 21.7656H4.82129L8.4325 13.4022L8.44102 13.3853Z" fill="white" opacity="0.5"/>
<path fill-rule="evenodd" clip-rule="evenodd" d="M25.4443 24.981H31.9366V29.2262H30.6401V26.2678H26.7409V29.2262H25.4443V24.981Z" fill="white" opacity="0.5"/>
<path fill-rule="evenodd" clip-rule="evenodd" d="M6.39258 24.981H12.8849V29.2262H11.5884V26.2678H7.68909V29.2262H6.39258V24.981Z" fill="white" opacity="0.5"/>
<path fill-rule="evenodd" clip-rule="evenodd" d="M16.4561 8.59782V2.70398H17.7526V8.59782H16.4561Z" fill="white" opacity="0.5"/>
<path fill-rule="evenodd" clip-rule="evenodd" d="M16.374 2.06055H19.7439C20.6491 2.06055 21.5468 2.81055 21.5468 3.85V4.34116C21.5468 5.30023 20.73 6.04876 19.7439 6.04876H16.374V2.06055ZM17.6705 3.34741V4.76189H19.7439C20.0774 4.76189 20.2503 4.52811 20.2503 4.34116V3.85C20.2503 3.57971 19.9933 3.34741 19.7439 3.34741H17.6705Z" fill="white" opacity="0.5"/>
<path fill-rule="evenodd" clip-rule="evenodd" d="M14.1246 1.3009V10.0008H23.8795V1.3009H14.1246ZM13.0695 0.253655C13.1915 0.132656 13.3893 0.0140381 13.6413 0.0140381H24.3628C24.6149 0.0140381 24.8127 0.132656 24.9346 0.253655C25.0565 0.374655 25.176 0.570993 25.176 0.821188V10.3987C25.176 10.734 24.9639 11.2877 24.3628 11.2877H13.6413C13.3893 11.2877 13.1915 11.1691 13.0695 11.0481C12.9476 10.9271 12.8281 10.7307 12.8281 10.4805V0.821188C12.8281 0.570993 12.9476 0.374655 13.0695 0.253655Z" fill="white" opacity="0.5"/>
</svg>
