<svg width="38" height="39" fill="none" xmlns="http://www.w3.org/2000/svg"><path fill-rule="evenodd" clip-rule="evenodd" d="M2.177 6.622H.28V5.335h1.897v1.287zm3.628 0H3.908V5.335h1.897v1.287zm3.63 0H7.538V5.335h1.897v1.287zm20.701 0H28.24V5.335h1.897v1.287zm3.629 0h-1.897V5.335h1.897v1.287zm3.628 0h-1.897V5.335h1.897v1.287zM5.687 22.423a.267.267 0 00-.223.255v8.185c0 .136.122.258.258.258h26.804a.324.324 0 00.212-.066c.03-.026.047-.056.047-.11V22.76a.267.267 0 00-.225-.254L21.77 24.14h-5.296L5.687 22.423zm-1.52.255c0-.847.703-1.544 1.555-1.544h.052l10.804 1.719h5.095l10.804-1.638h.05c.852 0 1.555.698 1.555 1.544v8.186c0 .925-.787 1.462-1.556 1.462H5.722a1.558 1.558 0 01-1.555-1.544v-8.186z" fill="#fff" opacity=".5"/><path fill-rule="evenodd" clip-rule="evenodd" d="M3.181 31.534c.283-.28.662-.414 1.057-.414h30.185c.414 0 .785.2 1.03.46.234.249.419.626.36 1.054v1.586c0 .391-.134.768-.416 1.048-.283.28-.662.414-1.057.414H4.238c-.395 0-.774-.134-1.057-.414a1.455 1.455 0 01-.416-1.048v-1.638c0-.391.134-.768.416-1.048zm.917.91c-.006.006-.037.039-.037.138v1.638c0 .099.03.132.037.138.006.006.04.037.14.037H34.34c.1 0 .133-.03.14-.037.006-.006.037-.04.037-.138v-1.701l.007-.037a.198.198 0 00-.077-.067.086.086 0 00-.025-.008H4.238c-.1 0-.134.03-.14.037zm2.438 5.061v-1.812H5.239v2.292c0 .25.12.447.242.568.122.12.32.24.571.24h4.949c.252 0 .45-.12.572-.24a.804.804 0 00.241-.568v-2.292h-1.296v1.812H6.535zm21.524 0v-1.812h-1.296v2.292a.821.821 0 00.813.808h4.948c.252 0 .45-.12.572-.24a.804.804 0 00.242-.568v-2.292h-1.297v1.812H28.06zM16.033 26.677h-1.567V25.39h1.567v1.287zm2.556 0h-1.484V25.39h1.484v1.287zm2.639 0h-1.567V25.39h1.567v1.287zm2.556 0H22.3V25.39h1.484v1.287zm-7.751 2.62h-1.567V28.01h1.567v1.287zm2.556-.001h-1.484V28.01h1.484v1.287zm2.639 0h-1.567V28.01h1.567v1.287zm2.556 0H22.3V28.01h1.484v1.287zm10.639-9.659c-.644 0-1.166.518-1.166 1.158 0 .639.522 1.157 1.166 1.157.644 0 1.166-.518 1.166-1.157 0-.64-.522-1.158-1.166-1.158zm-2.463 1.158a2.453 2.453 0 012.463-2.445 2.454 2.454 0 012.462 2.445 2.454 2.454 0 01-2.462 2.444 2.453 2.453 0 01-2.463-2.444zM3.414 19.637c-.644 0-1.166.518-1.166 1.158 0 .639.522 1.157 1.166 1.157.644 0 1.166-.518 1.166-1.157 0-.64-.522-1.158-1.166-1.158zM.95 20.795a2.453 2.453 0 012.463-2.445 2.454 2.454 0 012.462 2.445 2.454 2.454 0 01-2.462 2.444A2.453 2.453 0 01.95 20.795z" fill="#fff" opacity=".5"/><path fill-rule="evenodd" clip-rule="evenodd" d="M9.607 13.95l-2.82 6.529h24.92l-2.8-6.485a.612.612 0 00-.134-.117.28.28 0 00-.124-.052H9.846c-.115 0-.197.051-.24.124zm-1.166-.565c.29-.575.865-.846 1.405-.846h18.803c.324 0 .61.117.825.255.218.139.406.324.54.522l.033.05 3.627 8.4H4.82l3.611-8.364.009-.017zm17.003 11.596h6.493v4.245H30.64v-2.958h-3.9v2.958h-1.296v-4.245zm-19.051 0h6.492v4.245h-1.297v-2.958H7.69v2.958H6.393v-4.245zM16.456 8.598V2.704h1.297v5.894h-1.297z" fill="#fff" opacity=".5"/><path fill-rule="evenodd" clip-rule="evenodd" d="M16.374 2.06h3.37c.905 0 1.803.75 1.803 1.79v.491c0 .96-.817 1.708-1.803 1.708h-3.37V2.06zm1.297 1.287v1.415h2.073c.333 0 .506-.234.506-.42V3.85c0-.27-.257-.503-.506-.503H17.67z" fill="#fff" opacity=".5"/><path fill-rule="evenodd" clip-rule="evenodd" d="M14.125 1.3V10h9.755V1.3h-9.755zM13.069.255a.816.816 0 01.572-.24h10.722c.252 0 .45.119.572.24a.804.804 0 01.241.567V10.4c0 .335-.212.889-.813.889H13.64a.816.816 0 01-.572-.24.804.804 0 01-.24-.568V.821c0-.25.119-.446.24-.567z" fill="#fff" opacity=".5"/></svg>