<svg width="36" height="36" fill="none" xmlns="http://www.w3.org/2000/svg"><path d="M34.96 28.189c-1.377-1.378-4.686-3.45-6.316-4.227-1.893-.91-2.587-.89-3.927.075-1.115.806-1.837 1.556-3.12 1.274-1.285-.271-3.815-2.193-6.27-4.639-2.456-2.455-4.368-4.986-4.64-6.27-.271-1.293.479-2.006 1.275-3.121.966-1.34.994-2.034.075-3.927-.778-1.64-2.84-4.94-4.226-6.317C6.433-.341 6.124-.041 5.365.231c0 0-1.125.45-2.24 1.19C1.747 2.34.979 3.108.435 4.261c-.534 1.153-1.153 3.3 1.996 8.904 2.54 4.527 5.033 7.957 8.735 11.65l.009.01.01.009c3.701 3.702 7.122 6.195 11.648 8.735 5.605 3.149 7.75 2.53 8.903 1.996 1.153-.534 1.921-1.303 2.84-2.69.74-1.115 1.19-2.24 1.19-2.24.272-.76.581-1.069-.806-2.446z" fill="#D37700"/></svg>