<svg width="36" height="36" viewBox="0 0 36 36" fill="none" xmlns="http://www.w3.org/2000/svg">
<path d="M34.9602 28.1888C33.5826 26.8111 30.2744 24.7398 28.6437 23.9619C26.7507 23.0527 26.0572 23.0715 24.717 24.0368C23.6018 24.8429 22.8802 25.5927 21.5963 25.3115C20.3123 25.0397 17.782 23.1183 15.3266 20.6722C12.8713 18.2166 10.9594 15.6861 10.6877 14.402C10.4159 13.1086 11.1656 12.3963 11.9622 11.281C12.9275 9.94078 12.9556 9.24723 12.0372 7.35401C11.2593 5.71384 9.19758 2.41477 7.81058 1.03703C6.43295 -0.340713 6.12369 -0.0407971 5.36458 0.231002C5.36458 0.231002 4.23999 0.680876 3.12476 1.42129C1.74713 2.33979 0.978659 3.10832 0.435104 4.26112C-0.0990789 5.41393 -0.717606 7.5602 2.43126 13.1649C4.97098 17.6917 7.46383 21.122 11.1656 24.8147L11.175 24.8241L11.1844 24.8335C14.8862 28.5356 18.3068 31.0286 22.8333 33.5685C28.4375 36.7177 30.5837 36.0991 31.7364 35.5649C32.8891 35.0306 33.6575 34.2621 34.576 32.875C35.3163 31.7597 35.7662 30.635 35.7662 30.635C36.0379 29.8758 36.3472 29.5665 34.9602 28.1888Z" fill="#D37700"/>
</svg>
