<svg width="37" height="33" viewBox="0 0 37 33" fill="none" xmlns="http://www.w3.org/2000/svg">
<g opacity="0.5">
<path fill-rule="evenodd" clip-rule="evenodd" d="M33.7792 0.843295C34.0741 1.02898 34.1626 1.41857 33.977 1.71347L30.4983 7.23836V22.6209C30.4983 22.9694 30.2158 23.2519 29.8673 23.2519C29.5188 23.2519 29.2363 22.9694 29.2363 22.6209V18.8349H17.2473V22.6209C17.2473 22.9694 16.9648 23.2519 16.6164 23.2519C16.2679 23.2519 15.9854 22.9694 15.9854 22.6209V7.05626C15.9854 6.93168 16.0222 6.8099 16.0913 6.70624L19.8773 1.02725C20.0706 0.737289 20.4624 0.658936 20.7524 0.852244C21.0423 1.04555 21.1207 1.43732 20.9274 1.72728L17.2473 7.24731V11.6836H29.2363V7.05626C29.2363 6.93728 29.27 6.82073 29.3334 6.72005L32.909 1.04106C33.0947 0.746157 33.4843 0.657614 33.7792 0.843295ZM29.2363 12.9456H17.2473V17.5729H29.2363V12.9456Z" fill="white"/>
<path fill-rule="evenodd" clip-rule="evenodd" d="M0 26.4069C-4.21233e-06 26.0584 0.2825 25.7759 0.630991 25.7759C1.80592 25.7759 2.82371 26.1293 3.66296 26.448C3.76218 26.4857 3.85777 26.5224 3.95038 26.558C4.26173 26.6778 4.53954 26.7846 4.80936 26.8704C5.15512 26.9804 5.43635 27.0379 5.67899 27.0379C5.92163 27.0379 6.20286 26.9804 6.54862 26.8704C6.81845 26.7846 7.09627 26.6778 7.40762 26.558C7.50023 26.5224 7.59581 26.4857 7.69503 26.448C8.53427 26.1293 9.55206 25.7759 10.727 25.7759C12.2652 25.7759 13.0973 26.1274 13.8003 26.471C13.8477 26.4942 13.8939 26.517 13.9393 26.5394C14.5171 26.8242 14.9506 27.0379 15.775 27.0379C16.5416 27.0379 17.0954 26.8002 17.8075 26.4945C17.8356 26.4824 17.864 26.4702 17.8927 26.4579C18.6492 26.1337 19.5344 25.7759 20.823 25.7759C22.1115 25.7759 22.9967 26.1337 23.7533 26.4579C23.7819 26.4702 23.8103 26.4824 23.8385 26.4945C24.5506 26.8002 25.1044 27.0379 25.871 27.0379C26.5757 27.0379 26.966 26.8405 27.5224 26.559C27.5772 26.5313 27.6336 26.5028 27.6921 26.4735C28.3822 26.1285 29.2159 25.7759 30.7086 25.7759C31.4427 25.7759 31.992 25.8609 32.4524 26.0001C32.887 26.1316 33.2215 26.3064 33.5085 26.4564C33.5227 26.4638 33.5368 26.4712 33.5508 26.4785C33.8485 26.6338 34.1088 26.7652 34.4597 26.8646C34.8105 26.9641 35.2769 27.0379 35.9669 27.0379C36.3154 27.0379 36.5979 27.3204 36.5979 27.6689C36.5979 28.0174 36.3154 28.2999 35.9669 28.2999C35.1847 28.2999 34.5994 28.216 34.1155 28.0788C33.6315 27.9416 33.274 27.7575 32.967 27.5973L32.9471 27.587C32.6481 27.4309 32.406 27.3046 32.087 27.2081C31.7651 27.1107 31.3417 27.0379 30.7086 27.0379C29.467 27.0379 28.8284 27.3163 28.2565 27.6023C28.2002 27.6304 28.1436 27.6593 28.0862 27.6885C27.5216 27.9763 26.8866 28.2999 25.871 28.2999C24.8385 28.2999 24.0686 27.968 23.3823 27.6721C23.3399 27.6539 23.2979 27.6358 23.2562 27.6179C22.5404 27.3111 21.8481 27.0379 20.823 27.0379C19.7978 27.0379 19.1056 27.3111 18.3898 27.6179C18.348 27.6358 18.306 27.6539 18.2637 27.6721C17.5773 27.968 16.8074 28.2999 15.775 28.2999C14.6512 28.2999 13.9894 27.9724 13.3898 27.6757C13.3416 27.6518 13.2937 27.6281 13.2461 27.6048C12.6582 27.3174 12.018 27.0379 10.727 27.0379C9.79858 27.0379 8.96543 27.3155 8.14305 27.6278C8.05724 27.6604 7.9704 27.6938 7.88303 27.7274C7.56515 27.8497 7.24013 27.9748 6.93109 28.073C6.5328 28.1997 6.10942 28.2999 5.67899 28.2999C5.24856 28.2999 4.82518 28.1997 4.42689 28.073C4.11786 27.9748 3.79285 27.8497 3.47497 27.7274C3.38759 27.6938 3.30075 27.6604 3.21493 27.6278C2.39255 27.3155 1.55941 27.0379 0.631007 27.0379C0.282516 27.0379 4.21242e-06 26.7554 0 26.4069Z" fill="white"/>
<path fill-rule="evenodd" clip-rule="evenodd" d="M0 30.1929C-4.21233e-06 29.8444 0.2825 29.5619 0.630991 29.5619C1.80592 29.5619 2.82371 29.9153 3.66296 30.234C3.76218 30.2717 3.85777 30.3084 3.95038 30.3441C4.26173 30.4638 4.53954 30.5706 4.80936 30.6564C5.15512 30.7664 5.43635 30.8239 5.67899 30.8239C5.92163 30.8239 6.20286 30.7664 6.54862 30.6564C6.81845 30.5706 7.09627 30.4638 7.40762 30.3441C7.50023 30.3084 7.59581 30.2717 7.69503 30.234C8.53427 29.9153 9.55206 29.5619 10.727 29.5619C12.2652 29.5619 13.0973 29.9134 13.8003 30.257C13.8477 30.2802 13.8939 30.303 13.9393 30.3254C14.5171 30.6102 14.9506 30.8239 15.775 30.8239C16.5416 30.8239 17.0954 30.5862 17.8075 30.2805C17.8356 30.2684 17.864 30.2562 17.8927 30.2439C18.6492 29.9197 19.5344 29.5619 20.823 29.5619C22.1115 29.5619 22.9967 29.9197 23.7533 30.2439C23.7819 30.2562 23.8103 30.2684 23.8385 30.2805C24.5506 30.5862 25.1044 30.8239 25.871 30.8239C26.5757 30.8239 26.966 30.6265 27.5224 30.345C27.5772 30.3173 27.6336 30.2888 27.6921 30.2595C28.3822 29.9145 29.2159 29.5619 30.7086 29.5619C31.4422 29.5619 31.9816 29.6468 32.4301 29.7884C32.8391 29.9175 33.1519 30.089 33.4163 30.2339C33.4386 30.2461 33.4605 30.2582 33.4822 30.27C33.7602 30.4216 34.0114 30.5511 34.3672 30.6496C34.7268 30.7492 35.2201 30.8239 35.9669 30.8239C36.3154 30.8239 36.5979 31.1064 36.5979 31.4549C36.5979 31.8034 36.3154 32.0859 35.9669 32.0859C35.1363 32.0859 34.5253 32.0029 34.0304 31.8658C33.5318 31.7278 33.1783 31.5417 32.8779 31.3779C32.8596 31.3679 32.8417 31.3581 32.824 31.3485C32.5504 31.1989 32.3374 31.0825 32.0501 30.9918C31.7493 30.8968 31.3422 30.8239 30.7086 30.8239C29.467 30.8239 28.8284 31.1023 28.2565 31.3883C28.2002 31.4164 28.1436 31.4453 28.0862 31.4745C27.5216 31.7623 26.8866 32.0859 25.871 32.0859C24.8385 32.0859 24.0686 31.754 23.3823 31.4582C23.3399 31.4399 23.2979 31.4218 23.2562 31.4039C22.5404 31.0971 21.8481 30.8239 20.823 30.8239C19.7978 30.8239 19.1056 31.0971 18.3898 31.4039C18.348 31.4218 18.306 31.4399 18.2637 31.4582C17.5773 31.754 16.8074 32.0859 15.775 32.0859C14.6512 32.0859 13.9894 31.7584 13.3898 31.4617C13.3416 31.4378 13.2937 31.4141 13.2461 31.3908C12.6582 31.1034 12.018 30.8239 10.727 30.8239C9.79858 30.8239 8.96543 31.1015 8.14305 31.4138C8.05724 31.4464 7.9704 31.4798 7.88303 31.5134C7.56515 31.6357 7.24013 31.7608 6.93109 31.8591C6.5328 31.9857 6.10942 32.0859 5.67899 32.0859C5.24856 32.0859 4.82518 31.9857 4.42689 31.859C4.11786 31.7608 3.79285 31.6357 3.47497 31.5134C3.38759 31.4798 3.30075 31.4464 3.21493 31.4138C2.39255 31.1015 1.55941 30.8239 0.631007 30.8239C0.282516 30.8239 4.21242e-06 30.5414 0 30.1929Z" fill="white"/>
</g>
</svg>
