<svg width="37" height="33" fill="none" xmlns="http://www.w3.org/2000/svg"><path d="M33.78.843a.631.631 0 01.197.87l-3.479 5.525v15.383a.631.631 0 11-1.262 0v-3.786H17.247v3.786a.631.631 0 11-1.262 0V7.056c0-.124.037-.246.106-.35l3.786-5.679a.631.631 0 011.05.7l-3.68 5.52v4.437h11.99V7.056c0-.119.033-.235.096-.336l3.576-5.679a.631.631 0 01.87-.198zm-4.544 12.103H17.247v4.627h11.99v-4.627zM0 26.407a.63.63 0 01.631-.631c1.175 0 2.193.353 3.032.672l.287.11c.312.12.59.227.86.312.345.11.626.168.869.168s.524-.058.87-.168c.27-.085.547-.192.859-.312l.287-.11c.84-.319 1.857-.672 3.032-.672 1.538 0 2.37.351 3.073.695l.14.068c.577.285 1.01.499 1.835.499.767 0 1.32-.238 2.033-.544l.085-.036c.756-.324 1.641-.682 2.93-.682 1.288 0 2.174.358 2.93.682l.085.037c.713.305 1.266.543 2.033.543.705 0 1.095-.198 1.651-.479l.17-.085c.69-.346 1.524-.698 3.017-.698.734 0 1.283.085 1.743.224.435.132.77.306 1.056.456l.043.023c.297.155.558.286.909.386.35.1.817.173 1.507.173a.631.631 0 110 1.262c-.782 0-1.368-.084-1.852-.221a5.734 5.734 0 01-1.148-.482l-.02-.01c-.299-.156-.541-.282-.86-.379-.322-.097-.745-.17-1.378-.17-1.242 0-1.88.278-2.453.564l-.17.087c-.564.287-1.2.61-2.215.61-1.032 0-1.802-.331-2.489-.627l-.126-.054c-.716-.307-1.408-.58-2.433-.58s-1.717.273-2.433.58l-.126.054c-.687.296-1.457.628-2.489.628-1.124 0-1.786-.328-2.385-.624a31.397 31.397 0 00-.144-.071c-.588-.288-1.228-.567-2.519-.567-.928 0-1.762.277-2.584.59-.086.032-.173.066-.26.1-.318.122-.643.247-.952.345-.398.127-.822.227-1.252.227-.43 0-.854-.1-1.252-.227-.31-.098-.634-.223-.952-.346l-.26-.1c-.822-.311-1.656-.59-2.584-.59a.631.631 0 01-.631-.63zm0 3.786a.63.63 0 01.631-.631c1.175 0 2.193.353 3.032.672l.287.11c.312.12.59.227.86.312.345.11.626.168.869.168s.524-.058.87-.168c.27-.085.547-.192.859-.312l.287-.11c.84-.319 1.857-.672 3.032-.672 1.538 0 2.37.351 3.073.695l.14.068c.577.285 1.01.499 1.835.499.767 0 1.32-.238 2.033-.544l.085-.036c.756-.324 1.641-.682 2.93-.682 1.288 0 2.174.358 2.93.682l.085.037c.713.305 1.266.543 2.033.543.705 0 1.095-.198 1.651-.479l.17-.085c.69-.346 1.524-.698 3.017-.698.733 0 1.273.085 1.721.226.41.13.722.301.986.446l.066.036c.278.152.53.281.885.38.36.1.853.174 1.6.174a.631.631 0 110 1.262c-.83 0-1.442-.083-1.937-.22a5.132 5.132 0 01-1.152-.488l-.054-.03c-.274-.15-.487-.265-.774-.356-.3-.095-.708-.168-1.341-.168-1.242 0-1.88.278-2.453.564l-.17.086c-.564.288-1.2.612-2.215.612-1.032 0-1.802-.332-2.489-.628a69.4 69.4 0 00-.126-.054c-.716-.307-1.408-.58-2.433-.58s-1.717.273-2.433.58a37.04 37.04 0 00-.126.054c-.687.296-1.457.628-2.489.628-1.124 0-1.786-.328-2.385-.624a31.397 31.397 0 00-.144-.071c-.588-.288-1.228-.567-2.519-.567-.928 0-1.762.277-2.584.59-.086.032-.173.066-.26.1-.318.122-.643.247-.952.345-.398.127-.822.227-1.252.227-.43 0-.854-.1-1.252-.227-.31-.098-.634-.223-.952-.346l-.26-.1c-.822-.311-1.656-.59-2.584-.59a.631.631 0 01-.631-.63z" opacity=".5" fill-rule="evenodd" clip-rule="evenodd" fill="#fff"/></svg>