<svg width="239" height="250" viewBox="0 0 239 250" fill="none" xmlns="http://www.w3.org/2000/svg">
<path d="M6.8836 182.976C5.50682 182.383 4.81843 182.087 3.73784 180.806C2.56121 177.853 2.07298 175.195 2.96152 173.13L61.9016 36.1405C63.0864 33.3869 65.3517 31.9141 68.0092 31.4259L129.325 23.5424C130.997 23.4464 132.374 24.0387 133.751 24.6311C135.128 25.2234 136.505 25.8158 137.585 27.0966L170.779 73.1956L227.764 65.8963C230.422 65.4081 233.175 66.5928 234.648 68.8582C236.121 71.1235 236.609 73.781 235.424 76.5346L176.781 212.836C175.596 215.589 173.33 217.062 170.673 217.55L111.031 225.338L110.046 225.73C108.373 225.826 106.7 225.922 104.931 224.345C104.243 224.049 103.851 223.064 102.474 222.472C101.785 222.176 102.082 221.487 102.082 221.487L68.5911 176.077L11.3101 184.064C9.93335 183.472 8.26038 183.568 6.8836 182.976ZM73.8923 46.1944L22.0606 166.663L66.0539 161.116L117.886 40.648L73.8923 46.1944ZM172.332 88.5484L120.5 209.017L164.494 203.47L216.325 83.002L172.332 88.5484ZM80.5101 167.336L106.733 203.093L158.564 82.6248L132.342 46.8678L80.5101 167.336Z" fill="#B36500"/>
</svg>
