<svg width="239" height="250" fill="none" xmlns="http://www.w3.org/2000/svg"><path d="M6.884 182.976c-1.377-.593-2.066-.889-3.146-2.17-1.177-2.953-1.665-5.611-.776-7.676l58.94-136.99c1.184-2.753 3.45-4.226 6.107-4.714l61.316-7.884c1.672-.096 3.049.497 4.426 1.09 1.377.591 2.754 1.184 3.834 2.465l33.194 46.099 56.985-7.3a6.807 6.807 0 016.884 2.962c1.473 2.266 1.961 4.923.776 7.677l-58.643 136.301c-1.185 2.753-3.451 4.226-6.108 4.714l-59.642 7.788-.985.392c-1.673.096-3.346.192-5.115-1.385-.688-.296-1.08-1.281-2.457-1.873-.689-.296-.392-.985-.392-.985l-33.49-45.41-57.282 7.987c-1.377-.592-3.05-.496-4.426-1.088zM73.892 46.194L22.061 166.663l43.993-5.547 51.832-120.468-43.994 5.546zm98.44 42.354L120.5 209.017l43.994-5.547 51.831-120.468-43.993 5.546zM80.51 167.336l26.223 35.757 51.831-120.468-26.222-35.757L80.51 167.336z" fill="#B36500"/></svg>