<svg width="34" height="35" viewBox="0 0 34 35" fill="none" xmlns="http://www.w3.org/2000/svg">
<g opacity="0.5">
<path fill-rule="evenodd" clip-rule="evenodd" d="M33.5259 6.09928H33.5131C28.8049 2.6072 23.1646 0.446198 16.8539 0.446198C10.6869 0.446198 5.1264 2.52102 0.478804 5.86626C0.376659 5.90776 0.261746 6.01948 0.18833 6.09928H0.178754C0.0734167 6.23015 0 6.38976 0 6.57489C0 6.99943 0.341547 7.34098 0.766087 7.34098H16.0878V33.3847C16.0878 33.8093 16.4326 34.1508 16.8539 34.1508C17.2785 34.1508 17.62 33.8093 17.62 33.3847V7.34098H32.9417C33.3663 7.34098 33.7078 6.99943 33.7078 6.57489C33.7078 6.38976 33.6344 6.23015 33.5259 6.09928ZM3.34844 5.80881C7.31932 3.42117 11.868 1.97837 16.8539 1.97837C21.8367 1.97837 26.4045 3.42117 30.3785 5.80881H3.34844ZM29.8774 18.0662C29.4529 18.0662 29.1113 18.4077 29.1113 18.8323V25.7271H23.7487C23.3242 25.7271 22.9826 26.0686 22.9826 26.4932V33.3847C22.9826 33.8093 23.3242 34.1508 23.7487 34.1508C24.1732 34.1508 24.5148 33.8093 24.5148 33.3847V27.2592H29.1113V33.3879C29.1113 33.8125 29.4529 34.154 29.8774 34.154C30.3019 34.154 30.6435 33.8125 30.6435 33.3879V18.8323C30.6435 18.4077 30.3019 18.0662 29.8774 18.0662ZM9.95913 25.7271H4.59652V18.8323C4.59652 18.4077 4.25178 18.0662 3.83044 18.0662C3.40909 18.0662 3.06435 18.4077 3.06435 18.8323V33.3879C3.06435 33.8125 3.40589 34.154 3.83044 34.154C4.25497 34.154 4.59652 33.8125 4.59652 33.3879V27.2592H9.19304V33.3879C9.19304 33.8125 9.53459 34.154 9.95913 34.154C10.3837 34.154 10.7252 33.8125 10.7252 33.3879V26.4932C10.7252 26.0718 10.3837 25.7271 9.95913 25.7271Z" fill="white"/>
</g>
</svg>
