<svg width="34" height="35" fill="none" xmlns="http://www.w3.org/2000/svg"><path fill-rule="evenodd" clip-rule="evenodd" d="M33.526 6.1h-.013C28.805 2.606 23.165.445 16.853.445 10.688.446 5.127 2.521.48 5.866c-.102.042-.217.153-.29.233H.18a.753.753 0 00-.18.476c0 .424.342.766.766.766h15.322v26.044a.766.766 0 001.532 0V7.34h15.322a.764.764 0 00.766-.766.738.738 0 00-.182-.476zM3.348 5.808c3.971-2.388 8.52-3.83 13.506-3.83 4.983 0 9.55 1.442 13.524 3.83H3.348zm26.53 12.257a.764.764 0 00-.767.766v6.895H23.75a.764.764 0 00-.766.766v6.892c0 .424.341.766.766.766a.764.764 0 00.766-.766v-6.126h4.596v6.129c0 .425.342.766.766.766a.764.764 0 00.767-.766V18.832a.764.764 0 00-.767-.766zm-19.92 7.662H4.597v-6.895a.766.766 0 00-1.533 0v14.556c0 .425.342.766.766.766a.764.764 0 00.767-.766v-6.129h4.596v6.129c0 .425.342.766.766.766a.764.764 0 00.766-.766v-6.895a.766.766 0 00-.766-.766z" fill="#fff" opacity=".5"/></svg>