<svg width="1065" height="288" fill="none" xmlns="http://www.w3.org/2000/svg"><path d="M123.818 35.478c-3.246 0-5.913.464-8 1.392-2.086.695-4.057 2.087-5.912 4.174-1.855 2.086-3.13 4.637-3.826 7.652-.696 3.014-1.275 6.377-1.739 10.087l-3.13 28.87c-.232 3.014-.58 5.796-1.044 8.347a427.8 427.8 0 00-1.39 7.304c-.465 2.319-1.16 4.406-2.088 6.261-1.391 3.247-3.13 6.145-5.217 8.696-1.855 2.319-3.71 4.174-5.565 5.565l36.867 125.913H86.603L55.301 139.478H35.476v110.261H0V2.087h35.476v106.087H47.3c4.174 0 7.536-.58 10.087-1.739 2.55-1.16 4.637-2.783 6.26-4.87a19.636 19.636 0 003.478-6.956c.696-2.783 1.275-5.797 1.739-9.044L72.343 56c.232-.928.464-2.783.696-5.565.463-3.015 1.159-6.377 2.086-10.087.928-3.71 2.203-7.536 3.826-11.478a52.681 52.681 0 016.26-11.13c4.406-5.566 9.74-9.508 16-11.827 6.492-2.55 14.028-3.826 22.607-3.826v33.391zm18.107 25.044c0-9.971 1.739-18.783 5.217-26.435 3.478-7.652 8.116-14.029 13.913-19.13a59.25 59.25 0 0118.781-11.13C187.024 1.274 194.212 0 201.4 0c7.188 0 14.26 1.275 21.216 3.826 7.188 2.55 13.68 6.261 19.477 11.13 5.564 5.102 10.086 11.479 13.564 19.131 3.478 7.652 5.217 16.464 5.217 26.435v130.782c0 10.435-1.739 19.363-5.217 26.783-3.478 7.42-8 13.565-13.564 18.435-5.797 5.101-12.289 8.927-19.477 11.478-6.956 2.551-14.028 3.826-21.216 3.826-7.188 0-14.376-1.275-21.564-3.826-6.956-2.551-13.217-6.377-18.781-11.478-5.797-4.87-10.435-11.015-13.913-18.435-3.478-7.42-5.217-16.348-5.217-26.783V60.522zm35.476 130.782c0 8.58 2.319 14.957 6.956 19.131 4.87 3.942 10.55 5.913 17.043 5.913 6.492 0 12.057-1.971 16.694-5.913 4.869-4.174 7.304-10.551 7.304-19.131V60.522c0-8.58-2.435-14.84-7.304-18.783-4.637-4.174-10.202-6.26-16.694-6.26-6.493 0-12.173 2.086-17.043 6.26-4.637 3.942-6.956 10.203-6.956 18.783v130.782zM292.1 249.739V2.087h34.085l45.562 131.13h.696l45.214-131.13h34.433v247.652h-35.476V99.13h-.696L380.79 205.565h-17.738L328.272 99.13h-.696v150.61H292.1zm264.909-86.609l-17.39-89.739h-.696l-17.39 89.739h35.476zm-87.646 86.609L524.664 2.087h29.563l55.3 247.652h-35.475l-10.435-53.217h-48.344l-10.434 53.217h-35.476zm157.633 0V2.087h35.476v106.087h43.823V2.087h35.476v247.652h-35.476V139.478h-43.823v110.261h-35.476zm162.696 0V288h-30.607v-69.565h18.086c2.087-4.406 4.058-9.392 5.913-14.957a205.727 205.727 0 004.869-18.087 464.746 464.746 0 003.826-19.13 327.805 327.805 0 002.782-19.478c.464-4.87.812-10.319 1.044-16.348.464-6.029.811-12.174 1.043-18.435.232-6.493.348-12.87.348-19.13a517.5 517.5 0 00.348-18.435V2.087H899.25v216.348h20.173V288h-30.607v-38.261h-99.124zm41.041-216.348v40.696c0 3.246-.116 8-.348 14.26a772.336 772.336 0 01-1.043 19.827c-.464 7.188-.928 14.493-1.392 21.913-.463 7.188-1.043 13.565-1.739 19.13-.463 4.638-1.275 9.971-2.434 16a307.991 307.991 0 01-3.478 18.087 551.64 551.64 0 01-4.522 18.783c-1.623 6.029-3.478 11.478-5.564 16.348h53.561V33.391h-33.041zM1012.48 163.13l-17.388-89.739h-.696l-17.39 89.739h35.474zm-87.645 86.609L980.136 2.087h29.564l55.3 247.652h-35.48l-10.43-53.217h-48.345l-10.434 53.217h-35.476z" fill="#F7F7F7"/><path d="M959.369 144.515c-.425.431-.851 1.294-1.277 1.725-.425.431-.851 1.294-1.277 2.156 0 0 0 .431-.425.431-.426.863-.426 1.294-.852 2.157-.425.862-.425 1.294-.425 2.156v3.019c0 .863 0 2.156.425 3.019v.431c0 .863.426 1.725.852 2.588v.431l1.277 2.588s0 .431.425.431c.426.862.852 1.725 1.703 2.156.426.863 1.277 1.294 2.128 2.157.851.431 1.703 1.293 2.554 1.725h.426l2.553 1.293h.426c2.128.863 4.256 1.294 6.385 1.294 10.215 0 18.302-8.194 18.302-18.544 0-10.351-8.087-18.545-18.302-18.545-2.554 0-5.108.432-7.236 1.725h-.426c-.851.432-1.277.432-1.702.863 0 0-.426 0-.426.431-.851.431-1.277.863-1.703 1.294-2.128 1.725-2.553 2.156-3.405 3.019zM930 122.089c10.215 0 18.303-8.194 18.303-18.545C948.303 93.194 940.215 85 930 85c-10.215 0-18.303 8.194-18.303 18.544 0 9.92 8.088 18.545 18.303 18.545zm17.026 52.183V160.04c0-1.293-.426-2.156-.426-3.45s0-2.156.426-3.45v-.862c1.277-8.194 6.384-15.526 13.62-18.976-5.108-4.744-11.492-7.763-19.154-7.763h-23.836c-7.235 0-14.046 3.019-19.153 7.763 8.087 4.313 14.046 13.369 14.046 23.288 0 2.157-.426 4.313-.852 6.038v11.213c7.662 3.019 14.047 9.057 17.877 16.388 4.257-6.9 10.216-12.507 17.452-15.957zm-25.539 17.251c-.425-.863-1.277-1.725-1.702-2.588l-.426-.431c-.426-.863-1.277-1.294-1.703-2.156 0 0-.425 0-.425-.432-.852-.431-1.277-1.293-2.128-1.725h-.426c-2.554-1.725-5.108-3.018-8.087-4.312-.852 0-1.277-.432-2.128-.432h-.852c-.425 0-.851 0-1.702-.431h-27.241C859.344 179.447 847 191.954 847 207.48V245h16.174v-38.814h5.534V245h34.902v-38.814h5.534V245h16.6v-37.52c.851-6.038-1.277-11.213-4.257-15.957zm63.421-12.076h-27.241c-.426 0-1.277 0-1.703.432h-.851c-.426 0-1.277.431-1.703.431-4.256 1.294-8.087 3.45-11.066 6.469-.852.431-1.277 1.294-2.129 2.156-4.256 4.744-6.81 11.213-6.81 18.545V245h16.174v-38.814h5.534V245h34.902v-38.814h5.959V245H1013v-37.52c0-15.526-12.77-28.033-28.092-28.033zm-98.323-3.881c2.128 0 4.256-.431 6.384-1.294l2.554-1.294c.851-.431 1.703-1.293 2.554-1.725 1.702-1.293 2.979-3.019 3.831-4.744v-.431l1.277-2.587v-.432c.425-.862.425-1.725.851-2.587v-.432c0-.862.426-2.156.426-3.018v-3.019c0-.863-.426-1.725-.426-2.157-.426-.862-.426-1.725-.851-2.156 0 0 0-.431-.426-.431-.426-.863-.851-1.294-1.277-2.157-.426-.862-.851-1.293-1.277-2.156 0 0 0-.431-.426-.431l-1.702-1.725c-.426-.432-1.277-.863-2.128-1.294 0 0-.426 0-.426-.431-.426-.432-1.277-.863-2.128-.863-2.128-.862-4.682-1.725-7.236-1.725-10.215 0-18.303 8.194-18.303 18.545.426 9.919 8.513 18.544 18.729 18.544z" fill="#D37700"/></svg>