<svg width="1065" height="288" viewBox="0 0 1065 288" fill="none" xmlns="http://www.w3.org/2000/svg">
<path d="M123.818 35.4783C120.572 35.4783 117.905 35.942 115.818 36.8696C113.732 37.5652 111.761 38.9565 109.906 41.0435C108.051 43.1304 106.776 45.6812 106.08 48.6957C105.384 51.7102 104.805 55.0725 104.341 58.7826L101.211 87.6522C100.979 90.6667 100.631 93.4493 100.167 96C99.7035 98.3188 99.2398 100.754 98.7761 103.304C98.3123 105.623 97.6167 107.71 96.6892 109.565C95.298 112.812 93.559 115.71 91.4722 118.261C89.6172 120.58 87.7623 122.435 85.9073 123.826L122.774 249.739H86.603L55.3007 139.478H35.4759V249.739H0V2.08697H35.4759V108.174H47.3012C51.4748 108.174 54.8369 107.594 57.3875 106.435C59.9381 105.275 62.0249 103.652 63.6479 101.565C65.271 99.4783 66.4304 97.1594 67.126 94.6087C67.8216 91.8261 68.4013 88.8116 68.865 85.5652L72.343 56C72.5749 55.0725 72.8068 53.2174 73.0386 50.4348C73.5024 47.4203 74.198 44.058 75.1254 40.3478C76.0529 36.6377 77.3282 32.8116 78.9513 28.8696C80.5744 24.9275 82.6612 21.2174 85.2117 17.7391C89.6172 12.1739 94.9502 8.23189 101.211 5.91305C107.703 3.36233 115.239 2.08697 123.818 2.08697V35.4783Z" fill="#F7F7F7"/>
<path d="M141.925 60.5217C141.925 50.5507 143.664 41.7391 147.142 34.087C150.62 26.4348 155.258 20.058 161.055 14.9565C166.619 10.087 172.88 6.37682 179.836 3.8261C187.024 1.27537 194.212 0 201.4 0C208.588 0 215.66 1.27537 222.616 3.8261C229.804 6.37682 236.296 10.087 242.093 14.9565C247.657 20.058 252.179 26.4348 255.657 34.087C259.135 41.7391 260.874 50.5507 260.874 60.5217V191.304C260.874 201.739 259.135 210.667 255.657 218.087C252.179 225.507 247.657 231.652 242.093 236.522C236.296 241.623 229.804 245.449 222.616 248C215.66 250.551 208.588 251.826 201.4 251.826C194.212 251.826 187.024 250.551 179.836 248C172.88 245.449 166.619 241.623 161.055 236.522C155.258 231.652 150.62 225.507 147.142 218.087C143.664 210.667 141.925 201.739 141.925 191.304V60.5217ZM177.401 191.304C177.401 199.884 179.72 206.261 184.357 210.435C189.227 214.377 194.907 216.348 201.4 216.348C207.892 216.348 213.457 214.377 218.094 210.435C222.963 206.261 225.398 199.884 225.398 191.304V60.5217C225.398 51.942 222.963 45.6812 218.094 41.7391C213.457 37.5652 207.892 35.4783 201.4 35.4783C194.907 35.4783 189.227 37.5652 184.357 41.7391C179.72 45.6812 177.401 51.942 177.401 60.5217V191.304Z" fill="#F7F7F7"/>
<path d="M292.1 249.739V2.08697H326.185L371.747 133.217H372.443L417.657 2.08697H452.09V249.739H416.614V99.1304H415.918L380.79 205.565H363.052L328.272 99.1304H327.576V249.739H292.1Z" fill="#F7F7F7"/>
<path d="M557.009 163.13L539.619 73.3913H538.923L521.533 163.13H557.009ZM469.363 249.739L524.664 2.08697H554.227L609.527 249.739H574.052L563.617 196.522H515.273L504.839 249.739H469.363Z" fill="#F7F7F7"/>
<path d="M626.996 249.739V2.08697H662.472V108.174H706.295V2.08697H741.771V249.739H706.295V139.478H662.472V249.739H626.996Z" fill="#F7F7F7"/>
<path d="M789.692 249.739V288H759.085V218.435H777.171C779.258 214.029 781.229 209.043 783.084 203.478C784.939 197.681 786.562 191.652 787.953 185.391C789.344 179.13 790.62 172.754 791.779 166.261C792.938 159.536 793.866 153.043 794.561 146.783C795.025 141.913 795.373 136.464 795.605 130.435C796.069 124.406 796.416 118.261 796.648 112C796.88 105.507 796.996 99.1304 796.996 92.8696C797.228 86.3768 797.344 80.2319 797.344 74.4348V2.08697H899.25V218.435H919.423V288H888.816V249.739H789.692ZM830.733 33.3913V74.087C830.733 77.3333 830.617 82.087 830.385 88.3478C830.153 94.3768 829.805 100.986 829.342 108.174C828.878 115.362 828.414 122.667 827.95 130.087C827.487 137.275 826.907 143.652 826.211 149.217C825.748 153.855 824.936 159.188 823.777 165.217C822.849 171.014 821.69 177.043 820.299 183.304C818.908 189.565 817.4 195.826 815.777 202.087C814.154 208.116 812.299 213.565 810.213 218.435H863.774V33.3913H830.733Z" fill="#F7F7F7"/>
<path d="M1012.48 163.13L995.092 73.3913H994.396L977.006 163.13H1012.48ZM924.835 249.739L980.136 2.08697H1009.7L1065 249.739H1029.52L1019.09 196.522H970.745L960.311 249.739H924.835Z" fill="#F7F7F7"/>
<path d="M959.369 144.515C958.944 144.946 958.518 145.809 958.092 146.24C957.667 146.671 957.241 147.534 956.815 148.396C956.815 148.396 956.815 148.827 956.39 148.827C955.964 149.69 955.964 150.121 955.538 150.984C955.113 151.846 955.113 152.278 955.113 153.14V153.571C955.113 154.434 955.113 155.296 955.113 156.159C955.113 157.022 955.113 158.315 955.538 159.178V159.609C955.538 160.472 955.964 161.334 956.39 162.197V162.628C956.815 163.491 957.241 164.353 957.667 165.216C957.667 165.216 957.667 165.647 958.092 165.647C958.518 166.509 958.944 167.372 959.795 167.803C960.221 168.666 961.072 169.097 961.923 169.96C962.774 170.391 963.626 171.253 964.477 171.685C964.477 171.685 964.477 171.685 964.903 171.685C965.754 172.116 966.605 172.547 967.456 172.978C967.456 172.978 967.456 172.978 967.882 172.978C970.01 173.841 972.138 174.272 974.267 174.272C984.482 174.272 992.569 166.078 992.569 155.728C992.569 145.377 984.482 137.183 974.267 137.183C971.713 137.183 969.159 137.615 967.031 138.908C967.031 138.908 967.031 138.908 966.605 138.908C965.754 139.34 965.328 139.34 964.903 139.771C964.903 139.771 964.477 139.771 964.477 140.202C963.626 140.633 963.2 141.065 962.774 141.496C960.646 143.221 960.221 143.652 959.369 144.515ZM930 122.089C940.215 122.089 948.303 113.895 948.303 103.544C948.303 93.1941 940.215 85 930 85C919.785 85 911.697 93.1941 911.697 103.544C911.697 113.464 919.785 122.089 930 122.089ZM947.026 174.272V160.04C947.026 158.747 946.6 157.884 946.6 156.59C946.6 155.296 946.6 154.434 947.026 153.14V152.278C948.303 144.084 953.41 136.752 960.646 133.302C955.538 128.558 949.154 125.539 941.492 125.539H917.656C910.421 125.539 903.61 128.558 898.503 133.302C906.59 137.615 912.549 146.671 912.549 156.59C912.549 158.747 912.123 160.903 911.697 162.628V173.841C919.359 176.86 925.744 182.898 929.574 190.229C933.831 183.329 939.79 177.722 947.026 174.272ZM921.487 191.523C921.062 190.66 920.21 189.798 919.785 188.935C919.785 188.935 919.785 188.935 919.359 188.504C918.933 187.641 918.082 187.21 917.656 186.348C917.656 186.348 917.231 186.348 917.231 185.916C916.379 185.485 915.954 184.623 915.103 184.191C915.103 184.191 915.103 184.191 914.677 184.191C912.123 182.466 909.569 181.173 906.59 179.879C905.738 179.879 905.313 179.447 904.462 179.447C904.036 179.447 903.61 179.447 903.61 179.447C903.185 179.447 902.759 179.447 901.908 179.016C901.482 179.016 901.482 179.016 901.056 179.016C900.205 179.016 899.354 179.016 898.503 179.016H874.667C859.344 179.447 847 191.954 847 207.48V245H863.174V206.186H868.708V245H903.61V206.186H909.144V245H925.744V207.48C926.595 201.442 924.467 196.267 921.487 191.523ZM984.908 179.447H961.072C960.221 179.447 959.369 179.447 958.518 179.447C958.092 179.447 958.092 179.447 957.667 179.447C957.241 179.447 956.39 179.447 955.964 179.879C955.538 179.879 955.538 179.879 955.113 179.879C954.687 179.879 953.836 180.31 953.41 180.31C949.154 181.604 945.323 183.76 942.344 186.779C941.492 187.21 941.067 188.073 940.215 188.935C935.959 193.679 933.405 200.148 933.405 207.48V245H949.579V206.186H955.113V245H990.015V206.186H995.974V245H1013V207.48C1013 191.954 1000.23 179.447 984.908 179.447ZM886.585 175.566C888.713 175.566 890.841 175.135 892.969 174.272C893.821 173.841 894.672 173.41 895.523 172.978C896.374 172.547 897.226 171.685 898.077 171.253C899.779 169.96 901.056 168.234 901.908 166.509V166.078C902.333 165.216 902.759 164.353 903.185 163.491V163.059C903.61 162.197 903.61 161.334 904.036 160.472V160.04C904.036 159.178 904.462 157.884 904.462 157.022C904.462 156.159 904.462 155.296 904.462 154.434V154.003C904.462 153.14 904.036 152.278 904.036 151.846C903.61 150.984 903.61 150.121 903.185 149.69C903.185 149.69 903.185 149.259 902.759 149.259C902.333 148.396 901.908 147.965 901.482 147.102C901.056 146.24 900.631 145.809 900.205 144.946C900.205 144.946 900.205 144.515 899.779 144.515C899.354 144.084 898.503 143.221 898.077 142.79C897.651 142.358 896.8 141.927 895.949 141.496C895.949 141.496 895.523 141.496 895.523 141.065C895.097 140.633 894.246 140.202 893.395 140.202C891.267 139.34 888.713 138.477 886.159 138.477C875.944 138.477 867.856 146.671 867.856 157.022C868.282 166.941 876.369 175.566 886.585 175.566Z" fill="#D37700"/>
</svg>
