<svg width="123" height="73" viewBox="0 0 123 73" fill="none" xmlns="http://www.w3.org/2000/svg">
<path d="M81.4713 41.5053H39.9453V0H81.4186L81.4713 41.5053ZM40.4723 0.474648V40.9779H80.9443V40.8725V0.474648H40.4723Z" fill="white"/>
<path d="M49.5889 14.0282H71.722V9.70361H49.5889V14.0282Z" fill="white"/>
<path d="M62.0771 31.8015H66.7673V21.412H71.7736V16.771H62.0771V31.8015Z" fill="white"/>
<path d="M54.5952 31.8015H59.2853V16.771H49.5889V21.412H54.5952V31.8015Z" fill="white"/>
<path d="M21.9746 72.6219L23.134 69.3521H23.7663L24.9257 72.6219H24.2933L24.0298 71.778H22.8705L22.607 72.6219H21.9746ZM22.9759 71.3034H23.819L23.5028 70.4068L23.3975 69.9322C23.3448 70.1431 23.3448 70.3014 23.2921 70.4068L22.9759 71.3034ZM26.0323 72.6219V69.3521H27.2971C27.6133 69.3521 27.8768 69.4575 28.0876 69.6685C28.2984 69.8794 28.4038 70.1431 28.4038 70.4596C28.4038 70.776 28.2984 71.0397 28.0876 71.2507C27.8768 71.4616 27.6133 71.5671 27.2971 71.5671H26.6647V72.6746L26.0323 72.6219ZM26.612 70.987H27.1917C27.3498 70.987 27.5079 70.9342 27.6133 70.8287C27.7187 70.7233 27.7714 70.6178 27.7714 70.4068C27.7714 70.2486 27.7187 70.0904 27.6133 69.9849C27.5079 69.8795 27.4025 69.8267 27.2444 69.8267H26.6647L26.612 70.987ZM28.9834 72.6219L30.1428 69.3521H30.7752L31.9345 72.6219H31.3021L31.0386 71.778H29.8266L29.5631 72.6219H28.9834ZM29.9847 71.3034H30.8279L30.5117 70.4068L30.4063 69.9322C30.3536 70.1431 30.3536 70.3014 30.3009 70.4068L29.9847 71.3034ZM33.0412 72.6219V69.3521H34.0951C34.3586 69.3521 34.5694 69.4048 34.7275 69.4048C34.8856 69.4575 35.0437 69.6158 35.1491 69.774C35.2545 69.9322 35.3072 70.1431 35.3072 70.3541C35.3072 70.5651 35.2545 70.7233 35.1491 70.8815C35.0437 71.0397 34.9383 71.1452 34.7802 71.2507C34.8329 71.3034 34.8329 71.3034 34.8856 71.4089L35.5707 72.6219H34.9383L34.3059 71.4089H33.7262V72.6219H33.0412ZM33.6208 70.8815H34.1478C34.3059 70.8815 34.4113 70.8287 34.5167 70.7233C34.5694 70.6705 34.6748 70.5123 34.6748 70.3541C34.6748 70.1431 34.6221 69.9849 34.4113 69.8794C34.3586 69.8267 34.2005 69.8267 34.0424 69.8267H33.6208V70.8815ZM37.3624 72.6219V69.8794H36.3084V69.4048H39.0487V69.8794H37.9948V72.6219H37.3624ZM40.05 72.6219L40.3135 69.3521H40.9459L41.5782 70.987L41.7363 71.4616C41.789 71.2506 41.8417 71.0924 41.8944 70.987L42.5268 69.3521H43.1592L43.4227 72.6219H42.7903L42.6849 70.776C42.6849 70.7233 42.6849 70.6178 42.6849 70.565C42.6849 70.5123 42.6849 70.4068 42.6849 70.3541V70.3014C42.6322 70.5123 42.5795 70.6705 42.4741 70.776L41.9471 72.0417H41.4201L40.8932 70.776L40.6824 70.3014C40.6824 70.5123 40.6824 70.6705 40.6824 70.776L40.577 72.6219H40.05ZM44.7928 72.6219V69.3521H46.7426V69.8267H45.3725V70.6705H46.4791V71.1452H45.3725V72.0417H46.848V72.5164L44.7928 72.6219ZM48.1128 72.6219V69.3521H48.7451L49.9572 71.2507C50.0099 71.3034 50.0099 71.3561 50.0626 71.4616C50.1153 71.5143 50.1153 71.6198 50.168 71.6726L50.2207 71.7253C50.168 71.5143 50.168 71.3561 50.168 71.2507V69.3521H50.7477V72.6219H50.168L48.9559 70.7233C48.9032 70.6705 48.9032 70.6178 48.8505 70.5123C48.7978 70.4596 48.7978 70.3541 48.7451 70.3014L48.6924 70.2486C48.7451 70.4596 48.7451 70.6178 48.7451 70.7233V72.6219H48.1128ZM53.0137 72.6219V69.8794H51.9597V69.4048H54.7V69.8794H53.646V72.6219H53.0137ZM55.5959 72.2527L55.9121 71.778C56.0175 71.8308 56.1229 71.989 56.2809 71.989C56.439 72.0417 56.5971 72.0945 56.7025 72.0945C56.8606 72.0945 56.966 72.0417 57.0714 71.989C57.1241 71.9363 57.1768 71.8308 57.1768 71.7253C57.1768 71.6198 57.1241 71.5143 57.0187 71.4089C56.9133 71.3561 56.8079 71.2506 56.6498 71.1979C56.4917 71.1452 56.3336 71.0924 56.1755 70.987C56.0175 70.8815 55.9121 70.776 55.8067 70.6705C55.7013 70.5123 55.6486 70.3541 55.6486 70.1959C55.6486 69.9322 55.754 69.7212 55.9648 69.5103C56.1755 69.2993 56.439 69.2466 56.7552 69.2466C57.1241 69.2466 57.4403 69.3521 57.7038 69.6158L57.4403 70.0904C57.3876 70.0377 57.2295 69.9322 57.0714 69.8794C56.966 69.8267 56.8079 69.8267 56.7025 69.8267C56.5444 69.8267 56.439 69.8794 56.3336 69.9322C56.2809 69.9849 56.1755 70.0904 56.1755 70.1959C56.1755 70.3014 56.2282 70.4068 56.3336 70.4596C56.439 70.5123 56.5444 70.6178 56.7025 70.6705C56.8606 70.7233 57.0187 70.776 57.1768 70.8815C57.3349 70.9342 57.4403 71.0924 57.5457 71.1979C57.6511 71.3561 57.7038 71.5143 57.7038 71.6726C57.7038 71.9363 57.5984 72.1472 57.3876 72.3582C57.1768 72.5691 56.9133 72.6219 56.5971 72.6219C56.3863 72.6219 56.1755 72.5691 55.9648 72.5164C55.8067 72.4109 55.7013 72.4109 55.5959 72.2527ZM60.7076 70.987C60.7076 70.5123 60.8657 70.0904 61.1818 69.774C61.498 69.4575 61.9196 69.2993 62.3939 69.2993C62.8682 69.2993 63.2898 69.4575 63.606 69.774C63.9221 70.0904 64.0802 70.5123 64.0802 70.987C64.0802 71.4616 63.9221 71.8835 63.606 72.1999C63.2898 72.5691 62.8682 72.6746 62.3939 72.6746C61.9196 72.6746 61.498 72.5164 61.1818 72.1999C60.8657 71.8308 60.7076 71.4616 60.7076 70.987ZM61.2872 70.987C61.2872 71.3561 61.3926 71.6198 61.6034 71.8308C61.8142 72.0417 62.0777 72.1999 62.3939 72.1999C62.7101 72.1999 62.9736 72.0945 63.1844 71.8308C63.3952 71.6198 63.5006 71.3561 63.5006 70.987C63.5006 70.6705 63.3952 70.4068 63.1844 70.1959C62.9736 69.9849 62.7101 69.8794 62.3939 69.8794C62.0777 69.8794 61.8142 69.9849 61.6034 70.1959C61.4453 70.4068 61.2872 70.6705 61.2872 70.987ZM65.345 72.6219V69.3521H65.9774L67.1894 71.2507C67.2421 71.3034 67.2421 71.3561 67.2948 71.4616C67.3475 71.5143 67.3475 71.6198 67.4002 71.6726L67.4529 71.7253C67.4002 71.5143 67.4002 71.3561 67.4002 71.2507V69.3521H67.9799V72.6219H67.4002L66.1881 70.7233C66.1354 70.6705 66.1355 70.6178 66.0828 70.5123C66.0301 70.4596 66.0301 70.3541 65.9774 70.3014L65.9247 70.2486C65.9774 70.4596 65.9774 70.6178 65.9774 70.7233V72.6219H65.345ZM71.4052 72.6219V69.3521H72.5119C72.9862 69.3521 73.4078 69.5103 73.7239 69.774C74.0401 70.0904 74.1982 70.4596 74.1982 70.987C74.1982 71.5143 74.0401 71.8835 73.7239 72.1999C73.4078 72.5164 73.0389 72.6219 72.5119 72.6219H71.4052ZM71.9322 72.1472H72.4065C72.7754 72.1472 73.0389 72.0417 73.197 71.8308C73.4078 71.6198 73.5132 71.3561 73.5132 70.987C73.5132 70.6178 73.4078 70.3541 73.197 70.1431C72.9862 69.9322 72.7227 69.8267 72.4065 69.8267H71.9322V72.1472ZM75.463 72.6219V69.3521H76.0954V72.6219H75.463ZM77.5182 72.6219V69.3521H78.1506V72.1472H79.5734V72.6219H77.5182ZM80.3639 70.987C80.3639 70.5123 80.522 70.0904 80.8382 69.774C81.1544 69.4575 81.5759 69.2993 82.0502 69.2993C82.5245 69.2993 82.9461 69.4575 83.2623 69.774C83.5785 70.0904 83.7365 70.5123 83.7365 70.987C83.7365 71.4616 83.5785 71.8835 83.2623 72.1999C82.9461 72.5691 82.5245 72.6746 82.0502 72.6746C81.5759 72.6746 81.1544 72.5164 80.8382 72.1999C80.522 71.8308 80.3639 71.4616 80.3639 70.987ZM80.9963 70.987C80.9963 71.3561 81.1017 71.6198 81.3125 71.8308C81.5232 72.0417 81.7867 72.1999 82.1029 72.1999C82.4191 72.1999 82.6826 72.0945 82.8934 71.8308C83.1042 71.6198 83.2096 71.3561 83.2096 70.987C83.2096 70.6705 83.1042 70.4068 82.8934 70.1959C82.6826 69.9849 82.4191 69.8794 82.1029 69.8794C81.7867 69.8794 81.5232 69.9849 81.3125 70.1959C81.1017 70.4068 80.9963 70.6705 80.9963 70.987ZM85.7918 72.6219L84.5797 69.3521H85.2121L85.9499 71.5143L86.0553 71.989C86.108 71.778 86.108 71.6198 86.1607 71.5143L86.8984 69.3521H87.5308L86.3187 72.6219H85.7918ZM88.1632 72.6219L89.3225 69.3521H89.9549L91.1143 72.6219H90.4292L90.1657 71.778H89.0063L88.7429 72.6219H88.1632ZM89.1644 71.3034H90.0076L89.6914 70.4068L89.586 69.9322C89.5333 70.1431 89.5333 70.3014 89.4806 70.4068L89.1644 71.3034ZM93.6438 72.2527L93.9599 71.778C94.0653 71.8308 94.1707 71.989 94.3288 71.989C94.4869 72.0417 94.645 72.0945 94.7504 72.0945C94.9085 72.0945 95.0139 72.0417 95.1193 71.989C95.172 71.9363 95.2247 71.8308 95.2247 71.7253C95.2247 71.6198 95.172 71.5143 95.0666 71.4089C94.9612 71.3561 94.8558 71.2506 94.6977 71.1979C94.5396 71.1452 94.3815 71.0924 94.2234 70.987C94.0653 70.9342 93.96 70.776 93.8546 70.6705C93.7492 70.5123 93.6965 70.3541 93.6965 70.1959C93.6965 69.9322 93.8018 69.7212 94.0126 69.5103C94.2234 69.2993 94.4869 69.2466 94.8031 69.2466C95.172 69.2466 95.4882 69.3521 95.7517 69.6158L95.4882 70.0904C95.4355 70.0377 95.2774 69.9322 95.1193 69.8794C95.0139 69.8267 94.8558 69.8267 94.7504 69.8267C94.5923 69.8267 94.4869 69.8794 94.3815 69.9322C94.3288 69.9849 94.2234 70.0904 94.2234 70.1959C94.2234 70.3014 94.2761 70.4068 94.3815 70.4596C94.4869 70.5123 94.5923 70.6178 94.7504 70.6705C94.9085 70.7233 95.0666 70.776 95.2247 70.8815C95.3828 70.9342 95.4882 71.0924 95.5936 71.1979C95.699 71.3561 95.7517 71.5143 95.7517 71.6726C95.7517 71.9363 95.6463 72.1472 95.4355 72.3582C95.2247 72.5691 94.9612 72.6219 94.645 72.6219C94.4342 72.6219 94.2234 72.5691 94.0126 72.5164C93.9072 72.5164 93.7492 72.4109 93.6438 72.2527ZM97.1218 71.778V70.776H96.8056V70.3014H97.1218V69.6158H97.7015V70.3014H98.2285V70.776H97.7015V71.6726C97.7015 71.8308 97.7542 71.9363 97.8596 72.0417C97.965 72.0945 98.0704 72.0945 98.1758 72.0945C98.2285 72.0945 98.2285 72.0945 98.2812 72.0945V72.5691C98.2285 72.5691 98.1231 72.5691 98.0704 72.5691C98.0177 72.5691 97.9123 72.5691 97.8596 72.5691C97.8069 72.5691 97.7015 72.5164 97.5961 72.5164C97.5434 72.4636 97.3853 72.4636 97.3853 72.3582C97.3326 72.3054 97.2799 72.2 97.1745 72.0945C97.1218 72.0417 97.1218 71.9363 97.1218 71.778ZM99.3878 72.6746V70.3541H99.9675V70.776V70.9342C100.02 70.776 100.126 70.6178 100.231 70.5123C100.389 70.4068 100.547 70.3014 100.705 70.3014C100.758 70.3014 100.758 70.3014 100.811 70.3014V70.8815C100.758 70.8815 100.758 70.8815 100.653 70.8815C100.442 70.8815 100.284 70.9342 100.178 71.0924C100.073 71.2507 99.9675 71.4616 99.9675 71.7253V72.6746H99.3878ZM100.916 72.6746V72.0945H101.496V72.6746H100.916Z" fill="white"/>
<path d="M0 51.0513H9.59102V54.0574H6.53454V62.4956H3.05648V54.0574H0V51.0513ZM12.5421 62.4956H21.2373V59.4895H16.0202V58.2237H21.1319V55.2176H16.0202V54.0574H21.2373V51.0513H12.5421V62.4956ZM23.9249 54.0574H26.9813V62.4956H30.4594V54.0574H33.5159V51.0513H23.9249V54.0574ZM44.6351 58.4347L46.6903 62.4956H42.738L41.1571 58.9093H39.8923V62.4956H36.4669V51.0513H42.5799C45.2675 51.0513 46.6903 52.8444 46.6903 55.0067C46.6903 56.958 45.531 58.0128 44.6351 58.4347ZM43.1596 54.9539C43.1596 54.3211 42.6326 54.0574 42.0002 54.0574H39.8923V55.8505H42.0002C42.6326 55.9032 43.1596 55.5868 43.1596 54.9539ZM49.8522 62.4956H53.3303V51.0513H49.8522V62.4956ZM59.9175 54.3211C59.9175 54.0046 60.1283 53.8464 60.8134 53.8464C61.8673 53.8464 63.1848 54.2156 64.1861 55.0067L66.0305 52.5807C64.713 51.5259 63.0267 50.9458 61.1823 50.9458C58.0204 50.9458 56.4395 52.7917 56.4395 54.743C56.4395 59.2785 62.8159 58.171 62.8159 59.2258C62.8159 59.7004 62.1835 59.8586 61.5512 59.8586C60.0229 59.8586 58.7055 59.2258 57.8623 58.3819L56.0706 60.9661C57.2826 62.0737 58.9163 62.812 61.3931 62.812C64.4495 62.812 66.3467 61.3353 66.3467 58.8039C66.2413 54.4793 59.9175 55.3758 59.9175 54.3211ZM82.7884 55.0594H78.678V50.9985H75.1999V62.4428H78.678V58.0655H82.7884V62.4428H86.2665V50.9985H82.7884V55.0594ZM97.1749 51.0513L101.391 62.4956H97.4384L97.0169 61.1771H92.9064L92.4848 62.4956H88.5325L92.7483 51.0513H97.1749ZM96.1737 58.1183L95.0143 54.4266L93.855 58.1183H96.1737ZM107.188 51.0513H103.709V62.4956H111.509V59.4895H107.135L107.188 51.0513ZM118.149 59.4895V51.0513H114.671V62.4956H122.47V59.4895H118.149Z" fill="white"/>
</svg>
