<svg width="123" height="73" fill="none" xmlns="http://www.w3.org/2000/svg"><path d="M81.471 41.505H39.945V0H81.42l.052 41.505zM40.472.475v40.503h40.472V.475H40.472z" fill="#fff"/><path d="M49.589 14.028h22.133V9.704H49.589v4.324zm12.488 17.774h4.69v-10.39h5.007v-4.641h-9.697v15.03zm-7.482 0h4.69V16.77H49.59v4.641h5.006v10.39zm-32.62 40.82l1.159-3.27h.632l1.16 3.27h-.633l-.263-.844h-1.16l-.263.844h-.632zm1-1.319h.844l-.316-.896-.105-.475c-.053.211-.053.37-.106.475l-.316.896zm3.057 1.319v-3.27h1.265c.316 0 .58.105.79.316.211.211.317.475.317.792 0 .316-.106.58-.316.79a1.07 1.07 0 01-.79.317h-.633v1.108l-.633-.053zm.58-1.635h.58a.598.598 0 00.421-.158c.106-.106.158-.211.158-.422a.6.6 0 00-.158-.422.479.479 0 00-.369-.158h-.58l-.052 1.16zm2.371 1.635l1.16-3.27h.632l1.16 3.27h-.633l-.263-.844h-1.212l-.264.844h-.58zm1.002-1.319h.843l-.316-.896-.106-.475c-.052.211-.052.37-.105.475l-.316.896zm3.056 1.319v-3.27h1.054c.264 0 .474.053.633.053.158.052.316.21.421.369.105.158.158.37.158.58 0 .211-.053.37-.158.528-.105.158-.21.263-.369.369.053.052.053.052.106.158l.685 1.213h-.633l-.632-1.213h-.58v1.213h-.685zm.58-1.74h.527a.479.479 0 00.369-.159.603.603 0 00.158-.369c0-.21-.053-.37-.264-.475-.052-.052-.21-.052-.369-.052h-.421v1.055zm3.741 1.74v-2.743h-1.054v-.474h2.74v.474h-1.053v2.743h-.633zm2.688 0l.264-3.27h.632l.632 1.635.158.475a2.45 2.45 0 01.158-.475l.633-1.635h.632l.264 3.27h-.633l-.105-1.846v-.475c-.053.211-.105.37-.21.475l-.528 1.266h-.527l-.527-1.266-.21-.475v.475l-.106 1.846h-.527zm4.743 0v-3.27h1.95v.475h-1.37v.844h1.106v.474h-1.106v.897h1.475v.474l-2.055.106zm3.32 0v-3.27h.632l1.212 1.899c.053.052.053.105.106.21.052.053.052.159.105.212l.053.052c-.053-.21-.053-.369-.053-.474v-1.899h.58v3.27h-.58l-1.212-1.899c-.053-.052-.053-.105-.106-.21-.052-.053-.052-.159-.105-.212l-.053-.052c.053.21.053.369.053.474v1.899h-.632zm4.9 0v-2.743H51.96v-.474h2.74v.474h-1.054v2.743h-.632zm2.583-.37l.316-.474c.105.053.21.211.369.211.158.053.316.105.422.105a.754.754 0 00.368-.105.403.403 0 00.106-.264c0-.105-.053-.21-.158-.316-.106-.053-.211-.158-.37-.211a1.872 1.872 0 01-.474-.211 2.313 2.313 0 01-.368-.316.85.85 0 01-.158-.475c0-.264.105-.475.316-.686.21-.21.474-.263.79-.263.37 0 .685.105.949.369l-.264.474a1.133 1.133 0 00-.369-.21c-.105-.053-.263-.053-.368-.053a.76.76 0 00-.37.105c-.052.053-.157.158-.157.264 0 .105.052.21.158.264.105.052.21.158.368.21.159.053.317.106.475.212.158.052.263.21.369.316a.851.851 0 01.158.475c0 .263-.106.474-.316.685-.211.211-.475.264-.79.264-.212 0-.422-.053-.633-.106-.158-.105-.264-.105-.37-.263zm5.112-1.265c0-.475.158-.897.474-1.213.316-.317.738-.475 1.212-.475s.896.158 1.212.475c.316.316.474.738.474 1.213 0 .475-.158.897-.474 1.213-.316.37-.738.475-1.212.475s-.896-.159-1.212-.475c-.316-.37-.474-.738-.474-1.213zm.58 0c0 .37.105.633.315.844.211.21.475.369.79.369.317 0 .58-.106.791-.37.211-.21.317-.474.317-.843 0-.316-.106-.58-.317-.791a1.072 1.072 0 00-.79-.317c-.316 0-.58.106-.79.317-.159.21-.317.475-.317.791zm4.057 1.635v-3.27h.632l1.212 1.899c.053.052.053.105.106.21.052.053.052.159.105.212l.053.052c-.053-.21-.053-.369-.053-.474v-1.899h.58v3.27h-.58l-1.212-1.899c-.053-.052-.053-.105-.105-.21-.053-.053-.053-.159-.106-.212l-.052-.052c.052.21.052.369.052.474v1.899h-.632zm6.06 0v-3.27h1.107c.474 0 .896.158 1.212.422.316.316.474.686.474 1.213s-.158.897-.474 1.213c-.316.316-.685.422-1.212.422h-1.107zm.527-.475h.474c.37 0 .633-.105.791-.316.21-.211.316-.475.316-.844 0-.37-.105-.633-.316-.844a1.072 1.072 0 00-.79-.316h-.475v2.32zm3.531.475v-3.27h.632v3.27h-.632zm2.055 0v-3.27h.633v2.795h1.422v.475h-2.055zm2.846-1.635c0-.475.158-.897.474-1.213.316-.317.738-.475 1.212-.475.475 0 .896.158 1.212.475.317.316.475.738.475 1.213 0 .475-.158.897-.475 1.213-.316.37-.737.475-1.212.475-.474 0-.896-.159-1.212-.475-.316-.37-.474-.738-.474-1.213zm.632 0c0 .37.106.633.317.844.21.21.474.369.79.369.316 0 .58-.106.79-.37.211-.21.317-.474.317-.843 0-.316-.106-.58-.317-.791a1.072 1.072 0 00-.79-.317c-.316 0-.58.106-.79.317-.211.21-.317.475-.317.791zm4.796 1.635l-1.212-3.27h.632l.738 2.162.105.475c.053-.211.053-.37.106-.475l.737-2.162h.633l-1.212 3.27h-.527zm2.371 0l1.16-3.27h.632l1.16 3.27h-.686l-.263-.844h-1.16l-.263.844h-.58zm1.001-1.319h.844l-.317-.896-.105-.475c-.053.211-.053.37-.105.475l-.317.896zm4.48.95l.316-.475c.105.053.21.211.369.211.158.053.316.105.421.105a.762.762 0 00.37-.105.403.403 0 00.105-.264c0-.105-.053-.21-.158-.316-.106-.053-.211-.158-.37-.211a1.872 1.872 0 01-.474-.211c-.158-.053-.263-.211-.368-.316a.85.85 0 01-.159-.475c0-.264.106-.475.317-.686.21-.21.474-.263.79-.263.369 0 .685.105.949.369l-.264.474a1.133 1.133 0 00-.369-.21c-.105-.053-.263-.053-.369-.053a.76.76 0 00-.368.105c-.053.053-.159.158-.159.264 0 .105.053.21.159.264.105.052.21.158.368.21.159.053.317.106.475.212.158.052.263.21.369.316a.851.851 0 01.158.475c0 .263-.106.474-.316.685-.211.211-.475.264-.791.264-.21 0-.422-.053-.632-.106-.106 0-.264-.105-.37-.263zm3.478-.475v-1.002h-.316v-.475h.316v-.685h.58v.685h.526v.475h-.526v.897c0 .158.052.263.158.369.105.052.21.052.316.052h.105v.475h-.421c-.053 0-.159-.053-.264-.053-.053-.052-.21-.052-.21-.158-.053-.053-.106-.158-.212-.264-.052-.052-.052-.158-.052-.316zm2.266.897v-2.32h.58v.579a1.15 1.15 0 01.263-.422c.158-.105.316-.21.474-.21h.106v.58h-.158c-.211 0-.369.052-.475.21-.105.159-.21.37-.21.633v.95h-.58zm1.528 0v-.58h.58v.58h-.58zM0 51.051h9.591v3.006H6.535v8.439H3.056v-8.439H0v-3.006zm12.542 11.445h8.695v-3.007H16.02v-1.265h5.112v-3.006H16.02v-1.16h5.217V51.05h-8.695v11.445zm11.383-8.439h3.056v8.439h3.478v-8.439h3.057v-3.006h-9.591v3.006zm20.71 4.378l2.055 4.06h-3.952l-1.58-3.586h-1.266v3.587h-3.425V51.05h6.113c2.688 0 4.11 1.793 4.11 3.956 0 1.951-1.159 3.006-2.055 3.428zm-1.475-3.481c0-.633-.527-.897-1.16-.897h-2.108v1.793H42c.633.053 1.16-.263 1.16-.896zm6.692 7.542h3.478V51.05h-3.478v11.445zm10.066-8.175c0-.316.21-.475.895-.475 1.054 0 2.372.37 3.373 1.16l1.844-2.425c-1.317-1.055-3.003-1.635-4.848-1.635-3.162 0-4.742 1.846-4.742 3.797 0 4.535 6.376 3.428 6.376 4.483 0 .474-.633.633-1.265.633-1.528 0-2.846-.633-3.689-1.477l-1.791 2.584c1.212 1.108 2.845 1.846 5.322 1.846 3.056 0 4.954-1.477 4.954-4.008-.106-4.325-6.43-3.428-6.43-4.483zm22.87.738h-4.11V51H75.2v11.444h3.478v-4.377h4.11v4.377h3.478V50.999h-3.478v4.06zm14.387-4.008l4.216 11.445h-3.953l-.421-1.319h-4.11l-.422 1.319h-3.953l4.216-11.445h4.427zm-1.001 7.067l-1.16-3.691-1.159 3.691h2.319zm11.014-7.067h-3.479v11.445h7.8v-3.007h-4.374l.053-8.438zm10.961 8.438v-8.438h-3.478v11.445h7.799v-3.007h-4.321z" fill="#fff"/></svg>