<svg width="54" height="54" viewBox="0 0 54 54" fill="none" xmlns="http://www.w3.org/2000/svg">
<path d="M53.7387 7.87619L46.6026 0.740016C46.4353 0.572717 46.2085 0.478703 45.9719 0.478653H19.2112C18.5015 0.478653 17.8208 0.760595 17.319 1.26245C16.8171 1.76431 16.5352 2.44498 16.5352 3.15472V25.4553H12.0751C11.8385 25.4553 11.6116 25.5493 11.4443 25.7165C11.277 25.8838 11.183 26.1107 11.183 26.3473V29.9154C11.183 30.152 11.277 30.3789 11.4443 30.5461C11.6116 30.7134 11.8385 30.8074 12.0751 30.8074H12.9671V32.5915H3.15483C2.91825 32.5915 2.69136 32.6854 2.52407 32.8527C2.35679 33.02 2.2628 33.2469 2.2628 33.4835V37.0516C2.2628 37.2882 2.35679 37.515 2.52407 37.6823C2.69136 37.8496 2.91825 37.9436 3.15483 37.9436H4.04685V52.216H0.47876V54H45.0799V52.216H41.5118V50.4319H51.324C52.0338 50.4319 52.7144 50.15 53.2163 49.6481C53.7182 49.1462 54.0001 48.4656 54.0001 47.7558V8.50685C54.0001 8.27029 53.906 8.04344 53.7387 7.87619ZM46.8639 3.52402L50.9547 7.61483H47.7559C47.5194 7.61483 47.2925 7.52085 47.1252 7.35356C46.9579 7.18628 46.8639 6.95939 46.8639 6.72281V3.52402ZM12.9671 27.2393H32.5916V29.0234H12.9671V27.2393ZM32.5916 36.1595V34.3755H41.5118V36.1595H32.5916ZM30.8075 30.8074V52.216H26.3474V48.6479H27.2394V46.8638H18.3192V48.6479H19.2112V52.216H14.7511V30.8074H30.8075ZM24.5634 48.6479V52.216H20.9953V48.6479H24.5634ZM4.04685 34.3755H12.9671V36.1595H4.04685V34.3755ZM5.83089 37.9436H12.9671V52.216H5.83089V37.9436ZM32.5916 52.216V37.9436H39.7277V52.216H32.5916ZM51.324 48.6479H41.5118V37.9436H42.4038C42.6404 37.9436 42.8673 37.8496 43.0346 37.6823C43.2019 37.515 43.2958 37.2882 43.2958 37.0516V33.4835C43.2958 33.2469 43.2019 33.02 43.0346 32.8527C42.8673 32.6854 42.6404 32.5915 42.4038 32.5915H32.5916V30.8074H33.4836C33.7202 30.8074 33.9471 30.7134 34.1143 30.5461C34.2816 30.3789 34.3756 30.152 34.3756 29.9154V26.3473C34.3756 26.1107 34.2816 25.8838 34.1143 25.7165C33.9471 25.5493 33.7202 25.4553 33.4836 25.4553H18.3192V3.15472C18.3192 2.91814 18.4132 2.69125 18.5805 2.52397C18.7478 2.35668 18.9747 2.2627 19.2112 2.2627H45.0799V6.72281C45.0799 7.43255 45.3618 8.11321 45.8637 8.61508C46.3655 9.11693 47.0462 9.39888 47.7559 9.39888H52.2161V47.7558C52.2161 47.9924 52.1221 48.2193 51.9548 48.3866C51.7875 48.5539 51.5606 48.6479 51.324 48.6479Z" fill="#D37700"/>
<path d="M16.5354 32.5915H18.3194V34.3755H16.5354V32.5915Z" fill="#D37700"/>
<path d="M20.1035 32.5915H21.8876V34.3755H20.1035V32.5915Z" fill="#D37700"/>
<path d="M23.6711 32.5915H25.4552V34.3755H23.6711V32.5915Z" fill="#D37700"/>
<path d="M27.2393 32.5915H29.0233V34.3755H27.2393V32.5915Z" fill="#D37700"/>
<path d="M16.5354 36.1596H18.3194V37.9436H16.5354V36.1596Z" fill="#D37700"/>
<path d="M20.1035 36.1596H21.8876V37.9436H20.1035V36.1596Z" fill="#D37700"/>
<path d="M23.6711 36.1596H25.4552V37.9436H23.6711V36.1596Z" fill="#D37700"/>
<path d="M27.2393 36.1596H29.0233V37.9436H27.2393V36.1596Z" fill="#D37700"/>
<path d="M16.5354 39.7277H18.3194V41.5117H16.5354V39.7277Z" fill="#D37700"/>
<path d="M20.1035 39.7277H21.8876V41.5117H20.1035V39.7277Z" fill="#D37700"/>
<path d="M23.6711 39.7277H25.4552V41.5117H23.6711V39.7277Z" fill="#D37700"/>
<path d="M27.2393 39.7277H29.0233V41.5117H27.2393V39.7277Z" fill="#D37700"/>
<path d="M16.5354 43.2957H18.3194V45.0798H16.5354V43.2957Z" fill="#D37700"/>
<path d="M20.1035 43.2957H21.8876V45.0798H20.1035V43.2957Z" fill="#D37700"/>
<path d="M23.6711 43.2957H25.4552V45.0798H23.6711V43.2957Z" fill="#D37700"/>
<path d="M27.2393 43.2957H29.0233V45.0798H27.2393V43.2957Z" fill="#D37700"/>
<path d="M34.3755 39.7277H37.9436V41.5117H34.3755V39.7277Z" fill="#D37700"/>
<path d="M34.3755 43.2957H37.9436V45.0798H34.3755V43.2957Z" fill="#D37700"/>
<path d="M34.3755 46.8638H37.9436V48.6479H34.3755V46.8638Z" fill="#D37700"/>
<path d="M7.6145 39.7277H11.1826V41.5117H7.6145V39.7277Z" fill="#D37700"/>
<path d="M7.6145 43.2957H11.1826V45.0798H7.6145V43.2957Z" fill="#D37700"/>
<path d="M7.6145 46.8638H11.1826V48.6479H7.6145V46.8638Z" fill="#D37700"/>
<path d="M24.5635 8.50688H26.3476C26.5841 8.50688 26.811 8.60086 26.9783 8.76815C27.1456 8.93543 27.2396 9.16232 27.2396 9.3989H29.0236C29.0236 8.68916 28.7417 8.00849 28.2398 7.50663C27.738 7.00477 27.0573 6.72283 26.3476 6.72283V5.83081H24.5635V6.72283C23.8538 6.72283 23.1731 7.00477 22.6713 7.50663C22.1694 8.00849 21.8875 8.68916 21.8875 9.3989C21.8875 10.1086 22.1694 10.7893 22.6713 11.2912C23.1731 11.793 23.8538 12.075 24.5635 12.075H26.3476C26.5841 12.075 26.811 12.1689 26.9783 12.3362C27.1456 12.5035 27.2396 12.7304 27.2396 12.967C27.2396 13.2036 27.1456 13.4305 26.9783 13.5977C26.811 13.765 26.5841 13.859 26.3476 13.859H24.5635C24.3269 13.859 24.1 13.765 23.9328 13.5977C23.7655 13.4305 23.6715 13.2036 23.6715 12.967H21.8875C21.8875 13.6767 22.1694 14.3574 22.6713 14.8593C23.1731 15.3611 23.8538 15.6431 24.5635 15.6431V16.5351H26.3476V15.6431C27.0573 15.6431 27.738 15.3611 28.2398 14.8593C28.7417 14.3574 29.0236 13.6767 29.0236 12.967C29.0236 12.2573 28.7417 11.5766 28.2398 11.0747C27.738 10.5729 27.0573 10.2909 26.3476 10.2909H24.5635C24.3269 10.2909 24.1 10.1969 23.9328 10.0297C23.7655 9.86237 23.6715 9.63548 23.6715 9.3989C23.6715 9.16232 23.7655 8.93543 23.9328 8.76815C24.1 8.60086 24.3269 8.50688 24.5635 8.50688Z" fill="#D37700"/>
<path d="M32.5916 13.859H41.5118V15.643H32.5916V13.859Z" fill="#D37700"/>
<path d="M32.5916 10.2909H34.3756V12.0749H32.5916V10.2909Z" fill="#D37700"/>
<path d="M36.1594 10.2909H37.9435V12.0749H36.1594V10.2909Z" fill="#D37700"/>
<path d="M39.7275 10.2909H41.5116V12.0749H39.7275V10.2909Z" fill="#D37700"/>
<path d="M37.9436 19.2111H48.6479V20.9952H37.9436V19.2111Z" fill="#D37700"/>
<path d="M37.9436 22.7792H48.6479V24.5633H37.9436V22.7792Z" fill="#D37700"/>
<path d="M37.9436 26.3473H48.6479V28.1314H37.9436V26.3473Z" fill="#D37700"/>
</svg>
