<svg width="57" height="60" fill="none" xmlns="http://www.w3.org/2000/svg"><path d="M31.422 6.65h-3.319a1.07 1.07 0 00-1.068 1.07v3.982c0 .59.479 1.069 1.069 1.069h3.318c.59 0 1.069-.48 1.069-1.07V7.72c0-.59-.48-1.07-1.07-1.07zm-.62 4.432h-2.08V8.34h2.08v2.743zM38.02 6.65h-3.318c-.59 0-1.07.48-1.07 1.07v3.982c0 .59.48 1.069 1.07 1.069h3.318c.59 0 1.069-.48 1.069-1.07V7.72c0-.59-.48-1.07-1.069-1.07zm-.62 4.432h-2.08V8.34h2.08v2.743zm7.218-4.432h-3.319c-.589 0-1.069.48-1.069 1.07v3.982c0 .59.48 1.069 1.07 1.069h3.318c.589 0 1.069-.48 1.069-1.07V7.72c0-.59-.48-1.07-1.07-1.07zm-.62 4.432h-2.08V8.34h2.08v2.743zM31.422 16.54h-3.319a1.07 1.07 0 00-1.068 1.068v3.982c0 .59.479 1.069 1.069 1.069h3.318c.59 0 1.069-.48 1.069-1.07v-3.981c0-.59-.48-1.069-1.07-1.069zm-.62 4.43h-2.08v-2.742h2.08v2.743zm7.218-4.43h-3.318c-.59 0-1.07.479-1.07 1.068v3.982c0 .59.48 1.069 1.07 1.069h3.318c.59 0 1.069-.48 1.069-1.07v-3.981c0-.59-.48-1.069-1.069-1.069zm-.62 4.43h-2.08v-2.742h2.08v2.743zm7.218-4.43h-3.319a1.07 1.07 0 00-1.069 1.068v3.982c0 .59.48 1.069 1.07 1.069h3.318c.589 0 1.069-.48 1.069-1.07v-3.981c0-.59-.48-1.069-1.07-1.069zm-.62 4.43h-2.08v-2.742h2.08v2.743zm-12.576 5.457h-3.319a1.07 1.07 0 00-1.068 1.07v3.981c0 .59.479 1.07 1.069 1.07h3.318c.59 0 1.069-.48 1.069-1.07v-3.982c0-.589-.48-1.069-1.07-1.069zm-.62 4.432h-2.08v-2.743h2.08v2.743zm7.218-4.432h-3.318c-.59 0-1.07.48-1.07 1.07v3.981c0 .59.48 1.07 1.07 1.07h3.318c.59 0 1.069-.48 1.069-1.07v-3.982a1.07 1.07 0 00-1.069-1.069zm-.62 4.432h-2.08v-2.743h2.08v2.743zm7.218-4.432h-3.319c-.589 0-1.069.48-1.069 1.07v3.981c0 .59.48 1.07 1.07 1.07h3.318c.589 0 1.069-.48 1.069-1.07v-3.982c0-.589-.48-1.069-1.07-1.069zm-.62 4.432h-2.08v-2.743h2.08v2.743z" fill="#C77B2B"/><path d="M55.668 40.077a3.515 3.515 0 00-4.855-.938l-2.321 1.553V4.38h.168a1.11 1.11 0 001.109-1.108V1.108A1.11 1.11 0 0048.66 0h-5.39a.844.844 0 000 1.688h4.81v1.005h-23.7V1.688h13.604a.844.844 0 100-1.688H23.801a1.11 1.11 0 00-1.109 1.108v2.165a1.11 1.11 0 001.109 1.108h.428v10.842h-1.733V13.14c0-.726-.59-1.316-1.316-1.316h-6.373c-.725 0-1.316.59-1.316 1.316v2.083H12.28c-.754 0-1.367.613-1.367 1.367v19.358a16.945 16.945 0 00-1.075-.035h-1.33v-.439a2.973 2.973 0 00-2.97-2.97H2.97A2.973 2.973 0 000 35.474v12.054a.844.844 0 101.688 0V35.474c0-.706.575-1.282 1.282-1.282h2.566c.707 0 1.282.575 1.282 1.282v18.993c0 .706-.575 1.281-1.282 1.281H2.97a1.283 1.283 0 01-1.282-1.281V52.81a.844.844 0 00-1.688 0v1.657a2.973 2.973 0 002.97 2.97h2.567a2.973 2.973 0 002.97-2.97v-.049l11.688 4.426a5.638 5.638 0 001.605.24c.276.001.552-.02.825-.063h.001l17.253-2.487.013-.002a8.494 8.494 0 004.054-1.83l11.15-10.029a3.516 3.516 0 00.572-4.596zM25.918 4.381h20.886v37.44l-7.023 4.7-2.355-.131-.06-.603a5.16 5.16 0 00-.757-2.222 5.123 5.123 0 00-.961-1.13h2.372a1.07 1.07 0 001.069-1.068v-3.982c0-.59-.48-1.07-1.07-1.07h-3.317c-.59 0-1.07.48-1.07 1.07v3.963a5.216 5.216 0 00-.677-.14l-.464-.053v-3.77c0-.59-.48-1.07-1.069-1.07h-3.318c-.59 0-1.07.48-1.07 1.07v3.142l-1.117-.129V4.381zm9.403 36.366v-2.743h2.08v2.743h-2.08zm-4.518-2.743v2.743H28.95l-.227-.026v-2.717h2.08zM15.18 13.512h5.628v1.71H15.18v-1.71zm-2.58 3.4h11.63v2.639h-9.534a.99.99 0 00-.99.99v2.548c0 .546.445.99.99.99h9.533v2.374h-9.533a.99.99 0 00-.99.99v2.549c0 .545.445.99.99.99h9.533v2.374h-9.533a.99.99 0 00-.99.99v2.015a17.355 17.355 0 00-.876-.18c-.077-.013-.153-.028-.23-.04V16.91zm11.63 4.327v1.152h-8.835v-1.152h8.834zm0 6.903v1.151h-8.835v-1.151h8.834zm-8.835 8.054v-1.152h8.834v1.152h-8.834zm8.834 1.688v2.32l-.26-.03a15.38 15.38 0 01-4.58-1.41 15.011 15.011 0 01-.984-.529 17.296 17.296 0 00-.542-.303l-.089-.048h6.455zm29.743 5.53l-11.14 10.019a6.801 6.801 0 01-3.2 1.43L22.378 57.35l-.024.004a3.785 3.785 0 01-1.598-.102l-12.25-4.639V37.601h1.33a15.234 15.234 0 012.193.16l.053.009a15.43 15.43 0 011.2.226l.14.034c.123.03.246.06.367.093l.066.017a15.285 15.285 0 013.188 1.269l.102.055c.134.073.268.148.4.225l.006.003a16.878 16.878 0 006.212 2.157l1.213.14.987.114 2.276.262.565.065 3.945.454a3.438 3.438 0 012.936 3.07l.03.294-15.822-1.542a.843.843 0 10-.164 1.68l16.773 1.635a.81.81 0 00.107.014l3.358.189h.047c.017 0 .034-.002.05-.003l.057-.004c.025-.003.048-.009.072-.014.019-.004.038-.007.056-.012.025-.008.05-.018.075-.028.015-.006.031-.01.046-.017a.856.856 0 00.114-.064l7.632-5.108 3.636-2.433a1.823 1.823 0 012.519.486 1.825 1.825 0 01-.3 2.387z" fill="#C77B2B"/></svg>