<svg width="54" height="54" fill="none" xmlns="http://www.w3.org/2000/svg"><path d="M53.739 7.876L46.603.74a.892.892 0 00-.631-.261h-26.76a2.676 2.676 0 00-2.677 2.676v22.3h-4.46a.892.892 0 00-.892.892v3.568a.892.892 0 00.892.892h.892v1.785H3.155a.892.892 0 00-.892.892v3.568a.892.892 0 00.892.892h.892v14.272H.479V54h44.6v-1.784h-3.567v-1.784h9.812A2.676 2.676 0 0054 47.756V8.506a.892.892 0 00-.261-.63zm-6.875-4.352l4.09 4.09h-3.198a.892.892 0 01-.892-.891V3.524zM12.967 27.239h19.625v1.784H12.967V27.24zm19.625 8.92v-1.783h8.92v1.784h-8.92zm-1.784-5.352v21.409h-4.46v-3.568h.891v-1.784h-8.92v1.784h.892v3.568h-4.46V30.807h16.057zm-6.245 17.84v3.569h-3.568v-3.568h3.568zM4.047 34.377h8.92v1.784h-8.92v-1.784zm1.784 3.568h7.136v14.272H5.831V37.944zm26.76 14.272V37.944h7.137v14.272h-7.136zm18.733-3.568h-9.812V37.944h.892a.892.892 0 00.892-.892v-3.569a.892.892 0 00-.892-.891h-9.812v-1.785h.892a.892.892 0 00.892-.892v-3.568a.892.892 0 00-.892-.892H18.319v-22.3a.892.892 0 01.892-.892H45.08v4.46a2.676 2.676 0 002.676 2.676h4.46v38.357a.892.892 0 01-.892.892z" fill="#D37700"/><path d="M16.535 32.592h1.784v1.784h-1.784v-1.784zm3.569 0h1.784v1.784h-1.785v-1.784zm3.567 0h1.784v1.784h-1.784v-1.784zm3.569 0h1.783v1.784H27.24v-1.784zM16.535 36.16h1.784v1.784h-1.784V36.16zm3.569 0h1.784v1.784h-1.785V36.16zm3.567 0h1.784v1.784h-1.784V36.16zm3.569 0h1.783v1.784H27.24V36.16zm-10.705 3.568h1.784v1.784h-1.784v-1.784zm3.569 0h1.784v1.784h-1.785v-1.784zm3.567 0h1.784v1.784h-1.784v-1.784zm3.569 0h1.783v1.784H27.24v-1.784zm-10.705 3.568h1.784v1.784h-1.784v-1.784zm3.569 0h1.784v1.784h-1.785v-1.784zm3.567 0h1.784v1.784h-1.784v-1.784zm3.569 0h1.783v1.784H27.24v-1.784zm7.136-3.568h3.568v1.784h-3.569v-1.784zm0 3.568h3.568v1.784h-3.569v-1.784zm0 3.568h3.568v1.784h-3.569v-1.784zM7.614 39.728h3.569v1.784H7.614v-1.784zm0 3.568h3.569v1.784H7.614v-1.784zm0 3.568h3.569v1.784H7.614v-1.784zm16.95-38.357h1.784a.892.892 0 01.892.892h1.784a2.676 2.676 0 00-2.676-2.676V5.83h-1.784v.892a2.676 2.676 0 100 5.352h1.784a.892.892 0 110 1.784h-1.784a.892.892 0 01-.892-.892h-1.785a2.676 2.676 0 002.677 2.676v.892h1.784v-.892a2.676 2.676 0 000-5.352h-1.784a.892.892 0 110-1.784zm8.028 5.352h8.92v1.784h-8.92v-1.784zm0-3.569h1.784v1.785h-1.784V10.29zm3.568 0h1.784v1.785h-1.785V10.29zm3.567 0h1.785v1.785h-1.785V10.29zm-1.783 8.921h10.704v1.784H37.944v-1.784zm0 3.569h10.704v1.783H37.944V22.78zm0 3.567h10.704v1.784H37.944v-1.784z" fill="#D37700"/></svg>