<svg width="60" height="60" viewBox="0 0 60 60" fill="none" xmlns="http://www.w3.org/2000/svg">
<path d="M27.6705 20.673C27.6095 21.5898 27.573 22.5696 27.573 23.6341C27.573 28.5667 29.0452 31.5122 31.512 31.5122C34.6218 31.5122 35.451 27.7987 35.451 25.6037C35.451 25.0602 35.0098 24.619 34.4663 24.619C33.9227 24.619 33.4816 25.0602 33.4816 25.6037C33.4816 25.643 33.3969 29.5427 31.512 29.5427C30.3707 29.5427 29.5425 27.0581 29.5425 23.6341C29.5425 12.1529 33.572 10.8452 33.6991 10.8087C34.218 10.6905 34.5519 10.1794 34.4465 9.65457C34.3412 9.12177 33.8251 8.77522 33.2885 8.88254C33.0915 8.92189 32.3776 9.10907 31.5189 9.84464C31.52 9.67523 31.5337 9.50594 31.5791 9.33745C31.715 8.82934 32.0409 8.40489 32.4968 8.14201C32.9517 7.87913 33.4835 7.80919 33.9907 7.94502C34.4988 8.08189 34.9243 8.40789 35.1861 8.86281C35.7297 9.80321 35.4067 11.0105 34.4663 11.5532C33.9946 11.826 33.8341 12.4286 34.1059 12.8993C34.2881 13.2145 34.619 13.3907 34.9596 13.3907C35.1271 13.3907 35.2964 13.3483 35.451 13.2588C37.3319 12.1716 37.9779 9.75797 36.8927 7.87809C36.3668 6.96723 35.517 6.31533 34.5008 6.04252C33.4826 5.76971 32.4219 5.91061 31.512 6.43638C30.6011 6.96226 29.9492 7.81208 29.6764 8.8283C29.4214 9.77955 29.5425 10.7673 30.0053 11.6664C29.1604 13.0411 28.3707 15.0883 27.9315 18.1332C26.4573 16.3676 25.6035 14.1184 25.6035 11.817C25.6035 6.38699 30.0211 1.96944 35.451 1.96944C40.8808 1.96944 45.2985 6.38711 45.2985 11.817C45.2985 17.2468 40.8808 21.6645 35.451 21.6645C34.3816 21.6645 33.3298 21.4941 32.3264 21.1593C31.8114 20.9879 31.252 21.2657 31.0806 21.7807C30.9073 22.2966 31.186 22.854 31.7021 23.0264C32.9074 23.4292 34.1689 23.634 35.451 23.634C41.9671 23.634 47.2681 18.3331 47.2681 11.817C47.2682 5.30095 41.9672 0 35.4511 0C28.935 0 23.634 5.30095 23.634 11.8171C23.634 15.1751 25.1417 18.4386 27.6705 20.673Z" fill="white"/>
<path d="M58.7968 28.8465L48.5691 18.6189C48.1851 18.2348 47.5617 18.2348 47.1767 18.6189C46.7927 19.0039 46.7927 19.6272 47.1767 20.0113L57.1159 29.9504V33.4818H53.5845L53.1768 33.0741V30.5276C53.1768 29.984 52.7356 29.5428 52.1921 29.5428H51.2073V28.5581C51.2073 28.0146 50.7662 27.5734 50.2226 27.5734H47.677L47.2684 27.1648V24.6191C47.2684 24.0756 46.8272 23.6344 46.2836 23.6344H43.737L43.6414 23.5389C43.2574 23.1548 42.634 23.1548 42.249 23.5389C41.8649 23.924 41.8649 24.5472 42.249 24.9313L42.633 25.3153C42.8172 25.5004 43.0683 25.6038 43.3293 25.6038H45.2988V27.5724C45.2988 27.8333 45.4022 28.0835 45.5864 28.2677L46.5711 29.2543C46.7562 29.4394 47.0064 29.5428 47.2684 29.5428H49.2379V30.5276C49.2379 31.0711 49.6791 31.5123 50.2226 31.5123H51.2073V33.4818C51.2073 33.7427 51.3107 33.9939 51.4958 34.178L52.4806 35.1628C52.6647 35.3479 52.9158 35.4513 53.1768 35.4513H58.1006C58.6441 35.4513 59.0853 35.0101 59.0853 34.4665V29.5427C59.0853 29.2818 58.9819 29.0307 58.7968 28.8465Z" fill="white"/>
<path d="M5.90869 16.7408C5.90869 17.2844 6.34987 17.7255 6.89341 17.7255H7.87813V23.6341H6.89341C6.34987 23.6341 5.90869 24.0753 5.90869 24.6188C5.90869 25.1623 6.34987 25.6035 6.89341 25.6035H7.87813V31.512H6.89341C6.34987 31.512 5.90869 31.9532 5.90869 32.4968C5.90869 33.0403 6.34987 33.4815 6.89341 33.4815H7.87813V39.39H6.89341C6.34987 39.39 5.90869 39.8312 5.90869 40.3747C5.90869 40.9183 6.34987 41.3595 6.89341 41.3595H7.87813V47.268H6.89341C6.34987 47.268 5.90869 47.7092 5.90869 48.2527C5.90869 48.7962 6.34987 49.2374 6.89341 49.2374H7.87813V54.1612C7.87813 54.7048 8.31931 55.146 8.86284 55.146C9.40638 55.146 9.84756 54.7048 9.84756 54.1612V49.2374H13.7865V54.1612C13.7865 54.7048 14.2277 55.146 14.7713 55.146C15.3148 55.146 15.756 54.7048 15.756 54.1612V49.2374H19.695V54.1612C19.695 54.7048 20.1361 55.146 20.6797 55.146C21.2232 55.146 21.6644 54.7048 21.6644 54.1612V49.2374H25.6034V54.1612C25.6034 54.7048 26.0446 55.146 26.5881 55.146C27.1316 55.146 27.5728 54.7048 27.5728 54.1612V49.2374H28.5575C29.1011 49.2374 29.5423 48.7962 29.5423 48.2527C29.5423 47.7092 29.1011 47.268 28.5575 47.268H27.5728V41.3595H28.5575C29.1011 41.3595 29.5423 40.9183 29.5423 40.3747C29.5423 39.8312 29.1011 39.39 28.5575 39.39H27.5728V33.4815C28.1164 33.4815 28.5575 33.0403 28.5575 32.4968C28.5575 31.9532 28.1164 31.512 27.5728 31.512C27.5728 30.9685 27.1316 30.5273 26.5881 30.5273C26.0446 30.5273 25.6034 30.9685 25.6034 31.512H21.6644V25.6035H24.6187C25.1622 25.6035 25.6034 25.1623 25.6034 24.6188C25.6034 24.0753 25.1622 23.6341 24.6187 23.6341H21.6644V17.7255H22.1572C22.7007 17.7255 23.1419 17.2844 23.1419 16.7408C23.1419 16.1973 22.7007 15.7561 22.1572 15.7561H6.89341C6.34987 15.756 5.90869 16.1972 5.90869 16.7408ZM21.6648 33.4816H25.6037V39.3901H21.6648V33.4816ZM21.6648 41.3597H25.6037V47.2682H21.6648V41.3597ZM15.7562 17.7255H19.6952V23.6341H15.7562V17.7255ZM15.7562 25.6036H19.6952V31.5122H15.7562V25.6036ZM15.7562 33.4816H19.6952V39.3901H15.7562V33.4816ZM15.7562 41.3597H19.6952V47.2682H15.7562V41.3597ZM9.84768 17.7255H13.7867V23.6341H9.84768V17.7255ZM9.84768 25.6036H13.7867V31.5122H9.84768V25.6036ZM9.84768 33.4816H13.7867V39.3901H9.84768V33.4816ZM9.84768 41.3597H13.7867V47.2682H9.84768V41.3597Z" fill="white"/>
<path d="M20.6799 13.7866C21.2234 13.7866 21.6646 13.3454 21.6646 12.8019C21.6646 12.2583 21.2234 11.8171 20.6799 11.8171H14.7713C14.2278 11.8171 13.7866 12.2583 13.7866 12.8019C13.7866 13.3454 14.2278 13.7866 14.7713 13.7866H20.6799Z" fill="white"/>
<path d="M58.1007 57.1158H43.3293V53.0773C45.5735 52.6194 47.2683 50.6312 47.2683 48.253C47.2683 48.125 47.2122 35.4512 42.3445 35.4512C37.4767 35.4512 37.4207 48.125 37.4207 48.253C37.4207 50.6312 39.1154 52.6194 41.3596 53.0773V57.1158H33.4816V34.4665C33.4816 33.9229 33.0404 33.4818 32.4968 33.4818C31.9533 33.4818 31.5121 33.9229 31.5121 34.4665V57.1159H3.93899V13.7866H10.8322C11.3758 13.7866 11.817 13.3454 11.817 12.8019V9.84761H20.6798C21.2233 9.84761 21.6645 9.40643 21.6645 8.86289C21.6645 8.31935 21.2233 7.87817 20.6798 7.87817H10.8324C10.2888 7.87817 9.84764 8.31935 9.84764 8.86289V11.8172H2.95427C2.41073 11.8172 1.96955 12.2583 1.96955 12.8019V57.1159H0.984718C0.441178 57.1159 0 57.5571 0 58.1006C0 58.6442 0.441178 59.0853 0.984718 59.0853H58.1005C58.6441 59.0853 59.0853 58.6442 59.0853 58.1006C59.0853 57.5571 58.6442 57.1158 58.1007 57.1158ZM39.3902 48.253C39.3902 43.3469 40.7079 37.4206 42.3445 37.4206C43.9811 37.4206 45.2987 43.3469 45.2987 48.253C45.2987 49.8818 43.9732 51.2072 42.3445 51.2072C40.7157 51.2072 39.3902 49.8818 39.3902 48.253Z" fill="white"/>
</svg>
