<svg width="271" height="268" viewBox="0 0 271 268" fill="none" xmlns="http://www.w3.org/2000/svg">
<g filter="url(#filter0_d)">
<rect x="266" y="263" width="261" height="258" transform="rotate(-180 266 263)" fill="url(#paint0_linear)"/>
<g filter="url(#filter1_d)">
<path d="M107.788 82.2775V165.71C107.788 167.47 109.655 168.57 111.149 167.69L180.252 125.974C181.718 125.094 181.718 122.921 180.252 122.041L111.149 80.3251C109.655 79.4176 107.788 80.5176 107.788 82.2775V82.2775Z" fill="#D37700"/>
</g>
</g>
<path d="M55.5478 232.427V233.201C55.5478 233.588 55.4716 233.958 55.319 234.31C55.1782 234.65 54.9787 234.955 54.7206 235.225C54.4624 235.495 54.1573 235.712 53.8053 235.877C53.465 236.029 53.0953 236.105 52.6964 236.105C52.3561 236.105 52.0099 236.058 51.6579 235.965C51.3058 235.871 50.989 235.706 50.7074 235.472C50.4257 235.237 50.1911 234.938 50.0033 234.574C49.8273 234.199 49.7393 233.723 49.7393 233.148V226.248C49.7393 225.838 49.8097 225.456 49.9505 225.104C50.0913 224.752 50.2908 224.447 50.549 224.189C50.8071 223.931 51.1122 223.731 51.4642 223.591C51.828 223.438 52.227 223.362 52.6612 223.362C53.506 223.362 54.1925 223.637 54.7206 224.189C54.9787 224.459 55.1782 224.782 55.319 225.157C55.4716 225.521 55.5478 225.92 55.5478 226.354V227.058H53.7525V226.46C53.7525 226.108 53.6527 225.802 53.4532 225.544C53.2538 225.286 52.9839 225.157 52.6436 225.157C52.1976 225.157 51.8984 225.298 51.7459 225.58C51.6051 225.849 51.5346 226.196 51.5346 226.618V233.025C51.5346 233.389 51.6109 233.694 51.7635 233.94C51.9278 234.187 52.2152 234.31 52.626 234.31C52.7433 234.31 52.8665 234.292 52.9956 234.257C53.1364 234.21 53.2655 234.14 53.3828 234.046C53.4884 233.952 53.5764 233.823 53.6469 233.659C53.7173 233.494 53.7525 233.289 53.7525 233.043V232.427H55.5478ZM56.9072 236V227.076H58.7377L60.5507 231.863H60.5859L62.3989 227.076H64.2295V236H62.5045V230.596H62.4693L61.026 234.539H60.1107L58.6673 230.596H58.6321V236H56.9072ZM65.5496 230.068C65.5496 229.704 65.5731 229.37 65.62 229.065C65.667 228.76 65.755 228.49 65.884 228.255C66.0953 227.868 66.3945 227.557 66.7817 227.322C67.1807 227.087 67.6618 226.97 68.2251 226.97C68.7883 226.97 69.2636 227.087 69.6508 227.322C70.0498 227.557 70.3549 227.868 70.5661 228.255C70.6952 228.49 70.7832 228.76 70.8301 229.065C70.8771 229.37 70.9005 229.704 70.9005 230.068V233.007C70.9005 233.371 70.8771 233.706 70.8301 234.011C70.7832 234.316 70.6952 234.586 70.5661 234.82C70.3549 235.208 70.0498 235.519 69.6508 235.753C69.2636 235.988 68.7883 236.105 68.2251 236.105C67.6618 236.105 67.1807 235.988 66.7817 235.753C66.3945 235.519 66.0953 235.208 65.884 234.82C65.755 234.586 65.667 234.316 65.62 234.011C65.5731 233.706 65.5496 233.371 65.5496 233.007V230.068ZM67.345 233.289C67.345 233.629 67.4213 233.888 67.5738 234.064C67.7381 234.228 67.9552 234.31 68.2251 234.31C68.495 234.31 68.7062 234.228 68.8587 234.064C69.023 233.888 69.1052 233.629 69.1052 233.289V229.786C69.1052 229.446 69.023 229.194 68.8587 229.029C68.7062 228.853 68.495 228.765 68.2251 228.765C67.9552 228.765 67.7381 228.853 67.5738 229.029C67.4213 229.194 67.345 229.446 67.345 229.786V233.289ZM73.1577 236V228.66H71.3975V227.076H76.7132V228.66H74.9531V236H73.1577ZM77.4482 239.608V227.076H79.2436V227.885C79.4666 227.627 79.6954 227.41 79.9301 227.234C80.1648 227.058 80.5051 226.97 80.951 226.97C81.6903 226.97 82.2124 227.252 82.5175 227.815C82.6231 228.014 82.6994 228.261 82.7464 228.554C82.7933 228.848 82.8168 229.241 82.8168 229.734V233.131C82.8168 233.788 82.7992 234.263 82.764 234.556C82.6936 235.143 82.4237 235.583 81.9543 235.877C81.7196 236.029 81.3793 236.105 80.9334 236.105C80.5813 236.105 80.2645 236.029 79.9829 235.877C79.713 235.712 79.4783 235.483 79.2788 235.19H79.2436V239.608H77.4482ZM81.0214 229.98C81.0214 229.616 80.951 229.323 80.8102 229.1C80.6694 228.877 80.4464 228.765 80.1413 228.765C79.8714 228.765 79.6543 228.871 79.49 229.082C79.3258 229.282 79.2436 229.546 79.2436 229.874V233.342C79.2436 233.624 79.3258 233.858 79.49 234.046C79.6661 234.222 79.8831 234.31 80.1413 234.31C80.4816 234.31 80.7104 234.204 80.8278 233.993C80.9569 233.782 81.0214 233.536 81.0214 233.254V229.98ZM89.482 232.215H85.9265V233.43C85.9265 233.712 86.0028 233.929 86.1553 234.081C86.3196 234.234 86.5367 234.31 86.8066 234.31C87.1469 234.31 87.3698 234.21 87.4754 234.011C87.5928 233.811 87.6632 233.612 87.6867 233.412H89.482C89.482 234.199 89.2415 234.832 88.7604 235.313C88.5257 235.56 88.2441 235.753 87.9155 235.894C87.5869 236.035 87.2173 236.105 86.8066 236.105C86.2433 236.105 85.7622 235.988 85.3632 235.753C84.976 235.519 84.6768 235.208 84.4656 234.82C84.3365 234.586 84.2485 234.316 84.2015 234.011C84.1546 233.706 84.1311 233.371 84.1311 233.007V230.068C84.1311 229.704 84.1546 229.37 84.2015 229.065C84.2485 228.76 84.3365 228.49 84.4656 228.255C84.6768 227.868 84.976 227.557 85.3632 227.322C85.7622 227.087 86.2433 226.97 86.8066 226.97C87.2173 226.97 87.5869 227.04 87.9155 227.181C88.2558 227.322 88.5433 227.516 88.778 227.762C89.2474 228.29 89.482 228.953 89.482 229.751V232.215ZM85.9265 230.807H87.6867V229.786C87.6867 229.446 87.6045 229.194 87.4402 229.029C87.2877 228.853 87.0765 228.765 86.8066 228.765C86.5367 228.765 86.3196 228.853 86.1553 229.029C86.0028 229.194 85.9265 229.446 85.9265 229.786V230.807ZM91.8251 236V228.66H90.065V227.076H95.3807V228.66H93.6205V236H91.8251ZM96.1157 236V227.076H97.9111V230.596H98.4215C98.8909 230.596 99.3075 230.643 99.6712 230.737C100.035 230.819 100.34 230.966 100.587 231.177C100.845 231.388 101.038 231.67 101.167 232.022C101.296 232.374 101.361 232.808 101.361 233.324C101.361 233.7 101.302 234.064 101.185 234.416C101.079 234.756 100.909 235.049 100.675 235.296C100.393 235.589 100.047 235.783 99.636 235.877C99.2253 235.959 98.8264 236 98.4391 236H96.1157ZM97.9111 234.504H98.5975C98.8557 234.504 99.0845 234.421 99.284 234.257C99.4952 234.081 99.6008 233.77 99.6008 233.324C99.6008 232.961 99.5304 232.667 99.3896 232.444C99.2605 232.21 98.9848 232.092 98.5623 232.092H97.9111V234.504ZM105.759 236V227.076H108.082C108.434 227.076 108.798 227.111 109.174 227.181C109.549 227.252 109.889 227.416 110.194 227.674C110.476 227.909 110.67 228.185 110.775 228.501C110.893 228.818 110.951 229.164 110.951 229.54C110.951 229.669 110.94 229.822 110.916 229.998C110.893 230.162 110.846 230.332 110.775 230.508C110.705 230.684 110.599 230.86 110.458 231.036C110.329 231.2 110.153 231.341 109.93 231.459C110.177 231.552 110.376 231.67 110.529 231.811C110.681 231.951 110.799 232.11 110.881 232.286C110.975 232.462 111.033 232.65 111.057 232.849C111.092 233.037 111.11 233.225 111.11 233.412C111.11 233.788 111.057 234.134 110.951 234.451C110.857 234.768 110.693 235.049 110.458 235.296C110.177 235.589 109.831 235.783 109.42 235.877C109.009 235.959 108.61 236 108.223 236H105.759ZM107.554 234.504H108.276C108.405 234.504 108.528 234.492 108.646 234.468C108.775 234.433 108.886 234.375 108.98 234.292C109.086 234.21 109.168 234.099 109.226 233.958C109.285 233.817 109.314 233.635 109.314 233.412C109.314 233.049 109.244 232.755 109.103 232.532C108.974 232.298 108.698 232.18 108.276 232.18H107.554V234.504ZM107.554 230.772H108.258C108.622 230.772 108.874 230.661 109.015 230.438C109.156 230.215 109.226 229.915 109.226 229.54C109.226 229.27 109.144 229.041 108.98 228.853C108.816 228.666 108.587 228.572 108.293 228.572H107.554V230.772ZM116.249 236V230.332H116.213L114.224 236H112.394V227.076H114.084V232.743H114.119L116.09 227.076H117.938V236H116.249ZM120.234 236V237.76H118.72V234.504H119.53C119.659 234.257 119.77 233.929 119.864 233.518C119.97 233.107 120.052 232.673 120.111 232.215C120.158 231.84 120.187 231.453 120.199 231.054C120.21 230.655 120.216 230.291 120.216 229.962V227.076H125.145V234.504H125.99V237.76H124.476V236H120.234ZM121.906 228.572V229.91C121.906 230.062 121.9 230.25 121.888 230.473C121.877 230.684 121.859 230.907 121.836 231.142C121.824 231.365 121.806 231.588 121.783 231.811C121.771 232.022 121.754 232.204 121.73 232.356C121.683 232.661 121.607 233.025 121.501 233.448C121.407 233.858 121.296 234.21 121.167 234.504H123.349V228.572H121.906ZM131.991 232.215H128.435V233.43C128.435 233.712 128.512 233.929 128.664 234.081C128.828 234.234 129.046 234.31 129.315 234.31C129.656 234.31 129.879 234.21 129.984 234.011C130.102 233.811 130.172 233.612 130.196 233.412H131.991C131.991 234.199 131.75 234.832 131.269 235.313C131.035 235.56 130.753 235.753 130.424 235.894C130.096 236.035 129.726 236.105 129.315 236.105C128.752 236.105 128.271 235.988 127.872 235.753C127.485 235.519 127.186 235.208 126.974 234.82C126.845 234.586 126.757 234.316 126.71 234.011C126.663 233.706 126.64 233.371 126.64 233.007V230.068C126.64 229.704 126.663 229.37 126.71 229.065C126.757 228.76 126.845 228.49 126.974 228.255C127.186 227.868 127.485 227.557 127.872 227.322C128.271 227.087 128.752 226.97 129.315 226.97C129.726 226.97 130.096 227.04 130.424 227.181C130.765 227.322 131.052 227.516 131.287 227.762C131.756 228.29 131.991 228.953 131.991 229.751V232.215ZM128.435 230.807H130.196V229.786C130.196 229.446 130.113 229.194 129.949 229.029C129.797 228.853 129.585 228.765 129.315 228.765C129.046 228.765 128.828 228.853 128.664 229.029C128.512 229.194 128.435 229.446 128.435 229.786V230.807ZM133.155 230.068C133.155 229.704 133.178 229.37 133.225 229.065C133.272 228.76 133.36 228.49 133.489 228.255C133.7 227.868 134 227.557 134.387 227.322C134.786 227.087 135.267 226.97 135.83 226.97C136.393 226.97 136.869 227.087 137.256 227.322C137.655 227.557 137.96 227.868 138.171 228.255C138.3 228.49 138.388 228.76 138.435 229.065C138.482 229.37 138.506 229.704 138.506 230.068V233.007C138.506 233.371 138.482 233.706 138.435 234.011C138.388 234.316 138.3 234.586 138.171 234.82C137.96 235.208 137.655 235.519 137.256 235.753C136.869 235.988 136.393 236.105 135.83 236.105C135.267 236.105 134.786 235.988 134.387 235.753C134 235.519 133.7 235.208 133.489 234.82C133.36 234.586 133.272 234.316 133.225 234.011C133.178 233.706 133.155 233.371 133.155 233.007V230.068ZM134.95 233.289C134.95 233.629 135.026 233.888 135.179 234.064C135.343 234.228 135.56 234.31 135.83 234.31C136.1 234.31 136.311 234.228 136.464 234.064C136.628 233.888 136.71 233.629 136.71 233.289V229.786C136.71 229.446 136.628 229.194 136.464 229.029C136.311 228.853 136.1 228.765 135.83 228.765C135.56 228.765 135.343 228.853 135.179 229.029C135.026 229.194 134.95 229.446 134.95 229.786V233.289ZM143.094 236V227.076H148.462V236H146.667V228.572H144.889V236H143.094ZM149.866 239.608V227.076H151.662V227.885C151.885 227.627 152.113 227.41 152.348 227.234C152.583 227.058 152.923 226.97 153.369 226.97C154.108 226.97 154.63 227.252 154.936 227.815C155.041 228.014 155.117 228.261 155.164 228.554C155.211 228.848 155.235 229.241 155.235 229.734V233.131C155.235 233.788 155.217 234.263 155.182 234.556C155.112 235.143 154.842 235.583 154.372 235.877C154.138 236.029 153.797 236.105 153.351 236.105C152.999 236.105 152.683 236.029 152.401 235.877C152.131 235.712 151.896 235.483 151.697 235.19H151.662V239.608H149.866ZM153.439 229.98C153.439 229.616 153.369 229.323 153.228 229.1C153.087 228.877 152.864 228.765 152.559 228.765C152.289 228.765 152.072 228.871 151.908 229.082C151.744 229.282 151.662 229.546 151.662 229.874V233.342C151.662 233.624 151.744 233.858 151.908 234.046C152.084 234.222 152.301 234.31 152.559 234.31C152.9 234.31 153.128 234.204 153.246 233.993C153.375 233.782 153.439 233.536 153.439 233.254V229.98ZM161.9 232.215H158.345V233.43C158.345 233.712 158.421 233.929 158.573 234.081C158.738 234.234 158.955 234.31 159.225 234.31C159.565 234.31 159.788 234.21 159.893 234.011C160.011 233.811 160.081 233.612 160.105 233.412H161.9C161.9 234.199 161.66 234.832 161.178 235.313C160.944 235.56 160.662 235.753 160.334 235.894C160.005 236.035 159.635 236.105 159.225 236.105C158.661 236.105 158.18 235.988 157.781 235.753C157.394 235.519 157.095 235.208 156.884 234.82C156.755 234.586 156.667 234.316 156.62 234.011C156.573 233.706 156.549 233.371 156.549 233.007V230.068C156.549 229.704 156.573 229.37 156.62 229.065C156.667 228.76 156.755 228.49 156.884 228.255C157.095 227.868 157.394 227.557 157.781 227.322C158.18 227.087 158.661 226.97 159.225 226.97C159.635 226.97 160.005 227.04 160.334 227.181C160.674 227.322 160.961 227.516 161.196 227.762C161.665 228.29 161.9 228.953 161.9 229.751V232.215ZM158.345 230.807H160.105V229.786C160.105 229.446 160.023 229.194 159.858 229.029C159.706 228.853 159.495 228.765 159.225 228.765C158.955 228.765 158.738 228.853 158.573 229.029C158.421 229.194 158.345 229.446 158.345 229.786V230.807ZM162.817 229.575C162.841 229.223 162.917 228.895 163.046 228.589C163.187 228.273 163.369 227.997 163.592 227.762C163.827 227.516 164.102 227.322 164.419 227.181C164.736 227.04 165.082 226.97 165.458 226.97C165.833 226.97 166.191 227.035 166.531 227.164C166.883 227.281 167.183 227.457 167.429 227.692C167.664 227.915 167.846 228.185 167.975 228.501C168.116 228.807 168.186 229.153 168.186 229.54C168.186 229.669 168.174 229.822 168.151 229.998C168.127 230.162 168.074 230.332 167.992 230.508C167.922 230.684 167.81 230.86 167.658 231.036C167.517 231.2 167.323 231.341 167.077 231.459C167.335 231.552 167.546 231.67 167.711 231.811C167.887 231.951 168.016 232.11 168.098 232.286C168.192 232.462 168.256 232.65 168.292 232.849C168.327 233.037 168.344 233.225 168.344 233.412C168.344 233.776 168.286 234.105 168.168 234.398C168.051 234.691 167.875 234.967 167.64 235.225C167.382 235.507 167.065 235.724 166.69 235.877C166.326 236.029 165.927 236.105 165.493 236.105C164.66 236.105 163.985 235.83 163.469 235.278C163.011 234.785 162.765 234.163 162.729 233.412H164.419C164.443 233.729 164.537 233.976 164.701 234.152C164.877 234.328 165.135 234.416 165.475 234.416C165.78 234.416 166.021 234.328 166.197 234.152C166.385 233.964 166.479 233.694 166.479 233.342C166.479 233.002 166.402 232.732 166.25 232.532C166.109 232.321 165.845 232.215 165.458 232.215H164.894V230.719H165.387C165.739 230.719 165.992 230.631 166.144 230.455C166.308 230.279 166.391 229.992 166.391 229.593C166.391 229.335 166.308 229.117 166.144 228.941C165.98 228.754 165.751 228.66 165.458 228.66C165.223 228.66 165.012 228.73 164.824 228.871C164.636 229 164.531 229.235 164.507 229.575H162.817ZM174.861 232.215H171.305V233.43C171.305 233.712 171.381 233.929 171.534 234.081C171.698 234.234 171.915 234.31 172.185 234.31C172.526 234.31 172.749 234.21 172.854 234.011C172.971 233.811 173.042 233.612 173.065 233.412H174.861C174.861 234.199 174.62 234.832 174.139 235.313C173.904 235.56 173.623 235.753 173.294 235.894C172.966 236.035 172.596 236.105 172.185 236.105C171.622 236.105 171.141 235.988 170.742 235.753C170.355 235.519 170.055 235.208 169.844 234.82C169.715 234.586 169.627 234.316 169.58 234.011C169.533 233.706 169.51 233.371 169.51 233.007V230.068C169.51 229.704 169.533 229.37 169.58 229.065C169.627 228.76 169.715 228.49 169.844 228.255C170.055 227.868 170.355 227.557 170.742 227.322C171.141 227.087 171.622 226.97 172.185 226.97C172.596 226.97 172.966 227.04 173.294 227.181C173.634 227.322 173.922 227.516 174.157 227.762C174.626 228.29 174.861 228.953 174.861 229.751V232.215ZM171.305 230.807H173.065V229.786C173.065 229.446 172.983 229.194 172.819 229.029C172.666 228.853 172.455 228.765 172.185 228.765C171.915 228.765 171.698 228.853 171.534 229.029C171.381 229.194 171.305 229.446 171.305 229.786V230.807ZM176.183 236V227.076H177.978V230.719H179.791V227.076H181.587V236H179.791V232.215H177.978V236H176.183ZM184.079 236V228.66H182.319V227.076H187.635V228.66H185.875V236H184.079ZM191.595 236V235.084H191.56C191.325 235.413 191.085 235.665 190.838 235.841C190.604 236.017 190.269 236.105 189.835 236.105C189.624 236.105 189.407 236.07 189.184 236C188.973 235.941 188.767 235.824 188.568 235.648C188.368 235.483 188.204 235.249 188.075 234.944C187.958 234.627 187.899 234.222 187.899 233.729C187.899 233.225 187.94 232.785 188.022 232.409C188.104 232.022 188.257 231.699 188.48 231.441C188.691 231.194 188.979 231.013 189.342 230.895C189.706 230.766 190.17 230.702 190.733 230.702C190.791 230.702 190.856 230.702 190.926 230.702C190.997 230.702 191.061 230.708 191.12 230.719C191.179 230.731 191.249 230.737 191.331 230.737C191.413 230.737 191.501 230.743 191.595 230.754V229.822C191.595 229.516 191.531 229.264 191.402 229.065C191.273 228.865 191.038 228.765 190.698 228.765C190.463 228.765 190.246 228.842 190.046 228.994C189.859 229.147 189.735 229.37 189.677 229.663H187.934C187.981 228.865 188.251 228.22 188.744 227.727C188.979 227.492 189.26 227.31 189.589 227.181C189.917 227.04 190.287 226.97 190.698 226.97C191.073 226.97 191.425 227.029 191.754 227.146C192.082 227.263 192.37 227.439 192.616 227.674C192.851 227.909 193.039 228.202 193.179 228.554C193.32 228.906 193.391 229.317 193.391 229.786V236H191.595ZM191.595 232.163C191.396 232.127 191.232 232.11 191.102 232.11C190.715 232.11 190.381 232.204 190.099 232.391C189.829 232.567 189.694 232.896 189.694 233.377C189.694 233.717 189.776 233.993 189.941 234.204C190.105 234.416 190.334 234.521 190.627 234.521C190.932 234.521 191.167 234.421 191.331 234.222C191.507 234.022 191.595 233.741 191.595 233.377V232.163ZM194.713 236V227.076H196.508V234.504H198.286V227.076H200.081V234.504H201.032V237.76H199.518V236H194.713ZM205.701 236V230.332H205.666L203.677 236H201.846V227.076H203.536V232.743H203.571L205.543 227.076H207.391V236H205.701ZM211.728 232.215H210.672V236H208.877V227.076H210.672V230.719H211.728V230.068C211.728 229.704 211.752 229.37 211.799 229.065C211.846 228.76 211.934 228.49 212.063 228.255C212.274 227.868 212.567 227.557 212.943 227.322C213.33 227.087 213.805 226.97 214.368 226.97C214.932 226.97 215.407 227.087 215.794 227.322C216.193 227.557 216.498 227.868 216.71 228.255C216.839 228.49 216.927 228.76 216.974 229.065C217.02 229.37 217.044 229.704 217.044 230.068V233.007C217.044 233.371 217.02 233.706 216.974 234.011C216.927 234.316 216.839 234.586 216.71 234.82C216.498 235.208 216.193 235.519 215.794 235.753C215.407 235.988 214.932 236.105 214.368 236.105C213.805 236.105 213.33 235.988 212.943 235.753C212.567 235.519 212.274 235.208 212.063 234.82C211.934 234.586 211.846 234.316 211.799 234.011C211.752 233.706 211.728 233.371 211.728 233.007V232.215ZM213.488 233.289C213.488 233.629 213.565 233.888 213.717 234.064C213.882 234.228 214.099 234.31 214.368 234.31C214.638 234.31 214.85 234.228 215.002 234.064C215.166 233.888 215.249 233.629 215.249 233.289V229.786C215.249 229.446 215.166 229.194 215.002 229.029C214.85 228.853 214.638 228.765 214.368 228.765C214.099 228.765 213.882 228.853 213.717 229.029C213.565 229.194 213.488 229.446 213.488 229.786V233.289Z" fill="#D37700"/>
<defs>
<filter id="filter0_d" x="0.732331" y="0.732331" width="269.535" height="266.535" filterUnits="userSpaceOnUse" color-interpolation-filters="sRGB">
<feFlood flood-opacity="0" result="BackgroundImageFix"/>
<feColorMatrix in="SourceAlpha" type="matrix" values="0 0 0 0 0 0 0 0 0 0 0 0 0 0 0 0 0 0 127 0" result="hardAlpha"/>
<feOffset/>
<feGaussianBlur stdDeviation="2.13383"/>
<feComposite in2="hardAlpha" operator="out"/>
<feColorMatrix type="matrix" values="0 0 0 0 0 0 0 0 0 0 0 0 0 0 0 0 0 0 0.25 0"/>
<feBlend mode="normal" in2="BackgroundImageFix" result="effect1_dropShadow"/>
<feBlend mode="normal" in="SourceGraphic" in2="effect1_dropShadow" result="shape"/>
</filter>
<filter id="filter1_d" x="106.236" y="79.9998" width="76.6675" height="91.1038" filterUnits="userSpaceOnUse" color-interpolation-filters="sRGB">
<feFlood flood-opacity="0" result="BackgroundImageFix"/>
<feColorMatrix in="SourceAlpha" type="matrix" values="0 0 0 0 0 0 0 0 0 0 0 0 0 0 0 0 0 0 127 0" result="hardAlpha"/>
<feOffset dy="1.55188"/>
<feGaussianBlur stdDeviation="0.77594"/>
<feComposite in2="hardAlpha" operator="out"/>
<feColorMatrix type="matrix" values="0 0 0 0 0 0 0 0 0 0 0 0 0 0 0 0 0 0 0.25 0"/>
<feBlend mode="normal" in2="BackgroundImageFix" result="effect1_dropShadow"/>
<feBlend mode="normal" in="SourceGraphic" in2="effect1_dropShadow" result="shape"/>
</filter>
<linearGradient id="paint0_linear" x1="396.5" y1="263" x2="396.5" y2="521" gradientUnits="userSpaceOnUse">
<stop/>
<stop offset="1" stop-opacity="0"/>
</linearGradient>
</defs>
</svg>
