<svg width="271" height="268" fill="none" xmlns="http://www.w3.org/2000/svg"><g filter="url(#filter0_d)"><path transform="rotate(-180 266 263)" fill="url(#paint0_linear)" d="M266 263h261v258H266z"/><g filter="url(#filter1_d)"><path d="M107.788 82.278v83.432c0 1.76 1.867 2.86 3.361 1.98l69.103-41.716c1.466-.88 1.466-3.053 0-3.933l-69.103-41.716c-1.494-.907-3.361.193-3.361 1.953z" fill="#D37700"/></g></g><path d="M55.548 232.427v.774c0 .387-.076.757-.229 1.109-.14.34-.34.645-.598.915-.259.27-.564.487-.916.652-.34.152-.71.228-1.109.228-.34 0-.686-.047-1.038-.14a2.468 2.468 0 01-.95-.493 2.854 2.854 0 01-.705-.898c-.176-.375-.264-.851-.264-1.426v-6.9c0-.41.07-.792.212-1.144a2.68 2.68 0 011.513-1.513 3.057 3.057 0 011.197-.229c.845 0 1.532.275 2.06.827.258.27.457.593.598.968.153.364.229.763.229 1.197v.704h-1.796v-.598c0-.352-.1-.658-.299-.916a.97.97 0 00-.81-.387c-.445 0-.745.141-.897.423-.14.269-.211.616-.211 1.038v6.407c0 .364.076.669.229.915.164.247.451.37.862.37.117 0 .24-.018.37-.053.14-.047.27-.117.387-.211.105-.094.193-.223.264-.387.07-.165.105-.37.105-.616v-.616h1.796zm1.36 3.573v-8.924h1.83l1.813 4.787h.035l1.813-4.787h1.83V236h-1.724v-5.404h-.036l-1.443 3.943h-.915l-1.444-3.943h-.035V236h-1.725zm8.642-5.932c0-.364.023-.698.07-1.003.047-.305.135-.575.264-.81a2.45 2.45 0 01.898-.933c.399-.235.88-.352 1.443-.352.563 0 1.039.117 1.426.352.399.235.704.546.915.933.13.235.217.505.264.81.047.305.07.639.07 1.003v2.939c0 .364-.023.699-.07 1.004a2.425 2.425 0 01-.264.809 2.399 2.399 0 01-.915.933c-.387.235-.863.352-1.426.352s-1.044-.117-1.443-.352a2.436 2.436 0 01-.898-.933 2.43 2.43 0 01-.264-.809 6.63 6.63 0 01-.07-1.004v-2.939zm1.795 3.221c0 .34.076.599.229.775.164.164.381.246.651.246s.481-.082.634-.246c.164-.176.246-.435.246-.775v-3.503c0-.34-.082-.592-.246-.757-.153-.176-.364-.264-.634-.264s-.487.088-.651.264c-.153.165-.229.417-.229.757v3.503zM73.158 236v-7.34h-1.76v-1.584h5.315v1.584h-1.76V236h-1.795zm4.29 3.608v-12.532h1.796v.809c.223-.258.451-.475.686-.651.235-.176.575-.264 1.021-.264.74 0 1.261.282 1.567.845.105.199.181.446.228.739.047.294.07.687.07 1.18v3.397c0 .657-.017 1.132-.052 1.425-.07.587-.34 1.027-.81 1.321-.234.152-.575.228-1.02.228-.353 0-.67-.076-.951-.228a2.316 2.316 0 01-.704-.687h-.035v4.418h-1.796zm3.573-9.628c0-.364-.07-.657-.21-.88-.142-.223-.365-.335-.67-.335a.786.786 0 00-.651.317c-.164.2-.246.464-.246.792v3.468c0 .282.082.516.246.704a.885.885 0 00.651.264c.34 0 .57-.106.687-.317.129-.211.193-.457.193-.739v-3.274zm8.461 2.235h-3.555v1.215c0 .282.076.499.228.651.165.153.382.229.652.229.34 0 .563-.1.668-.299.118-.2.188-.399.212-.599h1.795c0 .787-.24 1.42-.722 1.901a2.52 2.52 0 01-.845.581 2.786 2.786 0 01-1.108.211c-.564 0-1.045-.117-1.444-.352a2.435 2.435 0 01-.897-.933 2.428 2.428 0 01-.264-.809 6.63 6.63 0 01-.07-1.004v-2.939c0-.364.023-.698.07-1.003.047-.305.135-.575.264-.81a2.45 2.45 0 01.897-.933c.4-.235.88-.352 1.444-.352.41 0 .78.07 1.108.211.34.141.628.335.863.581.47.528.704 1.191.704 1.989v2.464zm-3.555-1.408h1.76v-1.021c0-.34-.082-.592-.247-.757-.152-.176-.364-.264-.633-.264a.851.851 0 00-.652.264c-.152.165-.228.417-.228.757v1.021zM91.825 236v-7.34h-1.76v-1.584h5.316v1.584h-1.76V236h-1.796zm4.29 0v-8.924h1.796v3.52h.51c.47 0 .886.047 1.25.141.364.082.669.229.916.44.258.211.451.493.58.845.129.352.194.786.194 1.302 0 .376-.059.74-.176 1.092a2.22 2.22 0 01-.51.88 2.04 2.04 0 01-1.039.581c-.41.082-.81.123-1.197.123h-2.323zm1.796-1.496h.686c.259 0 .488-.083.687-.247.211-.176.317-.487.317-.933 0-.363-.07-.657-.211-.88-.13-.234-.405-.352-.828-.352h-.65v2.412zM105.76 236v-8.924h2.323c.352 0 .716.035 1.092.105.375.071.715.235 1.02.493.282.235.476.511.581.827.118.317.176.663.176 1.039 0 .129-.011.282-.035.458a2.084 2.084 0 01-.458 1.038 1.625 1.625 0 01-.528.423c.247.093.446.211.599.352.152.14.27.299.352.475.094.176.152.364.176.563a3.257 3.257 0 01-.106 1.602 2.06 2.06 0 01-1.531 1.426c-.411.082-.81.123-1.197.123h-2.464zm1.795-1.496h.722c.129 0 .252-.012.37-.036a.82.82 0 00.334-.176.792.792 0 00.246-.334 1.43 1.43 0 00.088-.546c0-.363-.07-.657-.211-.88-.129-.234-.405-.352-.827-.352h-.722v2.324zm0-3.732h.704c.364 0 .616-.111.757-.334.141-.223.211-.523.211-.898 0-.27-.082-.499-.246-.687-.164-.187-.393-.281-.687-.281h-.739v2.2zM116.25 236v-5.668h-.036l-1.99 5.668h-1.83v-8.924h1.69v5.667h.035l1.971-5.667h1.848V236h-1.689zm3.985 0v1.76h-1.514v-3.256h.81c.129-.247.24-.575.334-.986.106-.411.188-.845.247-1.303.047-.375.076-.762.088-1.161.011-.399.017-.763.017-1.092v-2.886h4.929v7.428h.845v3.256h-1.514V236h-4.242zm1.672-7.428v1.338a14.845 14.845 0 01-.07 1.232c-.012.223-.03.446-.053.669a5.63 5.63 0 01-.053.545c-.047.305-.123.669-.229 1.092-.094.41-.205.762-.334 1.056h2.182v-5.932h-1.443zm10.085 3.643h-3.556v1.215c0 .282.077.499.229.651.164.153.382.229.651.229.341 0 .564-.1.669-.299.118-.2.188-.399.212-.599h1.795c0 .787-.241 1.42-.722 1.901a2.51 2.51 0 01-.845.581 2.783 2.783 0 01-1.109.211c-.563 0-1.044-.117-1.443-.352a2.444 2.444 0 01-.898-.933 2.43 2.43 0 01-.264-.809 6.62 6.62 0 01-.07-1.004v-2.939c0-.364.023-.698.07-1.003.047-.305.135-.575.264-.81.212-.387.511-.698.898-.933.399-.235.88-.352 1.443-.352.411 0 .781.07 1.109.211.341.141.628.335.863.581.469.528.704 1.191.704 1.989v2.464zm-3.556-1.408h1.761v-1.021c0-.34-.083-.592-.247-.757-.152-.176-.364-.264-.634-.264a.85.85 0 00-.651.264c-.152.165-.229.417-.229.757v1.021zm4.72-.739c0-.364.023-.698.07-1.003.047-.305.135-.575.264-.81a2.45 2.45 0 01.898-.933c.399-.235.88-.352 1.443-.352.563 0 1.039.117 1.426.352.399.235.704.546.915.933.129.235.217.505.264.81a6.6 6.6 0 01.071 1.003v2.939c0 .364-.024.699-.071 1.004a2.43 2.43 0 01-.264.809 2.397 2.397 0 01-.915.933c-.387.235-.863.352-1.426.352s-1.044-.117-1.443-.352a2.437 2.437 0 01-.898-.933 2.43 2.43 0 01-.264-.809 6.62 6.62 0 01-.07-1.004v-2.939zm1.795 3.221c0 .34.076.599.229.775.164.164.381.246.651.246s.481-.082.634-.246c.164-.176.246-.435.246-.775v-3.503c0-.34-.082-.592-.246-.757-.153-.176-.364-.264-.634-.264s-.487.088-.651.264c-.153.165-.229.417-.229.757v3.503zm8.144 2.711v-8.924h5.368V236h-1.795v-7.428h-1.778V236h-1.795zm6.772 3.608v-12.532h1.796v.809c.223-.258.451-.475.686-.651.235-.176.575-.264 1.021-.264.739 0 1.261.282 1.567.845.105.199.181.446.228.739.047.294.071.687.071 1.18v3.397c0 .657-.018 1.132-.053 1.425-.07.587-.34 1.027-.81 1.321-.234.152-.575.228-1.021.228-.352 0-.668-.076-.95-.228a2.309 2.309 0 01-.704-.687h-.035v4.418h-1.796zm3.573-9.628c0-.364-.07-.657-.211-.88-.141-.223-.364-.335-.669-.335a.784.784 0 00-.651.317c-.164.2-.246.464-.246.792v3.468c0 .282.082.516.246.704a.885.885 0 00.651.264c.341 0 .569-.106.687-.317.129-.211.193-.457.193-.739v-3.274zm8.461 2.235h-3.555v1.215c0 .282.076.499.228.651.165.153.382.229.652.229.34 0 .563-.1.668-.299.118-.2.188-.399.212-.599h1.795c0 .787-.24 1.42-.722 1.901-.234.247-.516.44-.844.581a2.79 2.79 0 01-1.109.211c-.564 0-1.045-.117-1.444-.352a2.434 2.434 0 01-.897-.933 2.43 2.43 0 01-.264-.809 6.614 6.614 0 01-.071-1.004v-2.939a6.6 6.6 0 01.071-1.003c.047-.305.135-.575.264-.81.211-.387.51-.698.897-.933.399-.235.88-.352 1.444-.352.41 0 .78.07 1.109.211.34.141.627.335.862.581.469.528.704 1.191.704 1.989v2.464zm-3.555-1.408h1.76v-1.021c0-.34-.082-.592-.247-.757-.152-.176-.363-.264-.633-.264a.851.851 0 00-.652.264c-.152.165-.228.417-.228.757v1.021zm4.472-1.232c.024-.352.1-.68.229-.986.141-.316.323-.592.546-.827a2.526 2.526 0 011.866-.792 3 3 0 011.073.194c.352.117.652.293.898.528.235.223.417.493.546.809.141.306.211.652.211 1.039 0 .129-.012.282-.035.458a1.843 1.843 0 01-.159.51c-.07.176-.182.352-.334.528a1.752 1.752 0 01-.581.423c.258.093.469.211.634.352.176.14.305.299.387.475.094.176.158.364.194.563.035.188.052.376.052.563 0 .364-.058.693-.176.986a2.733 2.733 0 01-.528.827 2.596 2.596 0 01-.95.652 3.076 3.076 0 01-1.197.228c-.833 0-1.508-.275-2.024-.827-.458-.493-.704-1.115-.74-1.866h1.69c.024.317.118.564.282.74.176.176.434.264.774.264.305 0 .546-.088.722-.264.188-.188.282-.458.282-.81 0-.34-.077-.61-.229-.81-.141-.211-.405-.317-.792-.317h-.564v-1.496h.493c.352 0 .605-.088.757-.264.164-.176.247-.463.247-.862a.922.922 0 00-.247-.652c-.164-.187-.393-.281-.686-.281-.235 0-.446.07-.634.211-.188.129-.293.364-.317.704h-1.69zm12.044 2.64h-3.556v1.215c0 .282.076.499.229.651.164.153.381.229.651.229.341 0 .564-.1.669-.299.117-.2.188-.399.211-.599h1.796c0 .787-.241 1.42-.722 1.901-.235.247-.516.44-.845.581a2.783 2.783 0 01-1.109.211c-.563 0-1.044-.117-1.443-.352a2.437 2.437 0 01-.898-.933 2.43 2.43 0 01-.264-.809 6.62 6.62 0 01-.07-1.004v-2.939c0-.364.023-.698.07-1.003.047-.305.135-.575.264-.81a2.45 2.45 0 01.898-.933c.399-.235.88-.352 1.443-.352.411 0 .781.07 1.109.211.34.141.628.335.863.581.469.528.704 1.191.704 1.989v2.464zm-3.556-1.408h1.76v-1.021c0-.34-.082-.592-.246-.757-.153-.176-.364-.264-.634-.264s-.487.088-.651.264c-.153.165-.229.417-.229.757v1.021zm4.878 5.193v-8.924h1.795v3.643h1.813v-3.643h1.796V236h-1.796v-3.785h-1.813V236h-1.795zm7.896 0v-7.34h-1.76v-1.584h5.316v1.584h-1.76V236h-1.796zm7.516 0v-.916h-.035a3.196 3.196 0 01-.722.757c-.234.176-.569.264-1.003.264-.211 0-.428-.035-.651-.105a1.577 1.577 0 01-.616-.352c-.2-.165-.364-.399-.493-.704-.117-.317-.176-.722-.176-1.215 0-.504.041-.944.123-1.32.082-.387.235-.71.458-.968.211-.247.499-.428.862-.546.364-.129.828-.193 1.391-.193h.193c.071 0 .135.006.194.017.059.012.129.018.211.018.082 0 .17.006.264.017v-.932c0-.306-.064-.558-.193-.757-.129-.2-.364-.3-.704-.3-.235 0-.452.077-.652.229-.187.153-.311.376-.369.669h-1.743c.047-.798.317-1.443.81-1.936.235-.235.516-.417.845-.546a2.783 2.783 0 011.109-.211c.375 0 .727.059 1.056.176.328.117.616.293.862.528.235.235.423.528.563.88.141.352.212.763.212 1.232V236h-1.796zm0-3.837a2.855 2.855 0 00-.493-.053c-.387 0-.721.094-1.003.281-.27.176-.405.505-.405.986 0 .34.082.616.247.827.164.212.393.317.686.317.305 0 .54-.1.704-.299.176-.2.264-.481.264-.845v-1.214zm3.118 3.837v-8.924h1.795v7.428h1.778v-7.428h1.795v7.428h.951v3.256h-1.514V236h-4.805zm10.988 0v-5.668h-.035l-1.99 5.668h-1.831v-8.924h1.69v5.667h.035l1.972-5.667h1.848V236h-1.69zm6.027-3.785h-1.056V236h-1.795v-8.924h1.795v3.643h1.056v-.651a6.6 6.6 0 01.071-1.003 2.443 2.443 0 011.144-1.743c.387-.235.862-.352 1.425-.352.564 0 1.039.117 1.426.352.399.235.704.546.916.933.129.235.217.505.264.81.046.305.07.639.07 1.003v2.939c0 .364-.024.699-.07 1.004a2.43 2.43 0 01-.264.809 2.406 2.406 0 01-.916.933c-.387.235-.862.352-1.426.352-.563 0-1.038-.117-1.425-.352a2.472 2.472 0 01-.88-.933 2.43 2.43 0 01-.264-.809 6.614 6.614 0 01-.071-1.004v-.792zm1.76 1.074c0 .34.077.599.229.775.165.164.382.246.651.246.27 0 .482-.082.634-.246.164-.176.247-.435.247-.775v-3.503c0-.34-.083-.592-.247-.757-.152-.176-.364-.264-.634-.264a.85.85 0 00-.651.264c-.152.165-.229.417-.229.757v3.503z" fill="#D37700"/><defs><filter id="filter0_d" x=".732" y=".732" width="269.535" height="266.535" filterUnits="userSpaceOnUse" color-interpolation-filters="sRGB"><feFlood flood-opacity="0" result="BackgroundImageFix"/><feColorMatrix in="SourceAlpha" values="0 0 0 0 0 0 0 0 0 0 0 0 0 0 0 0 0 0 127 0" result="hardAlpha"/><feOffset/><feGaussianBlur stdDeviation="2.134"/><feComposite in2="hardAlpha" operator="out"/><feColorMatrix values="0 0 0 0 0 0 0 0 0 0 0 0 0 0 0 0 0 0 0.25 0"/><feBlend in2="BackgroundImageFix" result="effect1_dropShadow"/><feBlend in="SourceGraphic" in2="effect1_dropShadow" result="shape"/></filter><filter id="filter1_d" x="106.236" y="80" width="76.668" height="91.104" filterUnits="userSpaceOnUse" color-interpolation-filters="sRGB"><feFlood flood-opacity="0" result="BackgroundImageFix"/><feColorMatrix in="SourceAlpha" values="0 0 0 0 0 0 0 0 0 0 0 0 0 0 0 0 0 0 127 0" result="hardAlpha"/><feOffset dy="1.552"/><feGaussianBlur stdDeviation=".776"/><feComposite in2="hardAlpha" operator="out"/><feColorMatrix values="0 0 0 0 0 0 0 0 0 0 0 0 0 0 0 0 0 0 0.25 0"/><feBlend in2="BackgroundImageFix" result="effect1_dropShadow"/><feBlend in="SourceGraphic" in2="effect1_dropShadow" result="shape"/></filter><linearGradient id="paint0_linear" x1="396.5" y1="263" x2="396.5" y2="521" gradientUnits="userSpaceOnUse"><stop/><stop offset="1" stop-opacity="0"/></linearGradient></defs></svg>