<svg width="1072" height="256" viewBox="0 0 1072 256" fill="none" xmlns="http://www.w3.org/2000/svg">
<path d="M0 221.742V0H100.74V221.742H69.1229V28.0292H31.6167V221.742H0Z" fill="#F7F7F7"/>
<path d="M130.465 221.742V0H177.89C186.569 0 194.215 1.14193 200.828 3.42578C207.44 5.70964 213.433 9.7583 218.806 15.5718C224.179 21.3852 227.898 28.2368 229.965 36.1265C232.031 43.8086 233.064 54.2936 233.064 67.5815C233.064 77.5474 232.444 85.9562 231.205 92.8078C230.171 99.6594 227.795 106.096 224.075 112.117C219.736 119.384 213.95 125.093 206.717 129.246C199.485 133.191 189.979 135.163 178.2 135.163H162.082V221.742H130.465ZM162.082 29.8978V105.265H177.27C183.676 105.265 188.636 104.331 192.149 102.462C195.662 100.594 198.245 97.9984 199.898 94.6764C201.551 91.562 202.481 87.721 202.688 83.1533C203.101 78.5856 203.307 73.4988 203.307 67.8929C203.307 62.7023 203.204 57.8232 202.998 53.2555C202.791 48.4801 201.861 44.3277 200.208 40.798C198.555 37.2684 196.075 34.5693 192.769 32.7007C189.462 30.8321 184.709 29.8978 178.51 29.8978H162.082Z" fill="#F7F7F7"/>
<path d="M330.465 221.742V77.8589H329.845L288.309 221.742H256.692V0H288.309V144.195H288.929L330.465 0H362.081V221.742H330.465Z" fill="#F7F7F7"/>
<path d="M391.698 221.742V0H423.314V94.9878H462.37V0H493.987V221.742H462.37V123.017H423.314V221.742H391.698Z" fill="#F7F7F7"/>
<path d="M523.676 221.742V0H555.293V193.713H592.799V0H624.416V193.713H642.394V256H615.117V221.742H523.676Z" fill="#F7F7F7"/>
<path d="M732.757 221.742V77.8589H732.137L690.601 221.742H658.985V0H690.601V144.195H691.221L732.757 0H764.374V221.742H732.757Z" fill="#F7F7F7"/>
<path d="M793.99 221.742V0H894.73V221.742H863.113V28.0292H825.607V221.742H793.99Z" fill="#F7F7F7"/>
<path d="M924.455 0H956.072V90.9392H967.851C978.803 90.9392 987.895 92.4963 995.128 95.6107C1002.57 98.5174 1008.56 102.67 1013.11 108.068C1017.86 113.882 1020.86 120.11 1022.1 126.754C1023.33 133.398 1024.06 140.769 1024.26 148.866V161.324C1024.26 180.84 1019.51 195.789 1010.01 206.17C1000.71 216.552 985.726 221.742 965.061 221.742H924.455V0ZM956.072 118.968V189.976H967.231C973.637 189.976 978.596 189.041 982.109 187.173C985.829 185.304 988.619 182.709 990.478 179.387C992.338 176.065 993.475 172.12 993.888 167.552C994.301 162.985 994.508 158.002 994.508 152.603C994.508 146.998 994.198 142.222 993.578 138.277C992.958 134.333 991.718 130.907 989.858 128C987.792 125.093 985.002 122.913 981.489 121.46C977.976 119.799 973.327 118.968 967.541 118.968H956.072ZM1040.38 221.742V0H1072V221.742H1040.38Z" fill="#F7F7F7"/>
</svg>
