<svg width="1072" height="256" fill="none" xmlns="http://www.w3.org/2000/svg"><path d="M0 221.742V0h100.74v221.742H69.123V28.029H31.617v193.713H0zm130.465 0V0h47.425c8.679 0 16.325 1.142 22.938 3.426 6.612 2.284 12.605 6.332 17.978 12.146 5.373 5.813 9.092 12.665 11.159 20.555 2.066 7.682 3.099 18.167 3.099 31.455 0 9.965-.62 18.374-1.859 25.226-1.034 6.851-3.41 13.288-7.13 19.309-4.339 7.267-10.125 12.976-17.358 17.129-7.232 3.945-16.738 5.917-28.517 5.917h-16.118v86.579h-31.617zm31.617-191.844v75.367h15.188c6.406 0 11.366-.934 14.879-2.803 3.513-1.868 6.096-4.464 7.749-7.786 1.653-3.114 2.583-6.955 2.79-11.523.413-4.567.619-9.654.619-15.26 0-5.19-.103-10.07-.309-14.638-.207-4.775-1.137-8.927-2.79-12.457-1.653-3.53-4.133-6.229-7.439-8.097-3.307-1.869-8.06-2.803-14.259-2.803h-16.428zm168.383 191.844V77.859h-.62l-41.536 143.883h-31.617V0h31.617v144.195h.62L330.465 0h31.616v221.742h-31.616zm61.233 0V0h31.616v94.988h39.056V0h31.617v221.742H462.37v-98.725h-39.056v98.725h-31.616zm131.978 0V0h31.617v193.713h37.506V0h31.617v193.713h17.978V256h-27.277v-34.258h-91.441zm209.081 0V77.859h-.62l-41.536 143.883h-31.616V0h31.616v144.195h.62L732.757 0h31.617v221.742h-31.617zm61.233 0V0h100.74v221.742h-31.617V28.029h-37.506v193.713H793.99zM924.455 0h31.617v90.94h11.779c10.952 0 20.044 1.556 27.277 4.67 7.442 2.907 13.432 7.06 17.982 12.458 4.75 5.814 7.75 12.042 8.99 18.686 1.23 6.644 1.96 14.015 2.16 22.112v12.458c0 19.516-4.75 34.465-14.25 44.846-9.3 10.382-24.284 15.572-44.949 15.572h-40.606V0zm31.617 118.968v71.008h11.159c6.406 0 11.365-.935 14.878-2.803 3.72-1.869 6.51-4.464 8.369-7.786 1.86-3.322 2.997-7.267 3.41-11.835.413-4.567.62-9.55.62-14.949 0-5.605-.31-10.381-.93-14.326-.62-3.944-1.86-7.37-3.72-10.277-2.066-2.907-4.856-5.087-8.369-6.54-3.513-1.661-8.162-2.492-13.948-2.492h-11.469zm84.308 102.774V0H1072v221.742h-31.62z" fill="#F7F7F7"/></svg>