<svg width="27" height="24" fill="none" xmlns="http://www.w3.org/2000/svg"><g opacity=".3" clip-path="url(#clip0)" fill="#000"><path d="M8.809 17.4c-.321 0-.535-.1-.75-.3-.214-.1-.32-.4-.32-.7l.213-3.9c0-.2.107-.5.322-.6L20.694.3c.213-.2.535-.3.749-.3.32 0 .535.1.75.3l3.96 3.6c.215.2.322.4.322.7 0 .3-.107.5-.321.7l-12.42 11.6c-.214.2-.428.3-.642.3l-4.283.2c.107 0 0 0 0 0zm1.285-4.4l-.107 2.4 2.57-.1L23.904 4.7 21.55 2.5 10.094 13z"/><path d="M23.155 6.8c-.107 0-.321 0-.428-.1l-3.533-3.3a.462.462 0 010-.7c.214-.2.535-.2.75 0l3.64 3.3c.214.2.214.5 0 .7-.108.1-.322.1-.429.1z"/><path d="M11.7 14.3c-.107 0-.321 0-.428-.1a.462.462 0 010-.7l9.636-9c.214-.2.535-.2.75 0 .213.2.213.5 0 .7l-9.637 9c-.107 0-.214.1-.32.1zM8.808 17c-.107 0-.321-.1-.428-.1-.107-.1-.214-.2-.107-.4l.107-1.9c0-.2.214-.4.428-.5h.428c.643 0 1.178.2 1.5.6.428.4.535.9.535 1.5v.2c-.107.2-.214.4-.536.4l-1.927.2c.107 0 .107 0 0 0zm.643-1.9l-.107.9h.856c0-.2-.107-.4-.214-.5-.107-.3-.321-.4-.535-.4z"/><path d="M20.8 23.9H.245V7.4l6.424-6H19.73c.643 0 1.07.4 1.07 1s-.427 1-1.07 1H7.525l-5.14 4.9V22H18.66V10.2c0-.6.429-1 1.071-1 .643 0 1.07.4 1.07 1v13.7z"/><path d="M7.632 8.4H1.315c-.322 0-.536-.2-.536-.5s.214-.5.536-.5H6.56v-5c0-.3.214-.5.535-.5.321 0 .536.2.536.5v6z"/></g><defs><clipPath id="clip0"><path fill="#fff" transform="translate(.244)" d="M0 0h26.231v23.9H0z"/></clipPath></defs></svg>