<svg width="27" height="24" viewBox="0 0 27 24" fill="none" xmlns="http://www.w3.org/2000/svg">
<g opacity="0.3" clip-path="url(#clip0)">
<path d="M8.80894 17.4C8.48774 17.4 8.27361 17.3 8.05948 17.1C7.84535 17 7.73828 16.7 7.73828 16.4L7.95241 12.5C7.95241 12.3 8.05948 12 8.27361 11.9L20.6933 0.3C20.9074 0.1 21.2286 0 21.4427 0C21.7639 0 21.9781 0.1 22.1922 0.3L26.1536 3.9C26.3678 4.1 26.4748 4.3 26.4748 4.6C26.4748 4.9 26.3678 5.1 26.1536 5.3L13.734 16.9C13.5198 17.1 13.3057 17.2 13.0916 17.2L8.80894 17.4C8.91601 17.4 8.80894 17.4 8.80894 17.4ZM10.0937 13L9.98667 15.4L12.5563 15.3L23.9053 4.7L21.5498 2.5L10.0937 13Z" fill="black"/>
<path d="M23.1552 6.80005C23.0482 6.80005 22.834 6.80005 22.727 6.70005L19.1938 3.40005C18.9797 3.20005 18.9797 2.90005 19.1938 2.70005C19.4079 2.50005 19.7291 2.50005 19.9433 2.70005L23.5835 6.00005C23.7976 6.20005 23.7976 6.50005 23.5835 6.70005C23.4764 6.80005 23.2623 6.80005 23.1552 6.80005Z" fill="black"/>
<path d="M11.7002 14.3C11.5931 14.3 11.379 14.3 11.2719 14.2C11.0578 14 11.0578 13.7 11.2719 13.5L20.9079 4.49998C21.122 4.29998 21.4432 4.29998 21.6573 4.49998C21.8715 4.69998 21.8715 4.99998 21.6573 5.19998L12.0214 14.2C11.9143 14.2 11.8073 14.3 11.7002 14.3Z" fill="black"/>
<path d="M8.80819 17C8.70113 17 8.487 16.9 8.37993 16.9C8.27286 16.8 8.1658 16.7 8.27286 16.5L8.37993 14.6C8.37993 14.4 8.59406 14.2 8.80819 14.1C8.91526 14.1 8.91526 14.1 9.02233 14.1C9.12939 14.1 9.12939 14.1 9.23646 14.1C9.87885 14.1 10.4142 14.3 10.7354 14.7C11.1636 15.1 11.2707 15.6 11.2707 16.2C11.2707 16.3 11.2707 16.4 11.2707 16.4C11.1636 16.6 11.0566 16.8 10.7354 16.8L8.80819 17C8.91526 17 8.91526 17 8.80819 17ZM9.45059 15.1L9.34352 16H10.2001C10.2001 15.8 10.093 15.6 9.98592 15.5C9.87886 15.2 9.66472 15.1 9.45059 15.1Z" fill="black"/>
<path d="M20.8008 23.9H0.244141V7.40002L6.6681 1.40002H19.7302C20.3726 1.40002 20.8008 1.80002 20.8008 2.40002C20.8008 3.00002 20.3726 3.40002 19.7302 3.40002H7.52463L2.38546 8.30002V22H18.6595V10.2C18.6595 9.60002 19.0878 9.20002 19.7302 9.20002C20.3726 9.20002 20.8008 9.60002 20.8008 10.2V23.9Z" fill="black"/>
<path d="M7.63152 8.40002H1.31463C0.993429 8.40002 0.779297 8.20002 0.779297 7.90002C0.779297 7.60002 0.993429 7.40002 1.31463 7.40002H6.56086V2.40002C6.56086 2.10002 6.775 1.90002 7.09619 1.90002C7.41739 1.90002 7.63152 2.10002 7.63152 2.40002V8.40002Z" fill="black"/>
</g>
<defs>
<clipPath id="clip0">
<rect width="26.2312" height="23.9" fill="white" transform="translate(0.244141)"/>
</clipPath>
</defs>
</svg>
